<svg width="16" height="16" id="discord" viewBox="0 0 16 16" fill="none" xmlns="http://www.w3.org/2000/svg">
<path d="M13.0827 3.39252C12.1481 2.96352 11.1454 2.64752 10.0974 2.46652C10.0784 2.46319 10.0594 2.47186 10.0494 2.48919C9.92041 2.71852 9.77774 3.01752 9.67774 3.25286C8.55041 3.08419 7.42874 3.08419 6.32474 3.25286C6.22474 3.01252 6.07674 2.71852 5.94707 2.48919C5.93707 2.47219 5.91807 2.46352 5.89907 2.46652C4.85141 2.64686 3.84907 2.96286 2.91374 3.39252C2.90574 3.39586 2.89874 3.40186 2.89407 3.40952C0.99274 6.25019 0.47174 9.02119 0.727407 11.7575C0.728407 11.7709 0.736074 11.7839 0.746407 11.7919C2.00074 12.7132 3.21607 13.2725 4.40874 13.6432C4.42774 13.6489 4.44807 13.6422 4.46007 13.6262C4.74207 13.2409 4.99374 12.8349 5.20941 12.4075C5.22207 12.3825 5.21007 12.3529 5.18407 12.3429C4.78507 12.1915 4.40541 12.0072 4.04007 11.7975C4.01107 11.7805 4.00874 11.7392 4.03541 11.7195C4.11241 11.6619 4.18907 11.6019 4.26274 11.5415C4.27607 11.5305 4.29441 11.5282 4.31007 11.5352C6.71041 12.6312 9.30907 12.6312 11.6811 11.5352C11.6967 11.5275 11.7151 11.5299 11.7291 11.5409C11.8024 11.6015 11.8794 11.6619 11.9567 11.7195C11.9834 11.7392 11.9817 11.7805 11.9527 11.7975C11.5874 12.0112 11.2074 12.1915 10.8081 12.3422C10.7821 12.3522 10.7704 12.3822 10.7831 12.4075C11.0034 12.8342 11.2547 13.2402 11.5317 13.6255C11.5434 13.6419 11.5641 13.6489 11.5831 13.6429C12.7814 13.2722 13.9967 12.7129 15.2511 11.7915C15.2621 11.7835 15.2691 11.7712 15.2701 11.7579C15.5757 8.59419 14.7577 5.84619 13.1017 3.40986C13.0977 3.40186 13.0907 3.39586 13.0827 3.39252ZM5.56774 10.0912C4.84507 10.0912 4.24974 9.42786 4.24974 8.61286C4.24974 7.79786 4.83374 7.13452 5.56774 7.13452C6.30774 7.13452 6.89741 7.80386 6.88574 8.61286C6.88607 9.42752 6.30207 10.0912 5.56774 10.0912ZM10.4414 10.0912C9.71874 10.0912 9.12341 9.42786 9.12341 8.61286C9.12341 7.79786 9.70741 7.13452 10.4414 7.13452C11.1814 7.13452 11.7711 7.80386 11.7594 8.61286C11.7594 9.42752 11.1814 10.0912 10.4414 10.0912Z" fill="currentColor"/>
</svg>
