<svg width="20" height="21" viewBox="0 0 20 21" fill="none" xmlns="http://www.w3.org/2000/svg">
<path d="M5.14062 13.3174C8.87965 15.1869 11.1231 15.1869 14.8621 13.3174" stroke="currentColor" strokeWidth="1.5" strokeLinecap="round" strokeLinejoin="round"/>
<path d="M12.6173 14.5182L13.3651 16.0138C13.3651 16.0138 16.4845 15.0205 17.4781 13.3965C17.4781 12.6487 17.8745 7.30444 15.2346 5.54456C14.1129 4.79675 12.2434 4.42285 12.2434 4.42285L11.4956 5.91846H10" stroke="currentColor" strokeWidth="1.5" strokeLinecap="round" strokeLinejoin="round"/>
<path d="M7.40612 14.444L6.65831 15.9396C6.65831 15.9396 3.53897 14.9463 2.54538 13.3223C2.54538 12.5745 2.14898 7.23022 4.7888 5.47034C5.91051 4.72254 7.78002 4.34863 7.78002 4.34863L8.52783 5.84424H10.0234" stroke="currentColor" strokeWidth="1.5" strokeLinecap="round" strokeLinejoin="round"/>
<path d="M7.3822 11.8242C6.7627 11.8242 6.26049 11.1546 6.26049 10.3286C6.26049 9.50262 6.7627 8.83301 7.3822 8.83301C8.0017 8.83301 8.50391 9.50262 8.50391 10.3286C8.50391 11.1546 8.0017 11.8242 7.3822 11.8242Z" stroke="currentColor" strokeWidth="1.5" strokeLinecap="round" strokeLinejoin="round"/>
<path d="M12.6205 11.8242C12.001 11.8242 11.4988 11.1546 11.4988 10.3286C11.4988 9.50262 12.001 8.83301 12.6205 8.83301C13.24 8.83301 13.7422 9.50262 13.7422 10.3286C13.7422 11.1546 13.24 11.8242 12.6205 11.8242Z" stroke="currentColor" strokeWidth="1.5" strokeLinecap="round" strokeLinejoin="round"/>
</svg>
