<svg  viewBox="0 0 14 14" fill="none" xmlns="http://www.w3.org/2000/svg">
<path d="M13.7356 0.806925C13.4968 0.604415 13.1217 0.575439 12.7339 0.731143C12.326 0.894807 1.1873 5.67227 0.73388 5.86746C0.651412 5.89612 -0.068838 6.16486 0.00535216 6.76347C0.071582 7.30318 0.650456 7.52671 0.721144 7.5525L3.55279 8.52207C3.74065 9.14743 4.4332 11.4546 4.58636 11.9476C4.68188 12.2548 4.83758 12.6586 5.11046 12.7417C5.34991 12.834 5.58808 12.7496 5.7422 12.6286L7.47341 11.0229L10.2681 13.2024L10.3347 13.2422C10.5244 13.3263 10.7062 13.3683 10.8798 13.3683C11.0138 13.3683 11.1425 13.3432 11.2654 13.2928C11.6841 13.1209 11.8516 12.7219 11.8691 12.6767L13.9566 1.82616C14.084 1.24665 13.9069 0.951803 13.7356 0.806925ZM6.0501 8.90989L5.09486 11.4572L4.13962 8.27307L11.4631 2.86005L6.0501 8.90989Z" fill="currentColor"/>
</svg>
