<svg width="16" height="17" viewBox="0 0 16 17" fill="none" xmlns="http://www.w3.org/2000/svg">
<path d="M14.3675 4.98852C14.24 4.28477 13.6325 3.77227 12.9275 3.61227C11.8725 3.38852 9.91996 3.22852 7.80746 3.22852C5.69621 3.22852 3.71246 3.38852 2.65621 3.61227C1.95246 3.77227 1.34371 4.25227 1.21621 4.98852C1.08746 5.78852 0.959961 6.90852 0.959961 8.34852C0.959961 9.78852 1.08746 10.9085 1.24746 11.7085C1.37621 12.4123 1.98371 12.9248 2.68746 13.0848C3.80746 13.3085 5.72746 13.4685 7.83996 13.4685C9.95246 13.4685 11.8725 13.3085 12.9925 13.0848C13.6962 12.9248 14.3037 12.4448 14.4325 11.7085C14.56 10.9085 14.72 9.75602 14.7525 8.34852C14.6875 6.90852 14.5275 5.78852 14.3675 4.98852ZM6.07996 10.5885V6.10852L9.98371 8.34852L6.07996 10.5885Z" fill="currentColor"/>
</svg>
