<svg width="45" height="45" viewBox="0 0 45 45" fill="none" xmlns="http://www.w3.org/2000/svg">
<path d="M11.25 5.625C9.75816 5.625 8.32742 6.21763 7.27252 7.27252C6.21763 8.32742 5.625 9.75816 5.625 11.25V15.4688C5.625 16.9606 6.21763 18.3913 7.27252 19.4462C8.32742 20.5011 9.75816 21.0938 11.25 21.0938H15.4688C16.9606 21.0938 18.3913 20.5011 19.4462 19.4462C20.5011 18.3913 21.0938 16.9606 21.0938 15.4688V11.25C21.0938 9.75816 20.5011 8.32742 19.4462 7.27252C18.3913 6.21763 16.9606 5.625 15.4688 5.625H11.25ZM29.5312 5.625C28.0394 5.625 26.6087 6.21763 25.5538 7.27252C24.4989 8.32742 23.9062 9.75816 23.9062 11.25V15.4688C23.9062 16.9606 24.4989 18.3913 25.5538 19.4462C26.6087 20.5011 28.0394 21.0938 29.5312 21.0938H33.75C35.2418 21.0938 36.6726 20.5011 37.7275 19.4462C38.7824 18.3913 39.375 16.9606 39.375 15.4688V11.25C39.375 9.75816 38.7824 8.32742 37.7275 7.27252C36.6726 6.21763 35.2418 5.625 33.75 5.625H29.5312ZM11.25 23.9062C9.75816 23.9062 8.32742 24.4989 7.27252 25.5538C6.21763 26.6087 5.625 28.0394 5.625 29.5312V33.75C5.625 35.2418 6.21763 36.6726 7.27252 37.7275C8.32742 38.7824 9.75816 39.375 11.25 39.375H15.4688C16.9606 39.375 18.3913 38.7824 19.4462 37.7275C20.5011 36.6726 21.0938 35.2418 21.0938 33.75V29.5312C21.0938 28.0394 20.5011 26.6087 19.4462 25.5538C18.3913 24.4989 16.9606 23.9062 15.4688 23.9062H11.25ZM33.0469 25.3125C33.0469 24.9395 32.8987 24.5819 32.635 24.3181C32.3713 24.0544 32.0136 23.9062 31.6406 23.9062C31.2677 23.9062 30.91 24.0544 30.6463 24.3181C30.3825 24.5819 30.2344 24.9395 30.2344 25.3125V30.2344H25.3125C24.9395 30.2344 24.5819 30.3825 24.3181 30.6463C24.0544 30.91 23.9062 31.2677 23.9062 31.6406C23.9062 32.0136 24.0544 32.3713 24.3181 32.635C24.5819 32.8987 24.9395 33.0469 25.3125 33.0469H30.2344V37.9688C30.2344 38.3417 30.3825 38.6994 30.6463 38.9631C30.91 39.2268 31.2677 39.375 31.6406 39.375C32.0136 39.375 32.3713 39.2268 32.635 38.9631C32.8987 38.6994 33.0469 38.3417 33.0469 37.9688V33.0469H37.9688C38.3417 33.0469 38.6994 32.8987 38.9631 32.635C39.2268 32.3713 39.375 32.0136 39.375 31.6406C39.375 31.2677 39.2268 30.91 38.9631 30.6463C38.6994 30.3825 38.3417 30.2344 37.9688 30.2344H33.0469V25.3125Z" fill="#0284C7"/>
</svg>
