<svg width="46" height="45" viewBox="0 0 46 45" fill="none" xmlns="http://www.w3.org/2000/svg">
<path fill-rule="evenodd" clip-rule="evenodd" d="M28.792 7.03125C28.792 6.65829 28.9402 6.3006 29.2039 6.03688C29.4676 5.77316 29.8253 5.625 30.1982 5.625H38.6357C39.0087 5.625 39.3664 5.77316 39.6301 6.03688C39.8938 6.3006 40.042 6.65829 40.042 7.03125V15.4688C40.042 15.8417 39.8938 16.1994 39.6301 16.4631C39.3664 16.7268 39.0087 16.875 38.6357 16.875C38.2628 16.875 37.9051 16.7268 37.6414 16.4631C37.3776 16.1994 37.2295 15.8417 37.2295 15.4688V10.425L29.7857 17.8687C29.657 18.0069 29.5017 18.1177 29.3293 18.1946C29.1568 18.2714 28.9705 18.3128 28.7817 18.3161C28.5929 18.3194 28.4053 18.2847 28.2302 18.214C28.0551 18.1433 27.8961 18.038 27.7625 17.9044C27.629 17.7709 27.5237 17.6118 27.453 17.4367C27.3823 17.2616 27.3476 17.0741 27.3509 16.8853C27.3542 16.6965 27.3955 16.5102 27.4724 16.3377C27.5493 16.1652 27.6601 16.01 27.7982 15.8813L35.242 8.4375H30.1982C29.8253 8.4375 29.4676 8.28934 29.2039 8.02562C28.9402 7.7619 28.792 7.40421 28.792 7.03125ZM6.29199 7.03125C6.29199 6.65829 6.44015 6.3006 6.70387 6.03688C6.9676 5.77316 7.32528 5.625 7.69824 5.625H16.1357C16.5087 5.625 16.8664 5.77316 17.1301 6.03688C17.3938 6.3006 17.542 6.65829 17.542 7.03125C17.542 7.40421 17.3938 7.7619 17.1301 8.02562C16.8664 8.28934 16.5087 8.4375 16.1357 8.4375H11.092L18.5357 15.8813C18.7841 16.1478 18.9194 16.5004 18.9129 16.8647C18.9065 17.229 18.7589 17.5766 18.5013 17.8343C18.2436 18.0919 17.896 18.2395 17.5317 18.246C17.1674 18.2524 16.8148 18.1171 16.5482 17.8687L9.10449 10.425V15.4688C9.10449 15.8417 8.95633 16.1994 8.69261 16.4631C8.42889 16.7268 8.0712 16.875 7.69824 16.875C7.32528 16.875 6.9676 16.7268 6.70387 16.4631C6.44015 16.1994 6.29199 15.8417 6.29199 15.4688V7.03125ZM27.7982 29.1187C27.6601 28.99 27.5493 28.8348 27.4724 28.6623C27.3955 28.4898 27.3542 28.3035 27.3509 28.1147C27.3476 27.9259 27.3823 27.7384 27.453 27.5633C27.5237 27.3882 27.629 27.2291 27.7625 27.0956C27.8961 26.962 28.0551 26.8567 28.2302 26.786C28.4053 26.7153 28.5929 26.6806 28.7817 26.6839C28.9705 26.6872 29.1568 26.7285 29.3293 26.8054C29.5017 26.8823 29.657 26.9931 29.7857 27.1313L37.2295 34.575V29.5312C37.2295 29.1583 37.3776 28.8006 37.6414 28.5369C37.9051 28.2732 38.2628 28.125 38.6357 28.125C39.0087 28.125 39.3664 28.2732 39.6301 28.5369C39.8938 28.8006 40.042 29.1583 40.042 29.5312V37.9688C40.042 38.3417 39.8938 38.6994 39.6301 38.9631C39.3664 39.2268 39.0087 39.375 38.6357 39.375H30.1982C29.8253 39.375 29.4676 39.2268 29.2039 38.9631C28.9402 38.6994 28.792 38.3417 28.792 37.9688C28.792 37.5958 28.9402 37.2381 29.2039 36.9744C29.4676 36.7107 29.8253 36.5625 30.1982 36.5625H35.242L27.7982 29.1187ZM18.5357 27.1313C18.7991 27.3949 18.947 27.7523 18.947 28.125C18.947 28.4977 18.7991 28.8551 18.5357 29.1187L11.092 36.5625H16.1357C16.5087 36.5625 16.8664 36.7107 17.1301 36.9744C17.3938 37.2381 17.542 37.5958 17.542 37.9688C17.542 38.3417 17.3938 38.6994 17.1301 38.9631C16.8664 39.2268 16.5087 39.375 16.1357 39.375H7.69824C7.32528 39.375 6.9676 39.2268 6.70387 38.9631C6.44015 38.6994 6.29199 38.3417 6.29199 37.9688V29.5312C6.29199 29.1583 6.44015 28.8006 6.70387 28.5369C6.9676 28.2732 7.32528 28.125 7.69824 28.125C8.0712 28.125 8.42889 28.2732 8.69261 28.5369C8.95633 28.8006 9.10449 29.1583 9.10449 29.5312V34.575L16.5482 27.1313C16.8119 26.8679 17.1693 26.72 17.542 26.72C17.9146 26.72 18.2721 26.8679 18.5357 27.1313Z" fill="#0284C7"/>
</svg>
