<svg width="46" height="45" viewBox="0 0 46 45" fill="none" xmlns="http://www.w3.org/2000/svg">
<path fill-rule="evenodd" clip-rule="evenodd" d="M22.5105 4.21875C20.793 4.21875 19.3249 5.46188 19.0418 7.15688L18.8711 8.18625C18.8238 8.44464 18.7094 8.68602 18.5392 8.88614C18.369 9.08625 18.1492 9.23804 17.9018 9.32625C17.5988 9.43959 17.2999 9.56341 17.0055 9.6975C16.7681 9.81036 16.5052 9.85869 16.2432 9.83762C15.9812 9.81656 15.7293 9.72684 15.513 9.5775L14.6636 8.97C13.9864 8.48613 13.1594 8.25825 12.3299 8.32692C11.5004 8.39559 10.7221 8.75635 10.1336 9.345L9.67801 9.80063C9.08936 10.3891 8.7286 11.1674 8.65993 11.9969C8.59126 12.8264 8.81914 13.6534 9.30301 14.3306L9.91051 15.18C10.0598 15.3963 10.1496 15.6481 10.1706 15.9102C10.1917 16.1722 10.1434 16.4351 10.0305 16.6725C9.89642 16.9669 9.77259 17.2658 9.65926 17.5687C9.57105 17.8162 9.41926 18.036 9.21915 18.2062C9.01903 18.3764 8.77765 18.4908 8.51926 18.5381L7.48801 18.7106C6.66754 18.8477 5.92226 19.2713 5.38465 19.9061C4.84704 20.5408 4.55192 21.3457 4.55176 22.1775V22.8225C4.55176 24.54 5.79488 26.0081 7.48988 26.2913L8.51926 26.4619C9.04613 26.55 9.47176 26.9306 9.65926 27.4312C9.77176 27.735 9.89738 28.0331 10.0305 28.3275C10.1434 28.5649 10.1917 28.8278 10.1706 29.0898C10.1496 29.3519 10.0598 29.6037 9.91051 29.82L9.30301 30.6694C8.81914 31.3466 8.59126 32.1736 8.65993 33.0031C8.7286 33.8326 9.08936 34.6109 9.67801 35.1994L10.1336 35.655C11.3486 36.87 13.2649 37.0294 14.6636 36.03L15.513 35.4225C15.7293 35.2732 15.9812 35.1834 16.2432 35.1624C16.5052 35.1413 16.7681 35.1896 17.0055 35.3025C17.2999 35.4356 17.598 35.5594 17.9018 35.6737C18.4024 35.8612 18.783 36.2869 18.8711 36.8138L19.0436 37.845C19.3249 39.5381 20.7911 40.7812 22.5105 40.7812H23.1555C24.873 40.7812 26.3411 39.5381 26.6243 37.8431L26.7949 36.8138C26.8422 36.5554 26.9567 36.314 27.1268 36.1139C27.297 35.9137 27.5168 35.762 27.7643 35.6737C28.0672 35.5603 28.3661 35.4365 28.6605 35.3025C28.8979 35.1896 29.1608 35.1413 29.4228 35.1624C29.6849 35.1834 29.9367 35.2732 30.153 35.4225L31.0024 36.03C31.6796 36.5139 32.5066 36.7417 33.3361 36.6731C34.1657 36.6044 34.9439 36.2436 35.5324 35.655L35.988 35.1994C37.203 33.9844 37.3624 32.0681 36.363 30.6694L35.7555 29.82C35.6062 29.6037 35.5165 29.3519 35.4954 29.0898C35.4743 28.8278 35.5226 28.5649 35.6355 28.3275C35.7686 28.0331 35.8924 27.735 36.0068 27.4312C36.1943 26.9306 36.6199 26.55 37.1468 26.4619L38.178 26.2913C38.9988 26.1541 39.7443 25.7303 40.282 25.0951C40.8196 24.4599 41.1145 23.6547 41.1143 22.8225V22.1775C41.1143 20.46 39.8711 18.9919 38.1761 18.7087L37.1468 18.5381C36.8884 18.4908 36.647 18.3764 36.4469 18.2062C36.2468 18.036 36.095 17.8162 36.0068 17.5687C35.8933 17.2658 35.7695 16.9669 35.6355 16.6725C35.5226 16.4351 35.4743 16.1722 35.4954 15.9102C35.5165 15.6481 35.6062 15.3963 35.7555 15.18L36.363 14.3306C36.8469 13.6534 37.0748 12.8264 37.0061 11.9969C36.9374 11.1674 36.5767 10.3891 35.988 9.80063L35.5324 9.345C34.9439 8.75635 34.1657 8.39559 33.3361 8.32692C32.5066 8.25825 31.6796 8.48613 31.0024 8.97L30.153 9.5775C29.9367 9.72684 29.6849 9.81656 29.4228 9.83762C29.1608 9.85869 28.8979 9.81036 28.6605 9.6975C28.3661 9.56343 28.0672 9.4396 27.7643 9.32625C27.5168 9.23804 27.297 9.08625 27.1268 8.88614C26.9567 8.68602 26.8422 8.44464 26.7949 8.18625L26.6243 7.155C26.4871 6.33422 26.0633 5.58869 25.4281 5.05104C24.793 4.51338 23.9877 4.21847 23.1555 4.21875H22.5105ZM22.833 29.5312C24.6978 29.5312 26.4862 28.7905 27.8049 27.4718C29.1235 26.1532 29.8643 24.3648 29.8643 22.5C29.8643 20.6352 29.1235 18.8468 27.8049 17.5282C26.4862 16.2095 24.6978 15.4688 22.833 15.4688C20.9682 15.4688 19.1798 16.2095 17.8612 17.5282C16.5425 18.8468 15.8018 20.6352 15.8018 22.5C15.8018 24.3648 16.5425 26.1532 17.8612 27.4718C19.1798 28.7905 20.9682 29.5312 22.833 29.5312Z" fill="#0284C7"/>
</svg>
