<svg width="80" height="81" viewBox="0 0 80 81" fill="none" xmlns="http://www.w3.org/2000/svg">
<path d="M40 80.4414C62.0914 80.4414 80 62.5328 80 40.4414C80 18.35 62.0914 0.441406 40 0.441406C17.9086 0.441406 0 18.35 0 40.4414C0 62.5328 17.9086 80.4414 40 80.4414Z" fill="#9DCCED"/>
<path d="M60.9916 60.5432C60.9916 66.8576 51.0649 61.0825 40.4224 61.0825C29.78 61.0825 19.0156 66.619 19.0156 60.3046C19.0156 56.7039 22.4464 51.6965 27.3683 48.0595C31.0766 45.3185 35.6302 43.3555 40.2046 43.3555C44.9087 43.3555 49.5168 45.4806 53.1926 48.3979C57.8318 52.0764 60.9916 57.019 60.9916 60.5432Z" fill="#444053"/>
<path d="M53.1902 48.394C47.5332 47.5422 37.3017 46.5036 27.3672 48.0556C31.0755 45.3146 35.6291 43.3516 40.2035 43.3516C44.9062 43.3516 49.5144 45.4767 53.1902 48.394Z" fill="#F6F8FB"/>
<path d="M25.7756 35.1973C26.5367 35.1545 30.1192 34.8848 32.3947 33.5869C32.7601 33.3719 33.173 33.2503 33.5966 33.2329C34.3201 33.2122 35.1526 33.5143 34.6197 35.205C33.7561 37.9707 28.7422 41.0825 25.6303 40.9101C22.6378 40.7441 19.0877 39.5383 16.7435 35.2984C16.5189 34.8905 16.4082 34.4296 16.4232 33.9642C16.4504 33.1084 16.7616 32.0362 18.3681 33.2316C20.5386 34.8459 24.6566 35.1519 25.4825 35.1973C25.5801 35.2025 25.678 35.2025 25.7756 35.1973Z" fill="#444053"/>
<path d="M54.5646 35.1973C55.3257 35.1545 58.9082 34.8848 61.1838 33.5869C61.5492 33.3719 61.962 33.2503 62.3857 33.2329C63.1092 33.2122 63.9416 33.5143 63.4087 35.205C62.5452 37.9707 57.5312 41.0825 54.4194 40.9101C51.4269 40.7441 47.8768 39.5383 45.5325 35.2984C45.3079 34.8905 45.1973 34.4296 45.2123 33.9642C45.2395 33.1084 45.5507 32.0362 47.1572 33.2316C49.3277 34.8459 53.4457 35.1519 54.2716 35.1973C54.3692 35.2025 54.467 35.2025 54.5646 35.1973Z" fill="#444053"/>
</svg>
