<svg width="677" height="454" viewBox="0 0 677 454" fill="none" xmlns="http://www.w3.org/2000/svg">
<path d="M346.574 277.612L416.197 230.851C418.44 229.344 418.435 226.908 416.187 225.409L346.404 178.887C344.156 177.389 340.516 177.395 338.273 178.901L268.65 225.663C266.407 227.169 266.411 229.605 268.659 231.104L338.442 277.626C340.69 279.125 344.331 279.119 346.574 277.612Z" fill="url(#paint0_linear_629_27364)" fill-opacity="0.5"/>
<path d="M345.992 277.225L415.615 230.463C417.537 229.172 417.534 227.084 415.607 225.799L345.824 179.277C343.897 177.993 340.776 177.998 338.854 179.289L269.231 226.051C267.309 227.342 267.312 229.43 269.239 230.715L339.022 277.237C340.949 278.521 344.07 278.516 345.992 277.225Z" stroke="url(#paint1_linear_629_27364)" stroke-opacity="0.2" strokeWidth="1.39781"/>
<path d="M404.57 225.429L346.418 186.661C344.17 185.162 340.529 185.168 338.286 186.675L280.267 225.643C278.024 227.149 278.028 229.585 280.276 231.084L338.429 269.852C340.677 271.351 344.318 271.345 346.561 269.838L404.579 230.87C406.822 229.364 406.818 226.928 404.57 225.429Z" fill="url(#paint2_linear_629_27364)" fill-opacity="0.5"/>
<path d="M403.99 225.818L345.838 187.05C343.911 185.766 340.79 185.771 338.868 187.062L280.849 226.03C278.926 227.321 278.93 229.41 280.857 230.694L339.009 269.462C340.936 270.747 344.057 270.742 345.979 269.45L403.998 230.483C405.921 229.191 405.917 227.103 403.99 225.818Z" stroke="url(#paint3_linear_629_27364)" stroke-opacity="0.2" strokeWidth="1.39781"/>
<path fill-rule="evenodd" clip-rule="evenodd" d="M506.323 116.618L489.498 127.918C487.575 129.21 484.455 129.215 482.528 127.93L437.169 97.6913C435.884 96.8348 433.804 96.8384 432.522 97.6992L412.215 111.338L411.052 110.563L431.359 96.9239C433.282 95.6326 436.402 95.6272 438.329 96.9119L483.688 127.151C484.973 128.008 487.053 128.004 488.335 127.143L505.16 115.842L506.323 116.618ZM552.01 168.428L501.823 202.135C499.901 203.427 496.78 203.432 494.853 202.147L480.315 192.455C478.388 191.171 478.384 189.082 480.307 187.791L504.385 171.619C505.667 170.759 505.664 169.367 504.379 168.51L474.14 148.351C472.856 147.494 470.775 147.498 469.493 148.359L456.149 157.321C454.227 158.612 451.106 158.618 449.179 157.333L416.323 135.429L408.49 140.69C407.209 141.551 407.211 142.943 408.496 143.799L431.175 158.919C433.102 160.203 433.106 162.292 431.183 163.583L378.386 199.044L377.223 198.268L430.02 162.808C431.302 161.947 431.299 160.555 430.015 159.698L407.335 144.579C405.408 143.294 405.405 141.206 407.327 139.914L427.344 126.471C428.625 125.61 428.623 124.218 427.338 123.361L375.583 88.8574C373.656 87.5727 373.652 85.4845 375.575 84.1932L410.676 60.6177L411.839 61.3931L376.738 84.9686C375.456 85.8295 375.459 87.2216 376.743 88.078L428.499 122.582C430.426 123.866 430.429 125.955 428.507 127.246L417.483 134.65L450.339 156.554C451.624 157.41 453.704 157.407 454.986 156.546L468.33 147.583C470.253 146.292 473.374 146.287 475.301 147.571L505.54 167.731C507.467 169.015 507.47 171.104 505.548 172.395L481.47 188.566C480.188 189.427 480.191 190.819 481.475 191.676L496.014 201.368C497.298 202.224 499.379 202.221 500.66 201.36L550.847 167.653L552.01 168.428ZM463.536 230.964C462.252 230.107 460.171 230.111 458.89 230.972L424.078 254.352C422.156 255.643 419.035 255.649 417.108 254.364L399.662 242.734L400.823 241.954L418.268 253.585C419.553 254.441 421.634 254.438 422.915 253.577L457.727 230.196C459.649 228.905 462.77 228.9 464.697 230.184L496.971 251.701C498.898 252.985 498.902 255.073 496.979 256.365L476.673 270.003C475.391 270.864 475.393 272.256 476.678 273.113L499.648 288.426L498.488 289.206L475.518 273.892C473.591 272.608 473.587 270.519 475.51 269.228L495.816 255.589C497.098 254.728 497.096 253.336 495.811 252.48L463.536 230.964ZM446.46 265.391C445.176 264.535 443.095 264.538 441.813 265.399L415.415 283.129C413.492 284.421 410.372 284.426 408.445 283.141L373.844 260.074L375.004 259.295L409.605 282.362C410.89 283.219 412.97 283.215 414.252 282.354L440.65 264.624C442.573 263.332 445.694 263.327 447.621 264.612L474.08 282.251C476.007 283.536 476.011 285.624 474.088 286.915L453.781 300.554C452.5 301.415 452.502 302.807 453.787 303.664L501.472 335.454L500.311 336.233L452.626 304.443C450.699 303.158 450.696 301.07 452.618 299.779L472.925 286.14C474.207 285.279 474.204 283.887 472.92 283.031L446.46 265.391ZM380.57 287.076L394.785 277.529L395.948 278.304L381.733 287.852C380.452 288.712 380.454 290.104 381.739 290.961L395.404 300.071C397.332 301.356 397.335 303.444 395.413 304.736L384.679 311.945L421.897 336.756C423.181 337.613 425.262 337.609 426.543 336.748L434.956 331.098C436.879 329.807 439.999 329.801 441.926 331.086L484.668 359.581L483.508 360.36L440.766 331.865C439.481 331.009 437.401 331.012 436.119 331.873L427.706 337.524C425.784 338.815 422.663 338.82 420.736 337.536L383.519 312.724L372.785 319.933C371.503 320.794 371.506 322.186 372.791 323.042L410.59 348.242L446.644 372.278L445.484 373.057L409.429 349.021L371.63 323.822C369.703 322.537 369.7 320.449 371.622 319.158L382.936 311.559L394.249 303.96C395.531 303.099 395.529 301.707 394.244 300.851L380.578 291.74C378.651 290.456 378.648 288.367 380.57 287.076ZM309.991 284.282L330.008 270.838L331.171 271.614L311.155 285.058C309.232 286.349 306.111 286.354 304.184 285.07L291.682 276.734C290.397 275.878 288.316 275.882 287.035 276.742L269.629 288.433C268.347 289.294 268.35 290.686 269.634 291.542L295.512 308.794C297.439 310.079 297.443 312.167 295.52 313.458L267.091 332.552C265.809 333.413 265.812 334.805 267.096 335.662L290.357 351.169C292.284 352.454 292.288 354.542 290.365 355.833L268.608 370.446L267.445 369.671L289.202 355.058C290.484 354.197 290.482 352.805 289.197 351.949L265.936 336.441C264.009 335.157 264.005 333.068 265.928 331.777L283.914 319.697L248.732 296.242C247.447 295.386 245.367 295.389 244.085 296.25L218.267 313.591C216.985 314.452 216.987 315.844 218.272 316.7L237.753 329.688C239.68 330.972 239.684 333.061 237.761 334.352L213.973 350.329L212.81 349.553L236.598 333.577C237.88 332.716 237.877 331.324 236.593 330.467L217.112 317.48C215.185 316.195 215.181 314.107 217.104 312.816L242.922 295.475C244.845 294.184 247.965 294.178 249.892 295.463L285.074 318.918L294.357 312.683C295.639 311.822 295.636 310.43 294.352 309.573L268.474 292.322C266.547 291.037 266.543 288.949 268.466 287.657L285.872 275.967C287.794 274.676 290.915 274.67 292.842 275.955L305.345 284.29C306.629 285.147 308.71 285.143 309.991 284.282ZM280.334 264.511L297.74 252.82L298.903 253.596L281.497 265.286C279.574 266.577 276.454 266.583 274.527 265.298L258.535 254.637C257.25 253.78 255.17 253.784 253.888 254.645L221.688 276.272C219.765 277.563 216.644 277.568 214.717 276.284L191.457 260.776C190.172 259.92 188.091 259.924 186.81 260.784L121.539 304.623L120.376 303.848L185.647 260.009C187.569 258.718 190.69 258.712 192.617 259.997L215.878 275.504C217.162 276.361 219.243 276.357 220.525 275.496L252.725 253.869C254.648 252.578 257.768 252.573 259.695 253.857L275.687 264.519C276.972 265.375 279.052 265.371 280.334 264.511ZM161.574 278.901L177.566 289.563C178.85 290.419 178.853 291.811 177.571 292.672L146.241 313.715C144.318 315.006 144.322 317.094 146.249 318.379L176.197 338.344L177.358 337.565L147.409 317.6C146.125 316.743 146.122 315.351 147.404 314.49L178.734 293.447C180.657 292.156 180.653 290.068 178.726 288.783L162.734 278.122L161.574 278.901ZM214.379 79.6117L242.292 98.2204C244.219 99.5051 244.223 101.593 242.3 102.885L219.093 118.472C217.811 119.333 217.814 120.725 219.098 121.581L264.748 152.014C266.675 153.299 266.678 155.387 264.756 156.678L245.319 169.733L216.31 189.216L194.843 203.635L193.68 202.859L214.567 188.831L172.697 160.918L155.252 149.287C153.325 148.003 153.321 145.914 155.244 144.623L181.352 127.088L182.515 127.863L156.407 145.398C155.125 146.259 155.127 147.651 156.412 148.508L173.858 160.138L215.727 188.051L244.156 168.957L263.593 155.903C264.874 155.042 264.872 153.65 263.587 152.794L217.938 122.361C216.011 121.076 216.007 118.988 217.93 117.696L241.137 102.109C242.419 101.248 242.417 99.8562 241.132 98.9998L213.219 80.3911L214.379 79.6117ZM242.75 195.584C244.673 194.293 247.793 194.288 249.72 195.572L264.549 205.458L301.681 180.519C302.963 179.658 302.96 178.266 301.676 177.409L282.776 164.81C280.849 163.525 280.846 161.437 282.768 160.145L308.006 143.195C309.288 142.334 309.286 140.942 308.001 140.085L283.286 123.609C281.359 122.324 281.356 120.236 283.278 118.944L324.181 91.4721C325.463 90.6113 325.461 89.2192 324.176 88.3627L291.32 66.4587C289.393 65.174 289.39 63.0858 291.312 61.7945L342.949 27.1132L344.112 27.8886L292.475 62.5699C291.193 63.4307 291.196 64.8229 292.48 65.6793L325.336 87.5834C327.263 88.868 327.267 90.9562 325.345 92.2475L284.441 119.72C283.16 120.581 283.162 121.973 284.447 122.829L309.161 139.306C311.088 140.59 311.092 142.679 309.169 143.97L283.931 160.921C282.65 161.782 282.652 163.174 283.937 164.03L302.836 176.63C304.763 177.915 304.767 180.003 302.844 181.294L265.712 206.233L281.704 216.895L280.544 217.674L264.552 207.013L263.389 206.237L248.56 196.352C247.275 195.495 245.195 195.499 243.913 196.36L213.743 216.623C211.821 217.914 208.7 217.919 206.773 216.635L190.49 205.78L169.265 191.629C167.98 190.773 165.9 190.776 164.618 191.637L132.998 212.875C131.075 214.166 127.955 214.171 126.028 212.887L110.617 202.613L111.778 201.834L127.188 212.107C128.473 212.964 130.553 212.96 131.835 212.099L163.455 190.862C165.378 189.571 168.498 189.565 170.425 190.85L191.651 205L207.933 215.855C209.218 216.712 211.299 216.708 212.58 215.847L242.75 195.584Z" fill="url(#paint4_radial_629_27364)"/>
<path d="M338.618 121.767C325.479 132.39 305.42 134.347 297.033 133.998L297.383 176.631C303.323 190.609 312.409 213.323 338.618 215.769C359.585 217.726 374.844 190.492 379.853 176.631V133.998C358.327 134.277 343.394 125.96 338.618 121.767Z" fill="url(#paint5_linear_629_27364)" fill-opacity="0.8"/>
<path d="M324.401 170.75C324.401 170.616 324.381 170.497 324.339 170.392C324.301 170.283 324.229 170.186 324.124 170.1C324.022 170.011 323.877 169.925 323.689 169.842C323.505 169.756 323.266 169.667 322.973 169.575C322.648 169.473 322.345 169.358 322.065 169.231C321.785 169.103 321.538 168.955 321.325 168.786C321.114 168.618 320.95 168.423 320.832 168.203C320.715 167.981 320.656 167.723 320.656 167.429C320.656 167.143 320.716 166.882 320.837 166.646C320.961 166.41 321.137 166.208 321.363 166.039C321.589 165.867 321.855 165.735 322.161 165.643C322.47 165.55 322.81 165.504 323.183 165.504C323.699 165.504 324.145 165.598 324.521 165.786C324.9 165.974 325.193 166.229 325.4 166.55C325.607 166.872 325.71 167.234 325.71 167.635H324.401C324.401 167.418 324.355 167.227 324.263 167.062C324.174 166.896 324.037 166.765 323.852 166.67C323.67 166.574 323.441 166.527 323.164 166.527C322.896 166.527 322.673 166.566 322.495 166.646C322.32 166.726 322.188 166.834 322.099 166.971C322.013 167.108 321.97 167.261 321.97 167.429C321.97 167.557 322 167.672 322.06 167.773C322.121 167.872 322.212 167.966 322.333 168.055C322.454 168.141 322.603 168.223 322.782 168.299C322.963 168.372 323.173 168.446 323.412 168.519C323.795 168.633 324.129 168.761 324.416 168.901C324.706 169.041 324.946 169.2 325.137 169.379C325.331 169.557 325.476 169.758 325.572 169.981C325.671 170.204 325.72 170.457 325.72 170.74C325.72 171.04 325.661 171.307 325.543 171.543C325.425 171.779 325.257 171.979 325.037 172.145C324.817 172.311 324.553 172.436 324.244 172.522C323.938 172.608 323.596 172.651 323.216 172.651C322.879 172.651 322.544 172.607 322.213 172.518C321.885 172.425 321.587 172.288 321.32 172.107C321.052 171.922 320.839 171.69 320.68 171.409C320.52 171.126 320.441 170.795 320.441 170.416H321.759C321.759 170.635 321.794 170.823 321.864 170.979C321.938 171.132 322.04 171.258 322.17 171.357C322.304 171.452 322.46 171.522 322.638 171.567C322.817 171.612 323.009 171.634 323.216 171.634C323.484 171.634 323.704 171.597 323.876 171.524C324.051 171.447 324.182 171.342 324.268 171.209C324.357 171.075 324.401 170.922 324.401 170.75ZM331.343 171.524V172.556H327.645V171.524H331.343ZM328.047 165.6V172.556H326.733V165.6H328.047ZM330.861 168.471V169.479H327.645V168.471H330.861ZM331.329 165.6V166.636H327.645V165.6H331.329ZM336.326 170.267H337.64C337.605 170.732 337.476 171.145 337.253 171.505C337.03 171.862 336.72 172.142 336.322 172.346C335.923 172.55 335.441 172.651 334.874 172.651C334.438 172.651 334.044 172.575 333.694 172.422C333.347 172.266 333.049 172.045 332.8 171.758C332.555 171.468 332.367 171.121 332.237 170.717C332.106 170.309 332.041 169.852 332.041 169.345V168.815C332.041 168.309 332.108 167.852 332.241 167.444C332.375 167.036 332.566 166.689 332.815 166.402C333.066 166.112 333.367 165.889 333.718 165.733C334.071 165.577 334.466 165.499 334.903 165.499C335.47 165.499 335.949 165.604 336.341 165.815C336.732 166.022 337.037 166.307 337.253 166.67C337.47 167.033 337.6 167.45 337.645 167.922H336.331C336.306 167.629 336.242 167.38 336.14 167.176C336.041 166.972 335.892 166.818 335.691 166.713C335.493 166.605 335.231 166.55 334.903 166.55C334.648 166.55 334.423 166.598 334.229 166.694C334.038 166.789 333.879 166.933 333.751 167.124C333.624 167.312 333.528 167.547 333.465 167.831C333.401 168.111 333.369 168.436 333.369 168.805V169.345C333.369 169.699 333.398 170.016 333.455 170.296C333.512 170.576 333.602 170.814 333.723 171.008C333.844 171.202 334 171.35 334.191 171.452C334.382 171.554 334.61 171.605 334.874 171.605C335.196 171.605 335.457 171.554 335.658 171.452C335.861 171.35 336.016 171.201 336.121 171.003C336.229 170.806 336.298 170.56 336.326 170.267ZM342.528 165.6H343.842V170.22C343.842 170.752 343.727 171.199 343.498 171.562C343.268 171.922 342.956 172.194 342.561 172.379C342.166 172.561 341.717 172.651 341.214 172.651C340.704 172.651 340.25 172.561 339.852 172.379C339.454 172.194 339.142 171.922 338.916 171.562C338.69 171.199 338.577 170.752 338.577 170.22V165.6H339.891V170.22C339.891 170.545 339.945 170.81 340.053 171.018C340.161 171.221 340.314 171.373 340.512 171.471C340.709 171.57 340.943 171.619 341.214 171.619C341.488 171.619 341.722 171.57 341.916 171.471C342.114 171.373 342.265 171.221 342.37 171.018C342.475 170.81 342.528 170.545 342.528 170.22V165.6ZM345.089 165.6H347.616C348.145 165.6 348.599 165.679 348.978 165.839C349.357 165.998 349.648 166.233 349.852 166.546C350.056 166.858 350.158 167.242 350.158 167.697C350.158 168.057 350.094 168.369 349.967 168.633C349.839 168.898 349.659 169.119 349.427 169.298C349.197 169.476 348.927 169.616 348.615 169.718L348.204 169.928H345.972L345.963 168.891H347.63C347.901 168.891 348.126 168.844 348.304 168.748C348.482 168.653 348.616 168.52 348.705 168.352C348.798 168.183 348.844 167.99 348.844 167.773C348.844 167.541 348.799 167.34 348.71 167.171C348.621 166.999 348.486 166.867 348.304 166.775C348.122 166.683 347.893 166.636 347.616 166.636H346.402V172.556H345.089V165.6ZM349.016 172.556L347.406 169.441L348.796 169.436L350.425 172.489V172.556H349.016ZM355.92 171.524V172.556H352.222V171.524H355.92ZM352.623 165.6V172.556H351.309V165.6H352.623ZM355.437 168.471V169.479H352.222V168.471H355.437ZM355.905 165.6V166.636H352.222V165.6H355.905Z" fill="url(#paint6_linear_629_27364)"/>
<path fill-rule="evenodd" clip-rule="evenodd" d="M316.215 132.139C308.784 133.903 301.926 134.418 297.731 134.348V176.037C299.962 182.68 304.674 192.597 311.577 200.807C318.501 209.044 327.582 215.511 338.532 215.324L338.535 215.484C349.418 215.61 358.449 209.164 365.342 200.965C372.244 192.754 376.957 182.838 379.187 176.194V134.506C374.992 134.575 368.135 134.061 360.703 132.297C353.132 130.5 344.939 127.4 338.357 122.275C331.811 127.306 323.709 130.361 316.215 132.139ZM338.521 121.671L338.322 121.417C331.816 126.547 323.644 129.658 316.054 131.459C308.466 133.261 301.487 133.746 297.391 133.642L297.032 133.633V133.991V176.094V176.151L297.05 176.205C299.295 182.912 304.052 192.943 311.042 201.257C317.994 209.526 327.2 216.149 338.377 216.025L338.375 216.18C349.627 216.372 358.89 209.725 365.877 201.415C372.866 193.101 377.624 183.07 379.868 176.362L379.886 176.308V176.252V134.149V133.79L379.528 133.8C375.432 133.904 368.453 133.418 360.865 131.617C353.275 129.816 345.102 126.704 338.597 121.575L338.521 121.671ZM302.688 138.544C306.385 138.601 312.397 138.146 318.91 136.6C325.492 135.038 332.611 132.355 338.37 127.939C344.159 132.438 351.358 135.16 358.009 136.739C364.522 138.285 370.534 138.74 374.23 138.683V175.291C372.269 181.128 368.129 189.84 362.066 197.052C356.008 204.257 348.078 209.915 338.525 209.803L338.523 209.663C328.912 209.827 320.938 204.151 314.853 196.913C308.79 189.701 304.649 180.99 302.688 175.152V138.544ZM338.387 210.364C328.541 210.472 320.435 204.638 314.318 197.363C308.168 190.047 303.983 181.222 302.008 175.32L301.99 175.266V175.209V138.188V137.829L302.348 137.838C305.946 137.93 312.079 137.503 318.748 135.92C325.419 134.337 332.598 131.603 338.312 127.098L338.514 127.354L338.607 127.237C344.321 131.742 351.5 134.476 358.171 136.059C364.84 137.642 370.973 138.069 374.571 137.977L374.929 137.968V138.326V175.348V175.405L374.911 175.459C372.936 181.361 368.751 190.186 362.6 197.501C356.453 204.813 348.297 210.669 338.384 210.5L338.387 210.364ZM308.468 143.436C311.582 143.479 316.609 143.093 322.051 141.801C327.571 140.491 333.545 138.242 338.384 134.542C343.25 138.312 349.29 140.594 354.869 141.918C360.311 143.209 365.337 143.595 368.451 143.553V174.237C366.804 179.136 363.33 186.441 358.246 192.489C353.162 198.536 346.515 203.274 338.514 203.181L338.512 203.063C330.464 203.2 323.78 198.447 318.674 192.373C313.589 186.325 310.115 179.019 308.468 174.121V143.436ZM338.398 203.763C330.104 203.854 323.281 198.94 318.139 192.823C312.967 186.671 309.448 179.252 307.788 174.289L307.769 174.235V174.178V143.08V142.722L308.128 142.731C311.145 142.808 316.292 142.45 321.89 141.121C327.488 139.792 333.511 137.498 338.301 133.721L338.506 133.98L338.618 133.837C343.409 137.615 349.431 139.909 355.03 141.238C360.627 142.566 365.774 142.924 368.792 142.847L369.15 142.838V143.197V174.294V174.351L369.132 174.405C367.471 179.368 363.952 186.788 358.781 192.939C353.612 199.087 346.747 204.02 338.396 203.878L338.398 203.763Z" fill="url(#paint7_linear_629_27364)" fill-opacity="0.5"/>
<defs>
<linearGradient id="paint0_linear_629_27364" x1="381.385" y1="254.231" x2="333.116" y2="182.364" gradientUnits="userSpaceOnUse">
<stop stop-color="#CFEAFC"/>
<stop offset="1" stop-color="#6C8EBD"/>
</linearGradient>
<linearGradient id="paint1_linear_629_27364" x1="301.336" y1="202.933" x2="349.605" y2="274.8" gradientUnits="userSpaceOnUse">
<stop stop-color="#00132E"/>
<stop offset="1" stop-color="#215CAE"/>
</linearGradient>
<linearGradient id="paint2_linear_629_27364" x1="375.494" y1="206.045" x2="334.64" y2="267.326" gradientUnits="userSpaceOnUse">
<stop stop-color="#CFEAFC"/>
<stop offset="1" stop-color="#6C8EBD"/>
</linearGradient>
<linearGradient id="paint3_linear_629_27364" x1="309.998" y1="250.811" x2="350.853" y2="189.53" gradientUnits="userSpaceOnUse">
<stop stop-color="#00132E"/>
<stop offset="1" stop-color="#215CAE"/>
</linearGradient>
<radialGradient id="paint4_radial_629_27364" cx="0" cy="0" r="1" gradientUnits="userSpaceOnUse" gradientTransform="translate(338.5 227) rotate(146.113) scale(200.061 191.557)">
<stop stop-color="#12AAFF"/>
<stop offset="0.681" stop-color="#D0DFE7"/>
</radialGradient>
<linearGradient id="paint5_linear_629_27364" x1="338.443" y1="121.767" x2="338.443" y2="215.869" gradientUnits="userSpaceOnUse">
<stop stop-color="#BDD9EB"/>
<stop offset="1" stop-color="#669EC4"/>
</linearGradient>
<linearGradient id="paint6_linear_629_27364" x1="353.709" y1="163.389" x2="319.178" y2="169.691" gradientUnits="userSpaceOnUse">
<stop stop-color="#213147"/>
<stop offset="1" stop-color="#546B8C"/>
</linearGradient>
<linearGradient id="paint7_linear_629_27364" x1="338.459" y1="121.417" x2="338.459" y2="216.185" gradientUnits="userSpaceOnUse">
<stop offset="0.328485" stop-color="#12AAFF"/>
<stop offset="1" stop-color="#213147"/>
</linearGradient>
</defs>
</svg>
