<svg width="465" height="428" viewBox="0 0 465 428" fill="none" xmlns="http://www.w3.org/2000/svg">
<g clip-path="url(#clip0_629_27285)">
<path d="M232.08 6.726C188.891 6.726 153.879 41.7376 153.879 84.9267C153.879 128.116 188.891 163.127 232.08 163.127C275.269 163.127 310.281 128.116 310.281 84.9267C310.281 41.7376 275.269 6.726 232.08 6.726Z" fill="url(#paint0_linear_629_27285)" fill-opacity="0.2"/>
<path d="M232.08 152.196C269.232 152.196 299.349 122.079 299.349 84.9267C299.349 47.7748 269.232 17.6573 232.08 17.6573C194.928 17.6573 164.811 47.7748 164.811 84.9267C164.811 122.079 194.928 152.196 232.08 152.196Z" fill="url(#paint1_linear_629_27285)" fill-opacity="0.2"/>
<path d="M232.079 141.265C263.194 141.265 288.417 116.042 288.417 84.9268C288.417 53.8121 263.194 28.5886 232.079 28.5886C200.964 28.5886 175.741 53.8121 175.741 84.9268C175.741 116.042 200.964 141.265 232.079 141.265Z" fill="url(#paint2_linear_629_27285)"/>
<path d="M232.079 140.004C262.497 140.004 287.156 115.345 287.156 84.9268C287.156 54.5087 262.497 29.8499 232.079 29.8499C201.661 29.8499 177.002 54.5087 177.002 84.9268C177.002 115.345 201.661 140.004 232.079 140.004Z" stroke="url(#paint3_linear_629_27285)" stroke-opacity="0.5" strokeWidth="2.5226"/>
<path d="M190.545 90.8362H187.967L187.983 89.0625H190.545C191.241 89.0625 191.824 88.9092 192.295 88.6026C192.765 88.2906 193.121 87.8444 193.362 87.2641C193.603 86.6784 193.723 85.9777 193.723 85.162V84.5461C193.723 83.9165 193.655 83.3609 193.518 82.8791C193.381 82.3974 193.179 81.9923 192.91 81.6638C192.648 81.3354 192.322 81.0863 191.933 80.9166C191.545 80.7469 191.098 80.662 190.595 80.662H187.918V78.8801H190.595C191.394 78.8801 192.122 79.0142 192.779 79.2825C193.441 79.5507 194.014 79.9366 194.495 80.4403C194.982 80.9385 195.355 81.5352 195.612 82.2304C195.875 82.9257 196.006 83.703 196.006 84.5625V85.162C196.006 86.016 195.875 86.7933 195.612 87.4941C195.355 88.1893 194.982 88.786 194.495 89.2842C194.014 89.7824 193.439 90.1656 192.771 90.4338C192.103 90.7021 191.361 90.8362 190.545 90.8362ZM189.232 78.8801V90.8362H186.973V78.8801H189.232ZM205.852 89.0625V90.8362H199.496V89.0625H205.852ZM200.186 78.8801V90.8362H197.928V78.8801H200.186ZM205.023 83.8153V85.5479H199.496V83.8153H205.023ZM205.827 78.8801V80.662H199.496V78.8801H205.827ZM211.625 88.4959L214.605 78.8801H217.11L212.889 90.8362H211.222L211.625 88.4959ZM208.874 78.8801L211.838 88.4959L212.265 90.8362H210.582L206.377 78.8801H208.874ZM226.266 89.0625V90.8362H219.91V89.0625H226.266ZM220.6 78.8801V90.8362H218.342V78.8801H220.6ZM225.437 83.8153V85.5479H219.91V83.8153H225.437ZM226.241 78.8801V80.662H219.91V78.8801H226.241ZM235.422 89.0625V90.8362H229.411V89.0625H235.422ZM230.093 78.8801V90.8362H227.834V78.8801H230.093ZM246.072 84.5543V85.1702C246.072 86.0735 245.952 86.8864 245.711 87.609C245.47 88.3262 245.128 88.9366 244.685 89.4402C244.241 89.9439 243.713 90.3298 243.1 90.598C242.487 90.8663 241.805 91.0004 241.055 91.0004C240.316 91.0004 239.637 90.8663 239.019 90.598C238.405 90.3298 237.874 89.9439 237.426 89.4402C236.977 88.9366 236.629 88.3262 236.383 87.609C236.136 86.8864 236.013 86.0735 236.013 85.1702V84.5543C236.013 83.6456 236.136 82.8326 236.383 82.1155C236.629 81.3983 236.974 80.7879 237.417 80.2843C237.861 79.7752 238.389 79.3865 239.002 79.1182C239.621 78.85 240.3 78.7159 241.039 78.7159C241.789 78.7159 242.47 78.85 243.083 79.1182C243.696 79.3865 244.225 79.7752 244.668 80.2843C245.117 80.7879 245.462 81.3983 245.703 82.1155C245.949 82.8326 246.072 83.6456 246.072 84.5543ZM243.79 85.1702V84.5379C243.79 83.8864 243.729 83.3144 243.609 82.8217C243.488 82.3235 243.311 81.9047 243.075 81.5653C242.84 81.2259 242.55 80.9713 242.205 80.8016C241.86 80.6264 241.471 80.5388 241.039 80.5388C240.601 80.5388 240.212 80.6264 239.873 80.8016C239.539 80.9713 239.254 81.2259 239.019 81.5653C238.783 81.9047 238.603 82.3235 238.477 82.8217C238.356 83.3144 238.296 83.8864 238.296 84.5379V85.1702C238.296 85.8162 238.356 86.3882 238.477 86.8864C238.603 87.3846 238.783 87.8061 239.019 88.151C239.259 88.4904 239.55 88.7477 239.889 88.9229C240.228 89.0981 240.617 89.1856 241.055 89.1856C241.493 89.1856 241.882 89.0981 242.221 88.9229C242.561 88.7477 242.845 88.4904 243.075 88.151C243.311 87.8061 243.488 87.3846 243.609 86.8864C243.729 86.3882 243.79 85.8162 243.79 85.1702ZM252.584 86.4758H249.505V84.7021H252.584C253.088 84.7021 253.496 84.62 253.808 84.4558C254.125 84.2861 254.358 84.0561 254.506 83.766C254.653 83.4704 254.727 83.1337 254.727 82.756C254.727 82.3892 254.653 82.047 254.506 81.7295C254.358 81.412 254.125 81.1547 253.808 80.9576C253.496 80.7605 253.088 80.662 252.584 80.662H250.244V90.8362H247.986V78.8801H252.584C253.515 78.8801 254.309 79.0471 254.966 79.381C255.628 79.7095 256.132 80.1666 256.476 80.7523C256.827 81.3326 257.002 81.995 257.002 82.7395C257.002 83.5114 256.827 84.1766 256.476 84.735C256.132 85.2934 255.628 85.7231 254.966 86.0242C254.309 86.3253 253.515 86.4758 252.584 86.4758ZM266.7 89.0625V90.8362H260.344V89.0625H266.7ZM261.034 78.8801V90.8362H258.776V78.8801H261.034ZM265.871 83.8153V85.5479H260.344V83.8153H265.871ZM266.675 78.8801V80.662H260.344V78.8801H266.675ZM268.268 78.8801H272.612C273.521 78.8801 274.301 79.0169 274.953 79.2907C275.604 79.5644 276.105 79.9695 276.455 80.506C276.806 81.0425 276.981 81.7021 276.981 82.485C276.981 83.1036 276.871 83.6401 276.652 84.0945C276.433 84.5488 276.124 84.9293 275.724 85.2359C275.33 85.5424 274.865 85.7833 274.328 85.9585L273.622 86.3198H269.787L269.771 84.5379H272.637C273.102 84.5379 273.488 84.4558 273.795 84.2915C274.101 84.1273 274.331 83.9001 274.484 83.61C274.643 83.3198 274.723 82.9886 274.723 82.6164C274.723 82.2167 274.646 81.8718 274.493 81.5817C274.339 81.2861 274.107 81.0589 273.795 80.9001C273.483 80.7414 273.089 80.662 272.612 80.662H270.526V90.8362H268.268V78.8801ZM275.018 90.8362L272.251 85.4822L274.64 85.474L277.441 90.7212V90.8362H275.018Z" fill="url(#paint4_linear_629_27285)"/>
<path d="M232.08 169.434C278.752 169.434 316.587 131.599 316.587 84.9267C316.587 38.2547 278.752 0.419502 232.08 0.419502C185.408 0.419502 147.573 38.2547 147.573 84.9267C147.573 131.599 185.408 169.434 232.08 169.434Z" stroke="#9DCDED" strokeWidth="0.840868"/>
<path d="M315.325 79.0405H358.209V89.9718H315.325V79.0405Z" fill="#F5F5F5"/>
<mask id="mask0_629_27285" style="mask-type:luminance" maskUnits="userSpaceOnUse" x="315" y="79" width="44" height="11">
<path d="M315.325 79.0405H358.209V89.9718H315.325V79.0405Z" fill="white"/>
</mask>
<g mask="url(#mask0_629_27285)">
<path d="M315.325 79.8814H358.209V78.1997H315.325V79.8814Z" fill="#9DCDED"/>
</g>
<path d="M148.834 89.9719H105.95V79.0406H148.834V89.9719Z" fill="#F5F5F5"/>
<mask id="mask1_629_27285" style="mask-type:luminance" maskUnits="userSpaceOnUse" x="105" y="79" width="44" height="11">
<path d="M148.834 89.9719H105.95V79.0406H148.834V89.9719Z" fill="white"/>
</mask>
<g mask="url(#mask1_629_27285)">
<path d="M148.834 89.1311H105.95V90.8128H148.834V89.1311Z" fill="#9DCDED"/>
</g>
<path d="M401.935 122.345C425.852 122.345 445.24 102.957 445.24 79.0406C445.24 55.1241 425.852 35.7359 401.935 35.7359C378.019 35.7359 358.63 55.1241 358.63 79.0406C358.63 102.957 378.019 122.345 401.935 122.345Z" stroke="#9DCDED" strokeWidth="0.840868"/>
<path d="M63.065 122.345C86.9815 122.345 106.37 102.957 106.37 79.0406C106.37 55.1241 86.9815 35.7359 63.065 35.7359C39.1484 35.7359 19.7603 55.1241 19.7603 79.0406C19.7603 102.957 39.1484 122.345 63.065 122.345Z" stroke="#9DCDED" strokeWidth="0.840868"/>
<path d="M41.7061 82.3038C41.7061 82.1314 41.6794 81.9774 41.6261 81.8419C41.5768 81.7023 41.4844 81.5771 41.3489 81.4663C41.2175 81.3513 41.0307 81.2404 40.7885 81.1337C40.5503 81.0228 40.2424 80.9079 39.8647 80.7888C39.4459 80.6574 39.0558 80.5096 38.6945 80.3454C38.3332 80.1811 38.015 79.9902 37.7399 79.7726C37.4689 79.555 37.2575 79.3046 37.1056 79.0213C36.9537 78.7339 36.8777 78.4013 36.8777 78.0235C36.8777 77.654 36.9557 77.3174 37.1117 77.0135C37.2719 76.7097 37.4977 76.449 37.7892 76.2314C38.0807 76.0097 38.4235 75.8393 38.8177 75.7202C39.2159 75.6011 39.6553 75.5416 40.1356 75.5416C40.8008 75.5416 41.3756 75.6627 41.8601 75.905C42.3487 76.1472 42.7264 76.4757 42.9933 76.8903C43.2602 77.305 43.3936 77.771 43.3936 78.2884H41.7061C41.7061 78.0092 41.6466 77.7628 41.5275 77.5493C41.4126 77.3358 41.236 77.1675 40.9979 77.0443C40.7638 76.9211 40.4682 76.8596 40.111 76.8596C39.7661 76.8596 39.4787 76.9109 39.2488 77.0135C39.023 77.1162 38.8526 77.2558 38.7376 77.4323C38.6268 77.6089 38.5713 77.8059 38.5713 78.0235C38.5713 78.1878 38.6103 78.3356 38.6884 78.467C38.7664 78.5943 38.8834 78.7154 39.0394 78.8303C39.1954 78.9412 39.3884 79.0459 39.6183 79.1444C39.8523 79.2389 40.1233 79.3333 40.4313 79.4277C40.924 79.5755 41.3551 79.7398 41.7246 79.9204C42.0982 80.1011 42.4082 80.3064 42.6546 80.5363C42.905 80.7662 43.0918 81.0249 43.215 81.3123C43.3423 81.5997 43.4059 81.9261 43.4059 82.2915C43.4059 82.6775 43.33 83.0224 43.178 83.3262C43.0261 83.63 42.8085 83.8887 42.5252 84.1022C42.2419 84.3157 41.9011 84.4779 41.5029 84.5887C41.1087 84.6996 40.6673 84.755 40.1788 84.755C39.7435 84.755 39.3124 84.6975 38.8854 84.5826C38.4625 84.4635 38.0786 84.2869 37.7338 84.0529C37.3889 83.8148 37.1138 83.5151 36.9085 83.1537C36.7032 82.7883 36.6006 82.3613 36.6006 81.8727H38.3004C38.3004 82.156 38.3455 82.3983 38.4358 82.5995C38.5303 82.7965 38.6617 82.9587 38.83 83.086C39.0024 83.2092 39.2036 83.2995 39.4336 83.357C39.6635 83.4145 39.9119 83.4432 40.1788 83.4432C40.5236 83.4432 40.8069 83.396 41.0287 83.3016C41.2545 83.203 41.4228 83.0675 41.5337 82.8951C41.6486 82.7226 41.7061 82.5256 41.7061 82.3038ZM51.9727 79.9204V80.3823C51.9727 81.0598 51.8823 81.6695 51.7017 82.2115C51.521 82.7493 51.2644 83.2071 50.9319 83.5849C50.5993 83.9626 50.2031 84.252 49.7432 84.4532C49.2834 84.6544 48.7722 84.755 48.2097 84.755C47.6554 84.755 47.1463 84.6544 46.6823 84.4532C46.2225 84.252 45.8242 83.9626 45.4876 83.5849C45.1509 83.2071 44.8902 82.7493 44.7054 82.2115C44.5206 81.6695 44.4283 81.0598 44.4283 80.3823V79.9204C44.4283 79.2389 44.5206 78.6292 44.7054 78.0913C44.8902 77.5534 45.1488 77.0956 45.4814 76.7179C45.814 76.3361 46.2102 76.0446 46.67 75.8434C47.134 75.6422 47.6431 75.5416 48.1974 75.5416C48.7599 75.5416 49.2711 75.6422 49.7309 75.8434C50.1908 76.0446 50.587 76.3361 50.9195 76.7179C51.2562 77.0956 51.5149 77.5534 51.6955 78.0913C51.8803 78.6292 51.9727 79.2389 51.9727 79.9204ZM50.2606 80.3823V79.9081C50.2606 79.4195 50.2154 78.9905 50.1251 78.6209C50.0347 78.2473 49.9013 77.9332 49.7247 77.6787C49.5482 77.4241 49.3306 77.2332 49.0719 77.1059C48.8133 76.9745 48.5217 76.9088 48.1974 76.9088C47.8689 76.9088 47.5774 76.9745 47.3229 77.1059C47.0724 77.2332 46.8589 77.4241 46.6823 77.6787C46.5058 77.9332 46.3703 78.2473 46.2759 78.6209C46.1855 78.9905 46.1404 79.4195 46.1404 79.9081V80.3823C46.1404 80.8668 46.1855 81.2959 46.2759 81.6695C46.3703 82.0431 46.5058 82.3593 46.6823 82.6179C46.863 82.8725 47.0806 83.0655 47.3352 83.1969C47.5897 83.3282 47.8812 83.3939 48.2097 83.3939C48.5382 83.3939 48.8297 83.3282 49.0842 83.1969C49.3388 83.0655 49.5523 82.8725 49.7247 82.6179C49.9013 82.3593 50.0347 82.0431 50.1251 81.6695C50.2154 81.2959 50.2606 80.8668 50.2606 80.3823ZM59.0983 83.3016V84.6318H54.5901V83.3016H59.0983ZM55.1013 75.6648V84.6318H53.4076V75.6648H55.1013ZM62.036 75.6648V84.6318H60.3423V75.6648H62.036ZM66.5442 84.6318H64.6103L64.6226 83.3016H66.5442C67.0656 83.3016 67.5029 83.1866 67.856 82.9567C68.2091 82.7226 68.4759 82.388 68.6566 81.9528C68.8372 81.5135 68.9276 80.9879 68.9276 80.3762V79.9143C68.9276 79.4421 68.8763 79.0254 68.7736 78.6641C68.671 78.3027 68.519 77.9989 68.3179 77.7526C68.1208 77.5062 67.8765 77.3194 67.585 77.1921C67.2935 77.0648 66.9588 77.0012 66.5811 77.0012H64.5734V75.6648H66.5811C67.1806 75.6648 67.7266 75.7654 68.2193 75.9665C68.7161 76.1677 69.1452 76.4572 69.5065 76.8349C69.8719 77.2085 70.1511 77.6561 70.3441 78.1775C70.5412 78.699 70.6397 79.282 70.6397 79.9266V80.3762C70.6397 81.0167 70.5412 81.5997 70.3441 82.1252C70.1511 82.6467 69.8719 83.0942 69.5065 83.4678C69.1452 83.8415 68.7141 84.1289 68.2132 84.3301C67.7123 84.5312 67.1559 84.6318 66.5442 84.6318ZM65.5588 75.6648V84.6318H63.8651V75.6648H65.5588ZM73.8853 75.6648V84.6318H72.1917V75.6648H73.8853ZM79.3789 75.6648V84.6318H77.6914V75.6648H79.3789ZM82.1626 75.6648V77.0012H74.9385V75.6648H82.1626ZM84.4352 75.6648L86.406 79.8465L88.3891 75.6648H90.249L87.2682 81.3492V84.6318H85.5499V81.3492L82.5629 75.6648H84.4352Z" fill="#9DCDED"/>
<path d="M107.631 161.025H18.4991C8.51452 161.025 0.42041 169.119 0.42041 179.104C0.42041 189.088 8.51452 197.182 18.4991 197.182H107.631C117.615 197.182 125.709 189.088 125.709 179.104C125.709 169.119 117.615 161.025 107.631 161.025Z" stroke="#9DCDED" strokeWidth="0.840868"/>
<path d="M23.3645 181.273V182.604H18.5977V181.273H23.3645ZM19.115 173.637V182.604H17.4214V173.637H19.115ZM22.7425 177.338V178.638H18.5977V177.338H22.7425ZM23.3461 173.637V174.973H18.5977V173.637H23.3461ZM27.6941 180.849L29.9297 173.637H31.8081L28.6425 182.604H27.3923L27.6941 180.849ZM25.6309 173.637L27.8542 180.849L28.1745 182.604H26.9119L23.7587 173.637H25.6309ZM33.471 173.637H34.9367L37.3879 180.387L39.8329 173.637H41.3048L37.973 182.604H36.7967L33.471 173.637ZM32.7319 173.637H34.1669L34.4256 179.839V182.604H32.7319V173.637ZM40.6027 173.637H42.0439V182.604H40.3502V179.839L40.6027 173.637ZM50.3458 178.607H48.0548L48.0425 177.412H50.0071C50.3438 177.412 50.625 177.365 50.8508 177.27C51.0766 177.176 51.247 177.038 51.362 176.858C51.4811 176.677 51.5406 176.457 51.5406 176.199C51.5406 175.911 51.4852 175.677 51.3743 175.497C51.2676 175.316 51.0992 175.185 50.8693 175.102C50.6394 175.016 50.3479 174.973 49.9948 174.973H48.6029V182.604H46.9093V173.637H49.9948C50.5039 173.637 50.9576 173.686 51.3558 173.784C51.7582 173.879 52.099 174.027 52.3782 174.228C52.6574 174.429 52.8688 174.682 53.0125 174.985C53.1603 175.289 53.2342 175.651 53.2342 176.069C53.2342 176.439 53.148 176.78 52.9756 177.092C52.8072 177.4 52.5465 177.65 52.1934 177.843C51.8444 178.036 51.401 178.147 50.8631 178.176L50.3458 178.607ZM50.2719 182.604H47.5559L48.2642 181.273H50.2719C50.6086 181.273 50.8857 181.218 51.1033 181.107C51.325 180.996 51.4893 180.844 51.596 180.651C51.7069 180.454 51.7623 180.229 51.7623 179.974C51.7623 179.695 51.713 179.453 51.6145 179.247C51.5201 179.042 51.3682 178.884 51.1588 178.773C50.9535 178.662 50.6825 178.607 50.3458 178.607H48.5844L48.5967 177.412H50.8385L51.2265 177.874C51.7438 177.878 52.1647 177.981 52.489 178.182C52.8175 178.383 53.0597 178.642 53.2158 178.958C53.3718 179.274 53.4498 179.615 53.4498 179.98C53.4498 180.555 53.3246 181.037 53.0741 181.427C52.8278 181.817 52.4665 182.111 51.9902 182.308C51.518 182.505 50.9453 182.604 50.2719 182.604ZM55.6177 173.637L57.5884 177.818L59.5715 173.637H61.4315L58.4507 179.321V182.604H56.7324V179.321L53.7454 173.637H55.6177ZM66.2907 173.637V182.604H64.6032V173.637H66.2907ZM69.0744 173.637V174.973H61.8503V173.637H69.0744ZM76.1446 181.273V182.604H71.3778V181.273H76.1446ZM71.8951 173.637V182.604H70.2015V173.637H71.8951ZM75.5226 177.338V178.638H71.3778V177.338H75.5226ZM76.1261 173.637V174.973H71.3778V173.637H76.1261ZM82.5681 179.654H84.2618C84.2166 180.253 84.0503 180.785 83.7629 181.249C83.4755 181.709 83.0752 182.07 82.562 182.333C82.0487 182.596 81.4267 182.727 80.6959 182.727C80.1334 182.727 79.6263 182.628 79.1747 182.431C78.7272 182.23 78.3433 181.945 78.023 181.575C77.7069 181.202 77.4646 180.754 77.2963 180.233C77.1279 179.707 77.0438 179.118 77.0438 178.465V177.781C77.0438 177.129 77.13 176.539 77.3024 176.014C77.4749 175.488 77.7212 175.041 78.0415 174.671C78.3658 174.298 78.7538 174.01 79.2055 173.809C79.6612 173.608 80.1703 173.507 80.7328 173.507C81.4637 173.507 82.0816 173.643 82.5866 173.914C83.0916 174.181 83.4837 174.548 83.7629 175.016C84.0421 175.484 84.2105 176.022 84.2679 176.63H82.5743C82.5414 176.252 82.4593 175.932 82.3279 175.669C82.2007 175.406 82.0077 175.207 81.749 175.072C81.4945 174.932 81.1557 174.862 80.7328 174.862C80.4044 174.862 80.1149 174.924 79.8645 175.047C79.6181 175.17 79.4128 175.355 79.2486 175.601C79.0844 175.844 78.9612 176.147 78.8791 176.513C78.797 176.874 78.7559 177.293 78.7559 177.769V178.465C78.7559 178.921 78.7928 179.329 78.8668 179.691C78.9407 180.052 79.0556 180.358 79.2116 180.608C79.3677 180.859 79.5688 181.05 79.8152 181.181C80.0615 181.312 80.3551 181.378 80.6959 181.378C81.1106 181.378 81.4472 181.312 81.7059 181.181C81.9687 181.05 82.1678 180.857 82.3033 180.602C82.4429 180.348 82.5312 180.031 82.5681 179.654ZM92.8347 177.892V178.354C92.8347 179.032 92.7444 179.641 92.5637 180.183C92.383 180.721 92.1264 181.179 91.7939 181.557C91.4613 181.935 91.0651 182.224 90.6052 182.425C90.1454 182.626 89.6342 182.727 89.0717 182.727C88.5174 182.727 88.0083 182.626 87.5444 182.425C87.0845 182.224 86.6862 181.935 86.3496 181.557C86.0129 181.179 85.7522 180.721 85.5674 180.183C85.3827 179.641 85.2903 179.032 85.2903 178.354V177.892C85.2903 177.211 85.3827 176.601 85.5674 176.063C85.7522 175.525 86.0108 175.068 86.3434 174.69C86.676 174.308 87.0722 174.016 87.532 173.815C87.996 173.614 88.5051 173.514 89.0594 173.514C89.6219 173.514 90.1331 173.614 90.5929 173.815C91.0528 174.016 91.449 174.308 91.7815 174.69C92.1182 175.068 92.3769 175.525 92.5575 176.063C92.7423 176.601 92.8347 177.211 92.8347 177.892ZM91.1226 178.354V177.88C91.1226 177.391 91.0774 176.962 90.9871 176.593C90.8967 176.219 90.7633 175.905 90.5868 175.651C90.4102 175.396 90.1926 175.205 89.9339 175.078C89.6753 174.946 89.3838 174.881 89.0594 174.881C88.7309 174.881 88.4394 174.946 88.1849 175.078C87.9344 175.205 87.7209 175.396 87.5444 175.651C87.3678 175.905 87.2323 176.219 87.1379 176.593C87.0476 176.962 87.0024 177.391 87.0024 177.88V178.354C87.0024 178.839 87.0476 179.268 87.1379 179.641C87.2323 180.015 87.3678 180.331 87.5444 180.59C87.725 180.844 87.9426 181.037 88.1972 181.169C88.4517 181.3 88.7433 181.366 89.0717 181.366C89.4002 181.366 89.6917 181.3 89.9463 181.169C90.2008 181.037 90.4143 180.844 90.5868 180.59C90.7633 180.331 90.8967 180.015 90.9871 179.641C91.0774 179.268 91.1226 178.839 91.1226 178.354ZM96.9487 182.604H95.0149L95.0272 181.273H96.9487C97.4701 181.273 97.9074 181.159 98.2605 180.929C98.6136 180.695 98.8805 180.36 99.0611 179.925C99.2418 179.485 99.3321 178.96 99.3321 178.348V177.886C99.3321 177.414 99.2808 176.997 99.1781 176.636C99.0755 176.275 98.9236 175.971 98.7224 175.724C98.5253 175.478 98.281 175.291 97.9895 175.164C97.698 175.037 97.3634 174.973 96.9857 174.973H94.9779V173.637H96.9857C97.5851 173.637 98.1312 173.737 98.6239 173.938C99.1207 174.14 99.5497 174.429 99.911 174.807C100.277 175.18 100.556 175.628 100.749 176.149C100.946 176.671 101.044 177.254 101.044 177.899V178.348C101.044 178.989 100.946 179.572 100.749 180.097C100.556 180.619 100.277 181.066 99.911 181.44C99.5497 181.813 99.1186 182.101 98.6177 182.302C98.1168 182.503 97.5605 182.604 96.9487 182.604ZM95.9633 173.637V182.604H94.2697V173.637H95.9633ZM108.429 181.273V182.604H103.662V181.273H108.429ZM104.179 173.637V182.604H102.485V173.637H104.179ZM107.807 177.338V178.638H103.662V177.338H107.807ZM108.41 173.637V174.973H103.662V173.637H108.41Z" fill="#9DCDED"/>
<path d="M446.501 161.025H357.37C347.385 161.025 339.291 169.119 339.291 179.104C339.291 189.088 347.385 197.182 357.37 197.182H446.501C456.486 197.182 464.58 189.088 464.58 179.104C464.58 169.119 456.486 161.025 446.501 161.025Z" stroke="#9DCDED" strokeWidth="0.840868"/>
<path d="M385.996 180.885L387.782 173.637H388.749L388.811 175.164L386.902 182.604H385.879L385.996 180.885ZM384.869 173.637L386.335 180.861V182.604H385.22L383.188 173.637H384.869ZM390.665 180.83L392.106 173.637H393.793L391.761 182.604H390.646L390.665 180.83ZM389.211 173.637L390.997 180.91L391.102 182.604H390.08L388.177 175.158L388.251 173.637H389.211ZM398.16 174.998L395.604 182.604H393.812L397.162 173.637H398.308L398.16 174.998ZM400.297 182.604L397.729 174.998L397.575 173.637H398.726L402.095 182.604H400.297ZM400.18 179.272V180.608H395.37V179.272H400.18ZM407.712 180.276C407.712 180.103 407.685 179.949 407.632 179.814C407.583 179.674 407.49 179.549 407.355 179.438C407.223 179.323 407.037 179.212 406.794 179.106C406.556 178.995 406.248 178.88 405.871 178.761C405.452 178.629 405.062 178.482 404.7 178.317C404.339 178.153 404.021 177.962 403.746 177.745C403.475 177.527 403.263 177.276 403.111 176.993C402.96 176.706 402.884 176.373 402.884 175.995C402.884 175.626 402.962 175.289 403.118 174.985C403.278 174.682 403.504 174.421 403.795 174.203C404.087 173.982 404.429 173.811 404.824 173.692C405.222 173.573 405.661 173.514 406.142 173.514C406.807 173.514 407.381 173.635 407.866 173.877C408.355 174.119 408.732 174.448 408.999 174.862C409.266 175.277 409.399 175.743 409.399 176.26H407.712C407.712 175.981 407.652 175.735 407.533 175.521C407.418 175.308 407.242 175.139 407.004 175.016C406.77 174.893 406.474 174.831 406.117 174.831C405.772 174.831 405.485 174.883 405.255 174.985C405.029 175.088 404.858 175.228 404.744 175.404C404.633 175.581 404.577 175.778 404.577 175.995C404.577 176.16 404.616 176.308 404.694 176.439C404.772 176.566 404.889 176.687 405.045 176.802C405.201 176.913 405.394 177.018 405.624 177.116C405.858 177.211 406.129 177.305 406.437 177.4C406.93 177.547 407.361 177.712 407.73 177.892C408.104 178.073 408.414 178.278 408.66 178.508C408.911 178.738 409.098 178.997 409.221 179.284C409.348 179.572 409.412 179.898 409.412 180.263C409.412 180.649 409.336 180.994 409.184 181.298C409.032 181.602 408.814 181.861 408.531 182.074C408.248 182.288 407.907 182.45 407.509 182.561C407.115 182.672 406.673 182.727 406.185 182.727C405.749 182.727 405.318 182.669 404.891 182.554C404.468 182.435 404.085 182.259 403.74 182.025C403.395 181.787 403.12 181.487 402.914 181.126C402.709 180.76 402.606 180.333 402.606 179.845H404.306C404.306 180.128 404.351 180.37 404.442 180.571C404.536 180.768 404.668 180.931 404.836 181.058C405.008 181.181 405.21 181.271 405.439 181.329C405.669 181.386 405.918 181.415 406.185 181.415C406.53 181.415 406.813 181.368 407.035 181.273C407.26 181.175 407.429 181.039 407.54 180.867C407.655 180.695 407.712 180.497 407.712 180.276ZM411.456 173.637H412.922L415.373 180.387L417.818 173.637H419.29L415.959 182.604H414.782L411.456 173.637ZM410.717 173.637H412.152L412.411 179.839V182.604H410.717V173.637ZM418.588 173.637H420.029V182.604H418.336V179.839L418.588 173.637Z" fill="#9DCDED"/>
<path d="M367.474 75.6648H370.732C371.414 75.6648 371.999 75.7674 372.487 75.9727C372.976 76.178 373.352 76.4818 373.614 76.8842C373.877 77.2866 374.009 77.7813 374.009 78.3684C374.009 78.8324 373.926 79.2348 373.762 79.5755C373.598 79.9163 373.366 80.2017 373.066 80.4316C372.771 80.6615 372.422 80.8422 372.019 80.9736L371.49 81.2446H368.614L368.601 79.9081H370.751C371.1 79.9081 371.389 79.8465 371.619 79.7234C371.849 79.6002 372.021 79.4298 372.136 79.2122C372.255 78.9946 372.315 78.7462 372.315 78.467C372.315 78.1673 372.257 77.9086 372.143 77.691C372.028 77.4693 371.853 77.2989 371.619 77.1798C371.385 77.0607 371.089 77.0012 370.732 77.0012H369.168V84.6318H367.474V75.6648ZM372.537 84.6318L370.461 80.6164L372.253 80.6102L374.353 84.5456V84.6318H372.537ZM380.481 75.6648H382.175V81.6202C382.175 82.3059 382.027 82.8828 381.732 83.3508C381.436 83.8148 381.034 84.1658 380.525 84.404C380.015 84.638 379.436 84.755 378.788 84.755C378.131 84.755 377.546 84.638 377.033 84.404C376.519 84.1658 376.117 83.8148 375.825 83.3508C375.534 82.8828 375.388 82.3059 375.388 81.6202V75.6648H377.082V81.6202C377.082 82.039 377.152 82.3819 377.291 82.6487C377.431 82.9115 377.628 83.1065 377.882 83.2338C378.137 83.3611 378.439 83.4247 378.788 83.4247C379.141 83.4247 379.443 83.3611 379.693 83.2338C379.948 83.1065 380.143 82.9115 380.278 82.6487C380.414 82.3819 380.481 82.039 380.481 81.6202V75.6648ZM388.475 82.3038C388.475 82.1314 388.449 81.9774 388.395 81.8419C388.346 81.7023 388.254 81.5771 388.118 81.4663C387.987 81.3513 387.8 81.2404 387.558 81.1337C387.32 81.0228 387.012 80.9079 386.634 80.7888C386.215 80.6574 385.825 80.5096 385.464 80.3454C385.102 80.1811 384.784 79.9902 384.509 79.7726C384.238 79.555 384.027 79.3046 383.875 79.0213C383.723 78.7339 383.647 78.4013 383.647 78.0235C383.647 77.654 383.725 77.3174 383.881 77.0135C384.041 76.7097 384.267 76.449 384.558 76.2314C384.85 76.0097 385.193 75.8393 385.587 75.7202C385.985 75.6011 386.425 75.5416 386.905 75.5416C387.57 75.5416 388.145 75.6627 388.629 75.905C389.118 76.1472 389.496 76.4757 389.763 76.8903C390.029 77.305 390.163 77.771 390.163 78.2884H388.475C388.475 78.0092 388.416 77.7628 388.297 77.5493C388.182 77.3358 388.005 77.1675 387.767 77.0443C387.533 76.9211 387.237 76.8596 386.88 76.8596C386.535 76.8596 386.248 76.9109 386.018 77.0135C385.792 77.1162 385.622 77.2558 385.507 77.4323C385.396 77.6089 385.341 77.8059 385.341 78.0235C385.341 78.1878 385.38 78.3356 385.458 78.467C385.536 78.5943 385.653 78.7154 385.809 78.8303C385.965 78.9412 386.158 79.0459 386.388 79.1444C386.622 79.2389 386.893 79.3333 387.201 79.4277C387.693 79.5755 388.124 79.7398 388.494 79.9204C388.867 80.1011 389.177 80.3064 389.424 80.5363C389.674 80.7662 389.861 81.0249 389.984 81.3123C390.112 81.5997 390.175 81.9261 390.175 82.2915C390.175 82.6775 390.099 83.0224 389.947 83.3262C389.795 83.63 389.578 83.8887 389.295 84.1022C389.011 84.3157 388.67 84.4779 388.272 84.5887C387.878 84.6996 387.437 84.755 386.948 84.755C386.513 84.755 386.082 84.6975 385.655 84.5826C385.232 84.4635 384.848 84.2869 384.503 84.0529C384.158 83.8148 383.883 83.5151 383.678 83.1537C383.472 82.7883 383.37 82.3613 383.37 81.8727H385.07C385.07 82.156 385.115 82.3983 385.205 82.5995C385.3 82.7965 385.431 82.9587 385.599 83.086C385.772 83.2092 385.973 83.2995 386.203 83.357C386.433 83.4145 386.681 83.4432 386.948 83.4432C387.293 83.4432 387.576 83.396 387.798 83.3016C388.024 83.203 388.192 83.0675 388.303 82.8951C388.418 82.7226 388.475 82.5256 388.475 82.3038ZM395.33 75.6648V84.6318H393.643V75.6648H395.33ZM398.114 75.6648V77.0012H390.89V75.6648H398.114ZM399.185 83.1661L399.173 84.2931C399.173 84.7324 399.064 85.1779 398.847 85.6295C398.629 86.0812 398.348 86.4548 398.003 86.7504L397.141 86.2762C397.252 86.0914 397.354 85.9046 397.449 85.7158C397.547 85.5269 397.625 85.3216 397.683 85.0999C397.744 84.8823 397.775 84.638 397.775 84.367V83.1661H399.185ZM409.132 81.6818H410.825C410.78 82.2813 410.614 82.813 410.326 83.2769C410.039 83.7368 409.639 84.0981 409.126 84.3609C408.612 84.6236 407.99 84.755 407.259 84.755C406.697 84.755 406.19 84.6565 405.738 84.4594C405.291 84.2582 404.907 83.9729 404.587 83.6033C404.27 83.2297 404.028 82.7822 403.86 82.2607C403.691 81.7352 403.607 81.146 403.607 80.4932V79.8096C403.607 79.1568 403.694 78.5676 403.866 78.042C404.038 77.5165 404.285 77.069 404.605 76.6994C404.929 76.3258 405.317 76.0384 405.769 75.8372C406.225 75.636 406.734 75.5354 407.296 75.5354C408.027 75.5354 408.645 75.6709 409.15 75.9419C409.655 76.2088 410.047 76.5763 410.326 77.0443C410.606 77.5124 410.774 78.0502 410.831 78.6579H409.138C409.105 78.2802 409.023 77.9599 408.891 77.6971C408.764 77.4344 408.571 77.2352 408.313 77.0997C408.058 76.9601 407.719 76.8903 407.296 76.8903C406.968 76.8903 406.678 76.9519 406.428 77.0751C406.182 77.1983 405.976 77.383 405.812 77.6294C405.648 77.8716 405.525 78.1755 405.443 78.5409C405.36 78.9022 405.319 79.321 405.319 79.7973V80.4932C405.319 80.9489 405.356 81.3575 405.43 81.7188C405.504 82.0801 405.619 82.386 405.775 82.6364C405.931 82.8869 406.132 83.0778 406.379 83.2092C406.625 83.3406 406.919 83.4063 407.259 83.4063C407.674 83.4063 408.011 83.3406 408.269 83.2092C408.532 83.0778 408.731 82.8848 408.867 82.6303C409.006 82.3757 409.095 82.0596 409.132 81.6818ZM413.547 83.1661L413.535 84.2931C413.535 84.7324 413.426 85.1779 413.209 85.6295C412.991 86.0812 412.71 86.4548 412.365 86.7504L411.503 86.2762C411.614 86.0914 411.716 85.9046 411.811 85.7158C411.909 85.5269 411.987 85.3216 412.045 85.0999C412.106 84.8823 412.137 84.638 412.137 84.367V83.1661H413.547ZM420.353 81.6818H422.046C422.001 82.2813 421.835 82.813 421.548 83.2769C421.26 83.7368 420.86 84.0981 420.347 84.3609C419.833 84.6236 419.211 84.755 418.481 84.755C417.918 84.755 417.411 84.6565 416.959 84.4594C416.512 84.2582 416.128 83.9729 415.808 83.6033C415.492 83.2297 415.249 82.7822 415.081 82.2607C414.913 81.7352 414.828 81.146 414.828 80.4932V79.8096C414.828 79.1568 414.915 78.5676 415.087 78.042C415.26 77.5165 415.506 77.069 415.826 76.6994C416.151 76.3258 416.539 76.0384 416.99 75.8372C417.446 75.636 417.955 75.5354 418.518 75.5354C419.248 75.5354 419.866 75.6709 420.371 75.9419C420.876 76.2088 421.268 76.5763 421.548 77.0443C421.827 77.5124 421.995 78.0502 422.053 78.6579H420.359C420.326 78.2802 420.244 77.9599 420.113 77.6971C419.985 77.4344 419.792 77.2352 419.534 77.0997C419.279 76.9601 418.94 76.8903 418.518 76.8903C418.189 76.8903 417.9 76.9519 417.649 77.0751C417.403 77.1983 417.198 77.383 417.033 77.6294C416.869 77.8716 416.746 78.1755 416.664 78.5409C416.582 78.9022 416.541 79.321 416.541 79.7973V80.4932C416.541 80.9489 416.578 81.3575 416.651 81.7188C416.725 82.0801 416.84 82.386 416.996 82.6364C417.152 82.8869 417.354 83.0778 417.6 83.2092C417.846 83.3406 418.14 83.4063 418.481 83.4063C418.895 83.4063 419.232 83.3406 419.491 83.2092C419.753 83.0778 419.953 82.8848 420.088 82.6303C420.228 82.3757 420.316 82.0596 420.353 81.6818ZM429.024 79.6741V81.1214H422.878V79.6741H429.024ZM426.733 77.2044V83.7327H425.175V77.2044H426.733ZM435.959 79.6741V81.1214H429.813V79.6741H435.959ZM433.668 77.2044V83.7327H432.11V77.2044H433.668Z" fill="#9DCDED"/>
<path d="M274.122 247.635H191.717C183.59 247.635 177.002 254.223 177.002 262.35V302.712C177.002 310.839 183.59 317.427 191.717 317.427H274.122C282.249 317.427 288.837 310.839 288.837 302.712V262.35C288.837 254.223 282.249 247.635 274.122 247.635Z" fill="#425269" stroke="url(#paint5_linear_629_27285)" strokeWidth="0.840868"/>
<path d="M219.47 282.531H207.559C202.061 282.531 197.604 286.988 197.604 292.486V292.486C197.604 297.984 202.061 302.441 207.559 302.441H219.47C224.968 302.441 229.425 297.984 229.425 292.486V292.486C229.425 286.988 224.968 282.531 219.47 282.531Z" fill="#213147"/>
<path d="M210.116 294.281V294.986H207.59V294.281H210.116ZM207.865 290.235V294.986H206.967V290.235H207.865ZM209.787 292.196V292.885H207.59V292.196H209.787ZM210.106 290.235V290.943H207.59V290.235H210.106ZM212.41 294.056L213.595 290.235H214.59L212.913 294.986H212.25L212.41 294.056ZM211.317 290.235L212.495 294.056L212.665 294.986H211.996L210.325 290.235H211.317ZM215.471 290.235H216.248L217.546 293.811L218.842 290.235H219.622L217.856 294.986H217.233L215.471 290.235ZM215.079 290.235H215.84L215.977 293.521V294.986H215.079V290.235ZM219.25 290.235H220.013V294.986H219.116V293.521L219.25 290.235Z" fill="white"/>
<path d="M260.945 282.754H242.034C236.659 282.754 232.302 287.111 232.302 292.486C232.302 297.862 236.659 302.219 242.034 302.219H260.945C266.32 302.219 270.677 297.862 270.677 292.486C270.677 287.111 266.32 282.754 260.945 282.754Z" fill="#213147"/>
<path d="M260.945 282.754H242.034C236.659 282.754 232.302 287.111 232.302 292.486C232.302 297.862 236.659 302.219 242.034 302.219H260.945C266.32 302.219 270.677 297.862 270.677 292.486C270.677 287.111 266.32 282.754 260.945 282.754Z" stroke="#213147" strokeWidth="0.445523"/>
<path d="M242.611 294.076L243.557 290.235H244.07L244.102 291.044L243.091 294.986H242.549L242.611 294.076ZM242.014 290.235L242.79 294.063V294.986H242.2L241.123 290.235H242.014ZM245.084 294.046L245.848 290.235H246.742L245.665 294.986H245.075L245.084 294.046ZM244.314 290.235L245.261 294.089L245.316 294.986H244.774L243.766 291.041L243.805 290.235H244.314ZM249.056 290.956L247.701 294.986H246.752L248.527 290.235H249.134L249.056 290.956ZM250.188 294.986L248.827 290.956L248.746 290.235H249.356L251.141 294.986H250.188ZM250.126 293.221V293.929H247.577V293.221H250.126ZM254.117 293.753C254.117 293.661 254.103 293.58 254.074 293.508C254.048 293.434 253.999 293.368 253.927 293.309C253.858 293.248 253.759 293.189 253.631 293.133C253.504 293.074 253.341 293.013 253.141 292.95C252.919 292.88 252.713 292.802 252.521 292.715C252.33 292.628 252.161 292.527 252.015 292.411C251.872 292.296 251.76 292.163 251.679 292.013C251.599 291.861 251.558 291.685 251.558 291.485C251.558 291.289 251.6 291.111 251.682 290.95C251.767 290.789 251.887 290.65 252.041 290.535C252.196 290.418 252.378 290.327 252.586 290.264C252.797 290.201 253.03 290.17 253.285 290.17C253.637 290.17 253.942 290.234 254.198 290.362C254.457 290.491 254.657 290.665 254.799 290.884C254.94 291.104 255.011 291.351 255.011 291.625H254.117C254.117 291.477 254.085 291.347 254.022 291.234C253.961 291.12 253.868 291.031 253.741 290.966C253.617 290.901 253.461 290.868 253.272 290.868C253.089 290.868 252.937 290.895 252.815 290.95C252.695 291.004 252.605 291.078 252.544 291.172C252.485 291.265 252.456 291.369 252.456 291.485C252.456 291.572 252.476 291.65 252.518 291.72C252.559 291.787 252.621 291.851 252.704 291.912C252.786 291.971 252.889 292.026 253.011 292.079C253.135 292.129 253.278 292.179 253.441 292.229C253.702 292.307 253.931 292.394 254.127 292.49C254.324 292.586 254.489 292.694 254.619 292.816C254.752 292.938 254.851 293.075 254.916 293.227C254.984 293.38 255.017 293.552 255.017 293.746C255.017 293.951 254.977 294.133 254.897 294.294C254.816 294.455 254.701 294.592 254.551 294.705C254.401 294.819 254.22 294.905 254.009 294.963C253.8 295.022 253.566 295.051 253.307 295.051C253.077 295.051 252.848 295.021 252.622 294.96C252.398 294.897 252.195 294.803 252.012 294.679C251.829 294.553 251.684 294.394 251.575 294.203C251.466 294.009 251.412 293.783 251.412 293.524H252.312C252.312 293.674 252.336 293.803 252.384 293.909C252.434 294.014 252.504 294.1 252.593 294.167C252.684 294.232 252.791 294.28 252.913 294.311C253.034 294.341 253.166 294.356 253.307 294.356C253.49 294.356 253.64 294.331 253.758 294.281C253.877 294.229 253.967 294.157 254.025 294.066C254.086 293.975 254.117 293.87 254.117 293.753ZM256.101 290.235H256.877L258.176 293.811L259.472 290.235H260.251L258.486 294.986H257.863L256.101 290.235ZM255.709 290.235H256.469L256.606 293.521V294.986H255.709V290.235ZM259.879 290.235H260.643V294.986H259.746V293.521L259.879 290.235Z" fill="white"/>
<path d="M219.284 260.508V272.464H217.018L211.935 264.17V272.464H209.677V260.508H211.935L217.034 268.81V260.508H219.284ZM223.989 260.508V272.464H221.731V260.508H223.989ZM231.314 260.508V272.464H229.064V260.508H231.314ZM235.026 260.508V262.29H225.394V260.508H235.026ZM236.529 260.508H240.872C241.781 260.508 242.561 260.645 243.213 260.918C243.864 261.192 244.365 261.597 244.715 262.134C245.066 262.67 245.241 263.33 245.241 264.113C245.241 264.731 245.132 265.268 244.913 265.722C244.694 266.177 244.384 266.557 243.985 266.864C243.59 267.17 243.125 267.411 242.589 267.586L241.882 267.947H238.048L238.031 266.166H240.897C241.362 266.166 241.748 266.083 242.055 265.919C242.361 265.755 242.591 265.528 242.745 265.238C242.903 264.948 242.983 264.616 242.983 264.244C242.983 263.844 242.906 263.5 242.753 263.209C242.6 262.914 242.367 262.687 242.055 262.528C241.743 262.369 241.349 262.29 240.872 262.29H238.787V272.464H236.529V260.508ZM243.278 272.464L240.511 267.11L242.901 267.102L245.701 272.349V272.464H243.278ZM256.901 266.182V266.798C256.901 267.701 256.781 268.514 256.54 269.237C256.299 269.954 255.957 270.564 255.514 271.068C255.07 271.572 254.542 271.957 253.929 272.226C253.316 272.494 252.634 272.628 251.884 272.628C251.145 272.628 250.466 272.494 249.848 272.226C249.235 271.957 248.704 271.572 248.255 271.068C247.806 270.564 247.458 269.954 247.212 269.237C246.965 268.514 246.842 267.701 246.842 266.798V266.182C246.842 265.273 246.965 264.46 247.212 263.743C247.458 263.026 247.803 262.416 248.246 261.912C248.69 261.403 249.218 261.014 249.831 260.746C250.45 260.478 251.129 260.344 251.868 260.344C252.618 260.344 253.299 260.478 253.912 260.746C254.526 261.014 255.054 261.403 255.497 261.912C255.946 262.416 256.291 263.026 256.532 263.743C256.778 264.46 256.901 265.273 256.901 266.182ZM254.619 266.798V266.166C254.619 265.514 254.558 264.942 254.438 264.449C254.318 263.951 254.14 263.532 253.904 263.193C253.669 262.854 253.379 262.599 253.034 262.429C252.689 262.254 252.3 262.167 251.868 262.167C251.43 262.167 251.041 262.254 250.702 262.429C250.368 262.599 250.083 262.854 249.848 263.193C249.612 263.532 249.432 263.951 249.306 264.449C249.185 264.942 249.125 265.514 249.125 266.166V266.798C249.125 267.444 249.185 268.016 249.306 268.514C249.432 269.012 249.612 269.434 249.848 269.779C250.089 270.118 250.379 270.375 250.718 270.551C251.058 270.726 251.446 270.813 251.884 270.813C252.322 270.813 252.711 270.726 253.05 270.551C253.39 270.375 253.674 270.118 253.904 269.779C254.14 269.434 254.318 269.012 254.438 268.514C254.558 268.016 254.619 267.444 254.619 266.798Z" fill="url(#paint6_linear_629_27285)"/>
<path d="M253.941 364.936H206.012C201.832 364.936 198.444 368.324 198.444 372.504V420.433C198.444 424.613 201.832 428.001 206.012 428.001H253.941C258.121 428.001 261.509 424.613 261.509 420.433V372.504C261.509 368.324 258.121 364.936 253.941 364.936Z" fill="#639DC3" fill-opacity="0.3"/>
<path d="M248.055 370.822H211.898C207.718 370.822 204.33 374.21 204.33 378.39V414.547C204.33 418.727 207.718 422.115 211.898 422.115H248.055C252.235 422.115 255.623 418.727 255.623 414.547V378.39C255.623 374.21 252.235 370.822 248.055 370.822Z" fill="#639DC3" fill-opacity="0.3"/>
<path d="M221.278 392.724C221.278 392.632 221.263 392.551 221.235 392.479C221.209 392.405 221.16 392.339 221.088 392.28C221.019 392.219 220.92 392.16 220.791 392.104C220.665 392.045 220.502 391.984 220.302 391.921C220.08 391.851 219.873 391.773 219.682 391.686C219.49 391.599 219.322 391.498 219.176 391.383C219.032 391.267 218.92 391.135 218.84 390.985C218.759 390.832 218.719 390.656 218.719 390.456C218.719 390.26 218.761 390.082 218.843 389.921C218.928 389.76 219.048 389.622 219.202 389.506C219.357 389.389 219.538 389.299 219.747 389.236C219.958 389.172 220.191 389.141 220.445 389.141C220.798 389.141 221.102 389.205 221.359 389.333C221.618 389.462 221.818 389.636 221.96 389.856C222.101 390.075 222.172 390.322 222.172 390.596H221.278C221.278 390.448 221.246 390.318 221.183 390.205C221.122 390.092 221.028 390.002 220.902 389.937C220.778 389.872 220.622 389.839 220.432 389.839C220.25 389.839 220.097 389.866 219.976 389.921C219.856 389.975 219.766 390.049 219.705 390.143C219.646 390.236 219.617 390.341 219.617 390.456C219.617 390.543 219.637 390.621 219.679 390.691C219.72 390.758 219.782 390.823 219.865 390.883C219.947 390.942 220.049 390.998 220.171 391.05C220.295 391.1 220.439 391.15 220.602 391.2C220.863 391.278 221.092 391.365 221.287 391.461C221.485 391.557 221.65 391.665 221.78 391.787C221.913 391.909 222.012 392.046 222.077 392.198C222.144 392.351 222.178 392.524 222.178 392.717C222.178 392.922 222.138 393.105 222.057 393.265C221.977 393.426 221.862 393.564 221.712 393.677C221.561 393.79 221.381 393.876 221.17 393.934C220.961 393.993 220.727 394.023 220.468 394.023C220.238 394.023 220.009 393.992 219.783 393.931C219.559 393.868 219.356 393.775 219.173 393.651C218.99 393.524 218.844 393.366 218.736 393.174C218.627 392.981 218.572 392.754 218.572 392.495H219.473C219.473 392.646 219.497 392.774 219.545 392.88C219.595 392.985 219.664 393.071 219.754 393.138C219.845 393.203 219.952 393.251 220.073 393.282C220.195 393.312 220.327 393.327 220.468 393.327C220.651 393.327 220.801 393.302 220.919 393.252C221.038 393.2 221.127 393.128 221.186 393.037C221.247 392.946 221.278 392.841 221.278 392.724ZM223.261 389.206H224.038L225.337 392.783L226.632 389.206H227.412L225.647 393.957H225.024L223.261 389.206ZM222.87 389.206H223.63L223.767 392.492V393.957H222.87V389.206ZM227.04 389.206H227.804V393.957H226.906V392.492L227.04 389.206ZM230.665 389.927L229.311 393.957H228.362L230.137 389.206H230.744L230.665 389.927ZM231.798 393.957L230.437 389.927L230.355 389.206H230.966L232.751 393.957H231.798ZM231.736 392.192V392.9H229.187V392.192H231.736ZM233.24 389.206H234.966C235.327 389.206 235.637 389.261 235.896 389.369C236.155 389.478 236.354 389.639 236.493 389.852C236.633 390.065 236.702 390.328 236.702 390.639C236.702 390.885 236.659 391.098 236.572 391.278C236.485 391.459 236.362 391.61 236.203 391.732C236.046 391.854 235.861 391.949 235.648 392.019L235.368 392.163H233.844L233.837 391.454H234.976C235.161 391.454 235.314 391.422 235.436 391.357C235.558 391.291 235.649 391.201 235.71 391.086C235.773 390.97 235.805 390.839 235.805 390.691C235.805 390.532 235.774 390.395 235.714 390.28C235.653 390.162 235.56 390.072 235.436 390.009C235.312 389.946 235.156 389.914 234.966 389.914H234.137V393.957H233.24V389.206ZM235.922 393.957L234.823 391.83L235.772 391.826L236.885 393.912V393.957H235.922ZM239.319 389.206V393.957H238.425V389.206H239.319ZM240.794 389.206V389.914H236.967V389.206H240.794ZM213.394 402.394H214.291C214.267 402.712 214.179 402.994 214.027 403.239C213.875 403.483 213.663 403.674 213.391 403.814C213.119 403.953 212.789 404.023 212.402 404.023C212.104 404.023 211.835 403.97 211.596 403.866C211.359 403.759 211.155 403.608 210.986 403.412C210.818 403.214 210.69 402.977 210.601 402.701C210.511 402.423 210.467 402.11 210.467 401.764V401.402C210.467 401.056 210.513 400.744 210.604 400.466C210.695 400.187 210.826 399.95 210.995 399.754C211.167 399.556 211.373 399.404 211.612 399.298C211.854 399.191 212.123 399.138 212.421 399.138C212.809 399.138 213.136 399.209 213.404 399.353C213.671 399.494 213.879 399.689 214.027 399.937C214.175 400.185 214.264 400.47 214.294 400.792H213.397C213.38 400.592 213.336 400.422 213.267 400.283C213.199 400.144 213.097 400.038 212.96 399.966C212.825 399.893 212.646 399.856 212.421 399.856C212.247 399.856 212.094 399.888 211.961 399.953C211.831 400.019 211.722 400.117 211.635 400.247C211.548 400.375 211.483 400.536 211.439 400.73C211.396 400.921 211.374 401.143 211.374 401.396V401.764C211.374 402.006 211.394 402.222 211.433 402.414C211.472 402.605 211.533 402.767 211.615 402.9C211.698 403.033 211.805 403.134 211.935 403.203C212.066 403.273 212.221 403.308 212.402 403.308C212.622 403.308 212.8 403.273 212.937 403.203C213.076 403.134 213.182 403.032 213.254 402.897C213.327 402.762 213.374 402.594 213.394 402.394ZM218.833 401.461V401.706C218.833 402.065 218.786 402.388 218.69 402.675C218.594 402.96 218.458 403.202 218.282 403.403C218.106 403.603 217.896 403.756 217.652 403.863C217.409 403.969 217.138 404.023 216.84 404.023C216.546 404.023 216.276 403.969 216.03 403.863C215.787 403.756 215.576 403.603 215.397 403.403C215.219 403.202 215.081 402.96 214.983 402.675C214.885 402.388 214.836 402.065 214.836 401.706V401.461C214.836 401.1 214.885 400.777 214.983 400.492C215.081 400.207 215.218 399.964 215.394 399.764C215.57 399.562 215.78 399.407 216.024 399.301C216.27 399.194 216.539 399.141 216.833 399.141C217.131 399.141 217.402 399.194 217.646 399.301C217.889 399.407 218.099 399.562 218.275 399.764C218.454 399.964 218.591 400.207 218.687 400.492C218.784 400.777 218.833 401.1 218.833 401.461ZM217.926 401.706V401.454C217.926 401.196 217.902 400.968 217.855 400.772C217.807 400.575 217.736 400.408 217.642 400.273C217.549 400.138 217.434 400.037 217.297 399.97C217.159 399.9 217.005 399.865 216.833 399.865C216.659 399.865 216.505 399.9 216.37 399.97C216.237 400.037 216.124 400.138 216.03 400.273C215.937 400.408 215.865 400.575 215.815 400.772C215.767 400.968 215.743 401.196 215.743 401.454V401.706C215.743 401.962 215.767 402.19 215.815 402.388C215.865 402.586 215.937 402.753 216.03 402.89C216.126 403.025 216.241 403.127 216.376 403.197C216.511 403.267 216.666 403.301 216.84 403.301C217.014 403.301 217.168 403.267 217.303 403.197C217.438 403.127 217.551 403.025 217.642 402.89C217.736 402.753 217.807 402.586 217.855 402.388C217.902 402.19 217.926 401.962 217.926 401.706ZM223.412 399.206V403.957H222.511L220.491 400.662V403.957H219.594V399.206H220.491L222.517 402.505V399.206H223.412ZM226.267 399.206V403.957H225.373V399.206H226.267ZM227.742 399.206V399.914H223.914V399.206H227.742ZM228.339 399.206H230.065C230.426 399.206 230.736 399.261 230.995 399.369C231.254 399.478 231.453 399.639 231.592 399.852C231.731 400.065 231.801 400.328 231.801 400.639C231.801 400.885 231.758 401.098 231.671 401.278C231.584 401.459 231.461 401.61 231.302 401.732C231.145 401.854 230.96 401.949 230.747 402.019L230.466 402.163H228.943L228.936 401.454H230.075C230.26 401.454 230.413 401.422 230.535 401.357C230.657 401.291 230.748 401.201 230.809 401.086C230.872 400.97 230.904 400.839 230.904 400.691C230.904 400.532 230.873 400.395 230.812 400.28C230.751 400.162 230.659 400.072 230.535 400.009C230.411 399.946 230.254 399.914 230.065 399.914H229.236V403.957H228.339V399.206ZM231.021 403.957L229.921 401.83L230.871 401.826L231.984 403.912V403.957H231.021ZM234.477 399.927L233.123 403.957H232.173L233.948 399.206H234.555L234.477 399.927ZM235.609 403.957L234.248 399.927L234.167 399.206H234.777L236.562 403.957H235.609ZM235.547 402.192V402.9H232.999V402.192H235.547ZM239.773 402.394H240.67C240.646 402.712 240.558 402.994 240.406 403.239C240.254 403.483 240.041 403.674 239.77 403.814C239.498 403.953 239.168 404.023 238.781 404.023C238.483 404.023 238.214 403.97 237.975 403.866C237.738 403.759 237.534 403.608 237.365 403.412C237.197 403.214 237.069 402.977 236.98 402.701C236.89 402.423 236.846 402.11 236.846 401.764V401.402C236.846 401.056 236.891 400.744 236.983 400.466C237.074 400.187 237.205 399.95 237.374 399.754C237.546 399.556 237.752 399.404 237.991 399.298C238.233 399.191 238.502 399.138 238.8 399.138C239.188 399.138 239.515 399.209 239.783 399.353C240.05 399.494 240.258 399.689 240.406 399.937C240.554 400.185 240.643 400.47 240.673 400.792H239.776C239.759 400.592 239.715 400.422 239.646 400.283C239.578 400.144 239.476 400.038 239.339 399.966C239.204 399.893 239.024 399.856 238.8 399.856C238.626 399.856 238.473 399.888 238.34 399.953C238.21 400.019 238.101 400.117 238.014 400.247C237.927 400.375 237.862 400.536 237.818 400.73C237.775 400.921 237.753 401.143 237.753 401.396V401.764C237.753 402.006 237.773 402.222 237.812 402.414C237.851 402.605 237.912 402.767 237.994 402.9C238.077 403.033 238.184 403.134 238.314 403.203C238.445 403.273 238.6 403.308 238.781 403.308C239.001 403.308 239.179 403.273 239.316 403.203C239.455 403.134 239.561 403.032 239.633 402.897C239.706 402.762 239.753 402.594 239.773 402.394ZM243.307 399.206V403.957H242.413V399.206H243.307ZM244.782 399.206V399.914H240.954V399.206H244.782ZM247.813 402.724C247.813 402.632 247.799 402.551 247.771 402.479C247.745 402.405 247.696 402.339 247.624 402.28C247.554 402.219 247.455 402.16 247.327 402.104C247.201 402.045 247.038 401.984 246.837 401.921C246.616 401.851 246.409 401.773 246.217 401.686C246.026 401.599 245.857 401.498 245.712 401.383C245.568 401.267 245.456 401.135 245.376 400.985C245.295 400.832 245.255 400.656 245.255 400.456C245.255 400.26 245.296 400.082 245.379 399.921C245.464 399.76 245.583 399.622 245.738 399.506C245.892 399.389 246.074 399.299 246.283 399.236C246.494 399.172 246.727 399.141 246.981 399.141C247.333 399.141 247.638 399.205 247.895 399.333C248.154 399.462 248.354 399.636 248.495 399.856C248.637 400.075 248.707 400.322 248.707 400.596H247.813C247.813 400.448 247.782 400.318 247.718 400.205C247.658 400.092 247.564 400.002 247.438 399.937C247.314 399.872 247.157 399.839 246.968 399.839C246.785 399.839 246.633 399.866 246.511 399.921C246.391 399.975 246.301 400.049 246.24 400.143C246.182 400.236 246.152 400.341 246.152 400.456C246.152 400.543 246.173 400.621 246.214 400.691C246.256 400.758 246.318 400.823 246.4 400.883C246.483 400.942 246.585 400.998 246.707 401.05C246.831 401.1 246.975 401.15 247.138 401.2C247.399 401.278 247.627 401.365 247.823 401.461C248.021 401.557 248.185 401.665 248.316 401.787C248.448 401.909 248.547 402.046 248.613 402.198C248.68 402.351 248.714 402.524 248.714 402.717C248.714 402.922 248.673 403.105 248.593 403.265C248.513 403.426 248.397 403.564 248.247 403.677C248.097 403.79 247.916 403.876 247.705 403.934C247.497 403.993 247.263 404.023 247.004 404.023C246.773 404.023 246.545 403.992 246.319 403.931C246.095 403.868 245.891 403.775 245.708 403.651C245.526 403.524 245.38 403.366 245.271 403.174C245.162 402.981 245.108 402.754 245.108 402.495H246.009C246.009 402.646 246.033 402.774 246.08 402.88C246.13 402.985 246.2 403.071 246.289 403.138C246.381 403.203 246.487 403.251 246.609 403.282C246.731 403.312 246.862 403.327 247.004 403.327C247.187 403.327 247.337 403.302 247.454 403.252C247.574 403.2 247.663 403.128 247.722 403.037C247.783 402.946 247.813 402.841 247.813 402.724Z" fill="url(#paint7_linear_629_27285)"/>
<path d="M61.3838 122.766V161.025" stroke="#9DCDED" strokeWidth="0.840868"/>
<path d="M401.935 122.766V161.025" stroke="#9DCDED" strokeWidth="0.840868"/>
<path d="M61.3838 197.603V269.918C61.3838 276.884 67.0308 282.531 73.9968 282.531H176.583" stroke="#9DCDED" strokeWidth="0.840868"/>
<path d="M401.935 197.603V269.918C401.935 276.884 396.288 282.531 389.322 282.531H289.258" stroke="#9DCDED" strokeWidth="0.840868"/>
<path d="M62.0499 151.33C61.7133 151.768 61.0539 151.768 60.7173 151.33L58.0565 147.874C57.6308 147.321 58.025 146.52 58.7228 146.52H64.0444C64.7422 146.52 65.1364 147.321 64.7107 147.874L62.0499 151.33Z" fill="#9DCDED"/>
<path d="M62.0499 242.985C61.7133 243.423 61.0539 243.423 60.7173 242.985L58.0565 239.529C57.6308 238.976 58.025 238.175 58.7228 238.175H64.0444C64.7422 238.175 65.1364 238.976 64.7107 239.529L62.0499 242.985Z" fill="#9DCDED"/>
<path d="M402.602 151.33C402.265 151.768 401.606 151.768 401.269 151.33L398.608 147.874C398.182 147.321 398.577 146.52 399.274 146.52H404.596C405.294 146.52 405.688 147.321 405.262 147.874L402.602 151.33Z" fill="#9DCDED"/>
<path d="M402.602 247.19C402.265 247.627 401.606 247.627 401.269 247.19L398.608 243.733C398.182 243.18 398.577 242.379 399.274 242.379H404.596C405.294 242.379 405.688 243.18 405.262 243.733L402.602 247.19Z" fill="#9DCDED"/>
<path d="M234.428 343.889C234.091 344.327 233.432 344.327 233.095 343.889L230.434 340.433C230.009 339.88 230.403 339.079 231.101 339.079H236.422C237.12 339.079 237.514 339.88 237.089 340.433L234.428 343.889Z" fill="#9DCDED"/>
<path d="M233.762 317.847V364.936" stroke="#9DCDED" strokeWidth="0.840868"/>
</g>
<defs>
<linearGradient id="paint0_linear_629_27285" x1="232.08" y1="163.127" x2="232.08" y2="6.7264" gradientUnits="userSpaceOnUse">
<stop stop-color="#9AD2F7"/>
<stop offset="1" stop-color="#3E87EB"/>
</linearGradient>
<linearGradient id="paint1_linear_629_27285" x1="232.08" y1="17.6572" x2="232.08" y2="152.196" gradientUnits="userSpaceOnUse">
<stop stop-color="#9AD2F7"/>
<stop offset="1" stop-color="#3E87EB"/>
</linearGradient>
<linearGradient id="paint2_linear_629_27285" x1="232.079" y1="28.5886" x2="232.079" y2="141.265" gradientUnits="userSpaceOnUse">
<stop stop-color="#9AD2F7"/>
<stop offset="1" stop-color="#3E87EB"/>
</linearGradient>
<linearGradient id="paint3_linear_629_27285" x1="232.079" y1="141.265" x2="232.079" y2="28.5886" gradientUnits="userSpaceOnUse">
<stop stop-color="#B3B3B3"/>
<stop offset="1" stop-color="#213147"/>
</linearGradient>
<linearGradient id="paint4_linear_629_27285" x1="269.409" y1="78.3362" x2="191.238" y2="107.053" gradientUnits="userSpaceOnUse">
<stop stop-color="#213147"/>
<stop offset="1" stop-color="#546B8C"/>
</linearGradient>
<linearGradient id="paint5_linear_629_27285" x1="286.797" y1="247.214" x2="175.341" y2="304.757" gradientUnits="userSpaceOnUse">
<stop stop-color="#4976B5"/>
<stop offset="1" stop-color="#001D44"/>
</linearGradient>
<linearGradient id="paint6_linear_629_27285" x1="253.958" y1="259.964" x2="207.588" y2="269.221" gradientUnits="userSpaceOnUse">
<stop stop-color="#80A9E2"/>
<stop offset="1" stop-color="white"/>
</linearGradient>
<linearGradient id="paint7_linear_629_27285" x1="229.556" y1="385.957" x2="229.556" y2="407.957" gradientUnits="userSpaceOnUse">
<stop stop-color="#213147"/>
<stop offset="1" stop-color="#84B6D7"/>
</linearGradient>
<clipPath id="clip0_629_27285">
<rect width="465" height="428" fill="white"/>
</clipPath>
</defs>
</svg>
