<svg width="45" height="45" viewBox="0 0 45 45" fill="none" xmlns="http://www.w3.org/2000/svg">
<path d="M4.21875 35.1562C14.223 35.1481 24.1838 36.4729 33.8381 39.0956C35.2013 39.4669 36.5625 38.4544 36.5625 37.0406V35.1562M7.03125 8.4375V9.84375C7.03125 10.2167 6.88309 10.5744 6.61937 10.8381C6.35565 11.1018 5.99796 11.25 5.625 11.25H4.21875M4.21875 11.25V10.5469C4.21875 9.3825 5.16375 8.4375 6.32812 8.4375H37.9688M4.21875 11.25V28.125M37.9688 8.4375V9.84375C37.9688 10.62 38.5987 11.25 39.375 11.25H40.7812M37.9688 8.4375H38.6719C39.8362 8.4375 40.7812 9.3825 40.7812 10.5469V28.8281C40.7812 29.9925 39.8362 30.9375 38.6719 30.9375H37.9688M4.21875 28.125V28.8281C4.21875 29.3876 4.44099 29.9241 4.83657 30.3197C5.23216 30.7153 5.76868 30.9375 6.32812 30.9375H7.03125M4.21875 28.125H5.625C5.99796 28.125 6.35565 28.2732 6.61937 28.5369C6.88309 28.8006 7.03125 29.1583 7.03125 29.5312V30.9375M37.9688 30.9375V29.5312C37.9688 29.1583 38.1169 28.8006 38.3806 28.5369C38.6444 28.2732 39.002 28.125 39.375 28.125H40.7812M37.9688 30.9375H7.03125M28.125 19.6875C28.125 21.1793 27.5324 22.6101 26.4775 23.665C25.4226 24.7199 23.9918 25.3125 22.5 25.3125C21.0082 25.3125 19.5774 24.7199 18.5225 23.665C17.4676 22.6101 16.875 21.1793 16.875 19.6875C16.875 18.1957 17.4676 16.7649 18.5225 15.71C19.5774 14.6551 21.0082 14.0625 22.5 14.0625C23.9918 14.0625 25.4226 14.6551 26.4775 15.71C27.5324 16.7649 28.125 18.1957 28.125 19.6875ZM33.75 19.6875H33.765V19.7025H33.75V19.6875ZM11.25 19.6875H11.265V19.7025H11.25V19.6875Z" stroke="#12AAFF" stroke-width="2.8125" stroke-linecap="round" stroke-linejoin="round"/>
</svg>
