<svg width="37" height="37" viewBox="0 0 37 37" fill="none" xmlns="http://www.w3.org/2000/svg">
<path d="M17.0938 17.0938L17.1706 17.0562C17.4111 16.9361 17.6809 16.8874 17.9481 16.9159C18.2154 16.9444 18.4689 17.0489 18.6786 17.217C18.8883 17.385 19.0455 17.6097 19.1314 17.8644C19.2174 18.119 19.2286 18.3929 19.1638 18.6537L17.8362 23.9713C17.7709 24.2322 17.7818 24.5064 17.8675 24.7614C17.9533 25.0163 18.1105 25.2413 18.3203 25.4097C18.5301 25.578 18.7838 25.6827 19.0512 25.7112C19.3187 25.7397 19.5888 25.6909 19.8294 25.5706L19.9062 25.5312M35.375 18.5C35.375 20.7161 34.9385 22.9104 34.0905 24.9578C33.2424 27.0052 31.9994 28.8654 30.4324 30.4324C28.8654 31.9994 27.0052 33.2424 24.9578 34.0905C22.9104 34.9385 20.7161 35.375 18.5 35.375C16.2839 35.375 14.0896 34.9385 12.0422 34.0905C9.99485 33.2424 8.13456 31.9994 6.56757 30.4324C5.00058 28.8654 3.75758 27.0052 2.90953 24.9578C2.06148 22.9104 1.625 20.7161 1.625 18.5C1.625 14.0245 3.4029 9.73225 6.56757 6.56757C9.73225 3.4029 14.0245 1.625 18.5 1.625C22.9755 1.625 27.2677 3.4029 30.4324 6.56757C33.5971 9.73225 35.375 14.0245 35.375 18.5ZM18.5 11.4688H18.515V11.4838H18.5V11.4688Z" stroke="#12AAFF" stroke-width="2.8125" stroke-linecap="round" stroke-linejoin="round"/>
</svg>
