<svg width="45" height="45" viewBox="0 0 45 45" fill="none" xmlns="http://www.w3.org/2000/svg">
<path d="M28.1269 35.865C29.7262 36.3294 31.3834 36.5642 33.0487 36.5625C35.727 36.5664 38.3704 35.9557 40.7756 34.7775C40.8467 33.0969 40.368 31.439 39.4121 30.055C38.4562 28.671 37.0751 27.6363 35.4782 27.1078C33.8813 26.5793 32.1557 26.5859 30.5628 27.1264C28.97 27.6669 27.5967 28.7119 26.6512 30.1031M28.1269 35.865V35.8594C28.1269 33.7725 27.5906 31.8094 26.6512 30.1031M28.1269 35.865V36.0637C24.5184 38.237 20.3843 39.3821 16.1719 39.375C11.8013 39.375 7.71188 38.1656 4.22063 36.0637L4.21875 35.8594C4.21731 33.2052 5.09928 30.6261 6.72559 28.5286C8.35191 26.4311 10.6301 24.9346 13.2009 24.2749C15.7718 23.6152 18.489 23.8299 20.9244 24.8852C23.3597 25.9404 25.3745 27.7762 26.6512 30.1031M22.5019 11.9531C22.5019 13.6314 21.8352 15.241 20.6484 16.4278C19.4617 17.6145 17.8521 18.2812 16.1738 18.2812C14.4954 18.2812 12.8858 17.6145 11.6991 16.4278C10.5123 15.241 9.84563 13.6314 9.84563 11.9531C9.84563 10.2748 10.5123 8.66522 11.6991 7.47846C12.8858 6.29171 14.4954 5.625 16.1738 5.625C17.8521 5.625 19.4617 6.29171 20.6484 7.47846C21.8352 8.66522 22.5019 10.2748 22.5019 11.9531ZM37.9706 16.1719C37.9706 17.4772 37.4521 18.7291 36.529 19.6522C35.606 20.5752 34.3541 21.0937 33.0487 21.0937C31.7434 21.0937 30.4915 20.5752 29.5685 19.6522C28.6454 18.7291 28.1269 17.4772 28.1269 16.1719C28.1269 14.8665 28.6454 13.6146 29.5685 12.6916C30.4915 11.7686 31.7434 11.25 33.0487 11.25C34.3541 11.25 35.606 11.7686 36.529 12.6916C37.4521 13.6146 37.9706 14.8665 37.9706 16.1719Z" stroke="#12AAFF" stroke-width="2.8125" stroke-linecap="round" stroke-linejoin="round"/>
</svg>
