<svg width="193" height="106" viewBox="0 0 193 106" fill="none" xmlns="http://www.w3.org/2000/svg">
<g clip-path="url(#clip0_3266_72287)">
<path d="M35.1401 104.88C28.3296 103.108 22.3115 99.0999 18.0504 93.4992C13.7893 87.8986 11.532 81.0294 11.6404 73.9928C11.6675 72.2397 11.8518 70.4497 12.5888 68.8587C13.3258 67.2677 14.6947 65.8916 16.4071 65.5147C18.2759 65.1032 20.2479 65.9443 21.6406 67.2565C23.0333 68.5688 23.9465 70.3002 24.7867 72.0195C29.8472 82.375 33.6921 93.4865 35.1316 104.922L35.1401 104.88Z" fill="#F2F2F2"/>
<path d="M15.5586 65.8602L19.1053 73.9186L22.652 81.9769C23.7752 84.529 24.8963 87.0823 26.0573 89.6175C27.2081 92.1305 28.3983 94.626 29.6681 97.0813C30.936 99.5331 32.2836 101.945 33.7463 104.286C33.9285 104.578 34.1124 104.868 34.2982 105.157C34.4267 105.358 34.748 105.172 34.6186 104.97C33.1278 102.646 31.7541 100.249 30.4657 97.8077C29.176 95.3636 27.9705 92.8758 26.8096 90.3682C25.6424 87.8472 24.5201 85.3057 23.4009 82.7632C22.2227 80.0869 21.0448 77.4105 19.867 74.7341L16.3203 66.6757L15.879 65.6729C15.783 65.4548 15.4632 65.6434 15.5586 65.8602Z" fill="white"/>
<path d="M33.6597 104.936C29.6453 105.855 25.4388 105.398 21.7145 103.641C17.9902 101.884 14.9639 98.9266 13.1206 95.2441C12.6613 94.3266 12.2738 93.3475 12.2269 92.3225C12.18 91.2975 12.5193 90.2135 13.3066 89.5555C14.1657 88.8374 15.4166 88.7417 16.494 89.047C17.5713 89.3524 18.5128 90.0048 19.4132 90.6706C24.8361 94.6808 29.832 99.4118 33.6665 104.96L33.6597 104.936Z" fill="#F2F2F2"/>
<path d="M12.9613 89.9638L16.9781 93.1901L20.995 96.4164C22.2671 97.4382 23.5384 98.4611 24.8256 99.464C26.1015 100.458 27.3932 101.432 28.7152 102.364C30.0354 103.295 31.3862 104.183 32.7776 105.004C32.9509 105.106 33.1248 105.207 33.2994 105.307C33.4202 105.377 33.5368 105.193 33.4152 105.124C32.0138 104.32 30.6535 103.446 29.3255 102.526C27.996 101.605 26.6986 100.639 25.4188 99.6506C24.1323 98.6569 22.8635 97.6403 21.596 96.6225C20.2619 95.551 18.9278 94.4795 17.5938 93.4079L13.5769 90.1816L13.0771 89.7801C12.9684 89.6928 12.8532 89.8771 12.9613 89.9638Z" fill="white"/>
<path d="M159.604 104.678C169.101 102.207 177.494 96.6175 183.436 88.8071C189.378 80.9967 192.526 71.4173 192.375 61.6046C192.337 59.1597 192.08 56.6635 191.052 54.4449C190.024 52.2262 188.115 50.3072 185.727 49.7815C183.121 49.2077 180.371 50.3806 178.429 52.2106C176.487 54.0406 175.213 56.4551 174.042 58.8527C166.985 73.2939 161.623 88.7894 159.615 104.737L159.604 104.678Z" fill="#F2F2F2"/>
<path d="M186.909 50.2633L181.963 61.501L177.017 72.7388C175.451 76.2978 173.887 79.8583 172.268 83.3938C170.663 86.8983 169.004 90.3785 167.233 93.8025C165.465 97.2216 163.585 100.585 161.546 103.85C161.292 104.257 161.035 104.662 160.776 105.065C160.597 105.344 160.149 105.085 160.329 104.804C162.408 101.563 164.324 98.2202 166.12 94.8155C167.919 91.407 169.6 87.9377 171.219 84.4407C172.847 80.9251 174.412 77.3809 175.973 73.8352C177.616 70.1031 179.258 66.3708 180.901 62.6383L185.847 51.4006L186.462 50.0021C186.596 49.698 187.042 49.9611 186.909 50.2633Z" fill="white"/>
<path d="M161.666 104.757C167.264 106.037 173.13 105.401 178.324 102.95C183.517 100.5 187.738 96.3759 190.308 91.2405C190.949 89.9609 191.489 88.5956 191.555 87.1662C191.62 85.7369 191.147 84.2252 190.049 83.3076C188.851 82.3061 187.106 82.1726 185.604 82.5985C184.102 83.0243 182.789 83.934 181.533 84.8625C173.971 90.455 167.004 97.0525 161.656 104.79L161.666 104.757Z" fill="#F2F2F2"/>
<path d="M190.533 83.8769L184.931 88.3761L179.33 92.8753C177.556 94.3002 175.783 95.7267 173.988 97.1252C172.208 98.5114 170.407 99.8702 168.564 101.17C166.722 102.468 164.839 103.706 162.898 104.851C162.657 104.993 162.414 105.135 162.171 105.274C162.002 105.371 161.84 105.115 162.009 105.018C163.964 103.897 165.861 102.678 167.713 101.395C169.567 100.111 171.376 98.764 173.16 97.3855C174.955 95.9997 176.724 94.5821 178.492 93.1626C180.352 91.6685 182.213 90.1742 184.073 88.6798L189.674 84.1806L190.372 83.6207C190.523 83.4989 190.684 83.7559 190.533 83.8769Z" fill="white"/>
<path d="M47.8471 32.5441V32.5463L45.9992 34.0908L33.2913 36.9138C32.9002 37.0719 32.5441 37.3056 32.2433 37.6013C31.9425 37.8971 31.7029 38.2492 31.5382 38.6376C31.2055 39.422 31.1981 40.3064 31.5175 41.0962C31.6757 41.4873 31.9093 41.8434 32.2051 42.1442C32.5008 42.445 32.853 42.6846 33.2413 42.8493C34.0257 43.1819 34.9101 43.1894 35.6999 42.87L43.7943 41.5072C44.2427 41.4328 44.6854 41.3276 45.1194 41.1926C45.29 41.1416 45.4585 41.084 45.6247 41.0242C46.3441 37.8894 47.3544 34.8286 48.6426 31.8816L47.8471 32.5441Z" fill="#213147"/>
<path d="M153.396 40.3439L151.634 40.3328L150.693 40.3284L145.297 30.8955C145.342 30.7968 145.382 30.6955 145.415 30.5919C146.015 28.7395 144.431 27.4654 142.922 27.492C142.75 27.4918 142.579 27.5119 142.412 27.5518C145.385 32.9307 147.378 38.7948 148.3 44.8708C148.453 44.9142 148.609 44.9453 148.767 44.9639C149.59 45.0381 150.419 45.0098 151.236 44.8797C152.335 44.7401 153.374 44.5429 153.928 44.585L153.396 40.3439Z" fill="#A0616A"/>
<path d="M159.204 40.5234L152.729 39.6237C152.492 39.591 152.251 39.6446 152.05 39.7748C151.849 39.905 151.702 40.103 151.635 40.3328C151.621 40.3793 151.61 40.4267 151.604 40.4746L151.085 44.2039C151.05 44.4654 151.119 44.7302 151.278 44.9409C151.437 45.1516 151.673 45.2912 151.934 45.3295L158.408 46.2292C159.165 46.3346 159.933 46.1352 160.542 45.6748C161.152 45.2144 161.554 44.5306 161.659 43.774C161.764 43.0174 161.565 42.2498 161.105 41.6402C160.644 41.0306 159.96 40.6289 159.204 40.5234Z" fill="#12AAFF"/>
<path d="M148.769 44.9639C147.873 38.839 145.893 32.9227 142.923 27.4919C138.148 18.7604 131.003 11.5562 122.31 6.70975C113.618 1.86333 103.734 -0.427921 93.7957 0.10016C83.8578 0.628241 74.2715 3.95415 66.142 9.69444C58.0125 15.4347 51.6707 23.3557 47.8479 32.5441V32.5463C46.6886 35.3434 45.7759 38.2365 45.1202 41.1925C44.2796 44.9831 43.8568 48.8544 43.8594 52.7371C43.8594 66.7238 49.4156 80.1377 59.3057 90.0278C69.1958 99.9179 82.6097 105.474 96.5965 105.474C110.583 105.474 123.997 99.9179 133.887 90.0278C143.777 80.1377 149.334 66.7238 149.334 52.7371C149.334 50.1357 149.146 47.5378 148.769 44.9639ZM96.5965 105.031C67.7617 105.031 44.3026 81.5718 44.3026 52.7371C44.2943 45.5601 45.7722 38.4592 48.6434 31.8815C56.7134 13.3947 75.1715 0.44314 96.5965 0.44314C116.306 0.44314 133.504 11.4049 142.413 27.5518C145.386 32.9307 147.379 38.7948 148.301 44.8708C148.694 47.4745 148.891 50.1039 148.89 52.7371C148.89 81.5718 125.431 105.031 96.5965 105.031Z" fill="#3F3D56"/>
<path d="M79.478 47.4191C76.9121 47.4187 74.4259 46.5276 72.444 44.8978C70.4621 43.2681 69.1075 41.001 68.6114 38.4835C68.1153 35.966 68.5085 33.3544 69.7239 31.0946C70.9393 28.8348 72.9015 27.067 75.2754 26.0932C77.6493 25.1193 80.2877 24.9997 82.7399 25.7549C85.1922 26.51 87.3062 28.0931 88.7211 30.2337C90.1359 32.3743 90.7637 34.9396 90.4974 37.4916C90.231 40.0437 89.0869 42.4241 87.2606 44.2264C85.1908 46.2782 82.3924 47.4262 79.478 47.4191ZM79.478 25.7039C77.3742 25.7037 75.3175 26.3274 73.5682 27.4962C71.8189 28.6649 70.4554 30.3261 69.6502 32.2698C68.8451 34.2135 68.6343 36.3522 69.0447 38.4156C69.4551 40.4791 70.4682 42.3744 71.9558 43.8621C73.4435 45.3497 75.3389 46.3628 77.4023 46.7732C79.4657 47.1836 81.6045 46.9729 83.5481 46.1677C85.4918 45.3625 87.153 43.999 88.3217 42.2497C89.4905 40.5004 90.1142 38.4437 90.114 36.3399C90.1108 33.52 88.9892 30.8166 86.9953 28.8226C85.0013 26.8287 82.2979 25.7071 79.478 25.7039Z" fill="#3F3D56"/>
<path d="M113.603 47.4191C111.411 47.4191 109.269 46.7693 107.447 45.5519C105.625 44.3345 104.205 42.6041 103.367 40.5797C102.528 38.5552 102.309 36.3276 102.736 34.1784C103.164 32.0292 104.219 30.0551 105.768 28.5057C107.318 26.9562 109.292 25.901 111.441 25.4735C113.59 25.046 115.818 25.2654 117.843 26.104C119.867 26.9425 121.597 28.3626 122.815 30.1846C124.032 32.0065 124.682 34.1486 124.682 36.3398C124.679 39.2772 123.51 42.0933 121.433 44.1704C119.356 46.2474 116.54 47.4157 113.603 47.4191ZM113.603 25.7038C111.499 25.7038 109.443 26.3276 107.694 27.4963C105.944 28.665 104.581 30.3261 103.776 32.2696C102.971 34.2131 102.761 36.3516 103.171 38.4148C103.581 40.478 104.594 42.3732 106.082 43.8607C107.569 45.3481 109.464 46.3611 111.528 46.7715C113.591 47.1819 115.729 46.9713 117.673 46.1663C119.616 45.3613 121.278 43.998 122.446 42.2489C123.615 40.4998 124.239 38.4435 124.239 36.3398C124.236 33.52 123.114 30.8165 121.12 28.8225C119.126 26.8286 116.423 25.707 113.603 25.7038Z" fill="#3F3D56"/>
<path d="M87.1054 44.0687C85.0731 46.0735 82.3332 47.1975 79.4785 47.1975C76.6238 47.1975 73.8839 46.0735 71.8516 44.0687C72.5309 42.6195 73.609 41.3938 74.9598 40.5351C76.3105 39.6765 77.8779 39.2205 79.4785 39.2205C81.079 39.2205 82.6465 39.6765 83.9972 40.5351C85.3479 41.3938 86.4261 42.6195 87.1054 44.0687Z" fill="#3F3D56"/>
<path d="M121.23 44.0687C119.198 46.0735 116.458 47.1975 113.603 47.1975C110.749 47.1975 108.009 46.0735 105.977 44.0687C106.656 42.6195 107.734 41.3938 109.085 40.5351C110.435 39.6765 112.003 39.2205 113.603 39.2205C115.204 39.2205 116.771 39.6765 118.122 40.5351C119.473 41.3938 120.551 42.6195 121.23 44.0687Z" fill="#3F3D56"/>
<path d="M89.4492 54.5098C89.4492 53.286 93.4175 52.2939 98.3126 52.2939C103.208 52.2939 107.176 53.286 107.176 54.5098C107.176 55.7336 103.208 60.271 98.3126 60.271C93.4175 60.271 89.4492 55.7336 89.4492 54.5098Z" fill="#3F3D56"/>
<path d="M68.7318 54.1774C70.8122 54.1774 72.4987 52.4909 72.4987 50.4105C72.4987 48.3301 70.8122 46.6436 68.7318 46.6436C66.6514 46.6436 64.9648 48.3301 64.9648 50.4105C64.9648 52.4909 66.6514 54.1774 68.7318 54.1774Z" fill="#FF6584"/>
<path d="M124.46 54.2881C126.541 54.2881 128.227 52.6016 128.227 50.5212C128.227 48.4408 126.541 46.7543 124.46 46.7543C122.38 46.7543 120.693 48.4408 120.693 50.5212C120.693 52.6016 122.38 54.2881 124.46 54.2881Z" fill="#FF6584"/>
<path d="M43.8422 102.674L46.5589 102.674L47.8511 92.1956L43.8418 92.1958L43.8422 102.674Z" fill="#FFB8B8"/>
<path d="M51.7988 105.639L43.261 105.64L43.2609 102.341L48.5 102.341C49.3749 102.341 50.2139 102.688 50.8326 103.307C51.4512 103.925 51.7988 104.764 51.7988 105.639Z" fill="#213147"/>
<path d="M30.3266 102.674L33.0432 102.674L34.3355 92.1956L30.3262 92.1958L30.3266 102.674Z" fill="#FFB8B8"/>
<path d="M38.2812 105.639L29.7434 105.64L29.7433 102.341L34.9824 102.341C35.8573 102.341 36.6963 102.688 37.315 103.307C37.9336 103.925 38.2812 104.764 38.2812 105.639Z" fill="#213147"/>
<path d="M44.5854 59.9677L46.9734 78.8878C47.3017 81.4889 47.5313 84.0996 47.6624 86.7199L48.3058 99.587C48.3118 99.707 48.2933 99.8269 48.2516 99.9395C48.2098 100.052 48.1455 100.155 48.0628 100.242C47.98 100.329 47.8804 100.398 47.77 100.446C47.6596 100.493 47.5407 100.518 47.4206 100.518H43.7963C43.5842 100.518 43.3792 100.442 43.2185 100.303C43.0577 100.165 42.9518 99.9739 42.92 99.7643L39.6604 78.2897C39.6447 78.1862 39.5928 78.0916 39.514 78.0227C39.4352 77.9537 39.3345 77.9149 39.2298 77.9131C39.1251 77.9114 39.0231 77.9467 38.942 78.0129C38.8609 78.0792 38.8059 78.172 38.7866 78.2749L34.8598 99.307C34.821 99.496 34.7215 99.6672 34.5764 99.7946C34.4314 99.9219 34.2488 99.9985 34.0563 100.013L30.7206 100.224C30.5967 100.233 30.4723 100.216 30.3555 100.174C30.2387 100.132 30.132 100.066 30.0424 99.9799C29.9527 99.894 29.8822 99.7902 29.8353 99.6752C29.7883 99.5602 29.7661 99.4367 29.77 99.3125L30.8472 64.8425L44.5854 59.9677Z" fill="#213147"/>
<path d="M34.0048 33.0185C37.0106 33.0185 39.4472 30.5819 39.4472 27.5761C39.4472 24.5704 37.0106 22.1338 34.0048 22.1338C30.9991 22.1338 28.5625 24.5704 28.5625 27.5761C28.5625 30.5819 30.9991 33.0185 34.0048 33.0185Z" fill="#FFB8B8"/>
<path d="M29.7381 65.2857C31.0677 68.3878 36.8288 70.6037 38.1584 66.172C39.1865 62.7463 43.2592 61.306 45.0562 60.8296C45.2822 60.7694 45.4754 60.6226 45.594 60.4211C45.7126 60.2196 45.7471 59.9795 45.6901 59.7527L40.6667 40.0206C40.3741 38.8712 39.7914 37.8161 38.9743 36.9563C38.1572 36.0966 37.1331 35.4609 36.0001 35.1103C32.0072 33.8738 27.7971 36.4198 27.1212 40.5435C26.9366 41.6998 26.819 42.8658 26.7689 44.0357C26.3523 52.7418 28.8628 63.2426 29.7381 65.2857Z" fill="#12AAFF"/>
<path d="M59.968 47.5093C59.7 47.3242 59.3947 47.2 59.0735 47.1456C58.7523 47.0913 58.4231 47.108 58.1091 47.1946C57.7951 47.2812 57.5039 47.4356 57.256 47.6469C57.0081 47.8583 56.8095 48.1214 56.6743 48.4178L48.791 47.6745L50.7238 51.3071L57.9137 51.456C58.4266 51.6501 58.9929 51.6493 59.5053 51.4538C60.0177 51.2583 60.4406 50.8816 60.6938 50.3951C60.9471 49.9086 61.0131 49.3462 60.8793 48.8143C60.7455 48.2824 60.4213 47.8181 59.968 47.5093Z" fill="#FFB8B8"/>
<path d="M56.0468 51.5491C55.9531 51.6533 55.8386 51.7366 55.7107 51.7936C55.5827 51.8506 55.4442 51.88 55.3041 51.88L45.0137 51.6448C42.5229 51.6429 40.1175 50.7363 38.2451 49.0936L32.0749 43.6823C31.7045 43.4797 31.3776 43.2059 31.113 42.8768C30.8484 42.5477 30.6513 42.1697 30.533 41.7643C30.4147 41.3589 30.3774 40.9342 30.4234 40.5145C30.4694 40.0947 30.5977 39.6881 30.8009 39.318C31.0042 38.9478 31.2784 38.6214 31.608 38.3574C31.9375 38.0933 32.3159 37.8968 32.7215 37.7792C33.127 37.6615 33.5518 37.625 33.9715 37.6717C34.3912 37.7183 34.7976 37.8473 35.1674 38.0512L45.3864 46.1149L55.3363 48.0324C55.5353 48.0812 55.7145 48.19 55.8496 48.3441C55.9848 48.4981 56.0694 48.6899 56.092 48.8936L56.2963 50.7751C56.3181 50.9769 56.2779 51.1806 56.181 51.3589C56.144 51.4274 56.0989 51.4913 56.0468 51.5491Z" fill="#213147"/>
<path d="M29.8744 32.0277C29.9916 32.0972 30.1232 32.1388 30.2591 32.1492C30.3949 32.1597 30.5314 32.1387 30.6578 32.088C30.7843 32.0373 30.8974 31.9581 30.9883 31.8566C31.0793 31.7552 31.1457 31.6342 31.1823 31.5029L31.1854 31.4905C31.2842 31.0775 31.2021 30.6461 31.1738 30.2224C31.1454 29.7986 31.1869 29.3331 31.4755 29.0216C32.0135 28.4407 32.9707 28.7486 33.7486 28.6018C34.2043 28.5001 34.6073 28.2358 34.8822 27.8584C35.1571 27.481 35.2851 27.0164 35.2421 26.5515C35.2311 26.4634 35.2137 26.3752 35.1942 26.2871C35.1455 26.0638 35.1493 25.8323 35.2052 25.6107C35.2611 25.3891 35.3675 25.1835 35.5163 25.01C35.665 24.8365 35.8519 24.6998 36.0623 24.6107C36.2727 24.5216 36.501 24.4825 36.7291 24.4964C37.5153 24.5414 38.3639 24.7796 39.0144 24.1972C39.2529 23.9676 39.4184 23.6727 39.4904 23.3495C39.5624 23.0264 39.5376 22.6891 39.4191 22.38C39.0477 21.3079 37.9979 20.7466 36.9591 20.4381C35.6743 20.0668 34.323 19.9866 33.0032 20.2031C31.6835 20.4197 30.4287 20.9276 29.3299 21.6899C28.6737 22.1524 28.061 22.7335 27.7813 23.486C27.5016 24.2385 27.6366 25.1879 28.2672 25.6846C27.7784 26.2021 27.4341 26.8391 27.269 27.5316C27.1039 28.2241 27.1236 28.9478 27.3263 29.6302C27.6378 30.6339 29.1243 31.5961 29.8744 32.0277Z" fill="#213147"/>
<path d="M147.161 102.632H144.445L143.152 92.1538L147.162 92.154L147.161 102.632Z" fill="#A0616A"/>
<path d="M142.504 102.299H147.743V105.598H139.205C139.205 105.165 139.29 104.736 139.456 104.335C139.622 103.935 139.865 103.572 140.171 103.265C140.478 102.959 140.841 102.716 141.241 102.55C141.642 102.384 142.071 102.299 142.504 102.299Z" fill="#213147"/>
<path d="M166.439 102.632H163.722L162.43 92.1538L166.439 92.154L166.439 102.632Z" fill="#A0616A"/>
<path d="M161.783 102.299H167.022V105.598H158.484C158.484 105.165 158.57 104.736 158.735 104.335C158.901 103.935 159.144 103.572 159.451 103.265C159.757 102.959 160.121 102.716 160.521 102.55C160.921 102.384 161.35 102.299 161.783 102.299Z" fill="#213147"/>
<path d="M147.207 96.1425C147.178 96.1425 147.148 96.1412 147.118 96.1388L143.274 95.8311C143.121 95.8189 142.973 95.7753 142.838 95.7029C142.703 95.6306 142.585 95.5311 142.49 95.4107C142.396 95.2903 142.327 95.1517 142.289 95.0035C142.251 94.8554 142.244 94.7009 142.268 94.5499L148.098 58.4937L148.488 53.4081C148.505 53.1703 148.599 52.9446 148.756 52.7648C148.912 52.5849 149.123 52.4607 149.356 52.4107L155.219 51.1282C155.435 51.08 155.66 51.0978 155.865 51.1792C156.07 51.2606 156.247 51.402 156.37 51.5848L157.8 53.6745C158.362 54.4868 158.972 55.2644 159.627 56.003C160.642 57.1584 162.366 59.7234 162.521 63.9214C162.563 65.3005 162.706 66.6746 162.949 68.0327L167.67 93.4618C167.694 93.6109 167.687 93.7633 167.65 93.9097C167.613 94.056 167.546 94.1932 167.454 94.3129C167.362 94.4325 167.246 94.532 167.114 94.6053C166.982 94.6786 166.837 94.7242 166.686 94.7392L163.042 95.0153C162.781 95.041 162.519 94.9731 162.304 94.8237C162.089 94.6743 161.934 94.4532 161.867 94.1999L155.402 70.1578C155.389 70.1107 155.361 70.0691 155.322 70.0394C155.284 70.0098 155.236 69.9937 155.187 69.9938C155.139 69.9939 155.091 70.0101 155.053 70.0398C155.014 70.0696 154.986 70.1113 154.974 70.1585L148.277 95.3196C148.214 95.5554 148.075 95.7638 147.882 95.9126C147.688 96.0614 147.451 96.1422 147.207 96.1425Z" fill="#213147"/>
<path d="M157.433 34.7879C160.438 34.7879 162.875 32.3513 162.875 29.3455C162.875 26.3398 160.438 23.9032 157.433 23.9032C154.427 23.9032 151.99 26.3398 151.99 29.3455C151.99 32.3513 154.427 34.7879 157.433 34.7879Z" fill="#A0616A"/>
<path d="M148.206 54.2263L148.094 46.4544C147.679 41.4837 149.881 38.8738 151.8 37.5609C152.295 37.2267 152.853 36.9965 153.44 36.8842C154.027 36.7719 154.63 36.7799 155.214 36.9076L159.497 37.8336C160.093 37.9635 160.657 38.2131 161.154 38.5672C161.651 38.9213 162.072 39.3725 162.389 39.8936C162.693 40.3853 162.893 40.9342 162.976 41.5063C163.059 42.0784 163.023 42.6614 162.871 43.2191C162.573 44.263 161.913 45.1666 161.01 45.7678C157.329 48.3658 157.07 52.7297 157.068 52.7736L157.063 52.8639L148.206 54.2263Z" fill="#12AAFF"/>
<path d="M136.32 49.682C136.098 49.9469 135.822 50.1617 135.511 50.3124C135.2 50.4631 134.861 50.5461 134.516 50.5561C134.17 50.5661 133.827 50.5028 133.508 50.3704C133.189 50.2379 132.901 50.0393 132.664 49.7877C130.518 47.5367 134.027 44.1567 136.181 46.4125C136.257 46.4903 136.328 46.5733 136.392 46.6607L147.256 46.3907L148.553 44.019L152.538 45.5665C151.773 46.7529 150.894 51.4096 148.893 51.1829C148.631 51.1899 136.588 49.7011 136.32 49.682Z" fill="#A0616A"/>
<path d="M150.854 47.8876L147.817 45.6588C147.604 45.5022 147.462 45.2675 147.422 45.0062C147.382 44.7449 147.447 44.4783 147.603 44.265L151.47 38.9951C151.694 38.69 151.976 38.432 152.299 38.2358C152.623 38.0396 152.982 37.9091 153.356 37.8516C153.73 37.7942 154.111 37.811 154.479 37.901C154.846 37.9911 155.192 38.1527 155.497 38.3765C155.803 38.6004 156.06 38.8821 156.257 39.2057C156.453 39.5292 156.583 39.8882 156.64 40.2622C156.698 40.6362 156.681 41.0178 156.591 41.3852C156.501 41.7527 156.339 42.0988 156.115 42.4037L152.248 47.6736C152.091 47.8866 151.856 48.0287 151.595 48.0688C151.334 48.1089 151.067 48.0437 150.854 47.8876Z" fill="#12AAFF"/>
<path d="M156.109 27.9853C155.34 28.2288 154.541 28.3664 153.735 28.3942C152.929 28.3851 152.092 28.129 151.547 27.5347C150.774 26.6905 150.785 25.3151 151.383 24.3393C151.981 23.3634 153.055 22.7555 154.165 22.4772C155.275 22.1988 156.435 22.2119 157.58 22.2273C158.939 21.2364 160.92 21.3872 162.315 22.3274C163.71 23.2677 164.562 24.8615 164.924 26.5041C165.285 28.1467 165.206 29.8521 165.069 31.5284C164.994 32.4471 165.071 33.6398 165.949 33.9214C166.502 34.0991 167.101 33.773 167.498 33.3479C167.895 32.9227 168.172 32.3944 168.587 31.9867C169.471 31.1179 170.89 30.9417 172.058 31.3568C173.226 31.7719 174.157 32.6963 174.814 33.7475C175.71 35.1816 176.148 36.8547 176.069 38.5439C175.99 40.2331 175.398 41.8582 174.372 43.2024C173.346 44.5466 171.935 45.5461 170.326 46.0677C168.717 46.5893 166.988 46.6082 165.369 46.1219C162.372 45.2221 160.109 42.693 158.653 39.9234C156.787 36.3541 156.015 32.3135 156.433 28.3074L156.109 27.9853Z" fill="#213147"/>
<path d="M192.778 105.696H0.221584C0.162817 105.696 0.106456 105.672 0.0649004 105.631C0.0233453 105.589 0 105.533 0 105.474C0 105.415 0.0233453 105.359 0.0649004 105.317C0.106456 105.276 0.162817 105.253 0.221584 105.253H192.778C192.837 105.253 192.894 105.276 192.935 105.317C192.977 105.359 193 105.415 193 105.474C193 105.533 192.977 105.589 192.935 105.631C192.894 105.672 192.837 105.696 192.778 105.696Z" fill="#3F3D56"/>
</g>
<defs>
<clipPath id="clip0_3266_72287">
<rect width="193" height="105.696" fill="white"/>
</clipPath>
</defs>
</svg>
