<svg width="1173" height="516" viewBox="0 0 1173 516" fill="none" xmlns="http://www.w3.org/2000/svg">
<path fill-rule="evenodd" clip-rule="evenodd" d="M926.547 530.007C926.661 529.918 926.781 529.832 926.907 529.748C929.109 528.269 932.354 527.91 935.059 528.675L982.401 496.878C981.389 495.293 981.667 493.426 983.237 491.993L929.421 456.116C926.52 457.549 922.415 457.391 919.786 455.638C919.662 455.556 919.543 455.471 919.43 455.384L872.818 486.691C872.949 486.766 873.076 486.846 873.201 486.929C876.102 488.863 876.107 492.007 873.213 493.95C873.087 494.035 872.958 494.116 872.826 494.193L926.547 530.007ZM926.172 530.322L872.357 494.445C869.456 495.879 865.349 495.722 862.72 493.968C862.595 493.886 862.476 493.8 862.362 493.713L809.931 528.928C810.062 529.004 810.19 529.084 810.314 529.167C813.215 531.101 813.221 534.244 810.326 536.188C810.201 536.273 810.072 536.354 809.939 536.431L863.657 572.243C863.774 572.152 863.896 572.064 864.024 571.978C866.227 570.499 869.475 570.141 872.18 570.907L925.334 535.206C924.323 533.621 924.602 531.755 926.172 530.322ZM925.607 535.589L872.752 571.089C873.387 571.313 873.982 571.604 874.517 571.96C877.418 573.894 877.424 577.038 874.529 578.982C874.402 579.068 874.27 579.15 874.136 579.228L957.034 634.494L956.612 634.777L873.666 579.48C870.766 580.91 866.664 580.752 864.036 579C863.501 578.643 863.065 578.246 862.727 577.822L809.857 613.332C810.493 613.557 811.09 613.848 811.627 614.205C814.528 616.139 814.533 619.283 811.639 621.227C811.513 621.311 811.383 621.392 811.251 621.47L894.144 676.731L893.722 677.015L810.782 621.722C807.881 623.155 803.775 622.998 801.145 621.245C800.609 620.887 800.172 620.489 799.834 620.064L714.591 677.316L714.169 677.034L799.56 619.681C798.55 618.097 798.828 616.231 800.397 614.798L746.581 578.921C743.68 580.354 739.575 580.196 736.946 578.444C736.822 578.361 736.702 578.275 736.588 578.188L651.56 635.297L651.137 635.015L736.212 577.875C734.291 576.136 734.285 573.745 736.197 571.998L683.544 536.896C680.643 538.328 676.539 538.17 673.911 536.418C673.788 536.336 673.67 536.252 673.558 536.165L588.525 593.277L588.102 592.995L673.181 535.853C671.256 534.114 671.248 531.722 673.16 529.974L626.354 498.77C623.453 500.202 619.348 500.044 616.72 498.291C616.594 498.208 616.475 498.122 616.36 498.034L531.33 555.144L530.907 554.862L615.984 497.721C614.064 495.982 614.059 493.593 615.969 491.847L563.316 456.744C560.415 458.175 556.313 458.017 553.684 456.265C553.562 456.183 553.444 456.099 553.332 456.013L468.299 513.125L467.876 512.843L552.955 455.7C551.03 453.962 551.022 451.57 552.932 449.822L500.292 414.729C497.391 416.163 493.284 416.006 490.653 414.253C490.526 414.168 490.405 414.081 490.289 413.992L405.263 471.099L404.84 470.817L489.913 413.678C487.997 411.939 487.994 409.55 489.907 407.805L437.254 372.703C434.353 374.137 430.248 373.979 427.618 372.226C427.495 372.145 427.378 372.06 427.265 371.974L342.232 429.086L341.809 428.804L426.888 371.662C424.962 369.922 424.955 367.528 426.87 365.78L374.224 330.683C371.323 332.117 367.217 331.96 364.587 330.207C364.462 330.124 364.342 330.038 364.227 329.95L279.197 387.06L278.774 386.778L363.851 329.637C361.931 327.897 361.926 325.506 363.839 323.76L311.188 288.659C308.288 290.091 304.184 289.933 301.556 288.181C301.43 288.097 301.31 288.011 301.196 287.924L216.166 345.033L215.743 344.751L300.82 287.61C298.901 285.872 298.895 283.483 300.804 281.737L248.156 246.638C245.256 248.072 241.15 247.914 238.52 246.161C238.396 246.078 238.276 245.993 238.162 245.906L153.134 303.014L152.712 302.732L237.786 245.592C235.864 243.853 235.859 241.462 237.772 239.715L185.127 204.618C182.226 206.052 178.119 205.895 175.489 204.142C175.365 204.059 175.245 203.974 175.131 203.886L90.1032 260.995L89.6803 260.713L174.755 203.573C172.833 201.834 172.828 199.442 174.742 197.695L89.4703 140.847L89.8923 140.564L175.116 197.38C175.231 197.291 175.351 197.205 175.477 197.12C178.102 195.357 182.211 195.187 185.117 196.613L237.646 161.333C235.721 159.594 235.713 157.201 237.625 155.453L152.361 98.6098L152.783 98.3264L238 155.138C238.116 155.048 238.237 154.961 238.364 154.876C240.991 153.111 245.104 152.942 248.011 154.371L300.533 119.095C298.607 117.356 298.599 114.963 300.512 113.215L215.248 56.3722L215.67 56.0888L300.887 112.9C301.002 112.811 301.124 112.723 301.25 112.638C303.878 110.873 307.991 110.704 310.897 112.134L357.596 80.769C355.673 79.0295 355.667 76.6369 357.581 74.8896L272.31 18.0422L272.732 17.7588L357.956 74.5748C358.071 74.486 358.191 74.3993 358.317 74.3149C360.943 72.5512 365.053 72.381 367.96 73.8088L420.488 38.5286C418.561 36.7896 418.552 34.396 420.465 32.6475L335.201 -24.1953L335.623 -24.4787L420.84 32.3326C420.955 32.243 421.077 32.1555 421.204 32.0703C423.831 30.3054 427.946 30.1362 430.852 31.5672L483.37 -3.7057C481.443 -5.44769 481.44 -7.84473 483.362 -9.59277L398.091 -66.44L398.513 -66.7234L483.738 -9.90697C483.85 -9.99341 483.967 -10.0779 484.09 -10.1602C486.716 -11.924 490.827 -12.0941 493.733 -10.6661L546.257 -45.9433C544.332 -47.684 544.327 -50.0786 546.245 -51.8264L460.978 -108.671L461.4 -108.954L546.62 -52.1409C546.734 -52.2286 546.853 -52.3144 546.977 -52.398C549.603 -54.1618 553.714 -54.3319 556.62 -52.9037L609.151 -88.1853C607.225 -89.9243 607.217 -92.3172 609.129 -94.0654L523.865 -150.908L524.287 -151.192L609.504 -94.3803C609.62 -94.4699 609.741 -94.5574 609.868 -94.6426C612.495 -96.4072 616.608 -96.5767 619.515 -95.1464L672.04 -130.424C670.116 -132.163 670.108 -134.554 672.018 -136.302L586.752 -193.146L587.173 -193.429L672.393 -136.617C672.509 -136.707 672.631 -136.795 672.758 -136.88C675.385 -138.644 679.497 -138.814 682.404 -137.385L734.922 -172.659C732.999 -174.4 732.996 -176.795 734.915 -178.542L649.642 -235.391L650.064 -235.674L735.291 -178.856C735.404 -178.943 735.522 -179.028 735.645 -179.111C738.27 -180.874 742.378 -181.044 745.284 -179.618L797.814 -214.899C795.887 -216.639 795.881 -219.034 797.798 -220.782L712.529 -277.628L712.951 -277.912L798.173 -221.097C798.287 -221.185 798.407 -221.271 798.532 -221.355C801.159 -223.12 805.271 -223.289 808.177 -221.86L892.084 -278.215L892.507 -277.933L808.647 -221.609C808.776 -221.534 808.902 -221.455 809.025 -221.373C811.926 -219.439 811.932 -216.296 809.037 -214.352C808.912 -214.268 808.784 -214.187 808.652 -214.111L861.208 -179.074C861.321 -179.161 861.439 -179.246 861.563 -179.329C864.188 -181.092 868.297 -181.263 871.203 -179.836L955.116 -236.196L955.539 -235.914L871.672 -179.586C871.803 -179.51 871.931 -179.43 872.056 -179.347C874.957 -177.413 874.963 -174.269 872.068 -172.325C871.945 -172.242 871.818 -172.163 871.688 -172.087L924.24 -137.052C924.354 -137.14 924.473 -137.226 924.598 -137.31C927.222 -139.072 931.33 -139.243 934.235 -137.818L1018.15 -194.177L1018.57 -193.895L934.705 -137.568C934.837 -137.491 934.966 -137.411 935.092 -137.328C937.993 -135.394 937.998 -132.25 935.104 -130.306C934.979 -130.222 934.851 -130.142 934.72 -130.066L987.271 -95.0318C987.385 -95.1201 987.504 -95.2063 987.629 -95.2903C990.256 -97.0542 994.367 -97.2242 997.273 -95.796L1081.18 -152.15L1081.6 -151.868L997.742 -95.5452C997.872 -95.4698 997.999 -95.3908 998.123 -95.3084C1001.02 -93.3744 1001.03 -90.2307 998.135 -88.2867C998.01 -88.2027 997.881 -88.1223 997.75 -88.0456L1050.31 -53.0084C1050.42 -53.0957 1050.54 -53.1809 1050.66 -53.2639C1053.29 -55.0282 1057.4 -55.198 1060.31 -53.7685L1144.21 -110.124L1144.64 -109.842L1060.78 -53.5176C1060.9 -53.4426 1061.03 -53.364 1061.15 -53.282C1064.06 -51.348 1064.06 -48.2043 1061.17 -46.2603C1061.04 -46.1773 1060.92 -46.0978 1060.79 -46.0218L1113.34 -10.987C1113.45 -11.0749 1113.57 -11.1608 1113.7 -11.2445C1116.32 -13.0071 1120.43 -13.1781 1123.33 -11.753L1207.24 -68.1115L1207.67 -67.8296L1123.8 -11.5025C1123.93 -11.4261 1124.06 -11.3461 1124.19 -11.2625C1127.09 -9.32848 1127.1 -6.18477 1124.2 -4.24081C1124.08 -4.15714 1123.95 -4.07704 1123.82 -4.00054L1176.37 31.0365C1176.49 30.9496 1176.6 30.8647 1176.73 30.7819C1179.35 29.0189 1183.46 28.8482 1186.37 30.2744L1270.28 -26.0852L1270.7 -25.8032L1186.84 30.5251C1186.97 30.6011 1187.1 30.6807 1187.22 30.7639C1190.12 32.6979 1190.13 35.8416 1187.23 37.7856C1187.11 37.8683 1186.98 37.9475 1186.85 38.0232L1239.4 73.0549C1239.52 72.9659 1239.64 72.879 1239.76 72.7944C1242.39 71.0306 1246.5 70.8605 1249.41 72.2886L1333.31 15.9342L1333.73 16.2162L1249.87 72.5394C1250 72.6149 1250.13 72.6939 1250.26 72.7764C1253.16 74.7104 1253.16 77.8541 1250.27 79.798C1250.14 79.8827 1250.01 79.9637 1249.88 80.041L1296.6 111.186C1296.71 111.098 1296.83 111.011 1296.96 110.927C1299.58 109.163 1303.69 108.993 1306.6 110.421L1390.51 54.067L1390.93 54.349L1307.07 110.672C1307.2 110.748 1307.33 110.827 1307.45 110.909C1310.35 112.843 1310.36 115.987 1307.46 117.931C1307.34 118.015 1307.21 118.096 1307.08 118.173L1359.63 153.21C1359.75 153.122 1359.86 153.037 1359.99 152.954C1362.61 151.191 1366.72 151.02 1369.63 152.446L1453.54 96.0865L1453.96 96.3684L1370.1 152.697C1370.23 152.773 1370.36 152.852 1370.48 152.936C1373.38 154.87 1373.39 158.013 1370.49 159.957C1370.37 160.04 1370.24 160.12 1370.11 160.196L1423.83 196.011C1423.95 195.923 1424.07 195.838 1424.19 195.754C1426.39 194.276 1429.64 193.917 1432.34 194.68L1516.57 138.106L1517 138.388L1432.91 194.862C1433.55 195.087 1434.15 195.378 1434.69 195.736C1437.59 197.67 1437.59 200.814 1434.7 202.758C1434.57 202.841 1434.45 202.921 1434.31 202.998L1517.2 258.256L1516.78 258.539L1433.85 203.25C1430.94 204.687 1426.84 204.53 1424.2 202.776C1423.67 202.418 1423.23 202.018 1422.89 201.593L1370.03 237.096C1370.66 237.32 1371.26 237.611 1371.79 237.967C1374.7 239.901 1374.7 243.045 1371.81 244.989C1371.68 245.073 1371.55 245.153 1371.42 245.23L1454.32 300.494L1453.89 300.777L1370.95 245.483C1368.05 246.917 1363.94 246.76 1361.31 245.007C1360.78 244.65 1360.34 244.253 1360 243.829L1307.14 279.332C1307.78 279.557 1308.38 279.848 1308.91 280.205C1311.81 282.139 1311.82 285.282 1308.92 287.226C1308.8 287.313 1308.66 287.395 1308.53 287.474L1391.42 342.738L1391 343.022L1308.06 287.725C1305.16 289.154 1301.06 288.996 1298.43 287.244C1297.89 286.887 1297.46 286.489 1297.12 286.065L1244.25 321.575C1244.89 321.8 1245.48 322.091 1246.02 322.449C1248.92 324.383 1248.93 327.527 1246.03 329.471C1245.91 329.556 1245.78 329.637 1245.65 329.714L1328.54 384.976L1328.12 385.259L1245.18 329.966C1242.28 331.399 1238.17 331.242 1235.54 329.489C1235 329.131 1234.57 328.732 1234.23 328.307L1181.36 363.814C1182 364.039 1182.59 364.33 1183.13 364.687C1186.03 366.621 1186.04 369.765 1183.14 371.709C1183.02 371.793 1182.89 371.873 1182.76 371.95L1265.65 427.213L1265.23 427.497L1182.29 372.202C1179.39 373.637 1175.28 373.48 1172.65 371.727C1172.11 371.369 1171.68 370.971 1171.34 370.546L1118.47 406.052C1119.11 406.277 1119.7 406.568 1120.24 406.925C1123.14 408.859 1123.15 412.002 1120.25 413.946C1120.13 414.029 1120 414.108 1119.87 414.184L1202.76 469.444L1202.34 469.728L1119.41 414.436C1116.5 415.875 1112.39 415.719 1109.76 413.964C1109.22 413.607 1108.79 413.209 1108.45 412.785L1055.59 448.289C1056.22 448.514 1056.82 448.805 1057.36 449.162C1060.26 451.096 1060.26 454.24 1057.37 456.184C1057.24 456.269 1057.11 456.35 1056.98 456.427L1139.87 511.689L1139.45 511.972L1056.51 456.679C1053.61 458.112 1049.51 457.955 1046.88 456.202C1046.34 455.844 1045.9 455.446 1045.56 455.021L992.699 490.527C993.334 490.752 993.931 491.043 994.467 491.4C997.368 493.334 997.373 496.477 994.479 498.421C994.353 498.506 994.223 498.587 994.09 498.664L1076.98 553.926L1076.56 554.21L993.621 498.916C990.721 500.35 986.615 500.192 983.985 498.439C983.45 498.082 983.013 497.684 982.675 497.26L935.631 528.857C936.267 529.081 936.864 529.372 937.4 529.73C940.301 531.664 940.307 534.807 937.412 536.751C937.287 536.836 937.158 536.916 937.026 536.993L1019.92 592.256L1019.5 592.54L936.557 537.245C933.656 538.68 929.549 538.523 926.919 536.769C926.383 536.412 925.946 536.013 925.607 535.589ZM992.127 490.346L1045.29 454.638C1044.28 453.054 1044.56 451.188 1046.13 449.756L992.311 413.878C989.411 415.311 985.306 415.153 982.677 413.401C982.552 413.318 982.433 413.232 982.319 413.145L929.886 448.361C930.016 448.437 930.143 448.516 930.267 448.599C933.168 450.533 933.174 453.676 930.279 455.62C930.153 455.705 930.023 455.787 929.89 455.864L983.612 491.678C983.727 491.589 983.847 491.502 983.973 491.418C986.175 489.939 989.422 489.58 992.127 490.346ZM929.417 448.111L981.943 412.832C980.021 411.093 980.015 408.702 981.927 406.955L929.274 371.853C926.373 373.285 922.27 373.127 919.641 371.374C919.519 371.293 919.401 371.208 919.289 371.123L866.852 406.341C866.983 406.417 867.111 406.496 867.236 406.58C870.137 408.514 870.142 411.657 867.248 413.601C867.122 413.686 866.993 413.767 866.86 413.844L919.411 448.878C919.527 448.789 919.647 448.702 919.774 448.617C922.4 446.853 926.51 446.683 929.417 448.111ZM919.036 449.193L866.391 414.096C863.49 415.53 859.384 415.372 856.755 413.619C856.63 413.536 856.511 413.451 856.397 413.363L809.784 444.67C809.916 444.746 810.045 444.826 810.17 444.91C813.071 446.844 813.076 449.987 810.182 451.931C810.056 452.015 809.928 452.096 809.796 452.173L862.347 487.207C862.461 487.118 862.582 487.031 862.708 486.947C865.333 485.184 869.442 485.013 872.349 486.44L919.053 455.071C917.131 453.332 917.124 450.94 919.036 449.193ZM861.972 487.522L809.327 452.425C806.426 453.86 802.319 453.703 799.688 451.949C799.563 451.866 799.443 451.78 799.329 451.692L746.898 486.908C747.029 486.984 747.158 487.064 747.283 487.147C750.184 489.081 750.189 492.225 747.295 494.169C747.17 494.253 747.041 494.334 746.909 494.41L799.46 529.445C799.575 529.356 799.695 529.269 799.821 529.185C802.446 527.421 806.555 527.251 809.461 528.678L861.986 493.4C860.064 491.66 860.058 489.269 861.972 487.522ZM799.085 529.759L746.44 494.663C743.539 496.097 739.432 495.94 736.802 494.187C736.676 494.103 736.557 494.018 736.442 493.93L684.014 529.143C684.143 529.217 684.269 529.296 684.392 529.378C687.293 531.312 687.299 534.456 684.404 536.399C684.277 536.485 684.147 536.567 684.013 536.644L736.571 571.683C736.687 571.594 736.808 571.507 736.934 571.422C739.559 569.659 743.669 569.488 746.575 570.915L799.099 535.637C797.177 533.898 797.172 531.506 799.085 529.759ZM799.475 535.951L747.044 571.166C747.175 571.242 747.303 571.321 747.428 571.404C750.329 573.338 750.334 576.482 747.44 578.426C747.313 578.511 747.183 578.592 747.05 578.669L800.772 614.484C800.887 614.395 801.007 614.308 801.133 614.223C803.335 612.745 806.58 612.386 809.284 613.15L862.453 577.44C861.441 575.856 861.717 573.991 863.283 572.558L809.47 536.683C806.569 538.117 802.463 537.96 799.833 536.206C799.708 536.123 799.589 536.038 799.475 535.951ZM683.545 528.892L736.066 493.616C734.145 491.877 734.141 489.485 736.055 487.739L689.242 456.531C686.342 457.964 682.236 457.807 679.606 456.054C679.481 455.97 679.361 455.885 679.247 455.797L626.815 491.012C626.947 491.088 627.076 491.168 627.201 491.252C630.102 493.186 630.107 496.329 627.213 498.273C627.086 498.359 626.956 498.44 626.823 498.518L673.534 529.659C673.65 529.569 673.772 529.481 673.899 529.396C676.526 527.631 680.639 527.462 683.545 528.892ZM626.346 490.762L678.871 455.484C676.951 453.745 676.945 451.354 678.858 449.608L626.212 414.511C623.311 415.945 619.205 415.788 616.575 414.034C616.45 413.951 616.33 413.865 616.216 413.778L563.788 448.99C563.917 449.065 564.043 449.144 564.166 449.225C567.067 451.159 567.072 454.303 564.178 456.247C564.05 456.333 563.919 456.415 563.785 456.493L616.344 491.532C616.46 491.442 616.581 491.355 616.708 491.27C619.332 489.507 623.44 489.336 626.346 490.762ZM563.319 448.739L615.84 413.464C613.919 411.725 613.914 409.334 615.827 407.587L563.175 372.486C560.274 373.919 556.169 373.761 553.54 372.008C553.414 371.925 553.295 371.839 553.18 371.751L500.743 406.97C500.877 407.048 501.007 407.128 501.135 407.213C504.036 409.147 504.041 412.291 501.147 414.235C501.021 414.319 500.893 414.4 500.761 414.476L553.307 449.507C553.423 449.417 553.545 449.329 553.672 449.243C556.299 447.479 560.412 447.309 563.319 448.739ZM500.273 406.72L552.804 371.438C550.884 369.699 550.879 367.309 552.79 365.563L500.145 330.466C497.244 331.899 493.138 331.742 490.509 329.989C490.385 329.906 490.267 329.822 490.154 329.735L437.722 364.952C437.851 365.026 437.977 365.105 438.099 365.187C441 367.121 441.006 370.264 438.111 372.208C437.985 372.293 437.856 372.374 437.723 372.451L490.282 407.49C490.396 407.402 490.516 407.315 490.641 407.231C493.264 405.47 497.368 405.298 500.273 406.72ZM437.253 364.701L489.778 329.423C487.853 327.683 487.846 325.29 489.76 323.543L437.107 288.441C434.206 289.873 430.102 289.715 427.474 287.963C427.35 287.88 427.232 287.796 427.119 287.709L374.683 322.928C374.814 323.004 374.943 323.084 375.068 323.167C377.969 325.101 377.975 328.245 375.08 330.189C374.954 330.273 374.825 330.354 374.693 330.431L427.244 365.465C427.359 365.376 427.48 365.289 427.606 365.205C430.233 363.44 434.346 363.271 437.253 364.701ZM374.213 322.677L426.742 287.396C424.818 285.657 424.811 283.265 426.723 281.518L374.077 246.421C371.176 247.853 367.071 247.696 364.442 245.943C364.317 245.86 364.197 245.774 364.083 245.686L311.651 280.901C311.783 280.978 311.912 281.058 312.037 281.141C314.938 283.075 314.943 286.219 312.049 288.163C311.922 288.248 311.791 288.33 311.658 288.408L364.214 323.445C364.329 323.356 364.449 323.27 364.575 323.185C367.199 321.423 371.307 321.252 374.213 322.677ZM311.181 280.651L363.706 245.373C361.786 243.634 361.781 241.244 363.693 239.498L311.041 204.397C308.14 205.827 304.038 205.668 301.411 203.917C301.287 203.834 301.169 203.75 301.056 203.664L248.618 238.883C248.749 238.959 248.877 239.039 249.001 239.122C251.902 241.056 251.908 244.199 249.013 246.143C248.887 246.228 248.758 246.309 248.625 246.386L301.179 281.422C301.295 281.332 301.416 281.244 301.543 281.159C304.168 279.396 308.276 279.225 311.181 280.651ZM248.149 238.633L300.68 203.351C298.756 201.612 298.748 199.222 300.658 197.474L248.009 162.375C245.109 163.808 241.005 163.65 238.376 161.897C238.253 161.815 238.136 161.731 238.023 161.645L185.587 196.864C185.718 196.94 185.846 197.019 185.97 197.102C188.871 199.036 188.877 202.18 185.983 204.124C185.857 204.208 185.728 204.289 185.596 204.366L238.146 239.4C238.261 239.311 238.382 239.224 238.508 239.14C241.133 237.376 245.243 237.206 248.149 238.633ZM248.479 162.124L301.032 197.159C301.149 197.069 301.271 196.981 301.399 196.895C304.025 195.131 308.137 194.961 311.043 196.39L363.56 161.117C361.637 159.378 361.632 156.985 363.547 155.238L310.896 120.138C307.995 121.57 303.891 121.412 301.262 119.66C301.14 119.578 301.022 119.494 300.91 119.408L248.48 154.622C248.608 154.697 248.734 154.776 248.857 154.858C251.758 156.792 251.764 159.935 248.869 161.879C248.742 161.964 248.612 162.046 248.479 162.124ZM311.366 112.385C311.495 112.46 311.621 112.538 311.744 112.62C314.645 114.554 314.65 117.698 311.756 119.642C311.629 119.727 311.499 119.808 311.365 119.886L363.922 154.924C364.036 154.835 364.156 154.749 364.282 154.664C366.907 152.901 371.017 152.731 373.923 154.157L420.628 122.789C418.704 121.049 418.698 118.657 420.612 116.91L367.966 81.813C365.065 83.247 360.959 83.0897 358.329 81.3365C358.205 81.2539 358.086 81.169 357.973 81.0821L311.366 112.385ZM368.435 81.5609L420.986 116.595C421.102 116.506 421.222 116.419 421.348 116.334C423.974 114.571 428.084 114.401 430.991 115.828L483.515 80.551C481.591 78.8112 481.585 76.4181 483.5 74.6707L430.849 39.5702C427.948 41.0023 423.844 40.8444 421.216 39.0919C421.094 39.0105 420.977 38.9269 420.865 38.8414L368.429 74.0595C368.559 74.1351 368.686 74.2142 368.81 74.2968C371.711 76.2308 371.717 79.3745 368.822 81.3185C368.697 81.403 368.568 81.4838 368.435 81.5609ZM431.318 39.3184L483.875 74.356C483.989 74.2674 484.109 74.1809 484.235 74.0966C486.861 72.3329 490.972 72.1627 493.878 73.5906L546.401 38.3137C544.475 36.572 544.471 34.1754 546.393 32.4275L493.75 -2.66748C490.849 -1.2277 486.735 -1.38319 484.102 -3.13856C483.978 -3.22111 483.86 -3.30586 483.746 -3.39263L431.321 31.8183C431.45 31.8928 431.575 31.9708 431.697 32.0522C434.598 33.9862 434.603 37.1299 431.709 39.0739C431.582 39.1591 431.452 39.2406 431.318 39.3184ZM494.218 -2.92003L546.768 32.1132C546.881 32.0265 546.998 31.9417 547.121 31.8591C549.747 30.0954 553.858 29.9252 556.764 31.3533L609.29 -3.92529C607.368 -5.66506 607.362 -8.05762 609.277 -9.80469L556.631 -44.9022C553.73 -43.4657 549.62 -43.6222 546.989 -45.3763C546.865 -45.4588 546.747 -45.5435 546.634 -45.6303L494.202 -10.4153C494.333 -10.3398 494.46 -10.2608 494.583 -10.1783C497.484 -8.24427 497.49 -5.10054 494.596 -3.15658C494.473 -3.07426 494.347 -2.9954 494.218 -2.92003ZM557.1 -45.1544L609.652 -10.1193C609.767 -10.2078 609.887 -10.2943 610.012 -10.3785C612.637 -12.1418 616.747 -12.3123 619.653 -10.8853L672.18 -46.1644C670.259 -47.9035 670.254 -50.2943 672.166 -52.0407L619.513 -87.1427C616.613 -85.7106 612.508 -85.8685 609.88 -87.6209C609.757 -87.7027 609.64 -87.7866 609.527 -87.8724L557.09 -52.653C557.22 -52.5775 557.347 -52.4985 557.47 -52.416C560.371 -50.482 560.377 -47.3383 557.483 -45.3944C557.358 -45.3108 557.23 -45.2308 557.1 -45.1544ZM619.982 -87.3945L672.541 -52.3555C672.656 -52.4446 672.777 -52.5316 672.903 -52.6163C675.528 -54.3792 679.636 -54.55 682.542 -53.1241L735.067 -88.4018C733.146 -90.141 733.141 -92.5318 735.053 -94.2783L682.402 -129.379C679.501 -127.948 675.398 -128.106 672.77 -129.858C672.647 -129.941 672.529 -130.025 672.416 -130.111L619.984 -94.8954C620.113 -94.8206 620.238 -94.7424 620.361 -94.6607C623.262 -92.7267 623.267 -89.5829 620.373 -87.639C620.246 -87.5538 620.116 -87.4723 619.982 -87.3945ZM682.871 -129.631L735.428 -94.5931C735.543 -94.6821 735.663 -94.7691 735.79 -94.8537C738.414 -96.6167 742.523 -96.7875 745.429 -95.3615L797.953 -130.639C796.03 -132.38 796.027 -134.775 797.946 -136.522L745.303 -171.617C742.401 -170.178 738.289 -170.334 735.657 -172.089C735.532 -172.172 735.412 -172.258 735.298 -172.345L682.873 -137.134C683.002 -137.059 683.129 -136.98 683.252 -136.898C686.153 -134.964 686.158 -131.82 683.264 -129.877C683.136 -129.791 683.005 -129.709 682.871 -129.631ZM745.771 -171.869L798.321 -136.836C798.434 -136.923 798.552 -137.008 798.676 -137.091C801.301 -138.854 805.409 -139.025 808.316 -137.599L860.84 -172.877C858.917 -174.618 858.914 -177.012 860.833 -178.759L808.184 -213.859C805.282 -212.423 801.174 -212.58 798.544 -214.334C798.421 -214.416 798.303 -214.5 798.19 -214.586L745.754 -179.368C745.885 -179.292 746.013 -179.212 746.138 -179.129C749.039 -177.195 749.045 -174.051 746.15 -172.107C746.027 -172.024 745.901 -171.945 745.771 -171.869ZM861.217 -172.563L808.785 -137.348C808.916 -137.272 809.045 -137.193 809.169 -137.109C812.07 -135.175 812.076 -132.032 809.181 -130.088C809.058 -130.005 808.931 -129.925 808.801 -129.849L861.354 -94.8143C861.467 -94.9023 861.587 -94.9883 861.711 -95.0721C864.336 -96.8346 868.443 -97.0057 871.349 -95.5808L923.874 -130.859C921.953 -132.599 921.95 -134.991 923.865 -136.737L871.22 -171.834C868.318 -170.397 864.207 -170.553 861.575 -172.307C861.45 -172.391 861.331 -172.476 861.217 -172.563ZM924.25 -130.546L871.818 -95.3303C871.95 -95.2539 872.079 -95.1738 872.205 -95.0901C875.106 -93.1561 875.111 -90.0124 872.217 -88.0684C872.092 -87.9847 871.964 -87.9045 871.833 -87.828L924.384 -52.7942C924.498 -52.8825 924.618 -52.9688 924.743 -53.0528C927.369 -54.8166 931.48 -54.9867 934.386 -53.5585L986.91 -88.8355C984.985 -90.5757 984.979 -92.9696 986.895 -94.7172L934.251 -129.813C931.35 -128.377 927.241 -128.534 924.61 -130.288C924.485 -130.372 924.365 -130.458 924.25 -130.546ZM987.286 -88.5225L934.855 -53.3077C934.985 -53.2323 935.112 -53.1533 935.236 -53.0708C938.137 -51.1368 938.142 -47.9931 935.248 -46.0491C935.123 -45.9651 934.995 -45.8847 934.863 -45.808L987.419 -10.7708C987.532 -10.858 987.65 -10.9432 987.774 -11.0262C990.4 -12.7904 994.513 -12.9602 997.419 -11.5308L1049.94 -46.8077C1048.01 -48.549 1048.01 -50.9456 1049.93 -52.6941L997.281 -87.7934C994.38 -86.3581 990.272 -86.515 987.641 -88.2687C987.518 -88.3511 987.399 -88.4358 987.286 -88.5225ZM1050.32 -46.4947L997.888 -11.2799C998.018 -11.2048 998.144 -11.1263 998.267 -11.0442C1001.17 -9.11023 1001.17 -5.96652 998.279 -4.02256C998.155 -3.93957 998.029 -3.86011 997.899 -3.78417L1050.45 31.2493C1050.56 31.1618 1050.68 31.0764 1050.8 30.9931C1053.43 29.2301 1057.54 29.0593 1060.44 30.4855L1112.97 -4.79365C1111.05 -6.53381 1111.05 -8.926 1112.96 -10.6724L1060.32 -45.7694C1057.42 -44.3316 1053.3 -44.4876 1050.67 -46.2423C1050.55 -46.3243 1050.43 -46.4085 1050.32 -46.4947ZM1113.35 -4.48032L1060.91 30.7361C1061.05 30.8122 1061.17 30.8918 1061.3 30.9751C1064.2 32.9091 1064.2 36.0528 1061.31 37.9967C1061.19 38.08 1061.06 38.1597 1060.93 38.2359L1113.48 73.2709C1113.6 73.1826 1113.72 73.0964 1113.84 73.0125C1116.47 71.2482 1120.58 71.0785 1123.49 72.5078L1176 37.2342C1174.08 35.4929 1174.08 33.098 1176 31.3508L1123.35 -3.74833C1120.45 -2.31217 1116.34 -2.46881 1113.71 -4.22279C1113.58 -4.30644 1113.46 -4.39235 1113.35 -4.48032ZM1176.38 37.5475L1123.95 72.7588C1124.08 72.8338 1124.21 72.9124 1124.33 72.9944C1127.23 74.9284 1127.24 78.0722 1124.35 80.0161C1124.22 80.1001 1124.09 80.1804 1123.96 80.2572L1176.52 115.294C1176.63 115.207 1176.75 115.122 1176.87 115.039C1179.5 113.276 1183.6 113.105 1186.51 114.531L1239.04 79.249C1237.12 77.5096 1237.11 75.1171 1239.03 73.3697L1186.38 38.2757C1183.48 39.7144 1179.37 39.5585 1176.74 37.8036C1176.61 37.7204 1176.49 37.6349 1176.38 37.5475ZM1239.42 79.5621L1186.98 114.782C1187.11 114.858 1187.24 114.938 1187.36 115.021C1190.27 116.955 1190.27 120.099 1187.38 122.043C1187.25 122.126 1187.13 122.205 1187 122.281L1233.71 153.426C1233.83 153.339 1233.94 153.254 1234.07 153.172C1236.69 151.409 1240.8 151.238 1243.71 152.664L1296.24 117.382C1294.31 115.642 1294.31 113.249 1296.22 111.501L1249.41 80.2929C1246.51 81.7265 1242.4 81.5691 1239.77 79.8161C1239.65 79.7336 1239.53 79.6488 1239.42 79.5621ZM1296.61 117.695L1244.18 152.915C1244.31 152.991 1244.44 153.07 1244.56 153.154C1247.46 155.088 1247.47 158.231 1244.57 160.175C1244.45 160.258 1244.32 160.337 1244.19 160.413L1296.75 195.447C1296.86 195.36 1296.98 195.274 1297.1 195.191C1299.73 193.428 1303.84 193.257 1306.74 194.683L1359.27 159.406C1357.34 157.665 1357.34 155.271 1359.26 153.524L1306.61 118.425C1303.71 119.859 1299.6 119.702 1296.97 117.949C1296.85 117.866 1296.73 117.782 1296.61 117.695ZM1359.64 159.719L1307.21 194.934C1307.34 195.01 1307.47 195.09 1307.6 195.173C1310.5 197.107 1310.5 200.251 1307.61 202.195C1307.48 202.278 1307.36 202.358 1307.23 202.434L1360.94 238.244C1361.06 238.156 1361.18 238.069 1361.3 237.985C1363.5 236.505 1366.75 236.147 1369.46 236.914L1422.62 201.21C1421.61 199.625 1421.89 197.758 1423.46 196.326L1369.64 160.449C1366.74 161.886 1362.63 161.73 1360 159.975C1359.88 159.892 1359.76 159.807 1359.64 159.719ZM1360.57 238.559L1306.76 202.686C1303.86 204.123 1299.75 203.967 1297.11 202.213C1296.99 202.13 1296.87 202.044 1296.76 201.956L1244.32 237.172C1244.46 237.248 1244.58 237.328 1244.71 237.411C1247.61 239.345 1247.62 242.489 1244.72 244.433C1244.59 244.517 1244.46 244.599 1244.33 244.676L1298.05 280.488C1298.17 280.398 1298.29 280.309 1298.42 280.223C1300.62 278.743 1303.87 278.385 1306.57 279.151L1359.73 243.447C1358.72 241.862 1358.99 239.993 1360.57 238.559ZM1297.68 280.803L1243.86 244.928C1240.96 246.361 1236.86 246.203 1234.23 244.451C1234.1 244.367 1233.98 244.282 1233.87 244.194L1181.44 279.409C1181.57 279.485 1181.7 279.565 1181.82 279.648C1184.72 281.582 1184.73 284.726 1181.83 286.67C1181.71 286.755 1181.58 286.836 1181.44 286.914L1235.17 322.728C1235.28 322.639 1235.4 322.552 1235.53 322.467C1237.73 320.989 1240.97 320.63 1243.68 321.394L1296.85 285.683C1295.84 284.1 1296.11 282.236 1297.68 280.803ZM1234.79 323.043L1180.98 287.165C1178.07 288.598 1173.97 288.441 1171.34 286.688C1171.22 286.605 1171.1 286.519 1170.98 286.431L1118.55 321.649C1118.68 321.725 1118.8 321.803 1118.93 321.886C1121.83 323.82 1121.83 326.964 1118.94 328.908C1118.81 328.992 1118.69 329.072 1118.55 329.149L1172.28 364.964C1172.39 364.876 1172.51 364.789 1172.64 364.705C1174.84 363.226 1178.08 362.868 1180.79 363.632L1233.95 327.924C1232.94 326.34 1233.22 324.475 1234.79 323.043ZM1171.9 365.279L1118.09 329.401C1115.18 330.836 1111.08 330.679 1108.45 328.926C1108.32 328.843 1108.2 328.758 1108.09 328.672L1055.65 363.89C1055.79 363.967 1055.91 364.047 1056.04 364.131C1058.94 366.065 1058.95 369.208 1056.05 371.152C1055.93 371.234 1055.81 371.312 1055.68 371.387L1109.39 407.197C1109.51 407.11 1109.62 407.025 1109.75 406.943C1111.95 405.463 1115.2 405.105 1117.9 405.87L1171.06 370.164C1170.05 368.579 1170.33 366.712 1171.9 365.279ZM1109.02 407.511L1055.21 371.64C1052.31 373.081 1048.19 372.926 1045.56 371.17C1045.43 371.087 1045.31 371.001 1045.2 370.913L992.775 406.123C992.906 406.199 993.033 406.278 993.158 406.361C996.059 408.295 996.064 411.439 993.17 413.383C993.044 413.468 992.914 413.549 992.781 413.626L1046.5 449.441C1046.62 449.352 1046.74 449.265 1046.86 449.18C1049.07 447.702 1052.31 447.343 1055.01 448.107L1108.17 412.403C1107.16 410.816 1107.44 408.945 1109.02 407.511ZM992.305 405.872L1044.82 370.599C1042.9 368.857 1042.9 366.461 1044.82 364.714L992.175 329.616C989.273 331.055 985.161 330.899 982.528 329.144C982.403 329.061 982.284 328.976 982.17 328.888L929.745 364.1C929.874 364.174 930 364.253 930.123 364.335C933.024 366.269 933.029 369.412 930.135 371.356C930.008 371.442 929.877 371.524 929.743 371.601L982.302 406.641C982.417 406.551 982.538 406.464 982.665 406.379C985.29 404.616 989.399 404.445 992.305 405.872ZM929.276 363.849L981.794 328.575C979.869 326.834 979.866 324.438 981.787 322.691L934.976 291.483C932.074 292.922 927.962 292.766 925.329 291.011C925.205 290.929 925.086 290.844 924.973 290.757L872.544 325.971C872.675 326.046 872.803 326.126 872.927 326.209C875.828 328.143 875.834 331.287 872.939 333.231C872.813 333.315 872.684 333.396 872.551 333.474L919.265 364.616C919.381 364.526 919.502 364.438 919.629 364.353C922.256 362.588 926.369 362.419 929.276 363.849ZM918.89 364.931L872.082 333.726C869.181 335.159 865.075 335.002 862.446 333.249C862.321 333.166 862.202 333.08 862.088 332.993L809.655 368.209C809.786 368.285 809.913 368.364 810.037 368.447C812.938 370.381 812.943 373.524 810.049 375.468C809.923 375.553 809.794 375.634 809.661 375.711L856.381 406.858C856.496 406.769 856.617 406.682 856.743 406.598C859.368 404.834 863.477 404.664 866.383 406.09L918.912 370.81C916.987 369.071 916.979 366.679 918.89 364.931ZM856.006 407.173L809.192 375.963C806.291 377.397 802.185 377.239 799.556 375.486C799.432 375.404 799.313 375.319 799.199 375.232L752.589 406.537C752.721 406.613 752.849 406.693 752.974 406.777C755.875 408.711 755.881 411.854 752.986 413.798C752.86 413.883 752.731 413.964 752.598 414.041L799.316 445.187C799.431 445.098 799.551 445.012 799.676 444.928C802.301 443.165 806.409 442.994 809.315 444.419L856.02 413.05C854.099 411.311 854.093 408.92 856.006 407.173ZM798.941 445.501L752.129 414.293C749.228 415.727 745.123 415.569 742.493 413.816C742.368 413.733 742.248 413.647 742.134 413.56L689.702 448.775C689.834 448.851 689.962 448.931 690.088 449.014C692.989 450.948 692.994 454.092 690.1 456.036C689.974 456.12 689.844 456.201 689.711 456.279L736.43 487.424C736.544 487.336 736.664 487.249 736.79 487.165C739.414 485.402 743.522 485.231 746.428 486.657L798.953 451.379C797.032 449.639 797.027 447.248 798.941 445.501ZM689.233 448.524L741.757 413.246C739.837 411.507 739.832 409.116 741.745 407.37L689.099 372.273C686.198 373.707 682.091 373.55 679.461 371.797C679.336 371.714 679.217 371.628 679.102 371.54L626.671 406.755C626.803 406.831 626.931 406.911 627.056 406.995C629.957 408.929 629.963 412.072 627.068 414.016C626.943 414.101 626.814 414.182 626.681 414.259L679.233 449.293C679.348 449.204 679.468 449.117 679.594 449.032C682.219 447.269 686.327 447.098 689.233 448.524ZM626.202 406.505L678.726 371.227C676.805 369.488 676.801 367.096 678.714 365.35L626.061 330.248C623.161 331.681 619.056 331.523 616.427 329.77C616.302 329.687 616.182 329.601 616.067 329.514L563.636 364.729C563.767 364.805 563.896 364.885 564.021 364.968C566.922 366.902 566.927 370.046 564.033 371.99C563.907 372.075 563.777 372.156 563.644 372.234L616.202 407.273C616.317 407.184 616.437 407.097 616.563 407.013C619.188 405.25 623.296 405.079 626.202 406.505ZM563.166 364.478L615.691 329.2C613.771 327.462 613.766 325.071 615.677 323.325L563.032 288.228C560.131 289.662 556.025 289.504 553.395 287.751C553.272 287.669 553.154 287.585 553.041 287.498L500.61 322.713C500.74 322.788 500.867 322.867 500.99 322.949C503.891 324.883 503.896 328.027 501.002 329.971C500.876 330.055 500.746 330.136 500.614 330.214L553.165 365.248C553.28 365.159 553.401 365.071 553.528 364.987C556.152 363.224 560.26 363.053 563.166 364.478ZM500.141 322.462L552.664 287.185C550.74 285.446 550.733 283.053 552.647 281.305L499.994 246.203C497.093 247.635 492.989 247.477 490.36 245.725C490.237 245.643 490.119 245.558 490.006 245.472L437.575 280.686C437.705 280.762 437.831 280.841 437.955 280.923C440.856 282.857 440.861 286.001 437.967 287.944C437.84 288.03 437.71 288.111 437.576 288.189L490.135 323.228C490.25 323.139 490.371 323.052 490.497 322.967C493.123 321.203 497.235 321.033 500.141 322.462ZM437.106 280.436L489.629 245.159C487.705 243.42 487.698 241.028 489.61 239.28L436.964 204.183C434.063 205.616 429.958 205.458 427.329 203.705C427.204 203.622 427.084 203.536 426.97 203.449L374.538 238.664C374.67 238.74 374.798 238.82 374.923 238.903C377.824 240.837 377.83 243.981 374.935 245.925C374.809 246.01 374.679 246.091 374.546 246.169L427.098 281.203C427.213 281.113 427.335 281.026 427.461 280.941C430.088 279.177 434.2 279.007 437.106 280.436ZM374.068 238.413L426.593 203.135C424.673 201.397 424.668 199.006 426.579 197.26L373.932 162.162C371.031 163.597 366.924 163.439 364.294 161.686C364.169 161.603 364.05 161.518 363.936 161.431L311.513 196.641C311.642 196.716 311.769 196.795 311.892 196.877C314.793 198.811 314.798 201.955 311.904 203.899C311.776 203.984 311.645 204.067 311.51 204.145L364.067 239.183C364.183 239.093 364.303 239.006 364.43 238.921C367.055 237.159 371.162 236.988 374.068 238.413ZM374.392 154.408C374.523 154.484 374.651 154.563 374.775 154.646C377.676 156.58 377.682 159.724 374.787 161.668C374.662 161.752 374.533 161.833 374.401 161.91L426.954 196.945C427.069 196.856 427.19 196.769 427.317 196.684C429.941 194.921 434.049 194.75 436.955 196.176L483.657 164.809C481.739 163.07 481.736 160.68 483.649 158.935L430.996 123.833C428.096 125.267 423.99 125.109 421.36 123.356C421.236 123.273 421.118 123.189 421.004 123.102L374.392 154.408ZM431.465 123.581L484.024 158.62C484.138 158.531 484.258 158.445 484.383 158.361C487.007 156.599 491.112 156.427 494.017 157.851L546.543 122.572C544.625 120.832 544.622 118.441 546.537 116.695L493.885 81.5943C490.984 83.0288 486.877 82.8717 484.247 81.1183C484.123 81.0357 484.004 80.9509 483.891 80.864L431.46 116.079C431.59 116.155 431.718 116.234 431.842 116.316C434.743 118.25 434.748 121.394 431.854 123.338C431.728 123.423 431.598 123.504 431.465 123.581ZM494.354 81.3422L546.912 116.381C547.026 116.293 547.145 116.207 547.27 116.123C549.893 114.361 553.998 114.19 556.904 115.613L609.43 80.3344C607.51 78.5926 607.509 76.1985 609.43 74.4523L556.78 39.3525C553.879 40.7916 549.766 40.6359 547.133 38.8808C547.01 38.7982 546.891 38.7135 546.778 38.6267L494.347 73.8414C494.477 73.917 494.604 73.996 494.728 74.0786C497.629 76.0126 497.635 79.1563 494.74 81.1003C494.615 81.1845 494.486 81.2652 494.354 81.3422ZM557.248 39.1L609.806 74.1381C609.917 74.0519 610.035 73.9677 610.157 73.8856C612.78 72.1236 616.886 71.952 619.791 73.3755L672.317 38.097C670.398 36.3566 670.395 33.9645 672.312 32.2185L619.663 -2.88107C616.762 -1.4463 612.654 -1.60334 610.024 -3.35681C609.9 -3.43975 609.78 -3.52491 609.667 -3.61211L557.234 31.6041C557.364 31.6796 557.491 31.7586 557.615 31.8411C560.516 33.7751 560.521 36.9188 557.627 38.8628C557.504 38.9454 557.378 39.0245 557.248 39.1ZM620.131 -3.13316L672.687 31.9041C672.801 31.8166 672.919 31.7312 673.043 31.6479C675.667 29.8858 679.772 29.7143 682.678 31.1381L735.211 -4.14491C733.29 -5.88378 733.285 -8.27417 735.196 -10.0206L682.551 -45.1175C679.65 -43.6842 675.544 -43.8416 672.915 -45.5946C672.79 -45.6779 672.67 -45.7635 672.556 -45.8512L620.122 -10.6346C620.253 -10.5588 620.381 -10.4794 620.505 -10.3965C623.406 -8.4625 623.412 -5.3188 620.517 -3.37484C620.392 -3.29065 620.263 -3.21009 620.131 -3.13316ZM683.02 -45.3695L735.571 -10.3354C735.687 -10.4247 735.807 -10.5118 735.934 -10.5967C738.559 -12.3596 742.667 -12.5305 745.573 -11.1046L798.1 -46.384C796.182 -48.1222 796.176 -50.5108 798.086 -52.2566L745.438 -87.3551C742.537 -85.9216 738.431 -86.0791 735.802 -87.832C735.677 -87.9154 735.557 -88.0009 735.443 -88.0886L683.011 -52.8735C683.143 -52.7974 683.271 -52.7176 683.396 -52.6343C686.297 -50.7003 686.303 -47.5566 683.408 -45.6126C683.282 -45.5279 683.153 -45.4469 683.02 -45.3695ZM745.907 -87.6071L798.46 -52.5715C798.576 -52.6613 798.698 -52.749 798.825 -52.8344C801.449 -54.5969 805.556 -54.7681 808.462 -53.3433L860.987 -88.6215C859.067 -90.3616 859.063 -92.7535 860.978 -94.4998L808.333 -129.597C805.431 -128.159 801.32 -128.315 798.688 -130.07C798.563 -130.153 798.444 -130.238 798.33 -130.326L745.898 -95.1109C746.03 -95.0348 746.158 -94.9551 746.283 -94.8717C749.184 -92.9377 749.189 -89.794 746.295 -87.8501C746.169 -87.7654 746.039 -87.6844 745.907 -87.6071ZM861.363 -88.3082L808.931 -53.0928C809.063 -53.0163 809.192 -52.9362 809.318 -52.8524C812.219 -50.9184 812.225 -47.7747 809.33 -45.8308C809.203 -45.7454 809.072 -45.6637 808.939 -45.5858L861.49 -10.5514C861.607 -10.6414 861.729 -10.7294 861.856 -10.815C864.482 -12.5787 868.593 -12.7489 871.499 -11.3209L924.023 -46.5981C922.098 -48.3382 922.093 -50.732 924.009 -52.4796L871.364 -87.5758C868.463 -86.1398 864.354 -86.2965 861.724 -88.0504C861.598 -88.1341 861.478 -88.2201 861.363 -88.3082ZM924.399 -46.285L871.968 -11.0702C872.098 -10.9946 872.226 -10.9156 872.349 -10.833C875.25 -8.89903 875.256 -5.75532 872.361 -3.81137C872.234 -3.72575 872.103 -3.64389 871.969 -3.56578L924.525 31.4719C924.64 31.3829 924.761 31.296 924.887 31.2114C927.514 29.4472 931.626 29.2774 934.532 30.7067L987.055 -4.57C985.128 -6.31137 985.123 -8.70804 987.043 -10.4565L934.394 -45.5558C931.493 -44.1206 927.385 -44.2775 924.755 -46.0311C924.631 -46.1136 924.513 -46.1983 924.399 -46.285ZM987.432 -4.25705L935.001 30.9575C935.131 31.0326 935.257 31.1112 935.38 31.1933C938.281 33.1273 938.287 36.2711 935.392 38.215C935.266 38.2996 935.137 38.3806 935.004 38.4579L987.556 73.4921C987.671 73.4028 987.792 73.3156 987.918 73.2307C990.543 71.4677 994.652 71.2969 997.558 72.7229L1050.08 37.4453C1048.16 35.7045 1048.16 33.3107 1050.07 31.5637L997.43 -3.5318C994.529 -2.0938 990.418 -2.24981 987.786 -4.00451C987.663 -4.08658 987.545 -4.17083 987.432 -4.25705ZM1050.46 37.7585L998.027 72.9735C998.159 73.0496 998.287 73.1293 998.412 73.2126C1001.31 75.1466 1001.32 78.2903 998.424 80.2343C998.297 80.3192 998.168 80.4005 998.035 80.478L1050.59 115.514C1050.7 115.424 1050.83 115.336 1050.95 115.25C1053.58 113.486 1057.69 113.316 1060.6 114.745L1113.12 79.4686C1111.2 77.7284 1111.19 75.3336 1113.11 73.5855L1060.46 38.4882C1057.56 39.9255 1053.45 39.7692 1050.82 38.0148C1050.69 37.9315 1050.57 37.846 1050.46 37.7585ZM1113.5 79.7816L1061.07 114.996C1061.2 115.071 1061.32 115.15 1061.45 115.232C1064.35 117.166 1064.35 120.31 1061.46 122.254C1061.33 122.339 1061.2 122.421 1061.07 122.499L1113.63 157.538C1113.74 157.449 1113.86 157.362 1113.99 157.277C1116.61 155.514 1120.72 155.343 1123.63 156.768L1176.15 121.491C1174.23 119.75 1174.22 117.356 1176.14 115.609L1123.49 80.5093C1120.59 81.9447 1116.48 81.7879 1113.85 80.0341C1113.73 79.9521 1113.61 79.8678 1113.5 79.7816ZM1176.52 121.804L1124.1 157.018C1124.23 157.095 1124.36 157.175 1124.48 157.259C1127.38 159.193 1127.39 162.336 1124.49 164.28C1124.37 164.365 1124.24 164.447 1124.1 164.524L1170.82 195.667C1170.93 195.576 1171.06 195.488 1171.18 195.402C1173.81 193.639 1177.92 193.468 1180.83 194.896L1233.34 159.624C1231.42 157.882 1231.42 155.487 1233.34 153.74L1186.53 122.533C1183.63 123.971 1179.52 123.815 1176.88 122.061C1176.76 121.977 1176.64 121.892 1176.52 121.804ZM1233.72 159.937L1181.3 195.147C1181.43 195.223 1181.55 195.302 1181.68 195.384C1184.58 197.318 1184.58 200.462 1181.69 202.406C1181.56 202.492 1181.43 202.574 1181.3 202.652L1233.85 237.69C1233.97 237.601 1234.09 237.514 1234.22 237.429C1236.84 235.666 1240.95 235.495 1243.85 236.921L1296.38 201.643C1294.46 199.902 1294.45 197.509 1296.37 195.762L1243.73 160.665C1240.82 162.104 1236.71 161.948 1234.08 160.193C1233.95 160.11 1233.83 160.024 1233.72 159.937ZM1233.48 238.005L1180.83 202.904C1177.93 204.334 1173.82 204.176 1171.2 202.424C1171.07 202.341 1170.95 202.257 1170.84 202.17L1118.41 237.386C1118.54 237.461 1118.66 237.54 1118.79 237.622C1121.69 239.556 1121.69 242.7 1118.8 244.644C1118.67 244.729 1118.54 244.811 1118.41 244.889L1170.97 279.928C1171.08 279.838 1171.2 279.751 1171.33 279.666C1173.95 277.903 1178.06 277.732 1180.97 279.158L1233.49 243.881C1231.57 242.142 1231.57 239.751 1233.48 238.005ZM1170.59 280.243L1117.94 245.141C1115.04 246.572 1110.93 246.414 1108.31 244.662C1108.18 244.58 1108.06 244.495 1107.95 244.409L1055.51 279.628C1055.64 279.704 1055.77 279.784 1055.9 279.866C1058.8 281.8 1058.8 284.944 1055.91 286.888C1055.78 286.972 1055.66 287.052 1055.52 287.129L1108.07 322.162C1108.19 322.074 1108.31 321.988 1108.43 321.904C1111.06 320.14 1115.17 319.97 1118.08 321.398L1170.61 286.118C1168.69 284.379 1168.68 281.989 1170.59 280.243ZM1107.7 322.477L1055.06 287.381C1052.15 288.817 1048.05 288.66 1045.41 286.906C1045.29 286.823 1045.17 286.738 1045.06 286.651L992.626 321.866C992.757 321.942 992.885 322.021 993.009 322.104C995.91 324.038 995.916 327.182 993.021 329.126C992.898 329.208 992.772 329.288 992.643 329.363L1045.2 364.4C1045.31 364.314 1045.43 364.23 1045.55 364.149C1048.17 362.386 1052.28 362.215 1055.18 363.64L1107.71 328.359C1105.79 326.619 1105.78 324.225 1107.7 322.477ZM992.157 321.615L1044.68 286.338C1042.76 284.597 1042.75 282.204 1044.67 280.457L997.858 249.249C994.957 250.684 990.85 250.527 988.22 248.773C988.095 248.69 987.976 248.605 987.862 248.518L935.429 283.734C935.559 283.81 935.686 283.889 935.81 283.971C938.711 285.905 938.717 289.049 935.822 290.993C935.699 291.076 935.573 291.155 935.444 291.23L982.163 322.376C982.275 322.29 982.393 322.205 982.516 322.122C985.141 320.359 989.251 320.188 992.157 321.615ZM934.96 283.484L987.486 248.205C985.563 246.465 985.558 244.073 987.473 242.326L934.828 207.229C931.927 208.665 927.819 208.508 925.188 206.754C925.064 206.671 924.945 206.586 924.831 206.499L872.398 241.715C872.528 241.79 872.655 241.869 872.779 241.952C875.68 243.886 875.685 247.03 872.791 248.974C872.668 249.056 872.543 249.135 872.414 249.21L924.964 284.244C925.076 284.157 925.194 284.072 925.317 283.989C927.943 282.226 932.053 282.056 934.96 283.484ZM924.588 284.558L871.946 249.463C869.044 250.902 864.931 250.747 862.298 248.992C862.174 248.909 862.055 248.824 861.942 248.737L809.513 283.951C809.644 284.027 809.771 284.107 809.896 284.19C812.797 286.124 812.802 289.267 809.908 291.211C809.782 291.296 809.653 291.376 809.521 291.454L862.072 326.488C862.187 326.399 862.308 326.312 862.434 326.227C865.059 324.464 869.168 324.293 872.074 325.72L924.597 290.444C922.671 288.702 922.667 286.306 924.588 284.558ZM861.697 326.802L809.052 291.706C806.151 293.14 802.045 292.983 799.415 291.229C799.29 291.146 799.171 291.061 799.057 290.974L746.624 326.19C746.754 326.266 746.881 326.345 747.005 326.427C749.906 328.361 749.912 331.505 747.017 333.449C746.892 333.533 746.763 333.614 746.631 333.691L799.182 368.725C799.297 368.636 799.417 368.549 799.544 368.465C802.169 366.701 806.28 366.531 809.186 367.959L861.712 332.68C859.79 330.941 859.785 328.549 861.697 326.802ZM798.807 369.04L746.162 333.943C743.261 335.377 739.154 335.22 736.524 333.467C736.4 333.384 736.281 333.299 736.168 333.213L689.558 364.518C689.689 364.594 689.818 364.674 689.943 364.757C692.844 366.691 692.849 369.835 689.955 371.779C689.829 371.863 689.7 371.944 689.568 372.021L742.119 407.055C742.234 406.966 742.355 406.879 742.481 406.795C745.106 405.032 749.214 404.861 752.12 406.287L798.823 374.919C796.9 373.179 796.894 370.787 798.807 369.04ZM679.089 365.035C679.204 364.946 679.324 364.86 679.449 364.775C682.074 363.012 686.182 362.842 689.088 364.267L735.792 332.899C733.868 331.16 733.862 328.767 735.776 327.02L683.13 291.922C680.229 293.358 676.12 293.202 673.489 291.448C673.363 291.364 673.243 291.278 673.128 291.19L626.523 322.491C626.654 322.568 626.783 322.647 626.908 322.731C629.809 324.665 629.814 327.808 626.92 329.752C626.794 329.837 626.664 329.919 626.531 329.996L679.089 365.035ZM616.052 323.01C616.167 322.921 616.288 322.834 616.415 322.749C619.039 320.986 623.147 320.815 626.053 322.241L672.752 290.876C670.832 289.136 670.828 286.744 672.744 284.998L620.094 249.898C617.193 251.332 613.087 251.174 610.458 249.421C610.336 249.34 610.219 249.256 610.107 249.17L563.497 280.475C563.627 280.551 563.753 280.629 563.877 280.712C566.778 282.646 566.783 285.789 563.889 287.733C563.763 287.818 563.633 287.899 563.501 287.976L616.052 323.01ZM553.022 280.99C553.137 280.901 553.257 280.814 553.383 280.73C556.01 278.965 560.122 278.796 563.028 280.224L609.73 248.858C607.802 247.118 607.795 244.724 609.709 242.975L557.064 207.878C554.163 209.312 550.056 209.155 547.427 207.402C547.302 207.319 547.183 207.233 547.069 207.146L500.462 238.449C500.592 238.524 500.718 238.603 500.842 238.685C503.743 240.619 503.748 243.763 500.854 245.707C500.727 245.792 500.597 245.873 500.463 245.951L553.022 280.99ZM489.984 238.965C490.1 238.876 490.221 238.788 490.348 238.703C492.975 236.939 497.087 236.769 499.993 238.198L546.692 206.833C544.771 205.093 544.765 202.702 546.679 200.955L494.034 165.858C491.133 167.293 487.026 167.136 484.395 165.382C484.269 165.298 484.148 165.212 484.033 165.123L437.425 196.426C437.556 196.503 437.685 196.582 437.81 196.666C440.711 198.6 440.716 201.743 437.822 203.687C437.696 203.772 437.566 203.854 437.433 203.931L489.984 238.965ZM494.503 165.606L547.054 200.64C547.169 200.551 547.289 200.465 547.415 200.38C550.04 198.617 554.149 198.446 557.055 199.873L609.579 164.595C607.657 162.855 607.652 160.463 609.567 158.716L556.923 123.619C554.022 125.056 549.913 124.899 547.282 123.145C547.155 123.061 547.035 122.974 546.919 122.885L494.487 158.101C494.62 158.178 494.75 158.258 494.877 158.343C497.778 160.277 497.783 163.42 494.889 165.364C494.763 165.449 494.635 165.529 494.503 165.606ZM557.392 123.367L609.942 158.401C610.057 158.313 610.176 158.227 610.301 158.143C612.927 156.379 617.036 156.209 619.942 157.635L672.466 122.358C670.541 120.616 670.539 118.22 672.46 116.472L619.818 81.3777C616.916 82.8181 612.802 82.6629 610.169 80.9072C610.042 80.823 609.922 80.7365 609.806 80.6479L557.374 115.864C557.507 115.94 557.637 116.021 557.763 116.105C560.664 118.039 560.67 121.183 557.775 123.127C557.651 123.211 557.523 123.291 557.392 123.367ZM620.286 81.1251L672.836 116.158C672.948 116.072 673.065 115.987 673.188 115.905C675.813 114.141 679.923 113.971 682.829 115.398L735.353 80.1203C733.43 78.3799 733.425 75.986 735.342 74.2388L682.699 39.1429C679.797 40.5802 675.687 40.424 673.055 38.6696C672.929 38.5854 672.808 38.499 672.693 38.4105L620.261 73.6259C620.394 73.7028 620.524 73.7833 620.65 73.8675C623.551 75.8015 623.557 78.9453 620.662 80.8892C620.54 80.9713 620.415 81.05 620.286 81.1251ZM683.167 38.8906L735.718 73.9243C735.831 73.8365 735.95 73.7507 736.075 73.6672C738.7 71.9039 742.81 71.7334 745.716 73.1604L798.244 37.88C796.325 36.1407 796.32 33.7502 798.233 32.0041L745.581 -3.09755C742.68 -1.66468 738.575 -1.82231 735.946 -3.57506C735.821 -3.65841 735.701 -3.744 735.587 -3.83165L683.148 31.3885C683.281 31.4653 683.41 31.5457 683.537 31.6299C686.438 33.5639 686.443 36.7076 683.549 38.6515C683.425 38.7348 683.297 38.8145 683.167 38.8906ZM746.05 -3.34947L798.608 31.6894C798.723 31.6007 798.843 31.514 798.969 31.4296C801.593 29.6671 805.7 29.496 808.606 30.9208L861.136 -4.36057C859.213 -6.09884 859.206 -8.48931 861.116 -10.2364L808.469 -45.334C805.569 -43.9024 801.465 -44.0605 798.837 -45.8127C798.711 -45.8965 798.591 -45.9825 798.476 -46.0707L746.042 -10.854C746.174 -10.7779 746.302 -10.6981 746.427 -10.6148C749.328 -8.68077 749.334 -5.53703 746.439 -3.59309C746.313 -3.50818 746.183 -3.42699 746.05 -3.34947ZM861.512 -4.04749L809.076 31.1712C809.208 31.2477 809.337 31.3278 809.462 31.4116C812.363 33.3456 812.369 36.4893 809.474 38.4333C809.349 38.5177 809.22 38.5984 809.088 38.6755L861.639 73.7096C861.754 73.6206 861.874 73.5336 862 73.4489C864.627 71.6848 868.739 71.5149 871.646 72.944L924.169 37.6675C922.243 35.9279 922.236 33.5346 924.151 31.7867L871.499 -3.31403C868.599 -1.88309 864.496 -2.04133 861.868 -3.79334C861.744 -3.87592 861.626 -3.96069 861.512 -4.04749ZM924.545 37.9804L872.115 73.1949C872.244 73.2701 872.371 73.3487 872.494 73.4309C875.395 75.3649 875.4 78.5086 872.506 80.4525C872.38 80.5372 872.25 80.6183 872.118 80.6956L924.669 115.73C924.784 115.641 924.905 115.553 925.032 115.468C927.656 113.705 931.765 113.535 934.671 114.961L987.196 79.6826C985.275 77.9438 985.269 75.5534 987.181 73.807L934.535 38.7099C931.634 40.1435 927.528 39.9861 924.899 38.233C924.776 38.151 924.658 38.0667 924.545 37.9804ZM987.572 79.9959L935.14 115.211C935.272 115.287 935.4 115.367 935.525 115.45C938.426 117.384 938.431 120.528 935.537 122.472C935.411 122.557 935.281 122.638 935.148 122.716L987.706 157.755C987.821 157.666 987.941 157.579 988.067 157.495C990.692 155.732 994.8 155.561 997.706 156.987L1050.24 121.706C1048.31 119.968 1048.3 117.576 1050.21 115.829L997.565 80.7299C994.665 82.1627 990.56 82.005 987.931 80.2523C987.806 80.169 987.686 80.0835 987.572 79.9959ZM1050.61 122.019L998.175 157.237C998.307 157.314 998.435 157.393 998.56 157.477C1001.46 159.411 1001.47 162.555 998.572 164.498C998.447 164.583 998.318 164.664 998.185 164.741L1050.74 199.775C1050.85 199.686 1050.97 199.599 1051.1 199.514C1053.72 197.751 1057.83 197.58 1060.74 199.006L1113.26 163.727C1111.35 161.988 1111.34 159.599 1113.25 157.853L1060.6 122.751C1057.7 124.182 1053.59 124.024 1050.97 122.272C1050.84 122.19 1050.72 122.105 1050.61 122.019ZM1113.64 164.04L1061.21 199.257C1061.34 199.333 1061.47 199.413 1061.59 199.496C1064.49 201.43 1064.5 204.574 1061.6 206.518C1061.48 206.602 1061.35 206.683 1061.22 206.761L1107.93 237.903C1108.04 237.813 1108.17 237.725 1108.29 237.64C1110.92 235.876 1115.03 235.706 1117.94 237.135L1170.46 201.857C1168.54 200.119 1168.53 197.729 1170.44 195.982L1123.63 164.776C1120.73 166.209 1116.63 166.051 1114 164.298C1113.87 164.215 1113.75 164.129 1113.64 164.04ZM1107.55 238.218L1060.75 207.013C1057.85 208.446 1053.74 208.289 1051.11 206.536C1050.99 206.452 1050.87 206.367 1050.75 206.279L998.318 241.496C998.449 241.571 998.576 241.651 998.701 241.734C1001.6 243.668 1001.61 246.811 998.713 248.755C998.588 248.84 998.459 248.92 998.327 248.997L1045.04 280.142C1045.16 280.054 1045.28 279.968 1045.4 279.884C1048.03 278.121 1052.14 277.951 1055.04 279.378L1107.57 244.096C1105.65 242.357 1105.64 239.966 1107.55 238.218ZM997.848 241.245L1050.37 205.966C1048.45 204.227 1048.45 201.836 1050.36 200.09L997.716 164.993C994.816 166.427 990.709 166.27 988.079 164.517C987.954 164.433 987.834 164.348 987.72 164.26L935.287 199.476C935.417 199.552 935.545 199.631 935.669 199.714C938.57 201.648 938.576 204.792 935.681 206.736C935.556 206.82 935.428 206.9 935.297 206.977L987.848 242.011C987.962 241.922 988.082 241.836 988.208 241.752C990.833 239.988 994.942 239.818 997.848 241.245ZM934.817 199.226L987.344 163.947C985.423 162.207 985.418 159.816 987.331 158.069L934.679 122.968C931.778 124.4 927.673 124.243 925.044 122.49C924.919 122.407 924.799 122.321 924.685 122.233L872.251 157.45C872.382 157.526 872.51 157.605 872.634 157.688C875.535 159.622 875.541 162.766 872.646 164.71C872.521 164.794 872.391 164.875 872.259 164.952L924.817 199.991C924.931 199.902 925.051 199.816 925.176 199.732C927.801 197.969 931.911 197.799 934.817 199.226ZM924.442 200.305L871.79 165.204C868.889 166.638 864.783 166.481 862.153 164.728C862.029 164.645 861.909 164.56 861.796 164.472L809.357 199.692C809.489 199.769 809.618 199.849 809.744 199.933C812.645 201.867 812.65 205.01 809.756 206.954C809.634 207.036 809.509 207.114 809.382 207.189L861.933 242.223C862.046 242.137 862.163 242.052 862.286 241.97C864.912 240.206 869.022 240.036 871.929 241.464L924.454 206.186C922.531 204.445 922.526 202.052 924.442 200.305ZM861.558 242.538L808.914 207.442C806.012 208.883 801.896 208.728 799.262 206.972C799.137 206.889 799.017 206.803 798.902 206.715L746.478 241.925C746.609 242.001 746.736 242.08 746.861 242.163C749.762 244.097 749.767 247.241 746.873 249.185C746.747 249.27 746.617 249.351 746.484 249.429L799.042 284.467C799.157 284.379 799.277 284.292 799.403 284.208C802.028 282.444 806.137 282.274 809.043 283.701L861.566 248.424C859.639 246.682 859.636 244.286 861.558 242.538ZM798.667 284.782L746.014 249.68C743.114 251.113 739.009 250.955 736.38 249.203C736.255 249.12 736.136 249.034 736.022 248.947L683.583 284.167C683.715 284.244 683.844 284.324 683.97 284.408C686.871 286.342 686.877 289.486 683.982 291.43C683.858 291.513 683.73 291.593 683.599 291.67L736.151 326.705C736.266 326.616 736.386 326.53 736.512 326.445C739.138 324.682 743.248 324.511 746.155 325.939L798.681 290.661C796.758 288.921 796.753 286.529 798.667 284.782ZM683.113 283.917L735.646 248.634C733.724 246.895 733.718 244.504 735.63 242.758L682.985 207.66C680.084 209.094 675.978 208.936 673.349 207.183C673.226 207.102 673.108 207.018 672.996 206.932L620.563 242.147C620.692 242.222 620.817 242.3 620.939 242.382C623.84 244.316 623.846 247.459 620.951 249.403C620.825 249.488 620.696 249.569 620.563 249.646L673.119 284.683C673.233 284.596 673.352 284.51 673.477 284.426C676.101 282.664 680.207 282.492 683.113 283.917ZM620.094 241.896L672.619 206.619C670.693 204.879 670.686 202.485 672.6 200.737L619.953 165.639C617.052 167.075 612.944 166.918 610.313 165.164C610.189 165.081 610.07 164.996 609.956 164.908L557.524 200.124C557.655 200.2 557.783 200.279 557.908 200.362C560.809 202.296 560.814 205.44 557.92 207.384C557.794 207.468 557.665 207.549 557.533 207.626L610.084 242.66C610.199 242.571 610.32 242.484 610.446 242.4C613.073 240.635 617.188 240.465 620.094 241.896ZM620.422 165.387L672.975 200.423C673.09 200.333 673.21 200.247 673.336 200.162C675.964 198.397 680.077 198.228 682.983 199.658L735.503 164.383C733.573 162.641 733.567 160.242 735.49 158.493L682.848 123.398C679.946 124.837 675.833 124.682 673.2 122.926C673.076 122.843 672.956 122.758 672.843 122.671L620.411 157.886C620.542 157.962 620.67 158.041 620.795 158.124C623.696 160.058 623.701 163.202 620.807 165.146C620.682 165.23 620.553 165.311 620.422 165.387ZM683.316 123.145L735.866 158.178C735.978 158.092 736.096 158.007 736.219 157.924C738.847 156.159 742.962 155.99 745.868 157.421L798.392 122.144C796.465 120.404 796.459 118.009 798.375 116.26L745.729 81.163C742.828 82.5995 738.718 82.443 736.087 80.6889C735.962 80.6059 735.843 80.5207 735.729 80.4335L683.298 115.648C683.429 115.724 683.557 115.804 683.681 115.887C686.582 117.821 686.588 120.964 683.693 122.908C683.571 122.991 683.445 123.07 683.316 123.145ZM746.197 80.9107L798.75 115.946C798.864 115.857 798.984 115.771 799.11 115.687C801.737 113.922 805.85 113.753 808.757 115.183L861.282 79.9048C859.357 78.1653 859.35 75.7722 861.264 74.0244L808.619 38.9276C805.718 40.3618 801.611 40.2046 798.981 38.4513C798.855 38.3675 798.735 38.2815 798.62 38.1934L746.185 73.411C746.316 73.4868 746.444 73.5662 746.568 73.6492C749.469 75.5832 749.475 78.7269 746.58 80.6708C746.456 80.7544 746.328 80.8343 746.197 80.9107ZM861.658 80.2177L809.226 115.434C809.354 115.509 809.48 115.587 809.603 115.669C812.504 117.603 812.509 120.746 809.615 122.69C809.49 122.774 809.361 122.855 809.229 122.932L861.78 157.966C861.895 157.877 862.015 157.79 862.141 157.706C864.766 155.943 868.876 155.772 871.782 157.199L924.308 121.92C922.388 120.181 922.383 117.791 924.294 116.045L871.649 80.9476C868.748 82.381 864.642 82.2235 862.013 80.4706C861.889 80.3884 861.771 80.3041 861.658 80.2177ZM861.405 158.281L808.76 123.184C805.859 124.619 801.752 124.462 799.122 122.708C798.999 122.627 798.882 122.543 798.769 122.457L746.337 157.672C746.465 157.747 746.59 157.825 746.712 157.906C749.613 159.84 749.619 162.984 746.724 164.928C746.601 165.01 746.475 165.09 746.346 165.165L798.901 200.202C799.012 200.116 799.129 200.032 799.25 199.951C801.874 198.188 805.981 198.017 808.887 199.442L861.419 164.159C859.497 162.42 859.491 160.028 861.405 158.281ZM798.525 200.516L745.878 165.418C742.976 166.857 738.864 166.701 736.231 164.946C736.109 164.865 735.992 164.781 735.88 164.696L683.452 199.909C683.581 199.984 683.707 200.062 683.83 200.144C686.731 202.078 686.736 205.221 683.842 207.165C683.716 207.25 683.586 207.331 683.454 207.408L736.005 242.443C736.12 242.353 736.241 242.266 736.368 242.181C738.993 240.418 743.102 240.247 746.008 241.674L798.526 206.401C796.603 204.659 796.602 202.263 798.525 200.516Z" fill="url(#paint0_linear_1875_39145)" fill-opacity="0.5"/>
<defs>
<linearGradient id="paint0_linear_1875_39145" x1="1356.55" y1="185.728" x2="178.033" y2="251.247" gradientUnits="userSpaceOnUse">
<stop stop-color="#9DCDED" stop-opacity="0.56"/>
<stop offset="1" stop-color="#9DCDED" stop-opacity="0.24"/>
</linearGradient>
</defs>
</svg>
