<svg width="445" height="322" viewBox="0 0 445 322" fill="none" xmlns="http://www.w3.org/2000/svg">
<path d="M10.23 21.52H2.91V18.61H10.62C11.94 18.61 12.88 18.32 13.44 17.74C14.02 17.16 14.31 16.15 14.31 14.71C14.31 13.27 14.02 12.26 13.44 11.68C12.88 11.1 11.94 10.81 10.62 10.81H2.91V7.9H10.23C11.63 7.9 12.88 8.17 13.98 8.71C15.08 9.25 15.94 10.03 16.56 11.05C17.2 12.05 17.52 13.27 17.52 14.71C17.52 16.15 17.2 17.38 16.56 18.4C15.94 19.42 15.08 20.2 13.98 20.74C12.88 21.26 11.63 21.52 10.23 21.52ZM4.92 28H1.68V7.9H4.92V28ZM33.6148 28H30.3748V19.33C30.3748 18.01 30.1148 17.06 29.5948 16.48C29.0948 15.88 28.1648 15.58 26.8048 15.58C25.5048 15.58 24.5348 15.87 23.8948 16.45C23.2748 17.01 22.9648 18 22.9648 19.42H22.3948L22.3648 15.58H23.0848C23.3248 15.12 23.6548 14.68 24.0748 14.26C24.5148 13.82 25.0648 13.47 25.7248 13.21C26.4048 12.93 27.1848 12.79 28.0648 12.79C29.3848 12.79 30.4448 13.05 31.2448 13.57C32.0648 14.07 32.6648 14.76 33.0448 15.64C33.4248 16.52 33.6148 17.51 33.6148 18.61V28ZM22.9648 28H19.7248V7.9H22.9648V28ZM49.3763 28H46.3763V25.06L46.2863 24.25V18.52C46.2863 17.4 46.0163 16.64 45.4763 16.24C44.9563 15.84 44.1063 15.64 42.9263 15.64C41.7463 15.64 40.8963 15.85 40.3763 16.27C39.8763 16.69 39.6263 17.39 39.6263 18.37V18.82H36.5063V18.52C36.5063 17.4 36.7763 16.41 37.3163 15.55C37.8763 14.69 38.6463 14.02 39.6263 13.54C40.6263 13.04 41.7863 12.79 43.1063 12.79C44.5063 12.79 45.6663 13.05 46.5863 13.57C47.5063 14.09 48.1963 14.81 48.6563 15.73C49.1363 16.63 49.3763 17.7 49.3763 18.94V28ZM40.8263 28.3C39.4863 28.3 38.3563 27.96 37.4363 27.28C36.5363 26.58 36.0863 25.59 36.0863 24.31C36.0863 23.47 36.2763 22.77 36.6563 22.21C37.0563 21.65 37.6263 21.19 38.3663 20.83C39.1063 20.47 40.0063 20.22 41.0663 20.08L46.5863 19.3V21.58L41.5463 22.33C40.6863 22.45 40.0863 22.63 39.7463 22.87C39.4063 23.11 39.2363 23.51 39.2363 24.07C39.2363 24.65 39.4363 25.07 39.8363 25.33C40.2563 25.59 40.9363 25.72 41.8763 25.72C42.5963 25.72 43.2863 25.61 43.9463 25.39C44.6263 25.15 45.1863 24.76 45.6263 24.22C46.0663 23.66 46.2863 22.88 46.2863 21.88L46.7063 25.69L46.2263 25.66C45.9463 26.12 45.5563 26.55 45.0563 26.95C44.5763 27.35 43.9863 27.68 43.2863 27.94C42.5863 28.18 41.7663 28.3 40.8263 28.3ZM58.6608 28.3C56.4808 28.3 54.8308 27.87 53.7108 27.01C52.5908 26.13 52.0308 24.78 52.0308 22.96V22.9H55.1508V23.44C55.1508 23.96 55.2508 24.39 55.4508 24.73C55.6708 25.05 56.0308 25.29 56.5308 25.45C57.0508 25.59 57.7808 25.66 58.7208 25.66C59.5208 25.66 60.1208 25.6 60.5208 25.48C60.9408 25.34 61.2208 25.15 61.3608 24.91C61.5008 24.67 61.5708 24.37 61.5708 24.01C61.5708 23.41 61.3608 22.99 60.9408 22.75C60.5208 22.49 59.7708 22.26 58.6908 22.06L56.3508 21.67C55.4708 21.49 54.7008 21.24 54.0408 20.92C53.4008 20.58 52.9008 20.12 52.5408 19.54C52.2008 18.94 52.0308 18.19 52.0308 17.29C52.0308 15.95 52.5608 14.87 53.6208 14.05C54.6808 13.21 56.1808 12.79 58.1208 12.79C59.3008 12.79 60.3508 12.98 61.2708 13.36C62.1908 13.74 62.9208 14.31 63.4608 15.07C64.0008 15.83 64.2708 16.78 64.2708 17.92V18.19H61.1808V17.83C61.1808 17.35 61.1008 16.94 60.9408 16.6C60.7808 16.24 60.4808 15.96 60.0408 15.76C59.6008 15.56 58.9308 15.46 58.0308 15.46C56.8508 15.46 56.0708 15.61 55.6908 15.91C55.3108 16.21 55.1208 16.65 55.1208 17.23C55.1208 17.81 55.2908 18.22 55.6308 18.46C55.9908 18.68 56.6908 18.9 57.7308 19.12L60.2808 19.6C61.2408 19.78 62.0408 20.05 62.6808 20.41C63.3208 20.77 63.8008 21.24 64.1208 21.82C64.4608 22.4 64.6308 23.09 64.6308 23.89C64.6308 25.29 64.1008 26.38 63.0408 27.16C62.0008 27.92 60.5408 28.3 58.6608 28.3ZM73.8743 28.3C72.2543 28.3 70.9043 27.98 69.8243 27.34C68.7443 26.68 67.9443 25.77 67.4243 24.61C66.9043 23.43 66.6443 22.07 66.6443 20.53C66.6443 18.99 66.9343 17.64 67.5143 16.48C68.1143 15.32 68.9543 14.42 70.0343 13.78C71.1143 13.12 72.3943 12.79 73.8743 12.79C75.2143 12.79 76.3943 13.05 77.4143 13.57C78.4543 14.07 79.2543 14.8 79.8143 15.76C80.3943 16.72 80.6843 17.88 80.6843 19.24C80.6843 19.64 80.6643 20.03 80.6243 20.41C80.6043 20.77 80.5743 21.07 80.5343 21.31H68.1743V19.15H77.8943L77.5643 19.45C77.6443 18.53 77.5443 17.78 77.2643 17.2C77.0043 16.62 76.5743 16.19 75.9743 15.91C75.3943 15.63 74.6643 15.49 73.7843 15.49C72.2043 15.49 71.1243 15.89 70.5443 16.69C69.9643 17.47 69.6743 18.55 69.6743 19.93V20.83C69.6743 21.83 69.7943 22.68 70.0343 23.38C70.2943 24.06 70.7343 24.57 71.3543 24.91C71.9743 25.25 72.8243 25.42 73.9043 25.42C75.1643 25.42 76.0543 25.22 76.5743 24.82C77.0943 24.42 77.3543 23.89 77.3543 23.23V22.99H80.5643V23.26C80.5643 24.28 80.2843 25.17 79.7243 25.93C79.1643 26.67 78.3843 27.25 77.3843 27.67C76.4043 28.09 75.2343 28.3 73.8743 28.3ZM95.6405 28H92.4005V12.7H88.1705V10.39H88.9505C89.8905 10.39 90.6605 10.2 91.2605 9.82C91.8605 9.44 92.3705 8.8 92.7905 7.9H95.6405V28Z" fill="#9DCCED"/>
<circle cx="133.5" cy="20.5" r="11.2903" stroke="#213147" stroke-width="2.41935"/>
<circle cx="133.499" cy="20.5" r="8.46774" fill="#213147"/>
<path d="M133.5 33L133.5 153" stroke="#213147"/>
<path d="M167.54 28.2C166.26 28.2 165.213 28.02 164.4 27.66C163.587 27.2867 162.98 26.7733 162.58 26.12C162.193 25.4533 162 24.6933 162 23.84V23.5H164.12V23.72C164.12 24.2667 164.213 24.7267 164.4 25.1C164.6 25.4733 164.953 25.7533 165.46 25.94C165.967 26.1267 166.693 26.22 167.64 26.22C168.627 26.22 169.32 26.08 169.72 25.8C170.12 25.5067 170.32 25.0533 170.32 24.44C170.32 24.0267 170.26 23.6933 170.14 23.44C170.02 23.1867 169.78 22.98 169.42 22.82C169.073 22.6467 168.553 22.4933 167.86 22.36L165.58 21.9C164.807 21.7533 164.16 21.5267 163.64 21.22C163.12 20.9 162.72 20.4933 162.44 20C162.173 19.5067 162.04 18.9133 162.04 18.22C162.04 17.5533 162.213 16.9333 162.56 16.36C162.92 15.7733 163.467 15.3 164.2 14.94C164.947 14.58 165.893 14.4 167.04 14.4C168.267 14.4 169.26 14.6067 170.02 15.02C170.793 15.4333 171.353 15.98 171.7 16.66C172.06 17.3267 172.24 18.06 172.24 18.86V19.1H170.1V18.88C170.1 18.32 170.007 17.86 169.82 17.5C169.647 17.1267 169.327 16.8467 168.86 16.66C168.407 16.46 167.787 16.36 167 16.36C166.013 16.36 165.3 16.5067 164.86 16.8C164.42 17.0933 164.2 17.5333 164.2 18.12C164.2 18.52 164.267 18.84 164.4 19.08C164.547 19.32 164.793 19.5133 165.14 19.66C165.5 19.7933 165.98 19.9333 166.58 20.08L168.86 20.56C169.713 20.72 170.4 20.9733 170.92 21.32C171.453 21.6667 171.847 22.0933 172.1 22.6C172.353 23.0933 172.48 23.68 172.48 24.36C172.48 25.0533 172.307 25.6933 171.96 26.28C171.613 26.8667 171.073 27.3333 170.34 27.68C169.62 28.0267 168.687 28.2 167.54 28.2ZM179.168 28H177.028V14.6H179.168V28ZM183.728 16.54H172.468V14.6H183.728V16.54ZM186.76 28H184.6V14.6H186.76V28ZM194.754 23.68H189.874V21.74H195.014C195.894 21.74 196.52 21.5467 196.894 21.16C197.28 20.7733 197.474 20.1 197.474 19.14C197.474 18.18 197.28 17.5067 196.894 17.12C196.52 16.7333 195.894 16.54 195.014 16.54H189.874V14.6H194.754C195.687 14.6 196.52 14.78 197.254 15.14C197.987 15.5 198.56 16.02 198.974 16.7C199.4 17.3667 199.614 18.18 199.614 19.14C199.614 20.1 199.4 20.92 198.974 21.6C198.56 22.28 197.987 22.8 197.254 23.16C196.52 23.5067 195.687 23.68 194.754 23.68ZM191.214 28H189.054V14.6H191.214V28Z" fill="#3F3F46"/>
<path d="M169.682 58H168.964L163.058 49.1611H163.023C163.033 49.4072 163.039 49.6579 163.044 49.9131C163.053 50.1637 163.06 50.4235 163.064 50.6924C163.074 50.9567 163.078 51.2301 163.078 51.5127V58H162.408V48.0059H163.133L169.019 56.8174H169.053C169.048 56.6169 169.041 56.3844 169.032 56.1201C169.028 55.8558 169.021 55.5846 169.012 55.3066C169.007 55.0286 169.005 54.7666 169.005 54.5205V48.0059H169.682V58ZM181.62 52.9893C181.62 53.7503 181.526 54.4453 181.34 55.0742C181.153 55.7031 180.873 56.2454 180.499 56.7012C180.125 57.1569 179.658 57.5101 179.097 57.7607C178.541 58.0114 177.892 58.1367 177.149 58.1367C176.402 58.1367 175.748 58.0114 175.187 57.7607C174.627 57.5101 174.16 57.1569 173.786 56.7012C173.417 56.2409 173.139 55.6963 172.952 55.0674C172.765 54.4339 172.672 53.7367 172.672 52.9756C172.672 51.9639 172.843 51.0729 173.184 50.3027C173.531 49.5326 174.039 48.931 174.709 48.498C175.383 48.0651 176.215 47.8486 177.204 47.8486C178.152 47.8486 178.954 48.056 179.61 48.4707C180.271 48.8809 180.77 49.471 181.107 50.2412C181.449 51.0068 181.62 51.9229 181.62 52.9893ZM173.41 52.9824C173.41 53.8757 173.544 54.6641 173.813 55.3477C174.082 56.0267 174.495 56.5576 175.051 56.9404C175.607 57.3232 176.308 57.5146 177.156 57.5146C178.013 57.5146 178.717 57.3255 179.268 56.9473C179.82 56.569 180.228 56.0404 180.492 55.3613C180.756 54.6823 180.888 53.8916 180.888 52.9893C180.888 51.5628 180.576 50.4554 179.952 49.667C179.332 48.8786 178.416 48.4844 177.204 48.4844C176.352 48.4844 175.643 48.6735 175.078 49.0518C174.517 49.43 174.098 49.9564 173.82 50.6309C173.547 51.3053 173.41 52.0892 173.41 52.9824ZM191.289 48.0059L187.597 58H186.9L183.209 48.0059H183.947L186.681 55.4023C186.759 55.6165 186.832 55.8262 186.9 56.0312C186.968 56.2318 187.032 56.4255 187.091 56.6123C187.151 56.7992 187.203 56.9792 187.249 57.1523C187.294 56.9792 187.344 56.8037 187.399 56.626C187.458 56.4437 187.522 56.2523 187.59 56.0518C187.659 55.8467 187.734 55.6279 187.816 55.3955L190.544 48.0059H191.289ZM198.859 58H193.397V48.0059H198.859V48.6416H194.101V52.4287H198.592V53.0645H194.101V57.3643H198.859V58ZM206.162 58L202.491 48.7715H202.457C202.466 48.9401 202.473 49.1178 202.478 49.3047C202.487 49.487 202.494 49.6784 202.498 49.8789C202.503 50.0794 202.505 50.2891 202.505 50.5078V58H201.835V48.0059H202.902L206.443 56.9062H206.484L210.052 48.0059H211.091V58H210.401V50.4258C210.401 50.248 210.403 50.0658 210.407 49.8789C210.412 49.6921 210.417 49.5075 210.421 49.3252C210.43 49.1383 210.439 48.9583 210.448 48.7852H210.407L206.723 58H206.162ZM214.621 48.0059H217.362C218.597 48.0059 219.5 48.1995 220.069 48.5869C220.644 48.9743 220.931 49.5918 220.931 50.4395C220.931 50.8223 220.855 51.1709 220.705 51.4854C220.559 51.7998 220.34 52.0641 220.049 52.2783C219.762 52.488 219.406 52.6315 218.982 52.709V52.7568C219.488 52.8343 219.905 52.9756 220.233 53.1807C220.566 53.3812 220.812 53.6478 220.972 53.9805C221.136 54.3086 221.218 54.7005 221.218 55.1562C221.218 55.8125 221.067 56.3503 220.767 56.7695C220.47 57.1888 220.058 57.4987 219.529 57.6992C219.001 57.8997 218.39 58 217.697 58H214.621V48.0059ZM215.325 52.4492H217.54C218.479 52.4492 219.158 52.2852 219.577 51.957C219.996 51.6289 220.206 51.1436 220.206 50.501C220.206 49.8356 219.98 49.3571 219.529 49.0654C219.078 48.7738 218.356 48.6279 217.362 48.6279H215.325V52.4492ZM215.325 53.0645V57.3779H217.677C218.602 57.3779 219.299 57.1911 219.769 56.8174C220.238 56.4391 220.473 55.8763 220.473 55.1289C220.473 54.6367 220.363 54.2402 220.145 53.9395C219.926 53.6341 219.598 53.4131 219.16 53.2764C218.727 53.1351 218.187 53.0645 217.54 53.0645H215.325ZM229.56 58H224.098V48.0059H229.56V48.6416H224.803V52.4287H229.294V53.0645H224.803V57.3643H229.56V58ZM234.963 48.0059C235.756 48.0059 236.417 48.0924 236.946 48.2656C237.479 48.4388 237.88 48.7236 238.149 49.1201C238.418 49.5166 238.552 50.0521 238.552 50.7266C238.552 51.2324 238.459 51.6676 238.272 52.0322C238.09 52.3923 237.837 52.6885 237.513 52.9209C237.19 53.1533 236.816 53.3311 236.392 53.4541L239.133 58H238.299L235.722 53.6523H233.241V58H232.537V48.0059H234.963ZM234.895 48.6279H233.241V53.0303H235.23C236.046 53.0303 236.682 52.8343 237.137 52.4424C237.598 52.0505 237.828 51.4876 237.828 50.7539C237.828 49.9473 237.586 49.3913 237.103 49.0859C236.62 48.7806 235.884 48.6279 234.895 48.6279ZM249.154 58H248.477V50.4531C248.477 50.1842 248.477 49.9495 248.477 49.749C248.477 49.5439 248.479 49.3617 248.484 49.2021C248.488 49.0381 248.495 48.8831 248.504 48.7373C248.381 48.8604 248.263 48.9674 248.149 49.0586C248.035 49.1497 247.889 49.266 247.711 49.4072L246.235 50.5283L245.852 50.0361L248.572 48.0059H249.154V58ZM257.168 47.8623C257.733 47.8623 258.228 47.9535 258.651 48.1357C259.08 48.318 259.412 48.5824 259.649 48.9287C259.886 49.2751 260.005 49.6943 260.005 50.1865C260.005 50.5921 259.911 50.9476 259.725 51.2529C259.542 51.5583 259.289 51.8271 258.966 52.0596C258.642 52.2874 258.266 52.4925 257.838 52.6748C258.339 52.8662 258.777 53.0872 259.15 53.3379C259.524 53.5885 259.813 53.8848 260.019 54.2266C260.228 54.5684 260.333 54.974 260.333 55.4434C260.333 56.0085 260.194 56.4938 259.916 56.8994C259.638 57.3005 259.26 57.6081 258.781 57.8223C258.303 58.0319 257.756 58.1367 257.141 58.1367C256.503 58.1367 255.949 58.0296 255.479 57.8154C255.01 57.6012 254.646 57.2982 254.386 56.9062C254.131 56.5098 254.003 56.0472 254.003 55.5186C254.003 55.0264 254.105 54.6048 254.311 54.2539C254.52 53.8984 254.807 53.5954 255.172 53.3447C255.536 53.0941 255.951 52.8822 256.416 52.709C256.033 52.5404 255.682 52.3467 255.363 52.1279C255.049 51.9092 254.796 51.6449 254.604 51.335C254.418 51.0205 254.324 50.6423 254.324 50.2002C254.324 49.7126 254.445 49.2956 254.687 48.9492C254.933 48.6029 255.27 48.3363 255.698 48.1494C256.127 47.958 256.617 47.8623 257.168 47.8623ZM254.693 55.5186C254.693 56.1338 254.91 56.626 255.343 56.9951C255.776 57.3643 256.37 57.5488 257.127 57.5488C257.883 57.5488 258.492 57.3665 258.952 57.002C259.412 56.6374 259.643 56.1201 259.643 55.4502C259.643 55.0765 259.554 54.7484 259.376 54.4658C259.203 54.1833 258.948 53.9349 258.61 53.7207C258.278 53.502 257.872 53.306 257.394 53.1328L257.065 53.0098C256.601 53.1784 256.19 53.3743 255.835 53.5977C255.479 53.8164 255.199 54.0807 254.994 54.3906C254.794 54.7005 254.693 55.0765 254.693 55.5186ZM257.161 48.457C256.537 48.457 256.022 48.6097 255.616 48.915C255.215 49.2204 255.015 49.6556 255.015 50.2207C255.015 50.599 255.108 50.9202 255.295 51.1846C255.482 51.4489 255.739 51.6768 256.067 51.8682C256.4 52.055 256.781 52.2282 257.209 52.3877C257.656 52.2054 258.034 52.014 258.344 51.8135C258.658 51.613 258.897 51.3828 259.062 51.123C259.226 50.8633 259.308 50.5557 259.308 50.2002C259.308 49.626 259.116 49.193 258.733 48.9014C258.351 48.6051 257.826 48.457 257.161 48.457ZM266.785 54.5342V53.8984H270.175V54.5342H266.785ZM284.782 52.9072C284.782 54.0238 284.584 54.9603 284.188 55.7168C283.796 56.4733 283.212 57.043 282.438 57.4258C281.668 57.8086 280.713 58 279.573 58H277.181V48.0059H279.888C280.954 48.0059 281.85 48.1927 282.574 48.5664C283.299 48.9401 283.848 49.4915 284.222 50.2207C284.596 50.9453 284.782 51.8408 284.782 52.9072ZM284.044 52.9346C284.044 51.9821 283.889 51.1868 283.579 50.5488C283.269 49.9108 282.795 49.4323 282.157 49.1133C281.519 48.7897 280.71 48.6279 279.731 48.6279H277.885V57.3779H279.539C281.048 57.3779 282.176 57.0088 282.923 56.2705C283.67 55.5277 284.044 54.4157 284.044 52.9346ZM293.228 58H287.766V48.0059H293.228V48.6416H288.47V52.4287H292.961V53.0645H288.47V57.3643H293.228V58ZM300.449 48.498C299.811 48.498 299.241 48.6074 298.74 48.8262C298.239 49.0404 297.815 49.3457 297.469 49.7422C297.122 50.1387 296.858 50.6126 296.676 51.1641C296.493 51.7109 296.402 52.3148 296.402 52.9756C296.402 53.887 296.546 54.6846 296.833 55.3682C297.12 56.0472 297.551 56.5736 298.125 56.9473C298.704 57.321 299.424 57.5078 300.285 57.5078C300.786 57.5078 301.242 57.4714 301.652 57.3984C302.062 57.321 302.443 57.223 302.794 57.1045V57.7197C302.461 57.8428 302.085 57.943 301.666 58.0205C301.251 58.098 300.768 58.1367 300.217 58.1367C299.219 58.1367 298.38 57.9225 297.701 57.4941C297.026 57.0658 296.518 56.4642 296.177 55.6895C295.835 54.9147 295.664 54.0101 295.664 52.9756C295.664 52.2327 295.771 51.5514 295.985 50.9316C296.199 50.3073 296.512 49.7673 296.922 49.3115C297.336 48.8512 297.84 48.4958 298.432 48.2451C299.025 47.9899 299.699 47.8623 300.456 47.8623C300.934 47.8623 301.39 47.9102 301.823 48.0059C302.261 48.097 302.671 48.2314 303.054 48.4092L302.78 49.0244C302.411 48.8421 302.033 48.71 301.645 48.6279C301.258 48.5413 300.859 48.498 300.449 48.498ZM311.061 58H305.599V48.0059H311.061V48.6416H306.303V52.4287H310.795V53.0645H306.303V57.3643H311.061V58ZM318.365 58L314.694 48.7715H314.66C314.669 48.9401 314.676 49.1178 314.68 49.3047C314.689 49.487 314.696 49.6784 314.701 49.8789C314.705 50.0794 314.707 50.2891 314.707 50.5078V58H314.038V48.0059H315.104L318.645 56.9062H318.686L322.254 48.0059H323.293V58H322.603V50.4258C322.603 50.248 322.605 50.0658 322.61 49.8789C322.614 49.6921 322.619 49.5075 322.623 49.3252C322.633 49.1383 322.642 48.9583 322.651 48.7852H322.61L318.925 58H318.365ZM326.823 48.0059H329.565C330.8 48.0059 331.702 48.1995 332.272 48.5869C332.846 48.9743 333.133 49.5918 333.133 50.4395C333.133 50.8223 333.058 51.1709 332.907 51.4854C332.762 51.7998 332.543 52.0641 332.251 52.2783C331.964 52.488 331.609 52.6315 331.185 52.709V52.7568C331.691 52.8343 332.108 52.9756 332.436 53.1807C332.768 53.3812 333.015 53.6478 333.174 53.9805C333.338 54.3086 333.42 54.7005 333.42 55.1562C333.42 55.8125 333.27 56.3503 332.969 56.7695C332.673 57.1888 332.26 57.4987 331.732 57.6992C331.203 57.8997 330.592 58 329.9 58H326.823V48.0059ZM327.528 52.4492H329.742C330.681 52.4492 331.36 52.2852 331.779 51.957C332.199 51.6289 332.408 51.1436 332.408 50.501C332.408 49.8356 332.183 49.3571 331.732 49.0654C331.28 48.7738 330.558 48.6279 329.565 48.6279H327.528V52.4492ZM327.528 53.0645V57.3779H329.879C330.804 57.3779 331.502 57.1911 331.971 56.8174C332.44 56.4391 332.675 55.8763 332.675 55.1289C332.675 54.6367 332.566 54.2402 332.347 53.9395C332.128 53.6341 331.8 53.4131 331.363 53.2764C330.93 53.1351 330.39 53.0645 329.742 53.0645H327.528ZM341.763 58H336.301V48.0059H341.763V48.6416H337.005V52.4287H341.496V53.0645H337.005V57.3643H341.763V58ZM347.166 48.0059C347.959 48.0059 348.62 48.0924 349.148 48.2656C349.681 48.4388 350.082 48.7236 350.351 49.1201C350.62 49.5166 350.755 50.0521 350.755 50.7266C350.755 51.2324 350.661 51.6676 350.474 52.0322C350.292 52.3923 350.039 52.6885 349.716 52.9209C349.392 53.1533 349.018 53.3311 348.595 53.4541L351.336 58H350.502L347.925 53.6523H345.443V58H344.739V48.0059H347.166ZM347.097 48.6279H345.443V53.0303H347.432C348.248 53.0303 348.884 52.8343 349.34 52.4424C349.8 52.0505 350.03 51.4876 350.03 50.7539C350.03 49.9473 349.789 49.3913 349.305 49.0859C348.822 48.7806 348.086 48.6279 347.097 48.6279ZM363.721 58H357.466V57.4121L360.406 54.3496C360.875 53.862 361.269 53.4222 361.588 53.0303C361.912 52.6338 362.156 52.2373 362.32 51.8408C362.488 51.4443 362.573 51 362.573 50.5078C362.573 49.8652 362.384 49.3662 362.005 49.0107C361.632 48.6553 361.123 48.4775 360.481 48.4775C360.048 48.4775 359.631 48.555 359.23 48.71C358.833 48.8649 358.446 49.0928 358.068 49.3936L357.685 48.9082C357.963 48.6803 358.255 48.4889 358.56 48.334C358.87 48.179 359.187 48.0628 359.51 47.9854C359.834 47.9033 360.157 47.8623 360.481 47.8623C361.051 47.8623 361.543 47.9717 361.957 48.1904C362.377 48.4046 362.703 48.7077 362.935 49.0996C363.167 49.4915 363.284 49.9518 363.284 50.4805C363.284 51.0273 363.188 51.5241 362.996 51.9707C362.81 52.4128 362.543 52.8457 362.197 53.2695C361.85 53.6934 361.44 54.1491 360.966 54.6367L358.362 57.3301V57.3574H363.721V58ZM367.429 56.373L367.49 56.5371C367.418 56.8789 367.326 57.2389 367.217 57.6172C367.112 57.9954 366.996 58.3714 366.868 58.7451C366.745 59.1234 366.613 59.4766 366.472 59.8047H365.939C366.057 59.39 366.164 58.9844 366.26 58.5879C366.356 58.196 366.44 57.8154 366.513 57.4463C366.586 57.0726 366.645 56.7148 366.691 56.373H367.429ZM380.464 58H374.209V57.4121L377.148 54.3496C377.618 53.862 378.012 53.4222 378.331 53.0303C378.654 52.6338 378.898 52.2373 379.062 51.8408C379.231 51.4443 379.315 51 379.315 50.5078C379.315 49.8652 379.126 49.3662 378.748 49.0107C378.374 48.6553 377.866 48.4775 377.223 48.4775C376.79 48.4775 376.373 48.555 375.972 48.71C375.576 48.8649 375.189 49.0928 374.81 49.3936L374.428 48.9082C374.706 48.6803 374.997 48.4889 375.303 48.334C375.612 48.179 375.929 48.0628 376.253 47.9854C376.576 47.9033 376.9 47.8623 377.223 47.8623C377.793 47.8623 378.285 47.9717 378.7 48.1904C379.119 48.4046 379.445 48.7077 379.678 49.0996C379.91 49.4915 380.026 49.9518 380.026 50.4805C380.026 51.0273 379.93 51.5241 379.739 51.9707C379.552 52.4128 379.286 52.8457 378.939 53.2695C378.593 53.6934 378.183 54.1491 377.709 54.6367L375.104 57.3301V57.3574H380.464V58ZM389.312 52.9756C389.312 53.8096 389.248 54.5479 389.121 55.1904C388.993 55.833 388.799 56.373 388.54 56.8105C388.28 57.248 387.949 57.5785 387.548 57.8018C387.147 58.0251 386.673 58.1367 386.127 58.1367C385.434 58.1367 384.851 57.943 384.377 57.5557C383.903 57.1683 383.543 56.5918 383.296 55.8262C383.055 55.0605 382.934 54.1104 382.934 52.9756C382.934 51.9639 383.037 51.0729 383.242 50.3027C383.451 49.5326 383.791 48.931 384.26 48.498C384.73 48.0651 385.354 47.8486 386.133 47.8486C386.908 47.8486 387.528 48.0605 387.993 48.4844C388.462 48.9082 388.799 49.5052 389.004 50.2754C389.21 51.041 389.312 51.9411 389.312 52.9756ZM383.631 52.9756C383.631 54.001 383.72 54.8509 383.898 55.5254C384.076 56.1953 384.349 56.6966 384.718 57.0293C385.087 57.362 385.557 57.5283 386.127 57.5283C386.714 57.5283 387.191 57.362 387.555 57.0293C387.92 56.6966 388.186 56.193 388.355 55.5186C388.528 54.8441 388.615 53.9964 388.615 52.9756C388.615 52.0368 388.54 51.2301 388.389 50.5557C388.243 49.8812 387.99 49.3639 387.63 49.0039C387.27 48.6439 386.771 48.4639 386.133 48.4639C385.509 48.4639 385.015 48.6484 384.65 49.0176C384.285 49.3867 384.023 49.9085 383.864 50.583C383.709 51.2575 383.631 52.055 383.631 52.9756ZM397.86 58H391.605V57.4121L394.544 54.3496C395.014 53.862 395.408 53.4222 395.727 53.0303C396.051 52.6338 396.294 52.2373 396.458 51.8408C396.627 51.4443 396.711 51 396.711 50.5078C396.711 49.8652 396.522 49.3662 396.144 49.0107C395.77 48.6553 395.262 48.4775 394.62 48.4775C394.187 48.4775 393.77 48.555 393.369 48.71C392.972 48.8649 392.585 49.0928 392.206 49.3936L391.824 48.9082C392.102 48.6803 392.393 48.4889 392.699 48.334C393.009 48.179 393.325 48.0628 393.649 47.9854C393.972 47.9033 394.296 47.8623 394.62 47.8623C395.189 47.8623 395.681 47.9717 396.096 48.1904C396.515 48.4046 396.841 48.7077 397.074 49.0996C397.306 49.4915 397.422 49.9518 397.422 50.4805C397.422 51.0273 397.327 51.5241 397.135 51.9707C396.948 52.4128 396.682 52.8457 396.335 53.2695C395.989 53.6934 395.579 54.1491 395.105 54.6367L392.5 57.3301V57.3574H397.86V58ZM406.237 50.3096C406.237 50.7516 406.145 51.1413 405.963 51.4785C405.781 51.8158 405.53 52.0915 405.211 52.3057C404.897 52.5199 404.534 52.6657 404.124 52.7432V52.7842C404.908 52.8844 405.507 53.1419 405.922 53.5566C406.337 53.9668 406.544 54.5273 406.544 55.2383C406.544 55.7988 406.412 56.2979 406.148 56.7354C405.883 57.1729 405.485 57.5169 404.951 57.7676C404.423 58.0137 403.757 58.1367 402.955 58.1367C402.413 58.1367 401.909 58.0866 401.445 57.9863C400.98 57.8861 400.556 57.7471 400.173 57.5693V56.8926C400.551 57.0794 400.987 57.2344 401.479 57.3574C401.975 57.4759 402.47 57.5352 402.962 57.5352C403.928 57.5352 404.646 57.3278 405.115 56.9131C405.585 56.4938 405.82 55.9333 405.82 55.2314C405.82 54.721 405.694 54.3132 405.444 54.0078C405.193 53.6979 404.84 53.4723 404.384 53.3311C403.933 53.1898 403.402 53.1191 402.791 53.1191H401.697V52.5107H402.798C403.313 52.5107 403.776 52.431 404.186 52.2715C404.596 52.1074 404.919 51.8659 405.156 51.5469C405.398 51.2233 405.519 50.8223 405.519 50.3438C405.519 49.724 405.321 49.2568 404.924 48.9424C404.532 48.6279 404.008 48.4707 403.352 48.4707C403.001 48.4707 402.67 48.5072 402.361 48.5801C402.055 48.653 401.759 48.7601 401.472 48.9014C401.189 49.0381 400.907 49.2044 400.624 49.4004L400.269 48.9014C400.661 48.6006 401.112 48.3522 401.622 48.1562C402.137 47.9603 402.711 47.8623 403.345 47.8623C404.252 47.8623 404.96 48.0811 405.471 48.5186C405.981 48.9561 406.237 49.5531 406.237 50.3096Z" fill="#27272A"/>
<path d="M168.05 90H165.89V76.6H168.05V90ZM175.09 84.62H166.55V82.68H175.09V84.62ZM175.39 78.54H166.55V76.6H175.39V78.54ZM178.963 78.8H176.823L176.803 76.6H178.963V78.8ZM178.983 90H176.823V80H178.983V90ZM190.226 90H188.066V84.22C188.066 83.34 187.9 82.7067 187.566 82.32C187.233 81.92 186.606 81.72 185.686 81.72C185.1 81.72 184.62 81.8067 184.246 81.98C183.873 82.14 183.593 82.4067 183.406 82.78C183.22 83.14 183.126 83.6333 183.126 84.26H182.746L182.566 81.92H183.046C183.193 81.56 183.413 81.2267 183.706 80.92C184 80.6133 184.373 80.36 184.826 80.16C185.293 79.96 185.846 79.86 186.486 79.86C187.353 79.86 188.06 80.0267 188.606 80.36C189.153 80.6933 189.56 81.1533 189.826 81.74C190.093 82.3267 190.226 83 190.226 83.76V90ZM183.126 90H180.966V80.06H182.946V83.04L183.126 83.14V90ZM200.675 90H198.675V88.04L198.615 87.5V83.68C198.615 82.9333 198.435 82.4267 198.075 82.16C197.729 81.8933 197.162 81.76 196.375 81.76C195.589 81.76 195.022 81.9 194.675 82.18C194.342 82.46 194.175 82.9267 194.175 83.58V83.88H192.095V83.68C192.095 82.9333 192.275 82.2733 192.635 81.7C193.009 81.1267 193.522 80.68 194.175 80.36C194.842 80.0267 195.615 79.86 196.495 79.86C197.429 79.86 198.202 80.0333 198.815 80.38C199.429 80.7267 199.889 81.2067 200.195 81.82C200.515 82.42 200.675 83.1333 200.675 83.96V90ZM194.975 90.2C194.082 90.2 193.329 89.9733 192.715 89.52C192.115 89.0533 191.815 88.3933 191.815 87.54C191.815 86.98 191.942 86.5133 192.195 86.14C192.462 85.7667 192.842 85.46 193.335 85.22C193.829 84.98 194.429 84.8133 195.135 84.72L198.815 84.2V85.72L195.455 86.22C194.882 86.3 194.482 86.42 194.255 86.58C194.029 86.74 193.915 87.0067 193.915 87.38C193.915 87.7667 194.049 88.0467 194.315 88.22C194.595 88.3933 195.049 88.48 195.675 88.48C196.155 88.48 196.615 88.4067 197.055 88.26C197.509 88.1 197.882 87.84 198.175 87.48C198.469 87.1067 198.615 86.5867 198.615 85.92L198.895 88.46L198.575 88.44C198.389 88.7467 198.129 89.0333 197.795 89.3C197.475 89.5667 197.082 89.7867 196.615 89.96C196.149 90.12 195.602 90.2 194.975 90.2ZM204.904 90H202.744V76.6H204.904V90ZM217.25 90H210.85V76.6H217.03C217.897 76.6 218.644 76.72 219.27 76.96C219.897 77.2 220.377 77.5667 220.71 78.06C221.044 78.5533 221.21 79.18 221.21 79.94C221.21 80.7133 220.99 81.3533 220.55 81.86C220.124 82.3667 219.477 82.6867 218.61 82.82V82.98C219.637 83.1 220.404 83.4667 220.91 84.08C221.43 84.6933 221.69 85.44 221.69 86.32C221.69 87.08 221.517 87.7333 221.17 88.28C220.824 88.8267 220.317 89.2533 219.65 89.56C218.997 89.8533 218.197 90 217.25 90ZM213.01 83.96V88.04H217.19C218.004 88.04 218.59 87.9 218.95 87.62C219.324 87.34 219.51 86.8067 219.51 86.02C219.51 85.22 219.324 84.68 218.95 84.4C218.577 84.1067 217.99 83.96 217.19 83.96H213.01ZM213.01 78.54V82.16H216.83C217.63 82.16 218.204 82.0333 218.55 81.78C218.897 81.5133 219.07 81.04 219.07 80.36C219.07 79.6667 218.904 79.1933 218.57 78.94C218.25 78.6733 217.69 78.54 216.89 78.54H213.01ZM227.166 90.2C226.313 90.2 225.606 90.0267 225.046 89.68C224.486 89.32 224.073 88.84 223.806 88.24C223.54 87.6267 223.406 86.9467 223.406 86.2V80.06H225.566V85.8C225.566 86.6933 225.753 87.34 226.126 87.74C226.5 88.14 227.113 88.34 227.966 88.34C228.526 88.34 229 88.2533 229.386 88.08C229.773 87.8933 230.066 87.6067 230.266 87.22C230.466 86.82 230.566 86.3 230.566 85.66H231.126V88.02H230.646C230.5 88.3933 230.273 88.7467 229.966 89.08C229.673 89.4133 229.293 89.6867 228.826 89.9C228.373 90.1 227.82 90.2 227.166 90.2ZM232.726 90H230.726V87.02L230.566 86.92V80.06H232.726V90ZM238.794 90.2C237.381 90.2 236.294 89.7333 235.534 88.8C234.787 87.8533 234.414 86.5933 234.414 85.02C234.414 83.4467 234.781 82.1933 235.514 81.26C236.261 80.3267 237.314 79.86 238.674 79.86C239.554 79.86 240.261 80.04 240.794 80.4C241.341 80.7467 241.721 81.1467 241.934 81.6H242.474L242.374 84.14H241.994C241.994 83.58 241.887 83.12 241.674 82.76C241.461 82.4 241.154 82.1333 240.754 81.96C240.354 81.7867 239.861 81.7 239.274 81.7C238.794 81.7 238.381 81.76 238.034 81.88C237.701 82 237.421 82.1867 237.194 82.44C236.981 82.6933 236.821 83.0333 236.714 83.46C236.621 83.8867 236.574 84.4067 236.574 85.02C236.574 85.62 236.621 86.14 236.714 86.58C236.821 87.0067 236.981 87.3533 237.194 87.62C237.421 87.8733 237.707 88.06 238.054 88.18C238.401 88.3 238.807 88.36 239.274 88.36C239.861 88.36 240.354 88.2733 240.754 88.1C241.154 87.9133 241.461 87.64 241.674 87.28C241.887 86.92 241.994 86.4667 241.994 85.92H242.374L242.474 88.36H242.074C241.847 88.9333 241.454 89.3867 240.894 89.72C240.347 90.04 239.647 90.2 238.794 90.2ZM244.154 90H242.154V87.64L241.994 87.38V76.6H244.154V90ZM250.901 93.6C249.967 93.6 249.154 93.4533 248.461 93.16C247.781 92.8667 247.254 92.44 246.881 91.88C246.507 91.3333 246.321 90.66 246.321 89.86H248.481C248.481 90.3133 248.547 90.6733 248.681 90.94C248.814 91.2067 249.061 91.3933 249.421 91.5C249.781 91.62 250.294 91.68 250.961 91.68C251.614 91.68 252.114 91.6067 252.461 91.46C252.807 91.3133 253.047 91.0667 253.181 90.72C253.314 90.3733 253.381 89.8933 253.381 89.28V82.68L253.541 82.42V80.06H255.541V89.28C255.541 90.2533 255.354 91.0533 254.981 91.68C254.607 92.32 254.074 92.8 253.381 93.12C252.701 93.44 251.874 93.6 250.901 93.6ZM250.061 89.06C248.687 89.06 247.634 88.6467 246.901 87.82C246.167 86.98 245.801 85.86 245.801 84.46C245.801 83.06 246.174 81.9467 246.921 81.12C247.667 80.28 248.741 79.86 250.141 79.86C250.954 79.86 251.654 80.0267 252.241 80.36C252.827 80.68 253.234 81.1267 253.461 81.7H253.861L253.761 84.14H253.381C253.381 83.58 253.267 83.12 253.041 82.76C252.814 82.4 252.494 82.1333 252.081 81.96C251.667 81.7867 251.187 81.7 250.641 81.7C250.014 81.7 249.501 81.7867 249.101 81.96C248.714 82.1333 248.427 82.4267 248.241 82.84C248.054 83.24 247.961 83.78 247.961 84.46C247.961 84.9667 248.014 85.4 248.121 85.76C248.227 86.1067 248.394 86.3867 248.621 86.6C248.847 86.8133 249.134 86.9733 249.481 87.08C249.827 87.1733 250.227 87.22 250.681 87.22C251.227 87.22 251.701 87.1333 252.101 86.96C252.501 86.7733 252.814 86.5 253.041 86.14C253.267 85.78 253.381 85.32 253.381 84.76H253.821V87.3H253.301C253.074 87.78 252.681 88.1933 252.121 88.54C251.561 88.8867 250.874 89.06 250.061 89.06ZM261.988 90.2C260.908 90.2 260.008 89.9867 259.288 89.56C258.568 89.12 258.034 88.5133 257.688 87.74C257.341 86.9533 257.168 86.0467 257.168 85.02C257.168 83.9933 257.361 83.0933 257.748 82.32C258.148 81.5467 258.708 80.9467 259.428 80.52C260.148 80.08 261.001 79.86 261.988 79.86C262.881 79.86 263.668 80.0333 264.348 80.38C265.041 80.7133 265.574 81.2 265.948 81.84C266.334 82.48 266.528 83.2533 266.528 84.16C266.528 84.4267 266.514 84.6867 266.488 84.94C266.474 85.18 266.454 85.38 266.428 85.54H258.188V84.1H264.668L264.448 84.3C264.501 83.6867 264.434 83.1867 264.248 82.8C264.074 82.4133 263.788 82.1267 263.388 81.94C263.001 81.7533 262.514 81.66 261.928 81.66C260.874 81.66 260.154 81.9267 259.768 82.46C259.381 82.98 259.188 83.7 259.188 84.62V85.22C259.188 85.8867 259.268 86.4533 259.428 86.92C259.601 87.3733 259.894 87.7133 260.308 87.94C260.721 88.1667 261.288 88.28 262.008 88.28C262.848 88.28 263.441 88.1467 263.788 87.88C264.134 87.6133 264.308 87.26 264.308 86.82V86.66H266.448V86.84C266.448 87.52 266.261 88.1133 265.888 88.62C265.514 89.1133 264.994 89.5 264.328 89.78C263.674 90.06 262.894 90.2 261.988 90.2ZM272.314 90C271.22 90 270.38 89.7667 269.794 89.3C269.22 88.8333 268.934 88.0467 268.934 86.94V80.28L269.434 77.6H271.094V86.84C271.094 87.36 271.22 87.6933 271.474 87.84C271.74 87.9733 272.214 88.04 272.894 88.04H274.094V89.82C273.894 89.8733 273.634 89.92 273.314 89.96C272.994 89.9867 272.66 90 272.314 90ZM274.094 81.86H267.274V80.06H274.094V81.86ZM281.356 85.04H274.976V83.2H281.356V85.04ZM290.83 90.02H288.49C288.49 88.5533 288.637 87.2333 288.93 86.06C289.237 84.8733 289.637 83.8133 290.13 82.88C290.623 81.9467 291.157 81.1333 291.73 80.44C292.303 79.7333 292.863 79.1267 293.41 78.62V78.54H285.93V76.6H295.99V78.38C295.083 79.22 294.303 80.08 293.65 80.96C292.997 81.8267 292.463 82.7333 292.05 83.68C291.637 84.6267 291.33 85.6267 291.13 86.68C290.93 87.72 290.83 88.8333 290.83 90.02ZM301.772 90H299.612V79.8H296.792V78.26H297.312C297.939 78.26 298.452 78.1333 298.852 77.88C299.252 77.6267 299.592 77.2 299.872 76.6H301.772V90ZM306.743 90H304.003V86.9H306.743V90ZM319.607 87.22H307.647V85.72L315.027 76.6H316.847L315.607 79.26H315.227L310.407 85.12V85.28H319.607V87.22ZM317.527 90H315.387V76.6H317.527V90ZM340.793 90H338.633V84.22C338.633 83.34 338.467 82.7067 338.133 82.32C337.813 81.92 337.2 81.72 336.293 81.72C335.48 81.72 334.873 81.9133 334.473 82.3C334.087 82.6733 333.893 83.3133 333.893 84.22L333.513 84.26L333.333 81.92H333.653C333.813 81.5733 334.033 81.2467 334.313 80.94C334.607 80.62 334.98 80.36 335.433 80.16C335.887 79.96 336.44 79.86 337.093 79.86C337.96 79.86 338.66 80.0267 339.193 80.36C339.74 80.6933 340.14 81.1533 340.393 81.74C340.66 82.3267 340.793 83 340.793 83.76V90ZM326.993 90H324.833V80.06H326.813V83.04L326.993 83.14V90ZM333.893 90H331.733V84.22C331.733 83.34 331.567 82.7067 331.233 82.32C330.913 81.92 330.3 81.72 329.393 81.72C328.58 81.72 327.973 81.9067 327.573 82.28C327.187 82.6533 326.993 83.2933 326.993 84.2L326.613 84.26L326.433 81.92H326.913C327.06 81.56 327.273 81.2267 327.553 80.92C327.847 80.6133 328.22 80.36 328.673 80.16C329.127 79.96 329.667 79.86 330.293 79.86C331.133 79.86 331.813 80.0267 332.333 80.36C332.867 80.6933 333.26 81.1533 333.513 81.74C333.767 82.3267 333.893 83 333.893 83.76V90ZM344.881 78.8H342.741L342.721 76.6H344.881V78.8ZM344.901 90H342.741V80H344.901V90ZM349.044 90H346.884V76.6H349.044V90ZM353.419 90H351.259V76.6H353.419V90ZM357.557 78.8H355.417L355.397 76.6H357.557V78.8ZM357.577 90H355.417V80H357.577V90ZM364.022 90.2C363.009 90.2 362.129 89.9867 361.382 89.56C360.636 89.12 360.062 88.5133 359.662 87.74C359.262 86.9533 359.062 86.0467 359.062 85.02C359.062 83.9933 359.262 83.0933 359.662 82.32C360.062 81.5467 360.636 80.9467 361.382 80.52C362.129 80.08 363.009 79.86 364.022 79.86C365.036 79.86 365.902 80.08 366.622 80.52C367.356 80.9467 367.916 81.5467 368.302 82.32C368.702 83.0933 368.902 83.9933 368.902 85.02C368.902 86.0467 368.702 86.9533 368.302 87.74C367.916 88.5133 367.356 89.12 366.622 89.56C365.902 89.9867 365.036 90.2 364.022 90.2ZM364.022 88.28C365.062 88.28 365.789 88.02 366.202 87.5C366.616 86.9667 366.822 86.14 366.822 85.02C366.822 83.9 366.616 83.08 366.202 82.56C365.789 82.04 365.062 81.78 364.022 81.78C362.969 81.78 362.236 82.04 361.822 82.56C361.409 83.08 361.202 83.9 361.202 85.02C361.202 86.14 361.409 86.9667 361.822 87.5C362.236 88.02 362.969 88.28 364.022 88.28ZM379.777 90H377.617V84.22C377.617 83.34 377.45 82.7067 377.117 82.32C376.784 81.92 376.157 81.72 375.237 81.72C374.65 81.72 374.17 81.8067 373.797 81.98C373.424 82.14 373.144 82.4067 372.957 82.78C372.77 83.14 372.677 83.6333 372.677 84.26H372.297L372.117 81.92H372.597C372.744 81.56 372.964 81.2267 373.257 80.92C373.55 80.6133 373.924 80.36 374.377 80.16C374.844 79.96 375.397 79.86 376.037 79.86C376.904 79.86 377.61 80.0267 378.157 80.36C378.704 80.6933 379.11 81.1533 379.377 81.74C379.644 82.3267 379.777 83 379.777 83.76V90ZM372.677 90H370.517V80.06H372.497V83.04L372.677 83.14V90ZM386.995 90H384.735L389.955 76.6H393.055L398.275 90H395.935L392.415 81.04L391.555 78.54H391.395L390.515 81.04L386.995 90ZM395.755 86.52H387.315V84.58H395.755V86.52ZM401.35 90H399.19V76.6H404.95C405.937 76.6 406.79 76.76 407.51 77.08C408.23 77.3867 408.784 77.84 409.17 78.44C409.57 79.0267 409.77 79.7467 409.77 80.6C409.77 81.3333 409.624 81.9733 409.33 82.52C409.05 83.0533 408.63 83.4733 408.07 83.78C407.524 84.0733 406.85 84.24 406.05 84.28V84.44C406.544 84.6 406.95 84.8333 407.27 85.14C407.59 85.4467 407.87 85.8267 408.11 86.28L410.13 90H407.61L405.71 86.54C405.51 86.1533 405.297 85.8333 405.07 85.58C404.844 85.3267 404.564 85.14 404.23 85.02C403.897 84.9 403.47 84.84 402.95 84.84H401.35V90ZM401.35 78.54V83.06H405.21C406.077 83.06 406.697 82.8867 407.07 82.54C407.444 82.1933 407.63 81.6133 407.63 80.8C407.63 80 407.444 79.4267 407.07 79.08C406.697 78.72 406.077 78.54 405.21 78.54H401.35ZM417.758 90H411.358V76.6H417.538C418.405 76.6 419.152 76.72 419.778 76.96C420.405 77.2 420.885 77.5667 421.218 78.06C421.552 78.5533 421.718 79.18 421.718 79.94C421.718 80.7133 421.498 81.3533 421.058 81.86C420.632 82.3667 419.985 82.6867 419.118 82.82V82.98C420.145 83.1 420.912 83.4667 421.418 84.08C421.938 84.6933 422.198 85.44 422.198 86.32C422.198 87.08 422.025 87.7333 421.678 88.28C421.332 88.8267 420.825 89.2533 420.158 89.56C419.505 89.8533 418.705 90 417.758 90ZM413.518 83.96V88.04H417.698C418.512 88.04 419.098 87.9 419.458 87.62C419.832 87.34 420.018 86.8067 420.018 86.02C420.018 85.22 419.832 84.68 419.458 84.4C419.085 84.1067 418.498 83.96 417.698 83.96H413.518ZM413.518 78.54V82.16H417.338C418.138 82.16 418.712 82.0333 419.058 81.78C419.405 81.5133 419.578 81.04 419.578 80.36C419.578 79.6667 419.412 79.1933 419.078 78.94C418.758 78.6733 418.198 78.54 417.398 78.54H413.518Z" fill="#71717A"/>
<path d="M10.23 182.52H2.91V179.61H10.62C11.94 179.61 12.88 179.32 13.44 178.74C14.02 178.16 14.31 177.15 14.31 175.71C14.31 174.27 14.02 173.26 13.44 172.68C12.88 172.1 11.94 171.81 10.62 171.81H2.91V168.9H10.23C11.63 168.9 12.88 169.17 13.98 169.71C15.08 170.25 15.94 171.03 16.56 172.05C17.2 173.05 17.52 174.27 17.52 175.71C17.52 177.15 17.2 178.38 16.56 179.4C15.94 180.42 15.08 181.2 13.98 181.74C12.88 182.26 11.63 182.52 10.23 182.52ZM4.92 189H1.68V168.9H4.92V189ZM33.6148 189H30.3748V180.33C30.3748 179.01 30.1148 178.06 29.5948 177.48C29.0948 176.88 28.1648 176.58 26.8048 176.58C25.5048 176.58 24.5348 176.87 23.8948 177.45C23.2748 178.01 22.9648 179 22.9648 180.42H22.3948L22.3648 176.58H23.0848C23.3248 176.12 23.6548 175.68 24.0748 175.26C24.5148 174.82 25.0648 174.47 25.7248 174.21C26.4048 173.93 27.1848 173.79 28.0648 173.79C29.3848 173.79 30.4448 174.05 31.2448 174.57C32.0648 175.07 32.6648 175.76 33.0448 176.64C33.4248 177.52 33.6148 178.51 33.6148 179.61V189ZM22.9648 189H19.7248V168.9H22.9648V189ZM49.3763 189H46.3763V186.06L46.2863 185.25V179.52C46.2863 178.4 46.0163 177.64 45.4763 177.24C44.9563 176.84 44.1063 176.64 42.9263 176.64C41.7463 176.64 40.8963 176.85 40.3763 177.27C39.8763 177.69 39.6263 178.39 39.6263 179.37V179.82H36.5063V179.52C36.5063 178.4 36.7763 177.41 37.3163 176.55C37.8763 175.69 38.6463 175.02 39.6263 174.54C40.6263 174.04 41.7863 173.79 43.1063 173.79C44.5063 173.79 45.6663 174.05 46.5863 174.57C47.5063 175.09 48.1963 175.81 48.6563 176.73C49.1363 177.63 49.3763 178.7 49.3763 179.94V189ZM40.8263 189.3C39.4863 189.3 38.3563 188.96 37.4363 188.28C36.5363 187.58 36.0863 186.59 36.0863 185.31C36.0863 184.47 36.2763 183.77 36.6563 183.21C37.0563 182.65 37.6263 182.19 38.3663 181.83C39.1063 181.47 40.0063 181.22 41.0663 181.08L46.5863 180.3V182.58L41.5463 183.33C40.6863 183.45 40.0863 183.63 39.7463 183.87C39.4063 184.11 39.2363 184.51 39.2363 185.07C39.2363 185.65 39.4363 186.07 39.8363 186.33C40.2563 186.59 40.9363 186.72 41.8763 186.72C42.5963 186.72 43.2863 186.61 43.9463 186.39C44.6263 186.15 45.1863 185.76 45.6263 185.22C46.0663 184.66 46.2863 183.88 46.2863 182.88L46.7063 186.69L46.2263 186.66C45.9463 187.12 45.5563 187.55 45.0563 187.95C44.5763 188.35 43.9863 188.68 43.2863 188.94C42.5863 189.18 41.7663 189.3 40.8263 189.3ZM58.6608 189.3C56.4808 189.3 54.8308 188.87 53.7108 188.01C52.5908 187.13 52.0308 185.78 52.0308 183.96V183.9H55.1508V184.44C55.1508 184.96 55.2508 185.39 55.4508 185.73C55.6708 186.05 56.0308 186.29 56.5308 186.45C57.0508 186.59 57.7808 186.66 58.7208 186.66C59.5208 186.66 60.1208 186.6 60.5208 186.48C60.9408 186.34 61.2208 186.15 61.3608 185.91C61.5008 185.67 61.5708 185.37 61.5708 185.01C61.5708 184.41 61.3608 183.99 60.9408 183.75C60.5208 183.49 59.7708 183.26 58.6908 183.06L56.3508 182.67C55.4708 182.49 54.7008 182.24 54.0408 181.92C53.4008 181.58 52.9008 181.12 52.5408 180.54C52.2008 179.94 52.0308 179.19 52.0308 178.29C52.0308 176.95 52.5608 175.87 53.6208 175.05C54.6808 174.21 56.1808 173.79 58.1208 173.79C59.3008 173.79 60.3508 173.98 61.2708 174.36C62.1908 174.74 62.9208 175.31 63.4608 176.07C64.0008 176.83 64.2708 177.78 64.2708 178.92V179.19H61.1808V178.83C61.1808 178.35 61.1008 177.94 60.9408 177.6C60.7808 177.24 60.4808 176.96 60.0408 176.76C59.6008 176.56 58.9308 176.46 58.0308 176.46C56.8508 176.46 56.0708 176.61 55.6908 176.91C55.3108 177.21 55.1208 177.65 55.1208 178.23C55.1208 178.81 55.2908 179.22 55.6308 179.46C55.9908 179.68 56.6908 179.9 57.7308 180.12L60.2808 180.6C61.2408 180.78 62.0408 181.05 62.6808 181.41C63.3208 181.77 63.8008 182.24 64.1208 182.82C64.4608 183.4 64.6308 184.09 64.6308 184.89C64.6308 186.29 64.1008 187.38 63.0408 188.16C62.0008 188.92 60.5408 189.3 58.6608 189.3ZM73.8743 189.3C72.2543 189.3 70.9043 188.98 69.8243 188.34C68.7443 187.68 67.9443 186.77 67.4243 185.61C66.9043 184.43 66.6443 183.07 66.6443 181.53C66.6443 179.99 66.9343 178.64 67.5143 177.48C68.1143 176.32 68.9543 175.42 70.0343 174.78C71.1143 174.12 72.3943 173.79 73.8743 173.79C75.2143 173.79 76.3943 174.05 77.4143 174.57C78.4543 175.07 79.2543 175.8 79.8143 176.76C80.3943 177.72 80.6843 178.88 80.6843 180.24C80.6843 180.64 80.6643 181.03 80.6243 181.41C80.6043 181.77 80.5743 182.07 80.5343 182.31H68.1743V180.15H77.8943L77.5643 180.45C77.6443 179.53 77.5443 178.78 77.2643 178.2C77.0043 177.62 76.5743 177.19 75.9743 176.91C75.3943 176.63 74.6643 176.49 73.7843 176.49C72.2043 176.49 71.1243 176.89 70.5443 177.69C69.9643 178.47 69.6743 179.55 69.6743 180.93V181.83C69.6743 182.83 69.7943 183.68 70.0343 184.38C70.2943 185.06 70.7343 185.57 71.3543 185.91C71.9743 186.25 72.8243 186.42 73.9043 186.42C75.1643 186.42 76.0543 186.22 76.5743 185.82C77.0943 185.42 77.3543 184.89 77.3543 184.23V183.99H80.5643V184.26C80.5643 185.28 80.2843 186.17 79.7243 186.93C79.1643 187.67 78.3843 188.25 77.3843 188.67C76.4043 189.09 75.2343 189.3 73.8743 189.3ZM104.07 189H89.2505V186.99C89.2505 185.71 89.5005 184.65 90.0005 183.81C90.5205 182.95 91.1905 182.22 92.0105 181.62C92.8305 181 93.7105 180.46 94.6505 180L97.7405 178.38C98.4805 178.02 99.0705 177.67 99.5105 177.33C99.9505 176.97 100.27 176.58 100.47 176.16C100.67 175.74 100.77 175.24 100.77 174.66C100.77 174.04 100.66 173.5 100.44 173.04C100.24 172.56 99.8505 172.19 99.2705 171.93C98.7105 171.67 97.8705 171.54 96.7505 171.54C95.5505 171.54 94.6305 171.68 93.9905 171.96C93.3505 172.24 92.9105 172.68 92.6705 173.28C92.4505 173.86 92.3405 174.61 92.3405 175.53V175.95H89.1005V175.47C89.1005 174.21 89.3705 173.06 89.9105 172.02C90.4505 170.98 91.3005 170.15 92.4605 169.53C93.6405 168.91 95.1505 168.6 96.9905 168.6C98.6705 168.6 100.02 168.87 101.04 169.41C102.06 169.93 102.81 170.64 103.29 171.54C103.77 172.42 104.01 173.42 104.01 174.54C104.01 175.64 103.78 176.59 103.32 177.39C102.88 178.17 102.29 178.84 101.55 179.4C100.83 179.96 100.04 180.47 99.1805 180.93L96.2405 182.43C95.2205 182.95 94.3605 183.48 93.6605 184.02C92.9805 184.56 92.6505 185.24 92.6705 186.06H96.3005H104.07V189Z" fill="#9DCCED"/>
<circle cx="133.5" cy="181.5" r="11.2903" stroke="#213147" stroke-width="2.41935"/>
<circle cx="133.499" cy="181.5" r="8.46774" fill="#213147"/>
<path d="M133.5 194L133.5 314" stroke="#213147"/>
<path d="M164.28 189H162.12V175.6H164.28V189ZM171.42 189H162.76V187.04H171.42V189ZM175.613 189H173.473V175.6H175.613V189ZM180.173 177.54H168.913V175.6H180.173V177.54ZM183.206 189H181.046V175.6H183.206V189ZM191.199 184.68H186.319V182.74H191.459C192.339 182.74 192.966 182.547 193.339 182.16C193.726 181.773 193.919 181.1 193.919 180.14C193.919 179.18 193.726 178.507 193.339 178.12C192.966 177.733 192.339 177.54 191.459 177.54H186.319V175.6H191.199C192.132 175.6 192.966 175.78 193.699 176.14C194.432 176.5 195.006 177.02 195.419 177.7C195.846 178.367 196.059 179.18 196.059 180.14C196.059 181.1 195.846 181.92 195.419 182.6C195.006 183.28 194.432 183.8 193.699 184.16C192.966 184.507 192.132 184.68 191.199 184.68ZM187.659 189H185.499V175.6H187.659V189ZM203.211 184.68H198.331V182.74H203.471C204.351 182.74 204.977 182.547 205.351 182.16C205.737 181.773 205.931 181.1 205.931 180.14C205.931 179.18 205.737 178.507 205.351 178.12C204.977 177.733 204.351 177.54 203.471 177.54H198.331V175.6H203.211C204.144 175.6 204.977 175.78 205.711 176.14C206.444 176.5 207.017 177.02 207.431 177.7C207.857 178.367 208.071 179.18 208.071 180.14C208.071 181.1 207.857 181.92 207.431 182.6C207.017 183.28 206.444 183.8 205.711 184.16C204.977 184.507 204.144 184.68 203.211 184.68ZM199.671 189H197.511V175.6H199.671V189Z" fill="#3F3F46"/>
<path d="M166.735 219L163.064 209.771H163.03C163.039 209.94 163.046 210.118 163.051 210.305C163.06 210.487 163.067 210.678 163.071 210.879C163.076 211.079 163.078 211.289 163.078 211.508V219H162.408V209.006H163.475L167.016 217.906H167.057L170.625 209.006H171.664V219H170.974V211.426C170.974 211.248 170.976 211.066 170.98 210.879C170.985 210.692 170.99 210.507 170.994 210.325C171.003 210.138 171.012 209.958 171.021 209.785H170.98L167.296 219H166.735ZM181.449 219L180.089 215.466H175.891L174.504 219H173.786L177.717 208.972H178.359L182.187 219H181.449ZM179.863 214.83L178.482 211.084C178.446 210.988 178.4 210.865 178.346 210.715C178.295 210.564 178.241 210.405 178.181 210.236C178.127 210.068 178.072 209.908 178.017 209.758C177.972 209.917 177.922 210.077 177.867 210.236C177.812 210.396 177.76 210.551 177.71 210.701C177.66 210.847 177.612 210.979 177.566 211.098L176.131 214.83H179.863ZM186.729 209.006C187.522 209.006 188.183 209.092 188.712 209.266C189.245 209.439 189.646 209.724 189.915 210.12C190.184 210.517 190.318 211.052 190.318 211.727C190.318 212.232 190.225 212.668 190.038 213.032C189.855 213.392 189.602 213.688 189.279 213.921C188.955 214.153 188.582 214.331 188.158 214.454L190.899 219H190.065L187.488 214.652H185.006V219H184.302V209.006H186.729ZM186.661 209.628H185.006V214.03H186.996C187.811 214.03 188.447 213.834 188.903 213.442C189.363 213.05 189.593 212.488 189.593 211.754C189.593 210.947 189.352 210.391 188.869 210.086C188.386 209.781 187.65 209.628 186.661 209.628ZM197.574 209.498C196.936 209.498 196.366 209.607 195.865 209.826C195.363 210.04 194.94 210.346 194.593 210.742C194.247 211.139 193.982 211.613 193.8 212.164C193.618 212.711 193.527 213.315 193.527 213.976C193.527 214.887 193.67 215.685 193.957 216.368C194.245 217.047 194.675 217.574 195.249 217.947C195.828 218.321 196.548 218.508 197.41 218.508C197.911 218.508 198.367 218.471 198.777 218.398C199.187 218.321 199.567 218.223 199.918 218.104V218.72C199.586 218.843 199.21 218.943 198.79 219.021C198.376 219.098 197.893 219.137 197.341 219.137C196.343 219.137 195.505 218.923 194.826 218.494C194.151 218.066 193.643 217.464 193.301 216.689C192.959 215.915 192.788 215.01 192.788 213.976C192.788 213.233 192.896 212.551 193.11 211.932C193.324 211.307 193.636 210.767 194.046 210.312C194.461 209.851 194.965 209.496 195.557 209.245C196.149 208.99 196.824 208.862 197.58 208.862C198.059 208.862 198.515 208.91 198.948 209.006C199.385 209.097 199.795 209.231 200.178 209.409L199.905 210.024C199.536 209.842 199.157 209.71 198.77 209.628C198.383 209.541 197.984 209.498 197.574 209.498ZM209.97 219H209.266V214.078H203.428V219H202.724V209.006H203.428V213.436H209.266V209.006H209.97V219ZM223.135 211.31C223.135 211.752 223.043 212.141 222.861 212.479C222.679 212.816 222.428 213.091 222.109 213.306C221.795 213.52 221.432 213.666 221.022 213.743V213.784C221.806 213.884 222.405 214.142 222.82 214.557C223.235 214.967 223.442 215.527 223.442 216.238C223.442 216.799 223.31 217.298 223.046 217.735C222.781 218.173 222.383 218.517 221.849 218.768C221.321 219.014 220.655 219.137 219.853 219.137C219.311 219.137 218.807 219.087 218.343 218.986C217.878 218.886 217.454 218.747 217.071 218.569V217.893C217.449 218.079 217.885 218.234 218.377 218.357C218.874 218.476 219.368 218.535 219.86 218.535C220.826 218.535 221.544 218.328 222.013 217.913C222.483 217.494 222.718 216.933 222.718 216.231C222.718 215.721 222.592 215.313 222.342 215.008C222.091 214.698 221.738 214.472 221.282 214.331C220.831 214.19 220.3 214.119 219.689 214.119H218.596V213.511H219.696C220.211 213.511 220.674 213.431 221.084 213.271C221.494 213.107 221.818 212.866 222.054 212.547C222.296 212.223 222.417 211.822 222.417 211.344C222.417 210.724 222.219 210.257 221.822 209.942C221.43 209.628 220.906 209.471 220.25 209.471C219.899 209.471 219.568 209.507 219.259 209.58C218.953 209.653 218.657 209.76 218.37 209.901C218.087 210.038 217.805 210.204 217.522 210.4L217.167 209.901C217.559 209.601 218.01 209.352 218.52 209.156C219.035 208.96 219.61 208.862 220.243 208.862C221.15 208.862 221.859 209.081 222.369 209.519C222.879 209.956 223.135 210.553 223.135 211.31ZM228.962 209.006C229.754 209.006 230.415 209.092 230.944 209.266C231.477 209.439 231.878 209.724 232.147 210.12C232.416 210.517 232.55 211.052 232.55 211.727C232.55 212.232 232.457 212.668 232.27 213.032C232.088 213.392 231.835 213.688 231.511 213.921C231.188 214.153 230.814 214.331 230.39 214.454L233.131 219H232.297L229.72 214.652H227.239V219H226.535V209.006H228.962ZM228.893 209.628H227.239V214.03H229.228C230.044 214.03 230.68 213.834 231.135 213.442C231.596 213.05 231.826 212.488 231.826 211.754C231.826 210.947 231.584 210.391 231.101 210.086C230.618 209.781 229.882 209.628 228.893 209.628ZM243.162 213.907C243.162 215.024 242.964 215.96 242.568 216.717C242.176 217.473 241.593 218.043 240.818 218.426C240.048 218.809 239.093 219 237.954 219H235.561V209.006H238.268C239.334 209.006 240.23 209.193 240.954 209.566C241.679 209.94 242.228 210.492 242.602 211.221C242.976 211.945 243.162 212.841 243.162 213.907ZM242.424 213.935C242.424 212.982 242.269 212.187 241.959 211.549C241.649 210.911 241.176 210.432 240.537 210.113C239.899 209.79 239.091 209.628 238.111 209.628H236.265V218.378H237.919C239.428 218.378 240.556 218.009 241.303 217.271C242.051 216.528 242.424 215.416 242.424 213.935ZM246.775 217.373L246.836 217.537C246.763 217.879 246.672 218.239 246.563 218.617C246.458 218.995 246.342 219.371 246.214 219.745C246.091 220.123 245.959 220.477 245.818 220.805H245.284C245.403 220.39 245.51 219.984 245.606 219.588C245.701 219.196 245.786 218.815 245.859 218.446C245.932 218.073 245.991 217.715 246.036 217.373H246.775ZM259.809 219H253.554V218.412L256.494 215.35C256.963 214.862 257.358 214.422 257.677 214.03C258 213.634 258.244 213.237 258.408 212.841C258.577 212.444 258.661 212 258.661 211.508C258.661 210.865 258.472 210.366 258.094 210.011C257.72 209.655 257.212 209.478 256.569 209.478C256.136 209.478 255.719 209.555 255.318 209.71C254.922 209.865 254.534 210.093 254.156 210.394L253.773 209.908C254.051 209.68 254.343 209.489 254.648 209.334C254.958 209.179 255.275 209.063 255.598 208.985C255.922 208.903 256.246 208.862 256.569 208.862C257.139 208.862 257.631 208.972 258.046 209.19C258.465 209.405 258.791 209.708 259.023 210.1C259.256 210.492 259.372 210.952 259.372 211.48C259.372 212.027 259.276 212.524 259.085 212.971C258.898 213.413 258.631 213.846 258.285 214.27C257.939 214.693 257.528 215.149 257.054 215.637L254.45 218.33V218.357H259.809V219ZM268.658 213.976C268.658 214.81 268.594 215.548 268.466 216.19C268.339 216.833 268.145 217.373 267.885 217.811C267.626 218.248 267.295 218.578 266.894 218.802C266.493 219.025 266.019 219.137 265.472 219.137C264.78 219.137 264.196 218.943 263.722 218.556C263.248 218.168 262.888 217.592 262.642 216.826C262.401 216.061 262.28 215.11 262.28 213.976C262.28 212.964 262.382 212.073 262.588 211.303C262.797 210.533 263.137 209.931 263.606 209.498C264.075 209.065 264.7 208.849 265.479 208.849C266.254 208.849 266.874 209.061 267.338 209.484C267.808 209.908 268.145 210.505 268.35 211.275C268.555 212.041 268.658 212.941 268.658 213.976ZM262.977 213.976C262.977 215.001 263.066 215.851 263.244 216.525C263.421 217.195 263.695 217.697 264.064 218.029C264.433 218.362 264.903 218.528 265.472 218.528C266.06 218.528 266.536 218.362 266.901 218.029C267.266 217.697 267.532 217.193 267.701 216.519C267.874 215.844 267.961 214.996 267.961 213.976C267.961 213.037 267.885 212.23 267.735 211.556C267.589 210.881 267.336 210.364 266.976 210.004C266.616 209.644 266.117 209.464 265.479 209.464C264.855 209.464 264.36 209.648 263.996 210.018C263.631 210.387 263.369 210.909 263.21 211.583C263.055 212.257 262.977 213.055 262.977 213.976ZM277.205 219H270.951V218.412L273.89 215.35C274.359 214.862 274.754 214.422 275.073 214.03C275.396 213.634 275.64 213.237 275.804 212.841C275.973 212.444 276.057 212 276.057 211.508C276.057 210.865 275.868 210.366 275.49 210.011C275.116 209.655 274.608 209.478 273.965 209.478C273.532 209.478 273.115 209.555 272.714 209.71C272.318 209.865 271.93 210.093 271.552 210.394L271.169 209.908C271.447 209.68 271.739 209.489 272.044 209.334C272.354 209.179 272.671 209.063 272.995 208.985C273.318 208.903 273.642 208.862 273.965 208.862C274.535 208.862 275.027 208.972 275.442 209.19C275.861 209.405 276.187 209.708 276.419 210.1C276.652 210.492 276.768 210.952 276.768 211.48C276.768 212.027 276.672 212.524 276.481 212.971C276.294 213.413 276.027 213.846 275.681 214.27C275.335 214.693 274.925 215.149 274.451 215.637L271.846 218.33V218.357H277.205V219ZM286.676 216.45H284.953V219H284.277V216.45H279.204V215.903L284.229 208.951H284.953V215.814H286.676V216.45ZM284.277 215.814V211.973C284.277 211.69 284.277 211.446 284.277 211.241C284.281 211.036 284.286 210.852 284.29 210.688C284.295 210.519 284.299 210.357 284.304 210.202C284.308 210.047 284.313 209.888 284.318 209.724H284.277C284.149 209.942 284.028 210.145 283.914 210.332C283.805 210.514 283.664 210.722 283.49 210.954L279.963 215.814H284.277ZM292.471 215.534V214.898H295.862V215.534H292.471ZM311.276 213.989C311.276 214.75 311.182 215.445 310.996 216.074C310.809 216.703 310.528 217.245 310.155 217.701C309.781 218.157 309.314 218.51 308.753 218.761C308.197 219.011 307.548 219.137 306.805 219.137C306.058 219.137 305.404 219.011 304.843 218.761C304.283 218.51 303.816 218.157 303.442 217.701C303.073 217.241 302.795 216.696 302.608 216.067C302.421 215.434 302.328 214.737 302.328 213.976C302.328 212.964 302.498 212.073 302.84 211.303C303.187 210.533 303.695 209.931 304.365 209.498C305.039 209.065 305.871 208.849 306.86 208.849C307.808 208.849 308.61 209.056 309.266 209.471C309.927 209.881 310.426 210.471 310.763 211.241C311.105 212.007 311.276 212.923 311.276 213.989ZM303.066 213.982C303.066 214.876 303.2 215.664 303.469 216.348C303.738 217.027 304.15 217.558 304.706 217.94C305.262 218.323 305.964 218.515 306.812 218.515C307.669 218.515 308.373 218.326 308.924 217.947C309.476 217.569 309.884 217.04 310.148 216.361C310.412 215.682 310.544 214.892 310.544 213.989C310.544 212.563 310.232 211.455 309.608 210.667C308.988 209.879 308.072 209.484 306.86 209.484C306.008 209.484 305.299 209.674 304.734 210.052C304.173 210.43 303.754 210.956 303.476 211.631C303.203 212.305 303.066 213.089 303.066 213.982ZM321.546 219H320.828L314.922 210.161H314.888C314.897 210.407 314.904 210.658 314.908 210.913C314.918 211.164 314.924 211.424 314.929 211.692C314.938 211.957 314.943 212.23 314.943 212.513V219H314.273V209.006H314.997L320.883 217.817H320.917C320.913 217.617 320.906 217.384 320.897 217.12C320.892 216.856 320.885 216.585 320.876 216.307C320.872 216.029 320.869 215.767 320.869 215.521V209.006H321.546V219ZM329.021 213.955H332.691V218.542C332.213 218.743 331.702 218.893 331.16 218.993C330.618 219.089 330.041 219.137 329.431 219.137C328.369 219.137 327.473 218.936 326.744 218.535C326.02 218.13 325.47 217.544 325.097 216.778C324.723 216.013 324.536 215.092 324.536 214.017C324.536 213.014 324.739 212.123 325.145 211.344C325.555 210.564 326.14 209.954 326.901 209.512C327.662 209.07 328.574 208.849 329.636 208.849C330.183 208.849 330.698 208.899 331.181 208.999C331.668 209.099 332.131 209.25 332.568 209.45L332.288 210.079C331.855 209.879 331.413 209.728 330.962 209.628C330.515 209.528 330.062 209.478 329.602 209.478C328.699 209.478 327.922 209.671 327.271 210.059C326.623 210.441 326.127 210.975 325.78 211.658C325.438 212.337 325.268 213.121 325.268 214.01C325.268 215.017 325.434 215.853 325.767 216.519C326.099 217.184 326.585 217.683 327.223 218.016C327.865 218.348 328.645 218.515 329.561 218.515C330.062 218.515 330.511 218.478 330.907 218.405C331.308 218.332 331.671 218.237 331.994 218.118V214.598H329.021V213.955ZM344.315 213.989C344.315 214.75 344.222 215.445 344.035 216.074C343.848 216.703 343.568 217.245 343.194 217.701C342.82 218.157 342.353 218.51 341.793 218.761C341.237 219.011 340.587 219.137 339.845 219.137C339.097 219.137 338.443 219.011 337.883 218.761C337.322 218.51 336.855 218.157 336.481 217.701C336.112 217.241 335.834 216.696 335.647 216.067C335.46 215.434 335.367 214.737 335.367 213.976C335.367 212.964 335.538 212.073 335.88 211.303C336.226 210.533 336.734 209.931 337.404 209.498C338.079 209.065 338.91 208.849 339.899 208.849C340.847 208.849 341.649 209.056 342.305 209.471C342.966 209.881 343.465 210.471 343.803 211.241C344.144 212.007 344.315 212.923 344.315 213.989ZM336.105 213.982C336.105 214.876 336.24 215.664 336.509 216.348C336.777 217.027 337.19 217.558 337.746 217.94C338.302 218.323 339.004 218.515 339.851 218.515C340.708 218.515 341.412 218.326 341.964 217.947C342.515 217.569 342.923 217.04 343.187 216.361C343.452 215.682 343.584 214.892 343.584 213.989C343.584 212.563 343.272 211.455 342.647 210.667C342.027 209.879 341.111 209.484 339.899 209.484C339.047 209.484 338.338 209.674 337.773 210.052C337.213 210.43 336.793 210.956 336.515 211.631C336.242 212.305 336.105 213.089 336.105 213.982ZM347.312 219V209.006H348.016V219H347.312ZM358.813 219H358.095L352.189 210.161H352.155C352.164 210.407 352.171 210.658 352.175 210.913C352.184 211.164 352.191 211.424 352.196 211.692C352.205 211.957 352.209 212.23 352.209 212.513V219H351.539V209.006H352.264L358.15 217.817H358.184C358.179 217.617 358.173 217.384 358.163 217.12C358.159 216.856 358.152 216.585 358.143 216.307C358.138 216.029 358.136 215.767 358.136 215.521V209.006H358.813V219ZM366.287 213.955H369.958V218.542C369.48 218.743 368.969 218.893 368.427 218.993C367.885 219.089 367.308 219.137 366.697 219.137C365.636 219.137 364.74 218.936 364.011 218.535C363.286 218.13 362.737 217.544 362.363 216.778C361.99 216.013 361.803 215.092 361.803 214.017C361.803 213.014 362.006 212.123 362.411 211.344C362.821 210.564 363.407 209.954 364.168 209.512C364.929 209.07 365.841 208.849 366.903 208.849C367.449 208.849 367.964 208.899 368.447 208.999C368.935 209.099 369.398 209.25 369.835 209.45L369.555 210.079C369.122 209.879 368.68 209.728 368.229 209.628C367.782 209.528 367.329 209.478 366.868 209.478C365.966 209.478 365.189 209.671 364.537 210.059C363.89 210.441 363.393 210.975 363.047 211.658C362.705 212.337 362.534 213.121 362.534 214.01C362.534 215.017 362.701 215.853 363.033 216.519C363.366 217.184 363.851 217.683 364.489 218.016C365.132 218.348 365.911 218.515 366.827 218.515C367.329 218.515 367.778 218.478 368.174 218.405C368.575 218.332 368.937 218.237 369.261 218.118V214.598H366.287V213.955Z" fill="#27272A"/>
<path d="M168.52 251H162.12V237.6H168.3C169.167 237.6 169.913 237.72 170.54 237.96C171.167 238.2 171.647 238.567 171.98 239.06C172.313 239.553 172.48 240.18 172.48 240.94C172.48 241.713 172.26 242.353 171.82 242.86C171.393 243.367 170.747 243.687 169.88 243.82V243.98C170.907 244.1 171.673 244.467 172.18 245.08C172.7 245.693 172.96 246.44 172.96 247.32C172.96 248.08 172.787 248.733 172.44 249.28C172.093 249.827 171.587 250.253 170.92 250.56C170.267 250.853 169.467 251 168.52 251ZM164.28 244.96V249.04H168.46C169.273 249.04 169.86 248.9 170.22 248.62C170.593 248.34 170.78 247.807 170.78 247.02C170.78 246.22 170.593 245.68 170.22 245.4C169.847 245.107 169.26 244.96 168.46 244.96H164.28ZM164.28 239.54V243.16H168.1C168.9 243.16 169.473 243.033 169.82 242.78C170.167 242.513 170.34 242.04 170.34 241.36C170.34 240.667 170.173 240.193 169.84 239.94C169.52 239.673 168.96 239.54 168.16 239.54H164.28ZM178.436 251.2C177.582 251.2 176.876 251.027 176.316 250.68C175.756 250.32 175.342 249.84 175.076 249.24C174.809 248.627 174.676 247.947 174.676 247.2V241.06H176.836V246.8C176.836 247.693 177.022 248.34 177.396 248.74C177.769 249.14 178.382 249.34 179.236 249.34C179.796 249.34 180.269 249.253 180.656 249.08C181.042 248.893 181.336 248.607 181.536 248.22C181.736 247.82 181.836 247.3 181.836 246.66H182.396V249.02H181.916C181.769 249.393 181.542 249.747 181.236 250.08C180.942 250.413 180.562 250.687 180.096 250.9C179.642 251.1 179.089 251.2 178.436 251.2ZM183.996 251H181.996V248.02L181.836 247.92V241.06H183.996V251ZM190.063 251.2C188.65 251.2 187.563 250.733 186.803 249.8C186.057 248.853 185.683 247.593 185.683 246.02C185.683 244.447 186.05 243.193 186.783 242.26C187.53 241.327 188.583 240.86 189.943 240.86C190.823 240.86 191.53 241.04 192.063 241.4C192.61 241.747 192.99 242.147 193.203 242.6H193.743L193.643 245.14H193.263C193.263 244.58 193.157 244.12 192.943 243.76C192.73 243.4 192.423 243.133 192.023 242.96C191.623 242.787 191.13 242.7 190.543 242.7C190.063 242.7 189.65 242.76 189.303 242.88C188.97 243 188.69 243.187 188.463 243.44C188.25 243.693 188.09 244.033 187.983 244.46C187.89 244.887 187.843 245.407 187.843 246.02C187.843 246.62 187.89 247.14 187.983 247.58C188.09 248.007 188.25 248.353 188.463 248.62C188.69 248.873 188.977 249.06 189.323 249.18C189.67 249.3 190.077 249.36 190.543 249.36C191.13 249.36 191.623 249.273 192.023 249.1C192.423 248.913 192.73 248.64 192.943 248.28C193.157 247.92 193.263 247.467 193.263 246.92H193.643L193.743 249.36H193.343C193.117 249.933 192.723 250.387 192.163 250.72C191.617 251.04 190.917 251.2 190.063 251.2ZM195.423 251H193.423V248.64L193.263 248.38V237.6H195.423V251ZM202.17 254.6C201.237 254.6 200.423 254.453 199.73 254.16C199.05 253.867 198.523 253.44 198.15 252.88C197.777 252.333 197.59 251.66 197.59 250.86H199.75C199.75 251.313 199.817 251.673 199.95 251.94C200.083 252.207 200.33 252.393 200.69 252.5C201.05 252.62 201.563 252.68 202.23 252.68C202.883 252.68 203.383 252.607 203.73 252.46C204.077 252.313 204.317 252.067 204.45 251.72C204.583 251.373 204.65 250.893 204.65 250.28V243.68L204.81 243.42V241.06H206.81V250.28C206.81 251.253 206.623 252.053 206.25 252.68C205.877 253.32 205.343 253.8 204.65 254.12C203.97 254.44 203.143 254.6 202.17 254.6ZM201.33 250.06C199.957 250.06 198.903 249.647 198.17 248.82C197.437 247.98 197.07 246.86 197.07 245.46C197.07 244.06 197.443 242.947 198.19 242.12C198.937 241.28 200.01 240.86 201.41 240.86C202.223 240.86 202.923 241.027 203.51 241.36C204.097 241.68 204.503 242.127 204.73 242.7H205.13L205.03 245.14H204.65C204.65 244.58 204.537 244.12 204.31 243.76C204.083 243.4 203.763 243.133 203.35 242.96C202.937 242.787 202.457 242.7 201.91 242.7C201.283 242.7 200.77 242.787 200.37 242.96C199.983 243.133 199.697 243.427 199.51 243.84C199.323 244.24 199.23 244.78 199.23 245.46C199.23 245.967 199.283 246.4 199.39 246.76C199.497 247.107 199.663 247.387 199.89 247.6C200.117 247.813 200.403 247.973 200.75 248.08C201.097 248.173 201.497 248.22 201.95 248.22C202.497 248.22 202.97 248.133 203.37 247.96C203.77 247.773 204.083 247.5 204.31 247.14C204.537 246.78 204.65 246.32 204.65 245.76H205.09V248.3H204.57C204.343 248.78 203.95 249.193 203.39 249.54C202.83 249.887 202.143 250.06 201.33 250.06ZM213.257 251.2C212.177 251.2 211.277 250.987 210.557 250.56C209.837 250.12 209.304 249.513 208.957 248.74C208.611 247.953 208.437 247.047 208.437 246.02C208.437 244.993 208.631 244.093 209.017 243.32C209.417 242.547 209.977 241.947 210.697 241.52C211.417 241.08 212.271 240.86 213.257 240.86C214.151 240.86 214.937 241.033 215.617 241.38C216.311 241.713 216.844 242.2 217.217 242.84C217.604 243.48 217.797 244.253 217.797 245.16C217.797 245.427 217.784 245.687 217.757 245.94C217.744 246.18 217.724 246.38 217.697 246.54H209.457V245.1H215.937L215.717 245.3C215.771 244.687 215.704 244.187 215.517 243.8C215.344 243.413 215.057 243.127 214.657 242.94C214.271 242.753 213.784 242.66 213.197 242.66C212.144 242.66 211.424 242.927 211.037 243.46C210.651 243.98 210.457 244.7 210.457 245.62V246.22C210.457 246.887 210.537 247.453 210.697 247.92C210.871 248.373 211.164 248.713 211.577 248.94C211.991 249.167 212.557 249.28 213.277 249.28C214.117 249.28 214.711 249.147 215.057 248.88C215.404 248.613 215.577 248.26 215.577 247.82V247.66H217.717V247.84C217.717 248.52 217.531 249.113 217.157 249.62C216.784 250.113 216.264 250.5 215.597 250.78C214.944 251.06 214.164 251.2 213.257 251.2ZM223.583 251C222.49 251 221.65 250.767 221.063 250.3C220.49 249.833 220.203 249.047 220.203 247.94V241.28L220.703 238.6H222.363V247.84C222.363 248.36 222.49 248.693 222.743 248.84C223.01 248.973 223.483 249.04 224.163 249.04H225.363V250.82C225.163 250.873 224.903 250.92 224.583 250.96C224.263 250.987 223.93 251 223.583 251ZM225.363 242.86H218.543V241.06H225.363V242.86ZM232.625 246.04H226.245V244.2H232.625V246.04ZM243.219 251.2C241.473 251.2 240.153 250.84 239.259 250.12C238.379 249.4 237.939 248.427 237.939 247.2V247.08H240.079V247.2C240.079 247.68 240.193 248.073 240.419 248.38C240.659 248.687 241.013 248.907 241.479 249.04C241.959 249.16 242.566 249.22 243.299 249.22C244.486 249.22 245.306 249.033 245.759 248.66C246.226 248.273 246.459 247.613 246.459 246.68C246.459 245.773 246.219 245.133 245.739 244.76C245.259 244.373 244.453 244.18 243.319 244.18C242.493 244.18 241.826 244.273 241.319 244.46C240.813 244.633 240.393 244.82 240.059 245.02L239.639 244.72L239.679 243.38L240.259 243.44C240.606 243.147 241.093 242.887 241.719 242.66C242.346 242.433 243.099 242.32 243.979 242.32C244.939 242.32 245.759 242.493 246.439 242.84C247.133 243.187 247.659 243.68 248.019 244.32C248.393 244.947 248.579 245.713 248.579 246.62C248.579 247.54 248.386 248.347 247.999 249.04C247.626 249.72 247.046 250.253 246.259 250.64C245.473 251.013 244.459 251.2 243.219 251.2ZM240.519 239.54L240.059 245.02L238.159 244.72L238.619 237.6H247.859V239.54H240.519ZM256.376 251.2C255.176 251.2 254.142 250.92 253.276 250.36C252.409 249.8 251.742 249.007 251.276 247.98C250.822 246.94 250.596 245.713 250.596 244.3C250.596 242.887 250.822 241.667 251.276 240.64C251.742 239.6 252.409 238.8 253.276 238.24C254.142 237.68 255.176 237.4 256.376 237.4C257.576 237.4 258.609 237.68 259.476 238.24C260.342 238.8 261.009 239.6 261.476 240.64C261.942 241.667 262.176 242.887 262.176 244.3C262.176 245.713 261.942 246.94 261.476 247.98C261.009 249.007 260.342 249.8 259.476 250.36C258.609 250.92 257.576 251.2 256.376 251.2ZM256.376 249.1C257.176 249.1 257.829 248.947 258.336 248.64C258.856 248.333 259.242 247.827 259.496 247.12C259.749 246.413 259.876 245.473 259.876 244.3C259.876 243.113 259.749 242.167 259.496 241.46C259.242 240.753 258.856 240.247 258.336 239.94C257.829 239.633 257.176 239.48 256.376 239.48C255.589 239.48 254.936 239.633 254.416 239.94C253.896 240.247 253.509 240.753 253.256 241.46C253.016 242.167 252.896 243.113 252.896 244.3C252.896 245.473 253.016 246.413 253.256 247.12C253.509 247.827 253.896 248.333 254.416 248.64C254.936 248.947 255.589 249.1 256.376 249.1ZM266.606 251H263.866V247.9H266.606V251ZM264.626 253.34H263.926V251.94H264.566C264.739 251.94 264.866 251.907 264.946 251.84C265.039 251.787 265.086 251.647 265.086 251.42V250.54H266.606V251.38C266.606 252.047 266.433 252.54 266.086 252.86C265.739 253.18 265.253 253.34 264.626 253.34ZM274.11 251.2C272.91 251.2 271.877 250.92 271.01 250.36C270.143 249.8 269.477 249.007 269.01 247.98C268.557 246.94 268.33 245.713 268.33 244.3C268.33 242.887 268.557 241.667 269.01 240.64C269.477 239.6 270.143 238.8 271.01 238.24C271.877 237.68 272.91 237.4 274.11 237.4C275.31 237.4 276.343 237.68 277.21 238.24C278.077 238.8 278.743 239.6 279.21 240.64C279.677 241.667 279.91 242.887 279.91 244.3C279.91 245.713 279.677 246.94 279.21 247.98C278.743 249.007 278.077 249.8 277.21 250.36C276.343 250.92 275.31 251.2 274.11 251.2ZM274.11 249.1C274.91 249.1 275.563 248.947 276.07 248.64C276.59 248.333 276.977 247.827 277.23 247.12C277.483 246.413 277.61 245.473 277.61 244.3C277.61 243.113 277.483 242.167 277.23 241.46C276.977 240.753 276.59 240.247 276.07 239.94C275.563 239.633 274.91 239.48 274.11 239.48C273.323 239.48 272.67 239.633 272.15 239.94C271.63 240.247 271.243 240.753 270.99 241.46C270.75 242.167 270.63 243.113 270.63 244.3C270.63 245.473 270.75 246.413 270.99 247.12C271.243 247.827 271.63 248.333 272.15 248.64C272.67 248.947 273.323 249.1 274.11 249.1ZM288.173 251.2C286.973 251.2 285.939 250.92 285.073 250.36C284.206 249.8 283.539 249.007 283.073 247.98C282.619 246.94 282.393 245.713 282.393 244.3C282.393 242.887 282.619 241.667 283.073 240.64C283.539 239.6 284.206 238.8 285.073 238.24C285.939 237.68 286.973 237.4 288.173 237.4C289.373 237.4 290.406 237.68 291.273 238.24C292.139 238.8 292.806 239.6 293.273 240.64C293.739 241.667 293.973 242.887 293.973 244.3C293.973 245.713 293.739 246.94 293.273 247.98C292.806 249.007 292.139 249.8 291.273 250.36C290.406 250.92 289.373 251.2 288.173 251.2ZM288.173 249.1C288.973 249.1 289.626 248.947 290.133 248.64C290.653 248.333 291.039 247.827 291.293 247.12C291.546 246.413 291.673 245.473 291.673 244.3C291.673 243.113 291.546 242.167 291.293 241.46C291.039 240.753 290.653 240.247 290.133 239.94C289.626 239.633 288.973 239.48 288.173 239.48C287.386 239.48 286.733 239.633 286.213 239.94C285.693 240.247 285.306 240.753 285.053 241.46C284.813 242.167 284.693 243.113 284.693 244.3C284.693 245.473 284.813 246.413 285.053 247.12C285.306 247.827 285.693 248.333 286.213 248.64C286.733 248.947 287.386 249.1 288.173 249.1ZM302.235 251.2C301.035 251.2 300.002 250.92 299.135 250.36C298.268 249.8 297.602 249.007 297.135 247.98C296.682 246.94 296.455 245.713 296.455 244.3C296.455 242.887 296.682 241.667 297.135 240.64C297.602 239.6 298.268 238.8 299.135 238.24C300.002 237.68 301.035 237.4 302.235 237.4C303.435 237.4 304.468 237.68 305.335 238.24C306.202 238.8 306.868 239.6 307.335 240.64C307.802 241.667 308.035 242.887 308.035 244.3C308.035 245.713 307.802 246.94 307.335 247.98C306.868 249.007 306.202 249.8 305.335 250.36C304.468 250.92 303.435 251.2 302.235 251.2ZM302.235 249.1C303.035 249.1 303.688 248.947 304.195 248.64C304.715 248.333 305.102 247.827 305.355 247.12C305.608 246.413 305.735 245.473 305.735 244.3C305.735 243.113 305.608 242.167 305.355 241.46C305.102 240.753 304.715 240.247 304.195 239.94C303.688 239.633 303.035 239.48 302.235 239.48C301.448 239.48 300.795 239.633 300.275 239.94C299.755 240.247 299.368 240.753 299.115 241.46C298.875 242.167 298.755 243.113 298.755 244.3C298.755 245.473 298.875 246.413 299.115 247.12C299.368 247.827 299.755 248.333 300.275 248.64C300.795 248.947 301.448 249.1 302.235 249.1ZM312.465 251H309.725V247.9H312.465V251ZM310.485 253.34H309.785V251.94H310.425C310.599 251.94 310.725 251.907 310.805 251.84C310.899 251.787 310.945 251.647 310.945 251.42V250.54H312.465V251.38C312.465 252.047 312.292 252.54 311.945 252.86C311.599 253.18 311.112 253.34 310.485 253.34ZM319.969 251.2C318.769 251.2 317.736 250.92 316.869 250.36C316.003 249.8 315.336 249.007 314.869 247.98C314.416 246.94 314.189 245.713 314.189 244.3C314.189 242.887 314.416 241.667 314.869 240.64C315.336 239.6 316.003 238.8 316.869 238.24C317.736 237.68 318.769 237.4 319.969 237.4C321.169 237.4 322.203 237.68 323.069 238.24C323.936 238.8 324.603 239.6 325.069 240.64C325.536 241.667 325.769 242.887 325.769 244.3C325.769 245.713 325.536 246.94 325.069 247.98C324.603 249.007 323.936 249.8 323.069 250.36C322.203 250.92 321.169 251.2 319.969 251.2ZM319.969 249.1C320.769 249.1 321.423 248.947 321.929 248.64C322.449 248.333 322.836 247.827 323.089 247.12C323.343 246.413 323.469 245.473 323.469 244.3C323.469 243.113 323.343 242.167 323.089 241.46C322.836 240.753 322.449 240.247 321.929 239.94C321.423 239.633 320.769 239.48 319.969 239.48C319.183 239.48 318.529 239.633 318.009 239.94C317.489 240.247 317.103 240.753 316.849 241.46C316.609 242.167 316.489 243.113 316.489 244.3C316.489 245.473 316.609 246.413 316.849 247.12C317.103 247.827 317.489 248.333 318.009 248.64C318.529 248.947 319.183 249.1 319.969 249.1ZM334.032 251.2C332.832 251.2 331.799 250.92 330.932 250.36C330.065 249.8 329.399 249.007 328.932 247.98C328.479 246.94 328.252 245.713 328.252 244.3C328.252 242.887 328.479 241.667 328.932 240.64C329.399 239.6 330.065 238.8 330.932 238.24C331.799 237.68 332.832 237.4 334.032 237.4C335.232 237.4 336.265 237.68 337.132 238.24C337.999 238.8 338.665 239.6 339.132 240.64C339.599 241.667 339.832 242.887 339.832 244.3C339.832 245.713 339.599 246.94 339.132 247.98C338.665 249.007 337.999 249.8 337.132 250.36C336.265 250.92 335.232 251.2 334.032 251.2ZM334.032 249.1C334.832 249.1 335.485 248.947 335.992 248.64C336.512 248.333 336.899 247.827 337.152 247.12C337.405 246.413 337.532 245.473 337.532 244.3C337.532 243.113 337.405 242.167 337.152 241.46C336.899 240.753 336.512 240.247 335.992 239.94C335.485 239.633 334.832 239.48 334.032 239.48C333.245 239.48 332.592 239.633 332.072 239.94C331.552 240.247 331.165 240.753 330.912 241.46C330.672 242.167 330.552 243.113 330.552 244.3C330.552 245.473 330.672 246.413 330.912 247.12C331.165 247.827 331.552 248.333 332.072 248.64C332.592 248.947 333.245 249.1 334.032 249.1ZM348.094 251.2C346.894 251.2 345.861 250.92 344.994 250.36C344.128 249.8 343.461 249.007 342.994 247.98C342.541 246.94 342.314 245.713 342.314 244.3C342.314 242.887 342.541 241.667 342.994 240.64C343.461 239.6 344.128 238.8 344.994 238.24C345.861 237.68 346.894 237.4 348.094 237.4C349.294 237.4 350.328 237.68 351.194 238.24C352.061 238.8 352.728 239.6 353.194 240.64C353.661 241.667 353.894 242.887 353.894 244.3C353.894 245.713 353.661 246.94 353.194 247.98C352.728 249.007 352.061 249.8 351.194 250.36C350.328 250.92 349.294 251.2 348.094 251.2ZM348.094 249.1C348.894 249.1 349.548 248.947 350.054 248.64C350.574 248.333 350.961 247.827 351.214 247.12C351.468 246.413 351.594 245.473 351.594 244.3C351.594 243.113 351.468 242.167 351.214 241.46C350.961 240.753 350.574 240.247 350.054 239.94C349.548 239.633 348.894 239.48 348.094 239.48C347.308 239.48 346.654 239.633 346.134 239.94C345.614 240.247 345.228 240.753 344.974 241.46C344.734 242.167 344.614 243.113 344.614 244.3C344.614 245.473 344.734 246.413 344.974 247.12C345.228 247.827 345.614 248.333 346.134 248.64C346.654 248.947 347.308 249.1 348.094 249.1ZM361.174 251H358.914L364.134 237.6H367.234L372.454 251H370.114L366.594 242.04L365.734 239.54H365.574L364.694 242.04L361.174 251ZM369.934 247.52H361.494V245.58H369.934V247.52ZM375.53 251H373.37V237.6H379.13C380.117 237.6 380.97 237.76 381.69 238.08C382.41 238.387 382.963 238.84 383.35 239.44C383.75 240.027 383.95 240.747 383.95 241.6C383.95 242.333 383.803 242.973 383.51 243.52C383.23 244.053 382.81 244.473 382.25 244.78C381.703 245.073 381.03 245.24 380.23 245.28V245.44C380.723 245.6 381.13 245.833 381.45 246.14C381.77 246.447 382.05 246.827 382.29 247.28L384.31 251H381.79L379.89 247.54C379.69 247.153 379.477 246.833 379.25 246.58C379.023 246.327 378.743 246.14 378.41 246.02C378.077 245.9 377.65 245.84 377.13 245.84H375.53V251ZM375.53 239.54V244.06H379.39C380.257 244.06 380.877 243.887 381.25 243.54C381.623 243.193 381.81 242.613 381.81 241.8C381.81 241 381.623 240.427 381.25 240.08C380.877 239.72 380.257 239.54 379.39 239.54H375.53ZM391.938 251H385.538V237.6H391.718C392.585 237.6 393.331 237.72 393.958 237.96C394.585 238.2 395.065 238.567 395.398 239.06C395.731 239.553 395.898 240.18 395.898 240.94C395.898 241.713 395.678 242.353 395.238 242.86C394.811 243.367 394.165 243.687 393.298 243.82V243.98C394.325 244.1 395.091 244.467 395.598 245.08C396.118 245.693 396.378 246.44 396.378 247.32C396.378 248.08 396.205 248.733 395.858 249.28C395.511 249.827 395.005 250.253 394.338 250.56C393.685 250.853 392.885 251 391.938 251ZM387.698 244.96V249.04H391.878C392.691 249.04 393.278 248.9 393.638 248.62C394.011 248.34 394.198 247.807 394.198 247.02C394.198 246.22 394.011 245.68 393.638 245.4C393.265 245.107 392.678 244.96 391.878 244.96H387.698ZM387.698 239.54V243.16H391.518C392.318 243.16 392.891 243.033 393.238 242.78C393.585 242.513 393.758 242.04 393.758 241.36C393.758 240.667 393.591 240.193 393.258 239.94C392.938 239.673 392.378 239.54 391.578 239.54H387.698Z" fill="#71717A"/>
</svg>
