<svg width="359" height="398" viewBox="0 0 359 398" fill="none" xmlns="http://www.w3.org/2000/svg">
<path d="M6.46875 11.8906L5.58008 9.62012H2.71875L1.83984 11.8906H1L3.82227 4.72266H4.52051L7.32812 11.8906H6.46875ZM5.32129 8.87305L4.49121 6.66113C4.38379 6.38118 4.27311 6.03776 4.15918 5.63086C4.08757 5.94336 3.98503 6.28678 3.85156 6.66113L3.01172 8.87305H5.32129ZM10.6777 11.9883C10.3294 11.9883 10.0104 11.9248 9.7207 11.7979C9.43424 11.6676 9.19336 11.4691 8.99805 11.2021H8.93945C8.97852 11.5146 8.99805 11.8109 8.99805 12.0908V14.293H8.1875V6.53906H8.84668L8.95898 7.27148H8.99805C9.20638 6.97852 9.44889 6.76693 9.72559 6.63672C10.0023 6.50651 10.3197 6.44141 10.6777 6.44141C11.3874 6.44141 11.9342 6.68392 12.3184 7.16895C12.7057 7.65397 12.8994 8.33431 12.8994 9.20996C12.8994 10.0889 12.7025 10.7725 12.3086 11.2607C11.918 11.7458 11.3743 11.9883 10.6777 11.9883ZM10.5605 7.12988C10.0137 7.12988 9.61816 7.28125 9.37402 7.58398C9.12988 7.88672 9.00456 8.36849 8.99805 9.0293V9.20996C8.99805 9.96191 9.12337 10.5007 9.37402 10.8262C9.62467 11.1484 10.0267 11.3096 10.5801 11.3096C11.0423 11.3096 11.4036 11.1224 11.6641 10.748C11.9277 10.3737 12.0596 9.85775 12.0596 9.2002C12.0596 8.53288 11.9277 8.02181 11.6641 7.66699C11.4036 7.30892 11.0358 7.12988 10.5605 7.12988ZM16.7617 6.44141C16.9993 6.44141 17.2126 6.46094 17.4014 6.5L17.2891 7.25195C17.0677 7.20312 16.8724 7.17871 16.7031 7.17871C16.2702 7.17871 15.8991 7.35449 15.5898 7.70605C15.2839 8.05762 15.1309 8.49544 15.1309 9.01953V11.8906H14.3203V6.53906H14.9893L15.082 7.53027H15.1211C15.3197 7.18197 15.5589 6.91341 15.8389 6.72461C16.1188 6.53581 16.4264 6.44141 16.7617 6.44141ZM19.2129 11.8906H18.4023V6.53906H19.2129V11.8906ZM18.334 5.08887C18.334 4.90332 18.3796 4.76823 18.4707 4.68359C18.5618 4.5957 18.6758 4.55176 18.8125 4.55176C18.9427 4.55176 19.055 4.5957 19.1494 4.68359C19.2438 4.77148 19.291 4.90658 19.291 5.08887C19.291 5.27116 19.2438 5.40788 19.1494 5.49902C19.055 5.58691 18.9427 5.63086 18.8125 5.63086C18.6758 5.63086 18.5618 5.58691 18.4707 5.49902C18.3796 5.40788 18.334 5.27116 18.334 5.08887ZM21.7422 11.8906H20.9316V4.29297H21.7422V11.8906ZM28.6904 11.8906H27.8994V6.80273C27.8994 6.37956 27.9124 5.97917 27.9385 5.60156C27.8701 5.66992 27.7936 5.74154 27.709 5.81641C27.6243 5.89128 27.237 6.20866 26.5469 6.76855L26.1172 6.21191L28.0068 4.75195H28.6904V11.8906ZM36.1025 11.8906H31.4102V11.1924L33.29 9.30273C33.863 8.72331 34.2406 8.3099 34.4229 8.0625C34.6051 7.8151 34.7419 7.57422 34.833 7.33984C34.9242 7.10547 34.9697 6.85319 34.9697 6.58301C34.9697 6.20215 34.8542 5.90104 34.623 5.67969C34.3919 5.45508 34.0713 5.34277 33.6611 5.34277C33.3649 5.34277 33.0833 5.3916 32.8164 5.48926C32.5527 5.58691 32.2581 5.76432 31.9326 6.02148L31.5029 5.46973C32.1605 4.92285 32.8766 4.64941 33.6514 4.64941C34.3219 4.64941 34.8477 4.82194 35.2285 5.16699C35.6094 5.50879 35.7998 5.9694 35.7998 6.54883C35.7998 7.0013 35.6729 7.44889 35.4189 7.8916C35.165 8.33431 34.6898 8.89421 33.9932 9.57129L32.4307 11.0996V11.1387H36.1025V11.8906Z" fill="#3F3F46"/>
<path d="M82.4688 11.8906L81.5801 9.62012H78.7188L77.8398 11.8906H77L79.8223 4.72266H80.5205L83.3281 11.8906H82.4688ZM81.3213 8.87305L80.4912 6.66113C80.3838 6.38118 80.2731 6.03776 80.1592 5.63086C80.0876 5.94336 79.985 6.28678 79.8516 6.66113L79.0117 8.87305H81.3213ZM86.6777 11.9883C86.3294 11.9883 86.0104 11.9248 85.7207 11.7979C85.4342 11.6676 85.1934 11.4691 84.998 11.2021H84.9395C84.9785 11.5146 84.998 11.8109 84.998 12.0908V14.293H84.1875V6.53906H84.8467L84.959 7.27148H84.998C85.2064 6.97852 85.4489 6.76693 85.7256 6.63672C86.0023 6.50651 86.3197 6.44141 86.6777 6.44141C87.3874 6.44141 87.9342 6.68392 88.3184 7.16895C88.7057 7.65397 88.8994 8.33431 88.8994 9.20996C88.8994 10.0889 88.7025 10.7725 88.3086 11.2607C87.918 11.7458 87.3743 11.9883 86.6777 11.9883ZM86.5605 7.12988C86.0137 7.12988 85.6182 7.28125 85.374 7.58398C85.1299 7.88672 85.0046 8.36849 84.998 9.0293V9.20996C84.998 9.96191 85.1234 10.5007 85.374 10.8262C85.6247 11.1484 86.0267 11.3096 86.5801 11.3096C87.0423 11.3096 87.4036 11.1224 87.6641 10.748C87.9277 10.3737 88.0596 9.85775 88.0596 9.2002C88.0596 8.53288 87.9277 8.02181 87.6641 7.66699C87.4036 7.30892 87.0358 7.12988 86.5605 7.12988ZM92.7617 6.44141C92.9993 6.44141 93.2126 6.46094 93.4014 6.5L93.2891 7.25195C93.0677 7.20312 92.8724 7.17871 92.7031 7.17871C92.2702 7.17871 91.8991 7.35449 91.5898 7.70605C91.2839 8.05762 91.1309 8.49544 91.1309 9.01953V11.8906H90.3203V6.53906H90.9893L91.082 7.53027H91.1211C91.3197 7.18197 91.5589 6.91341 91.8389 6.72461C92.1188 6.53581 92.4264 6.44141 92.7617 6.44141ZM95.2129 11.8906H94.4023V6.53906H95.2129V11.8906ZM94.334 5.08887C94.334 4.90332 94.3796 4.76823 94.4707 4.68359C94.5618 4.5957 94.6758 4.55176 94.8125 4.55176C94.9427 4.55176 95.055 4.5957 95.1494 4.68359C95.2438 4.77148 95.291 4.90658 95.291 5.08887C95.291 5.27116 95.2438 5.40788 95.1494 5.49902C95.055 5.58691 94.9427 5.63086 94.8125 5.63086C94.6758 5.63086 94.5618 5.58691 94.4707 5.49902C94.3796 5.40788 94.334 5.27116 94.334 5.08887ZM97.7422 11.8906H96.9316V4.29297H97.7422V11.8906ZM106.38 11.8906H101.688V11.1924L103.567 9.30273C104.14 8.72331 104.518 8.3099 104.7 8.0625C104.882 7.8151 105.019 7.57422 105.11 7.33984C105.201 7.10547 105.247 6.85319 105.247 6.58301C105.247 6.20215 105.132 5.90104 104.9 5.67969C104.669 5.45508 104.349 5.34277 103.938 5.34277C103.642 5.34277 103.361 5.3916 103.094 5.48926C102.83 5.58691 102.535 5.76432 102.21 6.02148L101.78 5.46973C102.438 4.92285 103.154 4.64941 103.929 4.64941C104.599 4.64941 105.125 4.82194 105.506 5.16699C105.887 5.50879 106.077 5.9694 106.077 6.54883C106.077 7.0013 105.95 7.44889 105.696 7.8916C105.442 8.33431 104.967 8.89421 104.271 9.57129L102.708 11.0996V11.1387H106.38V11.8906ZM109.773 4.64941C110.424 4.64941 110.94 4.80078 111.321 5.10352C111.702 5.40625 111.893 5.82454 111.893 6.3584C111.893 6.70996 111.784 7.0306 111.565 7.32031C111.347 7.61003 110.999 7.8737 110.521 8.11133C111.1 8.38802 111.512 8.67936 111.756 8.98535C112 9.28809 112.122 9.63965 112.122 10.04C112.122 10.6325 111.915 11.1061 111.502 11.4609C111.089 11.8125 110.522 11.9883 109.803 11.9883C109.041 11.9883 108.455 11.8223 108.045 11.4902C107.635 11.1549 107.43 10.6813 107.43 10.0693C107.43 9.25228 107.928 8.61589 108.924 8.16016C108.475 7.90625 108.152 7.63281 107.957 7.33984C107.762 7.04362 107.664 6.71322 107.664 6.34863C107.664 5.83105 107.854 5.41927 108.235 5.11328C108.619 4.80404 109.132 4.64941 109.773 4.64941ZM108.23 10.0889C108.23 10.4795 108.366 10.7839 108.636 11.002C108.909 11.2201 109.292 11.3291 109.783 11.3291C110.268 11.3291 110.646 11.2152 110.916 10.9873C111.186 10.7594 111.321 10.4469 111.321 10.0498C111.321 9.73405 111.194 9.4541 110.94 9.20996C110.687 8.96257 110.244 8.72331 109.612 8.49219C109.127 8.70052 108.776 8.93164 108.558 9.18555C108.34 9.4362 108.23 9.7373 108.23 10.0889ZM109.764 5.30859C109.357 5.30859 109.038 5.40625 108.807 5.60156C108.576 5.79688 108.46 6.05729 108.46 6.38281C108.46 6.68229 108.556 6.93945 108.748 7.1543C108.94 7.36914 109.295 7.58398 109.812 7.79883C110.278 7.60352 110.607 7.39355 110.799 7.16895C110.994 6.94434 111.092 6.68229 111.092 6.38281C111.092 6.05404 110.973 5.79362 110.735 5.60156C110.501 5.40625 110.177 5.30859 109.764 5.30859Z" fill="#3F3F46"/>
<path d="M137.141 11.8906L134.719 5.5625H134.68C134.725 6.0638 134.748 6.65951 134.748 7.34961V11.8906H133.981V4.75195H135.231L137.492 10.6406H137.531L139.812 4.75195H141.052V11.8906H140.222V7.29102C140.222 6.76367 140.244 6.19076 140.29 5.57227H140.251L137.81 11.8906H137.141ZM146.184 11.8906L146.022 11.1289H145.983C145.716 11.4642 145.45 11.6921 145.183 11.8125C144.919 11.9297 144.589 11.9883 144.191 11.9883C143.661 11.9883 143.244 11.8516 142.941 11.5781C142.642 11.3047 142.492 10.9157 142.492 10.4111C142.492 9.3304 143.356 8.764 145.085 8.71191L145.993 8.68262V8.35059C145.993 7.93066 145.902 7.62142 145.72 7.42285C145.541 7.22103 145.253 7.12012 144.855 7.12012C144.41 7.12012 143.905 7.25684 143.342 7.53027L143.093 6.91016C143.356 6.76693 143.645 6.65462 143.957 6.57324C144.273 6.49186 144.589 6.45117 144.904 6.45117C145.542 6.45117 146.014 6.59277 146.32 6.87598C146.63 7.15918 146.784 7.61328 146.784 8.23828V11.8906H146.184ZM144.353 11.3193C144.857 11.3193 145.253 11.181 145.539 10.9043C145.829 10.6276 145.974 10.2402 145.974 9.74219V9.25879L145.163 9.29297C144.519 9.31576 144.053 9.41667 143.767 9.5957C143.483 9.77148 143.342 10.0465 143.342 10.4209C143.342 10.7139 143.43 10.9368 143.605 11.0898C143.785 11.2428 144.034 11.3193 144.353 11.3193ZM147.609 6.53906H148.479L149.65 9.59082C149.908 10.2874 150.067 10.7904 150.129 11.0996H150.168C150.21 10.9336 150.298 10.6504 150.432 10.25C150.568 9.84635 151.011 8.60938 151.76 6.53906H152.629L150.329 12.6328C150.101 13.235 149.834 13.6615 149.528 13.9121C149.226 14.166 148.853 14.293 148.41 14.293C148.163 14.293 147.919 14.2653 147.678 14.21V13.5605C147.857 13.5996 148.057 13.6191 148.278 13.6191C148.835 13.6191 149.232 13.3066 149.47 12.6816L149.768 11.9199L147.609 6.53906ZM155.808 8.83887C155.808 7.43587 156.079 6.3877 156.623 5.69434C157.17 4.99772 157.977 4.64941 159.045 4.64941C159.413 4.64941 159.702 4.68034 159.914 4.74219V5.44043C159.663 5.35905 159.377 5.31836 159.055 5.31836C158.29 5.31836 157.705 5.55762 157.302 6.03613C156.898 6.51139 156.677 7.26009 156.638 8.28223H156.696C157.054 7.72233 157.621 7.44238 158.396 7.44238C159.037 7.44238 159.541 7.63607 159.909 8.02344C160.28 8.41081 160.466 8.93652 160.466 9.60059C160.466 10.3428 160.262 10.9271 159.855 11.3535C159.452 11.7767 158.905 11.9883 158.215 11.9883C157.476 11.9883 156.89 11.7116 156.457 11.1582C156.024 10.6016 155.808 9.82845 155.808 8.83887ZM158.205 11.2998C158.667 11.2998 159.025 11.1549 159.279 10.8652C159.536 10.5723 159.665 10.1507 159.665 9.60059C159.665 9.12858 159.546 8.75749 159.309 8.4873C159.071 8.21712 158.716 8.08203 158.244 8.08203C157.951 8.08203 157.683 8.14225 157.438 8.2627C157.194 8.38314 156.999 8.54915 156.853 8.76074C156.709 8.97233 156.638 9.19206 156.638 9.41992C156.638 9.75521 156.703 10.0677 156.833 10.3574C156.963 10.6471 157.147 10.8766 157.385 11.0459C157.626 11.2152 157.899 11.2998 158.205 11.2998Z" fill="#3F3F46"/>
<path d="M177.141 11.8906L174.719 5.5625H174.68C174.725 6.0638 174.748 6.65951 174.748 7.34961V11.8906H173.981V4.75195H175.231L177.492 10.6406H177.531L179.812 4.75195H181.052V11.8906H180.222V7.29102C180.222 6.76367 180.244 6.19076 180.29 5.57227H180.251L177.81 11.8906H177.141ZM186.184 11.8906L186.022 11.1289H185.983C185.716 11.4642 185.45 11.6921 185.183 11.8125C184.919 11.9297 184.589 11.9883 184.191 11.9883C183.661 11.9883 183.244 11.8516 182.941 11.5781C182.642 11.3047 182.492 10.9157 182.492 10.4111C182.492 9.3304 183.356 8.764 185.085 8.71191L185.993 8.68262V8.35059C185.993 7.93066 185.902 7.62142 185.72 7.42285C185.541 7.22103 185.253 7.12012 184.855 7.12012C184.41 7.12012 183.905 7.25684 183.342 7.53027L183.093 6.91016C183.356 6.76693 183.645 6.65462 183.957 6.57324C184.273 6.49186 184.589 6.45117 184.904 6.45117C185.542 6.45117 186.014 6.59277 186.32 6.87598C186.63 7.15918 186.784 7.61328 186.784 8.23828V11.8906H186.184ZM184.353 11.3193C184.857 11.3193 185.253 11.181 185.539 10.9043C185.829 10.6276 185.974 10.2402 185.974 9.74219V9.25879L185.163 9.29297C184.519 9.31576 184.053 9.41667 183.767 9.5957C183.483 9.77148 183.342 10.0465 183.342 10.4209C183.342 10.7139 183.43 10.9368 183.605 11.0898C183.785 11.2428 184.034 11.3193 184.353 11.3193ZM187.609 6.53906H188.479L189.65 9.59082C189.908 10.2874 190.067 10.7904 190.129 11.0996H190.168C190.21 10.9336 190.298 10.6504 190.432 10.25C190.568 9.84635 191.011 8.60938 191.76 6.53906H192.629L190.329 12.6328C190.101 13.235 189.834 13.6615 189.528 13.9121C189.226 14.166 188.853 14.293 188.41 14.293C188.163 14.293 187.919 14.2653 187.678 14.21V13.5605C187.857 13.5996 188.057 13.6191 188.278 13.6191C188.835 13.6191 189.232 13.3066 189.47 12.6816L189.768 11.9199L187.609 6.53906ZM198.728 11.8906H197.937V6.80273C197.937 6.37956 197.95 5.97917 197.976 5.60156C197.907 5.66992 197.831 5.74154 197.746 5.81641C197.661 5.89128 197.274 6.20866 196.584 6.76855L196.154 6.21191L198.044 4.75195H198.728V11.8906ZM206.477 10.25H205.417V11.8906H204.641V10.25H201.169V9.54199L204.558 4.71289H205.417V9.5127H206.477V10.25ZM204.641 9.5127V7.13965C204.641 6.67415 204.657 6.14844 204.689 5.5625H204.65C204.494 5.875 204.348 6.13379 204.211 6.33887L201.979 9.5127H204.641Z" fill="#3F3F46"/>
<path d="M234.212 11.8906H233.392L231.951 7.11035C231.883 6.89876 231.806 6.63184 231.722 6.30957C231.637 5.9873 231.593 5.79362 231.59 5.72852C231.518 6.1582 231.404 6.62858 231.248 7.13965L229.852 11.8906H229.031L227.132 4.75195H228.011L229.139 9.16113C229.295 9.77962 229.409 10.3395 229.48 10.8408C229.568 10.2451 229.699 9.66243 229.871 9.09277L231.15 4.75195H232.029L233.372 9.13184C233.528 9.63639 233.66 10.2061 233.768 10.8408C233.829 10.3786 233.947 9.81543 234.119 9.15137L235.242 4.75195H236.121L234.212 11.8906ZM239.378 11.9883C238.587 11.9883 237.962 11.7474 237.503 11.2656C237.047 10.7839 236.819 10.1149 236.819 9.25879C236.819 8.39616 237.031 7.71094 237.454 7.20312C237.881 6.69531 238.452 6.44141 239.168 6.44141C239.839 6.44141 240.369 6.66276 240.76 7.10547C241.15 7.54492 241.346 8.12598 241.346 8.84863V9.36133H237.659C237.675 9.98958 237.833 10.4665 238.133 10.792C238.436 11.1175 238.86 11.2803 239.407 11.2803C239.983 11.2803 240.553 11.1598 241.116 10.9189V11.6416C240.83 11.7653 240.558 11.8532 240.301 11.9053C240.047 11.9606 239.739 11.9883 239.378 11.9883ZM239.158 7.12012C238.729 7.12012 238.385 7.26009 238.128 7.54004C237.874 7.81999 237.724 8.20736 237.679 8.70215H240.477C240.477 8.19108 240.363 7.80046 240.135 7.53027C239.907 7.25684 239.581 7.12012 239.158 7.12012ZM244.993 11.9883C244.202 11.9883 243.577 11.7474 243.118 11.2656C242.662 10.7839 242.435 10.1149 242.435 9.25879C242.435 8.39616 242.646 7.71094 243.069 7.20312C243.496 6.69531 244.067 6.44141 244.783 6.44141C245.454 6.44141 245.984 6.66276 246.375 7.10547C246.766 7.54492 246.961 8.12598 246.961 8.84863V9.36133H243.274C243.291 9.98958 243.449 10.4665 243.748 10.792C244.051 11.1175 244.476 11.2803 245.022 11.2803C245.599 11.2803 246.168 11.1598 246.731 10.9189V11.6416C246.445 11.7653 246.173 11.8532 245.916 11.9053C245.662 11.9606 245.354 11.9883 244.993 11.9883ZM244.773 7.12012C244.344 7.12012 244 7.26009 243.743 7.54004C243.489 7.81999 243.34 8.20736 243.294 8.70215H246.092C246.092 8.19108 245.978 7.80046 245.75 7.53027C245.522 7.25684 245.197 7.12012 244.773 7.12012ZM249.148 9.15137C249.288 8.9528 249.502 8.69238 249.788 8.37012L251.517 6.53906H252.479L250.311 8.81934L252.63 11.8906H251.648L249.759 9.36133L249.148 9.88867V11.8906H248.348V4.29297H249.148V8.32129C249.148 8.50033 249.135 8.77702 249.109 9.15137H249.148ZM258.831 11.8906H258.04V6.80273C258.04 6.37956 258.053 5.97917 258.079 5.60156C258.011 5.66992 257.934 5.74154 257.85 5.81641C257.765 5.89128 257.378 6.20866 256.688 6.76855L256.258 6.21191L258.147 4.75195H258.831V11.8906Z" fill="#3F3F46"/>
<path d="M321.212 11.8906H320.392L318.951 7.11035C318.883 6.89876 318.806 6.63184 318.722 6.30957C318.637 5.9873 318.593 5.79362 318.59 5.72852C318.518 6.1582 318.404 6.62858 318.248 7.13965L316.852 11.8906H316.031L314.132 4.75195H315.011L316.139 9.16113C316.295 9.77962 316.409 10.3395 316.48 10.8408C316.568 10.2451 316.699 9.66243 316.871 9.09277L318.15 4.75195H319.029L320.372 9.13184C320.528 9.63639 320.66 10.2061 320.768 10.8408C320.829 10.3786 320.947 9.81543 321.119 9.15137L322.242 4.75195H323.121L321.212 11.8906ZM326.378 11.9883C325.587 11.9883 324.962 11.7474 324.503 11.2656C324.047 10.7839 323.819 10.1149 323.819 9.25879C323.819 8.39616 324.031 7.71094 324.454 7.20312C324.881 6.69531 325.452 6.44141 326.168 6.44141C326.839 6.44141 327.369 6.66276 327.76 7.10547C328.15 7.54492 328.346 8.12598 328.346 8.84863V9.36133H324.659C324.675 9.98958 324.833 10.4665 325.133 10.792C325.436 11.1175 325.86 11.2803 326.407 11.2803C326.983 11.2803 327.553 11.1598 328.116 10.9189V11.6416C327.83 11.7653 327.558 11.8532 327.301 11.9053C327.047 11.9606 326.739 11.9883 326.378 11.9883ZM326.158 7.12012C325.729 7.12012 325.385 7.26009 325.128 7.54004C324.874 7.81999 324.724 8.20736 324.679 8.70215H327.477C327.477 8.19108 327.363 7.80046 327.135 7.53027C326.907 7.25684 326.581 7.12012 326.158 7.12012ZM331.993 11.9883C331.202 11.9883 330.577 11.7474 330.118 11.2656C329.662 10.7839 329.435 10.1149 329.435 9.25879C329.435 8.39616 329.646 7.71094 330.069 7.20312C330.496 6.69531 331.067 6.44141 331.783 6.44141C332.454 6.44141 332.984 6.66276 333.375 7.10547C333.766 7.54492 333.961 8.12598 333.961 8.84863V9.36133H330.274C330.291 9.98958 330.449 10.4665 330.748 10.792C331.051 11.1175 331.476 11.2803 332.022 11.2803C332.599 11.2803 333.168 11.1598 333.731 10.9189V11.6416C333.445 11.7653 333.173 11.8532 332.916 11.9053C332.662 11.9606 332.354 11.9883 331.993 11.9883ZM331.773 7.12012C331.344 7.12012 331 7.26009 330.743 7.54004C330.489 7.81999 330.34 8.20736 330.294 8.70215H333.092C333.092 8.19108 332.978 7.80046 332.75 7.53027C332.522 7.25684 332.197 7.12012 331.773 7.12012ZM336.148 9.15137C336.288 8.9528 336.502 8.69238 336.788 8.37012L338.517 6.53906H339.479L337.311 8.81934L339.63 11.8906H338.648L336.759 9.36133L336.148 9.88867V11.8906H335.348V4.29297H336.148V8.32129C336.148 8.50033 336.135 8.77702 336.109 9.15137H336.148ZM345.831 11.8906H345.04V6.80273C345.04 6.37956 345.053 5.97917 345.079 5.60156C345.011 5.66992 344.934 5.74154 344.85 5.81641C344.765 5.89128 344.378 6.20866 343.688 6.76855L343.258 6.21191L345.147 4.75195H345.831V11.8906ZM353.243 11.8906H348.551V11.1924L350.431 9.30273C351.004 8.72331 351.381 8.3099 351.563 8.0625C351.746 7.8151 351.882 7.57422 351.974 7.33984C352.065 7.10547 352.11 6.85319 352.11 6.58301C352.11 6.20215 351.995 5.90104 351.764 5.67969C351.533 5.45508 351.212 5.34277 350.802 5.34277C350.506 5.34277 350.224 5.3916 349.957 5.48926C349.693 5.58691 349.399 5.76432 349.073 6.02148L348.644 5.46973C349.301 4.92285 350.017 4.64941 350.792 4.64941C351.463 4.64941 351.988 4.82194 352.369 5.16699C352.75 5.50879 352.94 5.9694 352.94 6.54883C352.94 7.0013 352.813 7.44889 352.56 7.8916C352.306 8.33431 351.83 8.89421 351.134 9.57129L349.571 11.0996V11.1387H353.243V11.8906Z" fill="#3F3F46"/>
<line x1="1" y1="17.9182" x2="359" y2="17.9182" stroke="#ACACAC" stroke-width="0.263235"/>
<path d="M1 18.0498V397.05" stroke="#ACACAC" stroke-width="0.263235"/>
<path d="M48.3828 18.0498V397.05" stroke="#ACACAC" stroke-width="0.263235"/>
<path d="M95.7656 18.0498V397.05" stroke="#ACACAC" stroke-width="0.263235"/>
<path d="M143.148 18.0498V397.05" stroke="#ACACAC" stroke-width="0.263235"/>
<path d="M190.531 18.0498V397.05" stroke="#ACACAC" stroke-width="0.263235"/>
<path d="M237.91 18.0498V397.05" stroke="#ACACAC" stroke-width="0.263235"/>
<path d="M285.293 18.0498V397.05" stroke="#ACACAC" stroke-width="0.263235"/>
<path d="M332.676 18.0498V397.05" stroke="#ACACAC" stroke-width="0.263235"/>
</svg>
