<svg width="359" height="399" viewBox="0 0 359 399" fill="none" xmlns="http://www.w3.org/2000/svg">
<path d="M6.46875 11.8906L5.58008 9.62012H2.71875L1.83984 11.8906H1L3.82227 4.72266H4.52051L7.32812 11.8906H6.46875ZM5.32129 8.87305L4.49121 6.66113C4.38379 6.38118 4.27311 6.03776 4.15918 5.63086C4.08757 5.94336 3.98503 6.28678 3.85156 6.66113L3.01172 8.87305H5.32129ZM10.6777 11.9883C10.3294 11.9883 10.0104 11.9248 9.7207 11.7979C9.43424 11.6676 9.19336 11.4691 8.99805 11.2021H8.93945C8.97852 11.5146 8.99805 11.8109 8.99805 12.0908V14.293H8.1875V6.53906H8.84668L8.95898 7.27148H8.99805C9.20638 6.97852 9.44889 6.76693 9.72559 6.63672C10.0023 6.50651 10.3197 6.44141 10.6777 6.44141C11.3874 6.44141 11.9342 6.68392 12.3184 7.16895C12.7057 7.65397 12.8994 8.33431 12.8994 9.20996C12.8994 10.0889 12.7025 10.7725 12.3086 11.2607C11.918 11.7458 11.3743 11.9883 10.6777 11.9883ZM10.5605 7.12988C10.0137 7.12988 9.61816 7.28125 9.37402 7.58398C9.12988 7.88672 9.00456 8.36849 8.99805 9.0293V9.20996C8.99805 9.96191 9.12337 10.5007 9.37402 10.8262C9.62467 11.1484 10.0267 11.3096 10.5801 11.3096C11.0423 11.3096 11.4036 11.1224 11.6641 10.748C11.9277 10.3737 12.0596 9.85775 12.0596 9.2002C12.0596 8.53288 11.9277 8.02181 11.6641 7.66699C11.4036 7.30892 11.0358 7.12988 10.5605 7.12988ZM16.7617 6.44141C16.9993 6.44141 17.2126 6.46094 17.4014 6.5L17.2891 7.25195C17.0677 7.20312 16.8724 7.17871 16.7031 7.17871C16.2702 7.17871 15.8991 7.35449 15.5898 7.70605C15.2839 8.05762 15.1309 8.49544 15.1309 9.01953V11.8906H14.3203V6.53906H14.9893L15.082 7.53027H15.1211C15.3197 7.18197 15.5589 6.91341 15.8389 6.72461C16.1188 6.53581 16.4264 6.44141 16.7617 6.44141ZM19.2129 11.8906H18.4023V6.53906H19.2129V11.8906ZM18.334 5.08887C18.334 4.90332 18.3796 4.76823 18.4707 4.68359C18.5618 4.5957 18.6758 4.55176 18.8125 4.55176C18.9427 4.55176 19.055 4.5957 19.1494 4.68359C19.2438 4.77148 19.291 4.90658 19.291 5.08887C19.291 5.27116 19.2438 5.40788 19.1494 5.49902C19.055 5.58691 18.9427 5.63086 18.8125 5.63086C18.6758 5.63086 18.5618 5.58691 18.4707 5.49902C18.3796 5.40788 18.334 5.27116 18.334 5.08887ZM21.7422 11.8906H20.9316V4.29297H21.7422V11.8906ZM28.6904 11.8906H27.8994V6.80273C27.8994 6.37956 27.9124 5.97917 27.9385 5.60156C27.8701 5.66992 27.7936 5.74154 27.709 5.81641C27.6243 5.89128 27.237 6.20866 26.5469 6.76855L26.1172 6.21191L28.0068 4.75195H28.6904V11.8906ZM36.1025 11.8906H31.4102V11.1924L33.29 9.30273C33.863 8.72331 34.2406 8.3099 34.4229 8.0625C34.6051 7.8151 34.7419 7.57422 34.833 7.33984C34.9242 7.10547 34.9697 6.85319 34.9697 6.58301C34.9697 6.20215 34.8542 5.90104 34.623 5.67969C34.3919 5.45508 34.0713 5.34277 33.6611 5.34277C33.3649 5.34277 33.0833 5.3916 32.8164 5.48926C32.5527 5.58691 32.2581 5.76432 31.9326 6.02148L31.5029 5.46973C32.1605 4.92285 32.8766 4.64941 33.6514 4.64941C34.3219 4.64941 34.8477 4.82194 35.2285 5.16699C35.6094 5.50879 35.7998 5.9694 35.7998 6.54883C35.7998 7.0013 35.6729 7.44889 35.4189 7.8916C35.165 8.33431 34.6898 8.89421 33.9932 9.57129L32.4307 11.0996V11.1387H36.1025V11.8906Z" fill="#3F3F46"/>
<path d="M82.4688 11.8906L81.5801 9.62012H78.7188L77.8398 11.8906H77L79.8223 4.72266H80.5205L83.3281 11.8906H82.4688ZM81.3213 8.87305L80.4912 6.66113C80.3838 6.38118 80.2731 6.03776 80.1592 5.63086C80.0876 5.94336 79.985 6.28678 79.8516 6.66113L79.0117 8.87305H81.3213ZM86.6777 11.9883C86.3294 11.9883 86.0104 11.9248 85.7207 11.7979C85.4342 11.6676 85.1934 11.4691 84.998 11.2021H84.9395C84.9785 11.5146 84.998 11.8109 84.998 12.0908V14.293H84.1875V6.53906H84.8467L84.959 7.27148H84.998C85.2064 6.97852 85.4489 6.76693 85.7256 6.63672C86.0023 6.50651 86.3197 6.44141 86.6777 6.44141C87.3874 6.44141 87.9342 6.68392 88.3184 7.16895C88.7057 7.65397 88.8994 8.33431 88.8994 9.20996C88.8994 10.0889 88.7025 10.7725 88.3086 11.2607C87.918 11.7458 87.3743 11.9883 86.6777 11.9883ZM86.5605 7.12988C86.0137 7.12988 85.6182 7.28125 85.374 7.58398C85.1299 7.88672 85.0046 8.36849 84.998 9.0293V9.20996C84.998 9.96191 85.1234 10.5007 85.374 10.8262C85.6247 11.1484 86.0267 11.3096 86.5801 11.3096C87.0423 11.3096 87.4036 11.1224 87.6641 10.748C87.9277 10.3737 88.0596 9.85775 88.0596 9.2002C88.0596 8.53288 87.9277 8.02181 87.6641 7.66699C87.4036 7.30892 87.0358 7.12988 86.5605 7.12988ZM92.7617 6.44141C92.9993 6.44141 93.2126 6.46094 93.4014 6.5L93.2891 7.25195C93.0677 7.20312 92.8724 7.17871 92.7031 7.17871C92.2702 7.17871 91.8991 7.35449 91.5898 7.70605C91.2839 8.05762 91.1309 8.49544 91.1309 9.01953V11.8906H90.3203V6.53906H90.9893L91.082 7.53027H91.1211C91.3197 7.18197 91.5589 6.91341 91.8389 6.72461C92.1188 6.53581 92.4264 6.44141 92.7617 6.44141ZM95.2129 11.8906H94.4023V6.53906H95.2129V11.8906ZM94.334 5.08887C94.334 4.90332 94.3796 4.76823 94.4707 4.68359C94.5618 4.5957 94.6758 4.55176 94.8125 4.55176C94.9427 4.55176 95.055 4.5957 95.1494 4.68359C95.2438 4.77148 95.291 4.90658 95.291 5.08887C95.291 5.27116 95.2438 5.40788 95.1494 5.49902C95.055 5.58691 94.9427 5.63086 94.8125 5.63086C94.6758 5.63086 94.5618 5.58691 94.4707 5.49902C94.3796 5.40788 94.334 5.27116 94.334 5.08887ZM97.7422 11.8906H96.9316V4.29297H97.7422V11.8906ZM106.38 11.8906H101.688V11.1924L103.567 9.30273C104.14 8.72331 104.518 8.3099 104.7 8.0625C104.882 7.8151 105.019 7.57422 105.11 7.33984C105.201 7.10547 105.247 6.85319 105.247 6.58301C105.247 6.20215 105.132 5.90104 104.9 5.67969C104.669 5.45508 104.349 5.34277 103.938 5.34277C103.642 5.34277 103.361 5.3916 103.094 5.48926C102.83 5.58691 102.535 5.76432 102.21 6.02148L101.78 5.46973C102.438 4.92285 103.154 4.64941 103.929 4.64941C104.599 4.64941 105.125 4.82194 105.506 5.16699C105.887 5.50879 106.077 5.9694 106.077 6.54883C106.077 7.0013 105.95 7.44889 105.696 7.8916C105.442 8.33431 104.967 8.89421 104.271 9.57129L102.708 11.0996V11.1387H106.38V11.8906ZM109.773 4.64941C110.424 4.64941 110.94 4.80078 111.321 5.10352C111.702 5.40625 111.893 5.82454 111.893 6.3584C111.893 6.70996 111.784 7.0306 111.565 7.32031C111.347 7.61003 110.999 7.8737 110.521 8.11133C111.1 8.38802 111.512 8.67936 111.756 8.98535C112 9.28809 112.122 9.63965 112.122 10.04C112.122 10.6325 111.915 11.1061 111.502 11.4609C111.089 11.8125 110.522 11.9883 109.803 11.9883C109.041 11.9883 108.455 11.8223 108.045 11.4902C107.635 11.1549 107.43 10.6813 107.43 10.0693C107.43 9.25228 107.928 8.61589 108.924 8.16016C108.475 7.90625 108.152 7.63281 107.957 7.33984C107.762 7.04362 107.664 6.71322 107.664 6.34863C107.664 5.83105 107.854 5.41927 108.235 5.11328C108.619 4.80404 109.132 4.64941 109.773 4.64941ZM108.23 10.0889C108.23 10.4795 108.366 10.7839 108.636 11.002C108.909 11.2201 109.292 11.3291 109.783 11.3291C110.268 11.3291 110.646 11.2152 110.916 10.9873C111.186 10.7594 111.321 10.4469 111.321 10.0498C111.321 9.73405 111.194 9.4541 110.94 9.20996C110.687 8.96257 110.244 8.72331 109.612 8.49219C109.127 8.70052 108.776 8.93164 108.558 9.18555C108.34 9.4362 108.23 9.7373 108.23 10.0889ZM109.764 5.30859C109.357 5.30859 109.038 5.40625 108.807 5.60156C108.576 5.79688 108.46 6.05729 108.46 6.38281C108.46 6.68229 108.556 6.93945 108.748 7.1543C108.94 7.36914 109.295 7.58398 109.812 7.79883C110.278 7.60352 110.607 7.39355 110.799 7.16895C110.994 6.94434 111.092 6.68229 111.092 6.38281C111.092 6.05404 110.973 5.79362 110.735 5.60156C110.501 5.40625 110.177 5.30859 109.764 5.30859Z" fill="#3F3F46"/>
<path d="M137.141 11.8906L134.719 5.5625H134.68C134.725 6.0638 134.748 6.65951 134.748 7.34961V11.8906H133.981V4.75195H135.231L137.492 10.6406H137.531L139.812 4.75195H141.052V11.8906H140.222V7.29102C140.222 6.76367 140.244 6.19076 140.29 5.57227H140.251L137.81 11.8906H137.141ZM146.184 11.8906L146.022 11.1289H145.983C145.716 11.4642 145.45 11.6921 145.183 11.8125C144.919 11.9297 144.589 11.9883 144.191 11.9883C143.661 11.9883 143.244 11.8516 142.941 11.5781C142.642 11.3047 142.492 10.9157 142.492 10.4111C142.492 9.3304 143.356 8.764 145.085 8.71191L145.993 8.68262V8.35059C145.993 7.93066 145.902 7.62142 145.72 7.42285C145.541 7.22103 145.253 7.12012 144.855 7.12012C144.41 7.12012 143.905 7.25684 143.342 7.53027L143.093 6.91016C143.356 6.76693 143.645 6.65462 143.957 6.57324C144.273 6.49186 144.589 6.45117 144.904 6.45117C145.542 6.45117 146.014 6.59277 146.32 6.87598C146.63 7.15918 146.784 7.61328 146.784 8.23828V11.8906H146.184ZM144.353 11.3193C144.857 11.3193 145.253 11.181 145.539 10.9043C145.829 10.6276 145.974 10.2402 145.974 9.74219V9.25879L145.163 9.29297C144.519 9.31576 144.053 9.41667 143.767 9.5957C143.483 9.77148 143.342 10.0465 143.342 10.4209C143.342 10.7139 143.43 10.9368 143.605 11.0898C143.785 11.2428 144.034 11.3193 144.353 11.3193ZM147.609 6.53906H148.479L149.65 9.59082C149.908 10.2874 150.067 10.7904 150.129 11.0996H150.168C150.21 10.9336 150.298 10.6504 150.432 10.25C150.568 9.84635 151.011 8.60938 151.76 6.53906H152.629L150.329 12.6328C150.101 13.235 149.834 13.6615 149.528 13.9121C149.226 14.166 148.853 14.293 148.41 14.293C148.163 14.293 147.919 14.2653 147.678 14.21V13.5605C147.857 13.5996 148.057 13.6191 148.278 13.6191C148.835 13.6191 149.232 13.3066 149.47 12.6816L149.768 11.9199L147.609 6.53906ZM155.808 8.83887C155.808 7.43587 156.079 6.3877 156.623 5.69434C157.17 4.99772 157.977 4.64941 159.045 4.64941C159.413 4.64941 159.702 4.68034 159.914 4.74219V5.44043C159.663 5.35905 159.377 5.31836 159.055 5.31836C158.29 5.31836 157.705 5.55762 157.302 6.03613C156.898 6.51139 156.677 7.26009 156.638 8.28223H156.696C157.054 7.72233 157.621 7.44238 158.396 7.44238C159.037 7.44238 159.541 7.63607 159.909 8.02344C160.28 8.41081 160.466 8.93652 160.466 9.60059C160.466 10.3428 160.262 10.9271 159.855 11.3535C159.452 11.7767 158.905 11.9883 158.215 11.9883C157.476 11.9883 156.89 11.7116 156.457 11.1582C156.024 10.6016 155.808 9.82845 155.808 8.83887ZM158.205 11.2998C158.667 11.2998 159.025 11.1549 159.279 10.8652C159.536 10.5723 159.665 10.1507 159.665 9.60059C159.665 9.12858 159.546 8.75749 159.309 8.4873C159.071 8.21712 158.716 8.08203 158.244 8.08203C157.951 8.08203 157.683 8.14225 157.438 8.2627C157.194 8.38314 156.999 8.54915 156.853 8.76074C156.709 8.97233 156.638 9.19206 156.638 9.41992C156.638 9.75521 156.703 10.0677 156.833 10.3574C156.963 10.6471 157.147 10.8766 157.385 11.0459C157.626 11.2152 157.899 11.2998 158.205 11.2998Z" fill="#3F3F46"/>
<path d="M177.141 11.8906L174.719 5.5625H174.68C174.725 6.0638 174.748 6.65951 174.748 7.34961V11.8906H173.981V4.75195H175.231L177.492 10.6406H177.531L179.812 4.75195H181.052V11.8906H180.222V7.29102C180.222 6.76367 180.244 6.19076 180.29 5.57227H180.251L177.81 11.8906H177.141ZM186.184 11.8906L186.022 11.1289H185.983C185.716 11.4642 185.45 11.6921 185.183 11.8125C184.919 11.9297 184.589 11.9883 184.191 11.9883C183.661 11.9883 183.244 11.8516 182.941 11.5781C182.642 11.3047 182.492 10.9157 182.492 10.4111C182.492 9.3304 183.356 8.764 185.085 8.71191L185.993 8.68262V8.35059C185.993 7.93066 185.902 7.62142 185.72 7.42285C185.541 7.22103 185.253 7.12012 184.855 7.12012C184.41 7.12012 183.905 7.25684 183.342 7.53027L183.093 6.91016C183.356 6.76693 183.645 6.65462 183.957 6.57324C184.273 6.49186 184.589 6.45117 184.904 6.45117C185.542 6.45117 186.014 6.59277 186.32 6.87598C186.63 7.15918 186.784 7.61328 186.784 8.23828V11.8906H186.184ZM184.353 11.3193C184.857 11.3193 185.253 11.181 185.539 10.9043C185.829 10.6276 185.974 10.2402 185.974 9.74219V9.25879L185.163 9.29297C184.519 9.31576 184.053 9.41667 183.767 9.5957C183.483 9.77148 183.342 10.0465 183.342 10.4209C183.342 10.7139 183.43 10.9368 183.605 11.0898C183.785 11.2428 184.034 11.3193 184.353 11.3193ZM187.609 6.53906H188.479L189.65 9.59082C189.908 10.2874 190.067 10.7904 190.129 11.0996H190.168C190.21 10.9336 190.298 10.6504 190.432 10.25C190.568 9.84635 191.011 8.60938 191.76 6.53906H192.629L190.329 12.6328C190.101 13.235 189.834 13.6615 189.528 13.9121C189.226 14.166 188.853 14.293 188.41 14.293C188.163 14.293 187.919 14.2653 187.678 14.21V13.5605C187.857 13.5996 188.057 13.6191 188.278 13.6191C188.835 13.6191 189.232 13.3066 189.47 12.6816L189.768 11.9199L187.609 6.53906ZM198.728 11.8906H197.937V6.80273C197.937 6.37956 197.95 5.97917 197.976 5.60156C197.907 5.66992 197.831 5.74154 197.746 5.81641C197.661 5.89128 197.274 6.20866 196.584 6.76855L196.154 6.21191L198.044 4.75195H198.728V11.8906ZM206.477 10.25H205.417V11.8906H204.641V10.25H201.169V9.54199L204.558 4.71289H205.417V9.5127H206.477V10.25ZM204.641 9.5127V7.13965C204.641 6.67415 204.657 6.14844 204.689 5.5625H204.65C204.494 5.875 204.348 6.13379 204.211 6.33887L201.979 9.5127H204.641Z" fill="#3F3F46"/>
<path d="M234.212 11.8906H233.392L231.951 7.11035C231.883 6.89876 231.806 6.63184 231.722 6.30957C231.637 5.9873 231.593 5.79362 231.59 5.72852C231.518 6.1582 231.404 6.62858 231.248 7.13965L229.852 11.8906H229.031L227.132 4.75195H228.011L229.139 9.16113C229.295 9.77962 229.409 10.3395 229.48 10.8408C229.568 10.2451 229.699 9.66243 229.871 9.09277L231.15 4.75195H232.029L233.372 9.13184C233.528 9.63639 233.66 10.2061 233.768 10.8408C233.829 10.3786 233.947 9.81543 234.119 9.15137L235.242 4.75195H236.121L234.212 11.8906ZM239.378 11.9883C238.587 11.9883 237.962 11.7474 237.503 11.2656C237.047 10.7839 236.819 10.1149 236.819 9.25879C236.819 8.39616 237.031 7.71094 237.454 7.20312C237.881 6.69531 238.452 6.44141 239.168 6.44141C239.839 6.44141 240.369 6.66276 240.76 7.10547C241.15 7.54492 241.346 8.12598 241.346 8.84863V9.36133H237.659C237.675 9.98958 237.833 10.4665 238.133 10.792C238.436 11.1175 238.86 11.2803 239.407 11.2803C239.983 11.2803 240.553 11.1598 241.116 10.9189V11.6416C240.83 11.7653 240.558 11.8532 240.301 11.9053C240.047 11.9606 239.739 11.9883 239.378 11.9883ZM239.158 7.12012C238.729 7.12012 238.385 7.26009 238.128 7.54004C237.874 7.81999 237.724 8.20736 237.679 8.70215H240.477C240.477 8.19108 240.363 7.80046 240.135 7.53027C239.907 7.25684 239.581 7.12012 239.158 7.12012ZM244.993 11.9883C244.202 11.9883 243.577 11.7474 243.118 11.2656C242.662 10.7839 242.435 10.1149 242.435 9.25879C242.435 8.39616 242.646 7.71094 243.069 7.20312C243.496 6.69531 244.067 6.44141 244.783 6.44141C245.454 6.44141 245.984 6.66276 246.375 7.10547C246.766 7.54492 246.961 8.12598 246.961 8.84863V9.36133H243.274C243.291 9.98958 243.449 10.4665 243.748 10.792C244.051 11.1175 244.476 11.2803 245.022 11.2803C245.599 11.2803 246.168 11.1598 246.731 10.9189V11.6416C246.445 11.7653 246.173 11.8532 245.916 11.9053C245.662 11.9606 245.354 11.9883 244.993 11.9883ZM244.773 7.12012C244.344 7.12012 244 7.26009 243.743 7.54004C243.489 7.81999 243.34 8.20736 243.294 8.70215H246.092C246.092 8.19108 245.978 7.80046 245.75 7.53027C245.522 7.25684 245.197 7.12012 244.773 7.12012ZM249.148 9.15137C249.288 8.9528 249.502 8.69238 249.788 8.37012L251.517 6.53906H252.479L250.311 8.81934L252.63 11.8906H251.648L249.759 9.36133L249.148 9.88867V11.8906H248.348V4.29297H249.148V8.32129C249.148 8.50033 249.135 8.77702 249.109 9.15137H249.148ZM258.831 11.8906H258.04V6.80273C258.04 6.37956 258.053 5.97917 258.079 5.60156C258.011 5.66992 257.934 5.74154 257.85 5.81641C257.765 5.89128 257.378 6.20866 256.688 6.76855L256.258 6.21191L258.147 4.75195H258.831V11.8906Z" fill="#3F3F46"/>
<path d="M321.212 11.8906H320.392L318.951 7.11035C318.883 6.89876 318.806 6.63184 318.722 6.30957C318.637 5.9873 318.593 5.79362 318.59 5.72852C318.518 6.1582 318.404 6.62858 318.248 7.13965L316.852 11.8906H316.031L314.132 4.75195H315.011L316.139 9.16113C316.295 9.77962 316.409 10.3395 316.48 10.8408C316.568 10.2451 316.699 9.66243 316.871 9.09277L318.15 4.75195H319.029L320.372 9.13184C320.528 9.63639 320.66 10.2061 320.768 10.8408C320.829 10.3786 320.947 9.81543 321.119 9.15137L322.242 4.75195H323.121L321.212 11.8906ZM326.378 11.9883C325.587 11.9883 324.962 11.7474 324.503 11.2656C324.047 10.7839 323.819 10.1149 323.819 9.25879C323.819 8.39616 324.031 7.71094 324.454 7.20312C324.881 6.69531 325.452 6.44141 326.168 6.44141C326.839 6.44141 327.369 6.66276 327.76 7.10547C328.15 7.54492 328.346 8.12598 328.346 8.84863V9.36133H324.659C324.675 9.98958 324.833 10.4665 325.133 10.792C325.436 11.1175 325.86 11.2803 326.407 11.2803C326.983 11.2803 327.553 11.1598 328.116 10.9189V11.6416C327.83 11.7653 327.558 11.8532 327.301 11.9053C327.047 11.9606 326.739 11.9883 326.378 11.9883ZM326.158 7.12012C325.729 7.12012 325.385 7.26009 325.128 7.54004C324.874 7.81999 324.724 8.20736 324.679 8.70215H327.477C327.477 8.19108 327.363 7.80046 327.135 7.53027C326.907 7.25684 326.581 7.12012 326.158 7.12012ZM331.993 11.9883C331.202 11.9883 330.577 11.7474 330.118 11.2656C329.662 10.7839 329.435 10.1149 329.435 9.25879C329.435 8.39616 329.646 7.71094 330.069 7.20312C330.496 6.69531 331.067 6.44141 331.783 6.44141C332.454 6.44141 332.984 6.66276 333.375 7.10547C333.766 7.54492 333.961 8.12598 333.961 8.84863V9.36133H330.274C330.291 9.98958 330.449 10.4665 330.748 10.792C331.051 11.1175 331.476 11.2803 332.022 11.2803C332.599 11.2803 333.168 11.1598 333.731 10.9189V11.6416C333.445 11.7653 333.173 11.8532 332.916 11.9053C332.662 11.9606 332.354 11.9883 331.993 11.9883ZM331.773 7.12012C331.344 7.12012 331 7.26009 330.743 7.54004C330.489 7.81999 330.34 8.20736 330.294 8.70215H333.092C333.092 8.19108 332.978 7.80046 332.75 7.53027C332.522 7.25684 332.197 7.12012 331.773 7.12012ZM336.148 9.15137C336.288 8.9528 336.502 8.69238 336.788 8.37012L338.517 6.53906H339.479L337.311 8.81934L339.63 11.8906H338.648L336.759 9.36133L336.148 9.88867V11.8906H335.348V4.29297H336.148V8.32129C336.148 8.50033 336.135 8.77702 336.109 9.15137H336.148ZM345.831 11.8906H345.04V6.80273C345.04 6.37956 345.053 5.97917 345.079 5.60156C345.011 5.66992 344.934 5.74154 344.85 5.81641C344.765 5.89128 344.378 6.20866 343.688 6.76855L343.258 6.21191L345.147 4.75195H345.831V11.8906ZM353.243 11.8906H348.551V11.1924L350.431 9.30273C351.004 8.72331 351.381 8.3099 351.563 8.0625C351.746 7.8151 351.882 7.57422 351.974 7.33984C352.065 7.10547 352.11 6.85319 352.11 6.58301C352.11 6.20215 351.995 5.90104 351.764 5.67969C351.533 5.45508 351.212 5.34277 350.802 5.34277C350.506 5.34277 350.224 5.3916 349.957 5.48926C349.693 5.58691 349.399 5.76432 349.073 6.02148L348.644 5.46973C349.301 4.92285 350.017 4.64941 350.792 4.64941C351.463 4.64941 351.988 4.82194 352.369 5.16699C352.75 5.50879 352.94 5.9694 352.94 6.54883C352.94 7.0013 352.813 7.44889 352.56 7.8916C352.306 8.33431 351.83 8.89421 351.134 9.57129L349.571 11.0996V11.1387H353.243V11.8906Z" fill="#3F3F46"/>
<line x1="1" y1="17.9182" x2="359" y2="17.9182" stroke="#ACACAC" stroke-width="0.263235"/>
<path d="M1 18.0498V397.05" stroke="#ACACAC" stroke-width="0.263235"/>
<path d="M48.3828 18.0498V397.05" stroke="#ACACAC" stroke-width="0.263235"/>
<path d="M95.7656 18.0498V397.05" stroke="#ACACAC" stroke-width="0.263235"/>
<path d="M143.148 18.0498V397.05" stroke="#ACACAC" stroke-width="0.263235"/>
<path d="M190.531 18.0498V397.05" stroke="#ACACAC" stroke-width="0.263235"/>
<path d="M237.91 18.0498V397.05" stroke="#ACACAC" stroke-width="0.263235"/>
<path d="M285.293 18.0498V397.05" stroke="#ACACAC" stroke-width="0.263235"/>
<path d="M332.676 18.0498V397.05" stroke="#ACACAC" stroke-width="0.263235"/>
<rect x="1" y="26.6875" width="95" height="18" rx="2.63235" fill="url(#paint0_linear_3396_73103)"/>
<path d="M4.4082 56.7402H3.24121V50.6025H1.1416V49.6016H6.50781V50.6025H4.4082V56.7402ZM10.8633 56.7402L10.6338 55.9883H10.5947C10.3343 56.3171 10.0723 56.5417 9.80859 56.6621C9.54492 56.7793 9.20638 56.8379 8.79297 56.8379C8.26237 56.8379 7.84733 56.6947 7.54785 56.4082C7.25163 56.1217 7.10352 55.7165 7.10352 55.1924C7.10352 54.6357 7.31022 54.2158 7.72363 53.9326C8.13704 53.6494 8.76693 53.4948 9.61328 53.4688L10.5459 53.4395V53.1514C10.5459 52.8063 10.4645 52.5492 10.3018 52.3799C10.1423 52.2074 9.89323 52.1211 9.55469 52.1211C9.27799 52.1211 9.0127 52.1618 8.75879 52.2432C8.50488 52.3245 8.26074 52.4206 8.02637 52.5312L7.65527 51.7109C7.94824 51.5579 8.26888 51.4424 8.61719 51.3643C8.96549 51.2829 9.29427 51.2422 9.60352 51.2422C10.2904 51.2422 10.8079 51.3919 11.1562 51.6914C11.5078 51.9909 11.6836 52.4613 11.6836 53.1025V56.7402H10.8633ZM9.1543 55.959C9.57096 55.959 9.90462 55.8434 10.1553 55.6123C10.4092 55.3779 10.5361 55.0508 10.5361 54.6309V54.1621L9.84277 54.1914C9.30241 54.2109 8.90853 54.3021 8.66113 54.4648C8.41699 54.6243 8.29492 54.8701 8.29492 55.2021C8.29492 55.443 8.36654 55.6302 8.50977 55.7637C8.65299 55.8939 8.86784 55.959 9.1543 55.959ZM14.4326 56.7402H13.2852V49.1426H14.4326V56.7402ZM17.2256 56.7402H16.0781V49.1426H17.2256V56.7402ZM18.0508 51.3398H19.3008L20.3994 54.4014C20.5654 54.8376 20.6761 55.2477 20.7314 55.6318H20.7705C20.7998 55.4528 20.8535 55.2363 20.9316 54.9824C21.0098 54.7253 21.4232 53.5111 22.1719 51.3398H23.4121L21.1025 57.458C20.6826 58.5811 19.9827 59.1426 19.0029 59.1426C18.749 59.1426 18.5016 59.1149 18.2607 59.0596V58.1514C18.4333 58.1904 18.6302 58.21 18.8516 58.21C19.4049 58.21 19.7939 57.8893 20.0186 57.248L20.2188 56.7402L18.0508 51.3398ZM31.6787 51.7598C31.6787 52.5052 31.4346 53.0765 30.9463 53.4736C30.458 53.8708 29.763 54.0693 28.8613 54.0693H28.1191V56.7402H26.9521V49.6016H29.0078C29.8997 49.6016 30.5671 49.7839 31.0098 50.1484C31.4557 50.513 31.6787 51.0501 31.6787 51.7598ZM28.1191 53.0879H28.7393C29.3382 53.0879 29.7777 52.9837 30.0576 52.7754C30.3376 52.5671 30.4775 52.2415 30.4775 51.7988C30.4775 51.3887 30.3522 51.0827 30.1016 50.8809C29.8509 50.679 29.4603 50.5781 28.9297 50.5781H28.1191V53.0879ZM35.7217 51.2422C35.9528 51.2422 36.1432 51.2585 36.293 51.291L36.1807 52.3604C36.0179 52.3213 35.8486 52.3018 35.6729 52.3018C35.2139 52.3018 34.8411 52.4515 34.5547 52.751C34.2715 53.0505 34.1299 53.4395 34.1299 53.918V56.7402H32.9824V51.3398H33.8809L34.0322 52.292H34.0908C34.2699 51.9697 34.5026 51.7142 34.7891 51.5254C35.0788 51.3366 35.3896 51.2422 35.7217 51.2422ZM42.0889 54.0303C42.0889 54.9124 41.8626 55.6009 41.4102 56.0957C40.9577 56.5905 40.3278 56.8379 39.5205 56.8379C39.016 56.8379 38.57 56.724 38.1826 56.4961C37.7952 56.2682 37.4974 55.9411 37.2891 55.5146C37.0807 55.0882 36.9766 54.5934 36.9766 54.0303C36.9766 53.1546 37.2012 52.471 37.6504 51.9795C38.0996 51.488 38.7327 51.2422 39.5498 51.2422C40.3311 51.2422 40.9495 51.4945 41.4053 51.999C41.861 52.5003 42.0889 53.1774 42.0889 54.0303ZM38.1582 54.0303C38.1582 55.277 38.6188 55.9004 39.54 55.9004C40.4515 55.9004 40.9072 55.277 40.9072 54.0303C40.9072 52.7965 40.4482 52.1797 39.5303 52.1797C39.0485 52.1797 38.6986 52.3392 38.4805 52.6582C38.2656 52.9772 38.1582 53.4346 38.1582 54.0303ZM46.1514 56.8379C45.4678 56.8379 44.9372 56.5921 44.5596 56.1006H44.4912C44.5368 56.5563 44.5596 56.833 44.5596 56.9307V59.1426H43.4121V51.3398H44.3398C44.3659 51.4408 44.4196 51.6816 44.501 52.0625H44.5596C44.9176 51.5156 45.4548 51.2422 46.1709 51.2422C46.8447 51.2422 47.3688 51.4863 47.7432 51.9746C48.1208 52.4629 48.3096 53.1481 48.3096 54.0303C48.3096 54.9124 48.1175 55.6009 47.7334 56.0957C47.3525 56.5905 46.8252 56.8379 46.1514 56.8379ZM45.873 52.1797C45.4173 52.1797 45.0837 52.3132 44.8721 52.5801C44.6637 52.847 44.5596 53.2734 44.5596 53.8594V54.0303C44.5596 54.6878 44.6637 55.1647 44.8721 55.4609C45.0804 55.7539 45.4206 55.9004 45.8926 55.9004C46.2897 55.9004 46.5957 55.7376 46.8105 55.4121C47.0254 55.0866 47.1328 54.6227 47.1328 54.0205C47.1328 53.415 47.0254 52.9577 46.8105 52.6484C46.599 52.3359 46.2865 52.1797 45.873 52.1797ZM54.4326 54.0303C54.4326 54.9124 54.2064 55.6009 53.7539 56.0957C53.3014 56.5905 52.6715 56.8379 51.8643 56.8379C51.3597 56.8379 50.9137 56.724 50.5264 56.4961C50.139 56.2682 49.8411 55.9411 49.6328 55.5146C49.4245 55.0882 49.3203 54.5934 49.3203 54.0303C49.3203 53.1546 49.5449 52.471 49.9941 51.9795C50.4434 51.488 51.0765 51.2422 51.8936 51.2422C52.6748 51.2422 53.2933 51.4945 53.749 51.999C54.2048 52.5003 54.4326 53.1774 54.4326 54.0303ZM50.502 54.0303C50.502 55.277 50.9626 55.9004 51.8838 55.9004C52.7952 55.9004 53.251 55.277 53.251 54.0303C53.251 52.7965 52.792 52.1797 51.874 52.1797C51.3923 52.1797 51.0423 52.3392 50.8242 52.6582C50.6094 52.9772 50.502 53.4346 50.502 54.0303ZM59.3838 55.2021C59.3838 55.7295 59.1917 56.1348 58.8076 56.418C58.4235 56.6979 57.8734 56.8379 57.1572 56.8379C56.4378 56.8379 55.86 56.7288 55.4238 56.5107V55.5195C56.0586 55.8125 56.6494 55.959 57.1963 55.959C57.9027 55.959 58.2559 55.7458 58.2559 55.3193C58.2559 55.1826 58.2168 55.0687 58.1387 54.9775C58.0605 54.8864 57.932 54.792 57.7529 54.6943C57.5739 54.5967 57.3249 54.486 57.0059 54.3623C56.3841 54.1214 55.9626 53.8805 55.7412 53.6396C55.5231 53.3988 55.4141 53.0863 55.4141 52.7021C55.4141 52.2399 55.5996 51.8818 55.9707 51.6279C56.3451 51.3708 56.8529 51.2422 57.4941 51.2422C58.1289 51.2422 58.7295 51.3708 59.2959 51.6279L58.9248 52.4922C58.3421 52.2513 57.8522 52.1309 57.4551 52.1309C56.8496 52.1309 56.5469 52.3034 56.5469 52.6484C56.5469 52.8177 56.625 52.9609 56.7812 53.0781C56.9408 53.1953 57.2858 53.3564 57.8164 53.5615C58.2624 53.734 58.5863 53.8919 58.7881 54.0352C58.9899 54.1784 59.1396 54.3444 59.2373 54.5332C59.335 54.7188 59.3838 54.9417 59.3838 55.2021ZM64.0078 56.7402L63.7783 55.9883H63.7393C63.4788 56.3171 63.2168 56.5417 62.9531 56.6621C62.6895 56.7793 62.3509 56.8379 61.9375 56.8379C61.4069 56.8379 60.9919 56.6947 60.6924 56.4082C60.3962 56.1217 60.248 55.7165 60.248 55.1924C60.248 54.6357 60.4548 54.2158 60.8682 53.9326C61.2816 53.6494 61.9115 53.4948 62.7578 53.4688L63.6904 53.4395V53.1514C63.6904 52.8063 63.609 52.5492 63.4463 52.3799C63.2868 52.2074 63.0378 52.1211 62.6992 52.1211C62.4225 52.1211 62.1572 52.1618 61.9033 52.2432C61.6494 52.3245 61.4053 52.4206 61.1709 52.5312L60.7998 51.7109C61.0928 51.5579 61.4134 51.4424 61.7617 51.3643C62.11 51.2829 62.4388 51.2422 62.748 51.2422C63.4349 51.2422 63.9525 51.3919 64.3008 51.6914C64.6523 51.9909 64.8281 52.4613 64.8281 53.1025V56.7402H64.0078ZM62.2988 55.959C62.7155 55.959 63.0492 55.8434 63.2998 55.6123C63.5537 55.3779 63.6807 55.0508 63.6807 54.6309V54.1621L62.9873 54.1914C62.4469 54.2109 62.0531 54.3021 61.8057 54.4648C61.5615 54.6243 61.4395 54.8701 61.4395 55.2021C61.4395 55.443 61.5111 55.6302 61.6543 55.7637C61.7975 55.8939 62.0124 55.959 62.2988 55.959ZM67.5771 56.7402H66.4297V49.1426H67.5771V56.7402Z" fill="#3F3F46"/>
<rect x="99" y="81.7402" width="45" height="18" rx="2.63235" fill="url(#paint1_linear_3396_73103)"/>
<path d="M102.979 105.553C102.309 105.553 101.782 105.79 101.397 106.266C101.013 106.741 100.821 107.397 100.821 108.233C100.821 109.109 101.005 109.771 101.373 110.221C101.744 110.67 102.28 110.895 102.979 110.895C103.282 110.895 103.575 110.865 103.858 110.807C104.142 110.745 104.436 110.667 104.742 110.572V111.573C104.182 111.785 103.548 111.891 102.838 111.891C101.793 111.891 100.991 111.575 100.431 110.943C99.8708 110.309 99.5908 109.402 99.5908 108.224C99.5908 107.481 99.7259 106.832 99.9961 106.275C100.27 105.719 100.663 105.292 101.178 104.996C101.692 104.7 102.296 104.552 102.989 104.552C103.718 104.552 104.392 104.705 105.011 105.011L104.591 105.982C104.35 105.868 104.094 105.769 103.824 105.685C103.557 105.597 103.276 105.553 102.979 105.553ZM110.909 111.793H109.757V108.473C109.757 108.056 109.672 107.745 109.503 107.54C109.337 107.335 109.072 107.232 108.707 107.232C108.225 107.232 107.87 107.377 107.643 107.667C107.418 107.953 107.306 108.435 107.306 109.112V111.793H106.158V104.195H107.306V106.124C107.306 106.433 107.286 106.764 107.247 107.115H107.32C107.477 106.855 107.693 106.653 107.97 106.51C108.25 106.367 108.575 106.295 108.946 106.295C110.255 106.295 110.909 106.954 110.909 108.272V111.793ZM115.885 111.793L115.655 111.041H115.616C115.356 111.37 115.094 111.594 114.83 111.715C114.566 111.832 114.228 111.891 113.814 111.891C113.284 111.891 112.869 111.747 112.569 111.461C112.273 111.174 112.125 110.769 112.125 110.245C112.125 109.688 112.332 109.269 112.745 108.985C113.159 108.702 113.788 108.548 114.635 108.521L115.567 108.492V108.204C115.567 107.859 115.486 107.602 115.323 107.433C115.164 107.26 114.915 107.174 114.576 107.174C114.299 107.174 114.034 107.215 113.78 107.296C113.526 107.377 113.282 107.473 113.048 107.584L112.677 106.764C112.97 106.611 113.29 106.495 113.639 106.417C113.987 106.336 114.316 106.295 114.625 106.295C115.312 106.295 115.829 106.445 116.178 106.744C116.529 107.044 116.705 107.514 116.705 108.155V111.793H115.885ZM114.176 111.012C114.592 111.012 114.926 110.896 115.177 110.665C115.431 110.431 115.558 110.104 115.558 109.684V109.215L114.864 109.244C114.324 109.264 113.93 109.355 113.683 109.518C113.438 109.677 113.316 109.923 113.316 110.255C113.316 110.496 113.388 110.683 113.531 110.816C113.674 110.947 113.889 111.012 114.176 111.012ZM119.454 111.793H118.307V104.195H119.454V111.793ZM122.247 111.793H121.1V104.195H122.247V111.793ZM126.251 111.891C125.411 111.891 124.754 111.646 124.278 111.158C123.806 110.667 123.57 109.991 123.57 109.132C123.57 108.25 123.79 107.556 124.229 107.052C124.669 106.547 125.273 106.295 126.041 106.295C126.754 106.295 127.317 106.511 127.73 106.944C128.144 107.377 128.351 107.973 128.351 108.731V109.352H124.752C124.768 109.876 124.91 110.279 125.177 110.562C125.444 110.842 125.82 110.982 126.305 110.982C126.624 110.982 126.92 110.953 127.193 110.895C127.47 110.833 127.766 110.732 128.082 110.592V111.524C127.802 111.658 127.519 111.752 127.232 111.808C126.946 111.863 126.619 111.891 126.251 111.891ZM126.041 107.164C125.676 107.164 125.383 107.28 125.162 107.511C124.944 107.742 124.814 108.079 124.771 108.521H127.223C127.216 108.076 127.109 107.739 126.9 107.511C126.692 107.28 126.406 107.164 126.041 107.164ZM134.405 111.793H133.253V108.473C133.253 108.056 133.168 107.745 132.999 107.54C132.833 107.335 132.568 107.232 132.203 107.232C131.718 107.232 131.363 107.376 131.139 107.662C130.914 107.949 130.802 108.429 130.802 109.103V111.793H129.654V106.393H130.553L130.714 107.101H130.772C130.935 106.843 131.166 106.645 131.466 106.505C131.765 106.365 132.097 106.295 132.462 106.295C133.757 106.295 134.405 106.954 134.405 108.272V111.793ZM140.562 106.393V107.022L139.64 107.193C139.724 107.307 139.794 107.447 139.85 107.613C139.905 107.779 139.933 107.955 139.933 108.141C139.933 108.697 139.741 109.135 139.356 109.454C138.972 109.773 138.443 109.933 137.77 109.933C137.597 109.933 137.441 109.92 137.301 109.894C137.053 110.047 136.93 110.226 136.93 110.431C136.93 110.554 136.987 110.647 137.101 110.709C137.218 110.771 137.431 110.802 137.74 110.802H138.683C139.278 110.802 139.731 110.929 140.04 111.183C140.349 111.437 140.504 111.803 140.504 112.281C140.504 112.893 140.252 113.365 139.747 113.697C139.243 114.029 138.513 114.195 137.56 114.195C136.824 114.195 136.262 114.065 135.875 113.805C135.488 113.544 135.294 113.173 135.294 112.691C135.294 112.359 135.398 112.079 135.606 111.852C135.818 111.627 136.113 111.471 136.49 111.383C136.337 111.318 136.21 111.214 136.109 111.07C136.012 110.924 135.963 110.771 135.963 110.611C135.963 110.41 136.02 110.239 136.134 110.099C136.248 109.959 136.417 109.82 136.642 109.684C136.362 109.563 136.134 109.368 135.958 109.098C135.785 108.824 135.699 108.505 135.699 108.141C135.699 107.555 135.883 107.101 136.251 106.778C136.622 106.456 137.149 106.295 137.833 106.295C137.986 106.295 138.146 106.306 138.312 106.329C138.481 106.349 138.608 106.37 138.692 106.393H140.562ZM136.319 112.633C136.319 112.88 136.43 113.071 136.651 113.204C136.876 113.338 137.19 113.404 137.594 113.404C138.219 113.404 138.684 113.315 138.99 113.136C139.296 112.957 139.449 112.719 139.449 112.423C139.449 112.188 139.365 112.021 139.195 111.92C139.029 111.822 138.718 111.773 138.263 111.773H137.394C137.065 111.773 136.803 111.85 136.607 112.003C136.415 112.159 136.319 112.369 136.319 112.633ZM136.812 108.141C136.812 108.479 136.899 108.74 137.071 108.922C137.247 109.104 137.498 109.195 137.823 109.195C138.487 109.195 138.819 108.84 138.819 108.131C138.819 107.779 138.736 107.509 138.57 107.32C138.408 107.128 138.159 107.032 137.823 107.032C137.491 107.032 137.239 107.127 137.066 107.315C136.897 107.504 136.812 107.779 136.812 108.141ZM143.927 111.891C143.087 111.891 142.429 111.646 141.954 111.158C141.482 110.667 141.246 109.991 141.246 109.132C141.246 108.25 141.466 107.556 141.905 107.052C142.345 106.547 142.949 106.295 143.717 106.295C144.43 106.295 144.993 106.511 145.406 106.944C145.82 107.377 146.026 107.973 146.026 108.731V109.352H142.428C142.444 109.876 142.586 110.279 142.853 110.562C143.119 110.842 143.495 110.982 143.98 110.982C144.299 110.982 144.596 110.953 144.869 110.895C145.146 110.833 145.442 110.732 145.758 110.592V111.524C145.478 111.658 145.195 111.752 144.908 111.808C144.622 111.863 144.295 111.891 143.927 111.891ZM143.717 107.164C143.352 107.164 143.059 107.28 142.838 107.511C142.62 107.742 142.49 108.079 142.447 108.521H144.898C144.892 108.076 144.785 107.739 144.576 107.511C144.368 107.28 144.081 107.164 143.717 107.164ZM154.776 106.812C154.776 107.558 154.532 108.129 154.044 108.526C153.556 108.924 152.861 109.122 151.959 109.122H151.217V111.793H150.05V104.654H152.105C152.997 104.654 153.665 104.837 154.107 105.201C154.553 105.566 154.776 106.103 154.776 106.812ZM151.217 108.141H151.837C152.436 108.141 152.875 108.036 153.155 107.828C153.435 107.62 153.575 107.294 153.575 106.852C153.575 106.441 153.45 106.135 153.199 105.934C152.949 105.732 152.558 105.631 152.027 105.631H151.217V108.141ZM158.438 111.891C157.599 111.891 156.941 111.646 156.466 111.158C155.994 110.667 155.758 109.991 155.758 109.132C155.758 108.25 155.978 107.556 156.417 107.052C156.856 106.547 157.46 106.295 158.229 106.295C158.941 106.295 159.505 106.511 159.918 106.944C160.331 107.377 160.538 107.973 160.538 108.731V109.352H156.939C156.956 109.876 157.097 110.279 157.364 110.562C157.631 110.842 158.007 110.982 158.492 110.982C158.811 110.982 159.107 110.953 159.381 110.895C159.658 110.833 159.954 110.732 160.27 110.592V111.524C159.99 111.658 159.706 111.752 159.42 111.808C159.133 111.863 158.806 111.891 158.438 111.891ZM158.229 107.164C157.864 107.164 157.571 107.28 157.35 107.511C157.132 107.742 157.001 108.079 156.959 108.521H159.41C159.404 108.076 159.296 107.739 159.088 107.511C158.88 107.28 158.593 107.164 158.229 107.164ZM164.581 106.295C164.812 106.295 165.003 106.311 165.152 106.344L165.04 107.413C164.877 107.374 164.708 107.354 164.532 107.354C164.073 107.354 163.701 107.504 163.414 107.804C163.131 108.103 162.989 108.492 162.989 108.971V111.793H161.842V106.393H162.74L162.892 107.345H162.95C163.129 107.022 163.362 106.767 163.648 106.578C163.938 106.389 164.249 106.295 164.581 106.295ZM167.306 111.793H166.158V106.393H167.306V111.793ZM166.09 104.962C166.09 104.757 166.145 104.599 166.256 104.488C166.37 104.378 166.531 104.322 166.739 104.322C166.941 104.322 167.097 104.378 167.208 104.488C167.322 104.599 167.379 104.757 167.379 104.962C167.379 105.157 167.322 105.312 167.208 105.426C167.097 105.536 166.941 105.592 166.739 105.592C166.531 105.592 166.37 105.536 166.256 105.426C166.145 105.312 166.09 105.157 166.09 104.962ZM173.741 109.083C173.741 109.965 173.515 110.654 173.062 111.148C172.61 111.643 171.98 111.891 171.173 111.891C170.668 111.891 170.222 111.777 169.835 111.549C169.448 111.321 169.15 110.994 168.941 110.567C168.733 110.141 168.629 109.646 168.629 109.083C168.629 108.207 168.854 107.524 169.303 107.032C169.752 106.541 170.385 106.295 171.202 106.295C171.983 106.295 172.602 106.547 173.058 107.052C173.513 107.553 173.741 108.23 173.741 109.083ZM169.811 109.083C169.811 110.33 170.271 110.953 171.192 110.953C172.104 110.953 172.56 110.33 172.56 109.083C172.56 107.849 172.101 107.232 171.183 107.232C170.701 107.232 170.351 107.392 170.133 107.711C169.918 108.03 169.811 108.487 169.811 109.083ZM176.886 111.891C176.212 111.891 175.686 111.646 175.309 111.158C174.931 110.67 174.742 109.985 174.742 109.103C174.742 108.217 174.933 107.529 175.313 107.037C175.698 106.542 176.228 106.295 176.905 106.295C177.615 106.295 178.155 106.557 178.526 107.081H178.585C178.53 106.694 178.502 106.388 178.502 106.163V104.195H179.654V111.793H178.756L178.556 111.085H178.502C178.134 111.622 177.595 111.891 176.886 111.891ZM177.193 110.963C177.665 110.963 178.009 110.831 178.224 110.567C178.438 110.3 178.549 109.869 178.556 109.273V109.112C178.556 108.432 178.445 107.949 178.224 107.662C178.002 107.376 177.656 107.232 177.184 107.232C176.78 107.232 176.469 107.397 176.251 107.726C176.033 108.051 175.924 108.517 175.924 109.122C175.924 109.721 176.03 110.178 176.241 110.494C176.453 110.807 176.77 110.963 177.193 110.963Z" fill="#3F3F46"/>
<rect x="144" y="136.793" width="47" height="18" rx="2.63235" fill="url(#paint2_linear_3396_73103)"/>
<path d="M151.28 161.267C151.28 162.429 150.989 163.332 150.406 163.977C149.827 164.621 149.005 164.943 147.94 164.943C146.863 164.943 146.035 164.624 145.455 163.986C144.879 163.345 144.591 162.435 144.591 161.257C144.591 160.078 144.881 159.174 145.46 158.542C146.043 157.91 146.873 157.595 147.95 157.595C149.011 157.595 149.832 157.915 150.411 158.557C150.991 159.198 151.28 160.101 151.28 161.267ZM145.831 161.267C145.831 162.146 146.008 162.813 146.363 163.269C146.718 163.721 147.244 163.947 147.94 163.947C148.634 163.947 149.156 163.723 149.508 163.273C149.863 162.824 150.04 162.155 150.04 161.267C150.04 160.391 149.864 159.727 149.513 159.274C149.164 158.822 148.644 158.596 147.95 158.596C147.25 158.596 146.721 158.822 146.363 159.274C146.008 159.727 145.831 160.391 145.831 161.267ZM155.431 164.943C154.747 164.943 154.216 164.698 153.839 164.206H153.771C153.816 164.662 153.839 164.938 153.839 165.036V167.248H152.691V159.445H153.619C153.645 159.546 153.699 159.787 153.78 160.168H153.839C154.197 159.621 154.734 159.348 155.45 159.348C156.124 159.348 156.648 159.592 157.022 160.08C157.4 160.568 157.589 161.254 157.589 162.136C157.589 163.018 157.397 163.706 157.013 164.201C156.632 164.696 156.104 164.943 155.431 164.943ZM155.152 160.285C154.697 160.285 154.363 160.419 154.151 160.686C153.943 160.952 153.839 161.379 153.839 161.965V162.136C153.839 162.793 153.943 163.27 154.151 163.566C154.36 163.859 154.7 164.006 155.172 164.006C155.569 164.006 155.875 163.843 156.09 163.518C156.305 163.192 156.412 162.728 156.412 162.126C156.412 161.521 156.305 161.063 156.09 160.754C155.878 160.441 155.566 160.285 155.152 160.285ZM160.934 164.016C161.214 164.016 161.493 163.972 161.773 163.884V164.748C161.646 164.803 161.482 164.849 161.28 164.885C161.082 164.924 160.875 164.943 160.66 164.943C159.573 164.943 159.029 164.37 159.029 163.225V160.314H158.292V159.807L159.083 159.387L159.474 158.244H160.182V159.445H161.72V160.314H160.182V163.205C160.182 163.482 160.25 163.687 160.387 163.82C160.527 163.951 160.709 164.016 160.934 164.016ZM164.005 164.846H162.857V159.445H164.005V164.846ZM162.789 158.015C162.789 157.81 162.844 157.652 162.955 157.541C163.069 157.43 163.23 157.375 163.438 157.375C163.64 157.375 163.797 157.43 163.907 157.541C164.021 157.652 164.078 157.81 164.078 158.015C164.078 158.21 164.021 158.365 163.907 158.479C163.797 158.589 163.64 158.645 163.438 158.645C163.23 158.645 163.069 158.589 162.955 158.479C162.844 158.365 162.789 158.21 162.789 158.015ZM170.201 164.846H169.049V161.516C169.049 161.102 168.971 160.795 168.814 160.593C168.658 160.388 168.414 160.285 168.082 160.285C167.639 160.285 167.314 160.43 167.105 160.72C166.9 161.006 166.798 161.485 166.798 162.155V164.846H165.65V159.445H166.549L166.71 160.153H166.769C166.918 159.896 167.135 159.698 167.418 159.558C167.704 159.418 168.019 159.348 168.36 159.348C169.19 159.348 169.741 159.631 170.011 160.197H170.089C170.248 159.93 170.473 159.722 170.763 159.572C171.052 159.423 171.384 159.348 171.759 159.348C172.403 159.348 172.872 159.51 173.165 159.836C173.461 160.161 173.609 160.658 173.609 161.325V164.846H172.462V161.516C172.462 161.102 172.382 160.795 172.223 160.593C172.066 160.388 171.822 160.285 171.49 160.285C171.044 160.285 170.717 160.425 170.509 160.705C170.304 160.982 170.201 161.408 170.201 161.984V164.846ZM176.358 164.846H175.211V159.445H176.358V164.846ZM175.143 158.015C175.143 157.81 175.198 157.652 175.309 157.541C175.423 157.43 175.584 157.375 175.792 157.375C175.994 157.375 176.15 157.43 176.261 157.541C176.375 157.652 176.432 157.81 176.432 158.015C176.432 158.21 176.375 158.365 176.261 158.479C176.15 158.589 175.994 158.645 175.792 158.645C175.584 158.645 175.423 158.589 175.309 158.479C175.198 158.365 175.143 158.21 175.143 158.015ZM181.632 163.308C181.632 163.835 181.44 164.24 181.056 164.523C180.672 164.803 180.121 164.943 179.405 164.943C178.686 164.943 178.108 164.834 177.672 164.616V163.625C178.307 163.918 178.897 164.064 179.444 164.064C180.151 164.064 180.504 163.851 180.504 163.425C180.504 163.288 180.465 163.174 180.387 163.083C180.309 162.992 180.18 162.897 180.001 162.8C179.822 162.702 179.573 162.591 179.254 162.468C178.632 162.227 178.211 161.986 177.989 161.745C177.771 161.504 177.662 161.192 177.662 160.808C177.662 160.345 177.848 159.987 178.219 159.733C178.593 159.476 179.101 159.348 179.742 159.348C180.377 159.348 180.978 159.476 181.544 159.733L181.173 160.598C180.59 160.357 180.1 160.236 179.703 160.236C179.098 160.236 178.795 160.409 178.795 160.754C178.795 160.923 178.873 161.066 179.029 161.184C179.189 161.301 179.534 161.462 180.064 161.667C180.51 161.84 180.834 161.997 181.036 162.141C181.238 162.284 181.388 162.45 181.485 162.639C181.583 162.824 181.632 163.047 181.632 163.308ZM184.889 164.016C185.169 164.016 185.449 163.972 185.729 163.884V164.748C185.602 164.803 185.437 164.849 185.235 164.885C185.037 164.924 184.83 164.943 184.615 164.943C183.528 164.943 182.984 164.37 182.984 163.225V160.314H182.247V159.807L183.038 159.387L183.429 158.244H184.137V159.445H185.675V160.314H184.137V163.205C184.137 163.482 184.205 163.687 184.342 163.82C184.482 163.951 184.664 164.016 184.889 164.016ZM187.96 164.846H186.812V159.445H187.96V164.846ZM186.744 158.015C186.744 157.81 186.799 157.652 186.91 157.541C187.024 157.43 187.185 157.375 187.394 157.375C187.595 157.375 187.752 157.43 187.862 157.541C187.976 157.652 188.033 157.81 188.033 158.015C188.033 158.21 187.976 158.365 187.862 158.479C187.752 158.589 187.595 158.645 187.394 158.645C187.185 158.645 187.024 158.589 186.91 158.479C186.799 158.365 186.744 158.21 186.744 158.015ZM191.783 164.943C190.966 164.943 190.344 164.706 189.918 164.23C189.495 163.752 189.283 163.067 189.283 162.175C189.283 161.267 189.505 160.568 189.947 160.08C190.393 159.592 191.036 159.348 191.876 159.348C192.446 159.348 192.958 159.453 193.414 159.665L193.067 160.588C192.582 160.399 192.182 160.305 191.866 160.305C190.932 160.305 190.465 160.925 190.465 162.165C190.465 162.771 190.58 163.226 190.812 163.532C191.046 163.835 191.388 163.986 191.837 163.986C192.348 163.986 192.831 163.859 193.287 163.605V164.606C193.082 164.727 192.862 164.813 192.628 164.865C192.397 164.917 192.115 164.943 191.783 164.943ZM201.393 162.907C201.393 163.542 201.163 164.04 200.704 164.401C200.245 164.763 199.612 164.943 198.805 164.943C197.997 164.943 197.337 164.818 196.822 164.567V163.464C197.148 163.617 197.493 163.737 197.857 163.825C198.225 163.913 198.567 163.957 198.883 163.957C199.345 163.957 199.685 163.869 199.903 163.693C200.125 163.518 200.235 163.282 200.235 162.985C200.235 162.718 200.134 162.492 199.933 162.307C199.731 162.121 199.314 161.901 198.683 161.647C198.032 161.384 197.573 161.083 197.306 160.744C197.039 160.406 196.905 159.999 196.905 159.523C196.905 158.928 197.117 158.459 197.54 158.117C197.963 157.775 198.531 157.604 199.244 157.604C199.928 157.604 200.608 157.754 201.285 158.054L200.914 159.006C200.279 158.739 199.713 158.605 199.215 158.605C198.837 158.605 198.551 158.688 198.355 158.854C198.16 159.017 198.062 159.234 198.062 159.504C198.062 159.689 198.102 159.849 198.18 159.982C198.258 160.113 198.386 160.236 198.565 160.354C198.744 160.471 199.067 160.625 199.532 160.817C200.056 161.035 200.44 161.239 200.685 161.428C200.929 161.617 201.108 161.83 201.222 162.067C201.336 162.305 201.393 162.585 201.393 162.907ZM207.403 164.846H206.251V161.525C206.251 161.109 206.166 160.798 205.997 160.593C205.831 160.388 205.566 160.285 205.201 160.285C204.716 160.285 204.361 160.428 204.137 160.715C203.912 161.001 203.8 161.481 203.8 162.155V164.846H202.652V159.445H203.551L203.712 160.153H203.771C203.933 159.896 204.164 159.698 204.464 159.558C204.763 159.418 205.095 159.348 205.46 159.348C206.756 159.348 207.403 160.007 207.403 161.325V164.846ZM212.379 164.846L212.149 164.094H212.11C211.85 164.423 211.588 164.647 211.324 164.768C211.061 164.885 210.722 164.943 210.309 164.943C209.778 164.943 209.363 164.8 209.063 164.514C208.767 164.227 208.619 163.822 208.619 163.298C208.619 162.741 208.826 162.321 209.239 162.038C209.653 161.755 210.283 161.6 211.129 161.574L212.062 161.545V161.257C212.062 160.912 211.98 160.655 211.817 160.485C211.658 160.313 211.409 160.227 211.07 160.227C210.794 160.227 210.528 160.267 210.274 160.349C210.021 160.43 209.776 160.526 209.542 160.637L209.171 159.816C209.464 159.663 209.785 159.548 210.133 159.47C210.481 159.388 210.81 159.348 211.119 159.348C211.806 159.348 212.324 159.497 212.672 159.797C213.023 160.096 213.199 160.567 213.199 161.208V164.846H212.379ZM210.67 164.064C211.087 164.064 211.42 163.949 211.671 163.718C211.925 163.483 212.052 163.156 212.052 162.736V162.268L211.358 162.297C210.818 162.316 210.424 162.408 210.177 162.57C209.933 162.73 209.811 162.976 209.811 163.308C209.811 163.549 209.882 163.736 210.025 163.869C210.169 163.999 210.383 164.064 210.67 164.064ZM217.54 164.943C216.856 164.943 216.326 164.698 215.948 164.206H215.88C215.925 164.662 215.948 164.938 215.948 165.036V167.248H214.801V159.445H215.729C215.755 159.546 215.808 159.787 215.89 160.168H215.948C216.306 159.621 216.843 159.348 217.56 159.348C218.233 159.348 218.757 159.592 219.132 160.08C219.509 160.568 219.698 161.254 219.698 162.136C219.698 163.018 219.506 163.706 219.122 164.201C218.741 164.696 218.214 164.943 217.54 164.943ZM217.262 160.285C216.806 160.285 216.472 160.419 216.261 160.686C216.052 160.952 215.948 161.379 215.948 161.965V162.136C215.948 162.793 216.052 163.27 216.261 163.566C216.469 163.859 216.809 164.006 217.281 164.006C217.678 164.006 217.984 163.843 218.199 163.518C218.414 163.192 218.521 162.728 218.521 162.126C218.521 161.521 218.414 161.063 218.199 160.754C217.988 160.441 217.675 160.285 217.262 160.285ZM224.659 163.308C224.659 163.835 224.467 164.24 224.083 164.523C223.699 164.803 223.149 164.943 222.433 164.943C221.713 164.943 221.135 164.834 220.699 164.616V163.625C221.334 163.918 221.925 164.064 222.472 164.064C223.178 164.064 223.531 163.851 223.531 163.425C223.531 163.288 223.492 163.174 223.414 163.083C223.336 162.992 223.207 162.897 223.028 162.8C222.849 162.702 222.6 162.591 222.281 162.468C221.66 162.227 221.238 161.986 221.017 161.745C220.799 161.504 220.689 161.192 220.689 160.808C220.689 160.345 220.875 159.987 221.246 159.733C221.62 159.476 222.128 159.348 222.77 159.348C223.404 159.348 224.005 159.476 224.571 159.733L224.2 160.598C223.618 160.357 223.128 160.236 222.73 160.236C222.125 160.236 221.822 160.409 221.822 160.754C221.822 160.923 221.9 161.066 222.057 161.184C222.216 161.301 222.561 161.462 223.092 161.667C223.538 161.84 223.862 161.997 224.063 162.141C224.265 162.284 224.415 162.45 224.513 162.639C224.61 162.824 224.659 163.047 224.659 163.308ZM230.655 164.846H229.503V161.525C229.503 161.109 229.418 160.798 229.249 160.593C229.083 160.388 228.818 160.285 228.453 160.285C227.971 160.285 227.617 160.43 227.389 160.72C227.164 161.006 227.052 161.488 227.052 162.165V164.846H225.904V157.248H227.052V159.177C227.052 159.486 227.032 159.816 226.993 160.168H227.066C227.223 159.908 227.439 159.706 227.716 159.562C227.996 159.419 228.321 159.348 228.692 159.348C230.001 159.348 230.655 160.007 230.655 161.325V164.846ZM237.042 162.136C237.042 163.018 236.816 163.706 236.363 164.201C235.911 164.696 235.281 164.943 234.474 164.943C233.969 164.943 233.523 164.829 233.136 164.602C232.748 164.374 232.451 164.047 232.242 163.62C232.034 163.194 231.93 162.699 231.93 162.136C231.93 161.26 232.154 160.576 232.604 160.085C233.053 159.593 233.686 159.348 234.503 159.348C235.284 159.348 235.903 159.6 236.358 160.104C236.814 160.606 237.042 161.283 237.042 162.136ZM233.111 162.136C233.111 163.382 233.572 164.006 234.493 164.006C235.405 164.006 235.86 163.382 235.86 162.136C235.86 160.902 235.401 160.285 234.483 160.285C234.002 160.285 233.652 160.445 233.434 160.764C233.219 161.083 233.111 161.54 233.111 162.136ZM240.377 164.016C240.657 164.016 240.937 163.972 241.217 163.884V164.748C241.09 164.803 240.925 164.849 240.724 164.885C240.525 164.924 240.318 164.943 240.104 164.943C239.016 164.943 238.473 164.37 238.473 163.225V160.314H237.735V159.807L238.526 159.387L238.917 158.244H239.625V159.445H241.163V160.314H239.625V163.205C239.625 163.482 239.693 163.687 239.83 163.82C239.97 163.951 240.152 164.016 240.377 164.016Z" fill="#3F3F46"/>
<rect x="144" y="188.847" width="48" height="18" rx="2.63235" fill="url(#paint3_linear_3396_73103)"/>
<path d="M147.979 210.659C147.309 210.659 146.782 210.897 146.397 211.372C146.013 211.847 145.821 212.503 145.821 213.34C145.821 214.215 146.005 214.878 146.373 215.327C146.744 215.776 147.28 216.001 147.979 216.001C148.282 216.001 148.575 215.972 148.858 215.913C149.142 215.851 149.436 215.773 149.742 215.679V216.68C149.182 216.891 148.548 216.997 147.838 216.997C146.793 216.997 145.991 216.681 145.431 216.05C144.871 215.415 144.591 214.508 144.591 213.33C144.591 212.588 144.726 211.938 144.996 211.382C145.27 210.825 145.663 210.399 146.178 210.103C146.692 209.806 147.296 209.658 147.989 209.658C148.718 209.658 149.392 209.811 150.011 210.117L149.591 211.089C149.35 210.975 149.094 210.876 148.824 210.791C148.557 210.703 148.276 210.659 147.979 210.659ZM155.909 216.899H154.757V213.579C154.757 213.162 154.672 212.852 154.503 212.646C154.337 212.441 154.072 212.339 153.707 212.339C153.225 212.339 152.87 212.484 152.643 212.773C152.418 213.06 152.306 213.542 152.306 214.219V216.899H151.158V209.302H152.306V211.23C152.306 211.54 152.286 211.87 152.247 212.222H152.32C152.477 211.961 152.693 211.759 152.97 211.616C153.25 211.473 153.575 211.401 153.946 211.401C155.255 211.401 155.909 212.061 155.909 213.379V216.899ZM160.885 216.899L160.655 216.147H160.616C160.356 216.476 160.094 216.701 159.83 216.821C159.566 216.938 159.228 216.997 158.814 216.997C158.284 216.997 157.869 216.854 157.569 216.567C157.273 216.281 157.125 215.876 157.125 215.352C157.125 214.795 157.332 214.375 157.745 214.092C158.159 213.809 158.788 213.654 159.635 213.628L160.567 213.599V213.311C160.567 212.965 160.486 212.708 160.323 212.539C160.164 212.367 159.915 212.28 159.576 212.28C159.299 212.28 159.034 212.321 158.78 212.402C158.526 212.484 158.282 212.58 158.048 212.69L157.677 211.87C157.97 211.717 158.29 211.602 158.639 211.523C158.987 211.442 159.316 211.401 159.625 211.401C160.312 211.401 160.829 211.551 161.178 211.851C161.529 212.15 161.705 212.62 161.705 213.262V216.899H160.885ZM159.176 216.118C159.592 216.118 159.926 216.003 160.177 215.771C160.431 215.537 160.558 215.21 160.558 214.79V214.321L159.864 214.351C159.324 214.37 158.93 214.461 158.683 214.624C158.438 214.784 158.316 215.029 158.316 215.361C158.316 215.602 158.388 215.789 158.531 215.923C158.674 216.053 158.889 216.118 159.176 216.118ZM164.454 216.899H163.307V209.302H164.454V216.899ZM167.247 216.899H166.1V209.302H167.247V216.899ZM171.251 216.997C170.411 216.997 169.754 216.753 169.278 216.265C168.806 215.773 168.57 215.098 168.57 214.238C168.57 213.356 168.79 212.663 169.229 212.158C169.669 211.654 170.273 211.401 171.041 211.401C171.754 211.401 172.317 211.618 172.73 212.051C173.144 212.484 173.351 213.079 173.351 213.838V214.458H169.752C169.768 214.982 169.91 215.386 170.177 215.669C170.444 215.949 170.82 216.089 171.305 216.089C171.624 216.089 171.92 216.06 172.193 216.001C172.47 215.939 172.766 215.838 173.082 215.698V216.631C172.802 216.764 172.519 216.859 172.232 216.914C171.946 216.969 171.619 216.997 171.251 216.997ZM171.041 212.271C170.676 212.271 170.383 212.386 170.162 212.617C169.944 212.848 169.814 213.185 169.771 213.628H172.223C172.216 213.182 172.109 212.845 171.9 212.617C171.692 212.386 171.406 212.271 171.041 212.271ZM179.405 216.899H178.253V213.579C178.253 213.162 178.168 212.852 177.999 212.646C177.833 212.441 177.568 212.339 177.203 212.339C176.718 212.339 176.363 212.482 176.139 212.769C175.914 213.055 175.802 213.535 175.802 214.209V216.899H174.654V211.499H175.553L175.714 212.207H175.772C175.935 211.95 176.166 211.751 176.466 211.611C176.765 211.471 177.097 211.401 177.462 211.401C178.757 211.401 179.405 212.061 179.405 213.379V216.899ZM185.562 211.499V212.129L184.64 212.3C184.724 212.414 184.794 212.554 184.85 212.72C184.905 212.886 184.933 213.062 184.933 213.247C184.933 213.804 184.741 214.242 184.356 214.561C183.972 214.88 183.443 215.039 182.77 215.039C182.597 215.039 182.441 215.026 182.301 215C182.053 215.153 181.93 215.332 181.93 215.537C181.93 215.661 181.987 215.754 182.101 215.815C182.218 215.877 182.431 215.908 182.74 215.908H183.683C184.278 215.908 184.731 216.035 185.04 216.289C185.349 216.543 185.504 216.909 185.504 217.388C185.504 218 185.252 218.472 184.747 218.804C184.243 219.136 183.513 219.302 182.56 219.302C181.824 219.302 181.262 219.172 180.875 218.911C180.488 218.651 180.294 218.28 180.294 217.798C180.294 217.466 180.398 217.186 180.606 216.958C180.818 216.733 181.113 216.577 181.49 216.489C181.337 216.424 181.21 216.32 181.109 216.177C181.012 216.03 180.963 215.877 180.963 215.718C180.963 215.516 181.02 215.345 181.134 215.205C181.248 215.065 181.417 214.927 181.642 214.79C181.362 214.67 181.134 214.474 180.958 214.204C180.785 213.931 180.699 213.612 180.699 213.247C180.699 212.661 180.883 212.207 181.251 211.885C181.622 211.562 182.149 211.401 182.833 211.401C182.986 211.401 183.146 211.413 183.312 211.436C183.481 211.455 183.608 211.476 183.692 211.499H185.562ZM181.319 217.739C181.319 217.987 181.43 218.177 181.651 218.311C181.876 218.444 182.19 218.511 182.594 218.511C183.219 218.511 183.684 218.421 183.99 218.242C184.296 218.063 184.449 217.826 184.449 217.529C184.449 217.295 184.365 217.127 184.195 217.026C184.029 216.929 183.718 216.88 183.263 216.88H182.394C182.065 216.88 181.803 216.956 181.607 217.109C181.415 217.266 181.319 217.476 181.319 217.739ZM181.812 213.247C181.812 213.586 181.899 213.846 182.071 214.028C182.247 214.211 182.498 214.302 182.823 214.302C183.487 214.302 183.819 213.947 183.819 213.237C183.819 212.886 183.736 212.616 183.57 212.427C183.408 212.235 183.159 212.139 182.823 212.139C182.491 212.139 182.239 212.233 182.066 212.422C181.897 212.611 181.812 212.886 181.812 213.247ZM188.927 216.997C188.087 216.997 187.429 216.753 186.954 216.265C186.482 215.773 186.246 215.098 186.246 214.238C186.246 213.356 186.466 212.663 186.905 212.158C187.345 211.654 187.949 211.401 188.717 211.401C189.43 211.401 189.993 211.618 190.406 212.051C190.82 212.484 191.026 213.079 191.026 213.838V214.458H187.428C187.444 214.982 187.586 215.386 187.853 215.669C188.119 215.949 188.495 216.089 188.98 216.089C189.299 216.089 189.596 216.06 189.869 216.001C190.146 215.939 190.442 215.838 190.758 215.698V216.631C190.478 216.764 190.195 216.859 189.908 216.914C189.622 216.969 189.295 216.997 188.927 216.997ZM188.717 212.271C188.352 212.271 188.059 212.386 187.838 212.617C187.62 212.848 187.49 213.185 187.447 213.628H189.898C189.892 213.182 189.785 212.845 189.576 212.617C189.368 212.386 189.081 212.271 188.717 212.271ZM199.166 214.961C199.166 215.596 198.937 216.094 198.478 216.455C198.019 216.816 197.385 216.997 196.578 216.997C195.771 216.997 195.11 216.872 194.596 216.621V215.518C194.921 215.671 195.266 215.791 195.631 215.879C195.999 215.967 196.34 216.011 196.656 216.011C197.118 216.011 197.459 215.923 197.677 215.747C197.898 215.571 198.009 215.335 198.009 215.039C198.009 214.772 197.908 214.546 197.706 214.36C197.504 214.175 197.088 213.955 196.456 213.701C195.805 213.438 195.346 213.136 195.079 212.798C194.812 212.459 194.679 212.052 194.679 211.577C194.679 210.981 194.89 210.513 195.313 210.171C195.737 209.829 196.305 209.658 197.018 209.658C197.701 209.658 198.382 209.808 199.059 210.107L198.688 211.06C198.053 210.793 197.486 210.659 196.988 210.659C196.611 210.659 196.324 210.742 196.129 210.908C195.934 211.071 195.836 211.287 195.836 211.558C195.836 211.743 195.875 211.903 195.953 212.036C196.031 212.166 196.16 212.29 196.339 212.407C196.518 212.524 196.84 212.679 197.306 212.871C197.83 213.089 198.214 213.293 198.458 213.481C198.702 213.67 198.881 213.883 198.995 214.121C199.109 214.359 199.166 214.639 199.166 214.961ZM205.177 216.899H204.024V213.579C204.024 213.162 203.94 212.852 203.771 212.646C203.604 212.441 203.339 212.339 202.975 212.339C202.49 212.339 202.135 212.482 201.91 212.769C201.686 213.055 201.573 213.535 201.573 214.209V216.899H200.426V211.499H201.324L201.485 212.207H201.544C201.707 211.95 201.938 211.751 202.237 211.611C202.537 211.471 202.869 211.401 203.233 211.401C204.529 211.401 205.177 212.061 205.177 213.379V216.899ZM210.152 216.899L209.923 216.147H209.884C209.623 216.476 209.361 216.701 209.098 216.821C208.834 216.938 208.495 216.997 208.082 216.997C207.551 216.997 207.136 216.854 206.837 216.567C206.541 216.281 206.393 215.876 206.393 215.352C206.393 214.795 206.599 214.375 207.013 214.092C207.426 213.809 208.056 213.654 208.902 213.628L209.835 213.599V213.311C209.835 212.965 209.754 212.708 209.591 212.539C209.431 212.367 209.182 212.28 208.844 212.28C208.567 212.28 208.302 212.321 208.048 212.402C207.794 212.484 207.55 212.58 207.315 212.69L206.944 211.87C207.237 211.717 207.558 211.602 207.906 211.523C208.255 211.442 208.583 211.401 208.893 211.401C209.579 211.401 210.097 211.551 210.445 211.851C210.797 212.15 210.973 212.62 210.973 213.262V216.899H210.152ZM208.443 216.118C208.86 216.118 209.194 216.003 209.444 215.771C209.698 215.537 209.825 215.21 209.825 214.79V214.321L209.132 214.351C208.591 214.37 208.198 214.461 207.95 214.624C207.706 214.784 207.584 215.029 207.584 215.361C207.584 215.602 207.656 215.789 207.799 215.923C207.942 216.053 208.157 216.118 208.443 216.118ZM215.313 216.997C214.63 216.997 214.099 216.751 213.722 216.26H213.653C213.699 216.715 213.722 216.992 213.722 217.09V219.302H212.574V211.499H213.502C213.528 211.6 213.582 211.841 213.663 212.222H213.722C214.08 211.675 214.617 211.401 215.333 211.401C216.007 211.401 216.531 211.646 216.905 212.134C217.283 212.622 217.472 213.307 217.472 214.189C217.472 215.072 217.28 215.76 216.896 216.255C216.515 216.75 215.987 216.997 215.313 216.997ZM215.035 212.339C214.579 212.339 214.246 212.472 214.034 212.739C213.826 213.006 213.722 213.433 213.722 214.019V214.189C213.722 214.847 213.826 215.324 214.034 215.62C214.243 215.913 214.583 216.06 215.055 216.06C215.452 216.06 215.758 215.897 215.973 215.571C216.188 215.246 216.295 214.782 216.295 214.18C216.295 213.574 216.188 213.117 215.973 212.808C215.761 212.495 215.449 212.339 215.035 212.339ZM222.433 215.361C222.433 215.889 222.241 216.294 221.856 216.577C221.472 216.857 220.922 216.997 220.206 216.997C219.487 216.997 218.909 216.888 218.473 216.67V215.679C219.107 215.972 219.698 216.118 220.245 216.118C220.951 216.118 221.305 215.905 221.305 215.479C221.305 215.342 221.266 215.228 221.188 215.137C221.109 215.046 220.981 214.951 220.802 214.854C220.623 214.756 220.374 214.645 220.055 214.521C219.433 214.281 219.011 214.04 218.79 213.799C218.572 213.558 218.463 213.245 218.463 212.861C218.463 212.399 218.648 212.041 219.02 211.787C219.394 211.53 219.902 211.401 220.543 211.401C221.178 211.401 221.778 211.53 222.345 211.787L221.974 212.651C221.391 212.41 220.901 212.29 220.504 212.29C219.898 212.29 219.596 212.463 219.596 212.808C219.596 212.977 219.674 213.12 219.83 213.237C219.99 213.354 220.335 213.516 220.865 213.721C221.311 213.893 221.635 214.051 221.837 214.194C222.039 214.338 222.188 214.504 222.286 214.692C222.384 214.878 222.433 215.101 222.433 215.361ZM228.429 216.899H227.276V213.579C227.276 213.162 227.192 212.852 227.022 212.646C226.856 212.441 226.591 212.339 226.227 212.339C225.745 212.339 225.39 212.484 225.162 212.773C224.938 213.06 224.825 213.542 224.825 214.219V216.899H223.678V209.302H224.825V211.23C224.825 211.54 224.806 211.87 224.767 212.222H224.84C224.996 211.961 225.213 211.759 225.489 211.616C225.769 211.473 226.095 211.401 226.466 211.401C227.774 211.401 228.429 212.061 228.429 213.379V216.899ZM234.815 214.189C234.815 215.072 234.589 215.76 234.137 216.255C233.684 216.75 233.054 216.997 232.247 216.997C231.743 216.997 231.297 216.883 230.909 216.655C230.522 216.427 230.224 216.1 230.016 215.674C229.807 215.247 229.703 214.753 229.703 214.189C229.703 213.314 229.928 212.63 230.377 212.139C230.826 211.647 231.459 211.401 232.276 211.401C233.058 211.401 233.676 211.654 234.132 212.158C234.588 212.66 234.815 213.337 234.815 214.189ZM230.885 214.189C230.885 215.436 231.345 216.06 232.267 216.06C233.178 216.06 233.634 215.436 233.634 214.189C233.634 212.956 233.175 212.339 232.257 212.339C231.775 212.339 231.425 212.498 231.207 212.817C230.992 213.136 230.885 213.594 230.885 214.189ZM238.15 216.069C238.43 216.069 238.71 216.025 238.99 215.938V216.802C238.863 216.857 238.699 216.903 238.497 216.938C238.299 216.978 238.092 216.997 237.877 216.997C236.79 216.997 236.246 216.424 236.246 215.278V212.368H235.509V211.86L236.3 211.44L236.69 210.298H237.398V211.499H238.937V212.368H237.398V215.259C237.398 215.535 237.467 215.741 237.604 215.874C237.743 216.004 237.926 216.069 238.15 216.069ZM243.702 215.361C243.702 215.889 243.51 216.294 243.126 216.577C242.742 216.857 242.192 216.997 241.476 216.997C240.756 216.997 240.178 216.888 239.742 216.67V215.679C240.377 215.972 240.968 216.118 241.515 216.118C242.221 216.118 242.574 215.905 242.574 215.479C242.574 215.342 242.535 215.228 242.457 215.137C242.379 215.046 242.25 214.951 242.071 214.854C241.892 214.756 241.643 214.645 241.324 214.521C240.702 214.281 240.281 214.04 240.06 213.799C239.841 213.558 239.732 213.245 239.732 212.861C239.732 212.399 239.918 212.041 240.289 211.787C240.663 211.53 241.171 211.401 241.812 211.401C242.447 211.401 243.048 211.53 243.614 211.787L243.243 212.651C242.66 212.41 242.171 212.29 241.773 212.29C241.168 212.29 240.865 212.463 240.865 212.808C240.865 212.977 240.943 213.12 241.1 213.237C241.259 213.354 241.604 213.516 242.135 213.721C242.581 213.893 242.905 214.051 243.106 214.194C243.308 214.338 243.458 214.504 243.556 214.692C243.653 214.878 243.702 215.101 243.702 215.361Z" fill="#3F3F46"/>
<rect x="180" y="240.899" width="57" height="18" rx="2.63235" fill="url(#paint4_linear_3396_73103)"/>
<path d="M183.979 264.712C183.309 264.712 182.782 264.95 182.397 265.425C182.013 265.9 181.821 266.556 181.821 267.393C181.821 268.268 182.005 268.931 182.373 269.38C182.744 269.829 183.28 270.054 183.979 270.054C184.282 270.054 184.575 270.024 184.858 269.966C185.142 269.904 185.436 269.826 185.742 269.731V270.732C185.182 270.944 184.548 271.05 183.838 271.05C182.793 271.05 181.991 270.734 181.431 270.103C180.871 269.468 180.591 268.561 180.591 267.383C180.591 266.641 180.726 265.991 180.996 265.435C181.27 264.878 181.663 264.451 182.178 264.155C182.692 263.859 183.296 263.711 183.989 263.711C184.718 263.711 185.392 263.864 186.011 264.17L185.591 265.142C185.35 265.028 185.094 264.928 184.824 264.844C184.557 264.756 184.276 264.712 183.979 264.712ZM191.948 268.242C191.948 269.124 191.722 269.813 191.27 270.308C190.817 270.802 190.187 271.05 189.38 271.05C188.875 271.05 188.429 270.936 188.042 270.708C187.655 270.48 187.357 270.153 187.148 269.727C186.94 269.3 186.836 268.805 186.836 268.242C186.836 267.367 187.061 266.683 187.51 266.191C187.959 265.7 188.592 265.454 189.409 265.454C190.19 265.454 190.809 265.706 191.265 266.211C191.72 266.712 191.948 267.389 191.948 268.242ZM188.018 268.242C188.018 269.489 188.478 270.112 189.399 270.112C190.311 270.112 190.767 269.489 190.767 268.242C190.767 267.008 190.308 266.392 189.39 266.392C188.908 266.392 188.558 266.551 188.34 266.87C188.125 267.189 188.018 267.646 188.018 268.242ZM197.822 270.952H196.67V267.622C196.67 267.209 196.592 266.901 196.436 266.699C196.279 266.494 196.035 266.392 195.703 266.392C195.26 266.392 194.935 266.536 194.727 266.826C194.521 267.113 194.419 267.591 194.419 268.262V270.952H193.271V265.552H194.17L194.331 266.26H194.39C194.539 266.003 194.756 265.804 195.039 265.664C195.326 265.524 195.64 265.454 195.981 265.454C196.812 265.454 197.362 265.737 197.632 266.304H197.71C197.869 266.037 198.094 265.828 198.384 265.679C198.674 265.529 199.006 265.454 199.38 265.454C200.024 265.454 200.493 265.617 200.786 265.942C201.082 266.268 201.23 266.764 201.23 267.432V270.952H200.083V267.622C200.083 267.209 200.003 266.901 199.844 266.699C199.688 266.494 199.443 266.392 199.111 266.392C198.665 266.392 198.338 266.532 198.13 266.812C197.925 267.088 197.822 267.515 197.822 268.091V270.952ZM205.571 271.05C204.888 271.05 204.357 270.804 203.979 270.312H203.911C203.957 270.768 203.979 271.045 203.979 271.143V273.354H202.832V265.552H203.76C203.786 265.653 203.84 265.894 203.921 266.274H203.979C204.338 265.728 204.875 265.454 205.591 265.454C206.265 265.454 206.789 265.698 207.163 266.187C207.541 266.675 207.729 267.36 207.729 268.242C207.729 269.124 207.537 269.813 207.153 270.308C206.772 270.802 206.245 271.05 205.571 271.05ZM205.293 266.392C204.837 266.392 204.504 266.525 204.292 266.792C204.084 267.059 203.979 267.485 203.979 268.071V268.242C203.979 268.9 204.084 269.377 204.292 269.673C204.5 269.966 204.84 270.112 205.312 270.112C205.71 270.112 206.016 269.95 206.23 269.624C206.445 269.299 206.553 268.835 206.553 268.232C206.553 267.627 206.445 267.17 206.23 266.86C206.019 266.548 205.706 266.392 205.293 266.392ZM210.21 270.952H209.062V263.354H210.21V270.952ZM213.003 270.952H211.855V265.552H213.003V270.952ZM211.787 264.121C211.787 263.916 211.842 263.758 211.953 263.647C212.067 263.537 212.228 263.481 212.437 263.481C212.638 263.481 212.795 263.537 212.905 263.647C213.019 263.758 213.076 263.916 213.076 264.121C213.076 264.316 213.019 264.471 212.905 264.585C212.795 264.696 212.638 264.751 212.437 264.751C212.228 264.751 212.067 264.696 211.953 264.585C211.842 264.471 211.787 264.316 211.787 264.121ZM218.027 270.952L217.798 270.2H217.759C217.498 270.529 217.236 270.754 216.973 270.874C216.709 270.991 216.37 271.05 215.957 271.05C215.426 271.05 215.011 270.907 214.712 270.62C214.416 270.334 214.268 269.928 214.268 269.404C214.268 268.848 214.474 268.428 214.888 268.145C215.301 267.861 215.931 267.707 216.777 267.681L217.71 267.651V267.363C217.71 267.018 217.629 266.761 217.466 266.592C217.306 266.419 217.057 266.333 216.719 266.333C216.442 266.333 216.177 266.374 215.923 266.455C215.669 266.536 215.425 266.632 215.19 266.743L214.819 265.923C215.112 265.77 215.433 265.654 215.781 265.576C216.13 265.495 216.458 265.454 216.768 265.454C217.454 265.454 217.972 265.604 218.32 265.903C218.672 266.203 218.848 266.673 218.848 267.314V270.952H218.027ZM216.318 270.171C216.735 270.171 217.069 270.055 217.319 269.824C217.573 269.59 217.7 269.263 217.7 268.843V268.374L217.007 268.403C216.466 268.423 216.073 268.514 215.825 268.677C215.581 268.836 215.459 269.082 215.459 269.414C215.459 269.655 215.531 269.842 215.674 269.976C215.817 270.106 216.032 270.171 216.318 270.171ZM225.2 270.952H224.048V267.632C224.048 267.215 223.963 266.904 223.794 266.699C223.628 266.494 223.363 266.392 222.998 266.392C222.513 266.392 222.158 266.535 221.934 266.821C221.709 267.108 221.597 267.588 221.597 268.262V270.952H220.449V265.552H221.348L221.509 266.26H221.567C221.73 266.003 221.961 265.804 222.261 265.664C222.56 265.524 222.892 265.454 223.257 265.454C224.552 265.454 225.2 266.113 225.2 267.432V270.952ZM228.975 271.05C228.158 271.05 227.536 270.812 227.109 270.337C226.686 269.858 226.475 269.173 226.475 268.281C226.475 267.373 226.696 266.675 227.139 266.187C227.585 265.698 228.228 265.454 229.067 265.454C229.637 265.454 230.15 265.56 230.605 265.771L230.259 266.694C229.774 266.506 229.373 266.411 229.058 266.411C228.123 266.411 227.656 267.031 227.656 268.271C227.656 268.877 227.772 269.333 228.003 269.639C228.237 269.941 228.579 270.093 229.028 270.093C229.539 270.093 230.023 269.966 230.479 269.712V270.713C230.273 270.833 230.054 270.92 229.819 270.972C229.588 271.024 229.307 271.05 228.975 271.05ZM234.106 271.05C233.267 271.05 232.609 270.806 232.134 270.317C231.662 269.826 231.426 269.15 231.426 268.291C231.426 267.409 231.646 266.715 232.085 266.211C232.524 265.706 233.128 265.454 233.896 265.454C234.609 265.454 235.173 265.671 235.586 266.104C235.999 266.536 236.206 267.132 236.206 267.891V268.511H232.607C232.624 269.035 232.765 269.438 233.032 269.722C233.299 270.002 233.675 270.142 234.16 270.142C234.479 270.142 234.775 270.112 235.049 270.054C235.326 269.992 235.622 269.891 235.938 269.751V270.684C235.658 270.817 235.374 270.911 235.088 270.967C234.801 271.022 234.474 271.05 234.106 271.05ZM233.896 266.323C233.532 266.323 233.239 266.439 233.018 266.67C232.799 266.901 232.669 267.238 232.627 267.681H235.078C235.072 267.235 234.964 266.898 234.756 266.67C234.548 266.439 234.261 266.323 233.896 266.323Z" fill="#3F3F46"/>
<rect x="232" y="295.952" width="102" height="18" rx="2.63235" fill="url(#paint5_linear_3396_73103)"/>
<path d="M232.942 326.005V318.866H234.109V326.005H232.942ZM240.628 326.005H239.476V322.685C239.476 322.268 239.391 321.957 239.222 321.752C239.056 321.547 238.79 321.444 238.426 321.444C237.941 321.444 237.586 321.588 237.361 321.874C237.137 322.16 237.024 322.641 237.024 323.314V326.005H235.877V320.604H236.775L236.937 321.312H236.995C237.158 321.055 237.389 320.857 237.688 320.717C237.988 320.577 238.32 320.507 238.685 320.507C239.98 320.507 240.628 321.166 240.628 322.484V326.005ZM244.402 326.103C243.585 326.103 242.964 325.865 242.537 325.39C242.114 324.911 241.902 324.226 241.902 323.334C241.902 322.426 242.124 321.728 242.566 321.239C243.012 320.751 243.655 320.507 244.495 320.507C245.065 320.507 245.577 320.613 246.033 320.824L245.687 321.747C245.201 321.558 244.801 321.464 244.485 321.464C243.551 321.464 243.084 322.084 243.084 323.324C243.084 323.93 243.2 324.385 243.431 324.691C243.665 324.994 244.007 325.146 244.456 325.146C244.967 325.146 245.451 325.019 245.906 324.765V325.766C245.701 325.886 245.481 325.972 245.247 326.024C245.016 326.076 244.734 326.103 244.402 326.103ZM249.534 326.103C248.694 326.103 248.037 325.858 247.562 325.37C247.09 324.879 246.854 324.203 246.854 323.344C246.854 322.462 247.073 321.768 247.513 321.264C247.952 320.759 248.556 320.507 249.324 320.507C250.037 320.507 250.6 320.723 251.014 321.156C251.427 321.589 251.634 322.185 251.634 322.943V323.563H248.035C248.051 324.088 248.193 324.491 248.46 324.774C248.727 325.054 249.103 325.194 249.588 325.194C249.907 325.194 250.203 325.165 250.477 325.106C250.753 325.045 251.049 324.944 251.365 324.804V325.736C251.085 325.87 250.802 325.964 250.516 326.02C250.229 326.075 249.902 326.103 249.534 326.103ZM249.324 321.376C248.96 321.376 248.667 321.492 248.445 321.723C248.227 321.954 248.097 322.291 248.055 322.733H250.506C250.499 322.287 250.392 321.951 250.184 321.723C249.975 321.492 249.689 321.376 249.324 321.376ZM257.688 326.005H256.536V322.685C256.536 322.268 256.451 321.957 256.282 321.752C256.116 321.547 255.851 321.444 255.486 321.444C255.001 321.444 254.646 321.588 254.422 321.874C254.197 322.16 254.085 322.641 254.085 323.314V326.005H252.938V320.604H253.836L253.997 321.312H254.056C254.218 321.055 254.45 320.857 254.749 320.717C255.049 320.577 255.381 320.507 255.745 320.507C257.041 320.507 257.688 321.166 257.688 322.484V326.005ZM261.297 325.175C261.577 325.175 261.857 325.131 262.137 325.043V325.907C262.01 325.963 261.845 326.008 261.644 326.044C261.445 326.083 261.238 326.103 261.023 326.103C259.936 326.103 259.393 325.53 259.393 324.384V321.474H258.655V320.966L259.446 320.546L259.837 319.403H260.545V320.604H262.083V321.474H260.545V324.364C260.545 324.641 260.613 324.846 260.75 324.979C260.89 325.11 261.072 325.175 261.297 325.175ZM264.368 326.005H263.221V320.604H264.368V326.005ZM263.152 319.174C263.152 318.969 263.208 318.811 263.318 318.7C263.432 318.59 263.593 318.534 263.802 318.534C264.004 318.534 264.16 318.59 264.271 318.7C264.384 318.811 264.441 318.969 264.441 319.174C264.441 319.369 264.384 319.524 264.271 319.638C264.16 319.748 264.004 319.804 263.802 319.804C263.593 319.804 263.432 319.748 263.318 319.638C263.208 319.524 263.152 319.369 263.152 319.174ZM267.244 326.005L265.193 320.604H266.404L267.503 323.744C267.692 324.271 267.806 324.698 267.845 325.023H267.884C267.913 324.789 268.027 324.363 268.226 323.744L269.324 320.604H270.545L268.484 326.005H267.244ZM273.724 326.103C272.884 326.103 272.226 325.858 271.751 325.37C271.279 324.879 271.043 324.203 271.043 323.344C271.043 322.462 271.263 321.768 271.702 321.264C272.142 320.759 272.745 320.507 273.514 320.507C274.227 320.507 274.79 320.723 275.203 321.156C275.617 321.589 275.823 322.185 275.823 322.943V323.563H272.225C272.241 324.088 272.382 324.491 272.649 324.774C272.916 325.054 273.292 325.194 273.777 325.194C274.096 325.194 274.393 325.165 274.666 325.106C274.943 325.045 275.239 324.944 275.555 324.804V325.736C275.275 325.87 274.992 325.964 274.705 326.02C274.419 326.075 274.091 326.103 273.724 326.103ZM273.514 321.376C273.149 321.376 272.856 321.492 272.635 321.723C272.417 321.954 272.286 322.291 272.244 322.733H274.695C274.689 322.287 274.581 321.951 274.373 321.723C274.165 321.492 273.878 321.376 273.514 321.376ZM280.755 324.467C280.755 324.994 280.563 325.399 280.179 325.683C279.795 325.963 279.244 326.103 278.528 326.103C277.809 326.103 277.231 325.993 276.795 325.775V324.784C277.43 325.077 278.021 325.224 278.567 325.224C279.274 325.224 279.627 325.01 279.627 324.584C279.627 324.447 279.588 324.333 279.51 324.242C279.432 324.151 279.303 324.057 279.124 323.959C278.945 323.861 278.696 323.751 278.377 323.627C277.755 323.386 277.334 323.145 277.112 322.904C276.894 322.663 276.785 322.351 276.785 321.967C276.785 321.505 276.971 321.146 277.342 320.893C277.716 320.635 278.224 320.507 278.865 320.507C279.5 320.507 280.101 320.635 280.667 320.893L280.296 321.757C279.713 321.516 279.223 321.396 278.826 321.396C278.221 321.396 277.918 321.568 277.918 321.913C277.918 322.082 277.996 322.226 278.152 322.343C278.312 322.46 278.657 322.621 279.188 322.826C279.633 322.999 279.957 323.157 280.159 323.3C280.361 323.443 280.511 323.609 280.608 323.798C280.706 323.983 280.755 324.206 280.755 324.467Z" fill="#3F3F46"/>
<rect x="329" y="351.005" width="30" height="18" rx="2.63235" fill="url(#paint6_linear_3396_73103)"/>
<path d="M310.669 376.077C310.669 376.823 310.425 377.394 309.937 377.791C309.448 378.188 308.753 378.387 307.852 378.387H307.109V381.058H305.942V373.919H307.998C308.89 373.919 309.557 374.101 310 374.466C310.446 374.83 310.669 375.368 310.669 376.077ZM307.109 377.405H307.729C308.328 377.405 308.768 377.301 309.048 377.093C309.328 376.884 309.468 376.559 309.468 376.116C309.468 375.706 309.342 375.4 309.092 375.198C308.841 374.996 308.451 374.896 307.92 374.896H307.109V377.405ZM316.763 378.348C316.763 379.23 316.536 379.918 316.084 380.413C315.632 380.908 315.002 381.155 314.194 381.155C313.69 381.155 313.244 381.041 312.856 380.813C312.469 380.586 312.171 380.258 311.963 379.832C311.755 379.406 311.65 378.911 311.65 378.348C311.65 377.472 311.875 376.788 312.324 376.297C312.773 375.805 313.407 375.56 314.224 375.56C315.005 375.56 315.623 375.812 316.079 376.316C316.535 376.818 316.763 377.495 316.763 378.348ZM312.832 378.348C312.832 379.594 313.293 380.218 314.214 380.218C315.125 380.218 315.581 379.594 315.581 378.348C315.581 377.114 315.122 376.497 314.204 376.497C313.722 376.497 313.372 376.657 313.154 376.976C312.939 377.295 312.832 377.752 312.832 378.348ZM321.714 379.52C321.714 380.047 321.522 380.452 321.138 380.735C320.754 381.015 320.203 381.155 319.487 381.155C318.768 381.155 318.19 381.046 317.754 380.828V379.837C318.389 380.13 318.979 380.276 319.526 380.276C320.233 380.276 320.586 380.063 320.586 379.637C320.586 379.5 320.547 379.386 320.469 379.295C320.391 379.204 320.262 379.109 320.083 379.012C319.904 378.914 319.655 378.803 319.336 378.68C318.714 378.439 318.293 378.198 318.071 377.957C317.853 377.716 317.744 377.404 317.744 377.02C317.744 376.557 317.93 376.199 318.301 375.945C318.675 375.688 319.183 375.56 319.824 375.56C320.459 375.56 321.06 375.688 321.626 375.945L321.255 376.81C320.672 376.569 320.182 376.448 319.785 376.448C319.18 376.448 318.877 376.621 318.877 376.966C318.877 377.135 318.955 377.278 319.111 377.396C319.271 377.513 319.616 377.674 320.146 377.879C320.592 378.051 320.916 378.209 321.118 378.353C321.32 378.496 321.47 378.662 321.567 378.851C321.665 379.036 321.714 379.259 321.714 379.52ZM324.971 380.228C325.251 380.228 325.531 380.184 325.811 380.096V380.96C325.684 381.015 325.519 381.061 325.317 381.097C325.119 381.136 324.912 381.155 324.697 381.155C323.61 381.155 323.066 380.582 323.066 379.437V376.526H322.329V376.019L323.12 375.599L323.511 374.456H324.219V375.657H325.757V376.526H324.219V379.417C324.219 379.694 324.287 379.899 324.424 380.032C324.564 380.162 324.746 380.228 324.971 380.228ZM305.942 395.058V387.919H307.109V395.058H305.942ZM313.628 395.058H312.476V391.737C312.476 391.321 312.391 391.01 312.222 390.805C312.056 390.6 311.79 390.497 311.426 390.497C310.941 390.497 310.586 390.64 310.361 390.927C310.137 391.213 310.024 391.693 310.024 392.367V395.058H308.877V389.657H309.775L309.937 390.365H309.995C310.158 390.108 310.389 389.91 310.688 389.77C310.988 389.63 311.32 389.56 311.685 389.56C312.98 389.56 313.628 390.219 313.628 391.537V395.058ZM317.402 395.155C316.585 395.155 315.964 394.918 315.537 394.442C315.114 393.964 314.902 393.279 314.902 392.387C314.902 391.479 315.124 390.78 315.566 390.292C316.012 389.804 316.655 389.56 317.495 389.56C318.065 389.56 318.577 389.665 319.033 389.877L318.687 390.8C318.201 390.611 317.801 390.517 317.485 390.517C316.551 390.517 316.084 391.137 316.084 392.377C316.084 392.982 316.2 393.438 316.431 393.744C316.665 394.047 317.007 394.198 317.456 394.198C317.967 394.198 318.451 394.071 318.906 393.817V394.818C318.701 394.939 318.481 395.025 318.247 395.077C318.016 395.129 317.734 395.155 317.402 395.155ZM322.534 395.155C321.694 395.155 321.037 394.911 320.562 394.423C320.09 393.931 319.854 393.256 319.854 392.396C319.854 391.514 320.073 390.821 320.513 390.316C320.952 389.812 321.556 389.56 322.324 389.56C323.037 389.56 323.6 389.776 324.014 390.209C324.427 390.642 324.634 391.238 324.634 391.996V392.616H321.035C321.051 393.14 321.193 393.544 321.46 393.827C321.727 394.107 322.103 394.247 322.588 394.247C322.907 394.247 323.203 394.218 323.477 394.159C323.753 394.097 324.049 393.996 324.365 393.856V394.789C324.085 394.923 323.802 395.017 323.516 395.072C323.229 395.128 322.902 395.155 322.534 395.155ZM322.324 390.429C321.96 390.429 321.667 390.544 321.445 390.775C321.227 391.007 321.097 391.343 321.055 391.786H323.506C323.499 391.34 323.392 391.003 323.184 390.775C322.975 390.544 322.689 390.429 322.324 390.429ZM330.688 395.058H329.536V391.737C329.536 391.321 329.451 391.01 329.282 390.805C329.116 390.6 328.851 390.497 328.486 390.497C328.001 390.497 327.646 390.64 327.422 390.927C327.197 391.213 327.085 391.693 327.085 392.367V395.058H325.938V389.657H326.836L326.997 390.365H327.056C327.218 390.108 327.45 389.91 327.749 389.77C328.049 389.63 328.381 389.56 328.745 389.56C330.041 389.56 330.688 390.219 330.688 391.537V395.058ZM334.297 394.228C334.577 394.228 334.857 394.184 335.137 394.096V394.96C335.01 395.015 334.845 395.061 334.644 395.097C334.445 395.136 334.238 395.155 334.023 395.155C332.936 395.155 332.393 394.582 332.393 393.437V390.526H331.655V390.019L332.446 389.599L332.837 388.456H333.545V389.657H335.083V390.526H333.545V393.417C333.545 393.694 333.613 393.899 333.75 394.032C333.89 394.162 334.072 394.228 334.297 394.228ZM337.368 395.058H336.221V389.657H337.368V395.058ZM336.152 388.227C336.152 388.021 336.208 387.864 336.318 387.753C336.432 387.642 336.593 387.587 336.802 387.587C337.004 387.587 337.16 387.642 337.271 387.753C337.384 387.864 337.441 388.021 337.441 388.227C337.441 388.422 337.384 388.576 337.271 388.69C337.16 388.801 337.004 388.856 336.802 388.856C336.593 388.856 336.432 388.801 336.318 388.69C336.208 388.576 336.152 388.422 336.152 388.227ZM340.244 395.058L338.193 389.657H339.404L340.503 392.797C340.692 393.324 340.806 393.751 340.845 394.076H340.884C340.913 393.842 341.027 393.415 341.226 392.797L342.324 389.657H343.545L341.484 395.058H340.244ZM346.724 395.155C345.884 395.155 345.226 394.911 344.751 394.423C344.279 393.931 344.043 393.256 344.043 392.396C344.043 391.514 344.263 390.821 344.702 390.316C345.142 389.812 345.745 389.56 346.514 389.56C347.227 389.56 347.79 389.776 348.203 390.209C348.617 390.642 348.823 391.238 348.823 391.996V392.616H345.225C345.241 393.14 345.382 393.544 345.649 393.827C345.916 394.107 346.292 394.247 346.777 394.247C347.096 394.247 347.393 394.218 347.666 394.159C347.943 394.097 348.239 393.996 348.555 393.856V394.789C348.275 394.923 347.992 395.017 347.705 395.072C347.419 395.128 347.091 395.155 346.724 395.155ZM346.514 390.429C346.149 390.429 345.856 390.544 345.635 390.775C345.417 391.007 345.286 391.343 345.244 391.786H347.695C347.689 391.34 347.581 391.003 347.373 390.775C347.165 390.544 346.878 390.429 346.514 390.429ZM353.755 393.52C353.755 394.047 353.563 394.452 353.179 394.735C352.795 395.015 352.244 395.155 351.528 395.155C350.809 395.155 350.231 395.046 349.795 394.828V393.837C350.43 394.13 351.021 394.276 351.567 394.276C352.274 394.276 352.627 394.063 352.627 393.637C352.627 393.5 352.588 393.386 352.51 393.295C352.432 393.204 352.303 393.109 352.124 393.012C351.945 392.914 351.696 392.803 351.377 392.68C350.755 392.439 350.334 392.198 350.112 391.957C349.894 391.716 349.785 391.404 349.785 391.02C349.785 390.557 349.971 390.199 350.342 389.945C350.716 389.688 351.224 389.56 351.865 389.56C352.5 389.56 353.101 389.688 353.667 389.945L353.296 390.81C352.713 390.569 352.223 390.448 351.826 390.448C351.221 390.448 350.918 390.621 350.918 390.966C350.918 391.135 350.996 391.278 351.152 391.396C351.312 391.513 351.657 391.674 352.188 391.879C352.633 392.051 352.957 392.209 353.159 392.353C353.361 392.496 353.511 392.662 353.608 392.851C353.706 393.036 353.755 393.259 353.755 393.52Z" fill="#3F3F46"/>
<defs>
<linearGradient id="paint0_linear_3396_73103" x1="1" y1="35.6875" x2="96" y2="35.6875" gradientUnits="userSpaceOnUse">
<stop stop-color="#213147"/>
<stop offset="1" stop-color="#213147" stop-opacity="0"/>
</linearGradient>
<linearGradient id="paint1_linear_3396_73103" x1="99" y1="90.7402" x2="144" y2="90.7402" gradientUnits="userSpaceOnUse">
<stop stop-color="#213147"/>
<stop offset="1" stop-color="#213147" stop-opacity="0"/>
</linearGradient>
<linearGradient id="paint2_linear_3396_73103" x1="144" y1="145.793" x2="191" y2="145.793" gradientUnits="userSpaceOnUse">
<stop stop-color="#213147"/>
<stop offset="1" stop-color="#213147" stop-opacity="0"/>
</linearGradient>
<linearGradient id="paint3_linear_3396_73103" x1="144" y1="197.847" x2="192" y2="197.847" gradientUnits="userSpaceOnUse">
<stop stop-color="#213147"/>
<stop offset="1" stop-color="#213147" stop-opacity="0"/>
</linearGradient>
<linearGradient id="paint4_linear_3396_73103" x1="180" y1="249.899" x2="237" y2="249.899" gradientUnits="userSpaceOnUse">
<stop stop-color="#213147"/>
<stop offset="1" stop-color="#213147" stop-opacity="0"/>
</linearGradient>
<linearGradient id="paint5_linear_3396_73103" x1="232" y1="304.952" x2="334" y2="304.952" gradientUnits="userSpaceOnUse">
<stop stop-color="#213147"/>
<stop offset="1" stop-color="#213147" stop-opacity="0"/>
</linearGradient>
<linearGradient id="paint6_linear_3396_73103" x1="329" y1="360.005" x2="359" y2="360.005" gradientUnits="userSpaceOnUse">
<stop stop-color="#213147"/>
<stop offset="1" stop-color="#213147" stop-opacity="0"/>
</linearGradient>
</defs>
</svg>
