<svg width="45" height="45" viewBox="0 0 45 45" fill="none" xmlns="http://www.w3.org/2000/svg">
<path d="M21.0938 10.0069C21.0938 9.34125 20.745 8.73937 20.3419 8.20875C19.9221 7.67132 19.692 7.01006 19.6875 6.32812C19.6875 4.38563 21.5756 2.8125 23.9062 2.8125C26.2369 2.8125 28.125 4.3875 28.125 6.32812C28.125 7.02 27.885 7.665 27.4706 8.20875C27.0675 8.73937 26.7188 9.34125 26.7188 10.0069C26.7188 10.6294 27.24 11.1281 27.8625 11.0906C31.4437 10.8769 34.9688 10.4494 38.4225 9.82312C38.6106 9.78902 38.8037 9.79364 38.99 9.83669C39.1763 9.87974 39.3518 9.96032 39.5059 10.0735C39.66 10.1867 39.7894 10.3301 39.8861 10.495C39.9829 10.6599 40.0451 10.8428 40.0688 11.0325C40.4931 14.4243 40.7284 17.8371 40.7738 21.255C40.7755 21.4183 40.7447 21.5804 40.6833 21.7318C40.6218 21.8831 40.5308 22.0207 40.4156 22.1366C40.3005 22.2524 40.1634 22.3442 40.0125 22.4066C39.8615 22.469 39.6996 22.5008 39.5363 22.5C38.8725 22.5 38.2706 22.1513 37.74 21.7481C37.2026 21.3283 36.5413 21.0982 35.8594 21.0938C33.9188 21.0938 32.3438 22.9819 32.3438 25.3125C32.3438 27.6431 33.9188 29.5312 35.8594 29.5312C36.5513 29.5312 37.1963 29.2913 37.74 28.8769C38.2706 28.4737 38.8725 28.125 39.5381 28.125C40.1194 28.125 40.5825 28.6163 40.5394 29.1956C40.3194 32.2405 39.947 35.2724 39.4237 38.28C39.374 38.5652 39.2375 38.8281 39.0328 39.0328C38.8281 39.2375 38.5652 39.374 38.28 39.4237C34.8675 40.0181 31.3931 40.4231 27.8644 40.6275C27.7166 40.6354 27.5687 40.6131 27.4299 40.5619C27.291 40.5106 27.1641 40.4316 27.0569 40.3296C26.9496 40.2277 26.8643 40.1049 26.8062 39.9688C26.748 39.8327 26.7183 39.6861 26.7188 39.5381C26.7188 38.8725 27.0675 38.2706 27.4706 37.74C27.885 37.1963 28.125 36.5513 28.125 35.8594C28.125 33.9188 26.2369 32.3438 23.9062 32.3438C21.5756 32.3438 19.6875 33.9188 19.6875 35.8594C19.6875 36.5513 19.9275 37.1963 20.3419 37.74C20.745 38.2706 21.0938 38.8725 21.0938 39.5381C21.0943 39.699 21.0626 39.8583 21.0004 40.0067C20.9382 40.1551 20.8469 40.2895 20.7319 40.4019C20.6168 40.5143 20.4804 40.6025 20.3306 40.6612C20.1808 40.72 20.0208 40.748 19.86 40.7437C16.9084 40.6604 13.9625 40.4351 11.0325 40.0688C10.8428 40.0451 10.6599 39.9829 10.495 39.8861C10.3301 39.7894 10.1867 39.66 10.0735 39.5059C9.96032 39.3518 9.87974 39.1763 9.83669 38.99C9.79364 38.8037 9.78902 38.6106 9.82312 38.4225C10.3725 35.3963 10.7681 32.3156 11.0025 29.19C11.0123 29.0535 10.9938 28.9164 10.9482 28.7873C10.9025 28.6583 10.8307 28.5401 10.7372 28.4401C10.6438 28.3401 10.5306 28.2605 10.405 28.2063C10.2793 28.1521 10.1438 28.1244 10.0069 28.125C9.34125 28.125 8.73937 28.4737 8.20875 28.8769C7.665 29.2913 7.02 29.5312 6.32812 29.5312C4.38563 29.5312 2.8125 27.6431 2.8125 25.3125C2.8125 22.9819 4.3875 21.0938 6.32812 21.0938C7.02 21.0938 7.665 21.3337 8.20875 21.7481C8.73937 22.1513 9.34125 22.5 10.0069 22.5C10.17 22.5008 10.3316 22.4691 10.4824 22.4068C10.6331 22.3445 10.77 22.2528 10.8849 22.1371C10.9999 22.0214 11.0908 21.884 11.1521 21.7329C11.2135 21.5818 11.2442 21.42 11.2425 21.2569C11.2015 18.2365 11.0075 15.2201 10.6612 12.2194C10.6367 12.0089 10.6601 11.7956 10.7295 11.5955C10.799 11.3953 10.9128 11.2134 11.0625 11.0634C11.2121 10.9134 11.3937 10.7991 11.5937 10.7292C11.7937 10.6592 12.007 10.6353 12.2175 10.6594C14.7356 10.95 17.2856 11.1356 19.8619 11.2106C20.0224 11.2149 20.1822 11.1869 20.3318 11.1283C20.4813 11.0696 20.6176 10.9816 20.7324 10.8693C20.8473 10.7571 20.9385 10.6229 21.0006 10.4747C21.0626 10.3266 21.0943 10.1675 21.0938 10.0069Z" fill="#0284C7"/>
</svg>
