<svg width="45" height="45" viewBox="0 0 45 45" fill="none" xmlns="http://www.w3.org/2000/svg">
<path fill-rule="evenodd" clip-rule="evenodd" d="M37.3164 7.68395C36.6635 7.03084 35.8883 6.51275 35.0351 6.15928C34.1819 5.80581 33.2675 5.62388 32.3439 5.62388C31.4204 5.62388 30.506 5.80581 29.6528 6.15928C28.7996 6.51275 28.0244 7.03084 27.3714 7.68395L18.9339 16.1214C18.1379 16.9168 17.5444 17.8915 17.2033 18.9638C16.8621 20.0361 16.7833 21.1745 16.9735 22.2836C17.1636 23.3927 17.6171 24.4399 18.296 25.3373C18.9748 26.2347 19.8591 26.9561 20.8746 27.4408C21.1995 27.6083 21.4465 27.8957 21.5632 28.2421C21.6798 28.5886 21.6569 28.9669 21.4994 29.2968C21.3419 29.6267 21.0621 29.8822 20.7194 30.0094C20.3766 30.1365 19.9978 30.1251 19.6633 29.9777C18.2423 29.2989 17.0048 28.2891 16.0549 27.033C15.105 25.7769 14.4703 24.3112 14.2041 22.759C13.9379 21.2068 14.0481 19.6134 14.5253 18.1126C15.0024 16.6118 15.8327 15.2474 16.9464 14.1339L25.3839 5.69645C26.2936 4.76295 27.3796 4.0194 28.5789 3.50894C29.7782 2.99849 31.0669 2.73129 32.3703 2.72286C33.6737 2.71443 34.9658 2.96493 36.1716 3.45983C37.3774 3.95473 38.4729 4.68417 39.3946 5.60582C40.3162 6.52748 41.0457 7.62299 41.5406 8.8288C42.0355 10.0346 42.286 11.3267 42.2775 12.6301C42.2691 13.9335 42.0019 15.2222 41.4914 16.4215C40.981 17.6208 40.2374 18.7068 39.3039 19.6164L36.0096 22.9108C35.8808 23.049 35.7256 23.1598 35.5531 23.2367C35.3806 23.3135 35.1944 23.3548 35.0056 23.3582C34.8167 23.3615 34.6292 23.3268 34.4541 23.2561C34.279 23.1853 34.1199 23.0801 33.9864 22.9465C33.8528 22.813 33.7476 22.6539 33.6768 22.4788C33.6061 22.3037 33.5714 22.1162 33.5747 21.9273C33.578 21.7385 33.6194 21.5523 33.6962 21.3798C33.7731 21.2073 33.8839 21.0521 34.0221 20.9233L37.3164 17.6289C37.9696 16.976 38.4876 16.2008 38.8411 15.3476C39.1946 14.4944 39.3765 13.58 39.3765 12.6564C39.3765 11.7329 39.1946 10.8185 38.8411 9.96527C38.4876 9.11208 37.9696 8.33688 37.3164 7.68395ZM23.4621 15.6846C23.623 15.3482 23.9109 15.0895 24.2625 14.9654C24.6141 14.8413 25.0007 14.8619 25.3371 15.0227C26.7581 15.7015 27.9955 16.7113 28.9455 17.9674C29.8954 19.2235 30.5301 20.6892 30.7963 22.2414C31.0624 23.7936 30.9523 25.387 30.4751 26.8878C29.998 28.3886 29.1677 29.753 28.0539 30.8664L19.6164 39.3039C18.7068 40.2374 17.6208 40.981 16.4215 41.4914C15.2222 42.0019 13.9335 42.2691 12.6301 42.2775C11.3267 42.286 10.0346 42.0355 8.8288 41.5406C7.62299 41.0457 6.52748 40.3162 5.60582 39.3946C4.68417 38.4729 3.95473 37.3774 3.45983 36.1716C2.96493 34.9658 2.71443 33.6737 2.72286 32.3703C2.73129 31.0669 2.99849 29.7782 3.50894 28.5789C4.0194 27.3796 4.76295 26.2936 5.69645 25.3839L8.99082 22.0896C9.11956 21.9514 9.27481 21.8406 9.44731 21.7637C9.61981 21.6869 9.80602 21.6455 9.99484 21.6422C10.1837 21.6389 10.3712 21.6736 10.5463 21.7443C10.7214 21.8151 10.8805 21.9203 11.014 22.0539C11.1476 22.1874 11.2528 22.3465 11.3236 22.5216C11.3943 22.6967 11.429 22.8842 11.4257 23.0731C11.4223 23.2619 11.381 23.4481 11.3042 23.6206C11.2273 23.7931 11.1165 23.9483 10.9783 24.0771L7.68395 27.3714C7.03095 28.0244 6.51296 28.7997 6.15956 29.6528C5.80616 30.506 5.62427 31.4205 5.62427 32.3439C5.62427 33.2674 5.80616 34.1819 6.15956 35.035C6.51296 35.8882 7.03095 36.6634 7.68395 37.3164C8.33694 37.9694 9.11216 38.4874 9.96535 38.8408C10.8185 39.1942 11.733 39.3761 12.6564 39.3761C13.5799 39.3761 14.4944 39.1942 15.3475 38.8408C16.2007 38.4874 16.9759 37.9694 17.6289 37.3164L26.0664 28.8789C26.8625 28.0836 27.456 27.1089 27.7971 26.0366C28.1383 24.9643 28.2171 23.8258 28.0269 22.7168C27.8368 21.6077 27.3832 20.5605 26.7044 19.6631C26.0256 18.7657 25.1413 18.0443 24.1258 17.5596C23.9591 17.4801 23.8097 17.3685 23.6861 17.2312C23.5625 17.094 23.4672 16.9337 23.4055 16.7596C23.3439 16.5854 23.3172 16.4009 23.3269 16.2164C23.3366 16.032 23.3825 15.8513 23.4621 15.6846Z" fill="#0284C7"/>
</svg>
