<svg width="45" height="45" viewBox="0 0 45 45" fill="none" xmlns="http://www.w3.org/2000/svg">
<path fill-rule="evenodd" clip-rule="evenodd" d="M22.5 2.8125C19.8893 2.8125 17.3855 3.84961 15.5394 5.69567C13.6934 7.54173 12.6562 10.0455 12.6562 12.6562V18.2812C11.1644 18.2812 9.73367 18.8739 8.67877 19.9288C7.62388 20.9837 7.03125 22.4144 7.03125 23.9062V36.5625C7.03125 38.0543 7.62388 39.4851 8.67877 40.54C9.73367 41.5949 11.1644 42.1875 12.6562 42.1875H32.3438C33.8356 42.1875 35.2663 41.5949 36.3212 40.54C37.3761 39.4851 37.9688 38.0543 37.9688 36.5625V23.9062C37.9688 22.4144 37.3761 20.9837 36.3212 19.9288C35.2663 18.8739 33.8356 18.2812 32.3438 18.2812V12.6562C32.3438 7.21875 27.9375 2.8125 22.5 2.8125ZM29.5312 18.2812V12.6562C29.5312 10.7914 28.7905 9.00302 27.4718 7.68441C26.1532 6.36579 24.3648 5.625 22.5 5.625C20.6352 5.625 18.8468 6.36579 17.5282 7.68441C16.2095 9.00302 15.4688 10.7914 15.4688 12.6562V18.2812H29.5312Z" fill="#0284C7"/>
</svg>
