<svg width="45" height="45" viewBox="0 0 45 45" fill="none" xmlns="http://www.w3.org/2000/svg">
<path fill-rule="evenodd" clip-rule="evenodd" d="M27.0879 5.67352C27.2662 5.72195 27.4332 5.80506 27.5794 5.91807C27.7256 6.03109 27.848 6.17181 27.9398 6.33218C28.0316 6.49256 28.0908 6.66944 28.1142 6.85273C28.1376 7.03602 28.1246 7.22212 28.076 7.40039L19.6385 38.3379C19.5405 38.6979 19.3036 39.0043 18.9797 39.1896C18.6558 39.3749 18.2716 39.424 17.9116 39.326C17.5516 39.2281 17.2452 38.9911 17.0599 38.6672C16.8746 38.3434 16.8255 37.9592 16.9235 37.5991L25.361 6.66164C25.4094 6.48333 25.4925 6.31631 25.6055 6.17013C25.7186 6.02395 25.8593 5.90148 26.0197 5.80971C26.18 5.71795 26.3569 5.65869 26.5402 5.63532C26.7235 5.61195 26.9096 5.62493 27.0879 5.67352ZM31.3497 11.6623C31.6134 11.3989 31.9708 11.251 32.3435 11.251C32.7161 11.251 33.0736 11.3989 33.3372 11.6623L43.181 21.506C43.4443 21.7697 43.5923 22.1271 43.5923 22.4998C43.5923 22.8724 43.4443 23.2298 43.181 23.4935L33.3372 33.3373C33.2085 33.4754 33.0532 33.5862 32.8808 33.6631C32.7083 33.74 32.522 33.7813 32.3332 33.7846C32.1444 33.788 31.9568 33.7532 31.7817 33.6825C31.6066 33.6118 31.4476 33.5065 31.314 33.373C31.1805 33.2394 31.0752 33.0804 31.0045 32.9053C30.9338 32.7302 30.899 32.5426 30.9024 32.3538C30.9057 32.165 30.947 31.9788 31.0239 31.8063C31.1008 31.6338 31.2116 31.4785 31.3497 31.3498L40.1997 22.4998L31.3497 13.6498C31.0864 13.3861 30.9385 13.0287 30.9385 12.656C30.9385 12.2834 31.0864 11.9259 31.3497 11.6623ZM13.6497 11.6623C13.9131 11.9259 14.061 12.2834 14.061 12.656C14.061 13.0287 13.9131 13.3861 13.6497 13.6498L4.79974 22.4998L13.6497 31.3498C13.8981 31.6163 14.0334 31.9689 14.0269 32.3332C14.0205 32.6976 13.8729 33.0452 13.6153 33.3028C13.3576 33.5605 13.01 33.708 12.6457 33.7145C12.2814 33.7209 11.9288 33.5857 11.6622 33.3373L1.81849 23.4935C1.55514 23.2298 1.40723 22.8724 1.40723 22.4998C1.40723 22.1271 1.55514 21.7697 1.81849 21.506L11.6622 11.6623C11.9259 11.3989 12.2833 11.251 12.656 11.251C13.0286 11.251 13.3861 11.3989 13.6497 11.6623Z" fill="#0284C7"/>
</svg>
