<svg width="30" height="34" viewBox="0 0 30 34" fill="none" xmlns="http://www.w3.org/2000/svg">
<g clip-path="url(#clip0_2213_56972)">
<path d="M15.045 2.09783C15.1278 2.09783 15.2042 2.11873 15.2806 2.15974L27.6738 9.36746C27.8194 9.45028 27.9094 9.60306 27.9022 9.76869L27.8539 24.1077C27.8539 24.2742 27.7639 24.4262 27.6183 24.509L15.1833 31.6331C15.1142 31.6749 15.0314 31.695 14.9477 31.695C14.8641 31.695 14.7885 31.6741 14.7121 31.6331L2.31975 24.4262C2.17422 24.3433 2.08416 24.1906 2.0914 24.0249L2.13964 9.68587C2.13964 9.51943 2.2297 9.36746 2.37523 9.28464L14.8167 2.15331C14.8858 2.11873 14.9686 2.09783 15.045 2.09783ZM15.0523 0C14.6092 0 14.1662 0.110962 13.7714 0.339319L1.33637 7.46341C0.540338 7.92093 0.0482444 8.76521 0.0482444 9.67944L0 24.0185C0 24.9327 0.484857 25.777 1.27365 26.241L13.6668 33.4487C14.0616 33.677 14.5047 33.7952 14.9477 33.7952C15.3908 33.7952 15.8338 33.6843 16.2286 33.4559L28.6636 26.3318C29.4597 25.8751 29.9518 25.03 29.9518 24.1166L30 9.77754C30 8.86331 29.5151 8.01903 28.7263 7.55508L16.3332 0.346556C15.9384 0.118199 15.4953 0 15.0523 0Z" fill="#1B4ADD"/>
<path d="M17.8942 9H16.0802C15.9419 9 15.8237 9.08282 15.7754 9.21469L9.93223 25.2286C9.89042 25.3324 9.97404 25.4433 10.0842 25.4433H11.8982C12.0365 25.4433 12.1547 25.3605 12.2029 25.2286L18.0461 9.21469C18.088 9.11096 18.0043 9 17.8942 9ZM14.7165 9H12.9025C12.7642 9 12.646 9.08282 12.5977 9.21469L6.76096 25.2222C6.71915 25.3259 6.80277 25.4369 6.91293 25.4369H8.72692C8.86523 25.4369 8.98342 25.3541 9.03167 25.2222L14.8684 9.21469C14.9103 9.11096 14.8339 9 14.7165 9ZM17.0708 15.2034C17.0226 15.0579 16.8143 15.0579 16.7661 15.2034L15.8245 17.7925C15.7971 17.8617 15.7971 17.9445 15.8245 18.0145L18.4554 25.2222C18.5037 25.3468 18.6219 25.4369 18.7602 25.4369H20.5742C20.6851 25.4369 20.7679 25.3259 20.7261 25.2222L17.0708 15.2034ZM23.8974 25.2222L18.6564 10.8486C18.6082 10.703 18.3999 10.703 18.3517 10.8486L17.4101 13.4377C17.3828 13.5068 17.3828 13.5897 17.4101 13.6596L21.6267 25.2222C21.6749 25.3468 21.7931 25.4369 21.9314 25.4369H23.7454C23.8628 25.4441 23.9392 25.3259 23.8974 25.2222Z" fill="#1B4ADD"/>
</g>
<defs>
<clipPath id="clip0_2213_56972">
<rect width="30" height="33.7944" fill="white"/>
</clipPath>
</defs>
</svg>
