<svg width="30" height="35" viewBox="0 0 30 35" fill="none" xmlns="http://www.w3.org/2000/svg">
<g clip-path="url(#clip0_2213_56985)">
<path d="M15 2.89373C15.0829 2.89373 15.1593 2.91465 15.2358 2.95568L27.6722 10.1338C27.8178 10.2167 27.9079 10.3696 27.9079 10.5353V24.8908C27.9079 25.0574 27.8178 25.2095 27.6722 25.2923L15.2358 32.4769C15.1666 32.5188 15.0837 32.5389 15 32.5389C14.9163 32.5389 14.8407 32.518 14.7642 32.4769L2.33505 25.3004C2.18941 25.2175 2.09929 25.0646 2.09929 24.8989V10.5361C2.09929 10.3696 2.18941 10.2175 2.33505 10.1346L14.7642 2.95649C14.8407 2.91465 14.9163 2.89453 15 2.89453M15 0.795238C14.5566 0.795238 14.1133 0.912715 13.7182 1.14204L1.28178 8.31857C0.491632 8.77561 0 9.62128 0 10.5361V24.8916C0 25.8065 0.491632 26.6514 1.28178 27.1156L13.7182 34.2938C14.1133 34.5223 14.5566 34.6406 15 34.6406C15.4434 34.6406 15.8867 34.5231 16.2818 34.2938L28.7182 27.1156C29.5148 26.6586 30 25.8129 30 24.8916V10.5361C30 9.62128 29.5084 8.77641 28.7182 8.31214L16.2818 1.13399C15.8867 0.905473 15.4434 0.794434 15 0.794434V0.795238Z" fill="#FF7700"/>
<path d="M11.8269 10.3623H10.2056C10.0809 10.3623 9.97708 10.4387 9.93524 10.5562L4.70431 24.8771C4.66971 24.9745 4.73891 25.071 4.84271 25.071H6.46405C6.58877 25.071 6.69257 24.9946 6.73441 24.8771L11.9581 10.549C11.9999 10.4589 11.9307 10.3623 11.8261 10.3623H11.8269Z" fill="#FF7700"/>
<path d="M13.9325 15.9192C13.8842 15.7945 13.704 15.7945 13.6621 15.9192L12.8165 18.2334C12.7956 18.2953 12.7956 18.3653 12.8165 18.4345L15.1724 24.8853C15.2143 25.0027 15.3245 25.0792 15.4428 25.0792H17.0641C17.1679 25.0792 17.2371 24.9818 17.2025 24.8853L13.9325 15.92V15.9192Z" fill="#FF7700"/>
<path d="M14.6674 10.3623H13.046C12.9213 10.3623 12.8175 10.4387 12.7757 10.5562L7.55197 24.8771C7.51737 24.9745 7.58657 25.071 7.69037 25.071H9.31171C9.43642 25.071 9.54022 24.9946 9.58206 24.8771L14.8058 10.549C14.8403 10.4589 14.7712 10.3623 14.6674 10.3623Z" fill="#FF7700"/>
<path d="M15.3536 12.0183C15.3053 11.8936 15.1251 11.8936 15.0832 12.0183L14.2383 14.3325C14.2174 14.3944 14.2174 14.4644 14.2383 14.5336L18.0145 24.878C18.0563 24.9955 18.1666 25.0719 18.2849 25.0719H19.9062C20.01 25.0719 20.0792 24.9746 20.0446 24.878L15.3544 12.0191L15.3536 12.0183Z" fill="#FF7700"/>
<path d="M25.1587 10.3623H23.5374C23.4127 10.3623 23.3089 10.4387 23.267 10.5562L19.4844 20.9006C19.4635 20.9626 19.4635 21.0326 19.4844 21.1018L20.3301 23.4159C20.3784 23.5406 20.5586 23.5406 20.6005 23.4159L25.2907 10.557C25.3253 10.4597 25.2561 10.3631 25.1587 10.3631V10.3623Z" fill="#FF7700"/>
<path d="M18.9082 19.515C18.9565 19.6397 19.1368 19.6397 19.1786 19.515L22.4486 10.5562C22.4832 10.4589 22.414 10.3623 22.3102 10.3623H20.6889C20.5642 10.3623 20.4604 10.4387 20.4185 10.5562L18.0626 17.007C18.0416 17.0689 18.0416 17.1389 18.0626 17.2081L18.9074 19.515H18.9082Z" fill="#FF7700"/>
</g>
<defs>
<clipPath id="clip0_2213_56985">
<rect width="30" height="33.8453" fill="white" transform="translate(0 0.794434)"/>
</clipPath>
</defs>
</svg>
