<svg width="526" height="324" viewBox="0 0 526 324" fill="none" xmlns="http://www.w3.org/2000/svg">
<g clip-path="url(#clip0_1256_23212)">
<path opacity="0.1" d="M526 207.802C526.009 216.568 524.949 225.303 522.843 233.812C522.134 236.679 521.311 239.486 520.373 242.234C519.226 245.626 517.896 248.954 516.39 252.202C515.63 253.846 514.828 255.456 513.982 257.034C513.996 266.023 512.146 274.918 508.548 283.155C502.043 297.935 490.445 309.885 475.866 316.828C466.751 321.177 456.79 323.464 446.691 323.527H99.8527C84.4212 323.56 69.2562 319.506 55.8995 311.777L55.6941 311.661C53.7916 310.547 51.9368 309.368 50.1296 308.124C46.0635 305.315 42.2434 302.166 38.7104 298.71C33.9285 294.037 29.7148 288.816 26.1568 283.155C17.8002 269.886 13.3733 254.521 13.3888 238.84C4.92601 223.991 -0.00878906 206.204 -0.00878906 187.09C-0.00878906 162.974 7.83329 140.975 20.7174 124.322C23.4034 120.843 26.3457 117.569 29.5196 114.528C32.6512 111.519 36.0172 108.764 39.5857 106.289C42.4407 104.306 45.4246 102.516 48.5174 100.93C49.8081 100.273 51.1032 99.6523 52.4206 99.0762C53.5773 98.5626 54.7473 98.0847 55.9308 97.6337C57.3509 97.0948 58.789 96.5991 60.2448 96.1465C61.7007 95.694 63.1372 95.298 64.5544 94.9586C66.6385 94.4495 68.7583 94.0357 70.9138 93.7171C72.7002 93.4536 74.4865 93.2705 76.2729 93.1321C77.693 93.0249 79.1266 92.9669 80.569 92.949H81.3506C82.9404 92.949 84.5213 93.0115 86.0889 93.1187C86.2541 92.7882 86.4327 92.4533 86.598 92.1273C87.2232 90.9349 87.8708 89.7469 88.5228 88.5858C88.5213 88.5754 88.5213 88.5649 88.5228 88.5546C88.6344 88.3491 88.7461 88.1482 88.8622 87.9517C89.3892 87.0004 89.9385 86.0581 90.5012 85.1248C90.7602 84.6782 91.0147 84.2584 91.2782 83.8386C91.334 83.7343 91.3951 83.6329 91.4613 83.5349C91.7293 83.0883 92.0017 82.6417 92.2786 82.1951C93.657 79.992 95.0906 77.8275 96.5792 75.7018L96.9588 75.1569C97.191 74.8264 97.4054 74.5049 97.6644 74.1744C98.2807 73.3125 98.9149 72.4461 99.5535 71.5976C100 70.9903 100.447 70.3874 100.929 69.8113C102.09 68.3226 103.281 66.834 104.502 65.3454C105.722 63.8568 106.991 62.3875 108.307 60.9376C108.485 60.7366 108.664 60.5401 108.851 60.3436L110.758 58.2625C110.852 58.1643 110.933 58.0749 111.022 57.9856C111.25 57.74 111.468 57.4944 111.714 57.2577C112.737 56.1725 113.786 55.1096 114.84 54.0512C120.204 48.7089 125.918 43.7303 131.945 39.1486C132.181 38.961 132.422 38.7823 132.659 38.6037C133.793 37.7507 134.946 36.9067 136.098 36.076C142.435 31.5295 149.06 27.3974 155.931 23.7055C156.404 23.4331 156.886 23.1786 157.373 22.9285C163.533 19.6698 169.868 16.7536 176.349 14.1932C179.881 12.7954 183.494 11.4824 187.129 10.2811C189.55 9.48619 191.979 8.73146 194.44 8.02139C198.287 6.91385 202.16 5.92094 206.06 5.04265C217.551 2.46443 229.24 0.87177 241.001 0.282019C244.574 0.100407 248.187 0.00662477 251.84 0.000670267C269.467 -0.0226657 287.025 2.19836 304.091 6.61017C304.267 6.87682 304.508 7.0942 304.792 7.24186C305.076 7.38952 305.392 7.4626 305.712 7.45422H307.212C307.864 7.63285 308.512 7.81149 309.164 7.99906C312.805 9.04705 316.394 10.1918 319.931 11.4333L320.824 11.7549C329.554 14.8591 338.048 18.5904 346.24 22.9196C353.624 26.8127 360.734 31.2054 367.52 36.0671C368.565 36.8174 369.595 37.5736 370.61 38.3358C371.843 37.5468 373.096 36.7906 374.37 36.0671C379.291 33.2645 384.518 31.0363 389.947 29.4263C401.298 26.0672 413.309 25.5974 424.888 28.0598C439.737 31.2082 453.18 39.0235 464.036 50.1391C468.457 54.6871 472.391 59.683 475.777 65.0462C476.023 65.4302 476.268 65.8188 476.505 66.2118C479.415 70.9585 481.915 75.944 483.981 81.1144C484.057 81.3064 484.133 81.4851 484.2 81.6726C486.106 86.5142 487.644 91.4929 488.799 96.5663C488.853 96.8254 488.916 97.0799 488.969 97.3389C490.05 102.249 490.784 107.229 491.166 112.242C491.166 112.42 491.166 112.603 491.202 112.791C491.39 115.384 491.485 118.004 491.488 120.651C491.488 123.018 491.407 125.367 491.26 127.698C491.26 127.953 491.224 128.216 491.202 128.48C491.162 129.154 491.104 129.819 491.046 130.498C494.457 133.249 497.649 136.261 500.594 139.506C501.895 140.926 503.154 142.4 504.372 143.927C508.081 148.576 511.341 153.565 514.108 158.83C521.659 173.085 526 189.854 526 207.802Z" fill="#12AAFF"/>
<path opacity="0.1" d="M475.536 315.175C475.536 318.226 465.027 321.084 446.69 323.54H99.8524C84.421 323.573 69.2559 319.519 55.8993 311.79L55.6938 311.674C60.9636 309.754 70.4759 307.963 83.4225 306.346L84.003 306.275C89.8087 305.565 96.2976 304.891 103.389 304.252C103.568 304.252 103.751 304.225 103.93 304.203C109.557 303.703 115.543 303.234 121.887 302.796C122.088 302.796 122.285 302.76 122.486 302.751C124.933 302.576 127.431 302.409 129.979 302.251L130.962 302.189C149.517 301.037 170.61 300.117 193.484 299.509H193.511C196.714 299.42 199.952 299.341 203.224 299.272C206.862 299.186 210.545 299.11 214.273 299.045C217.117 298.982 219.998 298.938 222.887 298.893H222.954C235.99 298.696 249.459 298.598 263.232 298.598C297.289 298.598 329.479 299.219 358.003 300.335H358.083C362.468 300.505 366.774 300.693 370.971 300.885L374.544 301.054C379.281 301.281 383.896 301.523 388.388 301.782C441.22 304.788 475.536 309.669 475.536 315.175Z" fill="#12AAFF"/>
<g opacity="0.2">
<path d="M303.804 296.549C303.79 297.031 303.735 297.51 303.639 297.982C300.531 297.488 297.405 297.042 294.261 296.643C294.261 296.518 294.261 296.388 294.261 296.259C294.29 294.919 294.675 293.612 295.377 292.472C296.297 291.016 297.695 290.105 299.236 290.154C300.776 290.203 302.112 291.199 302.938 292.704C303.563 293.886 303.862 295.213 303.804 296.549Z" fill="#3F3D56"/>
<path d="M304.061 288.917C304.17 285.463 302.12 282.596 299.482 282.512C296.845 282.429 294.618 285.161 294.509 288.615C294.4 292.069 296.449 294.936 299.087 295.02C301.725 295.103 303.952 292.371 304.061 288.917Z" fill="#3F3D56"/>
<path d="M304.305 281.271C304.414 277.818 302.364 274.95 299.726 274.867C297.088 274.784 294.861 277.516 294.752 280.97C294.643 284.423 296.693 287.291 299.331 287.374C301.969 287.457 304.195 284.725 304.305 281.271Z" fill="#3F3D56"/>
<path d="M304.544 273.626C304.653 270.172 302.603 267.305 299.965 267.221C297.328 267.138 295.101 269.87 294.992 273.324C294.882 276.778 296.932 279.645 299.57 279.729C302.208 279.812 304.435 277.08 304.544 273.626Z" fill="#3F3D56"/>
<path d="M304.783 265.98C304.892 262.526 302.842 259.659 300.205 259.575C297.567 259.492 295.34 262.224 295.231 265.678C295.122 269.132 297.172 271.999 299.809 272.083C302.447 272.166 304.674 269.434 304.783 265.98Z" fill="#3F3D56"/>
<path d="M283.753 212.93C283.124 212.078 282.557 211.183 282.056 210.25L294.676 208.584L281.091 208.258C279.879 205.383 279.266 202.29 279.289 199.169C279.313 196.049 279.973 192.966 281.229 190.109L299.147 200.135L282.734 187.255C284.39 184.577 286.58 182.27 289.168 180.476C291.755 178.683 294.685 177.442 297.773 176.832C300.862 176.222 304.043 176.255 307.118 176.929C310.194 177.603 313.097 178.905 315.647 180.751C318.196 182.598 320.338 184.951 321.938 187.662C323.537 190.374 324.561 193.386 324.944 196.511C325.327 199.636 325.062 202.806 324.165 205.824C323.267 208.842 321.758 211.642 319.73 214.05C320.708 215.375 321.539 216.802 322.208 218.306L305.644 226.256L323.209 220.973C324.315 224.622 324.493 228.49 323.727 232.226C322.961 235.962 321.276 239.448 318.823 242.369C321.373 245.828 322.898 249.936 323.224 254.222C323.549 258.508 322.662 262.798 320.663 266.604C318.665 270.409 315.636 273.575 311.923 275.74C308.21 277.905 303.963 278.981 299.667 278.846C295.371 278.71 291.2 277.368 287.63 274.974C284.061 272.579 281.237 269.229 279.483 265.305C277.728 261.382 277.113 257.044 277.708 252.787C278.302 248.53 280.083 244.527 282.846 241.234C279.799 237.1 278.231 232.061 278.393 226.927C278.555 221.794 280.438 216.864 283.739 212.93H283.753Z" fill="#12AAFF"/>
<path opacity="0.1" d="M324.182 228.373C324.026 233.509 322.137 238.441 318.823 242.369C321.373 245.828 322.898 249.936 323.224 254.222C323.549 258.508 322.662 262.798 320.663 266.604C318.665 270.409 315.636 273.575 311.923 275.74C308.21 277.905 303.963 278.981 299.667 278.846C295.371 278.71 291.2 277.368 287.63 274.974C284.061 272.579 281.237 269.229 279.483 265.305C277.728 261.382 277.113 257.044 277.708 252.787C278.302 248.53 280.083 244.527 282.846 241.234C279.912 237.246 324.263 225.805 324.182 228.373Z" fill="black"/>
</g>
<g opacity="0.2">
<path d="M235.923 296.549C235.909 297.031 235.853 297.51 235.758 297.982C232.649 297.488 229.523 297.042 226.379 296.643C226.379 296.518 226.379 296.388 226.379 296.259C226.408 294.919 226.794 293.612 227.496 292.472C228.416 291.016 229.814 290.105 231.354 290.154C232.895 290.203 234.23 291.199 235.057 292.704C235.681 293.886 235.981 295.213 235.923 296.549Z" fill="#3F3D56"/>
<path d="M236.175 288.919C236.284 285.466 234.234 282.598 231.596 282.515C228.958 282.432 226.732 285.164 226.622 288.618C226.513 292.071 228.563 294.939 231.201 295.022C233.839 295.105 236.066 292.373 236.175 288.919Z" fill="#3F3D56"/>
<path d="M236.418 281.273C236.527 277.82 234.478 274.952 231.84 274.869C229.202 274.786 226.975 277.518 226.866 280.972C226.757 284.425 228.807 287.293 231.445 287.376C234.082 287.459 236.309 284.727 236.418 281.273Z" fill="#3F3D56"/>
<path d="M236.658 273.627C236.767 270.174 234.717 267.306 232.079 267.223C229.441 267.14 227.214 269.872 227.105 273.326C226.996 276.779 229.046 279.647 231.684 279.73C234.322 279.813 236.548 277.081 236.658 273.627Z" fill="#3F3D56"/>
<path d="M236.897 265.982C237.006 262.528 234.956 259.661 232.318 259.577C229.681 259.494 227.454 262.226 227.345 265.68C227.235 269.134 229.285 272.001 231.923 272.085C234.561 272.168 236.788 269.436 236.897 265.982Z" fill="#3F3D56"/>
<path d="M215.871 212.93C215.242 212.078 214.675 211.183 214.174 210.25L226.795 208.584L213.21 208.258C211.997 205.383 211.384 202.29 211.408 199.169C211.432 196.049 212.092 192.966 213.348 190.109L231.265 200.135L214.853 187.255C216.509 184.577 218.699 182.27 221.286 180.476C223.874 178.683 226.803 177.442 229.892 176.832C232.981 176.222 236.162 176.255 239.237 176.929C242.312 177.603 245.215 178.905 247.765 180.751C250.315 182.598 252.457 184.951 254.056 187.662C255.656 190.374 256.679 193.386 257.062 196.511C257.446 199.636 257.18 202.806 256.283 205.824C255.386 208.842 253.876 211.642 251.848 214.05C252.827 215.375 253.658 216.802 254.327 218.306L237.763 226.256L255.327 220.973C256.433 224.622 256.612 228.49 255.846 232.226C255.08 235.962 253.395 239.448 250.942 242.369C253.492 245.828 255.017 249.936 255.342 254.222C255.668 258.508 254.78 262.798 252.782 266.604C250.784 270.409 247.755 273.575 244.042 275.74C240.329 277.905 236.081 278.981 231.785 278.846C227.489 278.71 223.318 277.368 219.749 274.974C216.18 272.579 213.356 269.229 211.601 265.305C209.847 261.382 209.232 257.044 209.826 252.787C210.421 248.53 212.202 244.527 214.965 241.234C211.918 237.1 210.35 232.061 210.512 226.927C210.674 221.794 212.557 216.864 215.858 212.93H215.871Z" fill="#12AAFF"/>
<path opacity="0.1" d="M256.301 228.373C256.145 233.509 254.256 238.441 250.942 242.369C253.492 245.828 255.017 249.936 255.342 254.222C255.668 258.508 254.78 262.798 252.782 266.604C250.784 270.409 247.755 273.575 244.042 275.74C240.329 277.905 236.081 278.981 231.785 278.846C227.489 278.71 223.318 277.368 219.749 274.974C216.18 272.579 213.356 269.229 211.601 265.305C209.847 261.382 209.232 257.044 209.826 252.787C210.421 248.53 212.202 244.527 214.965 241.234C212.031 237.246 256.381 225.805 256.301 228.373Z" fill="black"/>
</g>
<g opacity="0.2">
<path d="M421.347 301.433C421.313 302.346 421.204 303.254 421.021 304.149C415.037 303.193 409.009 302.338 402.938 301.585C402.938 301.344 402.938 301.098 402.938 300.848C402.995 298.269 403.738 295.752 405.091 293.556C406.877 290.755 409.557 289 412.518 289.09C415.479 289.179 418.055 291.104 419.663 294.002C420.876 296.285 421.457 298.851 421.347 301.433Z" fill="#3F3D56"/>
<path d="M421.832 286.73C422.043 280.079 418.094 274.557 413.013 274.397C407.933 274.236 403.643 279.498 403.433 286.149C403.223 292.8 407.172 298.322 412.252 298.483C417.333 298.643 421.622 293.382 421.832 286.73Z" fill="#3F3D56"/>
<path d="M422.297 272.01C422.507 265.359 418.559 259.837 413.478 259.677C408.397 259.516 404.108 264.778 403.898 271.429C403.687 278.08 407.636 283.602 412.717 283.762C417.797 283.923 422.087 278.661 422.297 272.01Z" fill="#3F3D56"/>
<path d="M422.766 257.291C422.976 250.64 419.027 245.118 413.947 244.957C408.866 244.797 404.577 250.058 404.366 256.709C404.156 263.361 408.105 268.883 413.185 269.043C418.266 269.204 422.555 263.942 422.766 257.291Z" fill="#3F3D56"/>
<path d="M422.706 241.901C422.905 235.247 418.946 229.729 413.863 229.576C408.78 229.424 404.497 234.695 404.298 241.349C404.098 248.003 408.057 253.522 413.14 253.674C418.224 253.827 422.506 248.556 422.706 241.901Z" fill="#3F3D56"/>
<path d="M382.739 140.456C381.534 138.817 380.443 137.097 379.475 135.307L403.769 132.101L377.621 131.471C375.286 125.936 374.104 119.982 374.148 113.974C374.193 107.966 375.463 102.03 377.88 96.53L412.379 115.827L380.788 91.0325C383.982 85.8896 388.201 81.4597 393.182 78.0189C398.164 74.5781 403.8 72.2002 409.741 71.0333C415.682 69.8663 421.799 69.9354 427.712 71.2363C433.625 72.5372 439.206 75.0419 444.108 78.5943C449.011 82.1468 453.129 86.6709 456.206 91.8847C459.283 97.0984 461.254 102.89 461.995 108.899C462.735 114.907 462.231 121.004 460.512 126.809C458.793 132.614 455.897 138.003 452.005 142.64C453.886 145.192 455.487 147.94 456.779 150.835L424.888 166.149L458.699 155.966C460.83 162.984 461.177 170.423 459.709 177.608C458.24 184.794 455.003 191.5 450.29 197.119C455.198 203.78 458.133 211.688 458.759 219.938C459.385 228.188 457.676 236.448 453.829 243.773C449.982 251.098 444.151 257.193 437.003 261.36C429.855 265.527 421.679 267.599 413.409 267.338C405.139 267.077 397.109 264.495 390.238 259.886C383.367 255.276 377.932 248.827 374.553 241.274C371.175 233.721 369.99 225.37 371.135 217.176C372.279 208.981 375.706 201.274 381.024 194.936C375.162 186.976 372.145 177.278 372.456 167.397C372.767 157.517 376.388 148.027 382.739 140.452V140.456Z" fill="#12AAFF"/>
<path opacity="0.1" d="M460.58 170.181C460.287 180.064 456.667 189.558 450.308 197.128C455.216 203.789 458.151 211.697 458.777 219.947C459.403 228.197 457.694 236.457 453.847 243.782C450 251.107 444.169 257.202 437.021 261.369C429.873 265.536 421.697 267.608 413.427 267.347C405.157 267.086 397.128 264.504 390.256 259.895C383.385 255.285 377.95 248.836 374.571 241.283C371.193 233.73 370.008 225.379 371.153 217.185C372.297 208.99 375.724 201.283 381.042 194.945C375.353 187.259 460.736 165.238 460.58 170.181Z" fill="black"/>
</g>
<path d="M70.4805 302.22L75.1652 302.207H81.7702L90.1214 166.542L172.825 28.5332L169.23 24.6747V14.9033L79.7874 163.345L70.4805 302.22Z" fill="#F1C0C0"/>
<path opacity="0.1" d="M75.6655 302.206H81.7704L90.1216 166.542L172.825 28.5328L169.23 24.6743L83.9229 164.474L75.6655 302.206Z" fill="black"/>
<path d="M56.6768 303.349L270.972 319.748L271.155 319.761L478.546 307.007L478.702 306.998V298.24L250.183 294.047L59.5305 293.864H58.1371L57.9853 294.846L56.6768 303.349Z" fill="#F1C0C0"/>
<path opacity="0.1" d="M56.6768 303.349L270.972 319.748L271.155 319.761L478.546 307.007L478.702 306.837V298.423H478.519L270.972 305.354L59.5305 293.864H59.4992L59.1241 294.109L57.9853 294.846L56.6768 303.349Z" fill="black"/>
<path opacity="0.1" d="M56.6768 303.35L270.972 319.748V305.355L59.1241 294.11L57.9853 294.847L56.6768 303.35Z" fill="black"/>
<path d="M169.203 24.4909L263.679 125.893L260.758 304.26L268.783 305.229L268.917 305.247H276.942L277.903 133.552L454.809 192.645L457.793 297.861L464.25 298.584L466.439 298.83L461.374 185.347L276.442 120.422L175.04 15.0054H169.203V24.4909Z" fill="#F1C0C0"/>
<path opacity="0.1" d="M277.175 130.27L277.903 133.552L454.81 192.645L457.793 297.861L464.25 298.585L459.186 190.457L277.175 130.27Z" fill="black"/>
<path opacity="0.1" d="M169.203 24.4909L263.679 125.893L260.758 304.26L268.783 305.229L270.972 120.056L169.203 15.0054V24.4909Z" fill="black"/>
<path d="M277.519 201.854L342.403 214.63L342.426 214.635L456.069 237.022L461.272 234.937L461.254 234.571L460.914 227.314L277.586 190.269L277.519 201.854Z" fill="#F1C0C0"/>
<path opacity="0.1" d="M342.426 214.635L456.069 237.023L461.272 234.937L461.254 234.571L342.426 214.635Z" fill="black"/>
<path d="M346.771 156.556L348.526 253.171L349.433 302.738L357.422 302.47L362.451 302.3L360.888 157.954L357.422 156.802L356.663 156.556H346.771Z" fill="#F1C0C0"/>
<path opacity="0.1" d="M346.842 156.534V156.556L348.526 253.171L349.432 302.738L357.422 302.47V156.534H346.842Z" fill="black"/>
<path d="M221.623 181.23C222.092 181.485 222.54 181.776 222.963 182.101C223.463 182.539 223.913 183.032 224.303 183.57C226.219 186.049 227.987 188.929 227.8 192.056C227.804 192.51 227.718 192.961 227.547 193.383C227.376 193.805 227.123 194.188 226.804 194.512C226.013 195.186 224.879 195.217 223.843 195.217C222.718 195.217 221.534 195.217 220.561 194.637C219.587 194.056 218.774 192.926 217.622 192.953C217.459 192.98 217.293 192.98 217.131 192.953C216.733 192.824 216.653 192.301 216.394 191.971C215.947 191.377 215.005 191.524 214.304 191.783C213.603 192.042 212.826 192.431 212.133 192.131C211.732 191.919 211.403 191.591 211.191 191.189C209.534 188.51 209.181 185.29 208.869 182.177C208.677 180.283 207.212 173.826 211.254 175.295C213.04 175.938 214.71 177.224 216.336 178.167L221.623 181.23Z" fill="#3F3D56"/>
<path d="M217.631 181.868C217.992 182.128 218.43 182.259 218.874 182.242C219.318 182.224 219.744 182.058 220.083 181.77C220.748 181.169 221.172 180.347 221.275 179.457C221.722 179.318 221.95 179.903 222.235 180.261C222.736 180.868 223.754 180.859 224.209 181.507C224.526 181.953 224.455 182.574 224.678 183.079C224.968 183.731 225.687 184.07 226.179 184.597C226.643 185.173 226.978 185.841 227.161 186.558L227.894 188.755C228.244 189.669 228.469 190.625 228.563 191.6C228.61 192.086 228.558 192.578 228.413 193.045C228.267 193.512 228.03 193.945 227.715 194.319C226.732 195.378 225.12 195.489 223.696 195.458C223.22 195.468 222.745 195.413 222.284 195.293C221.021 194.9 220.212 193.627 219.877 192.345C219.542 191.064 219.578 189.719 219.382 188.406C219.169 187.117 218.794 185.859 218.265 184.664C217.872 183.735 216.791 182.351 216.809 181.364C217.131 181.364 217.363 181.659 217.631 181.868Z" fill="#3F3D56"/>
<path d="M219.234 177.345C219.026 176.711 218.904 176.051 218.873 175.384C218.873 174.045 219.485 172.785 220.101 171.588L214.996 172.281C214.38 172.365 213.692 172.49 213.344 173.004C213.212 173.259 213.143 173.541 213.143 173.828C213.143 174.115 213.212 174.397 213.344 174.652C213.6 175.161 213.803 175.696 213.951 176.246C213.963 176.728 214.018 177.208 214.117 177.68C214.275 178.026 214.498 178.34 214.773 178.604C216.233 180.221 217.328 182.128 218.417 184.017C218.386 183.963 221.494 181.556 221.369 180.77C221.298 180.324 220.4 179.788 220.114 179.359C219.719 178.737 219.423 178.057 219.234 177.345Z" fill="#BE6F72"/>
<path d="M263 159.896V164.295L187.674 178.988L183.766 181.355H170.284V178.876L244.292 160.995L263 159.896Z" fill="#F1C0C0"/>
<path opacity="0.1" d="M263 164.295L187.674 178.988L183.766 181.355H170.284L244.842 165.398L263 164.295Z" fill="black"/>
<path d="M202.523 284.772C201.684 283.755 200.525 283.053 199.236 282.779C197.947 282.505 196.603 282.675 195.422 283.262C195.17 283.381 194.947 283.555 194.77 283.771C194.324 284.397 194.61 285.259 194.65 286.031C194.753 287.916 193.252 289.448 191.903 290.765C191.18 291.471 190.443 292.225 190.117 293.186C189.791 294.146 190.032 295.365 190.907 295.865C191.289 296.057 191.705 296.172 192.131 296.204C193.559 296.483 195.022 296.524 196.463 296.325C197.888 296.053 199.285 295.244 199.902 293.931C200.021 293.575 200.217 293.25 200.478 292.98C201.264 292.359 202.47 293.087 203.363 292.645C204.1 292.279 204.131 291.703 204.14 290.944C204.167 288.845 203.854 286.469 202.523 284.772Z" fill="#12AAFF"/>
<path d="M213.241 284.691C213.791 286.138 213.867 287.714 213.938 289.26C213.978 290.153 214.005 291.108 213.523 291.863C213.04 292.618 212.098 293.015 211.196 293.203C209.334 293.587 207.177 293.225 205.975 291.747C205.055 290.617 204.863 289.068 205.033 287.603C205.176 286.401 205.48 284.995 204.618 284.142C204.394 283.914 204.104 283.753 203.899 283.508C203.452 282.963 203.524 282.141 203.765 281.471C204.079 280.83 204.314 280.154 204.466 279.457C204.502 279.127 210.513 279.689 211.066 279.962C211.821 280.332 211.705 280.953 211.933 281.703C212.25 282.748 212.857 283.691 213.241 284.691Z" fill="#12AAFF"/>
<path d="M214.344 220.534C215.523 221.298 215.979 222.798 216.162 224.192C216.667 228.01 215.782 231.869 215.715 235.723C215.653 241.122 217.216 246.619 215.881 251.849C215.081 254.975 215.76 258.548 215.01 261.705C214.786 262.643 214.376 263.527 214.161 264.465C213.715 266.497 214.184 268.623 214.813 270.61C215.014 271.146 215.142 271.706 215.193 272.276C215.163 273.153 214.94 274.013 214.541 274.795L211.861 281.132C211.562 281.842 210.383 281.958 209.628 282.052C208.208 282.221 206.623 282.342 205.493 281.462C204.363 280.582 204.091 279.109 203.917 277.733C203.582 275.093 203.433 272.432 203.47 269.771C203.519 269.076 203.457 268.378 203.287 267.703C203.041 266.939 202.501 266.278 202.353 265.47C202.166 264.425 202.697 263.398 202.894 262.344C203.029 261.381 203.014 260.403 202.849 259.445C202.675 258.016 202.474 256.587 202.246 255.167C201.925 253.18 202.385 251.219 202.693 249.228C202.983 247.356 202.613 245.449 202.246 243.592C202.278 245.099 202.09 246.604 201.688 248.057C201.451 248.768 201.112 249.446 200.907 250.17C199.991 253.417 201.943 256.824 201.666 260.187C201.536 261.759 200.92 263.313 201.094 264.863C201.215 265.997 201.742 267.037 202.103 268.118C202.465 269.199 202.653 270.436 202.103 271.445C200.652 274.187 201.737 277.916 203.037 280.73C203.301 281.229 203.53 281.745 203.725 282.275C204.109 283.543 203.787 284.905 203.89 286.227C203.516 286.289 203.133 286.264 202.77 286.155C202.407 286.045 202.074 285.855 201.795 285.598C201.599 285.392 201.438 285.151 201.246 284.937C200.709 284.425 200.074 284.029 199.379 283.771C198.971 283.543 198.506 283.436 198.039 283.463C197.549 283.6 197.107 283.874 196.767 284.253C196.325 284.642 195.856 284.998 195.364 285.321C195.155 285.482 194.91 285.59 194.65 285.638C194.519 285.658 194.385 285.637 194.267 285.576C194.15 285.516 194.054 285.421 193.993 285.303C193.965 285.228 193.949 285.15 193.944 285.071C193.778 283.722 193.69 282.365 193.681 281.007C193.681 278.671 190.885 277.063 190.532 274.754C190.251 272.892 190.773 270.994 190.599 269.119C190.514 268.154 190.247 267.207 190.264 266.243C190.264 265.617 190.407 265.005 190.456 264.385C190.497 263.696 190.487 263.005 190.425 262.317L190.287 260.16C190.153 258.03 190.005 255.855 189.166 253.908C188.17 251.634 187.581 249.204 187.424 246.727C187.335 245.164 187.393 243.601 187.214 242.033C187.053 240.617 186.696 239.211 186.799 237.79C186.884 236.692 187.245 235.629 187.33 234.53C187.504 232.418 186.701 230.364 186.071 228.341C185.441 226.318 184.977 224.076 185.803 222.124C185.921 221.804 186.118 221.518 186.375 221.293C186.691 221.084 187.052 220.949 187.429 220.9C195.091 219.291 202.945 218.79 210.749 219.413C212.022 219.485 213.257 219.871 214.344 220.534Z" fill="#3F3D56"/>
<path d="M188.991 173.103C192.942 173.103 196.146 169.9 196.146 165.948C196.146 161.997 192.942 158.794 188.991 158.794C185.04 158.794 181.837 161.997 181.837 165.948C181.837 169.9 185.04 173.103 188.991 173.103Z" fill="#BE6F72"/>
<path d="M187.607 174.884C187.71 175.293 187.71 175.721 187.607 176.13C187.495 176.416 187.336 176.682 187.138 176.916C186.446 177.81 185.679 178.643 184.847 179.408C185.271 180.355 186.034 181.109 186.986 181.521C187.932 181.923 188.923 182.207 189.938 182.365C190.445 182.498 190.972 182.534 191.492 182.472C191.972 182.352 192.426 182.146 192.832 181.865L196.807 179.484C197.407 179.159 197.962 178.759 198.459 178.292C199.188 177.543 199.601 176.542 199.611 175.496C199.63 175.309 199.579 175.122 199.468 174.969C199.316 174.837 199.125 174.757 198.924 174.742C197.526 174.433 196.423 173.299 195.797 172.013C195.232 170.694 194.867 169.299 194.712 167.873L190.474 170.106C189.844 170.441 189.219 170.776 188.567 171.066C188.152 171.254 187.312 171.41 187.018 171.79C186.455 172.491 187.46 174.04 187.607 174.884Z" fill="#BE6F72"/>
<path d="M184.874 178.108C184.271 178.603 183.8 179.24 183.503 179.962C183.226 180.855 183.503 181.797 183.753 182.681C184.925 186.45 185.821 190.3 186.433 194.199C186.808 196.879 186.946 199.598 187.129 202.309C187.504 207.838 188.049 216.653 188.777 222.146C191.457 222.267 194.069 221.486 196.727 221.2C201.693 220.673 206.806 221.879 211.669 220.753C210.49 216.095 209.311 208.141 208.132 203.488C207.611 201.655 207.249 199.779 207.052 197.883C206.949 196.521 207.011 195.155 207.029 193.784C207.07 191.104 206.922 188.425 206.775 185.745C206.605 182.619 206.435 179.493 205.694 176.434C205.642 176.044 205.46 175.683 205.176 175.411C204.729 175.085 204.149 175.201 203.617 175.273C201.99 175.479 200.343 175.089 198.982 174.174C198.392 173.772 197.602 173.281 197.053 173.727C196.818 173.997 196.663 174.326 196.606 174.679C196.363 175.31 195.988 175.883 195.506 176.358C195.024 176.833 194.446 177.2 193.81 177.434C192.538 177.895 191.205 178.169 189.854 178.247C189.44 178.336 189.009 178.287 188.625 178.108C187.991 177.72 187.947 176.322 187.147 176.228C186.446 176.148 185.347 177.657 184.874 178.108Z" fill="#3F3D56"/>
<path d="M195.44 189.014C193.792 187.438 193.069 185.151 191.868 183.209C191.05 181.902 190.004 180.753 188.782 179.815C188.167 179.409 187.603 178.93 187.103 178.39C186.678 177.868 186.357 177.171 185.714 176.97C185.448 176.912 185.172 176.92 184.91 176.992C184.648 177.064 184.407 177.199 184.209 177.385C183.815 177.76 183.442 178.157 183.092 178.573C181.199 180.534 177.872 180.806 176.371 183.075C175.966 183.556 175.691 184.132 175.572 184.749C175.14 188.051 175.993 191.393 177.956 194.083C178.336 194.707 178.92 195.18 179.609 195.423C179.515 196.256 179.626 197.099 179.93 197.879C180.757 200.706 181.773 203.473 182.972 206.163C182.685 207.216 182.485 208.29 182.373 209.374C182.061 212.103 182.351 214.872 182.056 217.605C181.815 219.838 181.163 222.013 181.141 224.25C181.141 224.607 181.172 225.032 181.48 225.215C181.644 225.299 181.827 225.338 182.011 225.326L187.504 225.492C190.693 225.585 193.913 225.679 197.052 225.09C197.471 225.028 197.876 224.9 198.254 224.71C199.317 224.116 199.67 222.776 199.839 221.584C200.061 220.037 200.149 218.474 200.103 216.913C200.768 219.016 201.559 221.191 203.568 222.102C204.631 222.584 205.846 222.549 207.011 222.517C209.524 222.406 212.027 222.148 214.51 221.745C214.663 221.764 214.818 221.747 214.963 221.695C215.108 221.643 215.239 221.558 215.346 221.446C215.452 221.335 215.531 221.2 215.576 221.052C215.62 220.905 215.63 220.749 215.604 220.597L215.631 218.159C215.684 213.206 214.456 208.472 213.978 203.542C213.826 201.988 213.84 200.416 213.46 198.893C213.304 198.254 213.076 197.629 212.938 196.986C212.818 196.356 212.744 195.719 212.714 195.079L212.366 190.167C212.201 187.893 211.964 185.701 211.79 183.432C211.694 181.223 211.374 179.029 210.834 176.885C210.446 175.545 209.637 174.027 208.24 173.862C207.494 173.777 206.77 174.103 206.06 174.331C204.315 174.88 202.442 174.872 200.701 174.308C200.163 174.096 199.603 173.946 199.031 173.862C198.743 173.822 198.45 173.861 198.181 173.972C197.913 174.083 197.679 174.264 197.504 174.496C197.33 174.845 197.249 175.232 197.267 175.621C197.057 180.083 196.668 184.678 195.44 189.014Z" fill="#12AAFF"/>
<path d="M188.255 189.149C186.196 186.978 184.083 184.768 181.431 183.388C180.386 182.843 179.198 182.432 178.041 182.637C176.884 182.843 175.808 183.848 175.862 185.022C175.898 185.75 176.34 186.393 176.478 187.108C176.639 187.912 176.407 188.769 176.657 189.546C176.86 190.058 177.164 190.524 177.55 190.917L180.712 194.664C182.051 196.227 183.391 197.812 185.115 198.893C186.839 199.974 189.072 200.479 190.965 199.71C192.313 199.084 193.433 198.056 194.172 196.767C194.958 195.517 195.512 194.15 196.249 192.86C197.395 190.798 198.909 188.962 200.714 187.443C199.785 187.201 198.62 186.862 198.035 186.103C197.868 185.862 197.726 185.604 197.611 185.335L196.887 183.772C196.641 183.759 196.395 183.797 196.164 183.884C195.934 183.971 195.724 184.104 195.547 184.276C195.237 184.635 194.905 184.974 194.551 185.29C193.922 185.763 193.069 185.893 192.497 186.433C192.276 186.665 192.076 186.916 191.899 187.184C191.466 187.752 190.918 188.221 190.289 188.56C189.661 188.899 188.967 189.1 188.255 189.149Z" fill="#3F3D56"/>
<path d="M200.88 179.81C202.429 176.983 202.358 173.594 202.8 170.401C202.848 169.555 203.145 168.742 203.653 168.065C204.546 167.056 206.123 167.042 207.471 167.172C207.869 167.216 208.365 167.404 208.342 167.801C208.311 167.944 208.241 168.075 208.141 168.181C206.834 169.868 206.065 171.91 205.935 174.04C206.636 174.527 207.721 173.527 208.396 174.04C208.842 174.415 208.637 175.157 208.369 175.693C207.747 176.934 207.105 178.167 206.444 179.39C205.917 180.469 205.229 181.461 204.403 182.333C203.836 182.878 203.171 183.307 202.595 183.843C201.255 185.098 200.447 186.871 199.062 188.094C198.945 188.221 198.787 188.302 198.616 188.322C198.439 188.31 198.273 188.235 198.147 188.112C197.455 187.55 196.881 186.856 196.459 186.071C195.932 185.098 196.012 184.812 196.843 184.124C198.397 182.896 199.911 181.579 200.88 179.81Z" fill="#BE6F72"/>
<path d="M185.664 187.228C185.932 187.393 186.263 187.581 186.557 187.442C186.678 187.369 186.78 187.27 186.857 187.152C187.367 186.47 187.793 185.73 188.125 184.946C188.182 184.835 188.214 184.713 188.219 184.588C188.219 184.303 187.964 184.093 187.727 183.927C186.459 183.119 185.096 182.471 183.668 181.998C182.489 181.552 181.256 181.163 180.006 181.275C179.536 181.306 179.077 181.433 178.658 181.646C178.238 181.859 177.866 182.155 177.563 182.516C176.67 183.664 178.166 184.012 179.104 184.428C181.274 185.415 183.623 185.986 185.664 187.228Z" fill="#12AAFF"/>
<path opacity="0.1" d="M184.258 194.82C184.242 194.922 184.252 195.026 184.284 195.124C184.317 195.221 184.372 195.31 184.445 195.383C184.575 194.748 184.405 194.079 184.539 193.44C184.735 192.48 185.669 191.756 185.749 190.792C184.039 190.457 184.271 193.784 184.258 194.82Z" fill="black"/>
<path opacity="0.2" d="M263 159.896V164.295L244.842 165.398L244.292 160.995L263 159.896Z" fill="black"/>
<path d="M182.552 167.011C183.686 166.087 183.03 164.148 183.798 162.907C184.244 162.228 184.999 161.871 185.74 161.567C186.635 161.148 187.594 160.883 188.576 160.781C189.068 160.734 189.565 160.798 190.029 160.969C190.492 161.14 190.912 161.413 191.256 161.768C191.546 162.099 191.742 162.5 192.015 162.844C192.352 163.246 192.792 163.548 193.287 163.719C193.783 163.891 194.315 163.925 194.828 163.818C195.422 163.684 196.039 163.233 195.998 162.626C195.931 162.256 195.743 161.92 195.463 161.67L194.185 160.254C192.734 158.646 191.122 156.94 188.991 156.539C187.509 156.257 185.99 156.655 184.561 157.132C183.985 157.324 183.338 157.61 183.177 158.195C183.07 158.597 183.231 159.035 183.137 159.441C182.954 160.25 181.918 160.522 181.435 161.201C180.953 161.88 181.1 162.684 180.962 163.434C180.823 164.184 180.421 164.916 180.372 165.694C180.341 166.162 180.578 167.033 181.105 167.203C181.632 167.373 182.226 166.453 182.552 167.011Z" fill="#3F3D56"/>
<path d="M195.565 161.982C195.189 160.017 194.377 158.162 193.19 156.552C192.134 155.047 190.665 153.881 188.96 153.193C188.108 152.86 187.192 152.725 186.28 152.797C185.368 152.869 184.484 153.146 183.695 153.609C182.523 154.445 181.612 155.595 181.065 156.927C179.908 159.419 179.479 162.464 180.824 164.858C181.359 164.206 182.279 164.501 183.092 164.264C184.11 163.974 184.972 163.295 185.941 162.871C188.867 161.58 192.439 162.625 195.565 161.982Z" fill="#FED253"/>
<path opacity="0.1" d="M181.507 161.844C181.404 161.04 181.337 160.106 181.909 159.535C181.937 159.5 181.973 159.472 182.014 159.453C182.056 159.434 182.1 159.426 182.146 159.427C182.185 159.44 182.222 159.461 182.254 159.489C182.285 159.517 182.311 159.55 182.329 159.588C182.659 160.109 182.94 160.659 183.168 161.232C182.835 161.155 182.487 161.18 182.169 161.303C181.85 161.427 181.576 161.643 181.382 161.924" fill="black"/>
<path opacity="0.1" d="M191.943 159.575L191.783 157.981C191.757 157.85 191.767 157.714 191.814 157.588C191.881 157.483 191.985 157.406 192.105 157.373C192.226 157.34 192.354 157.353 192.466 157.409C192.686 157.531 192.867 157.712 192.988 157.932C193.36 158.503 193.669 159.112 193.908 159.75C193.189 159.611 192.449 159.62 191.733 159.776" fill="black"/>
<path opacity="0.1" d="M195.941 224.281V227.925L192.864 228.131H176.679V224.281H195.941Z" fill="black"/>
<path d="M195.941 224.281V228.131H176.679L125.509 164.032V161.004H136.236L195.941 224.281Z" fill="#F1C0C0"/>
<path opacity="0.1" d="M195.941 224.281V228.131H176.679L125.509 164.032V161.004H136.236L195.941 224.281Z" fill="black"/>
<path opacity="0.1" d="M195.941 224.281V228.131H176.679L125.509 164.032V161.004L176.956 224.281H195.941Z" fill="black"/>
<path d="M132.217 288.527C132.25 288.709 132.246 288.895 132.205 289.074C132.163 289.254 132.085 289.423 131.975 289.571C131.866 289.719 131.726 289.842 131.567 289.934C131.407 290.026 131.23 290.084 131.047 290.104C129.805 290.524 128.488 290.939 127.608 291.89C126.728 292.841 126.554 294.605 127.608 295.378C128.147 295.703 128.765 295.871 129.394 295.865C131.417 296.003 133.525 295.976 135.361 295.119C136.674 294.512 137.911 293.476 139.353 293.569C140.099 293.614 140.894 293.962 141.559 293.623C142.225 293.284 142.412 292.337 142.417 291.546C142.434 289.896 142.185 288.254 141.68 286.683C141.613 286.469 138.773 286.303 138.433 286.236L134.99 285.79C134.338 285.705 132.931 285.214 132.418 285.759C131.904 286.303 132.217 287.88 132.217 288.527Z" fill="#12AAFF"/>
<path d="M152.764 277.38C152.91 278.185 153.147 278.97 153.47 279.72C153.948 280.935 154.56 282.226 155.73 282.815C156.793 283.347 158.097 283.155 159.177 282.65C159.628 282.463 160.024 282.163 160.325 281.779C160.674 281.172 160.83 280.472 160.772 279.774C160.772 278.046 160.669 276.259 159.879 274.723C159.2 273.383 158.016 272.231 157.998 270.749L153.93 271.535C153.712 271.555 153.505 271.638 153.332 271.771C153.203 271.907 153.113 272.075 153.073 272.258C152.638 273.929 152.534 275.669 152.764 277.38Z" fill="#12AAFF"/>
<path d="M104.18 234.955C104.011 236.393 104.082 237.933 104.832 239.175C105.583 240.416 107.163 241.238 108.53 240.742C108.6 240.725 108.666 240.693 108.723 240.649C108.781 240.605 108.829 240.551 108.865 240.488C108.901 240.337 108.881 240.178 108.807 240.041C108.204 238.431 108.253 236.649 108.945 235.075C109.035 234.87 109.227 234.629 109.437 234.709C109.524 234.753 109.595 234.826 109.638 234.914C109.854 235.288 109.962 235.715 109.95 236.147C109.887 236.538 109.875 236.936 109.914 237.33C109.999 237.715 110.41 238.076 110.767 237.911C110.871 237.848 110.96 237.764 111.03 237.665C111.1 237.566 111.149 237.454 111.174 237.335C112.17 234.454 111.719 231.306 111.263 228.292C111.267 228.222 111.255 228.153 111.23 228.089C111.204 228.024 111.164 227.967 111.113 227.919C111.063 227.872 111.002 227.837 110.936 227.815C110.87 227.794 110.8 227.787 110.732 227.796C108.624 227.586 107.472 227.081 106.266 229.042C105.23 230.694 104.18 232.967 104.18 234.955Z" fill="#12AAFF"/>
<path d="M128.823 227.626C128.198 230.225 127.568 232.856 127.528 235.526C127.539 237.19 127.664 238.851 127.903 240.497L128.372 244.364C128.533 245.668 128.689 246.968 128.917 248.259C129.062 248.923 129.141 249.601 129.153 250.282C129.11 250.952 129.003 251.618 128.836 252.269C128.556 253.636 128.399 255.026 128.367 256.422C128.318 258.655 128.595 260.888 128.769 263.121C129.117 267.571 129.065 272.043 128.613 276.483C128.433 277.681 128.693 278.905 129.345 279.926C129.61 280.248 129.828 280.606 129.993 280.989C130.328 282.012 129.546 283.034 129.345 284.084C129.217 284.902 129.418 285.738 129.906 286.408C130.393 287.078 131.126 287.527 131.945 287.656C135.517 288.081 139.188 287.889 142.408 289.523C142.748 288.532 142.006 287.406 142.346 286.397C142.56 285.772 143.149 285.366 143.551 284.839C144.091 284.036 144.361 283.081 144.32 282.114C144.335 280.852 144.111 279.599 143.659 278.421C143.279 277.439 142.734 276.469 142.765 275.416C142.765 274.897 142.949 274.353 142.739 273.875C142.595 273.6 142.399 273.356 142.163 273.156C140.828 271.694 140.008 269.835 139.827 267.864C139.653 265.907 139.716 263.937 140.014 261.996C140.233 260.147 140.528 258.195 141.703 256.753C141.158 252.379 141.478 247.94 142.645 243.69C142.761 243.297 142.944 242.841 143.346 242.748C143.506 242.731 143.667 242.754 143.816 242.813C143.965 242.872 144.098 242.966 144.203 243.087C144.905 243.744 145.24 244.695 145.543 245.606C145.878 246.593 146.218 247.647 145.963 248.656C145.856 249.103 145.641 249.496 145.516 249.924C145.245 250.786 145.292 251.716 145.65 252.546C145.825 252.849 145.934 253.185 145.972 253.533C145.931 253.831 145.84 254.121 145.704 254.39C145.538 254.919 145.486 255.476 145.55 256.026C145.613 256.576 145.792 257.107 146.075 257.583C146.644 258.532 147.346 259.393 148.16 260.142C147.771 261.856 147.872 263.645 148.45 265.305C148.492 265.38 148.519 265.462 148.529 265.547C148.539 265.632 148.532 265.718 148.509 265.8C148.428 265.97 148.223 266.033 148.062 266.153C147.615 266.519 147.892 267.212 148.191 267.69C149.012 269.001 149.917 270.257 150.902 271.45C151.795 272.517 151.715 274.576 153.046 274.96C153.605 275.081 154.184 275.081 154.743 274.96C156.056 274.759 157.521 274.379 158.164 273.218C158.427 272.74 158.534 272.16 158.945 271.803C159.356 271.445 159.888 271.383 160.115 270.954C160.343 270.525 160.089 269.963 160.164 269.467C160.24 268.971 160.674 268.574 160.812 268.051C161.142 266.846 159.736 265.854 159.544 264.621C159.267 262.835 161.518 261.495 161.424 259.709C161.227 255.828 161.102 251.929 160.901 248.049C160.649 244.572 160.613 241.084 160.794 237.603C160.95 235.437 161.241 233.168 160.446 231.154C159.303 228.314 156.15 226.72 153.099 226.416C150.049 226.112 147.008 226.836 143.985 227.309C138.967 228.082 133.869 228.189 128.823 227.626Z" fill="#3F3D56"/>
<path d="M137.889 184.941C141.84 184.941 145.043 181.738 145.043 177.787C145.043 173.836 141.84 170.633 137.889 170.633C133.937 170.633 130.734 173.836 130.734 177.787C130.734 181.738 133.937 184.941 137.889 184.941Z" fill="#FBBEBE"/>
<path d="M134.977 186.277C134.734 186.843 134.325 187.322 133.804 187.651C133.284 187.98 132.676 188.144 132.06 188.121C131.801 189.193 132.422 190.274 133.132 191.118C134.607 192.834 136.512 194.125 138.652 194.859C140.792 195.593 143.089 195.743 145.306 195.294C146.169 195.139 146.988 194.798 147.704 194.293C148.671 193.486 149.32 192.363 149.535 191.122C149.741 189.891 149.799 188.639 149.71 187.393C149.735 187.148 149.664 186.901 149.513 186.706C149.335 186.567 149.114 186.495 148.888 186.5C147.378 186.366 145.802 186.308 144.476 185.567C143.149 184.826 142.207 183.151 142.846 181.775C142.743 181.99 140.135 182.092 139.791 182.137C138.715 182.289 137.638 182.459 136.567 182.655C136.052 182.683 135.543 182.78 135.053 182.941C134.405 183.276 134.646 183.111 134.798 183.718C135.026 184.647 135.361 185.312 134.977 186.277Z" fill="#FBBEBE"/>
<path d="M140.42 190.627C139.457 190.638 138.496 190.531 137.558 190.31C136.611 190.088 135.776 189.531 135.209 188.742C134.878 188.242 134.664 187.612 134.137 187.331C133.275 186.884 132.293 187.639 131.605 188.331C130.979 189.014 130.253 189.598 129.452 190.064C128.497 190.569 127.38 190.747 126.478 191.341C125.773 191.874 125.168 192.527 124.692 193.27L118.363 201.89C115.822 205.355 113.612 209.075 111.348 212.733C109.387 215.899 108.36 219.543 106.882 222.96C106.765 223.169 106.716 223.409 106.743 223.647C106.797 223.88 107.078 224.067 107.275 223.933C106.609 224.594 107.194 225.72 107.038 226.648C106.86 227.298 106.49 227.879 105.975 228.314C106.958 228.186 107.956 228.233 108.923 228.453C109.922 228.736 110.864 229.189 111.709 229.792C112.25 229.708 112.201 228.747 112.602 228.39C112.844 228.18 113.201 228.207 113.518 228.144C114.71 227.912 115.184 226.479 116.099 225.67C116.863 224.996 117.944 224.777 118.752 224.143C120.065 223.111 120.346 221.276 121.034 219.753C121.619 218.462 122.539 217.337 123.053 216.015C123.388 215.158 123.548 214.229 124.026 213.438C124.79 212.161 126.228 211.482 127.599 210.87C128.465 210.482 129.385 210.08 130.319 210.143C130.269 212.219 130.006 214.265 130.457 216.292C130.613 217.007 130.832 217.703 131.02 218.413C131.873 221.611 132.074 224.942 132.114 228.238C134.166 227.769 136.261 227.517 138.366 227.488C140.023 227.439 141.675 227.653 143.332 227.622C145.297 227.586 147.24 227.207 149.205 227.073C151.17 226.939 153.224 227.073 154.961 227.966C154.82 225.136 154.899 222.299 155.198 219.481L155.671 215.042C155.778 213.752 155.977 212.471 156.265 211.21C156.524 210.192 156.9 209.209 157.185 208.195C158.19 204.623 158.007 200.809 157.815 197.089C157.717 195.177 156.98 193.297 156.114 191.596C155.8 190.964 155.442 190.355 155.042 189.774C153.995 188.331 152.6 187.177 150.986 186.42C149.373 185.662 147.594 185.326 145.815 185.442C145.588 185.449 145.364 185.497 145.154 185.585C144.777 185.826 144.483 186.177 144.31 186.589C143.386 188.25 142.046 189.642 140.42 190.627Z" fill="#3F3D56"/>
<path d="M131.596 180.158C131.797 179.712 132.338 179.546 132.668 179.189C133.302 178.51 133.016 177.425 133.115 176.51C133.275 175.17 134.387 174.049 135.66 173.571C136.958 173.155 138.339 173.067 139.679 173.317C140.325 173.364 140.948 173.571 141.493 173.919C141.725 174.089 141.939 174.308 142.158 174.464C142.557 174.705 143.034 174.781 143.488 174.675C143.942 174.569 144.337 174.29 144.587 173.897C143.007 171.995 141.256 169.985 138.853 169.4C138.029 169.232 137.189 169.152 136.348 169.163C135.236 169.141 134.088 169.123 133.061 169.547C131.663 170.123 130.681 171.45 130.176 172.879C129.735 174.327 129.499 175.831 129.475 177.345C129.383 178.355 129.383 179.371 129.475 180.382C129.648 181.761 130.16 183.076 130.967 184.209C131.076 184.385 131.23 184.528 131.413 184.624C133.45 185.517 131.431 180.529 131.596 180.158Z" fill="#3F3D56"/>
<path d="M144.355 172.794C144.109 170.691 142.609 168.953 141.015 167.556C139.73 166.344 138.199 165.422 136.526 164.854C134.843 164.358 132.905 164.465 131.462 165.47C130.301 166.278 129.564 167.564 128.997 168.86C128.252 170.388 127.883 172.072 127.921 173.772C128.032 175.46 128.854 177.171 130.319 178.024C130.846 177.247 131.761 176.845 132.641 176.528C136.476 175.073 140.386 173.826 144.355 172.794Z" fill="#FED253"/>
<path opacity="0.1" d="M130.81 171.919C130.953 171.919 131.047 172.066 131.118 172.187C131.482 172.753 131.794 173.351 132.051 173.973C131.529 174.085 130.631 174.21 130.372 173.75C130.234 173.517 130.399 171.896 130.81 171.919Z" fill="black"/>
<path opacity="0.1" d="M140.988 170.909C140.88 171.012 140.755 170.802 140.755 170.65V168.918C140.752 168.869 140.763 168.821 140.787 168.779C140.805 168.758 140.828 168.741 140.853 168.728C140.878 168.716 140.906 168.709 140.934 168.708C141.296 168.667 141.595 168.976 141.827 169.27C142.18 169.748 142.486 170.258 142.743 170.793L140.854 170.735" fill="black"/>
<path d="M164.563 199.603C164.974 199.213 165.413 198.853 165.876 198.527C167.113 197.701 168.609 197.375 169.998 196.848C171.387 196.321 172.798 195.468 173.339 194.083C173.609 193.218 173.697 192.305 173.598 191.404C173.611 191.026 173.544 190.65 173.401 190.301C173.231 189.992 172.989 189.728 172.696 189.533C170.811 188.139 168.283 188.028 165.943 188.171C160.784 188.49 155.727 189.753 151.023 191.895C150.774 191.977 150.556 192.133 150.397 192.342C150.306 192.535 150.264 192.749 150.277 192.962C150.194 194.279 150.365 195.6 150.781 196.852C151.398 198.442 152.666 199.724 153.197 201.345C153.439 202.073 153.519 202.845 153.729 203.578C153.901 204.334 154.348 205 154.984 205.445C156.748 206.498 158.414 205.083 159.637 203.984L164.563 199.603Z" fill="#3F3D56"/>
<path d="M141.461 205.788L139.197 200.849C138.865 200.164 138.579 199.459 138.34 198.737C138.081 197.875 137.956 196.982 137.714 196.115C136.92 193.23 134.914 190.828 133.936 188.001C133.874 187.745 133.748 187.51 133.57 187.317C133.427 187.216 133.264 187.148 133.092 187.117C132.92 187.086 132.743 187.094 132.574 187.139C131.208 187.375 130.14 188.416 128.89 189.005C128.309 189.273 127.684 189.452 127.104 189.76C126.813 189.898 126.556 190.096 126.35 190.342C126.143 190.588 125.992 190.875 125.907 191.185C125.768 191.868 126.108 192.525 126.393 193.19C127.608 195.932 127.885 198.996 127.939 201.997C127.979 204.015 127.876 206.181 126.684 207.802C124.393 210.928 125.858 215.519 126.715 219.302C126.818 219.749 126.938 220.231 127.01 220.704C127.085 221.297 127.12 221.893 127.112 222.491C127.112 224.496 127.001 226.563 126.161 228.381C126.99 228.822 127.904 229.081 128.841 229.14C131.434 229.471 134.038 229.703 136.652 229.837C137.471 229.914 138.296 229.872 139.103 229.712C140.062 229.453 140.906 228.882 141.504 228.09C142.102 227.297 142.418 226.328 142.404 225.335C142.547 226.572 142.81 227.917 143.708 228.774C144.605 229.632 145.914 229.761 147.133 229.828C150.574 230.011 154.024 229.913 157.449 229.538C157.668 229.528 157.883 229.478 158.083 229.39C158.744 229.06 158.78 228.149 158.726 227.416C158.628 226.045 158.525 224.674 158.36 223.312C158.22 222.444 158.148 221.566 158.146 220.686C158.214 219.782 158.363 218.885 158.592 218.007C159.191 215.22 159.664 212.375 159.463 209.522C159.384 208.827 159.356 208.126 159.378 207.427C159.495 205.851 160.325 204.35 160.169 202.783C159.722 198.174 159.361 193.445 158.074 188.996C157.842 188.202 157.547 187.349 156.855 186.893C155.962 186.295 154.707 186.607 153.684 186.228C153.205 186.004 152.748 185.734 152.322 185.419C151.397 184.841 150.336 184.514 149.245 184.473C148.424 184.441 147.508 184.624 147.012 185.285C146.783 185.657 146.631 186.072 146.566 186.505C145.918 189.229 145.159 191.922 144.4 194.615L143.672 197.196L141.72 204.127C141.528 204.864 141.658 205.092 141.461 205.788Z" fill="#12AAFF"/>
<path d="M152.88 178.747L196.079 224.143V227.992H176.817L144.355 185.625" fill="#F1C0C0"/>
<path opacity="0.1" d="M152.88 178.747L196.079 224.143V227.992H176.817L144.355 185.625" fill="black"/>
<path opacity="0.1" d="M145.043 185.026L145.181 185.075L177.094 224.143H196.079V227.992H176.817L144.355 185.624L145.043 185.026Z" fill="black"/>
<path d="M150.013 185.982C148.45 186.665 146.713 187.54 146.244 189.184C146.152 189.472 146.132 189.779 146.186 190.077C146.3 190.427 146.518 190.735 146.811 190.959C147.103 191.183 147.457 191.313 147.825 191.332C148.561 191.349 149.292 191.216 149.973 190.939L159.195 187.893C159.445 187.813 159.731 187.692 159.794 187.446C159.81 187.292 159.779 187.136 159.704 187C159.419 186.303 159.137 184.878 158.539 184.392C158.048 183.999 157.074 184.137 156.48 184.146C154.194 184.164 152.045 185.088 150.013 185.982Z" fill="#12AAFF"/>
<path d="M158.235 188.255C159.789 188.25 161.333 188.49 162.813 188.965C164.298 189.447 165.614 190.346 166.604 191.555C166.892 191.893 167.097 192.294 167.203 192.725C167.292 193.172 168.748 193.44 168.426 193.744C169.404 193.587 169.172 194.047 170.163 194.038C171.155 194.029 172.227 193.775 172.821 192.984C173.233 192.335 173.417 191.566 173.343 190.8C173.356 190.27 173.256 189.743 173.048 189.255C172.602 188.317 171.575 187.813 170.628 187.38L162.652 183.731C162.189 183.485 161.692 183.309 161.178 183.208C160.745 183.168 160.309 183.178 159.879 183.24L156.266 183.655C157.056 184.166 157.699 184.875 158.132 185.71C158.565 186.546 158.773 187.48 158.735 188.42" fill="#3F3D56"/>
</g>
<defs>
<clipPath id="clip0_1256_23212">
<rect width="526" height="323.539" fill="white"/>
</clipPath>
</defs>
</svg>
