<svg width="187" height="212" viewBox="0 0 187 212" fill="none" xmlns="http://www.w3.org/2000/svg">
<mask id="mask0_3025_81624" style="mask-type:luminance" maskUnits="userSpaceOnUse" x="0" y="0" width="187" height="212">
<path d="M186.97 0H0V211.276H186.97V0Z" fill="white"/>
</mask>
<g mask="url(#mask0_3025_81624)">
<path d="M4.67432 63.9737V148.609C4.67432 154.016 7.57548 159.001 12.2659 161.704L85.8936 204.007C90.587 206.71 96.3864 206.71 101.077 204.007L174.704 161.704C179.398 159.001 182.296 154.016 182.296 148.609V63.9737C182.296 58.5665 179.395 53.5819 174.704 50.8783L101.053 8.57265C96.3593 5.86901 90.5604 5.86901 85.8698 8.57265L12.2692 50.875C7.55188 53.5786 4.67768 58.5899 4.67768 63.9704L4.67432 63.9737Z" fill="#213147"/>
<path d="M42.857 129.755C43.1606 128.495 44.2877 127.607 45.5835 127.607H52.9018C54.7165 127.607 56.0535 129.305 55.6284 131.069L45.9647 171.173L34.4766 164.534L42.857 129.755Z" fill="white"/>
<path d="M71.599 127.607C73.4138 127.607 74.7507 129.305 74.3256 131.069L67.3878 159.86L62.3756 180.66L50.8882 174.02L54.2999 159.86L61.5543 129.755C61.8579 128.495 62.985 127.607 64.2808 127.607H71.599Z" fill="white"/>
<path d="M124.687 30.6973L136.174 37.3419L132.782 51.4192L125.303 82.4588C124.999 83.7186 123.872 84.6064 122.576 84.6064H115.258C113.443 84.6064 112.106 82.9091 112.531 81.1448L119.694 51.4192L124.687 30.6993V30.6973Z" fill="white"/>
<path fill-rule="evenodd" clip-rule="evenodd" d="M75.9693 9.31907C76.4189 9.03349 76.9405 8.88184 77.4731 8.88184H81.5106C83.3254 8.88184 84.6623 10.5792 84.2372 12.3434L61.8021 105.449C61.377 107.213 62.7139 108.911 64.5286 108.911H105.841H114.519H115.368C117.183 108.911 118.52 110.608 118.095 112.372L96.8069 200.716C96.5034 201.975 95.3763 202.863 94.0804 202.863H86.7622C84.9475 202.863 83.6106 201.166 84.0357 199.402L101.853 125.46C102.278 123.696 100.941 121.999 99.1265 121.999H57.8143H51.8841H48.2868C46.4721 121.999 45.1352 120.301 45.5603 118.537L70.8731 13.4899C71.0435 12.7828 71.4819 12.1695 72.0958 11.7795L75.9693 9.31907Z" fill="#12AAFF"/>
<path fill-rule="evenodd" clip-rule="evenodd" d="M90.1628 11.0294C90.4663 9.76961 91.5934 8.88184 92.8893 8.88184H100.207C102.022 8.88184 103.359 10.5792 102.934 12.3434L85.0041 86.7522C84.5789 88.5165 85.9159 90.2138 87.7306 90.2138H129.043H134.618H138.57C140.385 90.2138 141.722 91.9111 141.296 93.6753L116.164 197.976C115.987 198.71 115.522 199.342 114.873 199.728L110.274 202.468C109.84 202.727 109.344 202.863 108.839 202.863H105.459C103.644 202.863 102.307 201.166 102.732 199.402L125.055 106.763C125.48 104.999 124.143 103.302 122.328 103.302H81.0162H75.2552H71.4889C69.6742 103.302 68.3373 101.604 68.7624 99.8401L71.082 90.2138L90.1628 11.0294Z" fill="#12AAFF"/>
<path d="M141.112 40.1992L152.596 46.8558L151.496 51.4179L144.017 82.4575C143.713 83.7173 142.586 84.6051 141.29 84.6051H133.972C132.158 84.6051 130.821 82.9077 131.246 81.1435L138.408 51.4179L141.112 40.1992Z" fill="white"/>
<path d="M93.4588 13.1018C93.9702 13.1018 94.4582 13.2298 94.9205 13.4859L172.406 58.3108C173.303 58.8231 173.867 59.8015 173.867 60.8293V105.641V150.453C173.867 151.481 173.303 152.456 172.406 152.971L94.9205 197.797C94.4844 198.053 93.9735 198.181 93.4588 198.181C92.9442 198.181 92.459 198.053 91.9972 197.797L14.5381 152.998C13.6401 152.486 13.0764 151.507 13.0764 150.48V60.8293C13.0764 59.8015 13.6401 58.8264 14.5381 58.3108L92.0234 13.4859C92.459 13.2298 92.9704 13.1018 93.4588 13.1018ZM93.4588 0.000976562C90.6893 0.000976562 87.9465 0.720044 85.4588 2.13191L7.99988 46.9571C3.05116 49.807 0 55.0996 0 60.8293V150.453C0 156.183 3.05116 161.446 7.99988 164.326L85.485 209.151C87.9465 210.589 90.7155 211.281 93.485 211.281C96.2545 211.281 98.9973 210.562 101.485 209.151L178.97 164.326C183.919 161.476 186.97 156.183 186.97 150.453V60.8293C186.97 55.0996 183.919 49.8364 178.97 46.9571L101.459 2.13191C98.9973 0.720044 96.2283 0.000976562 93.4588 0.000976562Z" fill="#12AAFF"/>
</g>
</svg>
