<svg width="40" height="40" viewBox="0 0 40 40" fill="none" xmlns="http://www.w3.org/2000/svg">
<path d="M15.0012 21.666C13.9012 22.216 12.9845 23.0327 12.3012 24.0493C11.9178 24.6327 11.9178 25.366 12.3012 25.9493C12.9845 26.966 13.9012 27.7827 15.0012 28.3327" stroke="#12AAFF" stroke-width="1.5" stroke-linecap="round" stroke-linejoin="round"/>
<path d="M25.3486 21.666C26.4486 22.216 27.3653 23.0327 28.0486 24.0493C28.432 24.6327 28.432 25.366 28.0486 25.9493C27.3653 26.966 26.4486 27.7827 25.3486 28.3327" stroke="#12AAFF" stroke-width="1.5" stroke-linecap="round" stroke-linejoin="round"/>
<path d="M15.0016 36.6673H25.0016C33.335 36.6673 36.6683 33.334 36.6683 25.0007V15.0007C36.6683 6.66732 33.335 3.33398 25.0016 3.33398H15.0016C6.66829 3.33398 3.33496 6.66732 3.33496 15.0007V25.0007C3.33496 33.334 6.66829 36.6673 15.0016 36.6673Z" stroke="#12AAFF" stroke-width="1.5" stroke-linecap="round" stroke-linejoin="round"/>
<path d="M3.71875 13.3507L35.7521 13.334" stroke="#12AAFF" stroke-width="1.5" stroke-linecap="round" stroke-linejoin="round"/>
</svg>
