<svg width="71" height="86" viewBox="0 0 71 86" fill="none" xmlns="http://www.w3.org/2000/svg">
    <path
        d="M31.8881 88.471C31.8881 88.7078 31.6809 88.915 31.444 88.915C31.2072 88.915 30.9999 88.7078 30.9999 88.471V35.3065L15.5152 19.8249C15.4264 19.7361 15.3672 19.6176 15.3672 19.4992V2.18231C15.3672 1.94549 15.5744 1.73828 15.8113 1.73828C16.0778 1.73828 16.285 1.94549 16.285 2.18231V19.3216L31.7697 34.8033C31.8289 34.8921 31.8881 35.0105 31.8881 35.1289V88.471Z"
        fill="#12AAFF" />
    <path
        d="M35.1737 77.8435C35.0849 77.8435 34.9961 77.7547 34.9961 77.6659C34.9961 77.5771 35.0849 77.4883 35.1737 77.4883H60.9914C61.1098 77.4883 61.1691 77.5771 61.1691 77.6659C61.1691 77.7547 61.1098 77.8435 60.9914 77.8435H35.1737Z"
        fill="#12AAFF" />
    <path
        d="M35.3514 88.4696C35.3514 88.5584 35.2922 88.6472 35.1737 88.6472C35.0849 88.6472 34.9961 88.5584 34.9961 88.4696V19.4979C34.9961 19.4091 35.0849 19.3203 35.1737 19.3203C35.2922 19.3203 35.3514 19.4091 35.3514 19.4979V88.4696Z"
        fill="#12AAFF" />
    <path
        d="M31.5603 73.6998C31.6195 73.759 31.6491 73.8774 31.5899 73.9662C31.5307 74.0254 31.4123 74.055 31.3235 73.9958L22.0267 66.8322C21.9675 66.773 21.9379 66.6546 21.9971 66.5658C22.0563 66.5066 22.1748 66.477 22.2636 66.5362L31.5603 73.6998Z"
        fill="#12AAFF" />
    <path
        d="M25.1678 88.4692C25.1678 88.5581 25.079 88.6469 24.9901 88.6469C24.9013 88.6469 24.8125 88.5581 24.8125 88.4692V45.3397C24.8125 45.2213 24.9013 45.1621 24.9901 45.1621C25.079 45.1621 25.1678 45.2213 25.1678 45.3397V88.4692Z"
        fill="#12AAFF" />
    <path
        d="M38.7576 88.4696C38.7576 88.5584 38.6688 88.6472 38.58 88.6472C38.4912 88.6472 38.4023 88.5584 38.4023 88.4696V57.8912C38.4023 57.832 38.432 57.7728 38.4616 57.7432L44.1758 52.0301V1.85534C44.1758 1.73694 44.2646 1.67773 44.3534 1.67773C44.4423 1.67773 44.5311 1.73694 44.5311 1.85534V52.1189C44.5311 52.1485 44.5015 52.2077 44.4719 52.2373L38.7576 57.9504V88.4696Z"
        fill="#12AAFF" />
    <path
        d="M52.6109 88.4711C52.6109 88.7079 52.4036 88.9151 52.1668 88.9151C51.9299 88.9151 51.7227 88.7079 51.7227 88.4711V65.3522C51.7227 65.1154 51.9299 64.9082 52.1668 64.9082C52.4036 64.9082 52.6109 65.1154 52.6109 65.3522V88.4711Z"
        fill="#12AAFF" />
    <path
        d="M44.4714 41.6992C44.4122 41.788 44.2938 41.788 44.2346 41.6992C44.1458 41.64 44.1458 41.5216 44.2346 41.4624L51.1923 34.5061C51.2515 34.4173 51.37 34.4173 51.4292 34.5061C51.518 34.5653 51.518 34.6837 51.4292 34.7429L44.4714 41.6992Z"
        fill="#12AAFF" />
    <path
        d="M8.11088 88.4705C8.11088 88.7073 7.90363 88.9145 7.66677 88.9145C7.42991 88.9145 7.22266 88.7073 7.22266 88.4705V79.5012C7.22266 79.2644 7.42991 79.0572 7.66677 79.0572C7.90363 79.0572 8.11088 79.2644 8.11088 79.5012V88.4705ZM8.11088 73.7881C8.11088 74.0249 7.90363 74.2322 7.66677 74.2322C7.42991 74.2322 7.22266 74.0249 7.22266 73.7881V53.4814C7.22266 53.215 7.42991 53.0078 7.66677 53.0078C7.90363 53.0078 8.11088 53.215 8.11088 53.4814V73.7881Z"
        fill="#12AAFF" />
    <path
        d="M7.78629 62.5094C7.87511 62.5686 7.87511 62.687 7.78629 62.7758C7.72708 62.835 7.60865 62.835 7.54943 62.7758L0.739724 55.9675C0.680509 55.9083 0.680509 55.7899 0.739724 55.7307C0.828546 55.6419 0.946976 55.6419 1.00619 55.7307L7.78629 62.5094Z"
        fill="#12AAFF" />
    <path
        d="M22.5913 66.6843C22.5913 66.7134 22.5885 66.7423 22.5828 66.7709C22.5771 66.7995 22.5687 66.8272 22.5575 66.8542C22.5464 66.8811 22.5327 66.9067 22.5165 66.9309C22.5003 66.9552 22.4819 66.9776 22.4613 66.9982C22.4406 67.0188 22.4182 67.0372 22.394 67.0534C22.3697 67.0696 22.3441 67.0833 22.3172 67.0945C22.2902 67.1056 22.2625 67.1141 22.2339 67.1197C22.2053 67.1254 22.1764 67.1283 22.1472 67.1283C22.1181 67.1283 22.0892 67.1254 22.0606 67.1197C22.032 67.1141 22.0042 67.1056 21.9773 67.0945C21.9503 67.0833 21.9247 67.0696 21.9005 67.0534C21.8762 67.0372 21.8538 67.0188 21.8332 66.9982C21.8126 66.9776 21.7942 66.9552 21.778 66.9309C21.7618 66.9067 21.7481 66.8811 21.7369 66.8542C21.7258 66.8272 21.7173 66.7995 21.7117 66.7709C21.706 66.7423 21.7031 66.7134 21.7031 66.6843C21.7031 66.6551 21.706 66.6262 21.7117 66.5976C21.7173 66.569 21.7258 66.5413 21.7369 66.5143C21.7481 66.4874 21.7618 66.4618 21.778 66.4376C21.7942 66.4133 21.8126 66.3909 21.8332 66.3703C21.8538 66.3497 21.8763 66.3313 21.9005 66.3151C21.9247 66.2989 21.9503 66.2852 21.9773 66.274C22.0042 66.2629 22.032 66.2544 22.0606 66.2488C22.0892 66.2431 22.1181 66.2402 22.1472 66.2402C22.1764 66.2402 22.2053 66.2431 22.2339 66.2488C22.2625 66.2544 22.2902 66.2629 22.3172 66.274C22.3441 66.2852 22.3697 66.2989 22.394 66.3151C22.4182 66.3313 22.4406 66.3497 22.4613 66.3703C22.4819 66.3909 22.5003 66.4133 22.5165 66.4376C22.5327 66.4618 22.5464 66.4874 22.5575 66.5143C22.5687 66.5413 22.5771 66.569 22.5828 66.5976C22.5885 66.6262 22.5913 66.6551 22.5913 66.6843Z"
        fill="#12AAFF" />
    <path
        d="M1.77645 55.849C1.77644 55.9073 1.77076 55.965 1.75938 56.0222C1.748 56.0794 1.73115 56.1349 1.70883 56.1888C1.68651 56.2427 1.65915 56.2939 1.62675 56.3424C1.59435 56.3908 1.55753 56.4357 1.51629 56.4769C1.47505 56.5182 1.43018 56.555 1.38169 56.5874C1.3332 56.6198 1.28201 56.6471 1.22813 56.6694C1.17425 56.6917 1.11871 56.7086 1.0615 56.72C1.00431 56.7313 0.946544 56.737 0.888223 56.737C0.829901 56.737 0.772138 56.7313 0.714938 56.72C0.657737 56.7086 0.602195 56.6917 0.548313 56.6694C0.494431 56.6471 0.443244 56.6198 0.394751 56.5874C0.346259 56.555 0.301393 56.5182 0.260154 56.4769C0.218915 56.4357 0.182094 56.3908 0.149692 56.3424C0.11729 56.2939 0.0899299 56.2427 0.0676115 56.1888C0.0452931 56.135 0.0284443 56.0794 0.0170671 56.0222C0.00568867 55.965 0 55.9073 0 55.849C0 55.7907 0.00568867 55.7329 0.0170671 55.6757C0.0284443 55.6185 0.0452931 55.563 0.0676115 55.5091C0.0899299 55.4553 0.11729 55.4041 0.149692 55.3556C0.182094 55.3071 0.218915 55.2623 0.260154 55.221C0.301393 55.1798 0.346259 55.143 0.394751 55.1106C0.443244 55.0782 0.494431 55.0508 0.548313 55.0285C0.602195 55.0062 0.657737 54.9894 0.714938 54.978C0.772138 54.9666 0.829901 54.9609 0.888223 54.9609C0.946544 54.9609 1.00431 54.9666 1.06151 54.978C1.11871 54.9894 1.17425 55.0062 1.22813 55.0285C1.28201 55.0508 1.3332 55.0782 1.38169 55.1106C1.43018 55.143 1.47505 55.1798 1.51629 55.221C1.55753 55.2623 1.59435 55.3071 1.62675 55.3556C1.65915 55.4041 1.68651 55.4553 1.70883 55.5091C1.73115 55.563 1.748 55.6185 1.75938 55.6757C1.77076 55.7329 1.77644 55.7907 1.77645 55.849Z"
        fill="#12AAFF" />
    <path
        d="M9.41555 53.4809C9.41555 53.5381 9.41275 53.5951 9.40714 53.6521C9.40153 53.709 9.39315 53.7655 9.38198 53.8216C9.37082 53.8777 9.35694 53.9331 9.34033 53.9878C9.32373 54.0426 9.30447 54.0964 9.28258 54.1492C9.26069 54.2021 9.23625 54.2537 9.20929 54.3042C9.18232 54.3546 9.15294 54.4036 9.12115 54.4512C9.08937 54.4987 9.05533 54.5446 9.01904 54.5888C8.98274 54.633 8.94437 54.6754 8.90391 54.7158C8.86346 54.7563 8.82112 54.7946 8.7769 54.8309C8.73267 54.8672 8.68677 54.9012 8.6392 54.933C8.59163 54.9648 8.54262 54.9942 8.49217 55.0211C8.44171 55.0481 8.39005 55.0725 8.3372 55.0944C8.28434 55.1163 8.23054 55.1356 8.17579 55.1522C8.12104 55.1688 8.06561 55.1826 8.0095 55.1938C7.95339 55.205 7.89687 55.2134 7.83993 55.219C7.783 55.2246 7.72592 55.2274 7.66871 55.2274C7.6115 55.2274 7.55443 55.2246 7.49749 55.219C7.44056 55.2134 7.38403 55.205 7.32792 55.1938C7.27181 55.1826 7.21638 55.1688 7.16163 55.1522C7.10689 55.1356 7.05308 55.1163 7.00023 55.0944C6.94737 55.0725 6.89571 55.0481 6.84526 55.0211C6.7948 54.9942 6.74579 54.9648 6.69822 54.933C6.65065 54.9012 6.60475 54.8672 6.56053 54.8309C6.5163 54.7946 6.47397 54.7563 6.43351 54.7158C6.39305 54.6754 6.35468 54.633 6.31839 54.5888C6.28209 54.5446 6.24805 54.4987 6.21627 54.4512C6.18448 54.4036 6.15511 54.3546 6.12814 54.3042C6.10117 54.2537 6.07674 54.2021 6.05484 54.1492C6.03295 54.0964 6.0137 54.0426 5.99709 53.9879C5.98049 53.9331 5.9666 53.8777 5.95544 53.8216C5.94428 53.7655 5.93589 53.709 5.93029 53.6521C5.92468 53.5951 5.92188 53.5381 5.92188 53.4809C5.92188 53.4237 5.92468 53.3666 5.93029 53.3097C5.93589 53.2528 5.94428 53.1962 5.95544 53.1401C5.9666 53.084 5.98049 53.0286 5.99709 52.9739C6.0137 52.9192 6.03295 52.8654 6.05484 52.8125C6.07674 52.7597 6.10117 52.708 6.12814 52.6576C6.15511 52.6071 6.18448 52.5581 6.21627 52.5106C6.24805 52.463 6.28209 52.4171 6.31839 52.3729C6.35468 52.3287 6.39305 52.2864 6.43351 52.2459C6.47397 52.2055 6.5163 52.1671 6.56053 52.1308C6.60475 52.0945 6.65065 52.0605 6.69822 52.0287C6.74579 51.9969 6.7948 51.9676 6.84526 51.9406C6.89571 51.9136 6.94737 51.8892 7.00022 51.8673C7.05308 51.8454 7.10688 51.8262 7.16163 51.8096C7.21638 51.793 7.27181 51.7791 7.32792 51.7679C7.38403 51.7568 7.44056 51.7484 7.49749 51.7428C7.55443 51.7372 7.6115 51.7344 7.66871 51.7344C7.72592 51.7344 7.783 51.7372 7.83993 51.7428C7.89687 51.7484 7.95339 51.7568 8.0095 51.7679C8.06561 51.7791 8.12104 51.793 8.17579 51.8096C8.23054 51.8262 8.28434 51.8454 8.3372 51.8673C8.39005 51.8892 8.44171 51.9136 8.49217 51.9406C8.54262 51.9676 8.59163 51.9969 8.6392 52.0287C8.68677 52.0605 8.73267 52.0945 8.7769 52.1308C8.82112 52.1671 8.86346 52.2055 8.90391 52.2459C8.94437 52.2864 8.98274 52.3287 9.01904 52.3729C9.05533 52.4171 9.08937 52.463 9.12115 52.5106C9.15294 52.5581 9.18232 52.6071 9.20929 52.6576C9.23625 52.708 9.26069 52.7597 9.28258 52.8125C9.30447 52.8654 9.32373 52.9192 9.34033 52.9739C9.35694 53.0286 9.37082 53.084 9.38198 53.1401C9.39315 53.1962 9.40153 53.2528 9.40714 53.3097C9.41275 53.3666 9.41555 53.4237 9.41555 53.4809Z"
        fill="#12AAFF" />
    <path
        d="M26.7359 45.3402C26.7359 45.3974 26.7331 45.4545 26.7275 45.5114C26.7218 45.5684 26.7135 45.6249 26.7023 45.681C26.6911 45.7371 26.6773 45.7925 26.6606 45.8472C26.644 45.902 26.6248 45.9557 26.6029 46.0086C26.581 46.0614 26.5566 46.1131 26.5296 46.1635C26.5026 46.214 26.4732 46.263 26.4415 46.3105C26.4097 46.3581 26.3756 46.404 26.3393 46.4482C26.3031 46.4924 26.2647 46.5348 26.2242 46.5752C26.1838 46.6156 26.1414 46.654 26.0972 46.6903C26.053 46.7266 26.0071 46.7606 25.9595 46.7924C25.9119 46.8242 25.8629 46.8535 25.8125 46.8805C25.762 46.9075 25.7104 46.9319 25.6575 46.9538C25.6047 46.9757 25.5509 46.9949 25.4961 47.0115C25.4414 47.0281 25.3859 47.042 25.3298 47.0532C25.2737 47.0643 25.2172 47.0727 25.1602 47.0783C25.1033 47.0839 25.0462 47.0867 24.989 47.0867C24.9318 47.0867 24.8747 47.0839 24.8178 47.0783C24.7609 47.0727 24.7043 47.0643 24.6482 47.0532C24.5921 47.042 24.5367 47.0281 24.4819 47.0115C24.4272 46.9949 24.3734 46.9757 24.3205 46.9538C24.2677 46.9319 24.216 46.9075 24.1656 46.8805C24.1151 46.8535 24.0661 46.8242 24.0185 46.7924C23.971 46.7606 23.9251 46.7266 23.8808 46.6903C23.8366 46.654 23.7943 46.6156 23.7538 46.5752C23.7134 46.5348 23.675 46.4924 23.6387 46.4482C23.6024 46.404 23.5684 46.3581 23.5366 46.3105C23.5048 46.263 23.4754 46.214 23.4484 46.1635C23.4215 46.1131 23.397 46.0614 23.3752 46.0086C23.3533 45.9558 23.334 45.902 23.3174 45.8472C23.3008 45.7925 23.2869 45.7371 23.2758 45.681C23.2646 45.6249 23.2562 45.5684 23.2506 45.5114C23.245 45.4545 23.2422 45.3974 23.2422 45.3402C23.2422 45.283 23.245 45.226 23.2506 45.1691C23.2562 45.1121 23.2646 45.0556 23.2758 44.9995C23.2869 44.9434 23.3008 44.888 23.3174 44.8333C23.334 44.7785 23.3533 44.7247 23.3752 44.6719C23.397 44.619 23.4215 44.5674 23.4484 44.5169C23.4754 44.4665 23.5048 44.4175 23.5366 44.3699C23.5684 44.3224 23.6024 44.2765 23.6387 44.2323C23.675 44.1881 23.7134 44.1457 23.7538 44.1053C23.7943 44.0648 23.8366 44.0265 23.8808 43.9902C23.9251 43.9539 23.971 43.9199 24.0185 43.8881C24.0661 43.8563 24.1151 43.8269 24.1656 43.8C24.216 43.773 24.2677 43.7486 24.3205 43.7267C24.3734 43.7048 24.4272 43.6856 24.4819 43.669C24.5367 43.6523 24.5921 43.6385 24.6482 43.6273C24.7043 43.6161 24.7609 43.6078 24.8178 43.6022C24.8747 43.5966 24.9318 43.5938 24.989 43.5938C25.0462 43.5938 25.1033 43.5966 25.1602 43.6022C25.2172 43.6078 25.2737 43.6161 25.3298 43.6273C25.3859 43.6385 25.4414 43.6523 25.4961 43.669C25.5509 43.6856 25.6047 43.7048 25.6575 43.7267C25.7104 43.7486 25.762 43.773 25.8125 43.8C25.8629 43.8269 25.9119 43.8563 25.9595 43.8881C26.0071 43.9199 26.053 43.9539 26.0972 43.9902C26.1414 44.0265 26.1838 44.0648 26.2242 44.1053C26.2647 44.1457 26.3031 44.1881 26.3393 44.2323C26.3756 44.2765 26.4097 44.3224 26.4415 44.3699C26.4732 44.4175 26.5026 44.4665 26.5296 44.5169C26.5566 44.5674 26.581 44.619 26.6029 44.6719C26.6248 44.7247 26.644 44.7785 26.6606 44.8333C26.6773 44.888 26.6911 44.9434 26.7023 44.9995C26.7135 45.0556 26.7218 45.1121 26.7275 45.1691C26.7331 45.226 26.7359 45.283 26.7359 45.3402Z"
        fill="#12AAFF" />
    <path
        d="M36.9195 19.4984C36.9195 19.5556 36.9167 19.6127 36.911 19.6696C36.9054 19.7266 36.897 19.7831 36.8859 19.8392C36.8747 19.8953 36.8608 19.9507 36.8442 20.0054C36.8276 20.0602 36.8084 20.114 36.7865 20.1668C36.7646 20.2196 36.7402 20.2713 36.7132 20.3217C36.6862 20.3722 36.6568 20.4212 36.6251 20.4687C36.5933 20.5163 36.5592 20.5622 36.5229 20.6064C36.4866 20.6506 36.4483 20.693 36.4078 20.7334C36.3674 20.7739 36.325 20.8122 36.2808 20.8485C36.2366 20.8848 36.1907 20.9188 36.1431 20.9506C36.0955 20.9824 36.0465 21.0118 35.9961 21.0387C35.9456 21.0657 35.894 21.0901 35.8411 21.112C35.7882 21.1339 35.7344 21.1531 35.6797 21.1697C35.6249 21.1863 35.5695 21.2002 35.5134 21.2114C35.4573 21.2225 35.4008 21.2309 35.3438 21.2365C35.2869 21.2421 35.2298 21.2449 35.1726 21.2449C35.1154 21.2449 35.0583 21.2421 35.0014 21.2365C34.9445 21.2309 34.8879 21.2225 34.8318 21.2114C34.7757 21.2002 34.7203 21.1863 34.6655 21.1697C34.6108 21.1531 34.557 21.1339 34.5041 21.112C34.4513 21.0901 34.3996 21.0657 34.3492 21.0387C34.2987 21.0118 34.2497 20.9824 34.2021 20.9506C34.1546 20.9188 34.1087 20.8848 34.0644 20.8485C34.0202 20.8122 33.9779 20.7739 33.9374 20.7334C33.897 20.693 33.8586 20.6506 33.8223 20.6064C33.786 20.5622 33.752 20.5163 33.7202 20.4687C33.6884 20.4212 33.659 20.3722 33.632 20.3217C33.6051 20.2713 33.5806 20.2196 33.5587 20.1668C33.5369 20.114 33.5176 20.0602 33.501 20.0054C33.4844 19.9507 33.4705 19.8953 33.4593 19.8392C33.4482 19.7831 33.4398 19.7266 33.4342 19.6696C33.4286 19.6127 33.4258 19.5556 33.4258 19.4984C33.4258 19.4412 33.4286 19.3842 33.4342 19.3273C33.4398 19.2703 33.4482 19.2138 33.4593 19.1577C33.4705 19.1016 33.4844 19.0462 33.501 18.9915C33.5176 18.9367 33.5369 18.8829 33.5587 18.8301C33.5806 18.7772 33.6051 18.7256 33.632 18.6752C33.659 18.6247 33.6884 18.5757 33.7202 18.5281C33.752 18.4806 33.786 18.4347 33.8223 18.3905C33.8586 18.3463 33.897 18.3039 33.9374 18.2635C33.9779 18.223 34.0202 18.1847 34.0644 18.1484C34.1087 18.1121 34.1546 18.0781 34.2021 18.0463C34.2497 18.0145 34.2987 17.9851 34.3492 17.9582C34.3996 17.9312 34.4513 17.9068 34.5041 17.8849C34.557 17.863 34.6108 17.8438 34.6655 17.8272C34.7203 17.8106 34.7757 17.7967 34.8318 17.7855C34.8879 17.7744 34.9445 17.766 35.0014 17.7604C35.0583 17.7548 35.1154 17.752 35.1726 17.752C35.2298 17.752 35.2869 17.7548 35.3438 17.7604C35.4008 17.766 35.4573 17.7744 35.5134 17.7855C35.5695 17.7967 35.6249 17.8106 35.6797 17.8272C35.7344 17.8438 35.7882 17.863 35.8411 17.8849C35.894 17.9068 35.9456 17.9312 35.9961 17.9582C36.0465 17.9851 36.0955 18.0145 36.1431 18.0463C36.1907 18.0781 36.2366 18.1121 36.2808 18.1484C36.325 18.1847 36.3674 18.223 36.4078 18.2635C36.4483 18.3039 36.4866 18.3463 36.5229 18.3905C36.5592 18.4347 36.5933 18.4806 36.6251 18.5281C36.6568 18.5757 36.6862 18.6247 36.7132 18.6752C36.7402 18.7256 36.7646 18.7772 36.7865 18.8301C36.8084 18.8829 36.8276 18.9367 36.8442 18.9915C36.8608 19.0462 36.8747 19.1016 36.8859 19.1577C36.897 19.2138 36.9054 19.2703 36.911 19.3273C36.9167 19.3842 36.9195 19.4412 36.9195 19.4984Z"
        fill="#12AAFF" />
    <path
        d="M45.2094 41.5811C45.2094 41.6375 45.2039 41.6933 45.1929 41.7486C45.1819 41.8039 45.1656 41.8575 45.1441 41.9096C45.1225 41.9617 45.096 42.0112 45.0647 42.058C45.0334 42.1049 44.9978 42.1483 44.9579 42.1881C44.9181 42.228 44.8747 42.2636 44.8278 42.2949C44.7809 42.3262 44.7315 42.3526 44.6794 42.3742C44.6273 42.3958 44.5736 42.4121 44.5183 42.423C44.463 42.434 44.4072 42.4395 44.3508 42.4395C44.2944 42.4395 44.2386 42.434 44.1833 42.4231C44.128 42.4121 44.0743 42.3958 44.0222 42.3742C43.9701 42.3526 43.9207 42.3262 43.8738 42.2949C43.8269 42.2636 43.7835 42.228 43.7437 42.1881C43.7038 42.1483 43.6682 42.1049 43.6369 42.058C43.6056 42.0112 43.5791 41.9617 43.5575 41.9096C43.536 41.8575 43.5197 41.8039 43.5087 41.7486C43.4977 41.6933 43.4922 41.6375 43.4922 41.5811C43.4922 41.5247 43.4977 41.4689 43.5087 41.4136C43.5197 41.3583 43.536 41.3047 43.5575 41.2526C43.5791 41.2005 43.6056 41.151 43.6369 41.1042C43.6682 41.0573 43.7038 41.0139 43.7437 40.9741C43.7835 40.9342 43.8269 40.8986 43.8738 40.8673C43.9207 40.836 43.9701 40.8096 44.0222 40.788C44.0743 40.7664 44.128 40.7501 44.1833 40.7392C44.2386 40.7282 44.2944 40.7227 44.3508 40.7227C44.4072 40.7227 44.463 40.7282 44.5183 40.7392C44.5736 40.7501 44.6273 40.7664 44.6794 40.788C44.7315 40.8096 44.7809 40.836 44.8278 40.8673C44.8747 40.8986 44.9181 40.9342 44.9579 40.9741C44.9978 41.0139 45.0334 41.0573 45.0647 41.1042C45.096 41.151 45.1225 41.2005 45.1441 41.2526C45.1656 41.3047 45.1819 41.3583 45.1929 41.4136C45.2039 41.4689 45.2094 41.5247 45.2094 41.5811Z"
        fill="#12AAFF" />
    <path
        d="M52.1664 34.6241C52.1664 34.6804 52.1609 34.7363 52.1499 34.7915C52.1389 34.8468 52.1227 34.9005 52.1011 34.9526C52.0795 35.0047 52.053 35.0541 52.0217 35.101C51.9904 35.1479 51.9548 35.1912 51.915 35.2311C51.8751 35.2709 51.8317 35.3065 51.7848 35.3378C51.738 35.3692 51.6885 35.3956 51.6364 35.4172C51.5843 35.4387 51.5306 35.455 51.4753 35.466C51.42 35.477 51.3642 35.4825 51.3078 35.4825C51.2515 35.4825 51.1956 35.477 51.1403 35.466C51.085 35.455 51.0313 35.4387 50.9792 35.4172C50.9272 35.3956 50.8777 35.3692 50.8308 35.3378C50.7839 35.3065 50.7406 35.2709 50.7007 35.2311C50.6608 35.1912 50.6252 35.1479 50.5939 35.101C50.5626 35.0541 50.5361 35.0047 50.5146 34.9526C50.493 34.9005 50.4767 34.8468 50.4657 34.7915C50.4547 34.7363 50.4492 34.6804 50.4492 34.6241C50.4492 34.5677 50.4547 34.5119 50.4657 34.4566C50.4767 34.4013 50.493 34.3476 50.5146 34.2956C50.5361 34.2435 50.5626 34.194 50.5939 34.1471C50.6252 34.1003 50.6608 34.0569 50.7007 34.0171C50.7406 33.9772 50.7839 33.9416 50.8308 33.9103C50.8777 33.879 50.9272 33.8525 50.9792 33.831C51.0313 33.8094 51.085 33.7931 51.1403 33.7821C51.1956 33.7711 51.2515 33.7656 51.3078 33.7656C51.3642 33.7656 51.42 33.7711 51.4753 33.7821C51.5306 33.7931 51.5843 33.8094 51.6364 33.831C51.6885 33.8525 51.738 33.879 51.7848 33.9103C51.8317 33.9416 51.8751 33.9772 51.915 34.0171C51.9548 34.0569 51.9904 34.1003 52.0217 34.1471C52.053 34.194 52.0795 34.2435 52.1011 34.2956C52.1227 34.3476 52.1389 34.4013 52.1499 34.4566C52.1609 34.5119 52.1664 34.5677 52.1664 34.6241Z"
        fill="#12AAFF" />
    <path
        d="M46.0991 1.85587C46.0991 1.91307 46.0963 1.97013 46.0907 2.02706C46.0851 2.08398 46.0767 2.14049 46.0656 2.19659C46.0544 2.25269 46.0405 2.30811 46.0239 2.36285C46.0073 2.41759 45.9881 2.47138 45.9662 2.52422C45.9443 2.57707 45.9198 2.62871 45.8929 2.67916C45.8659 2.72961 45.8365 2.77861 45.8047 2.82617C45.773 2.87373 45.7389 2.91962 45.7026 2.96383C45.6663 3.00805 45.628 3.05038 45.5875 3.09083C45.547 3.13127 45.5047 3.16964 45.4605 3.20593C45.4163 3.24221 45.3704 3.27625 45.3228 3.30803C45.2752 3.3398 45.2262 3.36918 45.1758 3.39614C45.1253 3.4231 45.0736 3.44753 45.0208 3.46942C44.9679 3.49131 44.9141 3.51056 44.8594 3.52716C44.8046 3.54376 44.7492 3.55765 44.6931 3.5688C44.637 3.57996 44.5805 3.58835 44.5235 3.59395C44.4666 3.59956 44.4095 3.60236 44.3523 3.60236C44.2951 3.60236 44.238 3.59956 44.1811 3.59395C44.1241 3.58835 44.0676 3.57996 44.0115 3.5688C43.9554 3.55765 43.9 3.54376 43.8452 3.52716C43.7905 3.51056 43.7367 3.49131 43.6838 3.46942C43.631 3.44753 43.5793 3.4231 43.5288 3.39614C43.4784 3.36918 43.4294 3.3398 43.3818 3.30803C43.3342 3.27625 43.2883 3.24221 43.2441 3.20593C43.1999 3.16964 43.1576 3.13127 43.1171 3.09083C43.0766 3.05038 43.0383 3.00805 43.002 2.96383C42.9657 2.91962 42.9316 2.87373 42.8999 2.82617C42.8681 2.77861 42.8387 2.72961 42.8117 2.67916C42.7848 2.62871 42.7603 2.57707 42.7384 2.52422C42.7165 2.47138 42.6973 2.41759 42.6807 2.36285C42.6641 2.30811 42.6502 2.25269 42.639 2.19659C42.6279 2.14049 42.6195 2.08398 42.6139 2.02706C42.6083 1.97013 42.6055 1.91307 42.6055 1.85587C42.6055 1.79867 42.6083 1.74161 42.6139 1.68468C42.6195 1.62776 42.6279 1.57125 42.639 1.51514C42.6502 1.45904 42.6641 1.40363 42.6807 1.34889C42.6973 1.29415 42.7165 1.24036 42.7384 1.18751C42.7603 1.13467 42.7848 1.08302 42.8117 1.03258C42.8387 0.982132 42.8681 0.933129 42.8999 0.885569C42.9316 0.838009 42.9657 0.792121 43.002 0.747905C43.0383 0.703689 43.0766 0.661358 43.1171 0.620911C43.1576 0.580465 43.1999 0.542098 43.2441 0.505811C43.2883 0.469524 43.3342 0.435491 43.3818 0.403712C43.4294 0.371934 43.4784 0.342563 43.5288 0.315599C43.5793 0.288635 43.631 0.264208 43.6838 0.242319C43.7367 0.22043 43.7905 0.201183 43.8452 0.184578C43.9 0.167974 43.9554 0.154093 44.0115 0.142933C44.0676 0.131774 44.1241 0.123391 44.1811 0.117785C44.238 0.112178 44.2951 0.109375 44.3523 0.109375C44.4095 0.109375 44.4666 0.112178 44.5235 0.117785C44.5805 0.123391 44.637 0.131774 44.6931 0.142933C44.7492 0.154093 44.8046 0.167974 44.8594 0.184578C44.9141 0.201183 44.9679 0.22043 45.0208 0.242319C45.0736 0.264208 45.1253 0.288635 45.1758 0.315599C45.2262 0.342563 45.2752 0.371934 45.3228 0.403712C45.3704 0.435491 45.4163 0.469524 45.4605 0.505811C45.5047 0.542098 45.547 0.580465 45.5875 0.620911C45.628 0.661358 45.6663 0.703689 45.7026 0.747905C45.7389 0.792121 45.773 0.838009 45.8047 0.885569C45.8365 0.933129 45.8659 0.982132 45.8929 1.03258C45.9198 1.08302 45.9443 1.13467 45.9662 1.18751C45.9881 1.24036 46.0073 1.29415 46.0239 1.34889C46.0405 1.40363 46.0544 1.45904 46.0656 1.51514C46.0767 1.57125 46.0851 1.62776 46.0907 1.68468C46.0963 1.74161 46.0991 1.79867 46.0991 1.85587Z"
        fill="#12AAFF" />
    <path
        d="M16.818 2.18224C16.818 2.24832 16.8115 2.31377 16.7986 2.37858C16.7858 2.4434 16.7667 2.50633 16.7414 2.56739C16.7161 2.62844 16.6851 2.68644 16.6483 2.74139C16.6116 2.79634 16.5699 2.84718 16.5231 2.89391C16.4764 2.94063 16.4256 2.98236 16.3706 3.01907C16.3156 3.05579 16.2576 3.08679 16.1966 3.11208C16.1355 3.13737 16.0726 3.15646 16.0077 3.16935C15.9429 3.18224 15.8774 3.18869 15.8113 3.18869C15.7452 3.18869 15.6798 3.18224 15.615 3.16935C15.5501 3.15646 15.4872 3.13737 15.4261 3.11208C15.365 3.08679 15.307 3.05579 15.2521 3.01907C15.1971 2.98236 15.1463 2.94063 15.0995 2.89391C15.0528 2.84718 15.0111 2.79634 14.9743 2.74139C14.9376 2.68644 14.9066 2.62844 14.8813 2.56739C14.856 2.50633 14.8369 2.4434 14.824 2.37858C14.8111 2.31377 14.8047 2.24832 14.8047 2.18224C14.8047 2.11615 14.8111 2.0507 14.824 1.98589C14.8369 1.92107 14.856 1.85814 14.8813 1.79708C14.9066 1.73603 14.9376 1.67803 14.9743 1.62308C15.0111 1.56813 15.0528 1.51729 15.0995 1.47056C15.1463 1.42384 15.1971 1.38211 15.2521 1.3454C15.307 1.30868 15.365 1.27768 15.4261 1.25239C15.4872 1.2271 15.5501 1.20801 15.615 1.19512C15.6798 1.18223 15.7452 1.17578 15.8113 1.17578C15.8774 1.17578 15.9429 1.18223 16.0077 1.19512C16.0726 1.20801 16.1355 1.2271 16.1966 1.25239C16.2576 1.27768 16.3156 1.30868 16.3706 1.3454C16.4256 1.38211 16.4764 1.42384 16.5231 1.47056C16.5699 1.51729 16.6116 1.56813 16.6483 1.62308C16.6851 1.67803 16.7161 1.73603 16.7414 1.79708C16.7667 1.85814 16.7858 1.92107 16.7986 1.98589C16.8115 2.0507 16.818 2.11615 16.818 2.18224Z"
        fill="#12AAFF" />
    <path
        d="M36.9195 51.557C36.9195 51.6142 36.9167 51.6713 36.911 51.7282C36.9054 51.7852 36.897 51.8417 36.8859 51.8978C36.8747 51.9539 36.8608 52.0093 36.8442 52.064C36.8276 52.1188 36.8084 52.1725 36.7865 52.2254C36.7646 52.2782 36.7402 52.3299 36.7132 52.3803C36.6862 52.4308 36.6568 52.4798 36.6251 52.5273C36.5933 52.5749 36.5592 52.6208 36.5229 52.665C36.4866 52.7092 36.4483 52.7516 36.4078 52.792C36.3674 52.8324 36.325 52.8708 36.2808 52.9071C36.2366 52.9434 36.1907 52.9774 36.1431 53.0092C36.0955 53.041 36.0465 53.0703 35.9961 53.0973C35.9456 53.1243 35.894 53.1487 35.8411 53.1706C35.7882 53.1925 35.7344 53.2117 35.6797 53.2283C35.6249 53.2449 35.5695 53.2588 35.5134 53.27C35.4573 53.2811 35.4008 53.2895 35.3438 53.2951C35.2869 53.3007 35.2298 53.3035 35.1726 53.3035C35.1154 53.3035 35.0583 53.3007 35.0014 53.2951C34.9445 53.2895 34.8879 53.2811 34.8318 53.27C34.7757 53.2588 34.7203 53.2449 34.6655 53.2283C34.6108 53.2117 34.557 53.1925 34.5041 53.1706C34.4513 53.1487 34.3996 53.1243 34.3492 53.0973C34.2987 53.0703 34.2497 53.041 34.2021 53.0092C34.1546 52.9774 34.1087 52.9434 34.0644 52.9071C34.0202 52.8708 33.9779 52.8324 33.9374 52.792C33.897 52.7516 33.8586 52.7092 33.8223 52.665C33.786 52.6208 33.752 52.5749 33.7202 52.5273C33.6884 52.4798 33.659 52.4308 33.632 52.3803C33.6051 52.3299 33.5806 52.2782 33.5587 52.2254C33.5369 52.1726 33.5176 52.1188 33.501 52.064C33.4844 52.0093 33.4705 51.9539 33.4593 51.8978C33.4482 51.8417 33.4398 51.7851 33.4342 51.7282C33.4286 51.6713 33.4258 51.6142 33.4258 51.557C33.4258 51.4998 33.4286 51.4428 33.4342 51.3859C33.4398 51.3289 33.4482 51.2724 33.4593 51.2163C33.4705 51.1602 33.4844 51.1048 33.501 51.0501C33.5176 50.9953 33.5369 50.9415 33.5587 50.8887C33.5806 50.8358 33.6051 50.7842 33.632 50.7338C33.659 50.6833 33.6884 50.6343 33.7202 50.5867C33.752 50.5392 33.786 50.4933 33.8223 50.4491C33.8586 50.4049 33.897 50.3625 33.9374 50.3221C33.9779 50.2816 34.0202 50.2433 34.0644 50.207C34.1087 50.1707 34.1546 50.1367 34.2021 50.1049C34.2497 50.0731 34.2987 50.0437 34.3492 50.0168C34.3996 49.9898 34.4513 49.9654 34.5041 49.9435C34.557 49.9216 34.6108 49.9024 34.6655 49.8858C34.7203 49.8692 34.7757 49.8553 34.8318 49.8441C34.8879 49.8329 34.9445 49.8246 35.0014 49.819C35.0583 49.8133 35.1154 49.8105 35.1726 49.8105C35.2298 49.8105 35.2869 49.8133 35.3438 49.819C35.4008 49.8246 35.4573 49.8329 35.5134 49.8441C35.5695 49.8553 35.6249 49.8692 35.6797 49.8858C35.7344 49.9024 35.7882 49.9216 35.8411 49.9435C35.894 49.9654 35.9456 49.9898 35.9961 50.0168C36.0465 50.0437 36.0955 50.0731 36.1431 50.1049C36.1907 50.1367 36.2366 50.1707 36.2808 50.207C36.325 50.2433 36.3674 50.2816 36.4078 50.3221C36.4483 50.3625 36.4866 50.4049 36.5229 50.4491C36.5592 50.4933 36.5933 50.5392 36.6251 50.5867C36.6568 50.6343 36.6862 50.6833 36.7132 50.7338C36.7402 50.7842 36.7646 50.8358 36.7865 50.8887C36.8084 50.9415 36.8276 50.9953 36.8442 51.0501C36.8608 51.1048 36.8747 51.1602 36.8859 51.2163C36.897 51.2724 36.9054 51.3289 36.911 51.3859C36.9167 51.4428 36.9195 51.4998 36.9195 51.557Z"
        fill="#12AAFF" />
    <path
        d="M61.1094 77.7848C61.0502 77.844 60.9318 77.844 60.8725 77.7848C60.8133 77.7256 60.8133 77.6072 60.8725 77.548L67.8303 70.562C67.8895 70.5028 68.0079 70.5028 68.0967 70.562C68.156 70.6508 68.156 70.7692 68.0967 70.8284L61.1094 77.7848Z"
        fill="#12AAFF" />
    <path
        d="M68.9267 70.7093C68.9267 70.7734 68.9205 70.8369 68.908 70.8998C68.8954 70.9628 68.8769 71.0238 68.8524 71.0831C68.8278 71.1423 68.7977 71.1986 68.7621 71.252C68.7264 71.3053 68.6859 71.3547 68.6406 71.4C68.5952 71.4454 68.5459 71.4859 68.4925 71.5215C68.4392 71.5571 68.3829 71.5872 68.3236 71.6118C68.2643 71.6363 68.2032 71.6548 68.1403 71.6673C68.0774 71.6799 68.0139 71.6861 67.9497 71.6861C67.8855 71.6861 67.822 71.6799 67.7591 71.6673C67.6962 71.6548 67.6351 71.6363 67.5758 71.6118C67.5165 71.5872 67.4602 71.5571 67.4069 71.5215C67.3535 71.4859 67.3042 71.4454 67.2588 71.4C67.2134 71.3547 67.1729 71.3053 67.1373 71.252C67.1017 71.1986 67.0716 71.1423 67.047 71.0831C67.0225 71.0238 67.0039 70.9628 66.9914 70.8998C66.9789 70.8369 66.9727 70.7734 66.9727 70.7093C66.9727 70.6451 66.9789 70.5816 66.9914 70.5187C67.0039 70.4558 67.0225 70.3947 67.047 70.3354C67.0716 70.2762 67.1017 70.2199 67.1373 70.1666C67.1729 70.1132 67.2134 70.0639 67.2588 70.0185C67.3042 69.9732 67.3535 69.9327 67.4069 69.897C67.4602 69.8614 67.5165 69.8313 67.5758 69.8068C67.6351 69.7822 67.6962 69.7637 67.7591 69.7512C67.822 69.7387 67.8855 69.7324 67.9497 69.7324C68.0139 69.7324 68.0774 69.7387 68.1403 69.7512C68.2032 69.7637 68.2643 69.7822 68.3236 69.8068C68.3829 69.8313 68.4392 69.8614 68.4925 69.897C68.5459 69.9327 68.5952 69.9732 68.6406 70.0185C68.6859 70.0639 68.7264 70.1132 68.7621 70.1666C68.7977 70.2199 68.8278 70.2762 68.8524 70.3354C68.8769 70.3947 68.8954 70.4558 68.908 70.5187C68.9205 70.5816 68.9267 70.6451 68.9267 70.7093Z"
        fill="#12AAFF" />
    <path
        d="M39.436 57.8916C39.436 57.948 39.4305 58.0038 39.4195 58.0591C39.4085 58.1144 39.3922 58.1681 39.3706 58.2202C39.349 58.2722 39.3226 58.3217 39.2913 58.3686C39.26 58.4154 39.2244 58.4588 39.1845 58.4987C39.1446 58.5385 39.1013 58.5741 39.0544 58.6054C39.0075 58.6367 38.958 58.6632 38.9059 58.6847C38.8539 58.7063 38.8002 58.7226 38.7449 58.7336C38.6896 58.7446 38.6337 58.7501 38.5774 58.7501C38.521 58.7501 38.4652 58.7446 38.4099 58.7336C38.3546 58.7226 38.3009 58.7063 38.2488 58.6847C38.1967 58.6632 38.1472 58.6367 38.1003 58.6054C38.0535 58.5741 38.0101 58.5385 37.9702 58.4987C37.9304 58.4588 37.8948 58.4154 37.8635 58.3686C37.8321 58.3217 37.8057 58.2722 37.7841 58.2202C37.7625 58.1681 37.7462 58.1144 37.7352 58.0591C37.7242 58.0038 37.7188 57.948 37.7188 57.8916C37.7188 57.8353 37.7242 57.7794 37.7352 57.7242C37.7462 57.6689 37.7625 57.6152 37.7841 57.5631C37.8057 57.5111 37.8321 57.4616 37.8634 57.4147C37.8948 57.3679 37.9304 57.3245 37.9702 57.2846C38.0101 57.2448 38.0535 57.2092 38.1003 57.1779C38.1472 57.1466 38.1967 57.1201 38.2488 57.0985C38.3009 57.077 38.3546 57.0607 38.4099 57.0497C38.4652 57.0387 38.521 57.0332 38.5774 57.0332C38.6337 57.0332 38.6896 57.0387 38.7449 57.0497C38.8002 57.0607 38.8539 57.077 38.9059 57.0985C38.958 57.1201 39.0075 57.1466 39.0544 57.1779C39.1013 57.2092 39.1446 57.2448 39.1845 57.2846C39.2244 57.3245 39.26 57.3679 39.2913 57.4147C39.3226 57.4616 39.349 57.5111 39.3706 57.5631C39.3922 57.6152 39.4085 57.6689 39.4195 57.7242C39.4305 57.7795 39.436 57.8353 39.436 57.8916Z"
        fill="#12AAFF" />
    <path
        d="M57.9999 88.4703C57.9999 88.7071 57.7926 88.9143 57.5558 88.9143C57.2893 88.9143 57.082 88.7071 57.082 88.4703V57.1814C57.082 56.915 57.2893 56.7374 57.5558 56.7374C57.7926 56.7374 57.9999 56.915 57.9999 57.1814V88.4703ZM57.9999 51.4387C57.9999 51.7051 57.7926 51.8827 57.5558 51.8827C57.2893 51.8827 57.082 51.7051 57.082 51.4387V30.8952C57.082 30.6584 57.2893 30.4512 57.5558 30.4512C57.7926 30.4512 57.9999 30.6584 57.9999 30.8952V51.4387Z"
        fill="#12AAFF" />
    <path
        d="M57.6742 46.1112C57.5853 46.1704 57.4965 46.1704 57.4077 46.1112C57.3485 46.052 57.3485 45.9336 57.4077 45.8448L68.5993 34.685C68.6585 34.6258 68.7769 34.6258 68.8362 34.685C68.925 34.7442 68.925 34.8626 68.8362 34.9514L57.6742 46.1112Z"
        fill="#12AAFF" />
    <path
        d="M70.1993 34.8023C70.1993 34.8508 70.1969 34.8992 70.1921 34.9474C70.1874 34.9957 70.1803 35.0435 70.1708 35.0911C70.1614 35.1386 70.1496 35.1856 70.1355 35.232C70.1215 35.2784 70.1051 35.324 70.0866 35.3687C70.068 35.4135 70.0473 35.4573 70.0245 35.5C70.0016 35.5428 69.9767 35.5843 69.9498 35.6246C69.9228 35.6649 69.894 35.7038 69.8632 35.7413C69.8325 35.7788 69.8 35.8146 69.7657 35.8489C69.7314 35.8832 69.6955 35.9157 69.658 35.9465C69.6206 35.9772 69.5817 36.006 69.5413 36.033C69.501 36.0599 69.4595 36.0848 69.4167 36.1077C69.374 36.1305 69.3302 36.1512 69.2854 36.1698C69.2406 36.1883 69.195 36.2046 69.1486 36.2187C69.1022 36.2328 69.0552 36.2445 69.0077 36.254C68.9601 36.2634 68.9122 36.2705 68.864 36.2753C68.8157 36.2801 68.7674 36.2824 68.7189 36.2824C68.6704 36.2824 68.622 36.2801 68.5738 36.2753C68.5255 36.2705 68.4776 36.2634 68.4301 36.254C68.3825 36.2445 68.3356 36.2328 68.2892 36.2187C68.2428 36.2046 68.1972 36.1883 68.1524 36.1698C68.1076 36.1512 68.0638 36.1305 68.0211 36.1077C67.9783 36.0848 67.9368 36.0599 67.8964 36.033C67.8561 36.006 67.8172 35.9772 67.7798 35.9465C67.7423 35.9157 67.7064 35.8832 67.6721 35.8489C67.6378 35.8146 67.6053 35.7788 67.5746 35.7413C67.5438 35.7038 67.5149 35.6649 67.488 35.6246C67.4611 35.5843 67.4362 35.5428 67.4133 35.5C67.3905 35.4573 67.3698 35.4135 67.3512 35.3687C67.3326 35.324 67.3163 35.2784 67.3023 35.232C67.2882 35.1856 67.2764 35.1386 67.267 35.0911C67.2575 35.0435 67.2504 34.9957 67.2456 34.9474C67.2409 34.8992 67.2385 34.8508 67.2385 34.8023C67.2385 34.7539 67.2409 34.7055 67.2456 34.6573C67.2504 34.609 67.2575 34.5611 67.267 34.5136C67.2764 34.4661 67.2882 34.4191 67.3023 34.3727C67.3163 34.3263 67.3326 34.2807 67.3512 34.2359C67.3698 34.1912 67.3905 34.1474 67.4133 34.1046C67.4362 34.0619 67.4611 34.0204 67.488 33.9801C67.5149 33.9398 67.5438 33.9009 67.5746 33.8634C67.6053 33.8259 67.6378 33.79 67.6721 33.7558C67.7064 33.7215 67.7423 33.689 67.7798 33.6582C67.8172 33.6275 67.8561 33.5986 67.8964 33.5717C67.9368 33.5448 67.9783 33.5199 68.021 33.497C68.0638 33.4742 68.1076 33.4535 68.1524 33.4349C68.1972 33.4164 68.2428 33.4001 68.2892 33.386C68.3356 33.3719 68.3825 33.3602 68.4301 33.3507C68.4776 33.3413 68.5255 33.3341 68.5738 33.3294C68.622 33.3246 68.6704 33.3223 68.7189 33.3223C68.7674 33.3223 68.8157 33.3246 68.864 33.3294C68.9122 33.3341 68.9601 33.3413 69.0077 33.3507C69.0552 33.3602 69.1022 33.3719 69.1486 33.386C69.195 33.4001 69.2406 33.4164 69.2854 33.4349C69.3302 33.4535 69.374 33.4742 69.4167 33.497C69.4595 33.5199 69.501 33.5448 69.5413 33.5717C69.5817 33.5986 69.6206 33.6275 69.658 33.6582C69.6955 33.689 69.7314 33.7215 69.7657 33.7558C69.8 33.79 69.8325 33.8259 69.8632 33.8634C69.894 33.9009 69.9228 33.9398 69.9498 33.9801C69.9767 34.0204 70.0016 34.0619 70.0245 34.1046C70.0473 34.1474 70.068 34.1912 70.0866 34.2359C70.1051 34.2807 70.1215 34.3263 70.1355 34.3727C70.1496 34.4191 70.1614 34.4661 70.1708 34.5136C70.1803 34.5611 70.1874 34.609 70.1921 34.6573C70.1969 34.7055 70.1993 34.7539 70.1993 34.8023Z"
        fill="#12AAFF" />
    <path
        d="M60.4274 30.8948C60.4274 30.9888 60.4228 31.0826 60.4136 31.1762C60.4044 31.2698 60.3906 31.3627 60.3722 31.455C60.3539 31.5472 60.3311 31.6383 60.3038 31.7283C60.2765 31.8183 60.2448 31.9067 60.2088 31.9936C60.1728 32.0805 60.1327 32.1654 60.0883 32.2483C60.044 32.3313 59.9957 32.4118 59.9434 32.49C59.8912 32.5682 59.8352 32.6437 59.7755 32.7164C59.7159 32.7891 59.6528 32.8587 59.5863 32.9251C59.5198 32.9916 59.4501 33.0547 59.3774 33.1144C59.3047 33.174 59.2293 33.23 59.1511 33.2822C59.0729 33.3345 58.9923 33.3828 58.9093 33.4271C58.8264 33.4714 58.7415 33.5116 58.6545 33.5476C58.5677 33.5836 58.4792 33.6152 58.3892 33.6425C58.2992 33.6698 58.208 33.6926 58.1158 33.711C58.0235 33.7293 57.9306 33.7431 57.837 33.7523C57.7434 33.7615 57.6496 33.7661 57.5555 33.7661C57.4615 33.7661 57.3676 33.7615 57.274 33.7523C57.1804 33.7431 57.0875 33.7293 56.9952 33.711C56.903 33.6926 56.8119 33.6698 56.7218 33.6425C56.6318 33.6152 56.5434 33.5836 56.4565 33.5476C56.3696 33.5116 56.2847 33.4714 56.2017 33.4271C56.1187 33.3828 56.0382 33.3345 55.96 33.2822C55.8818 33.23 55.8063 33.174 55.7336 33.1144C55.6609 33.0547 55.5913 32.9916 55.5248 32.9251C55.4583 32.8587 55.3952 32.7891 55.3355 32.7164C55.2758 32.6437 55.2199 32.5682 55.1676 32.49C55.1153 32.4118 55.0671 32.3313 55.0227 32.2483C54.9784 32.1654 54.9382 32.0805 54.9022 31.9936C54.8662 31.9067 54.8346 31.8183 54.8073 31.7283C54.78 31.6383 54.7571 31.5472 54.7388 31.455C54.7204 31.3627 54.7066 31.2698 54.6974 31.1762C54.6882 31.0826 54.6836 30.9888 54.6836 30.8948C54.6836 30.8008 54.6882 30.7069 54.6974 30.6133C54.7066 30.5198 54.7204 30.4269 54.7388 30.3346C54.7571 30.2424 54.78 30.1513 54.8073 30.0613C54.8346 29.9713 54.8662 29.8829 54.9022 29.796C54.9382 29.7091 54.9784 29.6242 55.0227 29.5412C55.0671 29.4583 55.1154 29.3777 55.1676 29.2996C55.2199 29.2214 55.2758 29.1459 55.3355 29.0732C55.3952 29.0005 55.4583 28.9309 55.5248 28.8644C55.5913 28.7979 55.6609 28.7349 55.7336 28.6752C55.8063 28.6155 55.8818 28.5596 55.96 28.5073C56.0382 28.4551 56.1187 28.4068 56.2017 28.3625C56.2847 28.3182 56.3696 28.278 56.4565 28.242C56.5434 28.206 56.6318 28.1744 56.7218 28.1471C56.8119 28.1198 56.903 28.097 56.9952 28.0786C57.0875 28.0603 57.1804 28.0465 57.274 28.0373C57.3676 28.028 57.4615 28.0234 57.5555 28.0234C57.6496 28.0234 57.7434 28.028 57.837 28.0373C57.9306 28.0465 58.0235 28.0603 58.1158 28.0786C58.208 28.097 58.2992 28.1198 58.3892 28.1471C58.4792 28.1744 58.5677 28.206 58.6545 28.242C58.7415 28.278 58.8264 28.3182 58.9093 28.3625C58.9923 28.4068 59.0729 28.4551 59.1511 28.5073C59.2293 28.5596 59.3047 28.6155 59.3774 28.6752C59.4501 28.7349 59.5198 28.7979 59.5863 28.8644C59.6528 28.9309 59.7159 29.0005 59.7755 29.0732C59.8352 29.1459 59.8912 29.2214 59.9434 29.2996C59.9957 29.3777 60.044 29.4583 60.0883 29.5412C60.1327 29.6242 60.1728 29.7091 60.2088 29.796C60.2448 29.8829 60.2765 29.9713 60.3038 30.0613C60.3311 30.1513 60.3539 30.2424 60.3722 30.3346C60.3906 30.4269 60.4044 30.5198 60.4136 30.6133C60.4228 30.7069 60.4274 30.8008 60.4274 30.8948Z"
        fill="#12AAFF" />
    <path
        d="M20.4295 88.4696C20.4295 88.5584 20.3407 88.6472 20.2519 88.6472C20.163 88.6472 20.0742 88.5584 20.0742 88.4696V55.4047C20.0742 55.3159 20.163 55.227 20.2519 55.227C20.3407 55.227 20.4295 55.3159 20.4295 55.4047V88.4696ZM20.4295 52.5629C20.4295 52.6517 20.3407 52.7405 20.2519 52.7405C20.163 52.7405 20.0742 52.6517 20.0742 52.5629V19.4979C20.0742 19.4091 20.163 19.3203 20.2519 19.3203C20.3407 19.3203 20.4295 19.4091 20.4295 19.4979V52.5629Z"
        fill="#12AAFF" />
    <path
        d="M17.0233 88.4692C17.0233 88.558 16.9641 88.6468 16.8456 88.6468C16.7568 88.6468 16.668 88.558 16.668 88.4692V57.9499L10.9537 52.2368C10.9241 52.2072 10.8945 52.148 10.8945 52.1184V29.0292C10.8945 28.9108 10.9834 28.8516 11.0722 28.8516C11.161 28.8516 11.2498 28.9108 11.2498 29.0292V52.0296L16.9641 57.7427C16.9937 57.7723 17.0233 57.8315 17.0233 57.8907V88.4692Z"
        fill="#12AAFF" />
    <path
        d="M11.9321 41.5811C11.9321 41.6375 11.9266 41.6933 11.9156 41.7486C11.9046 41.8039 11.8883 41.8575 11.8667 41.9096C11.8451 41.9617 11.8187 42.0112 11.7874 42.058C11.756 42.1049 11.7205 42.1483 11.6806 42.1881C11.6407 42.228 11.5974 42.2636 11.5505 42.2949C11.5036 42.3262 11.4541 42.3526 11.402 42.3742C11.3499 42.3958 11.2963 42.4121 11.241 42.423C11.1857 42.434 11.1298 42.4395 11.0735 42.4395C11.0171 42.4395 10.9612 42.434 10.906 42.4231C10.8507 42.4121 10.797 42.3958 10.7449 42.3742C10.6928 42.3526 10.6433 42.3262 10.5964 42.2949C10.5496 42.2636 10.5062 42.228 10.4663 42.1881C10.4265 42.1483 10.3909 42.1049 10.3595 42.058C10.3282 42.0112 10.3018 41.9617 10.2802 41.9096C10.2586 41.8575 10.2423 41.8039 10.2313 41.7486C10.2203 41.6933 10.2148 41.6375 10.2148 41.5811C10.2148 41.5247 10.2203 41.4689 10.2313 41.4136C10.2423 41.3583 10.2586 41.3047 10.2802 41.2526C10.3018 41.2005 10.3282 41.151 10.3595 41.1042C10.3909 41.0573 10.4265 41.0139 10.4663 40.9741C10.5062 40.9342 10.5496 40.8986 10.5964 40.8673C10.6433 40.836 10.6928 40.8096 10.7449 40.788C10.797 40.7664 10.8507 40.7501 10.906 40.7392C10.9612 40.7282 11.0171 40.7227 11.0735 40.7227C11.1298 40.7227 11.1857 40.7282 11.241 40.7392C11.2963 40.7501 11.3499 40.7664 11.402 40.788C11.4541 40.8096 11.5036 40.836 11.5505 40.8673C11.5974 40.8986 11.6407 40.9342 11.6806 40.9741C11.7205 41.0139 11.756 41.0573 11.7874 41.1042C11.8187 41.151 11.8451 41.2005 11.8667 41.2526C11.8883 41.3047 11.9046 41.3583 11.9156 41.4136C11.9266 41.4689 11.9321 41.5247 11.9321 41.5811Z"
        fill="#12AAFF" />
    <path
        d="M17.7055 57.8916C17.7055 57.948 17.7 58.0038 17.689 58.0591C17.678 58.1144 17.6617 58.1681 17.6402 58.2202C17.6186 58.2722 17.5921 58.3217 17.5608 58.3686C17.5295 58.4154 17.4939 58.4588 17.454 58.4987C17.4142 58.5385 17.3708 58.5741 17.3239 58.6054C17.277 58.6367 17.2276 58.6632 17.1755 58.6847C17.1234 58.7063 17.0697 58.7226 17.0144 58.7336C16.9591 58.7446 16.9033 58.7501 16.8469 58.7501C16.7905 58.7501 16.7347 58.7446 16.6794 58.7336C16.6241 58.7226 16.5704 58.7063 16.5183 58.6847C16.4662 58.6632 16.4167 58.6367 16.3699 58.6054C16.323 58.5741 16.2796 58.5385 16.2398 58.4987C16.1999 58.4588 16.1643 58.4154 16.133 58.3686C16.1017 58.3217 16.0752 58.2722 16.0536 58.2202C16.0321 58.1681 16.0158 58.1144 16.0048 58.0591C15.9938 58.0038 15.9883 57.948 15.9883 57.8916C15.9883 57.8353 15.9938 57.7794 16.0048 57.7242C16.0158 57.6689 16.0321 57.6152 16.0536 57.5631C16.0752 57.5111 16.1017 57.4616 16.133 57.4147C16.1643 57.3679 16.1999 57.3245 16.2398 57.2846C16.2796 57.2448 16.323 57.2092 16.3699 57.1779C16.4167 57.1466 16.4662 57.1201 16.5183 57.0985C16.5704 57.077 16.6241 57.0607 16.6794 57.0497C16.7347 57.0387 16.7905 57.0332 16.8469 57.0332C16.9033 57.0332 16.9591 57.0387 17.0144 57.0497C17.0697 57.0607 17.1234 57.077 17.1755 57.0985C17.2276 57.1201 17.277 57.1466 17.3239 57.1779C17.3708 57.2092 17.4142 57.2448 17.454 57.2846C17.4939 57.3245 17.5295 57.3679 17.5608 57.4147C17.5921 57.4616 17.6186 57.5111 17.6402 57.5631C17.6617 57.6152 17.678 57.6689 17.689 57.7242C17.7 57.7795 17.7055 57.8353 17.7055 57.8916Z"
        fill="#12AAFF" />
    <path
        d="M11.0737 26.3952C10.748 26.3952 10.452 26.5136 10.2447 26.7504C10.0079 26.9576 9.88942 27.2536 9.88942 27.5793C9.88942 27.9345 10.0079 28.2305 10.2447 28.4377C10.452 28.6449 10.748 28.7929 11.0737 28.7929C11.3994 28.7929 11.6955 28.6449 11.9323 28.4377C12.1396 28.2305 12.2876 27.9345 12.2876 27.5793C12.2876 27.2536 12.1396 26.9576 11.9323 26.7504C11.6955 26.5136 11.3994 26.3952 11.0737 26.3952ZM9.91903 26.4248C10.2151 26.1288 10.6296 25.9512 11.0737 25.9512C11.5474 25.9512 11.9323 26.1288 12.2284 26.4248C12.5541 26.7208 12.7317 27.1352 12.7317 27.5793C12.7317 28.0529 12.5541 28.4673 12.2284 28.7633C11.9323 29.0593 11.5474 29.2369 11.0737 29.2369C10.6296 29.2369 10.2151 29.0593 9.91903 28.7633C9.62296 28.4673 9.44531 28.0529 9.44531 27.5793C9.44531 27.1352 9.62296 26.7208 9.91903 26.4248Z"
        fill="#12AAFF" />
    <path
        d="M52.1697 62.7175C51.8441 62.7175 51.548 62.8655 51.3111 63.0727C51.1039 63.3095 50.9558 63.6055 50.9558 63.9311C50.9558 64.2567 51.1039 64.5528 51.3111 64.7896C51.548 64.9968 51.8441 65.1152 52.1697 65.1152C52.4954 65.1152 52.7915 64.9968 53.0283 64.7896C53.2356 64.5528 53.354 64.2567 53.354 63.9311C53.354 63.6055 53.2356 63.3095 53.0283 63.0727C52.7915 62.8655 52.4954 62.7175 52.1697 62.7175ZM51.015 62.7767C51.3111 62.4806 51.7256 62.2734 52.1697 62.2734C52.6138 62.2734 53.0283 62.4806 53.3244 62.7767C53.6205 63.0727 53.8278 63.4871 53.8278 63.9311C53.8278 64.3752 53.6205 64.7896 53.3244 65.0856C53.0283 65.3816 52.6138 65.5888 52.1697 65.5888C51.7256 65.5888 51.3111 65.3816 51.015 65.0856C50.6894 64.7896 50.5117 64.3752 50.5117 63.9311C50.5117 63.4871 50.6894 63.0727 51.015 62.7767Z"
        fill="#12AAFF" />
    <path
        d="M20.2518 52.7998C19.9261 52.7998 19.63 52.9182 19.3932 53.1254C19.1859 53.3622 19.0379 53.6582 19.0379 53.9839C19.0379 54.3095 19.1859 54.6055 19.3932 54.8423C19.63 55.0495 19.9261 55.1975 20.2518 55.1975C20.5774 55.1975 20.8735 55.0495 21.1104 54.8423C21.3176 54.6055 21.4361 54.3095 21.4361 53.9839C21.4361 53.6582 21.3176 53.3622 21.1104 53.1254C20.8735 52.9182 20.5774 52.7998 20.2518 52.7998ZM19.0971 52.8294C19.3932 52.5334 19.8077 52.3262 20.2518 52.3262C20.6959 52.3262 21.1104 52.5334 21.4065 52.8294C21.7025 53.1254 21.9098 53.5398 21.9098 53.9839C21.9098 54.4279 21.7025 54.8423 21.4065 55.1383C21.1104 55.4639 20.6959 55.6416 20.2518 55.6416C19.8077 55.6416 19.3932 55.4639 19.0971 55.1383C18.7714 54.8423 18.5938 54.4279 18.5938 53.9839C18.5938 53.5398 18.7714 53.1254 19.0971 52.8294Z"
        fill="#12AAFF" />
    <path
        d="M20.3702 19.3797C20.459 19.4389 20.459 19.5573 20.3702 19.6461C20.311 19.7053 20.1925 19.7053 20.1333 19.6461L13.146 12.6601C13.0868 12.6009 13.0868 12.4825 13.146 12.4233C13.2348 12.3641 13.3532 12.3641 13.4124 12.4233L20.3702 19.3797Z"
        fill="#12AAFF" />
    <path
        d="M21.1118 19.4991C21.1118 19.5554 21.1063 19.6113 21.0953 19.6665C21.0843 19.7218 21.068 19.7755 21.0464 19.8276C21.0248 19.8797 20.9984 19.9291 20.9671 19.976C20.9357 20.0229 20.9001 20.0662 20.8603 20.1061C20.8204 20.1459 20.777 20.1815 20.7302 20.2128C20.6833 20.2442 20.6338 20.2706 20.5817 20.2922C20.5296 20.3137 20.4759 20.33 20.4207 20.341C20.3654 20.352 20.3095 20.3575 20.2531 20.3575C20.1968 20.3575 20.1409 20.352 20.0856 20.341C20.0303 20.33 19.9767 20.3137 19.9246 20.2922C19.8725 20.2706 19.823 20.2442 19.7761 20.2128C19.7292 20.1815 19.6859 20.1459 19.646 20.1061C19.6061 20.0662 19.5706 20.0229 19.5392 19.976C19.5079 19.9291 19.4815 19.8797 19.4599 19.8276C19.4383 19.7755 19.422 19.7218 19.411 19.6665C19.4 19.6113 19.3945 19.5554 19.3945 19.4991C19.3945 19.4427 19.4 19.3869 19.411 19.3316C19.422 19.2763 19.4383 19.2226 19.4599 19.1706C19.4815 19.1185 19.5079 19.069 19.5392 19.0221C19.5706 18.9753 19.6061 18.9319 19.646 18.8921C19.6859 18.8522 19.7292 18.8166 19.7761 18.7853C19.823 18.754 19.8725 18.7275 19.9246 18.706C19.9767 18.6844 20.0303 18.6681 20.0856 18.6571C20.1409 18.6461 20.1968 18.6406 20.2531 18.6406C20.3095 18.6406 20.3654 18.6461 20.4207 18.6571C20.4759 18.6681 20.5296 18.6844 20.5817 18.706C20.6338 18.7275 20.6833 18.754 20.7302 18.7853C20.777 18.8166 20.8204 18.8522 20.8603 18.8921C20.9001 18.9319 20.9357 18.9753 20.9671 19.0221C20.9984 19.069 21.0248 19.1185 21.0464 19.1706C21.068 19.2226 21.0843 19.2763 21.0953 19.3316C21.1063 19.3869 21.1118 19.4427 21.1118 19.4991Z"
        fill="#12AAFF" />
    <path
        d="M14.1508 12.542C14.1508 12.5984 14.1453 12.6542 14.1343 12.7095C14.1233 12.7648 14.107 12.8185 14.0855 12.8706C14.0639 12.9226 14.0374 12.9721 14.0061 13.019C13.9748 13.0658 13.9392 13.1092 13.8993 13.1491C13.8595 13.1889 13.8161 13.2245 13.7692 13.2558C13.7223 13.2871 13.6729 13.3136 13.6208 13.3351C13.5687 13.3567 13.515 13.373 13.4597 13.384C13.4044 13.395 13.3486 13.4005 13.2922 13.4005C13.2358 13.4005 13.18 13.395 13.1247 13.384C13.0694 13.373 13.0157 13.3567 12.9636 13.3351C12.9115 13.3136 12.8621 13.2871 12.8152 13.2558C12.7683 13.2245 12.7249 13.1889 12.6851 13.1491C12.6452 13.1092 12.6096 13.0658 12.5783 13.019C12.547 12.9721 12.5205 12.9226 12.4989 12.8706C12.4774 12.8185 12.4611 12.7648 12.4501 12.7095C12.4391 12.6542 12.4336 12.5984 12.4336 12.542C12.4336 12.4857 12.4391 12.4298 12.4501 12.3746C12.4611 12.3193 12.4774 12.2656 12.4989 12.2135C12.5205 12.1614 12.547 12.112 12.5783 12.0651C12.6096 12.0182 12.6452 11.9749 12.6851 11.935C12.7249 11.8952 12.7683 11.8596 12.8152 11.8283C12.8621 11.797 12.9115 11.7705 12.9636 11.7489C13.0157 11.7274 13.0694 11.7111 13.1247 11.7001C13.18 11.6891 13.2358 11.6836 13.2922 11.6836C13.3486 11.6836 13.4044 11.6891 13.4597 11.7001C13.515 11.7111 13.5687 11.7274 13.6208 11.7489C13.6729 11.7705 13.7223 11.797 13.7692 11.8283C13.8161 11.8596 13.8595 11.8952 13.8993 11.935C13.9392 11.9749 13.9748 12.0182 14.0061 12.0651C14.0374 12.112 14.0639 12.1614 14.0855 12.2135C14.107 12.2656 14.1233 12.3193 14.1343 12.3746C14.1453 12.4298 14.1508 12.4857 14.1508 12.542Z"
        fill="#12AAFF" />
    <path
        d="M57.558 51.6745C56.8178 51.6745 56.1664 51.9705 55.6927 52.4441C55.1894 52.9178 54.8933 53.569 54.8933 54.309C54.8933 55.0491 55.1894 55.7003 55.6927 56.1739C56.1664 56.6476 56.8178 56.9436 57.558 56.9436C58.2686 56.9436 58.9199 56.6476 59.4233 56.1739C59.897 55.7003 60.1931 55.0491 60.1931 54.309C60.1931 53.569 59.897 52.9178 59.4233 52.4441C58.9199 51.9705 58.2686 51.6745 57.558 51.6745ZM55.367 52.1185C55.9296 51.5561 56.6994 51.2305 57.558 51.2305C58.387 51.2305 59.1568 51.5561 59.7193 52.1185C60.2819 52.6809 60.6372 53.4506 60.6372 54.309C60.6372 55.1675 60.2819 55.9371 59.7193 56.4996C59.1568 57.062 58.387 57.3876 57.558 57.3876C56.6994 57.3876 55.9296 57.062 55.367 56.4996C54.8045 55.9371 54.4492 55.1675 54.4492 54.309C54.4492 53.4506 54.8045 52.6809 55.367 52.1185Z"
        fill="#12AAFF" />
    <path
        d="M7.66902 73.9948C6.92883 73.9948 6.27747 74.2908 5.80375 74.7644C5.33003 75.2381 5.03396 75.9189 5.03396 76.6293C5.03396 77.3694 5.33003 78.0206 5.80375 78.4942C6.27747 78.9975 6.92883 79.2639 7.66902 79.2639C8.4092 79.2639 9.06056 78.9975 9.53428 78.4942C10.008 78.0206 10.3041 77.3694 10.3041 76.6293C10.3041 75.9189 10.008 75.2381 9.53428 74.7644C9.06056 74.2908 8.4092 73.9948 7.66902 73.9948ZM5.47807 74.4684C6.04061 73.906 6.8104 73.5508 7.66902 73.5508C8.52763 73.5508 9.29742 73.906 9.85996 74.4684C10.4225 75.0013 10.7482 75.8005 10.7482 76.6293C10.7482 77.4878 10.4225 78.2574 9.85996 78.8199C9.29742 79.3823 8.52763 79.7375 7.66902 79.7375C6.8104 79.7375 6.04061 79.3823 5.47807 78.8199C4.91553 78.2574 4.58984 77.4878 4.58984 76.6293C4.58984 75.8005 4.91553 75.0013 5.47807 74.4684Z"
        fill="#12AAFF" />
</svg>