<svg width="529" height="256" viewBox="0 0 529 256" fill="none" xmlns="http://www.w3.org/2000/svg">
    <rect width="529" height="256" fill="white" />
    <path d="M35.0918 61.1145V244.475" stroke="#D7D7D7" stroke-width="1.09143" stroke-dasharray="4.37 4.37" />
    <path d="M80.9316 61.1145V244.475" stroke="#D7D7D7" stroke-width="1.09143" stroke-dasharray="4.37 4.37" />
    <path d="M126.771 61.1145V244.475" stroke="#D7D7D7" stroke-width="1.09143" stroke-dasharray="4.37 4.37" />
    <path d="M172.611 61.1145V244.475" stroke="#D7D7D7" stroke-width="1.09143" stroke-dasharray="4.37 4.37" />
    <path d="M218.452 61.1145V244.475" stroke="#D7D7D7" stroke-width="1.09143" stroke-dasharray="4.37 4.37" />
    <path d="M264.292 61.1145V244.475" stroke="#D7D7D7" stroke-width="1.09143" stroke-dasharray="4.37 4.37" />
    <path d="M355.973 61.1145V244.475" stroke="#D7D7D7" stroke-width="1.09143" stroke-dasharray="4.37 4.37" />
    <path d="M401.812 61.1145V244.475" stroke="#D7D7D7" stroke-width="1.09143" stroke-dasharray="4.37 4.37" />
    <path d="M447.652 61.1145V244.475" stroke="#D7D7D7" stroke-width="1.09143" stroke-dasharray="4.37 4.37" />
    <path d="M493.493 61.1145V244.475" stroke="#D7D7D7" stroke-width="1.09143" stroke-dasharray="4.37 4.37" />
    <path d="M310.133 61.1145V244.475" stroke="#D7D7D7" stroke-width="1.09143" stroke-dasharray="4.37 4.37" />
    <rect x="35.0918" y="61.1145" width="458.402" height="33.8344" fill="#1E58A7" />
    <path
        d="M54.257 59.8286H35.0827V56.1614C35.0827 54.6945 35.3039 53.507 35.7463 52.599C36.1887 51.6909 36.7941 50.9458 37.5624 50.3637C38.3541 49.7816 39.2505 49.2461 40.2517 48.7571L46.4685 45.7186C46.8178 45.5556 47.0972 45.4042 47.3067 45.2645C47.5163 45.1015 47.6676 44.9153 47.7608 44.7057C47.8539 44.4729 47.9005 44.1818 47.9005 43.8326C47.9005 43.3902 47.8074 43.0409 47.6211 42.7848C47.4348 42.5287 47.1088 42.3424 46.6432 42.226C46.1775 42.1096 45.5255 42.0514 44.6873 42.0514C43.756 42.0514 43.0574 42.1329 42.5918 42.2958C42.1261 42.4588 41.8117 42.7266 41.6488 43.0991C41.5091 43.4484 41.4392 43.9257 41.4392 44.5311V45.1598H34.8731V44.6009C34.8731 43.0409 35.2108 41.6206 35.886 40.34C36.5845 39.0361 37.6905 38 39.204 37.2316C40.7174 36.4632 42.7198 36.079 45.2112 36.079C47.3766 36.079 49.1345 36.4167 50.485 37.0919C51.8588 37.7671 52.86 38.6868 53.4886 39.851C54.1406 40.9919 54.4665 42.2726 54.4665 43.6929C54.4665 45.183 54.1522 46.4287 53.5235 47.4299C52.8949 48.4079 52.0916 49.2112 51.1137 49.8398C50.1357 50.4452 49.1345 50.9225 48.11 51.2718L43.7443 52.7387C43.0691 52.9715 42.6383 53.2043 42.4521 53.4372C42.2658 53.67 42.1726 53.9494 42.1726 54.2754L45.5255 53.9261H54.257V59.8286ZM75.3694 59.8286H56.1951V56.1614C56.1951 54.6945 56.4163 53.507 56.8587 52.599C57.3011 51.6909 57.9065 50.9458 58.6748 50.3637C59.4665 49.7816 60.3629 49.2461 61.3641 48.7571L67.5809 45.7186C67.9302 45.5556 68.2096 45.4042 68.4191 45.2645C68.6287 45.1015 68.7801 44.9153 68.8732 44.7057C68.9663 44.4729 69.0129 44.1818 69.0129 43.8326C69.0129 43.3902 68.9198 43.0409 68.7335 42.7848C68.5472 42.5287 68.2212 42.3424 67.7556 42.226C67.2899 42.1096 66.6379 42.0514 65.7997 42.0514C64.8684 42.0514 64.1698 42.1329 63.7042 42.2958C63.2385 42.4588 62.9241 42.7266 62.7612 43.0991C62.6215 43.4484 62.5516 43.9257 62.5516 44.5311V45.1598H55.9855V44.6009C55.9855 43.0409 56.3232 41.6206 56.9984 40.34C57.6969 39.0361 58.8029 38 60.3164 37.2316C61.8298 36.4632 63.8322 36.079 66.3236 36.079C68.489 36.079 70.2469 36.4167 71.5974 37.0919C72.9712 37.7671 73.9724 38.6868 74.601 39.851C75.253 40.9919 75.5789 42.2726 75.5789 43.6929C75.5789 45.183 75.2646 46.4287 74.636 47.4299C74.0073 48.4079 73.204 49.2112 72.2261 49.8398C71.2481 50.4452 70.2469 50.9225 69.2224 51.2718L64.8567 52.7387C64.1815 52.9715 63.7507 53.2043 63.5645 53.4372C63.3782 53.67 63.2851 53.9494 63.2851 54.2754L66.6379 53.9261H75.3694V59.8286ZM87.717 60.1779C85.3421 60.1779 83.3397 59.6773 81.7098 58.6761C80.1032 57.6516 78.8924 56.2429 78.0775 54.45C77.2626 52.6339 76.8551 50.5267 76.8551 48.1285C76.8551 45.7302 77.2626 43.6347 78.0775 41.8418C78.8924 40.0257 80.1032 38.617 81.7098 37.6158C83.3397 36.5913 85.3421 36.079 87.717 36.079C90.092 36.079 92.0828 36.5913 93.6894 37.6158C95.3192 38.617 96.5416 40.0257 97.3566 41.8418C98.1715 43.6347 98.579 45.7302 98.579 48.1285C98.579 50.5267 98.1715 52.6339 97.3566 54.45C96.5416 56.2429 95.3192 57.6516 93.6894 58.6761C92.0828 59.6773 90.092 60.1779 87.717 60.1779ZM87.717 53.7864C88.7182 53.7864 89.4866 53.6584 90.0221 53.4023C90.581 53.1229 90.9651 52.5757 91.1747 51.7607C91.4075 50.9458 91.524 49.735 91.524 48.1285C91.524 46.4986 91.4075 45.2878 91.1747 44.4962C90.9651 43.6812 90.581 43.1457 90.0221 42.8896C89.4866 42.6102 88.7182 42.4705 87.717 42.4705C86.7158 42.4705 85.9358 42.6102 85.377 42.8896C84.8182 43.1457 84.434 43.6812 84.2245 44.4962C84.0149 45.2878 83.9101 46.4986 83.9101 48.1285C83.9101 49.735 84.0149 50.9458 84.2245 51.7607C84.434 52.5757 84.8182 53.1229 85.377 53.4023C85.9358 53.6584 86.7158 53.7864 87.717 53.7864ZM135.723 59.8286H129.157V49.7001C129.157 48.7455 128.994 48.0819 128.668 47.7093C128.365 47.3368 127.678 47.1505 126.607 47.1505C125.582 47.1505 124.872 47.3252 124.476 47.6744C124.104 48.0004 123.918 48.6407 123.918 49.5953L123.254 49.6652L122.87 44.6009H123.464C123.883 43.9257 124.372 43.3669 124.931 42.9245C125.513 42.4588 126.176 42.1096 126.921 41.8767C127.666 41.6439 128.47 41.5275 129.331 41.5275C130.891 41.5275 132.137 41.8418 133.068 42.4705C134 43.0758 134.675 43.9024 135.094 44.9502C135.513 45.9747 135.723 47.104 135.723 48.338V59.8286ZM112.113 59.8286H105.582V41.8767H111.694V46.8013L112.113 46.9759V59.8286ZM123.918 59.8286H117.352V49.7001C117.352 48.7455 117.189 48.0819 116.863 47.7093C116.56 47.3368 115.873 47.1505 114.802 47.1505C113.778 47.1505 113.067 47.3252 112.672 47.6744C112.299 48.0004 112.113 48.6407 112.113 49.5953L111.449 49.6652L111.065 44.6009H112.008C112.334 43.9257 112.765 43.3669 113.3 42.9245C113.859 42.4588 114.499 42.1096 115.221 41.8767C115.943 41.6439 116.711 41.5275 117.526 41.5275C119.086 41.5275 120.332 41.8418 121.263 42.4705C122.195 43.0758 122.87 43.9024 123.289 44.9502C123.708 45.9747 123.918 47.104 123.918 48.338V59.8286ZM144.208 40.2701H137.677V36.4283H144.208V40.2701ZM144.243 59.8286H137.677V41.8767H144.243V59.8286ZM152.871 59.8286H146.34V36.4283H152.871V59.8286ZM161.568 59.8286H155.037V36.4283H161.568V59.8286ZM170.197 40.2701H163.666V36.4283H170.197V40.2701ZM170.232 59.8286H163.666V41.8767H170.232V59.8286ZM181.068 60.1779C179.088 60.1779 177.4 59.8053 176.003 59.0602C174.606 58.3152 173.535 57.2441 172.79 55.8471C172.068 54.45 171.707 52.7852 171.707 50.8527C171.707 48.8968 172.068 47.232 172.79 45.8583C173.535 44.4612 174.606 43.3902 176.003 42.6451C177.4 41.9 179.088 41.5275 181.068 41.5275C183.047 41.5275 184.735 41.9 186.132 42.6451C187.529 43.3902 188.588 44.4612 189.31 45.8583C190.055 47.232 190.428 48.8968 190.428 50.8527C190.428 52.7852 190.055 54.45 189.31 55.8471C188.588 57.2441 187.529 58.3152 186.132 59.0602C184.735 59.8053 183.047 60.1779 181.068 60.1779ZM181.068 54.485C182.162 54.485 182.907 54.2405 183.303 53.7515C183.699 53.2393 183.897 52.273 183.897 50.8527C183.897 49.4091 183.699 48.4428 183.303 47.9538C182.907 47.4649 182.162 47.2204 181.068 47.2204C179.973 47.2204 179.228 47.4649 178.832 47.9538C178.436 48.4428 178.239 49.4091 178.239 50.8527C178.239 52.273 178.436 53.2393 178.832 53.7515C179.228 54.2405 179.973 54.485 181.068 54.485ZM210.592 59.8286H204.026V49.7001C204.026 48.7455 203.852 48.0819 203.503 47.7093C203.177 47.3368 202.431 47.1505 201.267 47.1505C200.545 47.1505 199.975 47.2204 199.556 47.3601C199.16 47.4998 198.869 47.7443 198.683 48.0935C198.52 48.4428 198.438 48.9434 198.438 49.5953H197.39V44.6009H198.333C198.659 43.9257 199.113 43.3669 199.696 42.9245C200.278 42.4588 200.953 42.1096 201.721 41.8767C202.49 41.6439 203.316 41.5275 204.201 41.5275C205.761 41.5275 207.007 41.8418 207.938 42.4705C208.869 43.0758 209.545 43.9024 209.964 44.9502C210.383 45.9747 210.592 47.104 210.592 48.338V59.8286ZM198.438 59.8286H191.907V41.8767H198.019V46.8013L198.438 46.9759V59.8286ZM223.173 59.8286H216.398L224.535 36.4283H234.07L242.173 59.8286H234.978L231.276 48.2332L229.425 42.1212H228.936L227.015 48.2332L223.173 59.8286ZM237.528 55.3232H221.287V49.5953H237.528V55.3232ZM249.058 59.8286H242.492V36.4283H254.262C256.241 36.4283 257.871 36.7077 259.152 37.2665C260.433 37.802 261.387 38.6053 262.016 39.6764C262.645 40.7475 262.959 42.063 262.959 43.623C262.959 44.8571 262.784 45.9281 262.435 46.8362C262.086 47.7443 261.515 48.4777 260.724 49.0365C259.955 49.5721 258.907 49.9213 257.58 50.0843V50.3986C258.768 50.7013 259.653 51.2136 260.235 51.9354C260.84 52.6572 261.364 53.5187 261.806 54.5199L264.251 59.8286H256.602L254.297 54.9739C253.971 54.2987 253.669 53.7748 253.389 53.4023C253.133 53.0064 252.795 52.7387 252.376 52.599C251.98 52.436 251.41 52.3545 250.665 52.3545H249.058V59.8286ZM249.058 42.3308V46.9061H254.018C254.949 46.9061 255.578 46.7431 255.904 46.4171C256.23 46.0911 256.393 45.4624 256.393 44.5311C256.393 43.6696 256.23 43.0875 255.904 42.7848C255.578 42.4821 254.949 42.3308 254.018 42.3308H249.058ZM278.135 59.8286H265.003V36.4283H277.437C279.23 36.4283 280.708 36.6379 281.872 37.057C283.06 37.4528 283.945 38.0815 284.527 38.943C285.109 39.7812 285.4 40.8639 285.4 42.1911C285.4 43.6579 285.004 44.8221 284.212 45.6836C283.421 46.5451 282.222 47.0458 280.615 47.1855V47.6395C282.594 47.7093 284.061 48.2798 285.016 49.3509C285.994 50.4219 286.482 51.7491 286.482 53.3324C286.482 54.6829 286.18 55.8471 285.574 56.825C284.992 57.8029 284.084 58.548 282.85 59.0602C281.616 59.5725 280.044 59.8286 278.135 59.8286ZM271.569 50.4336V53.9261H277.891C278.519 53.9261 278.997 53.833 279.323 53.6467C279.649 53.4605 279.812 52.9831 279.812 52.2148C279.812 51.4231 279.66 50.9342 279.358 50.7479C279.055 50.5383 278.566 50.4336 277.891 50.4336H271.569ZM271.569 42.3308V45.3344H277.087C277.763 45.3344 278.217 45.2296 278.45 45.0201C278.706 44.8105 278.834 44.4147 278.834 43.8326C278.834 43.2039 278.682 42.7964 278.38 42.6102C278.1 42.4239 277.623 42.3308 276.948 42.3308H271.569Z"
        fill="#1E58A7" />
    <path
        d="M38.4661 25H37.0647V16.2249H38.4661V25ZM41.4523 17.4953H34.0786V16.2249H41.4523V17.4953ZM44.4336 25.131C43.77 25.131 43.1937 24.9913 42.7047 24.7119C42.2158 24.4237 41.8403 24.0264 41.5784 23.52C41.3164 23.0049 41.1854 22.4111 41.1854 21.7388C41.1854 21.0665 41.3164 20.4771 41.5784 19.9707C41.8403 19.4643 42.2158 19.0713 42.7047 18.7919C43.1937 18.5038 43.77 18.3597 44.4336 18.3597C45.0971 18.3597 45.6647 18.5038 46.1362 18.7919C46.6164 19.0713 46.9831 19.4643 47.2364 19.9707C47.4983 20.4771 47.6293 21.0665 47.6293 21.7388C47.6293 22.4111 47.4983 23.0049 47.2364 23.52C46.9831 24.0264 46.6164 24.4237 46.1362 24.7119C45.6647 24.9913 45.0971 25.131 44.4336 25.131ZM44.4336 23.8736C45.1146 23.8736 45.5905 23.7034 45.8611 23.3629C46.1318 23.0136 46.2672 22.4722 46.2672 21.7388C46.2672 21.0054 46.1318 20.4684 45.8611 20.1278C45.5905 19.7873 45.1146 19.6171 44.4336 19.6171C43.7438 19.6171 43.2635 19.7873 42.9929 20.1278C42.7222 20.4684 42.5868 21.0054 42.5868 21.7388C42.5868 22.4722 42.7222 23.0136 42.9929 23.3629C43.2635 23.7034 43.7438 23.8736 44.4336 23.8736ZM51.3469 25C50.6309 25 50.0809 24.8472 49.6967 24.5416C49.3212 24.236 49.1335 23.7208 49.1335 22.9961V18.6348L49.4609 16.8797H50.548V22.9306C50.548 23.2712 50.6309 23.4895 50.7968 23.5855C50.9715 23.6728 51.2814 23.7165 51.7267 23.7165H52.5126V24.8821C52.3816 24.9171 52.2113 24.9476 52.0018 24.9738C51.7922 24.9913 51.5739 25 51.3469 25ZM52.5126 19.6694H48.0464V18.4907H52.5126V19.6694ZM58.9585 25H57.6488V23.7165L57.6095 23.3629V20.8613C57.6095 20.3723 57.4917 20.0405 57.2559 19.8659C57.0289 19.6913 56.6578 19.604 56.1426 19.604C55.6275 19.604 55.2564 19.6956 55.0294 19.879C54.8111 20.0624 54.702 20.368 54.702 20.7958V20.9923H53.3398V20.8613C53.3398 20.3723 53.4577 19.9401 53.6935 19.5647C53.9379 19.1892 54.2741 18.8967 54.702 18.6872C55.1385 18.4689 55.645 18.3597 56.2212 18.3597C56.8324 18.3597 57.3389 18.4732 57.7405 18.7003C58.1421 18.9273 58.4434 19.2416 58.6442 19.6432C58.8538 20.0362 58.9585 20.5033 58.9585 21.0446V25ZM55.2258 25.131C54.6408 25.131 54.1475 24.9825 53.7459 24.6857C53.3529 24.3801 53.1565 23.9479 53.1565 23.389C53.1565 23.0223 53.2394 22.7167 53.4053 22.4722C53.58 22.2278 53.8288 22.0269 54.1519 21.8698C54.4749 21.7126 54.8679 21.6035 55.3306 21.5423L57.7405 21.2018V22.1972L55.5402 22.5246C55.1647 22.577 54.9028 22.6556 54.7543 22.7604C54.6059 22.8652 54.5317 23.0398 54.5317 23.2843C54.5317 23.5375 54.619 23.7208 54.7936 23.8343C54.977 23.9479 55.2739 24.0046 55.6842 24.0046C55.9986 24.0046 56.2998 23.9566 56.5879 23.8605C56.8848 23.7558 57.1293 23.5855 57.3214 23.3498C57.5135 23.1053 57.6095 22.7647 57.6095 22.3282L57.7929 23.9915L57.5833 23.9784C57.4611 24.1792 57.2908 24.367 57.0725 24.5416C56.863 24.7162 56.6054 24.8603 56.2998 24.9738C55.9942 25.0786 55.6362 25.131 55.2258 25.131ZM61.7275 25H60.313V16.2249H61.7275V25ZM67.0363 25H65.6218V16.2249H67.0363V25ZM71.6465 21.4769H66.054V20.2064H71.6465V21.4769ZM71.843 17.4953H66.054V16.2249H71.843V17.4953ZM75.2832 25.131C74.7244 25.131 74.2616 25.0175 73.8949 24.7904C73.5281 24.5547 73.2575 24.2404 73.0828 23.8474C72.9082 23.4458 72.8209 23.0005 72.8209 22.5115V18.4907H74.2354V22.2496C74.2354 22.8346 74.3576 23.2581 74.6021 23.52C74.8466 23.782 75.2482 23.9129 75.8071 23.9129C76.1738 23.9129 76.4837 23.8562 76.737 23.7427C76.9902 23.6204 77.1823 23.4327 77.3132 23.1795C77.4442 22.9175 77.5097 22.577 77.5097 22.1579H77.8764V23.7034H77.5621C77.466 23.9479 77.3176 24.1792 77.1168 24.3975C76.9247 24.6158 76.6758 24.7948 76.3702 24.9345C76.0734 25.0655 75.711 25.131 75.2832 25.131ZM78.9242 25H77.6145V23.0485L77.5097 22.983V18.4907H78.9242V25ZM86.3809 25H84.9664V21.2149C84.9664 20.6386 84.8572 20.2239 84.639 19.9707C84.4207 19.7087 84.0103 19.5778 83.4078 19.5778C83.0236 19.5778 82.7093 19.6345 82.4648 19.748C82.2203 19.8528 82.037 20.0274 81.9147 20.2719C81.7925 20.5077 81.7314 20.8307 81.7314 21.2411H81.4825L81.3647 19.7087H81.679C81.775 19.473 81.9191 19.2547 82.1112 19.0539C82.3033 18.8531 82.5478 18.6872 82.8446 18.5562C83.1502 18.4252 83.5126 18.3597 83.9317 18.3597C84.4993 18.3597 84.962 18.4689 85.32 18.6872C85.678 18.9054 85.9443 19.2067 86.1189 19.5909C86.2936 19.975 86.3809 20.416 86.3809 20.9137V25ZM81.7314 25H80.3169V18.4907H81.6135V20.4422L81.7314 20.5077V25ZM90.316 25.131C89.3904 25.131 88.6788 24.8254 88.1811 24.2142C87.6922 23.5942 87.4477 22.7691 87.4477 21.7388C87.4477 20.7085 87.6878 19.8877 88.168 19.2765C88.657 18.6653 89.3468 18.3597 90.2374 18.3597C90.8137 18.3597 91.2764 18.4776 91.6257 18.7133C91.9837 18.9404 92.2325 19.2023 92.3722 19.4992H92.7259L92.6604 21.1625H92.4115C92.4115 20.7958 92.3417 20.4946 92.202 20.2588C92.0623 20.0231 91.8614 19.8484 91.5995 19.7349C91.3376 19.6214 91.0145 19.5647 90.6303 19.5647C90.316 19.5647 90.0453 19.604 89.8183 19.6825C89.6 19.7611 89.4166 19.8834 89.2682 20.0493C89.1285 20.2152 89.0237 20.4378 88.9539 20.7172C88.8928 20.9966 88.8622 21.3372 88.8622 21.7388C88.8622 22.1317 88.8928 22.4722 88.9539 22.7604C89.0237 23.0398 89.1285 23.2668 89.2682 23.4414C89.4166 23.6073 89.6044 23.7296 89.8314 23.8082C90.0584 23.8867 90.3247 23.926 90.6303 23.926C91.0145 23.926 91.3376 23.8693 91.5995 23.7558C91.8614 23.6335 92.0623 23.4545 92.202 23.2188C92.3417 22.983 92.4115 22.6862 92.4115 22.3282H92.6604L92.7259 23.926H92.4639C92.3155 24.3015 92.0579 24.5984 91.6912 24.8166C91.3332 25.0262 90.8748 25.131 90.316 25.131ZM93.826 25H92.5163V23.4545L92.4115 23.2843V16.2249H93.826V25ZM96.5403 17.6656H95.1389L95.1258 16.2249H96.5403V17.6656ZM96.5534 25H95.1389V18.4514H96.5534V25ZM103.916 25H102.502V21.2149C102.502 20.6386 102.393 20.2239 102.174 19.9707C101.956 19.7087 101.546 19.5778 100.943 19.5778C100.559 19.5778 100.245 19.6345 100 19.748C99.7557 19.8528 99.5724 20.0274 99.4501 20.2719C99.3279 20.5077 99.2668 20.8307 99.2668 21.2411H99.0179L98.9001 19.7087H99.2144C99.3104 19.473 99.4545 19.2547 99.6466 19.0539C99.8387 18.8531 100.083 18.6872 100.38 18.5562C100.686 18.4252 101.048 18.3597 101.467 18.3597C102.035 18.3597 102.497 18.4689 102.855 18.6872C103.213 18.9054 103.48 19.2067 103.654 19.5909C103.829 19.975 103.916 20.416 103.916 20.9137V25ZM99.2668 25H97.8523V18.4907H99.1489V20.4422L99.2668 20.5077V25ZM108.323 27.3575C107.712 27.3575 107.179 27.2614 106.725 27.0694C106.28 26.8773 105.935 26.5979 105.69 26.2311C105.446 25.8731 105.324 25.4322 105.324 24.9083H106.738C106.738 25.2052 106.782 25.4409 106.869 25.6156C106.956 25.7902 107.118 25.9124 107.354 25.9823C107.589 26.0609 107.926 26.1002 108.362 26.1002C108.79 26.1002 109.117 26.0521 109.344 25.9561C109.571 25.86 109.729 25.6985 109.816 25.4715C109.903 25.2445 109.947 24.9301 109.947 24.5285V20.2064L110.052 20.0362V18.4907H111.361V24.5285C111.361 25.1659 111.239 25.6898 110.995 26.1002C110.75 26.5193 110.401 26.8336 109.947 27.0432C109.502 27.2527 108.96 27.3575 108.323 27.3575ZM107.773 24.3844C106.873 24.3844 106.184 24.1138 105.703 23.5724C105.223 23.0223 104.983 22.2889 104.983 21.3721C104.983 20.4553 105.228 19.7262 105.717 19.1848C106.206 18.6348 106.908 18.3597 107.825 18.3597C108.358 18.3597 108.816 18.4689 109.2 18.6872C109.585 18.8967 109.851 19.1892 109.999 19.5647H110.261L110.196 21.1625H109.947C109.947 20.7958 109.873 20.4946 109.724 20.2588C109.576 20.0231 109.366 19.8484 109.096 19.7349C108.825 19.6214 108.511 19.5647 108.153 19.5647C107.742 19.5647 107.406 19.6214 107.144 19.7349C106.891 19.8484 106.703 20.0405 106.581 20.3112C106.459 20.5731 106.398 20.9268 106.398 21.3721C106.398 21.7039 106.433 21.9876 106.502 22.2234C106.572 22.4504 106.681 22.6338 106.83 22.7735C106.978 22.9132 107.166 23.018 107.393 23.0878C107.62 23.1489 107.882 23.1795 108.179 23.1795C108.537 23.1795 108.847 23.1227 109.109 23.0092C109.371 22.887 109.576 22.708 109.724 22.4722C109.873 22.2365 109.947 21.9353 109.947 21.5685H110.235V23.2319H109.895C109.746 23.5462 109.489 23.8169 109.122 24.0439C108.755 24.2709 108.305 24.3844 107.773 24.3844ZM116.125 25H114.645L118.064 16.2249H120.094L123.512 25H121.98L119.674 19.1325L119.111 17.4953H119.007L118.43 19.1325L116.125 25ZM121.862 22.7211H116.335V21.4507H121.862V22.7211ZM125.64 25H124.226V16.2249H125.64V25ZM128.505 25H127.091V16.2249H128.505V25ZM132.827 25.131C132.163 25.131 131.587 24.9913 131.098 24.7119C130.609 24.4237 130.234 24.0264 129.972 23.52C129.71 23.0049 129.579 22.4111 129.579 21.7388C129.579 21.0665 129.71 20.4771 129.972 19.9707C130.234 19.4643 130.609 19.0713 131.098 18.7919C131.587 18.5038 132.163 18.3597 132.827 18.3597C133.49 18.3597 134.058 18.5038 134.529 18.7919C135.01 19.0713 135.376 19.4643 135.63 19.9707C135.892 20.4771 136.023 21.0665 136.023 21.7388C136.023 22.4111 135.892 23.0049 135.63 23.52C135.376 24.0264 135.01 24.4237 134.529 24.7119C134.058 24.9913 133.49 25.131 132.827 25.131ZM132.827 23.8736C133.508 23.8736 133.984 23.7034 134.254 23.3629C134.525 23.0136 134.66 22.4722 134.66 21.7388C134.66 21.0054 134.525 20.4684 134.254 20.1278C133.984 19.7873 133.508 19.6171 132.827 19.6171C132.137 19.6171 131.657 19.7873 131.386 20.1278C131.115 20.4684 130.98 21.0054 130.98 21.7388C130.98 22.4722 131.115 23.0136 131.386 23.3629C131.657 23.7034 132.137 23.8736 132.827 23.8736ZM140.065 25.1441C139.383 25.1441 138.807 25 138.336 24.7119C137.864 24.4237 137.502 24.0264 137.249 23.52C137.004 23.0136 136.882 22.4242 136.882 21.7519C136.882 21.0796 137.009 20.4902 137.262 19.9838C137.524 19.4686 137.895 19.0713 138.375 18.7919C138.855 18.5038 139.436 18.3597 140.117 18.3597C140.693 18.3597 141.2 18.4689 141.636 18.6872C142.073 18.9054 142.409 19.211 142.645 19.604C142.889 19.9969 143.011 20.4553 143.011 20.9792V21.097H141.61V21.0185C141.61 20.5382 141.479 20.189 141.217 19.9707C140.964 19.7437 140.567 19.6302 140.025 19.6302C139.397 19.6302 138.947 19.8091 138.676 20.1671C138.414 20.5164 138.283 21.0403 138.283 21.7388C138.283 22.446 138.414 22.9787 138.676 23.3367C138.947 23.6859 139.397 23.8605 140.025 23.8605C140.567 23.8605 140.964 23.7514 141.217 23.5331C141.479 23.3061 141.61 22.9568 141.61 22.4853V22.4068H143.011V22.5246C143.011 23.0311 142.889 23.4851 142.645 23.8867C142.4 24.2797 142.055 24.5896 141.61 24.8166C141.173 25.0349 140.658 25.1441 140.065 25.1441ZM149.641 25H148.332V23.7165L148.292 23.3629V20.8613C148.292 20.3723 148.174 20.0405 147.939 19.8659C147.712 19.6913 147.341 19.604 146.825 19.604C146.31 19.604 145.939 19.6956 145.712 19.879C145.494 20.0624 145.385 20.368 145.385 20.7958V20.9923H144.023V20.8613C144.023 20.3723 144.14 19.9401 144.376 19.5647C144.621 19.1892 144.957 18.8967 145.385 18.6872C145.821 18.4689 146.328 18.3597 146.904 18.3597C147.515 18.3597 148.022 18.4732 148.423 18.7003C148.825 18.9273 149.126 19.2416 149.327 19.6432C149.536 20.0362 149.641 20.5033 149.641 21.0446V25ZM145.909 25.131C145.324 25.131 144.83 24.9825 144.429 24.6857C144.036 24.3801 143.839 23.9479 143.839 23.389C143.839 23.0223 143.922 22.7167 144.088 22.4722C144.263 22.2278 144.512 22.0269 144.835 21.8698C145.158 21.7126 145.551 21.6035 146.013 21.5423L148.423 21.2018V22.1972L146.223 22.5246C145.847 22.577 145.585 22.6556 145.437 22.7604C145.289 22.8652 145.214 23.0398 145.214 23.2843C145.214 23.5375 145.302 23.7208 145.476 23.8343C145.66 23.9479 145.957 24.0046 146.367 24.0046C146.681 24.0046 146.983 23.9566 147.271 23.8605C147.568 23.7558 147.812 23.5855 148.004 23.3498C148.196 23.1053 148.292 22.7647 148.292 22.3282L148.476 23.9915L148.266 23.9784C148.144 24.1792 147.974 24.367 147.755 24.5416C147.546 24.7162 147.288 24.8603 146.983 24.9738C146.677 25.0786 146.319 25.131 145.909 25.131ZM153.643 25C152.927 25 152.377 24.8472 151.993 24.5416C151.617 24.236 151.43 23.7208 151.43 22.9961V18.6348L151.757 16.8797H152.844V22.9306C152.844 23.2712 152.927 23.4895 153.093 23.5855C153.268 23.6728 153.578 23.7165 154.023 23.7165H154.809V24.8821C154.678 24.9171 154.508 24.9476 154.298 24.9738C154.088 24.9913 153.87 25 153.643 25ZM154.809 19.6694H150.343V18.4907H154.809V19.6694ZM157.051 17.6656H155.649L155.636 16.2249H157.051V17.6656ZM157.064 25H155.649V18.4514H157.064V25ZM161.285 25.131C160.621 25.131 160.045 24.9913 159.556 24.7119C159.067 24.4237 158.692 24.0264 158.43 23.52C158.168 23.0049 158.037 22.4111 158.037 21.7388C158.037 21.0665 158.168 20.4771 158.43 19.9707C158.692 19.4643 159.067 19.0713 159.556 18.7919C160.045 18.5038 160.621 18.3597 161.285 18.3597C161.949 18.3597 162.516 18.5038 162.988 18.7919C163.468 19.0713 163.835 19.4643 164.088 19.9707C164.35 20.4771 164.481 21.0665 164.481 21.7388C164.481 22.4111 164.35 23.0049 164.088 23.52C163.835 24.0264 163.468 24.4237 162.988 24.7119C162.516 24.9913 161.949 25.131 161.285 25.131ZM161.285 23.8736C161.966 23.8736 162.442 23.7034 162.713 23.3629C162.983 23.0136 163.119 22.4722 163.119 21.7388C163.119 21.0054 162.983 20.4684 162.713 20.1278C162.442 19.7873 161.966 19.6171 161.285 19.6171C160.595 19.6171 160.115 19.7873 159.844 20.1278C159.574 20.4684 159.438 21.0054 159.438 21.7388C159.438 22.4722 159.574 23.0136 159.844 23.3629C160.115 23.7034 160.595 23.8736 161.285 23.8736ZM171.602 25H170.188V21.2149C170.188 20.6386 170.079 20.2239 169.86 19.9707C169.642 19.7087 169.232 19.5778 168.629 19.5778C168.245 19.5778 167.931 19.6345 167.686 19.748C167.442 19.8528 167.258 20.0274 167.136 20.2719C167.014 20.5077 166.953 20.8307 166.953 21.2411H166.704L166.586 19.7087H166.9C166.996 19.473 167.14 19.2547 167.332 19.0539C167.525 18.8531 167.769 18.6872 168.066 18.5562C168.372 18.4252 168.734 18.3597 169.153 18.3597C169.721 18.3597 170.183 18.4689 170.541 18.6872C170.899 18.9054 171.166 19.2067 171.34 19.5909C171.515 19.975 171.602 20.416 171.602 20.9137V25ZM166.953 25H165.538V18.4907H166.835V20.4422L166.953 20.5077V25Z"
        fill="#575757" />
    <rect width="91" height="33.8344" transform="matrix(-1 0 0 1 493 201.92)" fill="#4E6D97" />
    <path
        d="M424.776 200H410.395V197.25C410.395 196.149 410.561 195.259 410.893 194.578C411.225 193.897 411.679 193.338 412.255 192.901C412.849 192.465 413.521 192.063 414.272 191.696L418.934 189.417C419.196 189.295 419.406 189.182 419.563 189.077C419.72 188.955 419.834 188.815 419.904 188.658C419.973 188.483 420.008 188.265 420.008 188.003C420.008 187.671 419.939 187.409 419.799 187.217C419.659 187.025 419.415 186.885 419.065 186.798C418.716 186.711 418.227 186.667 417.598 186.667C416.9 186.667 416.376 186.728 416.027 186.85C415.678 186.973 415.442 187.173 415.32 187.453C415.215 187.715 415.162 188.073 415.162 188.527V188.998H410.238V188.579C410.238 187.409 410.491 186.344 410.998 185.384C411.521 184.406 412.351 183.629 413.486 183.052C414.621 182.476 416.123 182.188 417.991 182.188C419.615 182.188 420.934 182.441 421.947 182.947C422.977 183.454 423.728 184.144 424.199 185.017C424.688 185.872 424.933 186.833 424.933 187.898C424.933 189.016 424.697 189.95 424.226 190.701C423.754 191.434 423.152 192.037 422.418 192.508C421.685 192.962 420.934 193.32 420.166 193.582L416.891 194.683C416.385 194.857 416.062 195.032 415.922 195.206C415.782 195.381 415.712 195.591 415.712 195.835L418.227 195.573H424.776V200ZM434.036 200.262C432.255 200.262 430.753 199.886 429.531 199.136C428.326 198.367 427.418 197.311 426.807 195.966C426.196 194.604 425.89 193.024 425.89 191.225C425.89 189.426 426.196 187.855 426.807 186.51C427.418 185.148 428.326 184.091 429.531 183.34C430.753 182.572 432.255 182.188 434.036 182.188C435.818 182.188 437.311 182.572 438.516 183.34C439.738 184.091 440.655 185.148 441.266 186.51C441.877 187.855 442.183 189.426 442.183 191.225C442.183 193.024 441.877 194.604 441.266 195.966C440.655 197.311 439.738 198.367 438.516 199.136C437.311 199.886 435.818 200.262 434.036 200.262ZM434.036 195.468C434.787 195.468 435.364 195.372 435.765 195.18C436.184 194.971 436.473 194.56 436.63 193.949C436.804 193.338 436.892 192.43 436.892 191.225C436.892 190.002 436.804 189.094 436.63 188.501C436.473 187.889 436.184 187.488 435.765 187.296C435.364 187.086 434.787 186.981 434.036 186.981C433.286 186.981 432.701 187.086 432.281 187.296C431.862 187.488 431.574 187.889 431.417 188.501C431.26 189.094 431.181 190.002 431.181 191.225C431.181 192.43 431.26 193.338 431.417 193.949C431.574 194.56 431.862 194.971 432.281 195.18C432.701 195.372 433.286 195.468 434.036 195.468ZM458.872 200.262C457.911 200.262 457.064 200.105 456.331 199.79C455.597 199.459 455.021 198.97 454.602 198.324C454.2 197.677 453.999 196.874 453.999 195.914C453.999 194.953 454.2 194.15 454.602 193.504C455.021 192.858 455.597 192.377 456.331 192.063C457.064 191.731 457.911 191.565 458.872 191.565C459.85 191.565 460.697 191.731 461.412 192.063C462.146 192.377 462.713 192.858 463.115 193.504C463.534 194.15 463.744 194.953 463.744 195.914C463.744 196.874 463.534 197.677 463.115 198.324C462.713 198.97 462.146 199.459 461.412 199.79C460.697 200.105 459.85 200.262 458.872 200.262ZM447.844 190.884C446.883 190.884 446.036 190.727 445.303 190.413C444.569 190.081 443.993 189.592 443.574 188.946C443.172 188.3 442.972 187.497 442.972 186.536C442.972 185.576 443.172 184.772 443.574 184.126C443.993 183.48 444.569 183 445.303 182.686C446.036 182.354 446.883 182.188 447.844 182.188C448.822 182.188 449.669 182.354 450.385 182.686C451.118 183 451.686 183.48 452.087 184.126C452.506 184.772 452.716 185.576 452.716 186.536C452.716 187.497 452.506 188.3 452.087 188.946C451.686 189.592 451.118 190.081 450.385 190.413C449.669 190.727 448.822 190.884 447.844 190.884ZM447.844 187.61C448.298 187.61 448.612 187.531 448.787 187.374C448.979 187.217 449.075 186.938 449.075 186.536C449.075 186.134 448.979 185.864 448.787 185.724C448.612 185.567 448.298 185.488 447.844 185.488C447.39 185.488 447.067 185.567 446.875 185.724C446.7 185.864 446.613 186.134 446.613 186.536C446.613 186.938 446.7 187.217 446.875 187.374C447.067 187.531 447.39 187.61 447.844 187.61ZM458.872 196.988C459.326 196.988 459.64 196.909 459.815 196.752C460.007 196.595 460.103 196.315 460.103 195.914C460.103 195.512 460.007 195.241 459.815 195.102C459.64 194.944 459.326 194.866 458.872 194.866C458.418 194.866 458.095 194.944 457.902 195.102C457.728 195.241 457.64 195.512 457.64 195.914C457.64 196.315 457.728 196.595 457.902 196.752C458.095 196.909 458.418 196.988 458.872 196.988ZM449.258 200H445.565L457.483 182.45H461.151L449.258 200Z"
        fill="#4E6D97" />
    <rect x="35" y="134.194" width="293.3" height="33.8344" fill="#85B0EB" />
    <path
        d="M52.0303 129.262C50.0745 129.262 48.4941 128.904 47.2892 128.188C46.0842 127.472 45.2023 126.415 44.6435 125.018C44.1022 123.621 43.8315 121.901 43.8315 119.858C43.8315 118.391 44.0061 117.116 44.3554 116.034C44.7221 114.951 45.246 114.052 45.9271 113.336C46.6256 112.62 47.4638 112.087 48.4417 111.738C49.4371 111.371 50.5722 111.188 51.847 111.188C53.3313 111.188 54.5799 111.432 55.5928 111.921C56.6231 112.393 57.4002 113.065 57.9241 113.938C58.4654 114.811 58.7361 115.842 58.7361 117.029V117.448H53.4972V117.291C53.4972 116.924 53.4186 116.654 53.2615 116.479C53.1218 116.287 52.886 116.156 52.5542 116.086C52.2399 116.016 51.8295 115.981 51.3231 115.981C50.6944 115.981 50.2142 116.043 49.8824 116.165C49.5506 116.27 49.3236 116.453 49.2014 116.715C49.0791 116.959 49.018 117.291 49.018 117.71V119.832H49.149C49.376 119.553 49.6903 119.299 50.092 119.072C50.4936 118.828 50.9738 118.636 51.5327 118.496C52.1089 118.339 52.7551 118.26 53.471 118.26C54.6934 118.26 55.7238 118.461 56.562 118.863C57.4177 119.247 58.0638 119.823 58.5004 120.592C58.9369 121.343 59.1552 122.286 59.1552 123.421C59.1552 125.202 58.5353 126.625 57.2954 127.69C56.073 128.738 54.318 129.262 52.0303 129.262ZM51.7684 124.599C52.5368 124.599 53.1043 124.556 53.471 124.468C53.8378 124.381 54.0822 124.233 54.2045 124.023C54.3267 123.814 54.3878 123.543 54.3878 123.211C54.3878 122.879 54.3267 122.617 54.2045 122.425C54.0822 122.216 53.8378 122.067 53.471 121.98C53.1043 121.875 52.5368 121.823 51.7684 121.823C51.0175 121.823 50.4587 121.875 50.092 121.98C49.7252 122.067 49.4808 122.216 49.3585 122.425C49.2363 122.617 49.1752 122.879 49.1752 123.211C49.1752 123.543 49.2363 123.814 49.3585 124.023C49.4808 124.233 49.7252 124.381 50.092 124.468C50.4587 124.556 51.0175 124.599 51.7684 124.599ZM76.6987 125.935H60.2224V122.347L68.6308 111.45H72.9005L69.731 117.213H69.2071L66.2209 121.273V121.508H76.6987V125.935ZM74.3412 129H69.4429V111.45H74.3412V129ZM93.1334 129.262C92.173 129.262 91.326 129.105 90.5926 128.79C89.8591 128.459 89.2829 127.97 88.8637 127.324C88.4621 126.677 88.2613 125.874 88.2613 124.914C88.2613 123.953 88.4621 123.15 88.8637 122.504C89.2829 121.858 89.8591 121.377 90.5926 121.063C91.326 120.731 92.173 120.565 93.1334 120.565C94.1114 120.565 94.9583 120.731 95.6743 121.063C96.4077 121.377 96.9753 121.858 97.3769 122.504C97.796 123.15 98.0056 123.953 98.0056 124.914C98.0056 125.874 97.796 126.677 97.3769 127.324C96.9753 127.97 96.4077 128.459 95.6743 128.79C94.9583 129.105 94.1114 129.262 93.1334 129.262ZM82.1056 119.884C81.1451 119.884 80.2982 119.727 79.5647 119.413C78.8313 119.081 78.255 118.592 77.8359 117.946C77.4343 117.3 77.2334 116.497 77.2334 115.536C77.2334 114.576 77.4343 113.772 77.8359 113.126C78.255 112.48 78.8313 112 79.5647 111.686C80.2982 111.354 81.1451 111.188 82.1056 111.188C83.0835 111.188 83.9305 111.354 84.6464 111.686C85.3799 112 85.9474 112.48 86.3491 113.126C86.7682 113.772 86.9777 114.576 86.9777 115.536C86.9777 116.497 86.7682 117.3 86.3491 117.946C85.9474 118.592 85.3799 119.081 84.6464 119.413C83.9305 119.727 83.0835 119.884 82.1056 119.884ZM82.1056 116.61C82.5596 116.61 82.874 116.531 83.0486 116.374C83.2407 116.217 83.3367 115.938 83.3367 115.536C83.3367 115.134 83.2407 114.864 83.0486 114.724C82.874 114.567 82.5596 114.488 82.1056 114.488C81.6516 114.488 81.3285 114.567 81.1364 114.724C80.9618 114.864 80.8745 115.134 80.8745 115.536C80.8745 115.938 80.9618 116.217 81.1364 116.374C81.3285 116.531 81.6516 116.61 82.1056 116.61ZM93.1334 125.988C93.5875 125.988 93.9018 125.909 94.0764 125.752C94.2685 125.595 94.3646 125.315 94.3646 124.914C94.3646 124.512 94.2685 124.241 94.0764 124.102C93.9018 123.944 93.5875 123.866 93.1334 123.866C92.6794 123.866 92.3563 123.944 92.1642 124.102C91.9896 124.241 91.9023 124.512 91.9023 124.914C91.9023 125.315 91.9896 125.595 92.1642 125.752C92.3563 125.909 92.6794 125.988 93.1334 125.988ZM83.5201 129H79.8267L91.7451 111.45H95.4123L83.5201 129Z"
        fill="#85B0EB" />
    <path
        d="M342.932 162H338.008V150.474H334V146.624H334.864C335.685 146.624 336.375 146.458 336.934 146.126C337.493 145.794 337.964 145.236 338.348 144.45H342.932V162ZM352.699 162.262C350.743 162.262 349.163 161.904 347.958 161.188C346.753 160.472 345.871 159.415 345.312 158.018C344.771 156.621 344.5 154.901 344.5 152.858C344.5 151.391 344.675 150.116 345.024 149.034C345.391 147.951 345.915 147.052 346.596 146.336C347.294 145.62 348.133 145.087 349.11 144.738C350.106 144.371 351.241 144.188 352.516 144.188C354 144.188 355.249 144.432 356.262 144.921C357.292 145.393 358.069 146.065 358.593 146.938C359.134 147.811 359.405 148.842 359.405 150.029V150.448H354.166V150.291C354.166 149.924 354.087 149.654 353.93 149.479C353.791 149.287 353.555 149.156 353.223 149.086C352.909 149.016 352.498 148.981 351.992 148.981C351.363 148.981 350.883 149.043 350.551 149.165C350.219 149.27 349.992 149.453 349.87 149.715C349.748 149.959 349.687 150.291 349.687 150.71V152.832H349.818C350.045 152.553 350.359 152.299 350.761 152.072C351.162 151.828 351.643 151.636 352.201 151.496C352.778 151.339 353.424 151.26 354.14 151.26C355.362 151.26 356.393 151.461 357.231 151.863C358.086 152.247 358.733 152.823 359.169 153.592C359.606 154.343 359.824 155.286 359.824 156.421C359.824 158.202 359.204 159.625 357.964 160.69C356.742 161.738 354.987 162.262 352.699 162.262ZM352.437 157.599C353.206 157.599 353.773 157.556 354.14 157.468C354.507 157.381 354.751 157.233 354.873 157.023C354.995 156.814 355.057 156.543 355.057 156.211C355.057 155.879 354.995 155.617 354.873 155.425C354.751 155.216 354.507 155.067 354.14 154.98C353.773 154.875 353.206 154.823 352.437 154.823C351.686 154.823 351.127 154.875 350.761 154.98C350.394 155.067 350.15 155.216 350.027 155.425C349.905 155.617 349.844 155.879 349.844 156.211C349.844 156.543 349.905 156.814 350.027 157.023C350.15 157.233 350.394 157.381 350.761 157.468C351.127 157.556 351.686 157.599 352.437 157.599ZM376.382 162.262C375.421 162.262 374.574 162.105 373.841 161.79C373.108 161.459 372.531 160.97 372.112 160.324C371.711 159.677 371.51 158.874 371.51 157.914C371.51 156.953 371.711 156.15 372.112 155.504C372.531 154.858 373.108 154.377 373.841 154.063C374.574 153.731 375.421 153.565 376.382 153.565C377.36 153.565 378.207 153.731 378.923 154.063C379.656 154.377 380.224 154.858 380.625 155.504C381.044 156.15 381.254 156.953 381.254 157.914C381.254 158.874 381.044 159.677 380.625 160.324C380.224 160.97 379.656 161.459 378.923 161.79C378.207 162.105 377.36 162.262 376.382 162.262ZM365.354 152.884C364.394 152.884 363.547 152.727 362.813 152.413C362.08 152.081 361.503 151.592 361.084 150.946C360.683 150.3 360.482 149.497 360.482 148.536C360.482 147.576 360.683 146.772 361.084 146.126C361.503 145.48 362.08 145 362.813 144.686C363.547 144.354 364.394 144.188 365.354 144.188C366.332 144.188 367.179 144.354 367.895 144.686C368.628 145 369.196 145.48 369.598 146.126C370.017 146.772 370.226 147.576 370.226 148.536C370.226 149.497 370.017 150.3 369.598 150.946C369.196 151.592 368.628 152.081 367.895 152.413C367.179 152.727 366.332 152.884 365.354 152.884ZM365.354 149.61C365.808 149.61 366.122 149.531 366.297 149.374C366.489 149.217 366.585 148.938 366.585 148.536C366.585 148.134 366.489 147.864 366.297 147.724C366.122 147.567 365.808 147.488 365.354 147.488C364.9 147.488 364.577 147.567 364.385 147.724C364.21 147.864 364.123 148.134 364.123 148.536C364.123 148.938 364.21 149.217 364.385 149.374C364.577 149.531 364.9 149.61 365.354 149.61ZM376.382 158.988C376.836 158.988 377.15 158.909 377.325 158.752C377.517 158.595 377.613 158.315 377.613 157.914C377.613 157.512 377.517 157.241 377.325 157.102C377.15 156.944 376.836 156.866 376.382 156.866C375.928 156.866 375.605 156.944 375.413 157.102C375.238 157.241 375.151 157.512 375.151 157.914C375.151 158.315 375.238 158.595 375.413 158.752C375.605 158.909 375.928 158.988 376.382 158.988ZM366.769 162H363.075L374.994 144.45H378.661L366.769 162Z"
        fill="#638CC2" />
    <rect width="74" height="34" transform="matrix(-1 0 0 1 402 168)" fill="#638CC2" />
    <path
        d="M46.7218 154.643H44.0587V153.584H46.8637C47.3439 153.584 47.6859 153.478 47.8896 153.267C48.1006 153.056 48.2061 152.689 48.2061 152.165C48.2061 151.641 48.1006 151.274 47.8896 151.063C47.6859 150.852 47.3439 150.746 46.8637 150.746H44.0587V149.687H46.7218C47.2311 149.687 47.6859 149.786 48.0861 149.982C48.4863 150.179 48.7991 150.462 49.0247 150.833C49.2575 151.197 49.374 151.641 49.374 152.165C49.374 152.689 49.2575 153.136 49.0247 153.507C48.7991 153.879 48.4863 154.162 48.0861 154.359C47.6859 154.548 47.2311 154.643 46.7218 154.643ZM44.7899 157H43.6112V149.687H44.7899V157ZM52.1739 157.109C51.7082 157.109 51.3226 157.015 51.017 156.825C50.7114 156.629 50.4858 156.367 50.3403 156.04C50.1948 155.705 50.122 155.334 50.122 154.926V151.576H51.3008V154.708C51.3008 155.195 51.4026 155.548 51.6064 155.767C51.8101 155.985 52.1448 156.094 52.6105 156.094C52.9161 156.094 53.1744 156.047 53.3854 155.952C53.5964 155.85 53.7565 155.694 53.8656 155.483C53.9748 155.265 54.0294 154.981 54.0294 154.632H54.335V155.919H54.073C53.993 156.123 53.8693 156.316 53.7019 156.498C53.5418 156.68 53.3345 156.829 53.0798 156.945C52.8324 157.055 52.5305 157.109 52.1739 157.109ZM55.2081 157H54.1167V155.374L54.0294 155.319V151.576H55.2081V157ZM59.3265 157.109C58.8535 157.109 58.4642 157.022 58.1586 156.847C57.853 156.665 57.6311 156.418 57.4929 156.105H57.2746L57.3401 154.773H57.5474C57.5474 155.072 57.602 155.319 57.7111 155.516C57.8276 155.712 57.9949 155.861 58.2132 155.963C58.4388 156.058 58.708 156.105 59.0209 156.105C59.2828 156.105 59.5047 156.072 59.6866 156.007C59.8758 155.941 60.0323 155.839 60.156 155.701C60.2797 155.556 60.367 155.366 60.4179 155.134C60.4761 154.894 60.5052 154.61 60.5052 154.282C60.5052 153.948 60.4761 153.664 60.4179 153.431C60.367 153.198 60.2797 153.013 60.156 152.874C60.0395 152.736 59.8867 152.634 59.6976 152.569C59.5084 152.503 59.2828 152.471 59.0209 152.471C58.708 152.471 58.4388 152.518 58.2132 152.612C57.9949 152.707 57.8276 152.853 57.7111 153.049C57.602 153.245 57.5474 153.497 57.5474 153.802H57.3401L57.2746 152.438H57.5802C57.6966 152.19 57.9076 151.968 58.2132 151.772C58.5261 151.568 58.919 151.466 59.392 151.466C60.1414 151.466 60.7089 151.721 61.0946 152.23C61.4875 152.74 61.684 153.424 61.684 154.282C61.684 155.141 61.4802 155.829 61.0728 156.345C60.6726 156.854 60.0905 157.109 59.3265 157.109ZM57.4492 157H56.3687V149.687H57.5474V155.57L57.4492 155.712V157ZM63.7614 157H62.5826V149.687H63.7614V157ZM66.0192 150.888H64.8513L64.8404 149.687H66.0192V150.888ZM66.0301 157H64.8513V151.543H66.0301V157ZM69.3616 157.109C68.5685 157.109 67.9682 156.953 67.5607 156.64C67.1533 156.32 66.9495 155.829 66.9495 155.166V155.145H68.0846V155.341C68.0846 155.53 68.121 155.687 68.1938 155.81C68.2738 155.927 68.4048 156.014 68.5867 156.072C68.7759 156.123 69.0414 156.149 69.3834 156.149C69.6745 156.149 69.8928 156.127 70.0383 156.083C70.1911 156.032 70.293 155.963 70.3439 155.876C70.3948 155.789 70.4203 155.679 70.4203 155.548C70.4203 155.33 70.3439 155.177 70.1911 155.09C70.0383 154.995 69.7654 154.912 69.3725 154.839L68.5212 154.697C68.201 154.632 67.9209 154.541 67.6808 154.424C67.4479 154.301 67.266 154.133 67.1351 153.922C67.0114 153.704 66.9495 153.431 66.9495 153.104C66.9495 152.616 67.1423 152.223 67.528 151.925C67.9136 151.619 68.4593 151.466 69.1651 151.466C69.5944 151.466 69.9764 151.536 70.3111 151.674C70.6458 151.812 70.9114 152.019 71.1079 152.296C71.3043 152.572 71.4026 152.918 71.4026 153.333V153.431H70.2784V153.3C70.2784 153.125 70.2493 152.976 70.1911 152.853C70.1329 152.722 70.0237 152.62 69.8637 152.547C69.7036 152.474 69.4598 152.438 69.1324 152.438C68.7031 152.438 68.4193 152.492 68.2811 152.602C68.1428 152.711 68.0737 152.871 68.0737 153.082C68.0737 153.293 68.1356 153.442 68.2592 153.529C68.3902 153.609 68.6449 153.689 69.0233 153.769L69.951 153.944C70.3002 154.009 70.5913 154.108 70.8241 154.239C71.057 154.37 71.2316 154.541 71.348 154.752C71.4717 154.963 71.5335 155.214 71.5335 155.505C71.5335 156.014 71.3407 156.411 70.9551 156.694C70.5767 156.971 70.0456 157.109 69.3616 157.109ZM77.5057 157H76.327V153.846C76.327 153.366 76.2324 153.02 76.0432 152.809C75.8613 152.591 75.523 152.481 75.0282 152.481C74.5552 152.481 74.2023 152.587 73.9695 152.798C73.7439 153.002 73.6311 153.362 73.6311 153.879H73.4238L73.4129 152.481H73.6748C73.7621 152.314 73.8822 152.154 74.035 152.001C74.195 151.841 74.3951 151.714 74.6353 151.619C74.8827 151.517 75.1664 151.466 75.4866 151.466C75.9668 151.466 76.3524 151.561 76.6435 151.75C76.9418 151.932 77.1601 152.183 77.2984 152.503C77.4366 152.823 77.5057 153.184 77.5057 153.584V157ZM73.6311 157H72.4524V149.687H73.6311V157ZM81.0571 157.109C80.4677 157.109 79.9765 156.993 79.5836 156.76C79.1907 156.52 78.8997 156.189 78.7105 155.767C78.5213 155.337 78.4267 154.843 78.4267 154.282C78.4267 153.722 78.5322 153.231 78.7432 152.809C78.9615 152.387 79.2671 152.059 79.66 151.827C80.0529 151.586 80.5186 151.466 81.0571 151.466C81.5446 151.466 81.9739 151.561 82.345 151.75C82.7233 151.932 83.0144 152.198 83.2181 152.547C83.4291 152.896 83.5346 153.318 83.5346 153.813C83.5346 153.959 83.5273 154.1 83.5128 154.239C83.5055 154.37 83.4946 154.479 83.48 154.566H78.9833V153.78H82.5196L82.3995 153.889C82.4286 153.555 82.3922 153.282 82.2904 153.071C82.1958 152.86 82.0394 152.703 81.8211 152.602C81.6101 152.5 81.3445 152.449 81.0243 152.449C80.4495 152.449 80.0566 152.594 79.8456 152.885C79.6346 153.169 79.5291 153.562 79.5291 154.064V154.391C79.5291 154.755 79.5727 155.065 79.66 155.319C79.7546 155.567 79.9147 155.752 80.1403 155.876C80.3658 156 80.6751 156.061 81.068 156.061C81.5264 156.061 81.8502 155.989 82.0394 155.843C82.2285 155.698 82.3231 155.505 82.3231 155.265V155.177H83.491V155.276C83.491 155.647 83.3891 155.97 83.1854 156.247C82.9816 156.516 82.6978 156.727 82.334 156.88C81.9775 157.033 81.5518 157.109 81.0571 157.109ZM85.654 157H84.4752V151.543H85.5557V153.06L85.654 153.114V157ZM85.654 153.464H85.3811V152.405H85.6103C85.7194 152.15 85.8977 151.932 86.1451 151.75C86.3998 151.561 86.7272 151.466 87.1274 151.466C87.513 151.466 87.8186 151.55 88.0442 151.717C88.277 151.885 88.4444 152.107 88.5463 152.383C88.6481 152.66 88.6991 152.969 88.6991 153.311V153.671H87.5203V153.453C87.5203 153.089 87.4585 152.834 87.3348 152.689C87.2111 152.543 86.9782 152.471 86.6362 152.471C86.2797 152.471 86.025 152.547 85.8722 152.7C85.7267 152.845 85.654 153.1 85.654 153.464ZM94.6186 157.109C93.9274 157.109 93.338 156.956 92.8505 156.651C92.3703 156.345 92.0028 155.912 91.7482 155.352C91.4935 154.784 91.3662 154.115 91.3662 153.344C91.3662 152.58 91.5044 151.918 91.7809 151.357C92.0647 150.79 92.4649 150.353 92.9815 150.048C93.5054 149.735 94.1275 149.578 94.8478 149.578C95.5027 149.578 96.063 149.691 96.5286 149.917C96.9943 150.135 97.3545 150.448 97.6091 150.855C97.8638 151.255 97.9912 151.739 97.9912 152.307V152.383H96.7469V152.307C96.7469 151.747 96.5941 151.343 96.2885 151.095C95.9902 150.841 95.4918 150.713 94.7933 150.713C94.2839 150.713 93.8655 150.801 93.5381 150.975C93.218 151.15 92.9851 151.43 92.8396 151.816C92.6941 152.201 92.6213 152.711 92.6213 153.344C92.6213 153.977 92.6977 154.486 92.8505 154.872C93.0033 155.25 93.2471 155.527 93.5818 155.701C93.9237 155.876 94.3603 155.963 94.8915 155.963C95.3426 155.963 95.7137 155.916 96.0047 155.821C96.2958 155.727 96.5141 155.567 96.6596 155.341C96.8051 155.115 96.8779 154.813 96.8779 154.435V154.097H98.013V154.261L97.0307 155.854H96.8779C96.7906 156.08 96.6451 156.287 96.4413 156.476C96.2449 156.665 95.9938 156.818 95.6882 156.935C95.3899 157.051 95.0334 157.109 94.6186 157.109ZM98.013 157H96.9325V155.145L96.8779 155.035V153.453H98.013V157ZM98.013 154.261H94.5859V153.245H98.013V154.261ZM100.373 157H99.1946V151.543H100.275V153.06L100.373 153.114V157ZM100.373 153.464H100.101V152.405H100.33C100.439 152.15 100.617 151.932 100.865 151.75C101.119 151.561 101.447 151.466 101.847 151.466C102.232 151.466 102.538 151.55 102.764 151.717C102.996 151.885 103.164 152.107 103.266 152.383C103.368 152.66 103.418 152.969 103.418 153.311V153.671H102.24V153.453C102.24 153.089 102.178 152.834 102.054 152.689C101.93 152.543 101.698 152.471 101.356 152.471C100.999 152.471 100.744 152.547 100.592 152.7C100.446 152.845 100.373 153.1 100.373 153.464ZM108.639 157H107.548V155.93L107.515 155.636V153.551C107.515 153.144 107.417 152.867 107.22 152.722C107.031 152.576 106.722 152.503 106.293 152.503C105.863 152.503 105.554 152.58 105.365 152.732C105.183 152.885 105.092 153.14 105.092 153.497V153.66H103.957V153.551C103.957 153.144 104.055 152.783 104.252 152.471C104.455 152.158 104.735 151.914 105.092 151.739C105.456 151.557 105.878 151.466 106.358 151.466C106.867 151.466 107.289 151.561 107.624 151.75C107.959 151.939 108.21 152.201 108.377 152.536C108.552 152.863 108.639 153.253 108.639 153.704V157ZM105.529 157.109C105.041 157.109 104.63 156.985 104.295 156.738C103.968 156.483 103.804 156.123 103.804 155.658C103.804 155.352 103.873 155.097 104.012 154.894C104.157 154.69 104.364 154.522 104.634 154.391C104.903 154.261 105.23 154.17 105.616 154.119L107.624 153.835V154.664L105.791 154.937C105.478 154.981 105.259 155.046 105.136 155.134C105.012 155.221 104.95 155.366 104.95 155.57C104.95 155.781 105.023 155.934 105.168 156.029C105.321 156.123 105.569 156.171 105.911 156.171C106.173 156.171 106.424 156.13 106.664 156.05C106.911 155.963 107.115 155.821 107.275 155.625C107.435 155.421 107.515 155.137 107.515 154.773L107.668 156.16L107.493 156.149C107.391 156.316 107.249 156.472 107.068 156.618C106.893 156.764 106.678 156.884 106.424 156.978C106.169 157.065 105.871 157.109 105.529 157.109ZM114.821 157H113.642V153.846C113.642 153.366 113.552 153.02 113.37 152.809C113.188 152.591 112.846 152.481 112.344 152.481C112.024 152.481 111.762 152.529 111.558 152.623C111.354 152.711 111.201 152.856 111.099 153.06C110.998 153.256 110.947 153.526 110.947 153.868H110.739L110.641 152.591H110.903C110.983 152.394 111.103 152.212 111.263 152.045C111.423 151.878 111.627 151.739 111.874 151.63C112.129 151.521 112.431 151.466 112.78 151.466C113.253 151.466 113.639 151.557 113.937 151.739C114.235 151.921 114.457 152.172 114.603 152.492C114.748 152.813 114.821 153.18 114.821 153.595V157ZM110.947 157H109.768V151.576H110.848V153.202L110.947 153.256V157ZM118.156 157C117.559 157 117.101 156.873 116.781 156.618C116.468 156.363 116.312 155.934 116.312 155.33V151.696L116.584 150.233H117.49V155.276C117.49 155.559 117.559 155.741 117.698 155.821C117.843 155.894 118.101 155.93 118.473 155.93H119.127V156.902C119.018 156.931 118.876 156.956 118.702 156.978C118.527 156.993 118.345 157 118.156 157ZM119.127 152.558H115.406V151.576H119.127V152.558ZM122.132 157.109C121.339 157.109 120.739 156.953 120.331 156.64C119.924 156.32 119.72 155.829 119.72 155.166V155.145H120.855V155.341C120.855 155.53 120.891 155.687 120.964 155.81C121.044 155.927 121.175 156.014 121.357 156.072C121.546 156.123 121.812 156.149 122.154 156.149C122.445 156.149 122.663 156.127 122.809 156.083C122.961 156.032 123.063 155.963 123.114 155.876C123.165 155.789 123.191 155.679 123.191 155.548C123.191 155.33 123.114 155.177 122.961 155.09C122.809 154.995 122.536 154.912 122.143 154.839L121.292 154.697C120.971 154.632 120.691 154.541 120.451 154.424C120.218 154.301 120.036 154.133 119.905 153.922C119.782 153.704 119.72 153.431 119.72 153.104C119.72 152.616 119.913 152.223 120.298 151.925C120.684 151.619 121.23 151.466 121.935 151.466C122.365 151.466 122.747 151.536 123.081 151.674C123.416 151.812 123.682 152.019 123.878 152.296C124.075 152.572 124.173 152.918 124.173 153.333V153.431H123.049V153.3C123.049 153.125 123.02 152.976 122.961 152.853C122.903 152.722 122.794 152.62 122.634 152.547C122.474 152.474 122.23 152.438 121.903 152.438C121.473 152.438 121.19 152.492 121.051 152.602C120.913 152.711 120.844 152.871 120.844 153.082C120.844 153.293 120.906 153.442 121.03 153.529C121.161 153.609 121.415 153.689 121.794 153.769L122.721 153.944C123.071 154.009 123.362 154.108 123.594 154.239C123.827 154.37 124.002 154.541 124.118 154.752C124.242 154.963 124.304 155.214 124.304 155.505C124.304 156.014 124.111 156.411 123.725 156.694C123.347 156.971 122.816 157.109 122.132 157.109Z"
        fill="white" />
    <path
        d="M335.79 184H334.611V176.687H335.79V184ZM342.062 184H340.883V180.846C340.883 180.366 340.792 180.02 340.61 179.809C340.428 179.591 340.086 179.481 339.584 179.481C339.264 179.481 339.002 179.529 338.799 179.623C338.595 179.711 338.442 179.856 338.34 180.06C338.238 180.256 338.187 180.526 338.187 180.868H337.98L337.882 179.591H338.144C338.224 179.394 338.344 179.212 338.504 179.045C338.664 178.878 338.868 178.739 339.115 178.63C339.37 178.521 339.672 178.466 340.021 178.466C340.494 178.466 340.88 178.557 341.178 178.739C341.476 178.921 341.698 179.172 341.844 179.492C341.989 179.813 342.062 180.18 342.062 180.595V184ZM338.187 184H337.009V178.576H338.089V180.202L338.187 180.256V184ZM345.341 184.109C344.57 184.109 343.977 183.854 343.562 183.345C343.155 182.829 342.951 182.141 342.951 181.282C342.951 180.424 343.151 179.74 343.551 179.23C343.959 178.721 344.534 178.466 345.276 178.466C345.756 178.466 346.142 178.565 346.433 178.761C346.731 178.95 346.938 179.169 347.055 179.416H347.349L347.295 180.802H347.087C347.087 180.497 347.029 180.245 346.913 180.049C346.796 179.853 346.629 179.707 346.411 179.612C346.192 179.518 345.923 179.471 345.603 179.471C345.341 179.471 345.116 179.503 344.926 179.569C344.745 179.634 344.592 179.736 344.468 179.874C344.352 180.013 344.264 180.198 344.206 180.431C344.155 180.664 344.13 180.948 344.13 181.282C344.13 181.61 344.155 181.894 344.206 182.134C344.264 182.366 344.352 182.556 344.468 182.701C344.592 182.839 344.748 182.941 344.937 183.007C345.127 183.072 345.348 183.105 345.603 183.105C345.923 183.105 346.192 183.058 346.411 182.963C346.629 182.861 346.796 182.712 346.913 182.516C347.029 182.319 347.087 182.072 347.087 181.773H347.295L347.349 183.105H347.131C347.007 183.418 346.793 183.665 346.487 183.847C346.189 184.022 345.807 184.109 345.341 184.109ZM348.266 184H347.175V182.712L347.087 182.57V176.687H348.266V184ZM351.795 184.109C351.206 184.109 350.715 183.993 350.322 183.76C349.929 183.52 349.638 183.189 349.449 182.767C349.259 182.337 349.165 181.843 349.165 181.282C349.165 180.722 349.27 180.231 349.481 179.809C349.7 179.387 350.005 179.059 350.398 178.827C350.791 178.586 351.257 178.466 351.795 178.466C352.283 178.466 352.712 178.561 353.083 178.75C353.461 178.932 353.753 179.198 353.956 179.547C354.167 179.896 354.273 180.318 354.273 180.813C354.273 180.959 354.265 181.1 354.251 181.239C354.244 181.37 354.233 181.479 354.218 181.566H349.721V180.78H353.258L353.138 180.889C353.167 180.555 353.13 180.282 353.029 180.071C352.934 179.86 352.778 179.703 352.559 179.602C352.348 179.5 352.083 179.449 351.762 179.449C351.188 179.449 350.795 179.594 350.584 179.885C350.373 180.169 350.267 180.562 350.267 181.064V181.391C350.267 181.755 350.311 182.065 350.398 182.319C350.493 182.567 350.653 182.752 350.878 182.876C351.104 183 351.413 183.061 351.806 183.061C352.265 183.061 352.588 182.989 352.778 182.843C352.967 182.698 353.061 182.505 353.061 182.265V182.177H354.229V182.276C354.229 182.647 354.127 182.97 353.924 183.247C353.72 183.516 353.436 183.727 353.072 183.88C352.716 184.033 352.29 184.109 351.795 184.109ZM358.182 184.109C357.695 184.109 357.298 184.015 356.992 183.825C356.694 183.629 356.487 183.407 356.37 183.16H356.076L356.13 181.773H356.338C356.338 182.072 356.392 182.319 356.501 182.516C356.618 182.712 356.789 182.861 357.014 182.963C357.24 183.058 357.509 183.105 357.822 183.105C358.077 183.105 358.298 183.072 358.488 183.007C358.677 182.941 358.83 182.839 358.946 182.701C359.07 182.563 359.157 182.377 359.208 182.145C359.266 181.904 359.295 181.617 359.295 181.282C359.295 180.948 359.266 180.667 359.208 180.442C359.157 180.209 359.07 180.02 358.946 179.874C358.83 179.729 358.677 179.627 358.488 179.569C358.306 179.503 358.084 179.471 357.822 179.471C357.509 179.471 357.24 179.521 357.014 179.623C356.789 179.718 356.618 179.863 356.501 180.06C356.392 180.249 356.338 180.497 356.338 180.802H356.13L356.076 179.471H356.294C356.425 179.158 356.639 178.914 356.938 178.739C357.243 178.557 357.633 178.466 358.106 178.466C358.87 178.466 359.455 178.721 359.863 179.23C360.27 179.74 360.474 180.424 360.474 181.282C360.474 182.141 360.278 182.829 359.885 183.345C359.492 183.854 358.924 184.109 358.182 184.109ZM356.338 185.888H355.17V178.576H356.239V179.863L356.338 180.005V185.888ZM363.882 184.109C363.293 184.109 362.801 183.993 362.409 183.76C362.016 183.52 361.725 183.189 361.535 182.767C361.346 182.337 361.252 181.843 361.252 181.282C361.252 180.722 361.357 180.231 361.568 179.809C361.786 179.387 362.092 179.059 362.485 178.827C362.878 178.586 363.344 178.466 363.882 178.466C364.369 178.466 364.799 178.561 365.17 178.75C365.548 178.932 365.839 179.198 366.043 179.547C366.254 179.896 366.36 180.318 366.36 180.813C366.36 180.959 366.352 181.1 366.338 181.239C366.33 181.37 366.32 181.479 366.305 181.566H361.808V180.78H365.344L365.224 180.889C365.254 180.555 365.217 180.282 365.115 180.071C365.021 179.86 364.864 179.703 364.646 179.602C364.435 179.5 364.169 179.449 363.849 179.449C363.274 179.449 362.881 179.594 362.67 179.885C362.459 180.169 362.354 180.562 362.354 181.064V181.391C362.354 181.755 362.398 182.065 362.485 182.319C362.58 182.567 362.74 182.752 362.965 182.876C363.191 183 363.5 183.061 363.893 183.061C364.351 183.061 364.675 182.989 364.864 182.843C365.053 182.698 365.148 182.505 365.148 182.265V182.177H366.316V182.276C366.316 182.647 366.214 182.97 366.01 183.247C365.807 183.516 365.523 183.727 365.159 183.88C364.802 184.033 364.377 184.109 363.882 184.109ZM372.353 184H371.175V180.846C371.175 180.366 371.084 180.02 370.902 179.809C370.72 179.591 370.378 179.481 369.876 179.481C369.556 179.481 369.294 179.529 369.09 179.623C368.886 179.711 368.734 179.856 368.632 180.06C368.53 180.256 368.479 180.526 368.479 180.868H368.271L368.173 179.591H368.435C368.515 179.394 368.635 179.212 368.795 179.045C368.955 178.878 369.159 178.739 369.407 178.63C369.661 178.521 369.963 178.466 370.312 178.466C370.785 178.466 371.171 178.557 371.469 178.739C371.768 178.921 371.99 179.172 372.135 179.492C372.281 179.813 372.353 180.18 372.353 180.595V184ZM368.479 184H367.3V178.576H368.381V180.202L368.479 180.256V184ZM375.633 184.109C374.861 184.109 374.268 183.854 373.854 183.345C373.446 182.829 373.242 182.141 373.242 181.282C373.242 180.424 373.443 179.74 373.843 179.23C374.25 178.721 374.825 178.466 375.567 178.466C376.047 178.466 376.433 178.565 376.724 178.761C377.022 178.95 377.23 179.169 377.346 179.416H377.641L377.586 180.802H377.379C377.379 180.497 377.321 180.245 377.204 180.049C377.088 179.853 376.921 179.707 376.702 179.612C376.484 179.518 376.215 179.471 375.895 179.471C375.633 179.471 375.407 179.503 375.218 179.569C375.036 179.634 374.883 179.736 374.76 179.874C374.643 180.013 374.556 180.198 374.498 180.431C374.447 180.664 374.421 180.948 374.421 181.282C374.421 181.61 374.447 181.894 374.498 182.134C374.556 182.366 374.643 182.556 374.76 182.701C374.883 182.839 375.04 182.941 375.229 183.007C375.418 183.072 375.64 183.105 375.895 183.105C376.215 183.105 376.484 183.058 376.702 182.963C376.921 182.861 377.088 182.712 377.204 182.516C377.321 182.319 377.379 182.072 377.379 181.773H377.586L377.641 183.105H377.423C377.299 183.418 377.084 183.665 376.779 183.847C376.48 184.022 376.098 184.109 375.633 184.109ZM378.558 184H377.466V182.712L377.379 182.57V176.687H378.558V184ZM382.087 184.109C381.497 184.109 381.006 183.993 380.613 183.76C380.22 183.52 379.929 183.189 379.74 182.767C379.551 182.337 379.456 181.843 379.456 181.282C379.456 180.722 379.562 180.231 379.773 179.809C379.991 179.387 380.297 179.059 380.69 178.827C381.083 178.586 381.548 178.466 382.087 178.466C382.574 178.466 383.004 178.561 383.375 178.75C383.753 178.932 384.044 179.198 384.248 179.547C384.459 179.896 384.564 180.318 384.564 180.813C384.564 180.959 384.557 181.1 384.542 181.239C384.535 181.37 384.524 181.479 384.51 181.566H380.013V180.78H383.549L383.429 180.889C383.458 180.555 383.422 180.282 383.32 180.071C383.225 179.86 383.069 179.703 382.851 179.602C382.64 179.5 382.374 179.449 382.054 179.449C381.479 179.449 381.086 179.594 380.875 179.885C380.664 180.169 380.559 180.562 380.559 181.064V181.391C380.559 181.755 380.602 182.065 380.69 182.319C380.784 182.567 380.944 182.752 381.17 182.876C381.395 183 381.705 183.061 382.098 183.061C382.556 183.061 382.88 182.989 383.069 182.843C383.258 182.698 383.353 182.505 383.353 182.265V182.177H384.521V182.276C384.521 182.647 384.419 182.97 384.215 183.247C384.011 183.516 383.728 183.727 383.364 183.88C383.007 184.033 382.582 184.109 382.087 184.109ZM390.558 184H389.379V180.846C389.379 180.366 389.289 180.02 389.107 179.809C388.925 179.591 388.583 179.481 388.081 179.481C387.761 179.481 387.499 179.529 387.295 179.623C387.091 179.711 386.938 179.856 386.836 180.06C386.735 180.256 386.684 180.526 386.684 180.868H386.476L386.378 179.591H386.64C386.72 179.394 386.84 179.212 387 179.045C387.16 178.878 387.364 178.739 387.611 178.63C387.866 178.521 388.168 178.466 388.517 178.466C388.99 178.466 389.376 178.557 389.674 178.739C389.972 178.921 390.194 179.172 390.34 179.492C390.485 179.813 390.558 180.18 390.558 180.595V184ZM386.684 184H385.505V178.576H386.585V180.202L386.684 180.256V184ZM393.893 184C393.296 184 392.838 183.873 392.518 183.618C392.205 183.363 392.049 182.934 392.049 182.33V178.696L392.321 177.233H393.227V182.276C393.227 182.559 393.296 182.741 393.435 182.821C393.58 182.894 393.838 182.93 394.21 182.93H394.864V183.902C394.755 183.931 394.613 183.956 394.439 183.978C394.264 183.993 394.082 184 393.893 184ZM394.864 179.558H391.143V178.576H394.864V179.558ZM338.104 194H334.611V186.687H337.984C338.457 186.687 338.864 186.753 339.206 186.884C339.548 187.015 339.81 187.215 339.992 187.484C340.174 187.753 340.265 188.095 340.265 188.51C340.265 188.932 340.145 189.281 339.905 189.558C339.672 189.834 339.319 190.009 338.846 190.082V190.169C339.406 190.235 339.825 190.435 340.101 190.769C340.385 191.104 340.527 191.512 340.527 191.992C340.527 192.407 340.432 192.763 340.243 193.061C340.054 193.36 339.777 193.593 339.414 193.76C339.057 193.92 338.62 194 338.104 194ZM335.79 190.704V192.93H338.071C338.515 192.93 338.835 192.854 339.032 192.701C339.235 192.548 339.337 192.257 339.337 191.828C339.337 191.391 339.235 191.097 339.032 190.944C338.828 190.784 338.508 190.704 338.071 190.704H335.79ZM335.79 187.746V189.722H337.875C338.311 189.722 338.624 189.652 338.813 189.514C339.002 189.369 339.097 189.11 339.097 188.739C339.097 188.361 339.006 188.103 338.824 187.964C338.65 187.819 338.344 187.746 337.907 187.746H335.79ZM343.515 194.109C343.049 194.109 342.664 194.015 342.358 193.825C342.052 193.629 341.827 193.367 341.681 193.04C341.536 192.705 341.463 192.334 341.463 191.926V188.576H342.642V191.708C342.642 192.195 342.744 192.548 342.947 192.767C343.151 192.985 343.486 193.094 343.952 193.094C344.257 193.094 344.515 193.047 344.726 192.952C344.937 192.85 345.098 192.694 345.207 192.483C345.316 192.265 345.37 191.981 345.37 191.632H345.676V192.919H345.414C345.334 193.123 345.21 193.316 345.043 193.498C344.883 193.68 344.676 193.829 344.421 193.945C344.173 194.055 343.872 194.109 343.515 194.109ZM346.549 194H345.458V192.374L345.37 192.319V188.576H346.549V194ZM348.812 187.888H347.644L347.633 186.687H348.812V187.888ZM348.823 194H347.644V188.543H348.823V194ZM351.084 194H349.905V186.687H351.084V194ZM354.369 194.109C353.598 194.109 353.005 193.854 352.59 193.345C352.182 192.829 351.979 192.141 351.979 191.282C351.979 190.424 352.179 189.74 352.579 189.23C352.986 188.721 353.561 188.466 354.303 188.466C354.784 188.466 355.169 188.565 355.46 188.761C355.759 188.95 355.966 189.169 356.082 189.416H356.377L356.323 190.802H356.115C356.115 190.497 356.057 190.245 355.941 190.049C355.824 189.853 355.657 189.707 355.439 189.612C355.22 189.518 354.951 189.471 354.631 189.471C354.369 189.471 354.143 189.503 353.954 189.569C353.772 189.634 353.619 189.736 353.496 189.874C353.379 190.013 353.292 190.198 353.234 190.431C353.183 190.664 353.157 190.948 353.157 191.282C353.157 191.61 353.183 191.894 353.234 192.134C353.292 192.366 353.379 192.556 353.496 192.701C353.619 192.839 353.776 192.941 353.965 193.007C354.154 193.072 354.376 193.105 354.631 193.105C354.951 193.105 355.22 193.058 355.439 192.963C355.657 192.861 355.824 192.712 355.941 192.516C356.057 192.319 356.115 192.072 356.115 191.773H356.323L356.377 193.105H356.159C356.035 193.418 355.821 193.665 355.515 193.847C355.217 194.022 354.835 194.109 354.369 194.109ZM357.294 194H356.203V192.712L356.115 192.57V186.687H357.294V194ZM360.823 194.109C360.234 194.109 359.742 193.993 359.35 193.76C358.957 193.52 358.666 193.189 358.476 192.767C358.287 192.337 358.193 191.843 358.193 191.282C358.193 190.722 358.298 190.231 358.509 189.809C358.727 189.387 359.033 189.059 359.426 188.827C359.819 188.586 360.285 188.466 360.823 188.466C361.31 188.466 361.74 188.561 362.111 188.75C362.489 188.932 362.78 189.198 362.984 189.547C363.195 189.896 363.301 190.318 363.301 190.813C363.301 190.959 363.293 191.1 363.279 191.239C363.271 191.37 363.261 191.479 363.246 191.566H358.749V190.78H362.286L362.165 190.889C362.195 190.555 362.158 190.282 362.056 190.071C361.962 189.86 361.805 189.703 361.587 189.602C361.376 189.5 361.11 189.449 360.79 189.449C360.215 189.449 359.823 189.594 359.611 189.885C359.4 190.169 359.295 190.562 359.295 191.064V191.391C359.295 191.755 359.339 192.065 359.426 192.319C359.521 192.567 359.681 192.752 359.906 192.876C360.132 193 360.441 193.061 360.834 193.061C361.292 193.061 361.616 192.989 361.805 192.843C361.994 192.698 362.089 192.505 362.089 192.265V192.177H363.257V192.276C363.257 192.647 363.155 192.97 362.951 193.247C362.748 193.516 362.464 193.727 362.1 193.88C361.743 194.033 361.318 194.109 360.823 194.109ZM365.42 194H364.241V188.543H365.322V190.06L365.42 190.114V194ZM365.42 190.464H365.147V189.405H365.376C365.485 189.15 365.664 188.932 365.911 188.75C366.166 188.561 366.493 188.466 366.893 188.466C367.279 188.466 367.585 188.55 367.81 188.717C368.043 188.885 368.21 189.107 368.312 189.383C368.414 189.66 368.465 189.969 368.465 190.311V190.671H367.286V190.453C367.286 190.089 367.224 189.834 367.101 189.689C366.977 189.543 366.744 189.471 366.402 189.471C366.046 189.471 365.791 189.547 365.638 189.7C365.493 189.845 365.42 190.1 365.42 190.464ZM371.574 194.109C370.781 194.109 370.181 193.953 369.773 193.64C369.366 193.32 369.162 192.829 369.162 192.166V192.145H370.297V192.341C370.297 192.53 370.334 192.687 370.407 192.81C370.487 192.927 370.618 193.014 370.799 193.072C370.989 193.123 371.254 193.149 371.596 193.149C371.887 193.149 372.106 193.127 372.251 193.083C372.404 193.032 372.506 192.963 372.557 192.876C372.608 192.789 372.633 192.679 372.633 192.548C372.633 192.33 372.557 192.177 372.404 192.09C372.251 191.995 371.978 191.912 371.585 191.839L370.734 191.697C370.414 191.632 370.134 191.541 369.894 191.424C369.661 191.301 369.479 191.133 369.348 190.922C369.224 190.704 369.162 190.431 369.162 190.104C369.162 189.616 369.355 189.223 369.741 188.925C370.126 188.619 370.672 188.466 371.378 188.466C371.807 188.466 372.189 188.536 372.524 188.674C372.859 188.812 373.124 189.019 373.321 189.296C373.517 189.572 373.615 189.918 373.615 190.333V190.431H372.491V190.3C372.491 190.125 372.462 189.976 372.404 189.853C372.346 189.722 372.236 189.62 372.076 189.547C371.916 189.474 371.673 189.438 371.345 189.438C370.916 189.438 370.632 189.492 370.494 189.602C370.356 189.711 370.286 189.871 370.286 190.082C370.286 190.293 370.348 190.442 370.472 190.529C370.603 190.609 370.858 190.689 371.236 190.769L372.164 190.944C372.513 191.009 372.804 191.108 373.037 191.239C373.27 191.37 373.444 191.541 373.561 191.752C373.684 191.963 373.746 192.214 373.746 192.505C373.746 193.014 373.553 193.411 373.168 193.694C372.789 193.971 372.258 194.109 371.574 194.109Z"
        fill="white" />
    <path
        d="M414.79 215H413.611V207.687H414.79V215ZM421.062 215H419.883V211.846C419.883 211.366 419.792 211.02 419.61 210.809C419.428 210.591 419.086 210.481 418.584 210.481C418.264 210.481 418.002 210.529 417.799 210.623C417.595 210.711 417.442 210.856 417.34 211.06C417.238 211.256 417.187 211.526 417.187 211.868H416.98L416.882 210.591H417.144C417.224 210.394 417.344 210.212 417.504 210.045C417.664 209.878 417.868 209.739 418.115 209.63C418.37 209.521 418.672 209.466 419.021 209.466C419.494 209.466 419.88 209.557 420.178 209.739C420.476 209.921 420.698 210.172 420.844 210.492C420.989 210.813 421.062 211.18 421.062 211.595V215ZM417.187 215H416.009V209.576H417.089V211.202L417.187 211.256V215ZM423.589 215H422.41V209.619C422.41 209.197 422.49 208.844 422.65 208.561C422.811 208.277 423.047 208.062 423.36 207.917C423.68 207.764 424.073 207.687 424.539 207.687C424.611 207.687 424.684 207.687 424.757 207.687C424.83 207.687 424.902 207.687 424.975 207.687V208.626H424.32C424.058 208.626 423.866 208.677 423.742 208.779C423.618 208.881 423.556 209.048 423.556 209.281V209.761L423.589 210.045V215ZM424.975 210.558H421.614V209.576H424.975V210.558ZM426.78 215H425.601V209.543H426.682V211.06L426.78 211.114V215ZM426.78 211.464H426.507V210.405H426.736C426.846 210.15 427.024 209.932 427.271 209.75C427.526 209.561 427.853 209.466 428.253 209.466C428.639 209.466 428.945 209.55 429.17 209.717C429.403 209.885 429.57 210.107 429.672 210.383C429.774 210.66 429.825 210.969 429.825 211.311V211.671H428.646V211.453C428.646 211.089 428.585 210.834 428.461 210.689C428.337 210.543 428.104 210.471 427.762 210.471C427.406 210.471 427.151 210.547 426.998 210.7C426.853 210.845 426.78 211.1 426.78 211.464ZM435.046 215H433.954V213.93L433.922 213.636V211.551C433.922 211.144 433.823 210.867 433.627 210.722C433.438 210.576 433.129 210.503 432.699 210.503C432.27 210.503 431.961 210.58 431.772 210.732C431.59 210.885 431.499 211.14 431.499 211.497V211.66H430.364V211.551C430.364 211.144 430.462 210.783 430.658 210.471C430.862 210.158 431.142 209.914 431.499 209.739C431.862 209.557 432.285 209.466 432.765 209.466C433.274 209.466 433.696 209.561 434.031 209.75C434.366 209.939 434.617 210.201 434.784 210.536C434.959 210.863 435.046 211.253 435.046 211.704V215ZM431.935 215.109C431.448 215.109 431.037 214.985 430.702 214.738C430.374 214.483 430.211 214.123 430.211 213.658C430.211 213.352 430.28 213.097 430.418 212.894C430.564 212.69 430.771 212.522 431.04 212.391C431.309 212.261 431.637 212.17 432.023 212.119L434.031 211.835V212.664L432.197 212.937C431.884 212.981 431.666 213.046 431.542 213.134C431.419 213.221 431.357 213.366 431.357 213.57C431.357 213.781 431.43 213.934 431.575 214.029C431.728 214.123 431.975 214.171 432.317 214.171C432.579 214.171 432.83 214.13 433.07 214.05C433.318 213.963 433.521 213.821 433.682 213.625C433.842 213.421 433.922 213.137 433.922 212.773L434.074 214.16L433.9 214.149C433.798 214.316 433.656 214.472 433.474 214.618C433.3 214.764 433.085 214.884 432.83 214.978C432.576 215.065 432.277 215.109 431.935 215.109ZM438.424 215.109C437.631 215.109 437.03 214.953 436.623 214.64C436.215 214.32 436.012 213.829 436.012 213.166V213.145H437.147V213.341C437.147 213.53 437.183 213.687 437.256 213.81C437.336 213.927 437.467 214.014 437.649 214.072C437.838 214.123 438.103 214.149 438.445 214.149C438.737 214.149 438.955 214.127 439.1 214.083C439.253 214.032 439.355 213.963 439.406 213.876C439.457 213.789 439.482 213.679 439.482 213.548C439.482 213.33 439.406 213.177 439.253 213.09C439.1 212.995 438.827 212.912 438.435 212.839L437.583 212.697C437.263 212.632 436.983 212.541 436.743 212.424C436.51 212.301 436.328 212.133 436.197 211.922C436.073 211.704 436.012 211.431 436.012 211.104C436.012 210.616 436.204 210.223 436.59 209.925C436.976 209.619 437.521 209.466 438.227 209.466C438.656 209.466 439.038 209.536 439.373 209.674C439.708 209.812 439.973 210.019 440.17 210.296C440.366 210.572 440.465 210.918 440.465 211.333V211.431H439.34V211.3C439.34 211.125 439.311 210.976 439.253 210.853C439.195 210.722 439.086 210.62 438.926 210.547C438.766 210.474 438.522 210.438 438.194 210.438C437.765 210.438 437.481 210.492 437.343 210.602C437.205 210.711 437.136 210.871 437.136 211.082C437.136 211.293 437.198 211.442 437.321 211.529C437.452 211.609 437.707 211.689 438.085 211.769L439.013 211.944C439.362 212.009 439.653 212.108 439.886 212.239C440.119 212.37 440.294 212.541 440.41 212.752C440.534 212.963 440.596 213.214 440.596 213.505C440.596 214.014 440.403 214.411 440.017 214.694C439.639 214.971 439.108 215.109 438.424 215.109ZM443.753 215C443.156 215 442.698 214.873 442.377 214.618C442.065 214.363 441.908 213.934 441.908 213.33V209.696L442.181 208.233H443.087V213.276C443.087 213.559 443.156 213.741 443.294 213.821C443.44 213.894 443.698 213.93 444.069 213.93H444.724V214.902C444.615 214.931 444.473 214.956 444.298 214.978C444.124 214.993 443.942 215 443.753 215ZM444.724 210.558H441.002V209.576H444.724V210.558ZM446.711 215H445.533V209.543H446.613V211.06L446.711 211.114V215ZM446.711 211.464H446.439V210.405H446.668C446.777 210.15 446.955 209.932 447.203 209.75C447.457 209.561 447.785 209.466 448.185 209.466C448.571 209.466 448.876 209.55 449.102 209.717C449.335 209.885 449.502 210.107 449.604 210.383C449.706 210.66 449.757 210.969 449.757 211.311V211.671H448.578V211.453C448.578 211.089 448.516 210.834 448.392 210.689C448.269 210.543 448.036 210.471 447.694 210.471C447.337 210.471 447.083 210.547 446.93 210.7C446.784 210.845 446.711 211.1 446.711 211.464ZM452.508 215.109C452.042 215.109 451.657 215.015 451.351 214.825C451.046 214.629 450.82 214.367 450.674 214.04C450.529 213.705 450.456 213.334 450.456 212.926V209.576H451.635V212.708C451.635 213.195 451.737 213.548 451.941 213.767C452.144 213.985 452.479 214.094 452.945 214.094C453.25 214.094 453.509 214.047 453.72 213.952C453.931 213.85 454.091 213.694 454.2 213.483C454.309 213.265 454.364 212.981 454.364 212.632H454.669V213.919H454.407C454.327 214.123 454.203 214.316 454.036 214.498C453.876 214.68 453.669 214.829 453.414 214.945C453.167 215.055 452.865 215.109 452.508 215.109ZM455.542 215H454.451V213.374L454.364 213.319V209.576H455.542V215ZM459.115 215.12C458.548 215.12 458.068 215 457.675 214.76C457.282 214.52 456.98 214.189 456.769 213.767C456.565 213.345 456.463 212.854 456.463 212.293C456.463 211.733 456.569 211.242 456.78 210.82C456.998 210.391 457.307 210.059 457.707 209.827C458.108 209.586 458.592 209.466 459.159 209.466C459.639 209.466 460.061 209.557 460.425 209.739C460.789 209.921 461.069 210.176 461.266 210.503C461.469 210.831 461.571 211.213 461.571 211.649V211.748H460.403V211.682C460.403 211.282 460.294 210.991 460.076 210.809C459.865 210.62 459.534 210.525 459.083 210.525C458.559 210.525 458.184 210.674 457.959 210.973C457.74 211.264 457.631 211.7 457.631 212.282C457.631 212.872 457.74 213.316 457.959 213.614C458.184 213.905 458.559 214.05 459.083 214.05C459.534 214.05 459.865 213.96 460.076 213.778C460.294 213.588 460.403 213.297 460.403 212.904V212.839H461.571V212.937C461.571 213.359 461.469 213.738 461.266 214.072C461.062 214.4 460.774 214.658 460.403 214.847C460.039 215.029 459.61 215.12 459.115 215.12ZM464.675 215C464.079 215 463.62 214.873 463.3 214.618C462.987 214.363 462.831 213.934 462.831 213.33V209.696L463.104 208.233H464.01V213.276C464.01 213.559 464.079 213.741 464.217 213.821C464.362 213.894 464.621 213.93 464.992 213.93H465.647V214.902C465.538 214.931 465.396 214.956 465.221 214.978C465.046 214.993 464.865 215 464.675 215ZM465.647 210.558H461.925V209.576H465.647V210.558ZM468.475 215.109C468.009 215.109 467.623 215.015 467.318 214.825C467.012 214.629 466.786 214.367 466.641 214.04C466.495 213.705 466.423 213.334 466.423 212.926V209.576H467.601V212.708C467.601 213.195 467.703 213.548 467.907 213.767C468.111 213.985 468.445 214.094 468.911 214.094C469.217 214.094 469.475 214.047 469.686 213.952C469.897 213.85 470.057 213.694 470.166 213.483C470.275 213.265 470.33 212.981 470.33 212.632H470.636V213.919H470.374C470.294 214.123 470.17 214.316 470.003 214.498C469.842 214.68 469.635 214.829 469.38 214.945C469.133 215.055 468.831 215.109 468.475 215.109ZM471.509 215H470.417V213.374L470.33 213.319V209.576H471.509V215ZM473.848 215H472.669V209.543H473.75V211.06L473.848 211.114V215ZM473.848 211.464H473.575V210.405H473.804C473.914 210.15 474.092 209.932 474.339 209.75C474.594 209.561 474.921 209.466 475.321 209.466C475.707 209.466 476.013 209.55 476.238 209.717C476.471 209.885 476.638 210.107 476.74 210.383C476.842 210.66 476.893 210.969 476.893 211.311V211.671H475.714V211.453C475.714 211.089 475.653 210.834 475.529 210.689C475.405 210.543 475.172 210.471 474.83 210.471C474.474 210.471 474.219 210.547 474.066 210.7C473.921 210.845 473.848 211.1 473.848 211.464ZM480.059 215.109C479.47 215.109 478.978 214.993 478.585 214.76C478.193 214.52 477.902 214.189 477.712 213.767C477.523 213.337 477.429 212.843 477.429 212.282C477.429 211.722 477.534 211.231 477.745 210.809C477.963 210.387 478.269 210.059 478.662 209.827C479.055 209.586 479.52 209.466 480.059 209.466C480.546 209.466 480.976 209.561 481.347 209.75C481.725 209.932 482.016 210.198 482.22 210.547C482.431 210.896 482.536 211.318 482.536 211.813C482.536 211.959 482.529 212.1 482.515 212.239C482.507 212.37 482.496 212.479 482.482 212.566H477.985V211.78H481.521L481.401 211.889C481.43 211.555 481.394 211.282 481.292 211.071C481.198 210.86 481.041 210.703 480.823 210.602C480.612 210.5 480.346 210.449 480.026 210.449C479.451 210.449 479.058 210.594 478.847 210.885C478.636 211.169 478.531 211.562 478.531 212.064V212.391C478.531 212.755 478.575 213.065 478.662 213.319C478.756 213.567 478.917 213.752 479.142 213.876C479.368 214 479.677 214.061 480.07 214.061C480.528 214.061 480.852 213.989 481.041 213.843C481.23 213.698 481.325 213.505 481.325 213.265V213.177H482.493V213.276C482.493 213.647 482.391 213.97 482.187 214.247C481.983 214.516 481.7 214.727 481.336 214.88C480.979 215.033 480.554 215.109 480.059 215.109ZM417.104 230H413.611V222.687H416.984C417.457 222.687 417.864 222.753 418.206 222.884C418.548 223.015 418.81 223.215 418.992 223.484C419.174 223.753 419.265 224.095 419.265 224.51C419.265 224.932 419.145 225.281 418.905 225.558C418.672 225.834 418.319 226.009 417.846 226.082V226.169C418.406 226.235 418.825 226.435 419.101 226.769C419.385 227.104 419.527 227.512 419.527 227.992C419.527 228.407 419.432 228.763 419.243 229.061C419.054 229.36 418.777 229.593 418.414 229.76C418.057 229.92 417.62 230 417.104 230ZM414.79 226.704V228.93H417.071C417.515 228.93 417.835 228.854 418.032 228.701C418.235 228.548 418.337 228.257 418.337 227.828C418.337 227.391 418.235 227.097 418.032 226.944C417.828 226.784 417.508 226.704 417.071 226.704H414.79ZM414.79 223.746V225.722H416.875C417.311 225.722 417.624 225.652 417.813 225.514C418.002 225.369 418.097 225.11 418.097 224.739C418.097 224.361 418.006 224.103 417.824 223.964C417.65 223.819 417.344 223.746 416.907 223.746H414.79ZM422.856 230.109C422.303 230.109 421.823 229.993 421.416 229.76C421.008 229.52 420.695 229.189 420.477 228.767C420.259 228.337 420.15 227.843 420.15 227.282C420.15 226.722 420.259 226.231 420.477 225.809C420.695 225.387 421.008 225.059 421.416 224.827C421.823 224.586 422.303 224.466 422.856 224.466C423.409 224.466 423.882 224.586 424.275 224.827C424.675 225.059 424.981 225.387 425.192 225.809C425.41 226.231 425.52 226.722 425.52 227.282C425.52 227.843 425.41 228.337 425.192 228.767C424.981 229.189 424.675 229.52 424.275 229.76C423.882 229.993 423.409 230.109 422.856 230.109ZM422.856 229.061C423.424 229.061 423.821 228.919 424.046 228.636C424.272 228.345 424.384 227.894 424.384 227.282C424.384 226.671 424.272 226.224 424.046 225.94C423.821 225.656 423.424 225.514 422.856 225.514C422.282 225.514 421.881 225.656 421.656 225.94C421.43 226.224 421.317 226.671 421.317 227.282C421.317 227.894 421.43 228.345 421.656 228.636C421.881 228.919 422.282 229.061 422.856 229.061ZM428.42 230.109C427.954 230.109 427.568 230.015 427.263 229.825C426.957 229.629 426.732 229.367 426.586 229.04C426.441 228.705 426.368 228.334 426.368 227.926V224.576H427.547V227.708C427.547 228.195 427.649 228.548 427.852 228.767C428.056 228.985 428.391 229.094 428.856 229.094C429.162 229.094 429.42 229.047 429.631 228.952C429.842 228.85 430.002 228.694 430.112 228.483C430.221 228.265 430.275 227.981 430.275 227.632H430.581V228.919H430.319C430.239 229.123 430.115 229.316 429.948 229.498C429.788 229.68 429.58 229.829 429.326 229.945C429.078 230.055 428.776 230.109 428.42 230.109ZM431.454 230H430.363V228.374L430.275 228.319V224.576H431.454V230ZM437.668 230H436.489V226.846C436.489 226.366 436.398 226.02 436.216 225.809C436.034 225.591 435.692 225.481 435.19 225.481C434.87 225.481 434.608 225.529 434.405 225.623C434.201 225.711 434.048 225.856 433.946 226.06C433.844 226.256 433.793 226.526 433.793 226.868H433.586L433.488 225.591H433.75C433.83 225.394 433.95 225.212 434.11 225.045C434.27 224.878 434.474 224.739 434.721 224.63C434.976 224.521 435.278 224.466 435.627 224.466C436.1 224.466 436.486 224.557 436.784 224.739C437.082 224.921 437.304 225.172 437.45 225.492C437.595 225.813 437.668 226.18 437.668 226.595V230ZM433.793 230H432.615V224.576H433.695V226.202L433.793 226.256V230ZM441.003 230C440.406 230 439.948 229.873 439.628 229.618C439.315 229.363 439.158 228.934 439.158 228.33V224.696L439.431 223.233H440.337V228.276C440.337 228.559 440.406 228.741 440.544 228.821C440.69 228.894 440.948 228.93 441.319 228.93H441.974V229.902C441.865 229.931 441.723 229.956 441.548 229.978C441.374 229.993 441.192 230 441.003 230ZM441.974 225.558H438.252V224.576H441.974V225.558ZM443.843 223.888H442.675L442.664 222.687H443.843V223.888ZM443.853 230H442.675V224.543H443.853V230ZM447.295 230.109C446.705 230.109 446.214 229.993 445.821 229.76C445.428 229.52 445.137 229.189 444.948 228.767C444.759 228.337 444.664 227.843 444.664 227.282C444.664 226.722 444.77 226.231 444.981 225.809C445.199 225.387 445.505 225.059 445.898 224.827C446.29 224.586 446.756 224.466 447.295 224.466C447.782 224.466 448.211 224.561 448.582 224.75C448.961 224.932 449.252 225.198 449.456 225.547C449.667 225.896 449.772 226.318 449.772 226.813C449.772 226.959 449.765 227.1 449.75 227.239C449.743 227.37 449.732 227.479 449.718 227.566H445.221V226.78H448.757L448.637 226.889C448.666 226.555 448.63 226.282 448.528 226.071C448.433 225.86 448.277 225.703 448.059 225.602C447.848 225.5 447.582 225.449 447.262 225.449C446.687 225.449 446.294 225.594 446.083 225.885C445.872 226.169 445.767 226.562 445.767 227.064V227.391C445.767 227.755 445.81 228.065 445.898 228.319C445.992 228.567 446.152 228.752 446.378 228.876C446.603 229 446.913 229.061 447.306 229.061C447.764 229.061 448.088 228.989 448.277 228.843C448.466 228.698 448.561 228.505 448.561 228.265V228.177H449.728V228.276C449.728 228.647 449.627 228.97 449.423 229.247C449.219 229.516 448.935 229.727 448.572 229.88C448.215 230.033 447.789 230.109 447.295 230.109ZM453.047 230.109C452.254 230.109 451.654 229.953 451.246 229.64C450.839 229.32 450.635 228.829 450.635 228.166V228.145H451.77V228.341C451.77 228.53 451.807 228.687 451.879 228.81C451.959 228.927 452.09 229.014 452.272 229.072C452.461 229.123 452.727 229.149 453.069 229.149C453.36 229.149 453.578 229.127 453.724 229.083C453.877 229.032 453.978 228.963 454.029 228.876C454.08 228.789 454.106 228.679 454.106 228.548C454.106 228.33 454.029 228.177 453.877 228.09C453.724 227.995 453.451 227.912 453.058 227.839L452.207 227.697C451.887 227.632 451.606 227.541 451.366 227.424C451.133 227.301 450.952 227.133 450.821 226.922C450.697 226.704 450.635 226.431 450.635 226.104C450.635 225.616 450.828 225.223 451.214 224.925C451.599 224.619 452.145 224.466 452.851 224.466C453.28 224.466 453.662 224.536 453.997 224.674C454.331 224.812 454.597 225.019 454.793 225.296C454.99 225.572 455.088 225.918 455.088 226.333V226.431H453.964V226.3C453.964 226.125 453.935 225.976 453.877 225.853C453.818 225.722 453.709 225.62 453.549 225.547C453.389 225.474 453.145 225.438 452.818 225.438C452.389 225.438 452.105 225.492 451.967 225.602C451.828 225.711 451.759 225.871 451.759 226.082C451.759 226.293 451.821 226.442 451.945 226.529C452.076 226.609 452.33 226.689 452.709 226.769L453.637 226.944C453.986 227.009 454.277 227.108 454.51 227.239C454.742 227.37 454.917 227.541 455.034 227.752C455.157 227.963 455.219 228.214 455.219 228.505C455.219 229.014 455.026 229.411 454.641 229.694C454.262 229.971 453.731 230.109 453.047 230.109Z"
        fill="white" />
</svg>