<svg width="400" height="400" viewBox="0 0 400 400" fill="none" xmlns="http://www.w3.org/2000/svg">
    <path
        d="M378.97 67.4601C375.436 66.8081 371.508 66.1981 367.97 65.8101C367.17 65.7221 367.03 66.9841 367.792 67.1941C371.64 68.2501 375.992 69.0521 377.514 69.3941C371.036 115.554 356.69 162.686 361.514 197.47C361.614 198.188 362.746 198.036 362.742 197.314C362.636 178.83 362.53 168.732 365.974 146.778C370.024 120.978 377.64 90.5781 379.802 68.5021C379.784 68.265 379.695 68.0389 379.546 67.8531C379.398 67.6673 379.197 67.5303 378.97 67.4601Z"
        fill="#191919" />
    <path
        d="M346.164 40.7879C346.233 40.5999 346.233 40.3932 346.164 40.2052C346.095 40.0171 345.961 39.8599 345.786 39.7619C341.345 38.1156 336.75 36.9202 332.07 36.1939C327.318 35.342 322.524 34.7465 317.708 34.4099C289.178 32.4239 231.054 40.2299 203.012 52.9879C202.949 52.9097 202.874 52.8422 202.79 52.7879C196.31 48.6979 183.174 45.4459 175.672 43.9879C141.816 37.3679 87.1357 30.4279 54.9537 42.3599C54.824 42.4207 54.7203 42.526 54.6614 42.6566C54.6025 42.7872 54.5923 42.9346 54.6327 43.0721C54.673 43.2096 54.7613 43.3281 54.8814 43.4062C55.0016 43.4843 55.1457 43.5168 55.2877 43.4979C74.2793 38.6337 93.9447 36.9442 113.488 38.4979C129.726 39.4699 159.146 43.3779 171.538 45.5679C176.762 46.463 181.936 47.6313 187.038 49.0679C192.149 50.5779 197.149 52.4411 202.002 54.6439C202.131 54.7009 202.273 54.7227 202.414 54.7068C202.554 54.691 202.688 54.6383 202.802 54.5539C219.016 49.7979 230.602 45.1979 257.002 40.9739C272.802 38.4439 298.002 35.9859 313.648 36.5739C319.021 36.7663 324.376 37.3007 329.682 38.1739C342.542 40.3259 345.722 42.5639 346.164 40.7879Z"
        fill="#191919" />
    <path
        d="M347.57 42.3279C347.57 42.1534 347.501 41.986 347.377 41.8626C347.254 41.7392 347.086 41.6699 346.912 41.6699C346.737 41.6699 346.57 41.7392 346.447 41.8626C346.323 41.986 346.254 42.1534 346.254 42.3279C345.728 47.9538 345.513 53.6043 345.608 59.2539C345.496 64.8299 345.586 135.1 345.764 147.834C346.538 148.345 347.273 148.911 347.964 149.53C347.972 149.312 347.744 44.3999 347.57 42.3279Z"
        fill="#191919" />
    <path
        d="M365.076 58.0939C360.276 57.2299 354.076 56.2599 348.596 57.6479C348.434 57.6947 348.294 57.7979 348.202 57.9388C348.109 58.0797 348.07 58.2491 348.092 58.4162C348.113 58.5834 348.194 58.7373 348.319 58.8503C348.444 58.9632 348.605 59.0276 348.774 59.0319C353.73 58.9664 358.683 59.3391 363.574 60.1459C361.774 96.4039 355.842 127.32 353.606 159.276C354.413 161.295 355.054 163.375 355.524 165.498C357.68 128.944 364.538 96.1779 365.924 59.2319C365.929 58.975 365.849 58.7236 365.695 58.5175C365.541 58.3114 365.324 58.1624 365.076 58.0939Z"
        fill="#191919" />
    <path
        d="M169.428 73.3481C179.951 74.9599 190.202 78.0146 199.89 82.4261C200.988 82.8501 201.642 81.1761 200.69 80.5741C194.248 76.4921 181.052 73.2281 173.572 71.7741C161.736 69.4581 114.652 62.0541 85.3023 63.9241C74.2835 64.4239 63.3937 66.5038 52.9663 70.1001C52.7663 51.9341 53.3223 58.3161 53.3223 42.6481C53.3223 42.489 53.2591 42.3364 53.1466 42.2238C53.034 42.1113 52.8814 42.0481 52.7223 42.0481C52.5632 42.0481 52.4106 42.1113 52.298 42.2238C52.1855 42.3364 52.1223 42.489 52.1223 42.6481C50.7543 64.4581 49.6003 163.46 49.7803 193.954C50.5803 193.574 51.3803 193.174 52.1803 192.794C51.7003 154.828 52.9923 74.0221 52.9623 71.3421C62.5107 68.9355 72.2343 67.287 82.0423 66.4121C91.804 65.7087 101.603 65.6793 111.368 66.3241C126.956 67.2401 156.428 71.0521 169.428 73.3481Z"
        fill="#191919" />
    <path
        d="M288.6 219.868C261.852 220.228 218.378 224.554 203.654 228.632C203.576 228.652 203.505 228.688 203.443 228.738C203.381 228.788 203.331 228.851 203.296 228.922C203.345 228.718 203.321 228.503 203.227 228.315C203.134 228.127 202.976 227.979 202.784 227.896C191.724 222.654 140.2 218.77 108.27 219.244C108.316 220.044 108.383 220.844 108.47 221.644C109.138 221.644 109.808 221.626 110.47 221.622C169.328 221.322 200.41 229.852 202.218 229.852C202.425 229.846 202.627 229.782 202.801 229.668C202.974 229.553 203.112 229.393 203.2 229.204C203.177 229.284 203.177 229.369 203.2 229.45C203.221 229.606 203.304 229.747 203.429 229.843C203.554 229.939 203.711 229.981 203.868 229.962C210.988 229.4 260.448 219.384 319.868 222.714L320.002 220.44C309.7 219.909 299.233 219.719 288.6 219.868Z"
        fill="#191919" />
    <path
        d="M261.956 56.578C262.254 56.4289 262.519 56.2194 262.732 55.9628C262.945 55.7062 263.103 55.4081 263.195 55.0873C263.287 54.7665 263.312 54.4301 263.267 54.0994C263.222 53.7687 263.11 53.4508 262.936 53.166C262.704 52.7859 262.376 52.4743 261.984 52.2633C261.592 52.0524 261.15 51.9498 260.706 51.966C260.691 52.1005 260.636 52.2275 260.549 52.3308C260.462 52.4341 260.346 52.509 260.216 52.546C259.636 52.7975 259.173 53.2596 258.921 53.8391C258.668 54.4185 258.645 55.0721 258.856 55.668C259.162 56.1826 259.652 56.5623 260.227 56.731C260.802 56.8997 261.419 56.8451 261.956 56.578Z"
        fill="#38A1FF" />
    <path
        d="M258.654 51.136C258.605 51.2127 258.579 51.3019 258.579 51.393C258.579 51.484 258.605 51.5732 258.654 51.65C257.932 52.1283 257.386 52.8287 257.097 53.6452C256.809 54.4618 256.793 55.3501 257.054 56.176C257.269 56.7088 257.59 57.1923 257.997 57.597C258.405 58.0017 258.891 58.3191 259.425 58.5298C259.96 58.7405 260.531 58.8402 261.105 58.8227C261.679 58.8052 262.244 58.6709 262.764 58.428C263.32 58.1621 263.815 57.7842 264.217 57.318C264.62 56.8518 264.922 56.3074 265.104 55.719C265.286 55.1306 265.345 54.5108 265.276 53.8987C265.207 53.2866 265.013 52.6953 264.704 52.162C263.582 50.222 260.104 48.87 258.654 51.136ZM261.956 56.578C261.42 56.8457 260.802 56.9002 260.227 56.7306C259.652 56.561 259.162 56.1799 258.856 55.664C258.645 55.0681 258.667 54.4141 258.92 53.8344C259.173 53.2547 259.636 52.7927 260.216 52.542C260.347 52.505 260.463 52.43 260.55 52.3267C260.637 52.2234 260.692 52.0964 260.706 51.962C261.151 51.9484 261.591 52.0522 261.982 52.2629C262.374 52.4735 262.703 52.7836 262.936 53.162C263.109 53.4476 263.22 53.7656 263.264 54.0962C263.308 54.4268 263.283 54.7629 263.191 55.0835C263.099 55.404 262.942 55.7022 262.729 55.9593C262.517 56.2165 262.254 56.4271 261.956 56.578Z"
        fill="#191919" />
    <path
        d="M281.224 53.1659C281.524 53.018 281.789 52.809 282.004 52.5526C282.218 52.2961 282.376 51.9977 282.468 51.6765C282.561 51.3553 282.585 51.0184 282.539 50.6873C282.494 50.3563 282.38 50.0383 282.204 49.7539C281.973 49.3737 281.644 49.0622 281.252 48.8512C280.86 48.6403 280.419 48.5377 279.974 48.5539C279.96 48.6884 279.905 48.8154 279.818 48.9187C279.73 49.022 279.614 49.0969 279.484 49.1339C278.904 49.3854 278.442 49.8475 278.189 50.427C277.937 51.0064 277.914 51.66 278.124 52.2559C278.431 52.7705 278.921 53.1501 279.496 53.3189C280.071 53.4876 280.688 53.433 281.224 53.1659Z"
        fill="#38A1FF" />
    <path
        d="M277.922 47.7241C277.873 47.8009 277.847 47.89 277.847 47.9811C277.847 48.0721 277.873 48.1613 277.922 48.2381C277.2 48.7162 276.653 49.4166 276.365 50.2332C276.076 51.0498 276.061 51.9383 276.322 52.7641C276.537 53.2968 276.857 53.7803 277.265 54.185C277.672 54.5897 278.158 54.9071 278.692 55.1178C279.226 55.3286 279.798 55.4282 280.372 55.4107C280.946 55.3933 281.51 55.259 282.03 55.0161C282.586 54.7502 283.081 54.3723 283.483 53.9061C283.886 53.44 284.188 52.8956 284.37 52.3071C284.552 51.7187 284.611 51.099 284.542 50.4868C284.473 49.8747 284.279 49.2834 283.97 48.7501C282.85 46.8101 279.372 45.4581 277.922 47.7241ZM281.224 53.1661C280.688 53.4333 280.07 53.4876 279.495 53.3181C278.92 53.1485 278.43 52.7677 278.124 52.2521C277.913 51.6563 277.935 51.0023 278.188 50.4226C278.44 49.8429 278.904 49.3808 279.484 49.1301C279.614 49.0931 279.731 49.0182 279.818 48.9148C279.905 48.8115 279.96 48.6845 279.974 48.5501C280.419 48.5365 280.859 48.6403 281.25 48.851C281.642 49.0617 281.971 49.3718 282.204 49.7501C282.377 50.0356 282.489 50.3537 282.532 50.6844C282.576 51.015 282.552 51.3512 282.46 51.6719C282.368 51.9925 282.21 52.2907 281.998 52.5478C281.785 52.8049 281.522 53.0154 281.224 53.1661Z"
        fill="#191919" />
    <path
        d="M300.492 52.162C300.791 52.013 301.056 51.8036 301.269 51.5471C301.483 51.2906 301.641 50.9925 301.733 50.6717C301.825 50.3509 301.85 50.0145 301.805 49.6837C301.761 49.3529 301.648 49.0349 301.474 48.75C301.242 48.3699 300.913 48.0585 300.521 47.8476C300.129 47.6367 299.687 47.534 299.242 47.55C299.228 47.6845 299.173 47.8116 299.086 47.915C298.999 48.0183 298.883 48.0932 298.752 48.13C298.173 48.3818 297.71 48.844 297.458 49.4233C297.206 50.0026 297.182 50.656 297.392 51.252C297.699 51.7669 298.189 52.1469 298.764 52.3156C299.339 52.4844 299.956 52.4295 300.492 52.162Z"
        fill="#38A1FF" />
    <path
        d="M297.2 46.72C297.15 46.7965 297.124 46.8858 297.124 46.977C297.124 47.0683 297.15 47.1576 297.2 47.234C296.478 47.7119 295.931 48.4123 295.642 49.229C295.353 50.0457 295.338 50.9342 295.6 51.76C295.814 52.2928 296.135 52.7762 296.542 53.181C296.95 53.5857 297.435 53.9032 297.97 54.1141C298.504 54.325 299.075 54.4249 299.649 54.4077C300.223 54.3905 300.788 54.2566 301.308 54.014C301.864 53.7482 302.359 53.3702 302.762 52.9039C303.165 52.4375 303.467 51.8929 303.649 51.3043C303.831 50.7156 303.889 50.0956 303.82 49.4833C303.752 48.8709 303.557 48.2794 303.248 47.746C302.12 45.8 298.64 44.454 297.2 46.72ZM300.5 52.162C299.963 52.4292 299.346 52.4835 298.771 52.314C298.196 52.1445 297.706 51.7636 297.4 51.248C297.189 50.6522 297.212 49.9984 297.464 49.4188C297.717 48.8392 298.18 48.3772 298.76 48.126C298.89 48.0893 299.007 48.0144 299.094 47.9111C299.181 47.8077 299.236 47.6806 299.25 47.546C299.695 47.5327 300.135 47.6366 300.527 47.8473C300.918 48.0579 301.248 48.3678 301.482 48.746C301.654 49.0323 301.765 49.3509 301.808 49.6819C301.851 50.013 301.825 50.3493 301.732 50.67C301.639 50.9906 301.481 51.2886 301.268 51.5454C301.054 51.8021 300.79 52.012 300.492 52.162H300.5Z"
        fill="#191919" />
    <path
        d="M149.244 105.484C148.908 88.91 138 80.228 127.188 82.024C120.931 83.2617 115.149 86.2374 110.506 90.61C108.261 92.5675 106.486 95.0054 105.313 97.7427C104.14 100.48 103.598 103.447 103.728 106.422C104.35 117.194 112.148 125.75 115.636 135.168C118.336 142.454 118.286 145.568 117.488 149.842C117.471 149.924 117.479 150.01 117.51 150.088C117.373 150.77 117.464 151.479 117.771 152.103C118.077 152.728 118.581 153.235 119.204 153.544C120.571 154.112 122.055 154.342 123.53 154.214C125.426 154.176 127.3 154.102 129.196 153.99C131.426 153.858 135.3 154.234 135.618 151.18C135.772 149.708 135.418 148.192 135.506 146.72C136.318 132.948 149.636 124.768 149.244 105.484Z"
        fill="#38A1FF" />
    <path
        d="M311.954 179.57C310.778 179.57 309.828 180.46 309.858 182.246C309.228 185.874 313.084 186.912 313.784 183.918C314.54 182.6 314.108 179.178 311.954 179.57Z"
        fill="#191919" />
    <path
        d="M311.33 174.15C310.998 174.35 311.108 174.95 311.53 174.932C311.876 174.87 312.231 174.878 312.573 174.956C312.916 175.033 313.239 175.179 313.524 175.384C313.809 175.59 314.049 175.85 314.232 176.15C314.414 176.451 314.534 176.784 314.584 177.132C314.632 177.578 314.494 178.384 314.942 178.672C315.43 178.986 315.854 178.492 316.034 178.092C316.232 177.465 316.24 176.794 316.056 176.163C315.872 175.532 315.505 174.97 315.001 174.548C314.497 174.125 313.879 173.862 313.226 173.792C312.573 173.721 311.913 173.846 311.33 174.15Z"
        fill="#191919" />
    <path
        d="M318 198.682C317.963 198.617 317.912 198.562 317.85 198.521C317.788 198.48 317.717 198.454 317.643 198.445C317.57 198.437 317.495 198.445 317.425 198.471C317.355 198.496 317.292 198.538 317.242 198.592C316.736 199.26 316.427 200.056 316.35 200.89C315.48 204.524 313.462 205.106 311.376 203.656C310.93 203.344 310.46 203.856 310.552 204.302C311.05 206.714 314.364 206.53 315.904 205.372C316.862 204.638 317.571 203.626 317.934 202.474C318.198 201.879 318.34 201.236 318.352 200.585C318.363 199.933 318.243 199.286 318 198.682Z"
        fill="#191919" />
    <path
        d="M97.8177 258.962C92.9895 260.819 88.3998 263.245 84.1457 266.188C80.7797 268.374 33.3857 300.438 32.8317 300.8C30.7172 302.126 28.7109 303.617 26.8317 305.26C26.7439 305.346 26.6848 305.458 26.6624 305.579C26.64 305.7 26.6553 305.825 26.7065 305.937C26.7576 306.049 26.8419 306.143 26.948 306.205C27.0542 306.268 27.177 306.296 27.2997 306.286C29.4292 305.258 31.4667 304.048 33.3897 302.672C82.7617 269.626 85.5417 266.92 98.3757 260.368C98.539 260.279 98.664 260.133 98.7272 259.958C98.7904 259.783 98.7874 259.591 98.7188 259.418C98.6502 259.245 98.5207 259.103 98.3547 259.019C98.1887 258.935 97.9977 258.915 97.8177 258.962Z"
        fill="#191919" />
    <path
        d="M335.304 44.2901C333.283 45.1065 331.419 46.2685 329.796 47.7241C328.836 46.3716 327.704 45.15 326.428 44.0901C326.29 43.965 326.111 43.8925 325.924 43.8851C325.738 43.8778 325.554 43.9361 325.406 44.0499C325.258 44.1638 325.154 44.3259 325.113 44.5082C325.072 44.6906 325.096 44.8816 325.18 45.0481C325.942 46.4481 327.132 47.8341 328.056 49.2181C327.123 50.0434 326.224 50.9061 325.358 51.8061C324.351 52.6154 323.657 53.7505 323.396 55.0161C323.397 55.1129 323.42 55.2083 323.464 55.2947C323.507 55.3812 323.57 55.4564 323.648 55.5145C323.725 55.5726 323.815 55.612 323.91 55.6296C324.005 55.6472 324.103 55.6426 324.197 55.6161C325.625 55.2161 325.978 54.1421 329.28 51.0161C330.486 52.8531 331.596 54.7517 332.604 56.7041C333.204 57.8641 333.668 59.1501 334.968 59.6701C335.113 59.7054 335.266 59.6835 335.395 59.609C335.524 59.5344 335.619 59.413 335.66 59.2701C335.758 58.607 335.719 57.9311 335.547 57.2834C335.375 56.6357 335.074 56.0297 334.66 55.5021C333.092 52.6001 331.932 50.8801 331.046 49.5021C332.72 48.1641 334.472 46.9701 336.046 45.5321C336.157 45.4125 336.226 45.2603 336.243 45.0983C336.26 44.9364 336.224 44.7733 336.14 44.6334C336.057 44.4936 335.93 44.3846 335.779 44.3227C335.629 44.2608 335.462 44.2494 335.304 44.2901Z"
        fill="#38A1FF" />
    <path
        d="M79.286 54.3261C79.13 56.7561 79.018 59.2101 78.75 61.6401C80.434 61.6901 80.566 61.6841 81.894 61.6841C81.65 59.1201 81.604 56.5121 81.56 53.9241L79.286 54.3261Z"
        fill="#191919" />
    <path
        d="M89.6562 52.074C89.5442 52.026 89.4322 51.984 89.3202 51.94C86.8224 48.0425 84.0267 44.3442 80.9582 40.878C80.8131 40.733 80.6164 40.6516 80.4112 40.6516C80.2061 40.6516 80.0094 40.733 79.8642 40.878C79.0082 41.798 71.1562 51.81 71.1462 51.828C71.0762 51.9494 71.0392 52.0871 71.0391 52.2273C71.0389 52.3675 71.0757 52.5053 71.1455 52.6268C71.2154 52.7483 71.316 52.8494 71.4372 52.9198C71.5585 52.9902 71.6961 53.0275 71.8362 53.028C72.9522 53.16 74.0222 53.318 75.1382 53.362C75.0922 54.01 75.1742 54.722 75.1602 55.348C75.1162 57.108 75.1142 58.894 75.1142 60.656C75.1227 60.878 75.2148 61.0886 75.3721 61.2456C75.5294 61.4025 75.7402 61.4941 75.9622 61.502C76.6322 61.542 77.3002 61.57 77.9622 61.592C77.8022 58.9925 77.847 56.3845 78.0962 53.792C78.0995 53.6605 78.1444 53.5335 78.2246 53.4292C78.3047 53.3249 78.416 53.2489 78.5422 53.212C79.7042 53.012 80.8402 52.798 82.0202 52.612C82.1122 52.5875 82.2085 52.5844 82.3018 52.603C82.3951 52.6217 82.4829 52.6616 82.5583 52.7196C82.6337 52.7776 82.6947 52.8522 82.7367 52.9376C82.7787 53.023 82.8004 53.1169 82.8002 53.212C82.8242 56.044 83.0682 58.854 83.1362 61.686C84.2562 61.686 84.9482 61.786 85.4102 61.42C86.2562 60.748 85.8762 58.876 85.9002 57.962C85.9402 56.512 85.9682 55.064 86.0122 53.614C87.178 53.632 88.343 53.5423 89.4922 53.346C89.6241 53.3094 89.7423 53.2346 89.8319 53.1312C89.9216 53.0278 89.9787 52.9002 89.9962 52.7644C90.0137 52.6287 89.9908 52.4908 89.9303 52.368C89.8699 52.2452 89.7745 52.1429 89.6562 52.074Z"
        fill="#191919" />
    <path
        d="M277.634 175.734C275.822 172.216 267.978 163.41 266.572 161.172C266.266 160.684 266.122 160.118 265.814 159.676C267.801 158.36 269.68 156.889 271.434 155.276C276.554 151.118 277.36 150.676 277.476 149.476C277.473 149.237 277.375 149.008 277.204 148.841C277.033 148.674 276.802 148.581 276.562 148.584C276.503 148.445 276.412 148.322 276.295 148.225C276.179 148.128 276.042 148.06 275.894 148.026C273.584 147.476 271.19 147.026 268.868 146.666C256.312 144.684 244.012 141.502 236.446 142.944C236.168 142.963 235.895 143.038 235.646 143.164C235.396 143.289 235.174 143.463 234.992 143.676C234.392 144.476 234.282 144.588 233.7 153.824C232.968 165.424 232.46 175.852 232.45 176.058C232.249 179.235 232.232 182.421 232.4 185.6C232.312 185.698 232.256 185.822 232.243 185.954C232.229 186.085 232.258 186.218 232.325 186.332C232.392 186.446 232.493 186.536 232.615 186.589C232.736 186.641 232.871 186.654 233 186.624C235.802 185.277 238.346 183.449 240.516 181.224C241.716 180.224 242.916 179.046 244.15 177.902C245.101 177.155 245.962 176.302 246.716 175.358C250.803 181.094 255.352 186.486 260.316 191.482C260.874 191.804 261.162 191.482 261.474 191.238C263.248 189.798 278.048 177.638 278.312 176.852C278.359 176.615 278.316 176.368 278.19 176.162C278.065 175.955 277.867 175.802 277.634 175.734ZM261.108 189.494C260.886 189.206 254.554 182.324 247.638 174.106C247.438 173.996 247.076 172.946 245.942 173.37C244.76 174.055 243.723 174.964 242.888 176.046C238.902 179.95 234.992 183.07 233.81 184.12C234.172 181.12 236.548 145.302 236.554 145.102C236.557 145.01 236.579 144.919 236.617 144.835C236.656 144.751 236.712 144.676 236.78 144.614C237.096 144.326 237.246 144.44 239.61 144.578C241.682 144.7 243.81 144.806 245.898 145.07C253.082 145.974 271.408 149.67 274.098 150.02C272.226 151.806 265.776 157.038 264.284 158.964C264.162 158.977 264.043 159.016 263.937 159.079C263.83 159.142 263.739 159.227 263.669 159.329C263.599 159.431 263.552 159.546 263.531 159.668C263.51 159.79 263.516 159.915 263.548 160.034C263.641 160.284 263.761 160.524 263.906 160.748C264.188 161.438 264.555 162.089 264.998 162.688C265.598 163.456 274.268 174.444 276.172 176.224C275.332 176.776 262.24 188.018 261.108 189.494Z"
        fill="#191919" />
    <path
        d="M307.918 87.888C305.865 87.4618 303.759 87.3565 301.674 87.576C281.426 87.8461 261.241 89.8838 241.348 93.666C240.724 93.796 240.858 94.866 241.504 94.78C261.144 91.9976 280.929 90.3522 300.76 89.852C303.163 90.0489 305.582 89.8913 307.94 89.384C308.099 89.3328 308.238 89.2317 308.336 89.0955C308.434 88.9594 308.485 88.7954 308.483 88.6278C308.48 88.4602 308.424 88.2979 308.322 88.1647C308.221 88.0314 308.079 87.9345 307.918 87.888Z"
        fill="#191919" />
    <path
        d="M299.51 102.318C301.689 102.355 303.857 102 305.91 101.27C306.012 101.207 306.094 101.116 306.145 101.008C306.196 100.9 306.215 100.779 306.198 100.66C306.181 100.541 306.13 100.43 306.051 100.34C305.971 100.25 305.868 100.186 305.752 100.154C303.092 99.416 302.118 100.084 281.69 101.18C273.64 101.612 248.26 102.44 243.666 102.764C243.477 102.764 243.295 102.839 243.161 102.973C243.027 103.107 242.952 103.289 242.952 103.478C242.952 103.667 243.027 103.849 243.161 103.983C243.295 104.117 243.477 104.192 243.666 104.192C258.214 104.684 284.918 103.346 299.51 102.318Z"
        fill="#191919" />
    <path
        d="M305.242 113.6C303.842 113.574 259.226 115.104 243.98 116.432C243.827 116.432 243.679 116.493 243.57 116.602C243.462 116.711 243.4 116.858 243.4 117.012C243.4 117.166 243.462 117.313 243.57 117.422C243.679 117.531 243.827 117.592 243.98 117.592C259.836 117.636 275.716 116.868 291.58 116.254C296.106 116.08 300.72 116.082 305.25 115.654C305.523 115.653 305.784 115.544 305.975 115.35C306.167 115.157 306.274 114.895 306.273 114.623C306.272 114.351 306.163 114.09 305.97 113.898C305.776 113.706 305.515 113.599 305.242 113.6Z"
        fill="#191919" />
    <path
        d="M141.328 157.424C141.034 154.73 138.128 154.086 135.418 154.704C135.29 154.738 135.177 154.813 135.096 154.918C135.015 155.023 134.972 155.152 134.972 155.284C134.972 155.416 135.015 155.545 135.096 155.65C135.177 155.755 135.29 155.83 135.418 155.864C136.798 156.14 139.134 155.792 139.588 157.402C139.679 157.677 139.705 157.97 139.662 158.256C139.619 158.543 139.51 158.816 139.342 159.052C138.86 159.544 138.284 159.934 137.648 160.198C137.012 160.463 136.329 160.597 135.64 160.592C135.444 160.628 135.268 160.731 135.141 160.884C135.013 161.037 134.944 161.229 134.944 161.428C134.944 161.627 135.013 161.819 135.141 161.972C135.268 162.125 135.444 162.228 135.64 162.264C136.481 162.176 137.324 162.425 137.982 162.956C138.263 163.172 138.468 163.472 138.57 163.811C138.672 164.151 138.664 164.514 138.548 164.849C138.432 165.184 138.214 165.474 137.925 165.679C137.635 165.883 137.288 165.991 136.934 165.988C136.594 165.91 136.27 165.775 135.976 165.588C135.166 165.148 134.506 166.55 135.306 167.128C135.703 167.381 136.141 167.561 136.6 167.662C137.063 167.778 137.484 168.021 137.815 168.365C138.146 168.708 138.373 169.137 138.472 169.604C138.529 169.872 138.489 170.152 138.359 170.393C138.228 170.633 138.016 170.82 137.76 170.918C136.054 171.79 124.67 172.952 118.044 171.364C116.774 171.147 115.6 170.549 114.678 169.648C114.092 168.966 114.38 168.262 115.168 167.886C115.807 167.652 116.49 167.56 117.168 167.618C120.168 167.818 127.45 168.452 127.514 165.618C127.518 165.54 127.507 165.462 127.479 165.388C127.452 165.315 127.41 165.248 127.356 165.192C127.302 165.136 127.236 165.091 127.164 165.061C127.092 165.031 127.014 165.017 126.936 165.018C126.594 165.019 126.261 165.119 125.976 165.308C124.763 165.914 123.399 166.154 122.052 166C120.374 166 115.134 166.264 114.09 164.974C113.982 164.839 113.906 164.681 113.868 164.512C113.831 164.343 113.833 164.168 113.874 164C114.212 162.034 116.574 163.042 120.654 162.662C122.326 162.506 126.864 162.584 127.992 161.568C128.052 161.513 128.098 161.444 128.126 161.367C128.154 161.29 128.163 161.208 128.152 161.127C128.141 161.046 128.11 160.969 128.063 160.902C128.016 160.835 127.953 160.781 127.88 160.744C126.71 160.232 125.634 160.756 122.06 160.878C120.86 160.918 120.418 161.1 119.294 161.1C118.27 161.056 117.25 160.952 116.238 160.788C115.864 160.737 115.506 160.6 115.194 160.387C114.881 160.174 114.623 159.892 114.438 159.562C114.326 159.321 114.275 159.057 114.291 158.792C114.307 158.527 114.388 158.27 114.528 158.044C116.298 154.546 122.852 157.666 132.412 155.748C133.048 155.62 132.888 154.66 132.256 154.632C129.774 154.53 126.528 154.832 122.266 154.588C118.866 154.388 114.876 154.16 113.056 157.064C112.599 157.77 112.428 158.624 112.576 159.452C112.725 160.28 113.182 161.021 113.856 161.524C113.339 161.713 112.893 162.055 112.578 162.506C112.262 162.957 112.094 163.494 112.094 164.044C112.057 164.601 112.188 165.156 112.471 165.637C112.753 166.118 113.174 166.503 113.678 166.742C113.141 167.13 112.771 167.707 112.643 168.357C112.514 169.007 112.637 169.681 112.986 170.244C114.398 172.514 117.47 173.064 120.234 173.388C125.466 173.994 130.757 173.874 135.956 173.032C137.22 172.985 138.428 172.495 139.368 171.648C139.89 170.953 140.118 170.081 140.001 169.22C139.884 168.359 139.432 167.578 138.744 167.048C139.15 166.762 139.489 166.391 139.738 165.961C139.986 165.531 140.138 165.051 140.183 164.556C140.227 164.062 140.163 163.563 139.996 163.095C139.828 162.628 139.561 162.202 139.212 161.848C139.058 161.69 138.9 161.558 138.744 161.424C139.386 161.125 139.957 160.692 140.418 160.154C140.78 159.807 141.052 159.377 141.21 158.901C141.369 158.426 141.409 157.919 141.328 157.424Z"
        fill="#191919" />
    <path
        d="M137.112 108.786C136.59 106.474 135.312 104.112 133.008 104.704C132.24 104.913 131.531 105.295 130.934 105.82C130.566 105.247 130.076 104.763 129.499 104.402C128.921 104.041 128.271 103.813 127.595 103.734C126.919 103.655 126.234 103.727 125.589 103.945C124.944 104.163 124.355 104.521 123.866 104.994C123.633 104.484 123.279 104.039 122.836 103.698C122.392 103.356 121.871 103.128 121.319 103.034C120.767 102.939 120.2 102.981 119.668 103.156C119.136 103.331 118.654 103.633 118.266 104.036C113.974 107.942 117.216 118.09 118.958 123.616C122.648 135.33 122.558 140.348 121.768 150.98C121.728 151.5 122.508 151.6 122.66 151.09C123.858 146.486 124.176 141.696 123.596 136.974C122.536 125.332 117.632 118.574 117.796 109.744C117.876 105.452 120.222 104.082 121.452 104.744C122.05 105.161 122.516 105.742 122.792 106.418C121.615 108.942 121.362 111.799 122.078 114.49C122.143 114.716 122.257 114.924 122.41 115.102C122.564 115.28 122.754 115.422 122.968 115.52C123.182 115.617 123.414 115.667 123.649 115.667C123.884 115.666 124.116 115.615 124.33 115.516C125.396 114.928 125.56 113.286 125.646 112.416C125.788 110.378 125.436 108.335 124.62 106.462C124.906 106.059 125.294 105.739 125.744 105.535C126.195 105.331 126.692 105.251 127.184 105.302C127.72 105.394 128.232 105.591 128.691 105.882C129.151 106.173 129.548 106.552 129.86 106.998C129.239 107.798 128.77 108.705 128.478 109.674C127.81 111.906 128.678 114.95 131.132 114.49C133.332 114.09 133.104 111.54 132.532 109.384C132.327 108.574 132.035 107.789 131.662 107.042C133.862 105.104 134.88 105.992 135.61 108.76C136.14 110.814 135.976 112.986 135.142 114.936C134.028 117.562 130.388 121.678 129.322 124.704C128.234 127.794 127.37 140.646 129.21 146.916C129.38 147.498 130.41 147.408 130.302 146.76C130.046 143.86 129.678 140.784 129.678 137.506C129.596 133.353 129.963 129.203 130.77 125.128C131.44 123.208 135.57 117.482 136.28 115.984C137.359 113.747 137.652 111.211 137.112 108.786ZM130.6 108.272C131.29 109.531 131.593 110.967 131.47 112.398C131.433 112.522 131.368 112.636 131.28 112.73C131.192 112.825 131.083 112.898 130.962 112.943C130.841 112.989 130.711 113.005 130.583 112.992C130.454 112.979 130.331 112.935 130.222 112.866C129.832 112.146 129.66 111.329 129.728 110.513C129.795 109.697 130.098 108.919 130.6 108.272ZM124.044 112.042C123.996 114.11 123.394 114.526 123.352 112.398C123.24 111.125 123.33 109.843 123.62 108.598C123.917 109.721 124.059 110.88 124.044 112.042Z"
        fill="#191919" />
    <path
        d="M97.4161 187.04C87.5966 190.128 77.9425 193.72 68.4921 197.8C54.6681 203.954 26.0101 218 19.9421 222.042C19.7437 222.176 19.5947 222.371 19.5181 222.598C16.5941 245.398 21.2161 297.026 23.0421 300.676C22.9401 301.076 23.3861 301.502 23.7541 301.256C26.5541 299.656 26.4701 297.32 51.6541 281.23C76.8381 265.14 92.3461 257.4 96.4801 254.346C96.6559 254.226 96.7795 254.043 96.8261 253.835C96.8728 253.628 96.8389 253.41 96.7314 253.226C96.6239 253.042 96.4507 252.906 96.2467 252.845C96.0427 252.783 95.8231 252.802 95.6321 252.896C93.0981 253.996 38.8981 284.528 24.3561 299.238C21.1866 279.503 19.8283 259.52 20.2981 239.538C20.3621 233.554 20.6981 229.898 20.6541 223.28C26.1061 220.826 58.3761 202.796 81.9381 194.222C91.8441 190.622 94.0721 190.198 96.7021 189.048C96.6841 189.276 96.1401 247.76 96.9701 252.874C97.0061 253.005 97.0843 253.122 97.1927 253.204C97.3011 253.287 97.4337 253.332 97.5701 253.332C97.7065 253.332 97.8391 253.287 97.9475 253.204C98.0559 253.122 98.1341 253.005 98.1701 252.874C98.9561 247.936 98.5941 189.72 98.3701 187.776C98.3632 187.662 98.3319 187.551 98.2785 187.45C98.225 187.349 98.1506 187.261 98.0603 187.191C97.9699 187.122 97.8657 187.072 97.7546 187.046C97.6435 187.02 97.5281 187.018 97.4161 187.04Z"
        fill="#191919" />
    <path
        d="M191.416 262.932C191.288 262.814 191.128 262.735 190.956 262.707C190.784 262.679 190.607 262.702 190.448 262.773C190.289 262.845 190.154 262.961 190.06 263.109C189.967 263.256 189.919 263.428 189.922 263.602C189.889 263.505 189.836 263.416 189.765 263.343C189.694 263.269 189.608 263.212 189.512 263.176C189.416 263.139 189.314 263.125 189.212 263.133C189.11 263.141 189.011 263.171 188.922 263.222C186.172 264.844 183.563 266.694 181.122 268.752C181.836 269.176 182.55 269.622 183.264 270.024C185.494 268.196 187.74 266.338 189.776 264.338C189.838 264.281 189.887 264.211 189.921 264.134C189.956 264.057 189.974 263.974 189.976 263.89C190.258 264.926 190.896 265.874 191.092 266.89C191.415 268.84 191.01 270.84 189.954 272.51C189.842 272.666 189.708 272.822 189.576 272.978C189.888 273.066 191.314 273.446 191.694 273.558V273.536C193.8 270.562 193.766 264.936 191.416 262.932Z"
        fill="#191919" />
    <path
        d="M179.752 262.374C182.903 262.847 186.094 262.996 189.276 262.82C189.966 262.732 190.232 261.736 189.454 261.528C184.276 260.142 148.786 259.648 109.236 257.602C107.915 257.494 106.59 257.464 105.266 257.512C105.89 245.068 105.488 232.602 105.356 220.158C105.064 192.818 106.264 190.332 105.222 182.112C105.218 181.601 105.11 181.096 104.904 180.628C104.697 180.16 104.397 179.739 104.022 179.392C103.59 179.115 103.105 178.932 102.597 178.855C102.09 178.779 101.572 178.809 101.078 178.946C79.2938 182.892 43.5478 200.496 23.9378 211.146C21.1038 212.684 18.1778 214.128 15.5078 215.896C13.4958 217.228 11.2698 218.506 11.0478 221.004C9.88178 227.79 9.06778 278.78 12.0058 300.352C12.5498 304.352 13.7458 308.848 17.4698 310.208C16.6218 315.188 20.4278 319.008 25.1418 320.808C32.5558 324.138 69.1058 326.156 105.716 330.42C111.515 331.231 117.366 331.626 123.222 331.602C127.222 331.492 132.232 331.402 132.79 329.618C132.79 329.618 133.684 326.044 130.806 325.09C125.322 323.274 123.006 323.42 116.532 323.596C114.012 323.664 113.35 322.996 112.562 319.85C112.48 319.559 112.435 319.258 112.428 318.956C79.4418 317.06 27.8058 308.73 20.3918 308.252C20.2659 308.005 20.0517 307.814 19.7918 307.718C14.7218 295.2 15.7998 280.55 15.3478 267.326C14.8478 252.942 15.1358 238.594 15.5038 224.194C15.4562 222.353 16.0556 220.554 17.1978 219.11C20.2607 216.628 23.5036 214.376 26.8998 212.374C51.9998 197.572 72.2618 188.088 100.07 180.84C101.294 180.522 103.07 179.84 103.482 181.532C104.526 185.744 103.436 196.478 103.66 217.732C103.802 231.132 103.994 244.56 103.928 257.962C103.925 258.067 103.948 258.171 103.996 258.265C104.043 258.358 104.113 258.439 104.2 258.498C104.286 258.558 104.386 258.595 104.491 258.606C104.595 258.617 104.701 258.602 104.798 258.562C110.49 260.082 159.836 260.784 179.752 262.374Z"
        fill="#191919" />
    <path
        d="M334.6 212.754C331.584 212.442 328.978 213.462 323.07 213.602C319.246 213.919 315.402 213.302 311.87 211.802C308.7 210.156 308.47 206.65 308.68 203.482C308.938 199.558 309.402 195.656 309.75 191.752C309.746 191.517 309.651 191.292 309.485 191.125C309.318 190.959 309.093 190.864 308.858 190.86C307.588 190.74 306.316 190.628 305.046 190.504C304.357 190.5 303.67 190.433 302.994 190.304C302.366 190.104 302.334 189.728 302.504 189.122C302.762 188.19 306.764 180.204 309.462 171.66C313.134 172.077 316.848 171.935 320.478 171.238C320.679 174.14 321.692 176.926 323.4 179.28C325.184 177.254 327.445 175.706 329.978 174.774C329.866 172.032 329.93 169.288 329.844 166.574C329.58 158.076 328.662 148.834 328.662 148.31C319.496 143.96 312.024 134.85 301.188 135.598C298.817 135.641 296.506 136.346 294.515 137.635C292.525 138.924 290.935 140.744 289.926 142.89C287.878 147.754 289.158 153.42 291.126 158.1C293.774 164.388 297.258 168.35 303.904 170.454C305.196 170.867 306.515 171.188 307.852 171.414C307.02 173.628 305.978 176.992 302.566 184.594C301.806 186.288 299.668 189.23 301.072 191.084C301.89 192.164 303.002 192.006 307.872 192.51C307.448 196.57 306.872 200.696 306.778 204.776C306.579 206.39 306.831 208.027 307.504 209.506C308.177 210.986 309.245 212.251 310.592 213.162C314.411 214.957 318.626 215.747 322.836 215.458C322.614 217.81 323.316 220.104 321.836 222.84C321.431 223.364 321.169 223.984 321.078 224.64C321.08 224.776 321.135 224.905 321.231 225.001C321.327 225.097 321.456 225.152 321.592 225.154C323.286 225.142 324.082 222.454 324.334 221.094C324.717 219.203 324.656 217.249 324.156 215.386C327.767 215.316 331.349 214.73 334.794 213.646C335.348 213.468 335.014 212.8 334.6 212.754ZM300.916 160.836C300.906 161.058 300.813 161.267 300.656 161.424C300.499 161.581 300.289 161.674 300.068 161.684C297.194 162.084 295.096 156.978 294.314 154.77C293.042 151.508 293.083 147.88 294.426 144.646C294.527 144.483 294.678 144.357 294.857 144.286C295.035 144.216 295.232 144.205 295.417 144.255C295.602 144.305 295.766 144.413 295.885 144.564C296.004 144.715 296.071 144.9 296.076 145.092C296.246 150.464 295.994 153.682 299.756 158.338C300.504 159.266 301.012 159.656 300.916 160.836Z"
        fill="#191919" />
    <path
        d="M353.68 170.716C353.034 165.116 351.79 159.182 347.748 154.994C346.466 153.658 344.927 152.596 343.222 151.872C344.869 159.985 345.579 168.261 345.34 176.536C347.341 178.304 348.789 180.611 349.51 183.182C350.193 186.138 350.141 189.217 349.36 192.148C348.578 195.08 347.091 197.776 345.028 200C343.258 201.789 341.064 203.102 338.65 203.814C338.767 204.267 339.002 204.681 339.331 205.014C339.66 205.346 340.071 205.586 340.522 205.708C341.459 205.935 342.416 206.069 343.378 206.108C342.548 209.764 341.558 220.828 344.578 222.366C344.656 222.41 344.742 222.436 344.831 222.441C344.919 222.446 345.008 222.431 345.09 222.397C345.172 222.363 345.245 222.31 345.303 222.243C345.362 222.176 345.404 222.096 345.426 222.01C345.774 220.14 343.158 218.956 344.912 206.13C345.67 206.108 346.452 206.074 347.254 206.042C347.535 206.029 347.806 205.941 348.041 205.788C348.276 205.635 348.467 205.423 348.592 205.172C348.992 204.21 349.26 203.186 349.64 202.206C353.472 192.18 354.857 181.385 353.68 170.716Z"
        fill="#191919" />
    <path
        d="M343.132 177.942C343.11 173.17 342.92 168.396 342.552 163.758C342.233 159.199 341.675 154.659 340.88 150.158C340.686 149.363 340.232 148.657 339.589 148.151C338.946 147.646 338.152 147.371 337.334 147.37C335.419 147.432 333.514 147.678 331.646 148.106C328.872 149.424 331.352 153.62 331.646 169.136C331.696 171.698 331.568 173.832 331.692 176.496C330.59 177.005 329.603 177.734 328.792 178.638C328.673 178.771 328.604 178.942 328.597 179.12C328.59 179.298 328.645 179.474 328.753 179.616C328.861 179.758 329.016 179.858 329.19 179.898C329.363 179.939 329.546 179.918 329.706 179.838C332.426 178.336 337.574 176.252 342.084 179.792C349.606 185.7 345.058 199.904 334.568 200.064C332.454 200.058 330.386 199.442 328.613 198.291C326.839 197.14 325.435 195.503 324.568 193.574C323.623 191.299 323.431 188.782 324.021 186.39C324.611 183.998 325.951 181.858 327.846 180.284C328.33 179.884 327.706 179.028 327.176 179.414C325.086 180.872 323.498 182.94 322.628 185.335C321.757 187.73 321.648 190.335 322.314 192.794C323.07 195.442 324.662 197.775 326.853 199.443C329.044 201.111 331.716 202.026 334.47 202.05C347.024 202.05 352.672 184.914 343.132 177.942ZM332.732 158.584C331.784 148.804 332.194 149.852 332.754 149.62C333.855 149.395 334.976 149.275 336.1 149.262C338.3 148.926 338.96 149.39 339.378 151.56C340.652 159.946 341.315 168.413 341.362 176.894C338.85 175.643 335.976 175.326 333.252 176C333.6 170.191 333.429 164.363 332.74 158.584H332.732Z"
        fill="#191919" />
    <path
        d="M332.182 183.338C331.051 183.825 330.097 184.651 329.453 185.701C328.809 186.751 328.504 187.974 328.582 189.204C328.662 190.422 329.086 191.592 329.804 192.579C330.522 193.566 331.506 194.329 332.64 194.78C333.819 195.18 335.087 195.244 336.3 194.964C337.514 194.684 338.625 194.072 339.51 193.196C340.807 191.901 341.536 190.144 341.538 188.312C341.505 187.98 341.387 187.662 341.196 187.389C341.004 187.115 340.746 186.895 340.446 186.75C340.376 186.71 340.298 186.687 340.217 186.681C340.137 186.676 340.056 186.689 339.981 186.719C339.906 186.748 339.839 186.795 339.785 186.854C339.73 186.914 339.69 186.985 339.666 187.062C339.436 187.92 339.738 188.682 339.554 189.494C339.394 190.161 339.099 190.788 338.687 191.336C338.276 191.885 337.756 192.343 337.161 192.684C336.566 193.024 335.907 193.239 335.226 193.315C334.544 193.392 333.854 193.328 333.198 193.128C332.371 192.797 331.656 192.237 331.135 191.515C330.613 190.793 330.308 189.937 330.254 189.048C330.267 188.098 330.479 187.161 330.874 186.297C331.27 185.433 331.841 184.661 332.552 184.03C332.868 183.716 332.614 183.178 332.182 183.338Z"
        fill="#191919" />
    <path
        d="M202.856 276.848C189.61 278.436 183.01 272.42 175.07 268.954C171.021 267.039 166.649 265.901 162.18 265.6C158.041 265.211 153.901 266.345 150.538 268.79C149.8 269.412 150.738 270.328 151.474 270.016C155.399 268.185 159.74 267.431 164.052 267.83C178.652 269.43 186.052 281.908 203.012 277.844C203.526 277.696 203.414 276.782 202.856 276.848Z"
        fill="#191919" />
    <path
        d="M147.036 274.84C151.897 273.906 156.89 273.892 161.756 274.796C164.381 275.251 166.952 275.977 169.428 276.96C173.382 278.478 175.928 279.978 177.656 280.082C177.741 280.08 177.823 280.054 177.893 280.007C177.963 279.96 178.018 279.893 178.051 279.815C178.084 279.737 178.093 279.652 178.079 279.568C178.064 279.485 178.026 279.408 177.968 279.346C176.885 278.289 175.605 277.455 174.2 276.892C170.221 274.854 165.946 273.454 161.532 272.744C156.561 271.773 151.419 272.175 146.658 273.904C146.08 274.158 146.478 274.97 147.036 274.84Z"
        fill="#191919" />
    <path
        d="M145.988 280.862C153.842 280.528 160.048 281.262 166.706 285.462C168.392 286.718 170.142 287.887 171.948 288.964C172.304 289.14 172.818 288.764 172.548 288.364C170.548 285.364 164.896 282.324 161.486 281.094C156.488 279.265 151.071 278.901 145.874 280.046C145.782 280.078 145.704 280.141 145.653 280.224C145.603 280.307 145.582 280.404 145.596 280.501C145.609 280.597 145.656 280.686 145.727 280.752C145.799 280.817 145.891 280.856 145.988 280.862Z"
        fill="#191919" />
    <path
        d="M145.988 286.214C148.314 286.052 149.14 286.944 158.388 291.614C159.567 292.378 160.899 292.873 162.29 293.064C162.375 293.061 162.456 293.035 162.526 292.987C162.595 292.94 162.649 292.873 162.682 292.796C162.715 292.718 162.725 292.633 162.711 292.55C162.697 292.467 162.659 292.39 162.602 292.328C161.418 291.26 160.041 290.427 158.544 289.874C156.944 289.06 155.344 288.262 153.726 287.474C151.234 286.238 148.748 284.634 145.9 285.288C145.795 285.319 145.704 285.386 145.643 285.477C145.581 285.568 145.553 285.678 145.564 285.787C145.574 285.897 145.622 285.999 145.7 286.077C145.777 286.155 145.879 286.203 145.988 286.214Z"
        fill="#191919" />
    <path
        d="M171.212 303.252C166.838 301.366 162.198 300.18 157.83 298.168C149.164 294.168 144.96 290.082 134.168 290.92C130.366 291.023 126.643 292.033 123.308 293.864C123.16 293.956 123.049 294.098 122.995 294.264C122.942 294.43 122.949 294.61 123.017 294.771C123.084 294.932 123.206 295.064 123.362 295.143C123.518 295.222 123.697 295.243 123.866 295.202C131.266 293.234 138.72 291.762 146.078 294.802C150.226 296.516 154.036 298.96 158.188 300.712C162.202 302.599 166.494 303.826 170.898 304.348C171.478 304.388 171.744 303.482 171.212 303.252Z"
        fill="#191919" />
    <path
        d="M152.924 306.352C146.324 301.352 140.008 297.682 131.76 297.232C127.385 297.103 123.045 298.045 119.116 299.974C118.101 300.273 117.209 300.891 116.572 301.736C116.532 301.809 116.508 301.89 116.504 301.974C116.499 302.057 116.514 302.141 116.546 302.218C116.578 302.295 116.628 302.363 116.691 302.419C116.753 302.474 116.828 302.514 116.908 302.536C118.822 302.996 121.236 301.512 122.996 300.862C125.709 299.81 128.605 299.31 131.514 299.39C138.986 299.676 146.186 303.372 152.434 307.174C153 307.522 153.418 306.728 152.924 306.352Z"
        fill="#191919" />
    <path
        d="M146.2 312.374C137.6 307.734 132.6 305.574 122.8 306.442C120.8 306.622 118.2 306.676 116.668 308.092C116.592 308.177 116.541 308.282 116.523 308.394C116.504 308.506 116.518 308.622 116.562 308.727C116.607 308.831 116.68 308.922 116.774 308.986C116.868 309.051 116.978 309.088 117.092 309.092C119.092 309.114 121.194 308.342 123.224 308.156C132.638 307.286 137.21 309.522 145.882 313.062C146.3 313.266 146.566 312.578 146.2 312.374Z"
        fill="#191919" />
    <path
        d="M167.464 341.232C162.35 335.91 155.178 334.094 148.53 331.432C135.212 326.116 134.692 318.154 121.93 318.764C119.569 318.742 117.229 319.213 115.06 320.148C114.678 320.348 114.926 320.818 115.26 320.86C117.999 320.901 120.738 320.768 123.46 320.46C132.73 320.46 135.778 326.68 142.684 330.494C150.442 334.782 160.284 335.552 166.858 341.824C166.895 341.871 166.942 341.91 166.995 341.937C167.047 341.965 167.106 341.982 167.165 341.986C167.225 341.989 167.285 341.981 167.341 341.96C167.397 341.939 167.448 341.907 167.491 341.865C167.533 341.823 167.567 341.773 167.589 341.718C167.611 341.662 167.621 341.602 167.618 341.543C167.616 341.483 167.601 341.424 167.574 341.371C167.548 341.317 167.51 341.27 167.464 341.232Z"
        fill="#191919" />
    <path
        d="M119.182 314.582C125.74 314.782 128.796 313.8 133.744 316.232C134.865 316.958 136.103 317.486 137.402 317.794C137.486 317.795 137.568 317.773 137.641 317.731C137.713 317.689 137.773 317.629 137.814 317.556C137.855 317.483 137.876 317.4 137.874 317.316C137.871 317.232 137.847 317.151 137.802 317.08C136.815 315.95 135.556 315.091 134.144 314.582C132.763 313.915 131.29 313.457 129.774 313.222C126.208 312.668 122.566 312.842 119.068 313.734C118.974 313.768 118.895 313.833 118.843 313.919C118.792 314.004 118.771 314.105 118.784 314.204C118.797 314.303 118.844 314.394 118.917 314.463C118.989 314.532 119.083 314.574 119.182 314.582Z"
        fill="#191919" />
    <path
        d="M373.482 362.418C381.9 340.12 389.896 316.98 390.01 292.882C390.186 251.852 368.274 226.998 343.466 221.696C333.573 219.667 323.283 221.125 314.342 225.822C291.398 237.362 284.258 255.502 269.204 268.306C260.76 275.488 252.052 278.776 238.962 278.432C227.318 278.126 206.746 273.962 194.74 271.362C194.63 271.332 194.513 271.34 194.408 271.384C194.302 271.429 194.215 271.508 194.16 271.608C187.922 283.79 181.294 297.408 181.224 297.608C176.785 296.121 172.226 295.017 167.598 294.308C167.509 294.306 167.421 294.328 167.342 294.371C167.264 294.414 167.199 294.477 167.152 294.554C152.604 320.648 149.86 336.342 148.42 337.64C148.373 337.686 148.335 337.742 148.309 337.803C148.283 337.864 148.27 337.93 148.27 337.997C148.27 338.064 148.283 338.129 148.309 338.191C148.335 338.252 148.373 338.308 148.42 338.354C153.782 342.755 159.833 346.243 166.328 348.678C211.28 367.814 226.862 366.266 251.272 365.45C258.532 365.379 265.757 364.443 272.794 362.662C276.25 361.7 273.66 362.434 373.482 362.418ZM198.8 301.49C194.211 301.512 189.67 300.546 185.486 298.658C185.366 298.585 185.276 298.472 185.232 298.339C185.188 298.205 185.194 298.06 185.248 297.931C185.302 297.801 185.401 297.695 185.527 297.632C185.652 297.569 185.796 297.554 185.932 297.588C191.626 299.488 212.382 299.974 218.18 299.974C254.98 299.974 273.18 289.556 288.272 270.738C293.058 264.772 296.682 258.618 302.122 250.242C302.244 250.035 302.442 249.885 302.674 249.824C302.906 249.764 303.152 249.798 303.359 249.919C303.566 250.04 303.716 250.239 303.777 250.471C303.838 250.703 303.804 250.949 303.682 251.156C299.522 259.768 294.211 267.774 287.894 274.956C264.256 302.452 234.966 303.816 198.8 301.49ZM357.4 299.016C352.58 309.83 343.904 318.658 335.344 326.646C327.125 334.383 318.297 341.446 308.944 347.766C299.998 353.738 289.978 358.966 279.238 360.59C279.116 360.619 278.987 360.599 278.879 360.535C278.771 360.472 278.691 360.369 278.657 360.248C278.623 360.127 278.637 359.998 278.695 359.887C278.754 359.776 278.853 359.692 278.972 359.652C289.797 355.786 300.081 350.547 309.572 344.064C318.162 337.944 326.32 331.24 333.988 324C341.966 316.388 350.006 308.122 354.572 297.952C359.438 287.114 359.26 273.91 357.294 262.352C354.946 248.564 348.986 241.994 339.676 237.798C338.292 237.176 339.364 235.294 340.634 235.524C352.954 237.742 358.956 251.984 360.572 262.954C362.322 274.842 362.376 287.864 357.4 299.016Z"
        fill="#38A1FF" />
    <path
        d="M143.516 275.908C143.116 275.41 143.472 275.65 133.516 274.662C135.251 273.194 136.904 271.631 138.466 269.98C138.98 269.444 138.288 268.396 137.62 268.886C135.3 270.604 133.136 272.5 130.974 274.394C125.8 273.86 120.648 273.258 115.496 272.632C117.844 270.883 120.05 268.953 122.096 266.858C122.191 266.756 122.247 266.623 122.253 266.483C122.26 266.343 122.216 266.206 122.13 266.095C122.044 265.985 121.921 265.909 121.784 265.881C121.647 265.853 121.504 265.874 121.382 265.942C118.409 267.822 115.604 269.956 113 272.32C108.57 271.786 103.638 271.12 99.9759 270.76C102.84 268.956 105.561 266.936 108.116 264.716C108.608 264.27 107.982 263.578 107.448 263.846C103.752 265.785 100.231 268.039 96.9219 270.582C94.4569 270.453 91.9852 270.557 89.5399 270.894C89.0039 270.96 89.1399 271.876 89.6739 271.83C91.486 271.726 93.3027 271.734 95.1139 271.852C91.7139 274.238 83.5639 280.038 82.8939 280.528C81.4939 280.35 80.0619 280.194 78.6339 280.014C78.0759 279.948 77.9659 280.862 78.4999 280.974C79.4819 281.174 80.4399 281.374 81.4219 281.554C77.5632 284.342 73.7272 287.174 69.9139 290.05C67.7739 289.94 65.6099 289.894 63.4699 289.916C63.3426 289.916 63.2205 289.967 63.1305 290.057C63.0405 290.147 62.9899 290.269 62.9899 290.396C62.9899 290.523 63.0405 290.645 63.1305 290.735C63.2205 290.825 63.3426 290.876 63.4699 290.876C65.0699 290.986 66.7039 291.12 68.3079 291.276C66.0799 292.958 56.8719 299.992 56.3079 300.552C53.8979 300.418 51.4899 300.33 49.0579 300.33C48.4779 300.33 48.5019 301.176 49.0579 301.222C50.9999 301.378 52.9179 301.534 54.8339 301.734C52.7959 303.366 51.8339 303.976 51.2659 305.012C51.2345 305.066 51.2201 305.127 51.2246 305.189C51.2292 305.251 51.2524 305.31 51.2912 305.358C51.33 305.407 51.3826 305.442 51.442 305.46C51.5015 305.478 51.5649 305.477 51.6239 305.458C52.6239 305.206 52.9339 304.826 56.7299 301.98C56.7519 301.958 56.7979 301.936 56.8199 301.912C62.1939 302.492 67.5679 303.206 72.9439 303.964C71.3599 305.258 69.7539 306.53 68.1939 307.844C67.8139 308.158 68.3039 308.826 68.7279 308.558C70.8019 307.158 72.8539 305.704 74.8619 304.254C80.0619 304.99 85.2319 305.77 90.4279 306.484C89.0899 307.532 87.7739 308.604 86.5259 309.74C86.4512 309.82 86.4074 309.923 86.4023 310.032C86.3973 310.141 86.4314 310.249 86.4985 310.335C86.5656 310.421 86.6612 310.48 86.7682 310.502C86.8751 310.524 86.9864 310.507 87.0819 310.454C88.9779 309.338 90.7839 308.068 92.5919 306.774C97.6539 307.466 102.738 308.068 107.822 308.536C106.462 309.606 105.102 310.7 103.764 311.792C103.318 312.15 103.898 312.908 104.364 312.572C105.52 311.772 108.858 309.55 109.974 308.634L112.198 308.782C112.383 308.794 112.569 308.757 112.735 308.675C112.902 308.593 113.044 308.468 113.148 308.314C113.212 308.219 113.249 308.108 113.257 307.994C113.264 307.879 113.242 307.765 113.191 307.662C113.14 307.559 113.063 307.471 112.968 307.407C112.873 307.343 112.762 307.306 112.648 307.298L111.564 307.226C112.19 306.672 112.942 306.026 113.792 305.374C113.855 305.325 113.905 305.261 113.936 305.188C113.967 305.114 113.978 305.034 113.969 304.954C113.959 304.875 113.929 304.799 113.882 304.735C113.834 304.671 113.771 304.62 113.698 304.588C113.546 304.521 113.379 304.497 113.214 304.517C113.05 304.537 112.893 304.601 112.762 304.702C111.788 305.46 110.8 306.218 109.828 306.976C102.428 306.376 95.7499 305.396 94.6279 305.258C101.722 299.936 102.806 299.148 106.314 296.472C109.68 296.976 113.046 297.442 116.43 297.824C116.541 297.835 116.652 297.821 116.757 297.782C116.861 297.743 116.954 297.68 117.03 297.598C117.506 297.084 117.03 296.198 116.282 296.112C113.552 295.8 110.95 295.438 108.18 295.044C111.636 292.39 115.092 289.692 118.506 286.97C134.722 288.88 136.142 289.186 137.264 287.97C139.754 285.256 140.844 285.342 140.772 284.55C140.708 283.798 139.508 283.674 138.87 284.186C138.566 284.43 136.168 286.33 135.298 287.044C130.95 286.598 121.07 285.482 120.468 285.394C122.944 283.394 130.392 277.276 131.668 276.206C134.958 276.544 138.268 276.864 142.906 277.294C143.069 277.3 143.23 277.257 143.369 277.171C143.507 277.084 143.617 276.958 143.682 276.809C143.748 276.659 143.767 276.493 143.738 276.333C143.708 276.172 143.631 276.024 143.516 275.908ZM98.0399 272.076C101.544 272.452 105.484 273.076 111.176 273.838C107.72 276.602 100.204 282.58 99.9139 282.824C97.9739 282.558 88.3839 281.242 85.5299 280.862C88.4399 278.776 95.0739 274.086 98.0399 272.076ZM83.9019 282.022C88.6059 282.892 93.3019 283.606 98.0399 284.296C94.7612 286.884 91.4686 289.464 88.1619 292.036C81.7119 291.084 77.1359 290.574 72.6399 290.206C74.6199 288.82 75.5579 288 83.9019 282.022ZM74.8479 302.472C69.3879 301.73 63.9759 301.072 58.4779 300.71C59.4779 299.96 65.5379 295.418 70.8559 291.522C76.0559 292.036 81.2259 292.682 86.3779 293.418C84.1019 295.2 76.3999 301.224 74.8479 302.472ZM92.4479 304.992C87.2739 304.278 82.1239 303.498 76.9499 302.762C80.9499 299.818 84.8659 296.808 88.7919 293.774C98.3379 295.244 98.8139 295.374 104.09 296.184C97.1319 301.576 95.0399 303.044 92.4419 305L92.4479 304.992ZM105.94 294.756C100.812 293.998 95.7059 293.172 90.5759 292.414C93.8985 289.85 97.2066 287.263 100.5 284.654C105.83 285.388 109.7 285.938 116.156 286.728C112.763 289.427 109.355 292.103 105.934 294.756H105.94ZM118.096 285.144C112.855 284.52 107.613 283.853 102.372 283.144C107.898 278.776 108.248 278.488 113.636 274.18C117.302 274.654 122.978 275.324 129.18 275.98C127.168 277.698 118.718 284.722 118.09 285.144H118.096Z"
        fill="#191919" />
</svg>