<svg width="225" height="394" viewBox="0 0 225 394" fill="none" xmlns="http://www.w3.org/2000/svg">
<path d="M102.97 5.75139C109.134 2.19242 116.729 2.19241 122.893 5.75138L200.024 50.2831C206.188 53.8421 209.986 60.4193 209.986 67.5372V156.601C209.986 163.719 206.188 170.296 200.024 173.855L122.893 218.387C116.729 221.945 109.134 221.945 102.97 218.387L25.8384 173.855C19.6741 170.296 15.8767 163.719 15.8767 156.601V67.5372C15.8767 60.4193 19.6741 53.8421 25.8384 50.2831L102.97 5.75139Z" fill="#EAF5FC"/>
<path d="M102.968 20.6928C109.133 17.1338 116.728 17.1338 122.892 20.6928L187.082 57.7532C193.247 61.3122 197.044 67.8894 197.044 75.0074V149.128C197.044 156.246 193.247 162.823 187.082 166.382L122.892 203.443C116.728 207.002 109.133 207.002 102.968 203.443L38.7779 166.382C32.6136 162.823 28.8162 156.246 28.8162 149.128V75.0074C28.8162 67.8894 32.6136 61.3122 38.7779 57.7532L102.968 20.6928Z" fill="#DCF1FF"/>
<path d="M53.9033 84.2277V141.47C53.9033 145.113 55.8437 148.486 59.0085 150.309L108.57 178.914C111.735 180.737 115.616 180.737 118.78 178.914L168.342 150.309C171.507 148.486 173.447 145.113 173.447 141.47V84.2277C173.447 80.5849 171.507 77.212 168.342 75.389L118.78 46.7833C115.616 44.9602 111.735 44.9602 108.57 46.7833L59.0085 75.389C55.8748 77.212 53.9033 80.5849 53.9033 84.2277Z" fill="#213147"/>
<path d="M124.515 123.931L117.438 143.31C117.23 143.847 117.23 144.445 117.438 144.981L129.589 178.337L143.652 170.214L126.784 123.931C126.396 122.855 124.902 122.855 124.515 123.931Z" fill="#12AAFF"/>
<path d="M138.664 91.3284C138.277 90.2525 136.783 90.2525 136.395 91.3284L129.319 110.708C129.111 111.244 129.111 111.843 129.319 112.379L149.231 166.995L163.295 158.873L138.664 91.3284Z" fill="#12AAFF"/>
<path d="M113.68 48.89C114.04 48.89 114.369 48.98 114.694 49.1599L168.316 80.1248C168.942 80.4846 169.329 81.1384 169.329 81.8579V143.788C169.329 144.504 168.942 145.161 168.316 145.521L114.694 176.517C114.396 176.697 114.036 176.787 113.68 176.787C113.324 176.787 112.992 176.697 112.667 176.517L59.0724 145.552C58.4464 145.192 58.059 144.538 58.059 143.819V81.8579C58.059 81.1418 58.4464 80.4846 59.0724 80.1248L112.694 49.1599C112.992 48.98 113.352 48.89 113.68 48.89ZM113.68 39.8438C111.771 39.8438 109.858 40.3523 108.156 41.3382L54.5345 72.3031C51.131 74.2715 49.0107 77.9177 49.0107 81.8579V143.788C49.0107 147.728 51.131 151.402 54.5345 153.374L108.156 184.339C109.858 185.325 111.767 185.833 113.68 185.833C115.593 185.833 117.502 185.325 119.204 184.339L172.826 153.374C176.261 151.402 178.35 147.759 178.35 143.788V81.8579C178.35 77.9177 176.229 74.2438 172.826 72.272L119.232 41.3382C117.499 40.3523 115.589 39.8438 113.677 39.8438H113.68Z" fill="#9DCCED"/>
<path d="M78.2383 167.05L83.1636 153.552L93.0766 161.792L83.8208 170.274L78.2383 167.05Z" fill="#213147"/>
<path d="M109.173 77.4463H95.5902C94.5767 77.4463 93.6498 78.0724 93.3212 79.0272L64.1807 158.935L78.2442 167.058L110.339 79.0584C110.608 78.2835 110.041 77.4463 109.173 77.4463Z" fill="white"/>
<path d="M132.965 77.4463H119.382C118.368 77.4463 117.441 78.0724 117.113 79.0272L83.8252 170.282L97.8887 178.405L134.099 79.0895C134.397 78.2835 133.802 77.4463 132.965 77.4463Z" fill="white"/>
<path fill-rule="evenodd" clip-rule="evenodd" d="M59.6905 314.206C63.5964 309.62 65.999 303.378 65.999 296.5C65.999 282.417 55.9254 271 43.499 271C31.0726 271 20.999 282.417 20.999 296.5C20.999 303.665 23.6062 310.139 27.804 314.772C11.9889 321.316 0.862305 336.898 0.862305 355.079C0.862305 378.891 19.9499 378.888 43.6594 378.885C43.9277 378.885 44.1966 378.885 44.4661 378.885C44.7356 378.885 45.0045 378.885 45.2729 378.885C68.9823 378.888 88.0699 378.891 88.0699 355.079C88.0699 336.352 76.2648 320.383 59.6905 314.206Z" fill="#BAE6FD"/>
<path fill-rule="evenodd" clip-rule="evenodd" d="M181.264 308.001C185.416 303.362 187.999 296.85 187.999 289.638C187.999 275.554 178.149 264.138 165.999 264.138C153.849 264.138 143.999 275.554 143.999 289.638C143.999 297.024 146.709 303.677 151.039 308.334C134.643 314.601 122.999 330.48 122.999 349.078C122.999 372.891 142.087 372.888 165.796 372.885C166.064 372.885 166.333 372.885 166.603 372.885C166.872 372.885 167.141 372.885 167.41 372.885C191.119 372.888 210.207 372.891 210.207 349.078C210.207 330.14 198.133 314.022 181.264 308.001Z" fill="#E0F2FE"/>
<path fill-rule="evenodd" clip-rule="evenodd" d="M120.34 328.593C124.457 324.075 126.999 317.86 126.999 311C126.999 297.193 116.702 286 103.999 286C91.2965 286 80.999 297.193 80.999 311C80.999 318 83.6456 324.328 87.9104 328.866C72.0388 335.385 60.8623 350.995 60.8623 369.217C60.8623 393.029 79.9499 393.026 103.659 393.023C103.928 393.023 104.197 393.023 104.466 393.023C104.736 393.023 105.005 393.023 105.273 393.023C128.982 393.026 148.07 393.029 148.07 369.217C148.07 350.736 136.573 334.94 120.34 328.593Z" fill="#7DD3FC"/>
</svg>
