<svg width="54" height="53" viewBox="0 0 54 53" fill="none" xmlns="http://www.w3.org/2000/svg">
<rect y="0.441284" width="53.7504" height="51.625" rx="25.8125" fill="#DCF1FF"/>
<path d="M16.25 18.285C16.25 16.7352 16.8657 15.2488 17.9616 14.1529C19.0575 13.057 20.5439 12.4413 22.0938 12.4413C23.6436 12.4413 25.13 13.057 26.2259 14.1529C27.3218 15.2488 27.9375 16.7352 27.9375 18.285C27.9375 19.8349 27.3218 21.3213 26.2259 22.4172C25.13 23.5131 23.6436 24.1288 22.0938 24.1288C20.5439 24.1288 19.0575 23.5131 17.9616 22.4172C16.8657 21.3213 16.25 19.8349 16.25 18.285ZM30.0625 21.4725C30.0625 20.8447 30.1862 20.2229 30.4265 19.6428C30.6667 19.0627 31.0189 18.5357 31.4629 18.0917C31.9069 17.6477 32.434 17.2955 33.014 17.0552C33.5941 16.815 34.2159 16.6913 34.8438 16.6913C35.4716 16.6913 36.0934 16.815 36.6735 17.0552C37.2535 17.2955 37.7806 17.6477 38.2246 18.0917C38.6686 18.5357 39.0208 19.0627 39.261 19.6428C39.5013 20.2229 39.625 20.8447 39.625 21.4725C39.625 22.7406 39.1213 23.9567 38.2246 24.8534C37.3279 25.75 36.1118 26.2538 34.8438 26.2538C33.5757 26.2538 32.3596 25.75 31.4629 24.8534C30.5662 23.9567 30.0625 22.7406 30.0625 21.4725ZM12 36.3475C12 33.6705 13.0634 31.1031 14.9564 29.2102C16.8493 27.3172 19.4167 26.2538 22.0938 26.2538C24.7708 26.2538 27.3382 27.3172 29.2311 29.2102C31.1241 31.1031 32.1875 33.6705 32.1875 36.3475V36.3518L32.1861 36.5204C32.1831 36.7005 32.1343 36.877 32.0443 37.0331C31.9544 37.1892 31.8262 37.3199 31.6718 37.4129C28.7807 39.1539 25.4686 40.0714 22.0938 40.0663C18.5918 40.0663 15.3136 39.0973 12.5171 37.4129C12.3625 37.3201 12.234 37.1895 12.1438 37.0333C12.0536 36.8772 12.0046 36.7007 12.0014 36.5204L12 36.3475ZM34.3125 36.3518L34.3111 36.5558C34.3032 37.028 34.1904 37.4925 33.981 37.9158C36.4541 38.0683 38.9243 37.5752 41.1493 36.485C41.3214 36.4008 41.4675 36.2718 41.5723 36.1114C41.677 35.9511 41.7365 35.7654 41.7443 35.574C41.7943 34.3858 41.5366 33.2048 40.9962 32.1453C40.4558 31.0859 39.6509 30.184 38.6596 29.527C37.6683 28.87 36.5241 28.4801 35.3378 28.395C34.1516 28.31 32.9635 28.5328 31.8886 29.0418C33.4656 31.1506 34.3157 33.7143 34.3111 36.3475L34.3125 36.3518Z" fill="#0C4A6E"/>
</svg>
