<svg width="53" height="54" viewBox="0 0 53 54" fill="none" xmlns="http://www.w3.org/2000/svg">
<g clip-path="url(#clip0_1952_49000)">
<path d="M53 26.9413C53 12.3057 41.1355 0.441269 26.5 0.441269C11.8645 0.441269 0 12.3057 0 26.9413C0 41.5768 11.8645 53.4413 26.5 53.4413C41.1355 53.4413 53 41.5768 53 26.9413Z" fill="#E0F2FE"/>
<path fill-rule="evenodd" clip-rule="evenodd" d="M14 10.4413C12.8954 10.4413 12 11.3367 12 12.4413V38.4413C12 39.5459 12.8954 40.4413 14 40.4413H24.6683C22.4359 38.703 21 35.9898 21 32.9413C21 27.6946 25.2533 23.4413 30.5 23.4413C32.5497 23.4413 34.4479 24.0905 36 25.1944V17.2697C36 16.7393 35.7893 16.2306 35.4142 15.8555L33 13.4413L30.5858 11.0271C30.2107 10.652 29.702 10.4413 29.1716 10.4413H14Z" fill="#0C4A6E"/>
<path d="M30.1667 39.2746C33.8486 39.2746 36.8333 36.2899 36.8333 32.608C36.8333 28.9261 33.8486 25.9413 30.1667 25.9413C26.4848 25.9413 23.5 28.9261 23.5 32.608C23.5 36.2899 26.4848 39.2746 30.1667 39.2746Z" stroke="#0C4A6E" stroke-width="2" stroke-linecap="round" stroke-linejoin="round"/>
<path d="M38.5003 40.9413L34.917 37.358" stroke="#0C4A6E" stroke-width="2" stroke-linecap="round" stroke-linejoin="round"/>
<path d="M29.0003 11.6484C29.0003 11.2029 29.5388 10.9799 29.8538 11.2948L35.1465 16.5878C35.4615 16.9027 35.2384 17.4413 34.7929 17.4413H29.5C29.2239 17.4413 29 17.2174 29 16.9413L29.0003 11.6484Z" fill="#E0F2FE"/>
</g>
<defs>
<clipPath id="clip0_1952_49000">
<rect width="53" height="53" fill="white" transform="translate(0 0.441269)"/>
</clipPath>
</defs>
</svg>
