<svg width="530" height="406" viewBox="0 0 530 406" fill="none" xmlns="http://www.w3.org/2000/svg">
<path d="M149.434 147.82L255.326 88.1547M149.434 147.82L157.496 249.95M149.434 147.82L388.633 165.021M149.434 147.82L234.373 291.226M255.326 88.1547L388.633 165.021M255.326 88.1547L358.531 276.826M255.326 88.1547L270.914 188.672M388.633 165.021L358.531 276.826M388.633 165.021L237.588 292.952M388.633 165.021L270.914 188.672M358.531 276.826L237.588 292.952M358.531 276.826L270.914 188.672M358.531 276.826L157.496 249.95M237.588 292.952L234.373 291.226M157.496 249.95L270.914 188.672M157.496 249.95L234.373 291.226" stroke="#38BDF8" stroke-width="1.71103"/>
<path d="M151.045 151.044L263.925 15.0504M151.045 151.044L40.3144 198.347L159.108 251.562M151.045 151.044L273.601 188.671M263.925 15.0504L388.094 165.558M263.925 15.0504L159.108 251.562M263.925 15.0504L357.455 276.825M388.094 165.558L492.911 198.347M388.094 165.558L263.925 385.943M492.911 198.347L357.455 276.825M492.911 198.347L273.601 188.671M357.455 276.825L263.925 385.943M263.925 385.943L159.108 251.562M263.925 385.943L273.601 188.671M273.601 188.671L36.5518 197.272" stroke="#0D99FF" stroke-width="0.855514" stroke-dasharray="4.28 4.28"/>
<ellipse cx="256.399" cy="88.6925" rx="4.83773" ry="4.83773" fill="#9DA5B0"/>
<ellipse cx="149.97" cy="148.892" rx="4.83773" ry="4.83773" fill="#9DA5B0"/>
<ellipse cx="159.646" cy="248.877" rx="4.83773" ry="4.83773" fill="#9DA5B0"/>
<ellipse cx="237.586" cy="292.954" rx="5.37526" ry="4.83773" fill="#9DA5B0"/>
<ellipse cx="356.917" cy="276.824" rx="5.37526" ry="4.83773" fill="#9DA5B0"/>
<ellipse cx="388.632" cy="166.095" rx="4.83773" ry="4.83773" fill="#9DA5B0"/>
<ellipse cx="271.451" cy="187.599" rx="4.83773" ry="4.83773" fill="#9DA5B0"/>
<ellipse cx="264.463" cy="16.1258" rx="16.1258" ry="16.1258" fill="#D2D5D9"/>
<ellipse cx="264.462" cy="16.1254" rx="13.9757" ry="13.9757" fill="#9DA5B0" fill-opacity="0.4"/>
<ellipse cx="264.462" cy="16.1247" rx="11.8256" ry="11.8256" fill="#9DA5B0" fill-opacity="0.4"/>
<path d="M264.999 15.5899L38.1631 197.811L263.386 385.408L493.448 199.961L264.999 15.5899Z" stroke="#0D99FF" stroke-width="0.855514"/>
<path d="M228.574 179.345V214.217C228.574 216.436 229.756 218.491 231.684 219.601L261.877 237.028C263.805 238.138 266.169 238.138 268.097 237.028L298.29 219.601C300.218 218.491 301.4 216.436 301.4 214.217V179.345C301.4 177.126 300.218 175.071 298.29 173.961L268.097 156.534C266.169 155.424 263.805 155.424 261.877 156.534L231.684 173.961C229.775 175.071 228.574 177.126 228.574 179.345Z" fill="#213147"/>
<path d="M271.591 203.532L267.279 215.338C267.153 215.664 267.153 216.029 267.279 216.356L274.682 236.676L283.249 231.727L272.973 203.532C272.737 202.876 271.827 202.876 271.591 203.532Z" fill="#12AAFF"/>
<path d="M280.21 183.671C279.974 183.015 279.064 183.015 278.828 183.671L274.517 195.476C274.39 195.803 274.39 196.168 274.517 196.494L286.647 229.767L295.215 224.818L280.21 183.671Z" fill="#12AAFF"/>
<path d="M264.99 157.817C265.209 157.817 265.409 157.872 265.607 157.982L298.274 176.845C298.655 177.065 298.891 177.463 298.891 177.901V215.629C298.891 216.065 298.655 216.465 298.274 216.684L265.607 235.567C265.426 235.677 265.207 235.731 264.99 235.731C264.773 235.731 264.571 235.677 264.373 235.567L231.723 216.703C231.342 216.484 231.106 216.086 231.106 215.648V177.901C231.106 177.465 231.342 177.065 231.723 176.845L264.39 157.982C264.571 157.872 264.79 157.817 264.99 157.817ZM264.99 152.306C263.827 152.306 262.662 152.616 261.625 153.217L228.959 172.081C226.885 173.28 225.594 175.501 225.594 177.901V215.629C225.594 218.029 226.885 220.267 228.959 221.468L261.625 240.332C262.662 240.933 263.825 241.242 264.99 241.242C266.155 241.242 267.318 240.933 268.355 240.332L301.021 221.468C303.114 220.267 304.386 218.048 304.386 215.629V177.901C304.386 175.501 303.095 173.263 301.021 172.062L268.372 153.217C267.316 152.616 266.153 152.306 264.988 152.306H264.99Z" fill="#9DCCED"/>
<path d="M243.399 229.8L246.4 221.577L252.439 226.597L246.8 231.764L243.399 229.8Z" fill="#213147"/>
<path d="M262.244 175.214H253.969C253.352 175.214 252.787 175.595 252.587 176.177L234.835 224.856L243.402 229.805L262.954 176.196C263.118 175.724 262.773 175.214 262.244 175.214Z" fill="white"/>
<path d="M276.738 175.214H268.464C267.846 175.214 267.282 175.595 267.081 176.177L246.803 231.769L255.37 236.717L277.429 176.215C277.611 175.724 277.248 175.214 276.738 175.214Z" fill="white"/>
<path fill-rule="evenodd" clip-rule="evenodd" d="M17.8039 188.165C18.986 186.776 19.7131 184.887 19.7131 182.806C19.7131 178.544 16.6644 175.089 12.9037 175.089C9.14291 175.089 6.09422 178.544 6.09422 182.806C6.09422 184.974 6.88327 186.934 8.1537 188.336C3.36738 190.316 0 195.032 0 200.534C0 207.741 5.77671 207.74 12.9522 207.739C13.0334 207.739 13.1148 207.739 13.1963 207.739C13.2779 207.739 13.3593 207.739 13.4405 207.739C20.616 207.74 26.3927 207.741 26.3927 200.534C26.3927 194.867 22.82 190.034 17.8039 188.165Z" fill="#213147"/>
<path fill-rule="evenodd" clip-rule="evenodd" d="M54.5965 186.286C55.8531 184.882 56.6348 182.911 56.6348 180.729C56.6348 176.467 53.6538 173.011 49.9766 173.011C46.2995 173.011 43.3185 176.467 43.3185 180.729C43.3185 182.964 44.1385 184.978 45.4489 186.387C40.4869 188.284 36.9629 193.089 36.9629 198.718C36.9629 205.924 42.7396 205.924 49.9151 205.923C49.9963 205.923 50.0777 205.923 50.1592 205.923C50.2408 205.923 50.3222 205.923 50.4034 205.923C57.5789 205.924 63.3556 205.924 63.3556 198.718C63.3556 192.986 59.7018 188.108 54.5965 186.286Z" fill="#075985"/>
<path fill-rule="evenodd" clip-rule="evenodd" d="M36.1587 192.518C37.4045 191.151 38.1739 189.27 38.1739 187.194C38.1739 183.015 35.0575 179.628 31.2132 179.628C27.3689 179.628 24.2524 183.015 24.2524 187.194C24.2524 189.312 25.0534 191.227 26.3441 192.601C21.5407 194.574 18.1582 199.298 18.1582 204.813C18.1582 212.019 23.9349 212.019 31.1104 212.018C31.1916 212.018 31.273 212.018 31.3545 212.018C31.4361 212.018 31.5175 212.018 31.5987 212.018C38.7742 212.019 44.5509 212.019 44.5509 204.813C44.5509 199.22 41.0713 194.439 36.1587 192.518Z" fill="#0284C7"/>
<path fill-rule="evenodd" clip-rule="evenodd" d="M484.447 193.037C485.63 191.649 486.357 189.76 486.357 187.679C486.357 183.417 483.308 179.961 479.547 179.961C475.786 179.961 472.738 183.417 472.738 187.679C472.738 189.847 473.527 191.807 474.797 193.208C470.011 195.189 466.644 199.905 466.644 205.407C466.644 212.614 472.42 212.613 479.596 212.612C479.677 212.612 479.758 212.612 479.84 212.612C479.921 212.612 480.003 212.612 480.084 212.612C487.26 212.613 493.036 212.614 493.036 205.407C493.036 199.74 489.464 194.907 484.447 193.037Z" fill="#213147"/>
<path fill-rule="evenodd" clip-rule="evenodd" d="M521.241 191.159C522.498 189.755 523.279 187.784 523.279 185.602C523.279 181.34 520.298 177.884 516.621 177.884C512.944 177.884 509.963 181.34 509.963 185.602C509.963 187.837 510.783 189.851 512.093 191.26C507.131 193.157 503.607 197.962 503.607 203.591C503.607 210.797 509.384 210.797 516.56 210.796C516.641 210.796 516.722 210.796 516.804 210.796C516.885 210.796 516.967 210.796 517.048 210.796C524.223 210.797 530 210.797 530 203.591C530 197.859 526.346 192.981 521.241 191.159Z" fill="#075985"/>
<path fill-rule="evenodd" clip-rule="evenodd" d="M502.802 197.391C504.048 196.024 504.818 194.143 504.818 192.067C504.818 187.888 501.701 184.501 497.857 184.501C494.012 184.501 490.896 187.888 490.896 192.067C490.896 194.185 491.697 196.1 492.988 197.474C488.184 199.447 484.802 204.171 484.802 209.686C484.802 216.892 490.578 216.891 497.754 216.891C497.835 216.891 497.917 216.89 497.998 216.89C498.08 216.89 498.161 216.891 498.242 216.891C505.418 216.891 511.194 216.892 511.194 209.686C511.194 204.092 507.715 199.312 502.802 197.391Z" fill="#0284C7"/>
<path fill-rule="evenodd" clip-rule="evenodd" d="M246.252 381.279C247.434 379.891 248.161 378.002 248.161 375.921C248.161 371.659 245.113 368.203 241.352 368.203C237.591 368.203 234.542 371.659 234.542 375.921C234.542 378.089 235.332 380.049 236.602 381.45C231.816 383.431 228.448 388.147 228.448 393.649C228.448 400.856 234.225 400.855 241.4 400.854C241.482 400.854 241.563 400.854 241.645 400.854C241.726 400.854 241.808 400.854 241.889 400.854C249.064 400.855 254.841 400.856 254.841 393.649C254.841 387.982 251.268 383.149 246.252 381.279Z" fill="#0284C7"/>
<path fill-rule="evenodd" clip-rule="evenodd" d="M283.045 379.401C284.301 377.997 285.083 376.026 285.083 373.844C285.083 369.581 282.102 366.126 278.425 366.126C274.748 366.126 271.767 369.581 271.767 373.844C271.767 376.079 272.587 378.092 273.897 379.502C268.935 381.398 265.411 386.204 265.411 391.833C265.411 399.039 271.188 399.039 278.363 399.038C278.445 399.038 278.526 399.038 278.607 399.038C278.689 399.038 278.77 399.038 278.852 399.038C286.027 399.039 291.804 399.039 291.804 391.833C291.804 386.101 288.15 381.223 283.045 379.401Z" fill="#7DD3FC"/>
<path fill-rule="evenodd" clip-rule="evenodd" d="M264.607 385.633C265.853 384.266 266.622 382.385 266.622 380.309C266.622 376.13 263.506 372.743 259.661 372.743C255.817 372.743 252.701 376.13 252.701 380.309C252.701 382.427 253.502 384.342 254.792 385.716C249.989 387.689 246.606 392.413 246.606 397.928C246.606 405.134 252.383 405.133 259.559 405.133C259.64 405.133 259.721 405.133 259.803 405.133C259.884 405.133 259.966 405.133 260.047 405.133C267.222 405.133 272.999 405.134 272.999 397.928C272.999 392.335 269.52 387.554 264.607 385.633Z" fill="#38BDF8"/>
</svg>
