<svg width="45" height="45" viewBox="0 0 45 45" fill="none" xmlns="http://www.w3.org/2000/svg">
<path d="M40.7461 4.25379C39.8231 3.33094 38.5713 2.8125 37.2661 2.8125C35.9609 2.8125 34.7091 3.33094 33.7861 4.25379L31.6167 6.42317L38.5767 13.3832L40.7461 11.2138C41.669 10.2908 42.1874 9.03901 42.1874 7.73379C42.1874 6.42857 41.669 5.1768 40.7461 4.25379ZM36.5874 15.3725L29.6274 8.41254L13.8774 24.1625C12.7202 25.3191 11.8696 26.7459 11.4024 28.3138L9.90235 33.3482C9.82993 33.5911 9.82453 33.8491 9.88672 34.0949C9.94891 34.3406 10.0764 34.565 10.2556 34.7443C10.4349 34.9235 10.6593 35.051 10.905 35.1132C11.1508 35.1754 11.4088 35.17 11.6517 35.0975L16.6861 33.5975C18.254 33.1303 19.6808 32.2797 20.8374 31.1225L36.5874 15.3725Z" fill="#0284C7"/>
<path d="M9.84375 9.84375C8.35191 9.84375 6.92117 10.4364 5.86627 11.4913C4.81138 12.5462 4.21875 13.9769 4.21875 15.4688V35.1562C4.21875 36.6481 4.81138 38.0788 5.86627 39.1337C6.92117 40.1886 8.35191 40.7812 9.84375 40.7812H29.5312C31.0231 40.7812 32.4538 40.1886 33.5087 39.1337C34.5636 38.0788 35.1562 36.6481 35.1562 35.1562V25.3125C35.1562 24.9395 35.0081 24.5819 34.7444 24.3181C34.4806 24.0544 34.123 23.9062 33.75 23.9062C33.377 23.9062 33.0194 24.0544 32.7556 24.3181C32.4919 24.5819 32.3438 24.9395 32.3438 25.3125V35.1562C32.3438 35.9022 32.0474 36.6175 31.52 37.145C30.9925 37.6724 30.2772 37.9688 29.5312 37.9688H9.84375C9.09783 37.9688 8.38246 37.6724 7.85501 37.145C7.32757 36.6175 7.03125 35.9022 7.03125 35.1562V15.4688C7.03125 14.7228 7.32757 14.0075 7.85501 13.48C8.38246 12.9526 9.09783 12.6562 9.84375 12.6562H19.6875C20.0605 12.6562 20.4181 12.5081 20.6819 12.2444C20.9456 11.9806 21.0938 11.623 21.0938 11.25C21.0938 10.877 20.9456 10.5194 20.6819 10.2556C20.4181 9.99191 20.0605 9.84375 19.6875 9.84375H9.84375Z" fill="#0284C7"/>
</svg>
