<svg width="45" height="45" viewBox="0 0 45 45" fill="none" xmlns="http://www.w3.org/2000/svg">
<path d="M11.25 22.5C10.877 22.5 10.5194 22.3518 10.2556 22.0881C9.99191 21.8244 9.84375 21.4667 9.84375 21.0938V7.03125C9.84375 6.65829 9.99191 6.3006 10.2556 6.03688C10.5194 5.77316 10.877 5.625 11.25 5.625C11.623 5.625 11.9806 5.77316 12.2444 6.03688C12.5081 6.3006 12.6562 6.65829 12.6562 7.03125V21.0938C12.6562 21.4667 12.5081 21.8244 12.2444 22.0881C11.9806 22.3518 11.623 22.5 11.25 22.5ZM33.75 22.5C33.377 22.5 33.0194 22.3518 32.7556 22.0881C32.4919 21.8244 32.3438 21.4667 32.3438 21.0938V7.03125C32.3438 6.65829 32.4919 6.3006 32.7556 6.03688C33.0194 5.77316 33.377 5.625 33.75 5.625C34.123 5.625 34.4806 5.77316 34.7444 6.03688C35.0081 6.3006 35.1562 6.65829 35.1562 7.03125V21.0938C35.1562 21.4667 35.0081 21.8244 34.7444 22.0881C34.4806 22.3518 34.123 22.5 33.75 22.5ZM12.6562 37.9688V35.1562C12.6562 34.7833 12.5081 34.4256 12.2444 34.1619C11.9806 33.8982 11.623 33.75 11.25 33.75C10.877 33.75 10.5194 33.8982 10.2556 34.1619C9.99191 34.4256 9.84375 34.7833 9.84375 35.1562V37.9688C9.84375 38.3417 9.99191 38.6994 10.2556 38.9631C10.5194 39.2268 10.877 39.375 11.25 39.375C11.623 39.375 11.9806 39.2268 12.2444 38.9631C12.5081 38.6994 12.6562 38.3417 12.6562 37.9688ZM35.1562 35.1562V37.9688C35.1562 38.3417 35.0081 38.6994 34.7444 38.9631C34.4806 39.2268 34.123 39.375 33.75 39.375C33.377 39.375 33.0194 39.2268 32.7556 38.9631C32.4919 38.6994 32.3438 38.3417 32.3438 37.9688V35.1562C32.3438 34.7833 32.4919 34.4256 32.7556 34.1619C33.0194 33.8982 33.377 33.75 33.75 33.75C34.123 33.75 34.4806 33.8982 34.7444 34.1619C35.0081 34.4256 35.1562 34.7833 35.1562 35.1562ZM23.9062 9.84375V7.03125C23.9062 6.65829 23.7581 6.3006 23.4944 6.03688C23.2306 5.77316 22.873 5.625 22.5 5.625C22.127 5.625 21.7694 5.77316 21.5056 6.03688C21.2419 6.3006 21.0938 6.65829 21.0938 7.03125V9.84375C21.0938 10.2167 21.2419 10.5744 21.5056 10.8381C21.7694 11.1018 22.127 11.25 22.5 11.25C22.873 11.25 23.2306 11.1018 23.4944 10.8381C23.7581 10.5744 23.9062 10.2167 23.9062 9.84375ZM22.5 39.375C22.127 39.375 21.7694 39.2268 21.5056 38.9631C21.2419 38.6994 21.0938 38.3417 21.0938 37.9688V23.9062C21.0938 23.5333 21.2419 23.1756 21.5056 22.9119C21.7694 22.6482 22.127 22.5 22.5 22.5C22.873 22.5 23.2306 22.6482 23.4944 22.9119C23.7581 23.1756 23.9062 23.5333 23.9062 23.9062V37.9688C23.9062 38.3417 23.7581 38.6994 23.4944 38.9631C23.2306 39.2268 22.873 39.375 22.5 39.375ZM7.03125 28.125C7.03125 29.2439 7.47572 30.3169 8.26689 31.1081C9.05806 31.8993 10.1311 32.3438 11.25 32.3438C12.3689 32.3438 13.4419 31.8993 14.2331 31.1081C15.0243 30.3169 15.4688 29.2439 15.4688 28.125C15.4688 27.0061 15.0243 25.9331 14.2331 25.1419C13.4419 24.3507 12.3689 23.9062 11.25 23.9062C10.1311 23.9062 9.05806 24.3507 8.26689 25.1419C7.47572 25.9331 7.03125 27.0061 7.03125 28.125ZM22.5 21.0938C21.3811 21.0938 20.3081 20.6493 19.5169 19.8581C18.7257 19.0669 18.2812 17.9939 18.2812 16.875C18.2812 15.7561 18.7257 14.6831 19.5169 13.8919C20.3081 13.1007 21.3811 12.6562 22.5 12.6562C23.6189 12.6562 24.6919 13.1007 25.4831 13.8919C26.2743 14.6831 26.7188 15.7561 26.7188 16.875C26.7188 17.9939 26.2743 19.0669 25.4831 19.8581C24.6919 20.6493 23.6189 21.0938 22.5 21.0938ZM29.5312 28.125C29.5312 29.2439 29.9757 30.3169 30.7669 31.1081C31.5581 31.8993 32.6311 32.3438 33.75 32.3438C34.8689 32.3438 35.9419 31.8993 36.7331 31.1081C37.5243 30.3169 37.9688 29.2439 37.9688 28.125C37.9688 27.0061 37.5243 25.9331 36.7331 25.1419C35.9419 24.3507 34.8689 23.9062 33.75 23.9062C32.6311 23.9062 31.5581 24.3507 30.7669 25.1419C29.9757 25.9331 29.5312 27.0061 29.5312 28.125Z" fill="#0284C7"/>
</svg>
