<svg width="45" height="45" viewBox="0 0 45 45" fill="none" xmlns="http://www.w3.org/2000/svg">
<path fill-rule="evenodd" clip-rule="evenodd" d="M17.4656 14.22C22.8656 7.28063 31.3031 2.8125 40.7812 2.8125C41.1542 2.8125 41.5119 2.96066 41.7756 3.22438C42.0393 3.4881 42.1875 3.84579 42.1875 4.21875C42.1875 13.6988 37.7194 22.1344 30.78 27.5362C31.0686 29.3442 30.9615 31.1932 30.4661 32.9558C29.9707 34.7183 29.0988 36.3524 27.9106 37.7453C26.7224 39.1381 25.2461 40.2566 23.5836 41.0236C21.9212 41.7905 20.1121 42.1876 18.2812 42.1875C17.9083 42.1875 17.5506 42.0393 17.2869 41.7756C17.0232 41.5119 16.875 41.1542 16.875 40.7812V33.0356C15.0524 31.5963 13.4049 29.9482 11.9662 28.125H4.21875C3.84579 28.125 3.4881 27.9768 3.22438 27.7131C2.96066 27.4494 2.8125 27.0917 2.8125 26.7188C2.81235 24.8877 3.2095 23.0785 3.97654 21.4159C4.74358 19.7532 5.86225 18.2768 7.25533 17.0886C8.64841 15.9003 10.2827 15.0285 12.0455 14.5332C13.8083 14.038 15.6575 13.9311 17.4656 14.22ZM28.125 12.6562C27.0061 12.6562 25.9331 13.1007 25.1419 13.8919C24.3507 14.6831 23.9062 15.7561 23.9062 16.875C23.9062 17.9939 24.3507 19.0669 25.1419 19.8581C25.9331 20.6493 27.0061 21.0938 28.125 21.0938C29.2439 21.0938 30.3169 20.6493 31.1081 19.8581C31.8993 19.0669 32.3438 17.9939 32.3438 16.875C32.3438 15.7561 31.8993 14.6831 31.1081 13.8919C30.3169 13.1007 29.2439 12.6562 28.125 12.6562Z" fill="#0284C7"/>
<path d="M9.86297 32.3296C10.0111 32.2191 10.136 32.0806 10.2305 31.9219C10.3251 31.7632 10.3875 31.5874 10.4141 31.4046C10.4408 31.2218 10.4312 31.0355 10.3858 30.8564C10.3405 30.6773 10.2603 30.5089 10.1498 30.3608C10.0394 30.2127 9.90088 30.0878 9.74218 29.9932C9.58347 29.8986 9.40769 29.8363 9.22488 29.8096C9.04206 29.783 8.85579 29.7926 8.6767 29.838C8.4976 29.8833 8.3292 29.9635 8.18109 30.0739C6.74276 31.1438 5.62436 32.5867 4.94687 34.2463C4.26938 35.906 4.05861 37.7194 4.33734 39.4902C4.38267 39.7851 4.52065 40.058 4.73131 40.2693C4.94198 40.4807 5.21442 40.6195 5.50922 40.6658C7.28021 40.9443 9.09366 40.7333 10.7533 40.0554C12.413 39.3776 13.8558 38.2588 14.9255 36.8202C15.0395 36.6725 15.1229 36.5035 15.171 36.3233C15.219 36.143 15.2307 35.9549 15.2054 35.7701C15.1801 35.5852 15.1182 35.4073 15.0234 35.2465C14.9286 35.0858 14.8028 34.9456 14.6532 34.834C14.5037 34.7224 14.3334 34.6417 14.1524 34.5966C13.9714 34.5514 13.7831 34.5428 13.5987 34.5711C13.4143 34.5994 13.2374 34.6641 13.0782 34.7615C12.9191 34.8589 12.7809 34.987 12.6717 35.1383C12.0178 36.0177 11.1672 36.7318 10.1878 37.2234C9.20843 37.7151 8.12756 37.9706 7.03172 37.9696C7.03172 35.6633 8.14172 33.6139 9.86297 32.3296Z" fill="#0284C7"/>
</svg>
