<svg width="46" height="45" viewBox="0 0 46 45" fill="none" xmlns="http://www.w3.org/2000/svg">
<path d="M37.229 26.7188V21.7969C37.229 20.1186 36.5623 18.509 35.3755 17.3222C34.1888 16.1355 32.5792 15.4688 30.9009 15.4688H28.0884C27.5289 15.4688 26.9924 15.2465 26.5968 14.8509C26.2012 14.4553 25.979 13.9188 25.979 13.3594V10.5469C25.979 8.86855 25.3123 7.25897 24.1255 6.07221C22.9388 4.88546 21.3292 4.21875 19.6509 4.21875H16.1353M23.1665 21.0938V32.3438M28.7915 26.7188H17.5415M20.354 4.21875H11.2134C10.049 4.21875 9.104 5.16375 9.104 6.32812V38.6719C9.104 39.8362 10.049 40.7812 11.2134 40.7812H35.1196C36.284 40.7812 37.229 39.8362 37.229 38.6719V21.0938C37.229 16.6182 35.4511 12.326 32.2864 9.16132C29.1218 5.99665 24.8295 4.21875 20.354 4.21875Z" stroke="black" stroke-width="1.5" stroke-linecap="round" stroke-linejoin="round"/>
</svg>
