<svg width="39" height="40" viewBox="0 0 39 40" fill="none" xmlns="http://www.w3.org/2000/svg">
<path d="M14.625 20H20.7188M14.625 24.875H20.7188M14.625 29.75H20.7188M25.5938 30.9688H29.25C30.2197 30.9687 31.1497 30.5835 31.8354 29.8979C32.521 29.2122 32.9062 28.2822 32.9062 27.3125V10.4255C32.9062 8.58112 31.5331 7.01625 29.6953 6.8635C29.0875 6.8131 28.4791 6.76976 27.8704 6.7335M27.8704 6.7335C27.9782 7.08301 28.0314 7.44673 28.0312 7.8125C28.0312 8.13573 27.9028 8.44573 27.6743 8.67429C27.4457 8.90285 27.1357 9.03125 26.8125 9.03125H19.5C18.8272 9.03125 18.2812 8.48525 18.2812 7.8125C18.2812 7.43712 18.3381 7.07475 18.4438 6.7335M27.8704 6.7335C27.4105 5.24175 26.0195 4.15625 24.375 4.15625H21.9375C21.1563 4.15643 20.3956 4.40674 19.7669 4.8705C19.1382 5.33427 18.6745 5.98714 18.4438 6.7335M18.4438 6.7335C17.8328 6.77087 17.225 6.81475 16.6172 6.8635C14.7794 7.01625 13.4062 8.58112 13.4062 10.4255V13.9062M13.4062 13.9062H7.92188C6.91275 13.9062 6.09375 14.7253 6.09375 15.7344V34.0156C6.09375 35.0247 6.91275 35.8438 7.92188 35.8438H23.7656C24.7747 35.8438 25.5938 35.0247 25.5938 34.0156V15.7344C25.5938 14.7253 24.7747 13.9062 23.7656 13.9062H13.4062ZM10.9688 20H10.9817V20.013H10.9688V20ZM10.9688 24.875H10.9817V24.888H10.9688V24.875ZM10.9688 29.75H10.9817V29.763H10.9688V29.75Z" stroke="black" stroke-width="1.5" stroke-linecap="round" stroke-linejoin="round"/>
</svg>
