<svg width="739" height="499" viewBox="0 0 739 499" fill="none" xmlns="http://www.w3.org/2000/svg">
<path d="M293.011 13.8876C295.361 12.5501 298.241 12.5501 300.591 13.8876L340.298 36.4916C342.691 37.8538 344.169 40.3955 344.169 43.1489V88.1708C344.169 90.9243 342.691 93.4659 340.298 94.8281L300.591 117.432C298.241 118.77 295.361 118.77 293.011 117.432L253.304 94.8281C250.911 93.4659 249.433 90.9242 249.433 88.1708V43.1489C249.433 40.3955 250.911 37.8538 253.304 36.4916L293.011 13.8876Z" fill="url(#paint0_linear_629_27874)"/>
<path d="M289.753 11.8006C292.123 10.4322 295.044 10.4322 297.414 11.8006L334.335 33.117C336.705 34.4854 338.165 37.0143 338.165 39.7511V82.3839C338.165 85.1207 336.705 87.6496 334.335 89.018L297.414 110.334C295.044 111.703 292.123 111.703 289.753 110.334L252.832 89.018C250.462 87.6496 249.002 85.1207 249.002 82.3839V39.7511C249.002 37.0143 250.462 34.4854 252.832 33.117L289.753 11.8006Z" fill="url(#paint1_linear_629_27874)"/>
<path d="M289.753 18.8553C292.123 17.4869 295.044 17.4869 297.414 18.8553L328.231 36.6479C330.601 38.0163 332.062 40.5452 332.062 43.282V78.8671C332.062 81.604 330.601 84.1329 328.231 85.5013L297.414 103.294C295.044 104.662 292.123 104.662 289.753 103.294L258.936 85.5013C256.565 84.1329 255.105 81.604 255.105 78.8671V43.282C255.105 40.5452 256.565 38.0163 258.936 36.6479L289.753 18.8553Z" fill="url(#paint2_linear_629_27874)"/>
<path d="M284.33 64.7189C284.33 66.2264 283.165 67.1947 281.315 67.256V68.7268H280.322V67.207C278.52 66.9618 277.356 65.92 277.258 64.4247H278.765C278.876 65.1601 279.427 65.6749 280.322 65.871V63.248L280.077 63.1745C279.072 62.8681 277.503 62.4268 277.503 60.7477C277.503 59.3994 278.569 58.3944 280.322 58.3086V56.9358H281.315V58.3576C282.957 58.6027 283.974 59.6568 284.072 61.2379H282.577C282.528 60.4903 282.099 59.9387 281.315 59.7181V62.1204L281.842 62.2798C283.055 62.6597 284.33 63.101 284.33 64.7189ZM278.961 60.6741C278.961 61.3605 279.587 61.5689 280.322 61.8017V59.6201C279.488 59.6813 278.961 60.0613 278.961 60.6741ZM281.315 63.5422V65.9445C282.308 65.8955 282.835 65.4788 282.835 64.7924C282.835 64.1183 282.308 63.8486 281.474 63.5912L281.315 63.5422ZM286.491 67.0721H284.971L288.476 58.4924H289.947L293.465 67.0721H291.945L291.075 64.9517H287.361L286.491 67.0721ZM289.224 60.3922L287.888 63.6525H290.548L289.224 60.3922ZM296.045 67.0721H294.574V58.4924H298.766C300.396 58.4924 301.524 59.4852 301.524 60.9193C301.524 61.9733 300.776 62.8436 299.636 63.1377C300.2 63.248 300.605 63.5912 300.813 64.1183L301.916 67.0721H300.347L299.354 64.3634C299.232 64.0202 298.95 63.8364 298.558 63.8364H296.045V67.0721ZM296.045 59.8162V62.5372H298.692C299.599 62.5372 300.065 61.8875 300.065 61.1399C300.065 60.3555 299.526 59.8162 298.692 59.8162H296.045ZM307.239 67.0721H303.096V58.4924H307.166C308.722 58.4924 309.813 59.3749 309.813 60.6619C309.813 61.6424 309.102 62.4023 308.048 62.6597C309.237 62.8436 309.997 63.6525 309.997 64.7434C309.997 66.1161 308.869 67.0721 307.239 67.0721ZM304.555 59.8039V62.0714H307.117C307.852 62.0714 308.355 61.5811 308.355 60.8948C308.355 60.2574 307.889 59.8039 307.227 59.8039H304.555ZM304.555 63.3461V65.7484H307.313C308.048 65.7484 308.502 65.2214 308.502 64.535C308.502 63.8364 307.962 63.3461 307.178 63.3461H304.555Z" fill="white" fill-opacity="0.7"/>
<g filter="url(#filter0_d_629_27874)">
<path d="M413.901 315.849C417.08 316.391 419.564 318.047 420.385 320.172L432.491 351.505C433.288 353.567 432.397 355.759 430.148 357.27L395.128 380.791C392.878 382.301 389.606 382.906 386.521 382.38L339.651 374.396C336.472 373.855 333.988 372.198 333.167 370.073L321.061 338.741C320.264 336.678 321.155 334.486 323.405 332.976L358.424 309.455C360.674 307.944 363.946 307.34 367.031 307.865L413.901 315.849Z" fill="url(#paint3_linear_629_27874)"/>
<path d="M412.482 308.319C415.59 308.87 418.02 310.49 418.856 312.568L431.88 344.933C432.717 347.011 431.832 349.231 429.56 350.757L394.169 374.527C391.897 376.053 388.583 376.653 385.475 376.101L337.059 367.506C333.951 366.954 331.521 365.334 330.685 363.257L317.661 330.892C316.824 328.814 317.709 326.594 319.981 325.068L355.372 301.298C357.644 299.772 360.958 299.172 364.066 299.724L412.482 308.319Z" fill="url(#paint4_linear_629_27874)"/>
<path d="M406.631 312.243C409.739 312.795 412.168 314.415 413.005 316.493L423.876 343.507C424.712 345.585 423.828 347.805 421.556 349.331L392.015 369.172C389.743 370.698 386.429 371.298 383.321 370.746L342.909 363.572C339.801 363.02 337.371 361.4 336.535 359.323L325.663 332.308C324.827 330.23 325.712 328.01 327.984 326.484L357.524 306.643C359.796 305.117 363.11 304.517 366.219 305.069L406.631 312.243Z" fill="url(#paint5_linear_629_27874)"/>
<path d="M364.043 334.818C362.791 335.659 361.019 335.553 359.428 334.56L358.207 335.38L357.381 334.83L358.643 333.982C357.347 332.846 357.243 331.619 358.403 330.731L359.657 331.568C359.138 332.039 359.17 332.632 359.752 333.237L361.929 331.775L361.786 331.598C361.204 330.87 360.265 329.753 361.659 328.817C362.778 328.065 364.5 328.097 366.03 329.021L367.169 328.256L367.995 328.806L366.815 329.599C367.978 330.647 367.949 331.799 366.718 332.735L365.474 331.905C366.054 331.461 366.155 330.916 365.685 330.358L363.691 331.697L363.997 332.078C364.692 332.963 365.386 333.916 364.043 334.818ZM362.934 329.585C362.364 329.968 362.711 330.431 363.13 330.969L364.941 329.752C364.196 329.324 363.443 329.243 362.934 329.585ZM362.511 332.49L360.517 333.829C361.383 334.352 362.168 334.412 362.738 334.03C363.297 333.654 363.083 333.211 362.603 332.605L362.511 332.49ZM363.887 337.329L362.623 336.486L372.662 333.647L373.886 334.463L369.69 341.197L368.425 340.354L369.462 338.689L366.372 336.629L363.887 337.329ZM371.707 335.121L367.889 336.197L370.102 337.673L371.707 335.121ZM371.837 342.629L370.613 341.813L377.736 337.029L381.223 339.354C382.58 340.259 382.694 341.438 381.503 342.237C380.628 342.825 379.284 342.895 378.091 342.427C378.469 342.801 378.52 343.217 378.256 343.626L376.722 345.885L375.417 345.015L376.839 342.954C377.022 342.695 376.94 342.436 376.614 342.218L374.523 340.825L371.837 342.629ZM377.86 338.583L375.602 340.1L377.804 341.569C378.559 342.072 379.486 341.968 380.107 341.551C380.758 341.114 380.757 340.514 380.063 340.052L377.86 338.583ZM381.151 348.838L377.704 346.54L384.826 341.756L388.212 344.014C389.507 344.877 389.683 345.974 388.614 346.692C387.8 347.239 386.578 347.268 385.487 346.827C386.324 347.589 386.284 348.461 385.379 349.069C384.239 349.835 382.507 349.742 381.151 348.838ZM384.951 343.297L383.069 344.561L385.2 345.982C385.812 346.39 386.637 346.395 387.207 346.013C387.736 345.657 387.725 345.146 387.175 344.779L384.951 343.297ZM382.011 345.272L380.017 346.611L382.311 348.141C382.923 348.549 383.738 348.507 384.308 348.124C384.888 347.734 384.846 347.162 384.193 346.727L382.011 345.272Z" fill="white" fill-opacity="0.7"/>
</g>
<g filter="url(#filter1_d_629_27874)">
<path d="M298.635 355.837C301.813 356.379 304.298 358.035 305.119 360.16L317.225 391.493C318.022 393.556 317.131 395.748 314.881 397.258L279.861 420.779C277.612 422.29 274.34 422.894 271.255 422.369L224.385 414.385C221.206 413.843 218.722 412.187 217.901 410.062L205.795 378.729C204.998 376.667 205.889 374.474 208.138 372.964L243.158 349.443C245.408 347.932 248.68 347.328 251.765 347.853L298.635 355.837Z" fill="url(#paint6_linear_629_27874)"/>
<path d="M297.215 348.307C300.323 348.859 302.753 350.478 303.589 352.556L316.613 384.921C317.449 386.999 316.565 389.219 314.293 390.745L278.902 414.515C276.63 416.041 273.316 416.641 270.208 416.089L221.792 407.494C218.684 406.943 216.254 405.323 215.418 403.245L202.393 370.88C201.557 368.802 202.442 366.582 204.714 365.056L240.105 341.286C242.377 339.76 245.691 339.16 248.799 339.712L297.215 348.307Z" fill="url(#paint7_linear_629_27874)"/>
<path d="M291.363 352.232C294.471 352.783 296.901 354.403 297.737 356.481L308.608 383.496C309.445 385.573 308.56 387.793 306.288 389.319L276.748 409.16C274.476 410.686 271.161 411.286 268.053 410.734L227.641 403.56C224.533 403.008 222.103 401.389 221.267 399.311L210.396 372.296C209.56 370.218 210.444 367.998 212.716 366.472L242.257 346.632C244.529 345.106 247.843 344.506 250.951 345.057L291.363 352.232Z" fill="url(#paint8_linear_629_27874)"/>
<path d="M248.777 374.806C247.525 375.647 245.753 375.541 244.162 374.549L242.941 375.369L242.115 374.818L243.377 373.971C242.081 372.834 241.977 371.608 243.137 370.72L244.391 371.556C243.872 372.027 243.904 372.62 244.486 373.226L246.663 371.763L246.52 371.586C245.938 370.858 244.999 369.742 246.393 368.805C247.512 368.054 249.234 368.085 250.763 369.009L251.903 368.244L252.729 368.795L251.549 369.587C252.712 370.635 252.683 371.787 251.452 372.723L250.208 371.893C250.788 371.449 250.889 370.904 250.419 370.346L248.425 371.685L248.731 372.066C249.426 372.951 250.12 373.904 248.777 374.806ZM247.668 369.573C247.098 369.956 247.445 370.419 247.864 370.957L249.675 369.74C248.93 369.312 248.176 369.232 247.668 369.573ZM247.245 372.478L245.251 373.817C246.117 374.341 246.902 374.401 247.472 374.018C248.031 373.642 247.817 373.199 247.337 372.594L247.245 372.478ZM248.621 377.317L247.357 376.474L257.396 373.635L258.619 374.451L254.424 381.186L253.159 380.343L254.196 378.678L251.105 376.618L248.621 377.317ZM256.441 375.109L252.623 376.186L254.836 377.661L256.441 375.109ZM256.571 382.617L255.347 381.801L262.469 377.017L265.957 379.343C267.314 380.247 267.428 381.426 266.237 382.225C265.362 382.813 264.018 382.884 262.825 382.415C263.203 382.79 263.254 383.205 262.99 383.615L261.456 385.874L260.15 385.003L261.573 382.942C261.756 382.683 261.674 382.424 261.348 382.207L259.257 380.813L256.571 382.617ZM262.594 378.571L260.336 380.088L262.538 381.557C263.293 382.06 264.22 381.956 264.84 381.539C265.492 381.102 265.491 380.502 264.797 380.04L262.594 378.571ZM265.885 388.826L262.438 386.528L269.56 381.745L272.946 384.002C274.241 384.865 274.416 385.963 273.348 386.68C272.534 387.227 271.312 387.256 270.221 386.815C271.058 387.577 271.018 388.45 270.113 389.058C268.973 389.823 267.241 389.731 265.885 388.826ZM269.685 383.285L267.803 384.549L269.934 385.97C270.546 386.378 271.371 386.384 271.941 386.001C272.47 385.646 272.459 385.134 271.908 384.767L269.685 383.285ZM266.745 385.26L264.75 386.599L267.045 388.129C267.657 388.537 268.472 388.495 269.042 388.112C269.622 387.723 269.58 387.15 268.927 386.715L266.745 385.26Z" fill="white" fill-opacity="0.7"/>
</g>
<g filter="url(#filter2_d_629_27874)">
<path d="M517.589 373.22C520.768 373.761 523.252 375.417 524.073 377.543L536.179 408.875C536.976 410.938 536.085 413.13 533.836 414.64L498.816 438.161C496.566 439.672 493.294 440.276 490.209 439.751L443.339 431.767C440.16 431.225 437.676 429.569 436.855 427.444L424.749 396.111C423.952 394.049 424.843 391.856 427.093 390.346L462.112 366.825C464.362 365.314 467.634 364.71 470.719 365.236L517.589 373.22Z" fill="url(#paint9_linear_629_27874)"/>
<path d="M516.168 365.689C519.277 366.241 521.706 367.861 522.542 369.938L535.567 402.303C536.403 404.381 535.519 406.601 533.247 408.127L497.856 431.897C495.584 433.423 492.269 434.023 489.161 433.471L440.746 424.876C437.638 424.325 435.208 422.705 434.372 420.627L421.347 388.262C420.511 386.184 421.395 383.964 423.667 382.438L459.059 358.668C461.33 357.142 464.645 356.542 467.753 357.094L516.168 365.689Z" fill="url(#paint10_linear_629_27874)"/>
<path d="M510.318 369.614C513.426 370.165 515.856 371.785 516.692 373.863L527.563 400.878C528.399 402.955 527.515 405.175 525.243 406.701L495.702 426.542C493.43 428.068 490.116 428.668 487.008 428.116L446.596 420.942C443.488 420.39 441.058 418.771 440.222 416.693L429.351 389.678C428.515 387.6 429.399 385.38 431.671 383.854L461.212 364.014C463.484 362.488 466.798 361.888 469.906 362.439L510.318 369.614Z" fill="url(#paint11_linear_629_27874)"/>
<path d="M467.729 392.189C466.478 393.029 464.705 392.923 463.115 391.931L461.894 392.751L461.067 392.2L462.329 391.353C461.034 390.217 460.93 388.99 462.089 388.102L463.344 388.938C462.825 389.409 462.857 390.002 463.438 390.608L465.616 389.145L465.473 388.968C464.891 388.24 463.952 387.124 465.346 386.188C466.465 385.436 468.186 385.467 469.716 386.391L470.856 385.626L471.682 386.177L470.501 386.969C471.664 388.017 471.636 389.169 470.405 390.105L469.161 389.276C469.741 388.832 469.842 388.286 469.372 387.728L467.378 389.067L467.684 389.449C468.378 390.334 469.073 391.287 467.729 392.189ZM466.62 386.956C466.051 387.338 466.398 387.801 466.816 388.339L468.627 387.123C467.883 386.694 467.129 386.614 466.62 386.956ZM466.197 389.86L464.203 391.2C465.07 391.723 465.854 391.783 466.424 391.4C466.984 391.024 466.769 390.582 466.289 389.976L466.197 389.86ZM467.574 394.699L466.309 393.856L476.348 391.017L477.572 391.833L473.377 398.568L472.112 397.725L473.148 396.06L470.058 394L467.574 394.699ZM475.393 392.491L471.575 393.568L473.788 395.043L475.393 392.491ZM475.523 399.999L474.3 399.183L481.422 394.4L484.91 396.725C486.266 397.629 486.38 398.808 485.19 399.608C484.315 400.195 482.97 400.266 481.778 399.798C482.155 400.172 482.207 400.588 481.943 400.997L480.408 403.256L479.103 402.386L480.526 400.325C480.709 400.065 480.627 399.806 480.3 399.589L478.21 398.195L475.523 399.999ZM481.547 395.954L479.288 397.471L481.491 398.939C482.246 399.442 483.172 399.338 483.793 398.922C484.444 398.484 484.443 397.884 483.75 397.422L481.547 395.954ZM484.838 406.209L481.391 403.911L488.513 399.127L491.899 401.384C493.194 402.248 493.369 403.345 492.301 404.062C491.487 404.609 490.264 404.638 489.174 404.197C490.01 404.959 489.971 405.832 489.065 406.44C487.926 407.205 486.194 407.113 484.838 406.209ZM488.638 400.667L486.756 401.931L488.887 403.352C489.499 403.76 490.324 403.766 490.894 403.383C491.423 403.028 491.412 402.516 490.861 402.149L488.638 400.667ZM485.697 402.642L483.703 403.982L485.998 405.511C486.61 405.919 487.424 405.877 487.994 405.494C488.574 405.105 488.532 404.532 487.88 404.097L485.697 402.642Z" fill="white" fill-opacity="0.7"/>
</g>
<g filter="url(#filter3_d_629_27874)">
<path d="M401.796 403.735C404.975 404.277 407.46 405.933 408.281 408.058L420.386 439.391C421.183 441.453 420.292 443.646 418.043 445.156L383.023 468.677C380.774 470.188 377.501 470.792 374.416 470.266L327.547 462.282C324.368 461.741 321.884 460.085 321.062 457.959L308.957 426.627C308.16 424.564 309.051 422.372 311.3 420.862L346.32 397.341C348.569 395.83 351.842 395.226 354.927 395.751L401.796 403.735Z" fill="url(#paint12_linear_629_27874)"/>
<path d="M400.376 396.205C403.484 396.756 405.914 398.376 406.75 400.454L419.774 432.819C420.611 434.897 419.726 437.117 417.454 438.643L382.063 462.413C379.791 463.939 376.477 464.539 373.369 463.987L324.953 455.392C321.845 454.84 319.415 453.221 318.579 451.143L305.555 418.778C304.718 416.7 305.603 414.48 307.875 412.954L343.266 389.184C345.538 387.658 348.852 387.058 351.96 387.61L400.376 396.205Z" fill="url(#paint13_linear_629_27874)"/>
<path d="M394.525 400.129C397.633 400.681 400.062 402.301 400.899 404.379L411.77 431.394C412.606 433.471 411.722 435.691 409.45 437.217L379.909 457.058C377.637 458.584 374.323 459.184 371.215 458.632L330.803 451.458C327.695 450.906 325.265 449.286 324.429 447.209L313.557 420.194C312.721 418.116 313.606 415.896 315.878 414.37L345.418 394.529C347.69 393.004 351.005 392.403 354.113 392.955L394.525 400.129Z" fill="url(#paint14_linear_629_27874)"/>
<path d="M351.937 422.704C350.686 423.545 348.913 423.439 347.323 422.447L346.102 423.267L345.275 422.716L346.537 421.868C345.242 420.732 345.138 419.506 346.297 418.618L347.552 419.454C347.033 419.925 347.065 420.518 347.646 421.124L349.824 419.661L349.681 419.484C349.099 418.756 348.16 417.64 349.554 416.703C350.673 415.952 352.394 415.983 353.924 416.907L355.064 416.142L355.89 416.692L354.709 417.485C355.872 418.533 355.844 419.685 354.613 420.621L353.369 419.791C353.949 419.347 354.05 418.802 353.58 418.244L351.586 419.583L351.892 419.964C352.586 420.849 353.281 421.802 351.937 422.704ZM350.828 417.471C350.259 417.854 350.606 418.317 351.024 418.855L352.835 417.638C352.091 417.21 351.337 417.13 350.828 417.471ZM350.405 420.376L348.411 421.715C349.278 422.239 350.062 422.299 350.632 421.916C351.192 421.54 350.977 421.097 350.497 420.492L350.405 420.376ZM351.782 425.215L350.517 424.372L360.556 421.533L361.78 422.349L357.585 429.084L356.32 428.241L357.356 426.576L354.266 424.516L351.782 425.215ZM359.601 423.007L355.783 424.084L357.996 425.559L359.601 423.007ZM359.731 430.515L358.508 429.699L365.63 424.915L369.118 427.241C370.474 428.145 370.588 429.324 369.398 430.123C368.523 430.711 367.178 430.782 365.986 430.313C366.363 430.688 366.415 431.103 366.151 431.513L364.616 433.772L363.311 432.901L364.734 430.84C364.917 430.581 364.835 430.322 364.508 430.105L362.418 428.711L359.731 430.515ZM365.755 426.469L363.496 427.986L365.699 429.455C366.454 429.958 367.38 429.854 368.001 429.437C368.652 429 368.651 428.4 367.958 427.938L365.755 426.469ZM369.046 436.724L365.599 434.426L372.721 429.643L376.107 431.9C377.402 432.763 377.577 433.86 376.509 434.578C375.695 435.125 374.472 435.154 373.382 434.713C374.218 435.475 374.179 436.347 373.273 436.956C372.134 437.721 370.402 437.629 369.046 436.724ZM372.846 431.183L370.964 432.447L373.095 433.868C373.707 434.276 374.532 434.282 375.102 433.899C375.631 433.543 375.62 433.032 375.069 432.665L372.846 431.183ZM369.905 433.158L367.911 434.497L370.206 436.027C370.818 436.435 371.632 436.393 372.202 436.01C372.782 435.621 372.74 435.048 372.088 434.613L369.905 433.158Z" fill="white" fill-opacity="0.7"/>
</g>
<path d="M368.803 102.844C371.153 101.507 374.033 101.507 376.383 102.844L416.09 125.448C418.483 126.81 419.961 129.352 419.961 132.105V177.127C419.961 179.881 418.483 182.422 416.09 183.785L376.383 206.389C374.033 207.726 371.153 207.726 368.803 206.389L329.096 183.785C326.703 182.422 325.225 179.881 325.225 177.127V132.105C325.225 129.352 326.703 126.81 329.096 125.448L368.803 102.844Z" fill="url(#paint15_linear_629_27874)"/>
<path d="M365.546 100.757C367.916 99.3886 370.836 99.3886 373.206 100.757L410.127 122.073C412.497 123.442 413.957 125.971 413.957 128.708V171.34C413.957 174.077 412.497 176.606 410.127 177.974L373.206 199.291C370.836 200.659 367.916 200.659 365.546 199.291L328.624 177.974C326.254 176.606 324.794 174.077 324.794 171.34V128.708C324.794 125.971 326.254 123.442 328.624 122.073L365.546 100.757Z" fill="url(#paint16_linear_629_27874)"/>
<path d="M365.546 107.812C367.916 106.443 370.836 106.443 373.206 107.812L404.024 125.604C406.394 126.973 407.854 129.502 407.854 132.238V167.824C407.854 170.56 406.394 173.089 404.024 174.458L373.206 192.25C370.836 193.619 367.916 193.619 365.546 192.25L334.728 174.458C332.358 173.089 330.898 170.56 330.898 167.824V132.238C330.898 129.502 332.358 126.973 334.728 125.604L365.546 107.812Z" fill="url(#paint17_linear_629_27874)"/>
<path d="M360.122 153.675C360.122 155.183 358.958 156.151 357.107 156.212V157.683H356.114V156.163C354.312 155.918 353.148 154.876 353.05 153.381H354.558C354.668 154.117 355.219 154.631 356.114 154.827V152.204L355.869 152.131C354.864 151.825 353.295 151.383 353.295 149.704C353.295 148.356 354.361 147.351 356.114 147.265V145.892H357.107V147.314C358.749 147.559 359.767 148.613 359.865 150.194H358.369C358.32 149.447 357.891 148.895 357.107 148.675V151.077L357.634 151.236C358.847 151.616 360.122 152.057 360.122 153.675ZM354.754 149.631C354.754 150.317 355.379 150.525 356.114 150.758V148.576C355.281 148.638 354.754 149.018 354.754 149.631ZM357.107 152.499V154.901C358.1 154.852 358.627 154.435 358.627 153.749C358.627 153.075 358.1 152.805 357.266 152.548L357.107 152.499ZM362.283 156.029H360.763L364.269 147.449H365.739L369.257 156.029H367.737L366.867 153.908H363.153L362.283 156.029ZM365.016 149.349L363.68 152.609H366.34L365.016 149.349ZM371.837 156.029H370.366V147.449H374.558C376.188 147.449 377.316 148.442 377.316 149.876C377.316 150.93 376.568 151.8 375.428 152.094C375.992 152.204 376.397 152.548 376.605 153.075L377.708 156.029H376.139L375.147 153.32C375.024 152.977 374.742 152.793 374.35 152.793H371.837V156.029ZM371.837 148.773V151.494H374.485C375.392 151.494 375.857 150.844 375.857 150.096C375.857 149.312 375.318 148.773 374.485 148.773H371.837ZM383.031 156.029H378.889V147.449H382.958C384.515 147.449 385.605 148.331 385.605 149.618C385.605 150.599 384.895 151.359 383.84 151.616C385.029 151.8 385.789 152.609 385.789 153.7C385.789 155.073 384.662 156.029 383.031 156.029ZM380.347 148.76V151.028H382.909C383.644 151.028 384.147 150.538 384.147 149.851C384.147 149.214 383.681 148.76 383.019 148.76H380.347ZM380.347 152.303V154.705H383.105C383.84 154.705 384.294 154.178 384.294 153.491C384.294 152.793 383.755 152.303 382.97 152.303H380.347Z" fill="white" fill-opacity="0.7"/>
<path d="M266.168 174.953C268.518 173.616 271.398 173.616 273.748 174.953L313.455 197.557C315.848 198.919 317.326 201.461 317.326 204.214V249.236C317.326 251.99 315.848 254.531 313.455 255.894L273.748 278.498C271.398 279.835 268.518 279.835 266.168 278.498L226.461 255.894C224.068 254.531 222.59 251.99 222.59 249.236V204.214C222.59 201.461 224.068 198.919 226.461 197.557L266.168 174.953Z" fill="url(#paint18_linear_629_27874)"/>
<path d="M262.911 172.866C265.281 171.498 268.201 171.498 270.571 172.866L307.492 194.183C309.862 195.551 311.322 198.08 311.322 200.817V243.449C311.322 246.186 309.862 248.715 307.492 250.084L270.571 271.4C268.201 272.768 265.281 272.768 262.911 271.4L225.989 250.084C223.619 248.715 222.159 246.186 222.159 243.449V200.817C222.159 198.08 223.619 195.551 225.989 194.183L262.911 172.866Z" fill="url(#paint19_linear_629_27874)"/>
<path d="M262.91 179.921C265.281 178.552 268.201 178.552 270.571 179.921L301.389 197.713C303.759 199.082 305.219 201.611 305.219 204.348V239.933C305.219 242.67 303.759 245.198 301.389 246.567L270.571 264.359C268.201 265.728 265.281 265.728 262.91 264.359L232.093 246.567C229.723 245.198 228.263 242.67 228.263 239.933V204.348C228.263 201.611 229.723 199.082 232.093 197.713L262.91 179.921Z" fill="url(#paint20_linear_629_27874)"/>
<path d="M257.487 225.784C257.487 227.292 256.323 228.26 254.472 228.322V229.792H253.479V228.273C251.677 228.027 250.513 226.986 250.415 225.49H251.923C252.033 226.226 252.584 226.74 253.479 226.937V224.314L253.234 224.24C252.229 223.934 250.66 223.492 250.66 221.813C250.66 220.465 251.726 219.46 253.479 219.374V218.001H254.472V219.423C256.114 219.668 257.132 220.722 257.23 222.303H255.734C255.685 221.556 255.256 221.004 254.472 220.784V223.186L254.999 223.345C256.212 223.725 257.487 224.167 257.487 225.784ZM252.119 221.74C252.119 222.426 252.744 222.634 253.479 222.867V220.686C252.646 220.747 252.119 221.127 252.119 221.74ZM254.472 224.608V227.01C255.465 226.961 255.992 226.544 255.992 225.858C255.992 225.184 255.465 224.914 254.631 224.657L254.472 224.608ZM259.648 228.138H258.128L261.634 219.558H263.104L266.622 228.138H265.102L264.232 226.017H260.518L259.648 228.138ZM262.381 221.458L261.045 224.718H263.705L262.381 221.458ZM269.202 228.138H267.731V219.558H271.923C273.553 219.558 274.681 220.551 274.681 221.985C274.681 223.039 273.933 223.909 272.793 224.203C273.357 224.314 273.762 224.657 273.97 225.184L275.073 228.138H273.504L272.512 225.429C272.389 225.086 272.107 224.902 271.715 224.902H269.202V228.138ZM269.202 220.882V223.603H271.85C272.757 223.603 273.222 222.953 273.222 222.205C273.222 221.421 272.683 220.882 271.85 220.882H269.202ZM280.396 228.138H276.254V219.558H280.323C281.88 219.558 282.97 220.44 282.97 221.727C282.97 222.708 282.26 223.468 281.205 223.725C282.394 223.909 283.154 224.718 283.154 225.809C283.154 227.182 282.027 228.138 280.396 228.138ZM277.712 220.869V223.137H280.274C281.009 223.137 281.512 222.647 281.512 221.96C281.512 221.323 281.046 220.869 280.384 220.869H277.712ZM277.712 224.412V226.814H280.47C281.205 226.814 281.659 226.287 281.659 225.601C281.659 224.902 281.12 224.412 280.335 224.412H277.712Z" fill="white" fill-opacity="0.7"/>
<defs>
<filter id="filter0_d_629_27874" x="307.06" y="299.522" width="125.718" height="92.5375" filterUnits="userSpaceOnUse" color-interpolation-filters="sRGB">
<feFlood flood-opacity="0" result="BackgroundImageFix"/>
<feColorMatrix in="SourceAlpha" type="matrix" values="0 0 0 0 0 0 0 0 0 0 0 0 0 0 0 0 0 0 127 0" result="hardAlpha"/>
<feOffset dx="-5.58415" dy="4.78641"/>
<feGaussianBlur stdDeviation="2.35332"/>
<feComposite in2="hardAlpha" operator="out"/>
<feColorMatrix type="matrix" values="0 0 0 0 0.243596 0 0 0 0 0.367696 0 0 0 0 0.538333 0 0 0 0.24 0"/>
<feBlend mode="normal" in2="BackgroundImageFix" result="effect1_dropShadow_629_27874"/>
<feBlend mode="normal" in="SourceGraphic" in2="effect1_dropShadow_629_27874" result="shape"/>
</filter>
<filter id="filter1_d_629_27874" x="191.793" y="339.51" width="125.719" height="92.5375" filterUnits="userSpaceOnUse" color-interpolation-filters="sRGB">
<feFlood flood-opacity="0" result="BackgroundImageFix"/>
<feColorMatrix in="SourceAlpha" type="matrix" values="0 0 0 0 0 0 0 0 0 0 0 0 0 0 0 0 0 0 127 0" result="hardAlpha"/>
<feOffset dx="-5.58415" dy="4.78641"/>
<feGaussianBlur stdDeviation="2.35332"/>
<feComposite in2="hardAlpha" operator="out"/>
<feColorMatrix type="matrix" values="0 0 0 0 0.243596 0 0 0 0 0.367696 0 0 0 0 0.538333 0 0 0 0.24 0"/>
<feBlend mode="normal" in2="BackgroundImageFix" result="effect1_dropShadow_629_27874"/>
<feBlend mode="normal" in="SourceGraphic" in2="effect1_dropShadow_629_27874" result="shape"/>
</filter>
<filter id="filter2_d_629_27874" x="410.747" y="356.892" width="125.719" height="92.5375" filterUnits="userSpaceOnUse" color-interpolation-filters="sRGB">
<feFlood flood-opacity="0" result="BackgroundImageFix"/>
<feColorMatrix in="SourceAlpha" type="matrix" values="0 0 0 0 0 0 0 0 0 0 0 0 0 0 0 0 0 0 127 0" result="hardAlpha"/>
<feOffset dx="-5.58415" dy="4.78641"/>
<feGaussianBlur stdDeviation="2.35332"/>
<feComposite in2="hardAlpha" operator="out"/>
<feColorMatrix type="matrix" values="0 0 0 0 0.243596 0 0 0 0 0.367696 0 0 0 0 0.538333 0 0 0 0.24 0"/>
<feBlend mode="normal" in2="BackgroundImageFix" result="effect1_dropShadow_629_27874"/>
<feBlend mode="normal" in="SourceGraphic" in2="effect1_dropShadow_629_27874" result="shape"/>
</filter>
<filter id="filter3_d_629_27874" x="294.954" y="387.408" width="125.719" height="92.5375" filterUnits="userSpaceOnUse" color-interpolation-filters="sRGB">
<feFlood flood-opacity="0" result="BackgroundImageFix"/>
<feColorMatrix in="SourceAlpha" type="matrix" values="0 0 0 0 0 0 0 0 0 0 0 0 0 0 0 0 0 0 127 0" result="hardAlpha"/>
<feOffset dx="-5.58415" dy="4.78641"/>
<feGaussianBlur stdDeviation="2.35332"/>
<feComposite in2="hardAlpha" operator="out"/>
<feColorMatrix type="matrix" values="0 0 0 0 0.243596 0 0 0 0 0.367696 0 0 0 0 0.538333 0 0 0 0.24 0"/>
<feBlend mode="normal" in2="BackgroundImageFix" result="effect1_dropShadow_629_27874"/>
<feBlend mode="normal" in="SourceGraphic" in2="effect1_dropShadow_629_27874" result="shape"/>
</filter>
<linearGradient id="paint0_linear_629_27874" x1="296.801" y1="11.7302" x2="296.801" y2="119.589" gradientUnits="userSpaceOnUse">
<stop stop-color="#306080"/>
<stop offset="1" stop-color="#224359"/>
</linearGradient>
<linearGradient id="paint1_linear_629_27874" x1="293.584" y1="9.58923" x2="293.584" y2="112.546" gradientUnits="userSpaceOnUse">
<stop stop-color="#5BA7D9"/>
<stop offset="1" stop-color="#84B2D1"/>
</linearGradient>
<linearGradient id="paint2_linear_629_27874" x1="293.583" y1="16.6439" x2="293.583" y2="105.505" gradientUnits="userSpaceOnUse">
<stop stop-color="#213147"/>
<stop offset="1" stop-color="#18498C"/>
</linearGradient>
<linearGradient id="paint3_linear_629_27874" x1="419.054" y1="316.727" x2="366.825" y2="395.07" gradientUnits="userSpaceOnUse">
<stop stop-color="#306080"/>
<stop offset="1" stop-color="#224359"/>
</linearGradient>
<linearGradient id="paint4_linear_629_27874" x1="417.505" y1="309.21" x2="364.713" y2="388.398" gradientUnits="userSpaceOnUse">
<stop stop-color="#5BA7D9"/>
<stop offset="1" stop-color="#84B2D1"/>
</linearGradient>
<linearGradient id="paint5_linear_629_27874" x1="411.653" y1="313.135" x2="366.089" y2="381.482" gradientUnits="userSpaceOnUse">
<stop stop-color="#213147"/>
<stop offset="1" stop-color="#18498C"/>
</linearGradient>
<linearGradient id="paint6_linear_629_27874" x1="303.788" y1="356.715" x2="251.559" y2="435.058" gradientUnits="userSpaceOnUse">
<stop stop-color="#306080"/>
<stop offset="1" stop-color="#224359"/>
</linearGradient>
<linearGradient id="paint7_linear_629_27874" x1="302.238" y1="349.199" x2="249.445" y2="428.387" gradientUnits="userSpaceOnUse">
<stop stop-color="#5BA7D9"/>
<stop offset="1" stop-color="#84B2D1"/>
</linearGradient>
<linearGradient id="paint8_linear_629_27874" x1="296.386" y1="353.123" x2="250.821" y2="421.47" gradientUnits="userSpaceOnUse">
<stop stop-color="#213147"/>
<stop offset="1" stop-color="#18498C"/>
</linearGradient>
<linearGradient id="paint9_linear_629_27874" x1="522.742" y1="374.097" x2="470.513" y2="452.44" gradientUnits="userSpaceOnUse">
<stop stop-color="#306080"/>
<stop offset="1" stop-color="#224359"/>
</linearGradient>
<linearGradient id="paint10_linear_629_27874" x1="521.191" y1="366.581" x2="468.399" y2="445.769" gradientUnits="userSpaceOnUse">
<stop stop-color="#5BA7D9"/>
<stop offset="1" stop-color="#84B2D1"/>
</linearGradient>
<linearGradient id="paint11_linear_629_27874" x1="515.341" y1="370.505" x2="469.776" y2="438.852" gradientUnits="userSpaceOnUse">
<stop stop-color="#213147"/>
<stop offset="1" stop-color="#18498C"/>
</linearGradient>
<linearGradient id="paint12_linear_629_27874" x1="406.95" y1="404.613" x2="354.721" y2="482.956" gradientUnits="userSpaceOnUse">
<stop stop-color="#306080"/>
<stop offset="1" stop-color="#224359"/>
</linearGradient>
<linearGradient id="paint13_linear_629_27874" x1="405.399" y1="397.096" x2="352.607" y2="476.285" gradientUnits="userSpaceOnUse">
<stop stop-color="#5BA7D9"/>
<stop offset="1" stop-color="#84B2D1"/>
</linearGradient>
<linearGradient id="paint14_linear_629_27874" x1="399.547" y1="401.021" x2="353.983" y2="469.368" gradientUnits="userSpaceOnUse">
<stop stop-color="#213147"/>
<stop offset="1" stop-color="#18498C"/>
</linearGradient>
<linearGradient id="paint15_linear_629_27874" x1="372.593" y1="100.687" x2="372.593" y2="208.546" gradientUnits="userSpaceOnUse">
<stop stop-color="#306080"/>
<stop offset="1" stop-color="#224359"/>
</linearGradient>
<linearGradient id="paint16_linear_629_27874" x1="369.376" y1="98.5457" x2="369.376" y2="201.502" gradientUnits="userSpaceOnUse">
<stop stop-color="#5BA7D9"/>
<stop offset="1" stop-color="#84B2D1"/>
</linearGradient>
<linearGradient id="paint17_linear_629_27874" x1="369.376" y1="105.6" x2="369.376" y2="194.462" gradientUnits="userSpaceOnUse">
<stop stop-color="#213147"/>
<stop offset="1" stop-color="#18498C"/>
</linearGradient>
<linearGradient id="paint18_linear_629_27874" x1="269.958" y1="172.796" x2="269.958" y2="280.655" gradientUnits="userSpaceOnUse">
<stop stop-color="#306080"/>
<stop offset="1" stop-color="#224359"/>
</linearGradient>
<linearGradient id="paint19_linear_629_27874" x1="266.741" y1="170.655" x2="266.741" y2="273.611" gradientUnits="userSpaceOnUse">
<stop stop-color="#5BA7D9"/>
<stop offset="1" stop-color="#84B2D1"/>
</linearGradient>
<linearGradient id="paint20_linear_629_27874" x1="266.741" y1="177.709" x2="266.741" y2="266.571" gradientUnits="userSpaceOnUse">
<stop stop-color="#213147"/>
<stop offset="1" stop-color="#18498C"/>
</linearGradient>
</defs>
</svg>
