<svg width="739" height="499" viewBox="0 0 739 499" fill="none" xmlns="http://www.w3.org/2000/svg">
<path d="M234.414 196.521L358.191 126.779M234.414 196.521L243.839 315.899M234.414 196.521L514.011 216.627M234.414 196.521L333.699 364.147M358.191 126.779L514.011 216.627M358.191 126.779L478.826 347.315M358.191 126.779L376.412 244.272M514.011 216.627L478.826 347.315M514.011 216.627L337.457 366.164M514.011 216.627L376.412 244.272M478.826 347.315L337.457 366.164M478.826 347.315L376.412 244.272M478.826 347.315L243.839 315.899M337.457 366.164L333.699 364.147M243.839 315.899L376.412 244.272M243.839 315.899L333.699 364.147" stroke="#9DA5B0" strokeWidth="2"/>
<path d="M236.299 200.292L368.243 41.3306M236.299 200.292L106.867 255.584L245.723 317.786M236.299 200.292L379.553 244.274M368.243 41.3306L513.383 217.257M368.243 41.3306L245.723 317.786M368.243 41.3306L477.569 347.316M513.383 217.257L635.903 255.584M513.383 217.257L368.243 474.863M635.903 255.584L477.569 347.316M635.903 255.584L379.553 244.274M477.569 347.316L368.243 474.863M368.243 474.863L245.723 317.786M368.243 474.863L379.553 244.274M379.553 244.274L102.469 254.327" stroke="#0D99FF" stroke-dasharray="5 5"/>
<circle cx="359.447" cy="127.409" r="5.65477" fill="#9DA5B0"/>
<circle cx="235.042" cy="197.776" r="5.65477" fill="#9DA5B0"/>
<circle cx="246.352" cy="314.646" r="5.65477" fill="#9DA5B0"/>
<ellipse cx="337.457" cy="366.167" rx="6.28308" ry="5.65477" fill="#9DA5B0"/>
<ellipse cx="476.941" cy="347.313" rx="6.28308" ry="5.65477" fill="#9DA5B0"/>
<circle cx="514.011" cy="217.882" r="5.65477" fill="#9DA5B0"/>
<circle cx="377.04" cy="243.02" r="5.65477" fill="#9DA5B0"/>
<circle cx="368.872" cy="42.5863" r="18.8492" fill="#D2D5D9"/>
<circle cx="368.872" cy="42.5853" r="16.336" fill="#9DA5B0" fill-opacity="0.4"/>
<circle cx="368.872" cy="42.5845" r="13.8228" fill="#9DA5B0" fill-opacity="0.4"/>
<path d="M369.5 41.9604L104.354 254.957L367.615 474.236L636.531 257.47L369.5 41.9604Z" stroke="#0D99FF"/>
</svg>
