<svg width="739" height="499" viewBox="0 0 739 499" fill="none" xmlns="http://www.w3.org/2000/svg">
<circle cx="370.396" cy="135.289" r="116.366" stroke="url(#paint0_linear_629_28009)" strokeWidth="0.648547"/>
<circle cx="370.395" cy="176.409" r="157.485" stroke="url(#paint1_linear_629_28009)" strokeWidth="0.648547"/>
<circle cx="370.396" cy="156.405" r="137.481" stroke="url(#paint2_linear_629_28009)" strokeWidth="0.648547"/>
<path d="M287.601 203.218V276.708C287.601 285.761 294.94 293.1 303.993 293.1H430.584C442.762 293.1 452.634 283.227 452.634 271.049V203.486C452.634 196.425 449.253 189.791 443.539 185.642L381.671 140.722C373.818 135.02 363.16 135.123 355.418 140.975L296.353 185.629C290.841 189.797 287.601 196.308 287.601 203.218Z" fill="url(#paint3_linear_629_28009)" fill-opacity="0.6" stroke="url(#paint4_linear_629_28009)" strokeWidth="0.648547"/>
<rect x="0.00061972" y="0.360675" width="109.929" height="109.929" rx="23.6719" transform="matrix(0.83205 0.5547 -0.830139 0.557556 370.139 229.907)" fill="url(#paint5_linear_629_28009)" stroke="url(#paint6_linear_629_28009)" strokeWidth="0.648547"/>
<rect x="0.00061972" y="0.360675" width="109.929" height="109.929" rx="23.6719" transform="matrix(0.83205 0.5547 -0.830139 0.557556 370.139 217.128)" fill="url(#paint7_linear_629_28009)" stroke="url(#paint8_linear_629_28009)" strokeWidth="0.648547"/>
<rect x="0.00061972" y="0.360675" width="109.929" height="109.929" rx="23.6719" transform="matrix(0.83205 0.5547 -0.830139 0.557556 370.25 182.676)" fill="url(#paint9_linear_629_28009)" fill-opacity="0.4" stroke="url(#paint10_linear_629_28009)" strokeWidth="0.648547"/>
<path d="M325.219 213.081L417.182 272.815" stroke="white" strokeWidth="0.648547"/>
<path d="M321.885 272.535L412.458 211.412" stroke="white" strokeWidth="0.648547"/>
<rect x="0.00061972" y="0.360675" width="109.929" height="109.929" rx="23.6719" transform="matrix(0.83205 0.5547 -0.830139 0.557556 469.714 293.259)" fill="url(#paint11_linear_629_28009)" fill-opacity="0.2" stroke="url(#paint12_linear_629_28009)" strokeWidth="0.648547"/>
<path d="M424.682 323.664L516.645 383.398" stroke="white" strokeWidth="0.648547"/>
<path d="M421.349 383.118L511.923 321.995" stroke="white" strokeWidth="0.648547"/>
<rect x="0.00061972" y="0.360675" width="109.929" height="109.929" rx="23.6719" transform="matrix(0.83205 0.5547 -0.830139 0.557556 269.674 291.594)" fill="url(#paint13_linear_629_28009)" fill-opacity="0.2" stroke="url(#paint14_linear_629_28009)" strokeWidth="0.648547"/>
<path d="M224.643 321.998L316.606 381.732" stroke="white" strokeWidth="0.648547"/>
<path d="M221.309 381.453L311.883 320.329" stroke="white" strokeWidth="0.648547"/>
<rect x="0.00061972" y="0.360675" width="109.929" height="109.929" rx="23.6719" transform="matrix(0.83205 0.5547 -0.830139 0.557556 367.472 357.169)" fill="url(#paint15_linear_629_28009)" fill-opacity="0.2" stroke="url(#paint16_linear_629_28009)" strokeWidth="0.648547"/>
<path d="M322.44 387.574L414.403 447.308" stroke="white" strokeWidth="0.648547"/>
<path d="M319.106 447.029L409.68 385.905" stroke="white" strokeWidth="0.648547"/>
<rect x="0.000277284" y="0.161378" width="49.1862" height="49.1862" rx="10.5916" transform="matrix(0.83205 0.5547 -0.830139 0.557556 370.483 157.738)" fill="url(#paint17_linear_629_28009)" stroke="url(#paint18_linear_629_28009)" strokeWidth="0.290182"/>
<rect x="0.000277284" y="0.161378" width="49.1862" height="49.1862" rx="10.5916" transform="matrix(0.83205 0.5547 -0.830139 0.557556 370.483 152.024)" fill="url(#paint19_linear_629_28009)" stroke="url(#paint20_linear_629_28009)" strokeWidth="0.290182"/>
<rect x="0.000277284" y="0.161378" width="49.1862" height="49.1862" rx="10.5916" transform="matrix(0.83205 0.5547 -0.830139 0.557556 370.483 132.743)" fill="url(#paint21_linear_629_28009)" stroke="url(#paint22_linear_629_28009)" strokeWidth="0.290182"/>
<rect x="0.000277284" y="0.161378" width="49.1862" height="49.1862" rx="10.5916" transform="matrix(0.83205 0.5547 -0.830139 0.557556 370.483 127.029)" fill="url(#paint23_linear_629_28009)" stroke="url(#paint24_linear_629_28009)" strokeWidth="0.290182"/>
<defs>
<linearGradient id="paint0_linear_629_28009" x1="370.396" y1="18.5989" x2="370.396" y2="251.979" gradientUnits="userSpaceOnUse">
<stop stop-color="#12AAFF"/>
<stop offset="1" stop-opacity="0"/>
</linearGradient>
<linearGradient id="paint1_linear_629_28009" x1="370.395" y1="18.5989" x2="370.395" y2="334.218" gradientUnits="userSpaceOnUse">
<stop stop-color="#12AAFF"/>
<stop offset="1" stop-opacity="0"/>
</linearGradient>
<linearGradient id="paint2_linear_629_28009" x1="370.396" y1="18.5989" x2="370.396" y2="294.21" gradientUnits="userSpaceOnUse">
<stop stop-color="#12AAFF"/>
<stop offset="1" stop-opacity="0"/>
</linearGradient>
<linearGradient id="paint3_linear_629_28009" x1="370.118" y1="131.123" x2="370.118" y2="293.1" gradientUnits="userSpaceOnUse">
<stop stop-color="#F7FBFF"/>
<stop offset="1" stop-color="#A3C5F3"/>
</linearGradient>
<linearGradient id="paint4_linear_629_28009" x1="370.118" y1="129.019" x2="370.118" y2="293.1" gradientUnits="userSpaceOnUse">
<stop stop-color="#A7C8E0"/>
<stop offset="1" stop-color="#4C677A" stop-opacity="0"/>
</linearGradient>
<linearGradient id="paint5_linear_629_28009" x1="55.289" y1="0" x2="55.289" y2="110.578" gradientUnits="userSpaceOnUse">
<stop stop-color="#475A72"/>
<stop offset="1" stop-color="#363B40"/>
</linearGradient>
<linearGradient id="paint6_linear_629_28009" x1="55.289" y1="0" x2="55.289" y2="110.578" gradientUnits="userSpaceOnUse">
<stop stop-color="white"/>
<stop offset="1" stop-color="#81CFFB"/>
</linearGradient>
<linearGradient id="paint7_linear_629_28009" x1="55.289" y1="0" x2="55.289" y2="110.578" gradientUnits="userSpaceOnUse">
<stop stop-color="#5A86BE"/>
<stop offset="1" stop-color="#96B9E9"/>
</linearGradient>
<linearGradient id="paint8_linear_629_28009" x1="55.289" y1="0" x2="55.289" y2="110.578" gradientUnits="userSpaceOnUse">
<stop stop-color="white"/>
<stop offset="1" stop-color="#81CFFB"/>
</linearGradient>
<linearGradient id="paint9_linear_629_28009" x1="55.289" y1="0" x2="55.289" y2="110.578" gradientUnits="userSpaceOnUse">
<stop stop-color="#5A86BE"/>
<stop offset="1" stop-color="#96B9E9"/>
</linearGradient>
<linearGradient id="paint10_linear_629_28009" x1="55.289" y1="0" x2="55.289" y2="110.578" gradientUnits="userSpaceOnUse">
<stop stop-color="white"/>
<stop offset="1" stop-color="#81CFFB"/>
</linearGradient>
<linearGradient id="paint11_linear_629_28009" x1="55.289" y1="0" x2="55.289" y2="110.578" gradientUnits="userSpaceOnUse">
<stop stop-color="#5A86BE"/>
<stop offset="1" stop-color="#96B9E9"/>
</linearGradient>
<linearGradient id="paint12_linear_629_28009" x1="55.289" y1="0" x2="55.289" y2="110.578" gradientUnits="userSpaceOnUse">
<stop stop-color="white"/>
<stop offset="1" stop-color="#81CFFB"/>
</linearGradient>
<linearGradient id="paint13_linear_629_28009" x1="55.289" y1="0" x2="55.289" y2="110.578" gradientUnits="userSpaceOnUse">
<stop stop-color="#5A86BE"/>
<stop offset="1" stop-color="#96B9E9"/>
</linearGradient>
<linearGradient id="paint14_linear_629_28009" x1="55.289" y1="0" x2="55.289" y2="110.578" gradientUnits="userSpaceOnUse">
<stop stop-color="white"/>
<stop offset="1" stop-color="#81CFFB"/>
</linearGradient>
<linearGradient id="paint15_linear_629_28009" x1="55.289" y1="0" x2="55.289" y2="110.578" gradientUnits="userSpaceOnUse">
<stop stop-color="#5A86BE"/>
<stop offset="1" stop-color="#96B9E9"/>
</linearGradient>
<linearGradient id="paint16_linear_629_28009" x1="55.289" y1="0" x2="55.289" y2="110.578" gradientUnits="userSpaceOnUse">
<stop stop-color="white"/>
<stop offset="1" stop-color="#81CFFB"/>
</linearGradient>
<linearGradient id="paint17_linear_629_28009" x1="24.7382" y1="0" x2="24.7382" y2="49.4764" gradientUnits="userSpaceOnUse">
<stop stop-color="#475A72"/>
<stop offset="1" stop-color="#363B40"/>
</linearGradient>
<linearGradient id="paint18_linear_629_28009" x1="24.7382" y1="0" x2="24.7382" y2="49.4764" gradientUnits="userSpaceOnUse">
<stop stop-color="white"/>
<stop offset="1" stop-color="#81CFFB"/>
</linearGradient>
<linearGradient id="paint19_linear_629_28009" x1="24.7382" y1="0" x2="24.7382" y2="49.4764" gradientUnits="userSpaceOnUse">
<stop stop-color="#5A86BE"/>
<stop offset="1" stop-color="#96B9E9"/>
</linearGradient>
<linearGradient id="paint20_linear_629_28009" x1="24.7382" y1="0" x2="24.7382" y2="49.4764" gradientUnits="userSpaceOnUse">
<stop stop-color="white"/>
<stop offset="1" stop-color="#81CFFB"/>
</linearGradient>
<linearGradient id="paint21_linear_629_28009" x1="24.7382" y1="0" x2="24.7382" y2="49.4764" gradientUnits="userSpaceOnUse">
<stop stop-color="#475A72"/>
<stop offset="1" stop-color="#363B40"/>
</linearGradient>
<linearGradient id="paint22_linear_629_28009" x1="24.7382" y1="0" x2="24.7382" y2="49.4764" gradientUnits="userSpaceOnUse">
<stop stop-color="white"/>
<stop offset="1" stop-color="#81CFFB"/>
</linearGradient>
<linearGradient id="paint23_linear_629_28009" x1="24.7382" y1="0" x2="24.7382" y2="49.4764" gradientUnits="userSpaceOnUse">
<stop stop-color="#5A86BE"/>
<stop offset="1" stop-color="#96B9E9"/>
</linearGradient>
<linearGradient id="paint24_linear_629_28009" x1="24.7382" y1="0" x2="24.7382" y2="49.4764" gradientUnits="userSpaceOnUse">
<stop stop-color="white"/>
<stop offset="1" stop-color="#81CFFB"/>
</linearGradient>
</defs>
</svg>
