<svg width="739" height="499" viewBox="0 0 739 499" fill="none" xmlns="http://www.w3.org/2000/svg">
<g clip-path="url(#clip0_629_27640)">
<path fill-rule="evenodd" clip-rule="evenodd" d="M385.76 626.586C385.875 626.497 385.995 626.411 386.121 626.326C388.322 624.848 391.566 624.489 394.27 625.253L441.613 593.455C440.603 591.871 440.881 590.005 442.449 588.572L388.633 552.695C385.732 554.127 381.627 553.97 378.998 552.217C378.874 552.134 378.755 552.049 378.641 551.962L332.029 583.268C332.161 583.344 332.289 583.424 332.414 583.507C335.315 585.441 335.32 588.585 332.426 590.529C332.3 590.614 332.171 590.694 332.038 590.772L385.76 626.586ZM385.385 626.901L331.569 591.024C328.668 592.458 324.562 592.3 321.932 590.547C321.807 590.464 321.688 590.378 321.574 590.291L269.143 625.505C269.274 625.582 269.403 625.662 269.528 625.745C272.429 627.679 272.435 630.823 269.54 632.767C269.414 632.851 269.284 632.933 269.151 633.01L322.868 668.822C322.985 668.731 323.107 668.643 323.235 668.557C325.438 667.077 328.686 666.719 331.391 667.485L384.547 631.783C383.537 630.199 383.816 628.333 385.385 626.901ZM384.82 632.166L331.963 667.667C332.597 667.892 333.194 668.182 333.729 668.539C336.63 670.473 336.635 673.617 333.741 675.561C333.613 675.646 333.481 675.729 333.347 675.807L416.245 731.072L415.823 731.356L332.877 676.059C329.976 677.489 325.875 677.33 323.247 675.579C322.712 675.222 322.276 674.824 321.938 674.4L269.068 709.909C269.705 710.134 270.304 710.426 270.84 710.784C273.741 712.718 273.747 715.861 270.852 717.805C270.726 717.89 270.597 717.971 270.464 718.048L353.356 773.31L352.934 773.593L269.995 718.3C267.094 719.734 262.988 719.576 260.359 717.823C259.822 717.465 259.385 717.066 259.046 716.641L173.802 773.894L173.379 773.612L258.773 716.258C257.764 714.674 258.042 712.809 259.61 711.377L205.794 675.5C202.893 676.933 198.788 676.775 196.159 675.022C196.034 674.939 195.914 674.853 195.8 674.766L110.77 731.875L110.347 731.593L195.423 674.452C193.503 672.714 193.498 670.323 195.409 668.577L142.757 633.475C139.856 634.906 135.753 634.748 133.125 632.996C133.002 632.914 132.884 632.829 132.771 632.743L47.7369 689.856L47.314 689.574L132.394 632.43C130.47 630.692 130.463 628.3 132.373 626.553L85.5655 595.348C82.6647 596.78 78.5598 596.623 75.9307 594.87C75.8054 594.787 75.6855 594.701 75.571 594.613L-9.45929 651.723L-9.88222 651.441L75.1948 594.3C73.2753 592.561 73.2699 590.171 75.1811 588.425L22.5291 553.323C19.6285 554.754 15.5263 554.596 12.8986 552.844C12.7751 552.761 12.657 552.677 12.544 552.59L-72.491 609.703L-72.9139 609.422L12.1674 552.277C10.2442 550.539 10.2363 548.149 12.1459 546.401L-40.4963 511.307C-43.3974 512.742 -47.5056 512.585 -50.1362 510.831C-50.263 510.747 -50.3843 510.66 -50.5 510.571L-135.524 567.677L-135.947 567.395L-50.8758 510.258C-52.7929 508.518 -52.7957 506.128 -50.882 504.383L-103.533 469.282C-106.433 470.715 -110.539 470.558 -113.168 468.805C-113.291 468.723 -113.409 468.638 -113.522 468.552L-198.557 525.665L-198.979 525.383L-113.899 468.239C-115.823 466.5 -115.83 464.107 -113.917 462.359L-166.563 427.262C-169.464 428.696 -173.571 428.539 -176.201 426.786C-176.327 426.702 -176.447 426.616 -176.561 426.528L-261.591 483.638L-262.014 483.356L-176.937 426.215C-178.857 424.476 -178.862 422.085 -176.949 420.338L-229.6 385.237C-232.501 386.67 -236.605 386.512 -239.233 384.759C-239.359 384.676 -239.478 384.59 -239.593 384.502L-324.623 441.612L-325.046 441.33L-239.969 384.189C-241.889 382.45 -241.894 380.061 -239.984 378.315L-292.631 343.217C-295.532 344.65 -299.638 344.493 -302.268 342.74C-302.393 342.657 -302.512 342.571 -302.626 342.484L-387.655 399.593L-388.078 399.311L-303.003 342.171C-304.924 340.431 -304.929 338.04 -303.016 336.293L-355.661 301.197C-358.562 302.631 -362.669 302.474 -365.299 300.721C-365.424 300.637 -365.543 300.552 -365.657 300.464L-450.687 357.573L-451.11 357.291L-366.034 300.151C-367.955 298.411 -367.96 296.02 -366.046 294.273L-451.317 237.426L-450.895 237.143L-365.671 293.959C-365.556 293.87 -365.436 293.783 -365.311 293.699C-362.686 291.936 -358.578 291.765 -355.672 293.191L-303.141 257.91C-305.065 256.171 -305.073 253.78 -303.162 252.033L-388.429 195.188L-388.007 194.905L-302.788 251.718C-302.671 251.628 -302.55 251.54 -302.422 251.454C-299.796 249.69 -295.684 249.52 -292.778 250.949L-240.255 215.673C-242.18 213.934 -242.187 211.542 -240.275 209.794L-325.54 152.951L-325.118 152.667L-239.901 209.479C-239.785 209.389 -239.664 209.302 -239.537 209.217C-236.91 207.452 -232.798 207.283 -229.891 208.712L-183.193 177.347C-185.115 175.607 -185.121 173.215 -183.207 171.468L-268.478 114.621L-268.056 114.337L-182.832 171.153C-182.717 171.065 -182.597 170.978 -182.471 170.894C-179.846 169.13 -175.736 168.96 -172.83 170.387L-120.3 135.106C-122.226 133.367 -122.234 130.975 -120.323 129.227L-205.589 72.3831L-205.167 72.0997L-119.948 128.912C-119.832 128.822 -119.71 128.734 -119.583 128.649C-116.956 126.884 -112.843 126.715 -109.936 128.145L-57.4188 92.872C-59.3443 91.1303 -59.3475 88.7341 -57.4263 86.9864L-142.698 30.1384L-142.276 29.855L-57.0507 86.6721C-56.9383 86.5855 -56.8207 86.5008 -56.6979 86.4183C-54.0722 84.6548 -49.9622 84.4845 -47.056 85.9119L5.46915 50.6338C3.54591 48.8936 3.54134 46.5002 5.45772 44.753L-79.8101 -12.0922L-79.3882 -12.3756L5.83286 44.4385C5.94678 44.3504 6.0661 44.2645 6.1908 44.1807C8.81619 42.4174 12.9256 42.2469 15.8318 43.6738L68.3631 8.39162C66.4395 6.65322 66.4318 4.26205 68.3422 2.51461L-16.9245 -54.3298L-16.5026 -54.6132L68.7166 2.19962C68.8328 2.10957 68.9546 2.02165 69.0821 1.93605C71.7086 0.17201 75.8204 0.00208398 78.7268 1.43096L131.251 -33.8464C129.328 -35.5848 129.32 -37.9757 131.23 -39.723L45.9637 -96.5674L46.3857 -96.8508L131.605 -40.038C131.721 -40.128 131.843 -40.216 131.97 -40.3016C134.597 -42.0655 138.708 -42.2355 141.614 -40.807L194.133 -76.0805C192.21 -77.8216 192.207 -80.216 194.126 -81.9629L108.852 -138.812L109.274 -139.095L194.502 -82.2772C194.614 -82.3643 194.733 -82.4493 194.856 -82.5322C197.481 -84.295 201.589 -84.4659 204.495 -83.0401L257.025 -118.322C255.1 -120.062 255.094 -122.456 257.01 -124.204L171.741 -181.05L172.163 -181.333L257.385 -124.518C257.499 -124.606 257.619 -124.693 257.744 -124.777C260.37 -126.541 264.482 -126.711 267.388 -125.282L351.294 -181.637L351.717 -181.355L267.858 -125.031C267.987 -124.956 268.114 -124.877 268.238 -124.795C271.139 -122.861 271.144 -119.717 268.25 -117.773C268.124 -117.689 267.996 -117.609 267.864 -117.532L320.42 -82.4946C320.534 -82.5819 320.652 -82.6673 320.776 -82.7504C323.4 -84.5132 327.508 -84.6841 330.414 -83.2587L414.326 -139.618L414.749 -139.336L330.884 -83.0081C331.015 -82.9318 331.144 -82.852 331.269 -82.7684C334.17 -80.8344 334.176 -77.6907 331.281 -75.7468C331.157 -75.6636 331.03 -75.584 330.9 -75.508L383.453 -40.473C383.567 -40.5611 383.686 -40.6472 383.811 -40.7311C386.435 -42.4935 390.542 -42.6647 393.447 -41.2402L477.358 -97.5982L477.781 -97.3163L393.917 -40.9897C394.049 -40.9132 394.179 -40.833 394.304 -40.7491C397.205 -38.8151 397.211 -35.6714 394.316 -33.7274C394.192 -33.6436 394.063 -33.5633 393.932 -33.4867L446.483 1.5473C446.598 1.45886 446.717 1.37245 446.843 1.28831C449.469 -0.47531 453.579 -0.645573 456.485 0.782162L540.39 -55.5718L540.813 -55.2899L456.954 1.03291C457.085 1.10848 457.212 1.1876 457.336 1.27027C460.237 3.20428 460.242 6.34798 457.348 8.29194C457.223 8.37609 457.094 8.4566 456.962 8.5335L509.519 43.571C509.632 43.4835 509.751 43.398 509.875 43.3147C512.501 41.5508 516.612 41.3808 519.519 42.8093L603.425 -13.5454L603.848 -13.2635L519.988 43.0601C520.118 43.1355 520.245 43.2143 520.368 43.2967C523.269 45.2307 523.275 48.3744 520.38 50.3183C520.256 50.4016 520.129 50.4814 519.999 50.5576L572.549 85.5913C572.663 85.5035 572.782 85.4177 572.907 85.3341C575.531 83.5713 579.639 83.4004 582.545 84.8258L666.457 28.4669L666.88 28.7489L583.014 85.0764C583.146 85.1526 583.275 85.2325 583.4 85.3161C586.301 87.2501 586.306 90.3938 583.412 92.3377C583.287 92.4213 583.16 92.5013 583.029 92.5778L635.586 127.616C635.699 127.529 635.818 127.444 635.941 127.36C638.566 125.598 642.673 125.427 645.579 126.852L729.49 70.4933L729.913 70.7753L646.048 127.102C646.18 127.179 646.309 127.259 646.435 127.342C649.336 129.276 649.341 132.42 646.447 134.364C646.323 134.447 646.196 134.527 646.066 134.603L698.612 169.633C698.727 169.544 698.847 169.457 698.973 169.373C701.599 167.609 705.71 167.439 708.617 168.867L792.522 112.513L792.945 112.795L709.086 169.118C709.216 169.193 709.343 169.272 709.467 169.355C712.368 171.289 712.373 174.432 709.479 176.376C709.353 176.461 709.223 176.542 709.091 176.619L755.809 207.765C755.924 207.676 756.044 207.59 756.169 207.506C758.795 205.742 762.906 205.572 765.813 207L849.718 150.646L850.141 150.927L766.282 207.251C766.412 207.326 766.539 207.405 766.662 207.488C769.563 209.422 769.569 212.565 766.675 214.509C766.549 214.593 766.42 214.674 766.289 214.751L818.846 249.789C818.959 249.701 819.078 249.616 819.203 249.532C821.827 247.769 825.934 247.598 828.84 249.023L912.752 192.665L913.174 192.947L829.31 249.274C829.442 249.35 829.57 249.43 829.696 249.514C832.597 251.448 832.602 254.592 829.708 256.536C829.584 256.619 829.456 256.699 829.325 256.775L883.047 292.59C883.16 292.502 883.279 292.416 883.403 292.333C885.604 290.855 888.847 290.496 891.55 291.259L975.783 234.684L976.206 234.966L892.123 291.44C892.761 291.665 893.36 291.957 893.897 292.315C896.798 294.249 896.803 297.393 893.909 299.337C893.785 299.42 893.657 299.5 893.526 299.576L976.414 354.834L975.992 355.118L893.058 299.828C890.157 301.265 886.047 301.109 883.415 299.355C882.878 298.996 882.44 298.597 882.102 298.171L829.242 333.673C829.877 333.898 830.473 334.189 831.008 334.545C833.909 336.479 833.915 339.623 831.02 341.567C830.894 341.652 830.765 341.733 830.632 341.81L913.526 397.072L913.104 397.355L830.163 342.062C827.262 343.496 823.156 343.338 820.527 341.585C819.992 341.228 819.555 340.831 819.217 340.407L766.355 375.911C766.991 376.135 767.587 376.426 768.123 376.783C771.024 378.717 771.029 381.861 768.135 383.805C768.006 383.891 767.875 383.973 767.74 384.052L850.637 439.317L850.215 439.6L767.27 384.303C764.37 385.733 760.268 385.574 757.641 383.823C757.106 383.466 756.669 383.068 756.331 382.644L703.461 418.153C704.098 418.378 704.697 418.67 705.234 419.028C708.135 420.962 708.141 424.105 705.246 426.049C705.12 426.134 704.99 426.216 704.857 426.293L787.749 481.554L787.327 481.838L704.388 426.545C701.487 427.978 697.382 427.82 694.753 426.067C694.216 425.709 693.778 425.31 693.439 424.884L640.572 460.392C641.208 460.617 641.806 460.908 642.342 461.265C645.243 463.199 645.248 466.343 642.354 468.287C642.229 468.371 642.1 468.452 641.968 468.529L724.863 523.792L724.441 524.075L641.499 468.781C638.598 470.216 634.491 470.059 631.86 468.305C631.324 467.948 630.887 467.549 630.549 467.124L577.685 502.63C578.32 502.855 578.918 503.146 579.453 503.503C582.354 505.437 582.36 508.581 579.466 510.525C579.342 510.608 579.215 510.687 579.085 510.763L661.975 566.023L661.553 566.306L578.617 511.015C575.716 512.453 571.604 512.297 568.972 510.543C568.436 510.185 567.999 509.787 567.661 509.362L514.798 544.867C515.434 545.092 516.032 545.383 516.568 545.741C519.469 547.675 519.474 550.818 516.58 552.762C516.454 552.847 516.324 552.928 516.192 553.006L599.084 608.267L598.662 608.551L515.722 553.257C512.822 554.691 508.716 554.533 506.087 552.78C505.55 552.423 505.113 552.024 504.775 551.599L451.91 587.105C452.546 587.33 453.144 587.621 453.68 587.978C456.581 589.912 456.586 593.056 453.692 595C453.565 595.085 453.436 595.166 453.303 595.243L536.195 650.505L535.773 650.788L452.834 595.495C449.933 596.928 445.828 596.771 443.198 595.018C442.662 594.661 442.225 594.262 441.887 593.837L394.843 625.434C395.479 625.659 396.078 625.951 396.614 626.308C399.515 628.242 399.521 631.386 396.626 633.33C396.5 633.414 396.371 633.495 396.239 633.572L479.133 688.835L478.711 689.118L395.77 633.824C392.869 635.258 388.763 635.101 386.133 633.348C385.596 632.99 385.159 632.591 384.82 632.166ZM451.338 586.924L504.501 551.217C503.491 549.633 503.769 547.767 505.338 546.334L451.522 510.457C448.621 511.89 444.516 511.732 441.887 509.979C441.763 509.896 441.643 509.811 441.529 509.723L389.097 544.939C389.227 545.015 389.355 545.095 389.479 545.177C392.38 547.111 392.386 550.255 389.491 552.199C389.365 552.284 389.235 552.365 389.102 552.443L442.824 588.257C442.939 588.168 443.06 588.081 443.186 587.996C445.388 586.517 448.634 586.159 451.338 586.924ZM388.627 544.689L441.153 509.41C439.232 507.671 439.226 505.281 441.138 503.534L388.485 468.433C385.585 469.863 381.482 469.705 378.854 467.953C378.731 467.871 378.614 467.787 378.501 467.701L326.064 502.92C326.195 502.996 326.323 503.075 326.447 503.158C329.348 505.092 329.354 508.236 326.459 510.18C326.333 510.264 326.204 510.345 326.072 510.422L378.623 545.457C378.739 545.368 378.859 545.28 378.986 545.195C381.611 543.432 385.721 543.262 388.627 544.689ZM378.248 545.772L325.603 510.674C322.702 512.108 318.595 511.951 315.966 510.198C315.841 510.115 315.722 510.029 315.608 509.942L268.996 541.249C269.127 541.325 269.255 541.405 269.38 541.488C272.281 543.422 272.287 546.566 269.392 548.51C269.267 548.594 269.139 548.674 269.007 548.751L321.559 583.786C321.674 583.697 321.794 583.61 321.92 583.525C324.545 581.762 328.654 581.592 331.56 583.018L378.264 551.649C376.342 549.91 376.336 547.519 378.248 545.772ZM321.184 584.1L268.538 549.003C265.637 550.438 261.529 550.281 258.899 548.528C258.774 548.444 258.654 548.359 258.54 548.271L206.109 583.486C206.241 583.562 206.37 583.642 206.495 583.726C209.396 585.66 209.401 588.803 206.507 590.747C206.381 590.832 206.252 590.912 206.12 590.989L258.672 626.024C258.788 625.935 258.908 625.848 259.035 625.763C261.659 624 265.767 623.829 268.673 625.255L321.197 589.977C319.276 588.238 319.271 585.847 321.184 584.1ZM258.298 626.339L205.651 591.241C202.75 592.676 198.643 592.519 196.013 590.765C195.888 590.682 195.768 590.596 195.654 590.508L143.227 625.72C143.357 625.795 143.483 625.874 143.606 625.956C146.507 627.89 146.513 631.034 143.619 632.978C143.491 633.063 143.36 633.145 143.226 633.223L195.784 668.262C195.899 668.173 196.02 668.086 196.146 668.001C198.771 666.238 202.879 666.067 205.786 667.493L258.311 632.214C256.391 630.476 256.386 628.085 258.298 626.339ZM258.687 632.528L206.255 667.743C206.387 667.82 206.515 667.899 206.64 667.983C209.541 669.917 209.546 673.06 206.652 675.004C206.526 675.089 206.396 675.17 206.263 675.248L259.985 711.063C260.1 710.973 260.221 710.886 260.347 710.802C262.548 709.323 265.792 708.964 268.496 709.728L321.664 674.018C320.652 672.435 320.929 670.569 322.494 669.137L268.682 633.262C265.781 634.695 261.676 634.537 259.047 632.785C258.922 632.701 258.802 632.616 258.687 632.528ZM142.758 625.469L195.278 590.195C193.357 588.456 193.353 586.064 195.266 584.318L148.454 553.11C145.553 554.543 141.448 554.385 138.819 552.632C138.693 552.549 138.573 552.463 138.459 552.375L86.0264 587.591C86.1581 587.667 86.2868 587.747 86.4121 587.83C89.3131 589.764 89.3185 592.908 86.4241 594.852C86.2977 594.937 86.1678 595.018 86.0347 595.096L132.748 626.238C132.864 626.148 132.986 626.06 133.113 625.974C135.74 624.21 139.852 624.04 142.758 625.469ZM85.5567 587.34L138.083 552.061C136.163 550.323 136.158 547.933 138.07 546.187L85.4236 511.09C82.5227 512.524 78.4165 512.366 75.7868 510.613C75.6614 510.529 75.5414 510.444 75.4268 510.356L23.0001 545.568C23.1298 545.643 23.2565 545.722 23.3799 545.804C26.2809 547.738 26.2863 550.882 23.392 552.826C23.2642 552.911 23.1331 552.993 22.9986 553.072L75.5559 588.11C75.6713 588.021 75.7922 587.933 75.9187 587.848C78.5432 586.086 82.6507 585.915 85.5567 587.34ZM22.5308 545.317L75.0507 510.042C73.1309 508.303 73.1261 505.913 75.0386 504.166L22.3861 469.065C19.4853 470.497 15.3809 470.339 12.7521 468.587C12.6269 468.503 12.5071 468.418 12.3927 468.33L-40.0452 503.549C-39.9119 503.626 -39.7816 503.707 -39.6548 503.792C-36.7538 505.726 -36.7484 508.869 -39.6428 510.813C-39.7677 510.897 -39.8961 510.978 -40.0275 511.054L12.5203 546.086C12.6368 545.996 12.7588 545.908 12.8865 545.822C15.5129 544.058 19.6245 543.888 22.5308 545.317ZM-40.5152 503.299L12.0165 468.016C10.0968 466.278 10.0913 463.888 12.0019 462.142L-40.6441 427.045C-43.5449 428.478 -47.6503 428.32 -50.2796 426.567C-50.4031 426.485 -50.5213 426.4 -50.6343 426.314L-103.066 461.529C-102.936 461.604 -102.81 461.683 -102.687 461.765C-99.7855 463.699 -99.7801 466.843 -102.674 468.787C-102.801 468.872 -102.93 468.953 -103.063 469.03L-50.5069 504.068C-50.3928 503.98 -50.2732 503.894 -50.1482 503.81C-47.5253 502.048 -43.421 501.876 -40.5152 503.299ZM-103.535 461.278L-51.0109 426.001C-52.9352 424.262 -52.9419 421.869 -51.0287 420.122L-103.681 385.02C-106.582 386.451 -110.685 386.293 -113.313 384.541C-113.437 384.458 -113.555 384.374 -113.668 384.287L-166.106 419.506C-165.974 419.582 -165.845 419.662 -165.72 419.746C-162.819 421.68 -162.814 424.824 -165.708 426.768C-165.833 426.852 -165.962 426.933 -166.094 427.01L-113.542 462.044C-113.427 461.955 -113.306 461.868 -113.18 461.783C-110.553 460.019 -106.441 459.849 -103.535 461.278ZM-166.575 419.256L-114.045 383.974C-115.968 382.236 -115.975 379.845 -114.065 378.098L-166.711 343C-169.612 344.432 -173.716 344.274 -176.345 342.522C-176.471 342.438 -176.591 342.352 -176.705 342.264L-229.138 377.48C-229.006 377.556 -228.877 377.636 -228.752 377.72C-225.851 379.654 -225.846 382.797 -228.74 384.741C-228.867 384.826 -228.997 384.908 -229.131 384.986L-176.574 420.024C-176.459 419.935 -176.339 419.848 -176.213 419.764C-173.589 418.001 -169.481 417.83 -166.575 419.256ZM-229.607 377.229L-177.081 341.951C-179 340.212 -179.006 337.823 -177.096 336.077L-229.748 300.975C-232.649 302.405 -236.751 302.247 -239.378 300.495C-239.502 300.413 -239.62 300.328 -239.733 300.242L-292.171 335.461C-292.04 335.537 -291.912 335.617 -291.787 335.7C-288.886 337.634 -288.88 340.778 -291.775 342.722C-291.901 342.806 -292.03 342.887 -292.162 342.964L-239.609 378C-239.494 377.91 -239.372 377.823 -239.245 377.738C-236.621 375.975 -232.513 375.804 -229.607 377.229ZM-292.64 335.211L-240.109 299.929C-242.032 298.191 -242.04 295.8 -240.131 294.053L-292.779 258.955C-295.679 260.386 -299.782 260.228 -302.41 258.476C-302.534 258.394 -302.652 258.309 -302.765 258.223L-355.202 293.442C-355.071 293.518 -354.942 293.597 -354.817 293.681C-351.916 295.615 -351.911 298.759 -354.805 300.702C-354.931 300.787 -355.06 300.868 -355.192 300.945L-302.641 335.978C-302.526 335.89 -302.406 335.803 -302.28 335.718C-299.655 333.955 -295.546 333.784 -292.64 335.211ZM-292.309 258.703L-239.757 293.738C-239.64 293.648 -239.518 293.559 -239.39 293.474C-236.764 291.71 -232.652 291.54 -229.746 292.968L-177.229 257.695C-179.15 255.956 -179.155 253.564 -177.241 251.817L-229.891 216.717C-232.792 218.149 -236.896 217.991 -239.525 216.238C-239.648 216.156 -239.766 216.072 -239.878 215.986L-292.309 251.2C-292.179 251.275 -292.052 251.354 -291.929 251.436C-289.028 253.37 -289.023 256.514 -291.917 258.458C-292.044 258.543 -292.175 258.625 -292.309 258.703ZM-229.422 208.963C-229.293 209.038 -229.167 209.116 -229.043 209.199C-226.142 211.133 -226.137 214.276 -229.031 216.22C-229.158 216.305 -229.289 216.387 -229.422 216.465L-176.866 251.502C-176.751 251.414 -176.631 251.327 -176.506 251.243C-173.881 249.48 -169.772 249.309 -166.866 250.736L-120.161 219.366C-122.083 217.627 -122.089 215.235 -120.176 213.489L-172.822 178.392C-175.723 179.826 -179.829 179.669 -182.459 177.915C-182.584 177.832 -182.703 177.747 -182.816 177.66L-229.422 208.963ZM-172.353 178.139L-119.801 213.174C-119.686 213.085 -119.566 212.998 -119.44 212.913C-116.814 211.15 -112.704 210.979 -109.798 212.406L-57.2729 177.128C-59.1946 175.389 -59.2002 172.998 -57.2875 171.251L-109.939 136.15C-112.84 137.581 -116.943 137.423 -119.571 135.671C-119.694 135.589 -119.811 135.505 -119.924 135.419L-172.36 170.638C-172.23 170.713 -172.102 170.793 -171.978 170.876C-169.077 172.81 -169.071 175.953 -171.966 177.897C-172.091 177.982 -172.221 178.062 -172.353 178.139ZM-109.47 135.898L-56.9127 170.936C-56.7976 170.847 -56.677 170.76 -56.5509 170.675C-53.9257 168.912 -49.8165 168.742 -46.9104 170.168L5.61307 134.891C3.68823 133.15 3.68463 130.755 5.60451 129.007L-47.0386 93.9115C-49.9401 95.3508 -54.053 95.1952 -56.6858 93.44C-56.81 93.3572 -56.9288 93.2722 -57.0424 93.1852L-109.467 128.396C-109.338 128.471 -109.212 128.549 -109.09 128.631C-106.189 130.565 -106.183 133.709 -109.078 135.653C-109.205 135.738 -109.336 135.82 -109.47 135.898ZM-46.5704 93.659L5.97998 128.693C6.0928 128.606 6.21089 128.521 6.33424 128.438C8.95982 126.674 13.0697 126.504 15.9759 127.931L68.5011 92.653C66.5785 90.9131 66.5735 88.5206 68.4885 86.7736L15.8437 51.677C12.9426 53.113 8.83374 52.9563 6.20286 51.2024C6.07842 51.1194 5.95932 51.0342 5.84553 50.947L-46.5866 86.1626C-46.4561 86.2383 -46.3287 86.3175 -46.2045 86.4003C-43.3035 88.3343 -43.2981 91.478 -46.1924 93.422C-46.3152 93.5045 -46.4413 93.5835 -46.5704 93.659ZM16.3124 51.4248L68.8636 86.4589C68.9779 86.3705 69.0977 86.2842 69.2229 86.2001C71.8482 84.4368 75.9575 84.2663 78.8637 85.6931L131.39 50.414C129.47 48.6749 129.465 46.2843 131.377 44.538L78.7257 9.43698C75.8251 10.868 71.7222 10.7098 69.0941 8.95773C68.9708 8.87549 68.8526 8.79106 68.7397 8.70461L16.3012 43.9245C16.432 44.0004 16.5597 44.0797 16.6842 44.1627C19.5852 46.0967 19.5906 49.2404 16.6963 51.1844C16.5716 51.2681 16.4435 51.3483 16.3124 51.4248ZM79.195 9.18522L131.752 44.2232C131.867 44.1341 131.988 44.0472 132.114 43.9625C134.738 42.1996 138.846 42.0287 141.752 43.4544L194.278 8.17575C192.359 6.43679 192.354 4.04664 194.266 2.3005L141.614 -32.8006C138.713 -31.3696 134.61 -31.5279 131.982 -33.2799C131.859 -33.3623 131.741 -33.4468 131.627 -33.5334L79.1959 1.68182C79.3255 1.75704 79.4521 1.83578 79.5755 1.91802C82.4765 3.85203 82.4819 6.99575 79.5876 8.93969C79.4601 9.02529 79.3292 9.10712 79.195 9.18522ZM142.083 -33.0524L194.64 1.98571C194.756 1.89661 194.876 1.80958 195.002 1.72484C197.627 -0.0378121 201.734 -0.208842 204.64 1.21635L257.164 -34.0611C255.242 -35.8019 255.239 -38.1957 257.157 -39.9425L204.513 -75.0381C201.612 -73.5997 197.5 -73.7556 194.868 -75.5105C194.743 -75.5939 194.623 -75.6795 194.509 -75.7672L142.084 -40.5561C142.213 -40.4808 142.34 -40.402 142.464 -40.3196C145.365 -38.3856 145.37 -35.2419 142.476 -33.2979C142.348 -33.2123 142.217 -33.1305 142.083 -33.0524ZM204.982 -75.2905L257.532 -40.2569C257.645 -40.3443 257.764 -40.4296 257.888 -40.5128C260.512 -42.2757 264.62 -42.4465 267.526 -41.0207L320.052 -76.2992C318.13 -78.0399 318.127 -80.4334 320.045 -82.1802L267.396 -117.28C264.494 -115.845 260.387 -116.002 257.756 -117.755C257.633 -117.837 257.514 -117.922 257.401 -118.008L204.964 -82.7895C205.096 -82.7133 205.224 -82.6336 205.349 -82.5502C208.25 -80.6162 208.256 -77.4725 205.361 -75.5285C205.238 -75.4457 205.111 -75.3663 204.982 -75.2905ZM320.428 -75.9859L267.996 -40.7702C268.127 -40.694 268.256 -40.6142 268.381 -40.5308C271.282 -38.5968 271.287 -35.4531 268.393 -33.5091C268.269 -33.426 268.142 -33.3464 268.012 -33.2703L320.564 1.76446C320.678 1.6764 320.798 1.59037 320.922 1.50657C323.547 -0.256004 327.654 -0.427101 330.56 0.997885L383.086 -34.281C381.166 -36.0209 381.163 -38.4123 383.078 -40.1584L330.432 -75.2556C327.53 -73.818 323.42 -73.9742 320.788 -75.7287C320.663 -75.8123 320.543 -75.898 320.428 -75.9859ZM383.462 -33.9676L331.029 1.24838C331.161 1.3248 331.29 1.40484 331.416 1.48854C334.317 3.42254 334.322 6.56625 331.428 8.51021C331.303 8.59401 331.175 8.67421 331.044 8.7508L383.595 43.7849C383.709 43.6965 383.829 43.6101 383.954 43.5259C386.58 41.7622 390.691 41.592 393.598 43.0201L446.122 7.74242C444.198 6.00252 444.193 3.60932 446.108 1.86195L393.463 -33.2345C390.562 -31.7988 386.454 -31.9556 383.823 -33.7094C383.697 -33.7933 383.577 -33.8794 383.462 -33.9676ZM446.499 8.05551L394.067 43.2709C394.197 43.3463 394.324 43.4253 394.448 43.5079C397.349 45.4419 397.354 48.5856 394.46 50.5296C394.335 50.6137 394.206 50.6942 394.074 50.7711L446.63 85.8085C446.744 85.7211 446.862 85.6356 446.986 85.5524C449.613 83.7882 453.725 83.6184 456.631 85.0474L509.155 49.7698C507.229 48.0289 507.225 45.6335 509.143 43.8855L456.494 8.78561C453.593 10.2205 449.485 10.0635 446.855 8.30998C446.731 8.2273 446.612 8.14242 446.499 8.05551ZM509.532 50.0829L457.1 85.2982C457.23 85.3734 457.356 85.4521 457.48 85.5343C460.381 87.4683 460.386 90.612 457.492 92.556C457.368 92.6392 457.24 92.7189 457.11 92.7951L509.661 127.829C509.775 127.741 509.894 127.655 510.018 127.572C512.643 125.809 516.751 125.638 519.657 127.064L572.183 91.7853C570.261 90.045 570.258 87.6524 572.174 85.9059L519.53 50.8099C516.629 52.2471 512.518 52.0908 509.887 50.3364C509.763 50.254 509.645 50.1694 509.532 50.0829ZM572.559 92.0986L520.127 127.314C520.258 127.391 520.387 127.47 520.512 127.554C523.413 129.488 523.418 132.631 520.524 134.575C520.399 134.659 520.271 134.739 520.141 134.815L572.693 169.85C572.808 169.762 572.928 169.675 573.053 169.591C575.679 167.827 579.791 167.657 582.697 169.086L635.217 133.811C633.296 132.07 633.293 129.677 635.211 127.93L582.56 92.83C579.659 94.2664 575.55 94.1098 572.919 92.3558C572.793 92.2722 572.673 92.1865 572.559 92.0986ZM635.593 134.125L583.166 169.337C583.296 169.412 583.423 169.491 583.546 169.573C586.447 171.507 586.453 174.651 583.558 176.595C583.433 176.679 583.304 176.76 583.172 176.837L635.729 211.874C635.842 211.786 635.961 211.701 636.085 211.617C638.71 209.855 642.817 209.684 645.723 211.109L698.253 175.827C696.33 174.088 696.323 171.695 698.237 169.948L645.598 134.855C642.696 136.293 638.585 136.137 635.953 134.382C635.828 134.298 635.708 134.213 635.593 134.125ZM698.63 176.14L646.193 211.36C646.324 211.436 646.453 211.516 646.579 211.599C649.48 213.533 649.485 216.677 646.591 218.621C646.466 218.704 646.339 218.784 646.208 218.861L692.926 250.006C693.039 249.918 693.157 249.833 693.281 249.75C695.905 247.988 700.013 247.817 702.919 249.242L755.449 213.96C753.525 212.22 753.519 209.827 755.434 208.079L708.622 176.871C705.721 178.305 701.615 178.147 698.985 176.394C698.862 176.312 698.743 176.227 698.63 176.14ZM755.826 214.273L703.389 249.493C703.52 249.569 703.649 249.649 703.774 249.732C706.675 251.666 706.681 254.81 703.786 256.754C703.663 256.837 703.536 256.916 703.406 256.992L755.957 292.027C756.071 291.939 756.19 291.853 756.314 291.77C758.939 290.007 763.046 289.836 765.952 291.261L818.478 255.983C816.557 254.242 816.554 251.85 818.47 250.103L765.82 215.003C762.919 216.438 758.811 216.281 756.181 214.527C756.057 214.445 755.939 214.36 755.826 214.273ZM818.854 256.296L766.422 291.512C766.554 291.588 766.682 291.668 766.808 291.752C769.709 293.686 769.714 296.829 766.82 298.773C766.695 298.857 766.568 298.937 766.437 299.013L820.153 334.824C820.268 334.735 820.389 334.648 820.515 334.563C822.718 333.084 825.965 332.726 828.67 333.492L881.828 297.788C880.819 296.203 881.1 294.336 882.671 292.904L828.857 257.028C825.955 258.464 821.846 258.308 819.215 256.554C819.089 256.47 818.969 256.384 818.854 256.296ZM819.779 335.139L765.969 299.265C763.067 300.702 758.958 300.546 756.326 298.791C756.201 298.708 756.081 298.622 755.967 298.534L703.536 333.749C703.668 333.825 703.797 333.906 703.922 333.989C706.823 335.923 706.829 339.067 703.934 341.011C703.808 341.096 703.677 341.177 703.544 341.255L757.262 377.066C757.378 376.976 757.501 376.887 757.629 376.801C759.832 375.322 763.079 374.964 765.783 375.729L818.943 340.024C817.931 338.439 818.209 336.572 819.779 335.139ZM756.887 377.382L703.075 341.507C700.174 342.939 696.07 342.782 693.441 341.029C693.315 340.945 693.195 340.859 693.08 340.771L640.648 375.987C640.78 376.063 640.909 376.143 641.034 376.227C643.935 378.161 643.94 381.305 641.046 383.249C640.919 383.334 640.789 383.415 640.656 383.493L694.378 419.307C694.494 419.218 694.614 419.131 694.741 419.046C696.942 417.568 700.185 417.209 702.888 417.972L756.057 382.261C755.046 380.678 755.323 378.814 756.887 377.382ZM694.003 419.622L640.187 383.744C637.286 385.177 633.181 385.019 630.553 383.267C630.427 383.183 630.307 383.097 630.193 383.009L577.758 418.226C577.889 418.302 578.017 418.382 578.141 418.464C581.042 420.398 581.048 423.542 578.153 425.486C578.028 425.57 577.899 425.651 577.767 425.728L631.489 461.542C631.603 461.454 631.723 461.368 631.848 461.283C634.05 459.805 637.296 459.446 640 460.21L693.166 424.502C692.158 422.918 692.436 421.054 694.003 419.622ZM631.114 461.857L577.298 425.98C574.397 427.415 570.29 427.258 567.66 425.504C567.536 425.421 567.416 425.336 567.303 425.249L514.865 460.468C514.997 460.545 515.127 460.625 515.253 460.709C518.154 462.643 518.159 465.787 515.265 467.731C515.143 467.813 515.018 467.891 514.89 467.966L568.605 503.776C568.718 503.689 568.837 503.604 568.96 503.521C571.162 502.042 574.408 501.684 577.112 502.448L630.275 466.742C629.264 465.157 629.543 463.29 631.114 461.857ZM568.23 504.091L514.422 468.219C511.52 469.66 507.405 469.505 504.771 467.749C504.645 467.665 504.525 467.579 504.41 467.49L451.985 502.701C452.116 502.777 452.244 502.857 452.369 502.94C455.27 504.874 455.275 508.017 452.381 509.961C452.254 510.046 452.124 510.128 451.991 510.205L505.713 546.02C505.828 545.93 505.948 545.843 506.075 545.759C508.276 544.28 511.521 543.921 514.226 544.686L567.387 508.98C566.375 507.393 566.655 505.524 568.23 504.091ZM451.515 502.45L504.034 467.177C502.112 465.435 502.111 463.039 504.033 461.293L451.386 426.194C448.484 427.633 444.372 427.477 441.74 425.722C441.615 425.639 441.496 425.554 441.382 425.467L388.957 460.678C389.087 460.753 389.213 460.831 389.336 460.913C392.237 462.847 392.242 465.991 389.348 467.935C389.22 468.021 389.089 468.103 388.955 468.181L441.512 503.219C441.628 503.13 441.749 503.043 441.875 502.958C444.5 501.195 448.609 501.024 451.515 502.45ZM388.488 460.427L441.006 425.154C439.081 423.412 439.078 421.017 440.998 419.269L394.188 388.062C391.286 389.5 387.175 389.344 384.543 387.59C384.419 387.507 384.3 387.421 384.186 387.334L331.755 422.549C331.887 422.625 332.015 422.704 332.14 422.788C335.041 424.722 335.046 427.865 332.152 429.809C332.025 429.894 331.895 429.975 331.762 430.053L378.476 461.195C378.593 461.105 378.715 461.017 378.842 460.931C381.469 459.167 385.582 458.997 388.488 460.427ZM378.102 461.51L331.293 430.305C328.393 431.738 324.287 431.58 321.658 429.827C321.533 429.744 321.414 429.659 321.3 429.571L268.868 464.787C268.999 464.863 269.126 464.942 269.251 465.025C272.152 466.959 272.157 470.103 269.263 472.047C269.137 472.132 269.007 472.213 268.874 472.29L315.593 503.436C315.708 503.347 315.828 503.261 315.954 503.176C318.579 501.413 322.688 501.242 325.594 502.669L378.124 467.388C376.2 465.649 376.192 463.258 378.102 461.51ZM315.218 503.751L268.405 472.542C265.504 473.975 261.399 473.818 258.77 472.065C258.645 471.982 258.526 471.897 258.412 471.809L211.8 503.116C211.932 503.192 212.061 503.272 212.186 503.355C215.087 505.289 215.092 508.433 212.198 510.377C212.072 510.461 211.943 510.542 211.81 510.62L258.528 541.765C258.642 541.676 258.762 541.59 258.887 541.506C261.512 539.743 265.62 539.572 268.526 540.998L315.232 509.629C313.31 507.89 313.304 505.498 315.218 503.751ZM258.153 542.079L211.341 510.872C208.44 512.305 204.334 512.148 201.705 510.395C201.579 510.311 201.459 510.226 201.345 510.138L148.914 545.353C149.046 545.429 149.175 545.509 149.3 545.593C152.201 547.527 152.207 550.67 149.312 552.614C149.186 552.699 149.056 552.781 148.923 552.858L195.641 584.003C195.756 583.915 195.876 583.828 196.001 583.744C198.626 581.981 202.734 581.81 205.64 583.235L258.164 547.958C256.242 546.218 256.238 543.826 258.153 542.079ZM148.444 545.102L200.969 509.824C199.049 508.085 199.044 505.695 200.956 503.948L148.311 468.851C145.41 470.286 141.303 470.129 138.672 468.376C138.547 468.292 138.427 468.206 138.313 468.119L85.8821 503.333C86.0139 503.41 86.1427 503.49 86.2681 503.573C89.1691 505.507 89.1745 508.651 86.2802 510.595C86.1543 510.68 86.025 510.76 85.8926 510.838L138.444 545.872C138.56 545.783 138.68 545.696 138.807 545.611C141.431 543.848 145.538 543.677 148.444 545.102ZM85.4124 503.083L137.937 467.805C136.016 466.066 136.011 463.674 137.925 461.928L85.2732 426.826C82.3724 428.26 78.267 428.102 75.6377 426.349C75.5127 426.266 75.3932 426.18 75.279 426.093L22.848 461.307C22.9797 461.384 23.1082 461.464 23.2334 461.547C26.1344 463.481 26.1398 466.625 23.2455 468.569C23.1188 468.654 22.9886 468.735 22.8553 468.813L75.4136 503.852C75.5285 503.763 75.6489 503.676 75.7748 503.591C78.3991 501.829 82.5064 501.658 85.4124 503.083ZM22.3785 461.057L74.9027 425.779C72.9821 424.04 72.9766 421.65 74.8886 419.903L22.2431 384.806C19.3422 386.24 15.2357 386.083 12.606 384.33C12.4828 384.248 12.3648 384.163 12.252 384.077L-40.1782 419.291C-40.0485 419.367 -39.9218 419.445 -39.7982 419.528C-36.8972 421.462 -36.8918 424.605 -39.7862 426.549C-39.9124 426.634 -40.0421 426.715 -40.175 426.793L12.3766 461.827C12.4922 461.738 12.6133 461.65 12.7401 461.565C15.3646 459.802 19.4725 459.631 22.3785 461.057ZM-40.6474 419.04L11.8753 383.764C9.95001 382.024 9.94351 379.631 11.8581 377.883L-40.7939 342.782C-43.6947 344.214 -47.7988 344.056 -50.4274 342.303C-50.5509 342.221 -50.6691 342.137 -50.7821 342.05L-103.212 377.264C-103.082 377.34 -102.955 377.419 -102.832 377.501C-99.9307 379.435 -99.9253 382.579 -102.82 384.523C-102.947 384.608 -103.078 384.69 -103.212 384.768L-50.6539 419.807C-50.5386 419.718 -50.4179 419.63 -50.2916 419.546C-47.6653 417.782 -43.5538 417.612 -40.6474 419.04ZM-103.682 377.014L-51.1587 341.737C-53.0826 339.998 -53.0898 337.606 -51.178 335.859L-103.824 300.761C-106.725 302.194 -110.83 302.037 -113.46 300.284C-113.585 300.201 -113.705 300.115 -113.819 300.027L-166.25 335.242C-166.118 335.318 -165.989 335.398 -165.864 335.482C-162.963 337.416 -162.957 340.56 -165.852 342.504C-165.979 342.589 -166.109 342.67 -166.242 342.748L-113.69 377.783C-113.574 377.693 -113.452 377.605 -113.325 377.519C-110.699 375.756 -106.588 375.585 -103.682 377.014ZM-166.72 334.991L-114.195 299.714C-116.115 297.975 -116.121 295.585 -114.209 293.838L-166.856 258.741C-169.757 260.175 -173.864 260.018 -176.494 258.265C-176.619 258.181 -176.738 258.096 -176.852 258.009L-229.277 293.219C-229.147 293.294 -229.02 293.373 -228.897 293.456C-225.996 295.39 -225.99 298.533 -228.885 300.477C-229.013 300.563 -229.144 300.645 -229.279 300.724L-176.721 335.762C-176.605 335.673 -176.484 335.585 -176.357 335.5C-173.733 333.737 -169.626 333.566 -166.72 334.991ZM-166.397 250.986C-166.265 251.062 -166.137 251.142 -166.013 251.225C-163.112 253.159 -163.106 256.303 -166.001 258.247C-166.126 258.331 -166.255 258.411 -166.387 258.488L-113.834 293.523C-113.719 293.434 -113.598 293.347 -113.472 293.262C-110.847 291.5 -106.739 291.329 -103.833 292.754L-57.1318 261.388C-59.0492 259.648 -59.0525 257.258 -57.1394 255.513L-109.791 220.412C-112.692 221.845 -116.798 221.688 -119.428 219.935C-119.552 219.852 -119.671 219.767 -119.785 219.679L-166.397 250.986ZM-109.322 220.16L-56.7644 255.198C-56.65 255.11 -56.5302 255.024 -56.4049 254.939C-53.7816 253.178 -49.6768 253.006 -46.7711 254.429L5.75602 219.15C3.83898 217.41 3.83591 215.021 5.749 213.275L-46.9028 178.174C-49.8037 179.607 -53.9094 179.45 -56.5388 177.697C-56.6634 177.614 -56.7827 177.529 -56.8966 177.441L-109.329 212.657C-109.198 212.733 -109.071 212.812 -108.946 212.895C-106.045 214.829 -106.04 217.973 -108.934 219.917C-109.06 220.001 -109.19 220.082 -109.322 220.16ZM-46.4337 177.922L6.12406 212.961C6.23842 212.872 6.35822 212.786 6.48342 212.702C9.10643 210.94 13.2109 210.768 16.1165 212.191L68.6422 176.913C66.7223 175.171 66.7213 172.778 68.6413 171.031L15.9917 135.932C13.0903 137.37 8.97856 137.214 6.34631 135.459C6.22205 135.377 6.1031 135.291 5.98947 135.204L-46.4409 170.419C-46.31 170.495 -46.1821 170.574 -46.0575 170.657C-43.1565 172.591 -43.1511 175.735 -46.0454 177.679C-46.1715 177.764 -46.301 177.845 -46.4337 177.922ZM16.4601 135.679L69.017 170.717C69.1291 170.631 69.2465 170.546 69.369 170.464C71.9923 168.702 76.0973 168.531 79.0031 169.954L131.53 134.674C129.613 132.934 129.61 130.544 131.525 128.798L78.8741 93.6973C75.973 95.1323 71.8654 94.9753 69.235 93.2217C69.1105 93.1387 68.9913 93.0535 68.8774 92.9662L16.4453 128.182C16.5758 128.258 16.7034 128.337 16.8276 128.42C19.7286 130.354 19.734 133.497 16.8397 135.441C16.7164 135.524 16.5897 135.604 16.4601 135.679ZM79.3429 93.4451L131.901 128.484C132.014 128.396 132.133 128.31 132.258 128.226C134.881 126.465 138.985 126.293 141.891 127.716L194.424 92.4323C192.506 90.6941 192.5 88.3053 194.41 86.5595L141.762 51.4611C138.861 52.8945 134.755 52.7371 132.126 50.9841C132.001 50.9007 131.881 50.815 131.767 50.7273L79.3331 85.9437C79.464 86.0196 79.5918 86.099 79.7163 86.182C82.6173 88.1161 82.6227 91.2598 79.7284 93.2037C79.6032 93.2878 79.4746 93.3683 79.3429 93.4451ZM142.231 51.2092L194.784 86.2446C194.9 86.1548 195.021 86.0672 195.149 85.9818C197.773 84.2193 201.88 84.0482 204.786 85.473L257.312 50.1941C255.394 48.456 255.389 46.0677 257.298 44.322L204.65 9.22362C201.749 10.6569 197.644 10.4994 195.015 8.7465C194.889 8.66289 194.769 8.577 194.654 8.48907L142.222 43.7049C142.354 43.7812 142.482 43.861 142.607 43.9444C145.508 45.8784 145.514 49.0222 142.619 50.9661C142.493 51.0508 142.364 51.1318 142.231 51.2092ZM205.119 8.97167L257.673 44.0071C257.788 43.9173 257.91 43.8296 258.037 43.7442C260.661 41.9818 264.767 41.8106 267.673 43.2349L320.198 7.95722C318.278 6.21721 318.274 3.82535 320.189 2.07903L267.544 -33.018C264.642 -31.5804 260.531 -31.7366 257.9 -33.4911C257.775 -33.5745 257.655 -33.6601 257.541 -33.7478L205.11 1.46686C205.242 1.54321 205.37 1.6232 205.496 1.70681C208.397 3.64081 208.402 6.78451 205.508 8.72847C205.382 8.81321 205.252 8.89429 205.119 8.97167ZM320.574 8.27057L268.143 43.4854C268.275 43.562 268.405 43.6422 268.531 43.7262C271.432 45.6602 271.437 48.8039 268.543 50.7478C268.416 50.8332 268.285 50.9149 268.151 50.9928L320.703 86.0274C320.819 85.9373 320.941 85.8492 321.069 85.7635C323.695 84 327.805 83.8297 330.711 85.2573L383.234 49.9805C381.31 48.2405 381.304 45.8471 383.22 44.0996L330.575 9.00299C327.674 10.4388 323.565 10.2821 320.934 8.52824C320.809 8.44454 320.689 8.35859 320.574 8.27057ZM383.611 50.2935L331.18 85.508C331.311 85.5836 331.438 85.6628 331.562 85.7455C334.463 87.6795 334.469 90.8232 331.574 92.7672C331.447 92.8529 331.316 92.9348 331.181 93.013L383.739 128.051C383.854 127.962 383.975 127.875 384.101 127.79C386.727 126.026 390.838 125.856 393.745 127.284L446.267 92.0081C444.341 90.267 444.336 87.8711 446.255 86.1229L393.605 51.0232C390.704 52.4581 386.597 52.3011 383.967 50.5476C383.843 50.465 383.724 50.3803 383.611 50.2935ZM446.644 92.321L394.214 127.535C394.344 127.611 394.471 127.69 394.594 127.772C397.495 129.706 397.501 132.85 394.606 134.794C394.48 134.878 394.35 134.96 394.218 135.037L446.769 170.071C446.885 169.982 447.006 169.894 447.133 169.809C449.757 168.047 453.865 167.876 456.771 169.301L509.295 134.023C507.373 132.283 507.369 129.89 509.286 128.143L456.642 93.0474C453.74 94.4847 449.63 94.3284 446.998 92.574C446.875 92.4918 446.757 92.4074 446.644 92.321ZM509.671 134.337L457.24 169.551C457.372 169.628 457.501 169.708 457.626 169.791C460.527 171.725 460.532 174.869 457.638 176.813C457.511 176.898 457.381 176.98 457.248 177.057L509.801 212.093C509.918 212.003 510.04 211.914 510.167 211.829C512.793 210.065 516.904 209.895 519.811 211.323L572.334 176.046C570.409 174.306 570.403 171.913 572.318 170.165L519.672 135.068C516.771 136.504 512.661 136.347 510.03 134.593C509.905 134.51 509.786 134.424 509.671 134.337ZM572.71 176.359L520.28 211.574C520.41 211.649 520.537 211.728 520.661 211.811C523.562 213.745 523.567 216.888 520.673 218.832C520.545 218.918 520.414 219 520.279 219.078L572.837 254.117C572.952 254.027 573.073 253.94 573.2 253.855C575.824 252.093 579.931 251.921 582.836 253.346L635.361 218.068C633.44 216.328 633.436 213.935 635.353 212.189L582.703 177.089C579.802 178.523 575.695 178.366 573.065 176.613C572.942 176.53 572.823 176.446 572.71 176.359ZM635.737 218.382L583.306 253.597C583.438 253.673 583.567 253.753 583.693 253.837C586.594 255.771 586.599 258.915 583.705 260.859C583.579 260.944 583.449 261.025 583.316 261.102L630.029 292.245C630.146 292.155 630.268 292.067 630.395 291.981C633.021 290.217 637.132 290.047 640.039 291.475L692.557 256.201C690.635 254.461 690.632 252.067 692.551 250.32L645.74 219.113C642.839 220.55 638.729 220.393 636.097 218.639C635.972 218.556 635.852 218.47 635.737 218.382ZM692.933 256.515L640.508 291.726C640.638 291.801 640.765 291.88 640.889 291.963C643.79 293.897 643.795 297.041 640.901 298.985C640.773 299.07 640.642 299.152 640.508 299.23L693.066 334.269C693.181 334.18 693.302 334.092 693.429 334.007C696.053 332.245 700.16 332.074 703.066 333.499L755.591 298.221C753.669 296.48 753.666 294.088 755.582 292.341L702.938 257.245C700.036 258.683 695.925 258.527 693.293 256.772C693.168 256.688 693.048 256.603 692.933 256.515ZM692.691 334.584L640.038 299.482C637.138 300.913 633.035 300.754 630.407 299.003C630.284 298.92 630.165 298.835 630.052 298.749L577.62 333.964C577.75 334.039 577.877 334.118 578 334.2C580.901 336.134 580.907 339.278 578.013 341.222C577.885 341.308 577.754 341.39 577.619 341.468L630.177 376.507C630.293 376.417 630.414 376.33 630.541 376.245C633.165 374.482 637.272 374.311 640.178 375.736L692.704 340.458C690.785 338.719 690.78 336.33 692.691 334.584ZM629.803 376.822L577.15 341.72C574.249 343.15 570.147 342.992 567.519 341.24C567.396 341.158 567.277 341.073 567.164 340.987L514.726 376.207C514.857 376.282 514.984 376.362 515.109 376.445C518.01 378.379 518.016 381.523 515.121 383.467C514.996 383.551 514.868 383.631 514.737 383.708L567.288 418.742C567.402 418.653 567.522 418.567 567.648 418.483C570.273 416.719 574.383 416.549 577.289 417.976L629.817 382.696C627.897 380.957 627.892 378.568 629.803 376.822ZM566.913 419.056L514.268 383.96C511.367 385.395 507.258 385.239 504.628 383.485C504.503 383.402 504.384 383.316 504.27 383.229L451.838 418.445C451.969 418.52 452.096 418.6 452.221 418.683C455.122 420.617 455.127 423.76 452.233 425.704C452.11 425.787 451.983 425.866 451.854 425.942L504.409 460.979C504.521 460.893 504.637 460.809 504.759 460.727C507.383 458.965 511.489 458.794 514.395 460.218L566.926 424.936C565.004 423.196 564.998 420.803 566.913 419.056ZM451.368 418.194L503.894 382.916C501.971 381.176 501.967 378.783 503.882 377.036L457.07 345.828C454.169 347.262 450.062 347.105 447.432 345.352C447.307 345.269 447.188 345.183 447.074 345.096L394.642 380.312C394.772 380.388 394.9 380.467 395.025 380.55C397.926 382.484 397.931 385.628 395.037 387.572C394.913 387.655 394.786 387.734 394.656 387.81L441.374 418.955C441.487 418.868 441.604 418.783 441.728 418.701C444.353 416.937 448.462 416.767 451.368 418.194ZM394.172 380.061L446.698 344.783C444.776 343.043 444.771 340.651 446.685 338.904L394.04 303.808C391.139 305.243 387.031 305.086 384.4 303.333C384.275 303.25 384.156 303.164 384.042 303.077L331.61 338.292C331.741 338.368 331.869 338.448 331.993 338.531C334.894 340.465 334.899 343.608 332.005 345.552C331.882 345.635 331.755 345.714 331.626 345.79L384.176 380.823C384.289 380.736 384.408 380.651 384.531 380.568C387.157 378.805 391.266 378.634 394.172 380.061ZM383.801 381.138L331.158 346.042C328.256 347.481 324.144 347.325 321.512 345.57C321.387 345.487 321.268 345.402 321.154 345.315L268.724 380.529C268.855 380.605 268.983 380.685 269.108 380.768C272.009 382.702 272.014 385.846 269.12 387.79C268.994 387.874 268.864 387.955 268.732 388.033L321.284 423.067C321.399 422.978 321.52 422.89 321.646 422.806C324.271 421.043 328.38 420.872 331.286 422.298L383.81 387.021C381.886 385.28 381.882 382.885 383.801 381.138ZM320.909 423.382L268.263 388.285C265.362 389.718 261.256 389.561 258.626 387.808C258.501 387.725 258.382 387.639 258.268 387.552L205.836 422.767C205.967 422.843 206.095 422.923 206.219 423.006C209.12 424.94 209.126 428.084 206.231 430.027C206.105 430.112 205.976 430.193 205.844 430.27L258.395 465.305C258.51 465.215 258.631 465.128 258.758 465.043C261.383 463.28 265.492 463.109 268.398 464.536L320.924 429.258C319.003 427.519 318.997 425.128 320.909 423.382ZM258.02 465.619L205.374 430.522C202.474 431.956 198.367 431.799 195.738 430.046C195.613 429.962 195.494 429.877 195.38 429.79L148.769 461.096C148.9 461.173 149.029 461.252 149.154 461.336C152.055 463.27 152.06 466.414 149.166 468.357C149.04 468.442 148.912 468.522 148.78 468.599L201.331 503.634C201.446 503.545 201.567 503.458 201.693 503.373C204.317 501.61 208.425 501.439 211.331 502.865L258.036 471.496C256.114 469.757 256.108 467.366 258.02 465.619ZM138.3 461.613C138.415 461.525 138.535 461.438 138.66 461.354C141.285 459.591 145.393 459.42 148.299 460.846L195.004 429.477C193.082 427.737 193.077 425.346 194.99 423.599L142.343 388.501C139.442 389.937 135.334 389.78 132.703 388.026C132.577 387.942 132.456 387.856 132.341 387.767L85.7344 419.07C85.8658 419.146 85.994 419.226 86.119 419.309C89.02 421.243 89.0254 424.387 86.1311 426.331C86.0048 426.416 85.8751 426.497 85.7423 426.574L138.3 461.613ZM75.2634 419.588C75.3786 419.499 75.4993 419.412 75.6256 419.327C78.2505 417.564 82.3588 417.394 85.2649 418.82L131.965 387.454C130.046 385.714 130.043 383.323 131.957 381.577L79.3066 346.477C76.4058 347.91 72.3003 347.753 69.6711 346C69.5485 345.918 69.4311 345.834 69.3189 345.748L22.7082 377.054C22.8376 377.129 22.9641 377.208 23.0873 377.29C25.9883 379.224 25.9937 382.368 23.0994 384.312C22.9736 384.396 22.8444 384.477 22.7121 384.554L75.2634 419.588ZM12.233 377.568C12.3478 377.479 12.4681 377.393 12.5939 377.308C15.2206 375.544 19.3326 375.374 22.239 376.803L68.9421 345.435C67.0155 343.696 67.008 341.302 68.922 339.554L16.2757 304.456C13.3747 305.891 9.26763 305.734 6.63759 303.98C6.51304 303.897 6.39379 303.812 6.27991 303.725L-40.326 335.027C-40.1963 335.103 -40.0696 335.181 -39.9461 335.264C-37.0451 337.198 -37.0397 340.341 -39.934 342.285C-40.0609 342.37 -40.1912 342.452 -40.3247 342.53L12.233 377.568ZM-50.8033 335.544C-50.6876 335.454 -50.5663 335.367 -50.4395 335.282C-47.8131 333.518 -43.7015 333.348 -40.7951 334.776L5.90359 303.412C3.98133 301.672 3.97615 299.28 5.89037 297.533L-46.7539 262.437C-49.6549 263.872 -53.7625 263.715 -56.3928 261.961C-56.5193 261.877 -56.6404 261.79 -56.756 261.701L-103.364 293.005C-103.232 293.081 -103.103 293.161 -102.978 293.244C-100.077 295.178 -100.072 298.322 -102.966 300.266C-103.093 300.351 -103.222 300.432 -103.355 300.509L-50.8033 335.544ZM-46.2851 262.185L6.26538 297.218C6.37997 297.13 6.50002 297.043 6.62552 296.959C9.25082 295.195 13.36 295.025 16.2661 296.452L68.7916 261.173C66.87 259.434 66.8651 257.042 68.779 255.295L16.1346 220.199C13.2335 221.634 9.1258 221.477 6.49548 219.723C6.36872 219.639 6.24746 219.552 6.13178 219.463L-46.3011 254.679C-46.168 254.756 -46.038 254.837 -45.9115 254.921C-43.0105 256.855 -43.005 259.999 -45.8994 261.943C-46.0247 262.027 -46.1533 262.108 -46.2851 262.185ZM16.6034 219.947L69.1541 254.981C69.2686 254.892 69.3887 254.805 69.5142 254.721C72.1392 252.958 76.2479 252.787 79.154 254.214L131.678 218.936C129.753 217.195 129.75 214.799 131.671 213.051L79.0293 177.957C76.1277 179.397 72.0142 179.241 69.3811 177.486C69.2546 177.401 69.1336 177.315 69.0181 177.226L16.5866 212.441C16.7199 212.518 16.85 212.599 16.9768 212.684C19.8778 214.618 19.8832 217.761 16.9889 219.705C16.8637 219.789 16.7351 219.87 16.6034 219.947ZM79.4974 177.704L132.047 212.737C132.159 212.651 132.277 212.566 132.399 212.483C135.025 210.72 139.134 210.55 142.04 211.977L194.566 176.698C192.643 174.958 192.639 172.565 194.555 170.818L141.912 135.722C139.01 137.159 134.901 137.002 132.27 135.248C132.143 135.164 132.022 135.077 131.906 134.988L79.473 170.204C79.606 170.281 79.7359 170.362 79.8624 170.446C82.7634 172.38 82.7688 175.524 79.8745 177.468C79.7519 177.55 79.6262 177.629 79.4974 177.704ZM142.38 135.47L194.93 170.503C195.044 170.415 195.163 170.33 195.288 170.246C197.913 168.483 202.022 168.312 204.928 169.738L257.456 134.459C255.537 132.719 255.532 130.329 257.445 128.583L204.793 93.4821C201.893 94.9138 197.789 94.7558 195.161 93.0035C195.035 92.9197 194.915 92.8338 194.8 92.7457L142.361 127.966C142.494 128.043 142.624 128.124 142.751 128.208C145.652 130.142 145.657 133.286 142.763 135.23C142.639 135.314 142.511 135.394 142.38 135.47ZM205.263 93.2303L257.82 128.268C257.935 128.179 258.055 128.093 258.181 128.008C260.805 126.246 264.912 126.075 267.817 127.499L320.348 92.2175C318.426 90.4793 318.419 88.0893 320.329 86.3424L267.682 51.2446C264.781 52.6761 260.678 52.5181 258.049 50.7659C257.923 50.682 257.803 50.5958 257.688 50.5075L205.255 85.7235C205.387 85.7999 205.516 85.8801 205.642 85.9638C208.543 87.8978 208.548 91.0415 205.654 92.9855C205.527 93.0708 205.396 93.1524 205.263 93.2303ZM320.725 92.5306L268.287 127.75C268.419 127.826 268.548 127.906 268.674 127.99C271.575 129.924 271.58 133.068 268.686 135.012C268.56 135.096 268.431 135.177 268.299 135.254L320.85 170.289C320.965 170.199 321.086 170.112 321.212 170.028C323.839 168.264 327.951 168.094 330.857 169.522L383.381 134.245C381.457 132.506 381.451 130.113 383.364 128.366L330.712 93.2647C327.811 94.6955 323.709 94.5372 321.081 92.7852C320.957 92.7025 320.838 92.6176 320.725 92.5306ZM383.758 134.558L331.326 169.773C331.456 169.849 331.582 169.927 331.706 170.01C334.607 171.944 334.612 175.087 331.718 177.031C331.592 177.116 331.462 177.197 331.329 177.275L383.881 212.309C383.997 212.22 384.118 212.132 384.244 212.047C386.869 210.284 390.977 210.113 393.883 211.539L446.409 176.26C444.489 174.522 444.484 172.132 446.394 170.386L393.748 135.289C390.848 136.722 386.742 136.564 384.113 134.812C383.989 134.729 383.871 134.645 383.758 134.558ZM446.785 176.574L394.353 211.789C394.484 211.866 394.613 211.945 394.738 212.029C397.639 213.963 397.644 217.107 394.75 219.051C394.623 219.136 394.493 219.217 394.36 219.295L446.918 254.334C447.033 254.245 447.153 254.158 447.279 254.073C449.904 252.311 454.011 252.14 456.917 253.565L509.447 218.283C507.525 216.545 507.517 214.155 509.427 212.408L456.779 177.309C453.878 178.741 449.773 178.583 447.145 176.831C447.019 176.747 446.899 176.662 446.785 176.574ZM509.824 218.596L457.387 253.815C457.518 253.892 457.647 253.972 457.773 254.055C460.674 255.989 460.679 259.133 457.785 261.077C457.659 261.162 457.529 261.242 457.397 261.32L509.948 296.354C510.064 296.265 510.184 296.178 510.311 296.093C512.935 294.33 517.043 294.159 519.949 295.584L572.475 260.305C570.556 258.567 570.551 256.177 572.462 254.431L519.81 219.33C516.909 220.761 512.807 220.602 510.18 218.85C510.056 218.768 509.937 218.683 509.824 218.596ZM572.851 260.619L520.418 295.835C520.55 295.911 520.679 295.991 520.804 296.075C523.705 298.009 523.711 301.152 520.816 303.096C520.69 303.181 520.56 303.262 520.427 303.34L567.141 334.483C567.257 334.392 567.379 334.304 567.507 334.219C570.133 332.455 574.245 332.285 577.151 333.713L629.675 298.435C627.753 296.697 627.745 294.307 629.655 292.56L582.846 261.354C579.946 262.787 575.841 262.629 573.212 260.877C573.086 260.793 572.966 260.707 572.851 260.619ZM566.767 334.798L519.958 303.592C517.057 305.025 512.952 304.867 510.323 303.114C510.198 303.031 510.078 302.945 509.963 302.857L457.53 338.074C457.661 338.15 457.789 338.229 457.913 338.312C460.814 340.246 460.82 343.39 457.925 345.334C457.8 345.418 457.671 345.499 457.539 345.576L504.257 376.721C504.371 376.633 504.491 376.547 504.616 376.463C507.241 374.7 511.35 374.529 514.256 375.956L566.788 340.674C564.865 338.935 564.857 336.545 566.767 334.798ZM457.06 337.823L509.587 302.544C507.667 300.805 507.662 298.415 509.574 296.669L456.928 261.572C454.027 263.005 449.921 262.848 447.291 261.095C447.166 261.011 447.046 260.926 446.931 260.838L394.498 296.054C394.629 296.13 394.757 296.21 394.881 296.293C397.782 298.227 397.788 301.371 394.893 303.315C394.768 303.399 394.64 303.479 394.509 303.556L447.06 338.59C447.174 338.501 447.294 338.415 447.42 338.33C450.045 336.567 454.154 336.397 457.06 337.823ZM394.028 295.804L446.555 260.524C444.635 258.785 444.631 256.395 446.543 254.648L393.89 219.547C390.99 220.979 386.885 220.821 384.257 219.069C384.131 218.985 384.012 218.899 383.897 218.812L331.464 254.028C331.594 254.104 331.722 254.184 331.847 254.267C334.748 256.201 334.753 259.344 331.859 261.288C331.733 261.373 331.604 261.454 331.471 261.531L384.029 296.569C384.143 296.481 384.263 296.395 384.388 296.311C387.013 294.548 391.122 294.377 394.028 295.804ZM383.654 296.884L331.002 261.783C328.101 263.217 323.995 263.059 321.365 261.306C321.241 261.223 321.122 261.138 321.008 261.051L268.57 296.27C268.703 296.347 268.832 296.427 268.958 296.511C271.859 298.445 271.865 301.589 268.97 303.533C268.848 303.615 268.723 303.694 268.594 303.769L321.146 338.803C321.259 338.716 321.376 338.631 321.5 338.549C324.125 336.785 328.234 336.615 331.141 338.042L383.666 302.764C381.743 301.024 381.739 298.631 383.654 296.884ZM320.77 339.117L268.126 304.021C265.225 305.462 261.11 305.307 258.477 303.551C258.351 303.467 258.23 303.381 258.115 303.292L205.69 338.503C205.82 338.579 205.948 338.659 206.073 338.742C208.974 340.676 208.979 343.82 206.085 345.763C205.958 345.849 205.828 345.93 205.695 346.008L258.253 381.046C258.368 380.958 258.488 380.871 258.614 380.786C261.239 379.023 265.348 378.852 268.254 380.279L320.778 345.002C318.854 343.26 318.85 340.865 320.77 339.117ZM257.878 381.361L205.225 346.26C202.325 347.692 198.22 347.534 195.591 345.781C195.467 345.698 195.348 345.613 195.234 345.526L142.796 380.745C142.929 380.822 143.058 380.902 143.184 380.986C146.085 382.92 146.091 386.064 143.197 388.008C143.072 388.092 142.943 388.172 142.812 388.249L195.364 423.284C195.479 423.195 195.6 423.108 195.726 423.024C198.351 421.261 202.46 421.09 205.366 422.517L257.892 387.239C255.97 385.499 255.965 383.108 257.878 381.361ZM142.326 380.495L194.858 345.213C192.936 343.474 192.93 341.083 194.841 339.337L142.195 304.239C139.294 305.673 135.189 305.515 132.559 303.762C132.437 303.68 132.319 303.596 132.207 303.51L79.7754 338.725C79.9041 338.8 80.0299 338.878 80.1524 338.96C83.0534 340.894 83.0588 344.038 80.1645 345.982C80.0382 346.067 79.9085 346.148 79.7757 346.225L132.332 381.263C132.447 381.175 132.566 381.088 132.691 381.004C135.315 379.242 139.421 379.071 142.326 380.495ZM79.3064 338.474L131.83 303.197C129.904 301.458 129.896 299.064 131.81 297.316L79.1644 262.219C76.2634 263.653 72.1563 263.496 69.5263 261.743C69.4014 261.66 69.282 261.574 69.1679 261.487L16.7356 296.702C16.8665 296.778 16.9944 296.858 17.1189 296.941C20.0199 298.875 20.0253 302.018 17.131 303.962C17.0055 304.047 16.8765 304.127 16.7446 304.204L69.2968 339.239C69.412 339.15 69.5328 339.063 69.659 338.978C72.2863 337.213 76.3999 337.044 79.3064 338.474ZM79.6333 261.967L132.185 297.001C132.3 296.912 132.421 296.825 132.547 296.74C135.174 294.976 139.287 294.806 142.194 296.236L194.716 260.96C192.787 259.219 192.782 256.821 194.703 255.073L142.059 219.976C139.157 221.416 135.044 221.26 132.411 219.505C132.287 219.422 132.168 219.337 132.054 219.25L79.6235 254.464C79.7547 254.54 79.8828 254.62 80.0076 254.703C82.9086 256.637 82.914 259.781 80.0197 261.725C79.8942 261.809 79.7652 261.89 79.6333 261.967ZM142.527 219.724L195.078 254.758C195.191 254.671 195.31 254.586 195.433 254.503C198.061 252.738 202.174 252.569 205.081 253.999L257.604 218.722C255.677 216.982 255.67 214.587 257.586 212.839L204.941 177.742C202.04 179.178 197.931 179.021 195.3 177.267C195.175 177.184 195.056 177.099 194.942 177.011L142.51 212.227C142.64 212.303 142.768 212.382 142.893 212.465C145.794 214.399 145.799 217.543 142.905 219.487C142.782 219.57 142.656 219.649 142.527 219.724ZM205.41 177.49L257.961 212.524C258.076 212.436 258.196 212.349 258.321 212.265C260.948 210.501 265.062 210.331 267.968 211.761L320.493 176.483C318.569 174.744 318.562 172.351 320.475 170.603L267.83 135.506C264.929 136.94 260.822 136.783 258.193 135.03C258.067 134.946 257.947 134.86 257.832 134.772L205.397 169.989C205.529 170.065 205.657 170.145 205.781 170.228C208.682 172.162 208.688 175.306 205.793 177.249C205.669 177.333 205.541 177.413 205.41 177.49ZM320.87 176.796L268.437 212.012C268.566 212.087 268.692 212.165 268.814 212.247C271.715 214.181 271.721 217.325 268.827 219.269C268.701 219.353 268.573 219.433 268.441 219.51L320.992 254.545C321.107 254.456 321.227 254.369 321.353 254.285C323.979 252.521 328.088 252.351 330.994 253.778L383.521 218.498C381.601 216.76 381.596 214.37 383.506 212.624L330.86 177.526C327.959 178.96 323.854 178.802 321.224 177.049C321.101 176.967 320.983 176.883 320.87 176.796ZM320.617 254.859L267.972 219.763C265.071 221.197 260.963 221.04 258.333 219.287C258.21 219.205 258.093 219.121 257.981 219.035L205.55 254.25C205.678 254.325 205.804 254.403 205.927 254.485C208.828 256.419 208.833 259.563 205.939 261.506C205.815 261.589 205.688 261.669 205.558 261.745L258.114 296.782C258.226 296.696 258.343 296.611 258.465 296.529C261.089 294.767 265.195 294.596 268.1 296.02L320.632 260.738C318.709 258.998 318.704 256.606 320.617 254.859ZM257.738 297.096L205.09 261.997C202.189 263.435 198.077 263.279 195.445 261.524C195.323 261.443 195.205 261.359 195.093 261.273L142.663 296.487C142.792 296.562 142.918 296.641 143.041 296.722C145.942 298.656 145.947 301.8 143.053 303.744C142.927 303.829 142.797 303.91 142.664 303.987L195.216 339.022C195.332 338.932 195.453 338.845 195.579 338.76C198.205 336.997 202.314 336.826 205.22 338.253L257.739 302.979C255.818 301.237 255.817 298.842 257.738 297.096Z" fill="url(#paint0_linear_629_27640)" fill-opacity="0.5"/>
<path d="M373.609 309.934L432.474 349.178L408.938 364.986M408.938 364.986L448.758 338.241L428.039 324.428L482.239 360.561L458.702 376.369L450.56 381.838M408.938 364.986L442.419 387.306M442.419 387.306L426.545 397.967L450.56 381.838M442.419 387.306L450.56 381.838M450.56 381.838L461.4 389.064" stroke="#C0C0C0" strokeWidth="0.508253"/>
<path d="M452.373 257.347L541.466 316.742L577.506 292.536M577.506 292.536L516.531 333.49L485.172 312.583L567.204 367.272L603.244 343.066L615.712 334.692M577.506 292.536L628.179 326.319M628.179 326.319L652.485 309.994L615.712 334.692M628.179 326.319L615.712 334.692M615.712 334.692L632.118 345.63" stroke="#C0C0C0" strokeWidth="0.508253"/>
<g filter="url(#filter0_d_629_27640)">
<rect width="91.1088" height="91.1088" rx="18.5306" transform="matrix(0.83205 0.5547 -0.830139 0.557556 348.052 186.322)" fill="url(#paint1_linear_629_27640)"/>
<mask id="path-5-outside-1_629_27640" maskUnits="userSpaceOnUse" x="313.608" y="215.805" width="66.5239" height="44.436" fill="black">
<rect fill="white" x="313.608" y="215.805" width="66.5239" height="44.436"/>
<path d="M337.616 231.445C336.16 232.423 334.564 233.083 332.826 233.426C331.103 233.769 329.368 233.765 327.623 233.415C325.877 233.065 324.262 232.394 322.776 231.404L316.683 227.342L331.045 217.696L337.007 221.671C342.08 225.053 342.283 228.311 337.616 231.445ZM332.968 228.401C333.669 227.93 334.156 227.41 334.429 226.842C334.709 226.278 334.738 225.716 334.517 225.157C334.295 224.599 333.826 224.081 333.11 223.603L331.996 222.86L324.405 227.959L325.619 228.769C326.657 229.46 327.837 229.774 329.16 229.709C330.497 229.644 331.766 229.208 332.968 228.401ZM342.335 244.442L344.346 242.245L340.05 239.381L336.723 240.702L332.036 237.576L351.356 231.237L356.736 234.823L347.042 247.581L342.335 244.442ZM350.841 235.075L350.741 235.008C350.567 235.107 350.256 235.253 349.809 235.446C349.361 235.639 347.381 236.427 343.867 237.811L346.618 239.645L349.52 236.352C349.953 235.873 350.394 235.447 350.841 235.075ZM370.669 253.669C369.227 254.637 367.624 255.298 365.86 255.649C364.103 255.997 362.348 256.011 360.596 255.692C358.851 255.369 357.286 254.745 355.9 253.822C354.549 252.92 353.621 251.895 353.118 250.747C352.628 249.598 352.626 248.449 353.112 247.298C353.605 246.143 354.549 245.097 355.944 244.16C357.406 243.178 359.033 242.502 360.823 242.132C362.614 241.762 364.389 241.739 366.147 242.063C367.913 242.382 369.511 243.019 370.943 243.973C372.322 244.892 373.246 245.92 373.716 247.055C374.199 248.19 374.168 249.335 373.622 250.49C373.089 251.645 372.105 252.705 370.669 253.669ZM365.952 250.684C367.133 249.891 367.837 249.113 368.063 248.353C368.289 247.592 368.007 246.948 367.218 246.422C366.354 245.846 365.355 245.618 364.219 245.736C363.082 245.854 361.917 246.315 360.722 247.117C359.553 247.902 358.88 248.673 358.7 249.429C358.528 250.19 358.853 250.844 359.676 251.393C360.178 251.728 360.777 251.93 361.472 252C362.167 252.071 362.899 251.996 363.667 251.775C364.436 251.555 365.197 251.191 365.952 250.684Z"/>
</mask>
<path d="M332.826 233.426L332.571 232.844L332.569 232.844L332.826 233.426ZM316.683 227.342L316.041 226.913L315.4 227.344L316.042 227.772L316.683 227.342ZM331.045 217.696L331.686 217.265L331.043 216.837L330.402 217.268L331.045 217.696ZM334.429 226.842L333.568 226.651L333.566 226.656L334.429 226.842ZM331.996 222.86L332.637 222.43L331.995 222.002L331.354 222.432L331.996 222.86ZM324.405 227.959L323.762 227.531L323.121 227.961L323.764 228.39L324.405 227.959ZM329.16 229.709L329.096 229.103L329.095 229.103L329.16 229.709ZM336.973 231.017C335.61 231.932 334.143 232.533 332.571 232.844L333.082 234.009C334.985 233.633 336.71 232.913 338.258 231.874L336.973 231.017ZM332.569 232.844C331.017 233.153 329.463 233.15 327.885 232.833L327.361 233.997C329.273 234.38 331.188 234.385 333.084 234.008L332.569 232.844ZM327.885 232.833C326.303 232.516 324.813 231.904 323.417 230.973L322.135 231.834C323.711 232.884 325.452 233.613 327.361 233.997L327.885 232.833ZM323.417 230.973L317.324 226.911L316.042 227.772L322.135 231.834L323.417 230.973ZM317.326 227.77L331.687 218.124L330.402 217.268L316.041 226.913L317.326 227.77ZM330.404 218.126L336.366 222.102L337.648 221.241L331.686 217.265L330.404 218.126ZM336.366 222.102C338.816 223.735 339.969 225.259 340.057 226.677C340.145 228.083 339.194 229.526 336.973 231.017L338.258 231.874C340.704 230.231 341.986 228.477 341.871 226.625C341.756 224.785 340.271 222.989 337.648 221.241L336.366 222.102ZM333.611 228.829C334.402 228.298 334.971 227.697 335.293 227.027L333.566 226.656C333.341 227.123 332.937 227.562 332.326 227.972L333.611 228.829ZM335.291 227.032C335.625 226.359 335.662 225.677 335.394 225.001L333.64 225.314C333.815 225.755 333.794 226.196 333.568 226.651L335.291 227.032ZM335.394 225.001C335.125 224.322 334.561 223.713 333.751 223.173L332.469 224.034C333.091 224.448 333.466 224.875 333.64 225.314L335.394 225.001ZM333.751 223.173L332.637 222.43L331.355 223.291L332.469 224.034L333.751 223.173ZM331.354 222.432L323.762 227.531L325.047 228.387L332.639 223.289L331.354 222.432ZM323.764 228.39L324.978 229.199L326.26 228.338L325.046 227.529L323.764 228.39ZM324.978 229.199C326.18 230 327.611 230.394 329.225 230.314L329.095 229.103C328.064 229.154 327.133 228.92 326.26 228.338L324.978 229.199ZM329.225 230.314C330.834 230.236 332.297 229.711 333.611 228.829L332.326 227.972C331.236 228.705 330.161 229.051 329.096 229.103L329.225 230.314ZM342.335 244.442L341.561 244.126L341.186 244.535L341.694 244.873L342.335 244.442ZM344.346 242.245L345.12 242.562L345.494 242.153L344.987 241.815L344.346 242.245ZM340.05 239.381L340.691 238.95L340.193 238.618L339.588 238.859L340.05 239.381ZM336.723 240.702L336.082 241.132L336.58 241.464L337.186 241.224L336.723 240.702ZM332.036 237.576L331.637 237.031L330.494 237.406L331.395 238.007L332.036 237.576ZM351.356 231.237L351.997 230.806L351.539 230.501L350.957 230.691L351.356 231.237ZM356.736 234.823L357.545 235.098L357.844 234.704L357.377 234.393L356.736 234.823ZM347.042 247.581L346.401 248.012L347.285 248.601L347.851 247.856L347.042 247.581ZM350.841 235.075L351.548 235.455L352.059 235.03L351.482 234.645L350.841 235.075ZM350.741 235.008L351.382 234.578L350.79 234.184L350.154 234.546L350.741 235.008ZM343.867 237.811L343.408 237.288L342.394 237.687L343.226 238.242L343.867 237.811ZM346.618 239.645L345.977 240.075L346.805 240.627L347.399 239.953L346.618 239.645ZM349.52 236.352L348.743 236.038L348.738 236.044L349.52 236.352ZM343.108 244.759L345.12 242.562L343.572 241.928L341.561 244.126L343.108 244.759ZM344.987 241.815L340.691 238.95L339.409 239.811L343.705 242.676L344.987 241.815ZM339.588 238.859L336.261 240.18L337.186 241.224L340.512 239.903L339.588 238.859ZM337.364 240.271L332.676 237.146L331.395 238.007L336.082 241.132L337.364 240.271ZM332.434 238.122L351.754 231.782L350.957 230.691L331.637 237.031L332.434 238.122ZM350.715 231.667L356.095 235.254L357.377 234.393L351.997 230.806L350.715 231.667ZM355.927 234.549L346.234 247.306L347.851 247.856L357.545 235.098L355.927 234.549ZM347.683 247.151L342.975 244.012L341.694 244.873L346.401 248.012L347.683 247.151ZM351.482 234.645L351.382 234.578L350.1 235.439L350.2 235.506L351.482 234.645ZM350.154 234.546C350.03 234.616 349.764 234.743 349.318 234.936L350.3 235.956C350.749 235.763 351.104 235.598 351.328 235.471L350.154 234.546ZM349.318 234.936C348.891 235.12 346.933 235.899 343.408 237.288L344.327 238.334C347.828 236.955 349.832 236.158 350.3 235.956L349.318 234.936ZM343.226 238.242L345.977 240.075L347.259 239.214L344.508 237.381L343.226 238.242ZM347.399 239.953L350.301 236.66L348.738 236.044L345.836 239.337L347.399 239.953ZM350.296 236.666C350.712 236.206 351.13 235.803 351.548 235.455L350.134 234.695C349.658 235.091 349.195 235.54 348.743 236.038L350.296 236.666ZM365.86 255.649L366.116 256.232L366.118 256.231L365.86 255.649ZM360.596 255.692L360.353 256.277L360.357 256.278L360.596 255.692ZM353.118 250.747L352.245 250.914L352.247 250.918L353.118 250.747ZM353.112 247.298L352.239 247.132L352.239 247.134L353.112 247.298ZM366.147 242.063L365.906 242.648L365.91 242.649L366.147 242.063ZM373.716 247.055L372.841 247.218L372.843 247.222L373.716 247.055ZM373.622 250.49L372.756 250.308L372.755 250.312L373.622 250.49ZM358.7 249.429L357.804 249.335L357.803 249.339L358.7 249.429ZM370.027 253.24C368.68 254.145 367.205 254.748 365.602 255.068L366.118 256.231C368.043 255.847 369.775 255.129 371.312 254.097L370.027 253.24ZM365.604 255.067C364.007 255.383 362.424 255.395 360.836 255.106L360.357 256.278C362.272 256.627 364.198 256.611 366.116 256.232L365.604 255.067ZM360.84 255.107C359.256 254.813 357.825 254.247 356.541 253.391L355.259 254.252C356.746 255.243 358.445 255.924 360.353 256.277L360.84 255.107ZM356.541 253.391C355.29 252.557 354.446 251.619 353.989 250.575L352.247 250.918C352.796 252.171 353.807 253.284 355.259 254.252L356.541 253.391ZM353.991 250.579C353.547 249.539 353.545 248.504 353.985 247.463L352.239 247.134C351.707 248.393 351.709 249.657 352.245 250.914L353.991 250.579ZM353.985 247.464C354.431 246.418 355.288 245.46 356.586 244.588L355.302 243.732C353.809 244.734 352.778 245.869 352.239 247.132L353.985 247.464ZM356.586 244.588C357.955 243.669 359.456 243.05 361.09 242.712L360.557 241.552C358.61 241.954 356.857 242.687 355.302 243.732L356.586 244.588ZM361.09 242.712C362.72 242.376 364.318 242.356 365.906 242.648L366.389 241.477C364.459 241.122 362.508 241.149 360.557 241.552L361.09 242.712ZM365.91 242.649C367.507 242.938 368.97 243.516 370.302 244.404L371.584 243.543C370.053 242.522 368.319 241.826 366.385 241.476L365.91 242.649ZM370.302 244.404C371.582 245.257 372.418 246.194 372.841 247.218L374.591 246.892C374.074 245.645 373.062 244.528 371.584 243.543L370.302 244.404ZM372.843 247.222C373.276 248.24 373.25 249.263 372.756 250.308L374.487 250.673C375.085 249.407 375.122 248.14 374.589 246.888L372.843 247.222ZM372.755 250.312C372.27 251.361 371.371 252.337 370.027 253.24L371.312 254.097C372.838 253.072 373.907 251.929 374.489 250.668L372.755 250.312ZM366.594 251.113C367.849 250.27 368.68 249.39 368.953 248.47L367.173 248.235C366.994 248.837 366.418 249.511 365.309 250.256L366.594 251.113ZM368.953 248.47C369.236 247.52 368.873 246.668 367.859 245.991L366.577 246.852C367.142 247.229 367.343 247.664 367.173 248.235L368.953 248.47ZM367.859 245.991C366.805 245.289 365.522 244.986 364.08 245.136L364.357 246.336C365.188 246.25 365.903 246.403 366.577 246.852L367.859 245.991ZM364.08 245.136C362.682 245.281 361.349 245.836 360.079 246.689L361.364 247.546C362.484 246.793 363.483 246.427 364.357 246.336L364.08 245.136ZM360.079 246.689C358.834 247.526 358.024 248.407 357.804 249.335L359.597 249.523C359.735 248.938 360.273 248.279 361.364 247.546L360.079 246.689ZM357.803 249.339C357.587 250.293 358.011 251.14 359.035 251.823L360.317 250.962C359.696 250.548 359.469 250.086 359.598 249.519L357.803 249.339ZM359.035 251.823C359.673 252.248 360.447 252.511 361.335 252.601L361.609 251.4C361.106 251.349 360.684 251.207 360.317 250.962L359.035 251.823ZM361.335 252.601C362.227 252.691 363.13 252.59 364.024 252.333L363.311 251.217C362.668 251.402 362.108 251.451 361.609 251.4L361.335 252.601ZM364.024 252.333C364.924 252.075 365.779 251.66 366.594 251.113L365.309 250.256C364.615 250.722 363.947 251.035 363.311 251.217L364.024 252.333Z" fill="url(#paint2_linear_629_27640)" mask="url(#path-5-outside-1_629_27640)"/>
</g>
<rect x="0.00145699" y="0.847962" width="160.608" height="160.608" rx="25.6668" transform="matrix(0.83205 0.5547 -0.830139 0.557556 348.517 147.092)" stroke="url(#paint3_linear_629_27640)" strokeWidth="1.52476"/>
<path d="M310.263 172.792L277.912 151.225M277.912 151.225L305.548 132.664M277.912 151.225L237.314 124.16M237.314 124.16L204.117 102.028L234.918 81.3417M237.314 124.16L268.115 103.473M290.055 88.7373L268.115 103.473M234.918 81.3417L268.115 103.473M234.918 81.3417L249.685 71.4234M234.918 81.3417L207.641 63.1574" stroke="#C0C0C0" strokeWidth="0.508253"/>
<path d="M241.488 217.569L198.987 189.235M131.536 144.268L198.987 189.235M198.987 189.235L160.381 215.165" stroke="#C0C0C0" strokeWidth="0.508253"/>
<rect x="0.000485662" y="0.282654" width="28.9704" height="28.9704" rx="4.32015" transform="matrix(0.83205 0.5547 -0.830139 0.557556 541.778 302.535)" fill="url(#paint4_linear_629_27640)" stroke="url(#paint5_linear_629_27640)" strokeWidth="0.508253"/>
<rect x="0.000485662" y="0.282654" width="20.8384" height="20.8384" rx="4.7558" transform="matrix(0.83205 0.5547 -0.830139 0.557556 651.182 303.197)" fill="url(#paint6_linear_629_27640)" stroke="url(#paint7_linear_629_27640)" strokeWidth="0.508253"/>
<rect x="0.000485662" y="0.282654" width="20.8384" height="20.8384" rx="4.32015" transform="matrix(0.83205 0.5547 -0.830139 0.557556 468.838 382.089)" fill="url(#paint8_linear_629_27640)" stroke="url(#paint9_linear_629_27640)" strokeWidth="0.508253"/>
<rect x="0.000485662" y="0.282654" width="13.2146" height="13.2146" rx="4.7558" transform="matrix(0.83205 0.5547 -0.830139 0.557556 617.858 329.544)" fill="url(#paint10_linear_629_27640)" stroke="url(#paint11_linear_629_27640)" strokeWidth="0.508253"/>
<rect x="0.000485662" y="0.282654" width="13.2146" height="13.2146" rx="4.7558" transform="matrix(0.83205 0.5547 -0.830139 0.557556 442.644 379.308)" fill="url(#paint12_linear_629_27640)" stroke="url(#paint13_linear_629_27640)" strokeWidth="0.508253"/>
<rect x="0.000485662" y="0.282654" width="22.8714" height="22.8714" rx="4.32015" transform="matrix(0.83205 0.5547 -0.830139 0.557556 641.531 340.246)" fill="url(#paint14_linear_629_27640)" stroke="url(#paint15_linear_629_27640)" strokeWidth="0.508253"/>
<rect x="0.000485662" y="0.282654" width="22.8714" height="22.8714" rx="4.32015" transform="matrix(0.83205 0.5547 -0.830139 0.557556 448.888 325.313)" fill="url(#paint16_linear_629_27640)" stroke="url(#paint17_linear_629_27640)" strokeWidth="0.508253"/>
<rect x="0.000485662" y="0.282654" width="22.8714" height="22.8714" rx="4.7558" transform="matrix(0.83205 0.5547 -0.830139 0.557556 418.586 390.376)" fill="url(#paint18_linear_629_27640)" stroke="url(#paint19_linear_629_27640)" strokeWidth="0.508253"/>
<rect x="0.000485662" y="0.282654" width="14.7393" height="14.7393" rx="4.32015" transform="matrix(0.83205 0.5547 -0.830139 0.557556 489.409 308.281)" fill="url(#paint20_linear_629_27640)" stroke="url(#paint21_linear_629_27640)" strokeWidth="0.508253"/>
<rect x="0.000485662" y="0.282654" width="14.7393" height="14.7393" rx="4.32015" transform="matrix(0.83205 0.5547 -0.830139 0.557556 423.944 313.202)" fill="url(#paint22_linear_629_27640)" stroke="url(#paint23_linear_629_27640)" strokeWidth="0.508253"/>
<rect x="0.000485662" y="0.282654" width="14.7393" height="14.7393" rx="4.7558" transform="matrix(0.83205 0.5547 -0.830139 0.557556 410.078 355.905)" fill="url(#paint24_linear_629_27640)" stroke="url(#paint25_linear_629_27640)" strokeWidth="0.508253"/>
<rect x="0.000485662" y="0.282654" width="22.8714" height="22.8714" rx="4.7558" transform="matrix(0.83205 0.5547 -0.830139 0.557556 569.328 357.045)" fill="url(#paint26_linear_629_27640)" stroke="url(#paint27_linear_629_27640)" strokeWidth="0.508253"/>
<rect x="0.000485662" y="0.282654" width="28.9704" height="28.9704" rx="4.7558" transform="matrix(0.83205 0.5547 -0.830139 0.557556 311.665 114.688)" fill="url(#paint28_linear_629_27640)" stroke="url(#paint29_linear_629_27640)" strokeWidth="0.508253"/>
<rect x="0.000485662" y="0.282654" width="28.9704" height="28.9704" rx="4.32015" transform="matrix(0.83205 0.5547 -0.830139 0.557556 136.395 131.1)" fill="url(#paint30_linear_629_27640)" stroke="url(#paint31_linear_629_27640)" strokeWidth="0.508253"/>
<rect x="0.000485662" y="0.282654" width="20.8384" height="20.8384" rx="4.7558" transform="matrix(0.83205 0.5547 -0.830139 0.557556 294.277 74.2947)" fill="url(#paint32_linear_629_27640)" stroke="url(#paint33_linear_629_27640)" strokeWidth="0.508253"/>
<rect x="0.000485662" y="0.282654" width="13.2146" height="13.2146" rx="4.32015" transform="matrix(0.83205 0.5547 -0.830139 0.557556 212.3 56.9109)" fill="url(#paint34_linear_629_27640)" stroke="url(#paint35_linear_629_27640)" strokeWidth="0.508253"/>
<rect x="0.000485662" y="0.282654" width="13.2146" height="13.2146" rx="4.32015" transform="matrix(0.83205 0.5547 -0.830139 0.557556 249.484 63.628)" fill="url(#paint36_linear_629_27640)" stroke="url(#paint37_linear_629_27640)" strokeWidth="0.508253"/>
<rect x="0.000485662" y="0.282654" width="14.7393" height="14.7393" rx="4.32015" transform="matrix(0.83205 0.5547 -0.830139 0.557556 269.39 94.4102)" fill="url(#paint38_linear_629_27640)" stroke="url(#paint39_linear_629_27640)" strokeWidth="0.508253"/>
<rect x="0.000485662" y="0.282654" width="14.7393" height="14.7393" rx="4.7558" transform="matrix(0.83205 0.5547 -0.830139 0.557556 276.653 142.161)" fill="url(#paint40_linear_629_27640)" stroke="url(#paint41_linear_629_27640)" strokeWidth="0.508253"/>
<rect x="0.000485662" y="0.282654" width="14.7393" height="14.7393" rx="4.7558" transform="matrix(0.83205 0.5547 -0.830139 0.557556 200.264 181.019)" fill="url(#paint42_linear_629_27640)" stroke="url(#paint43_linear_629_27640)" strokeWidth="0.508253"/>
<rect x="0.000485662" y="0.282654" width="22.8714" height="22.8714" rx="4.32015" transform="matrix(0.83205 0.5547 -0.830139 0.557556 206.017 87.7354)" fill="url(#paint44_linear_629_27640)" stroke="url(#paint45_linear_629_27640)" strokeWidth="0.508253"/>
<rect x="0.000485662" y="0.282654" width="22.8714" height="22.8714" rx="4.7558" transform="matrix(0.83205 0.5547 -0.830139 0.557556 163.971 200.867)" fill="url(#paint46_linear_629_27640)" stroke="url(#paint47_linear_629_27640)" strokeWidth="0.508253"/>
</g>
<defs>
<filter id="filter0_d_629_27640" x="281.441" y="192.359" width="134.414" height="96.3785" filterUnits="userSpaceOnUse" color-interpolation-filters="sRGB">
<feFlood flood-opacity="0" result="BackgroundImageFix"/>
<feColorMatrix in="SourceAlpha" type="matrix" values="0 0 0 0 0 0 0 0 0 0 0 0 0 0 0 0 0 0 127 0" result="hardAlpha"/>
<feOffset dx="1.01651" dy="7.11554"/>
<feComposite in2="hardAlpha" operator="out"/>
<feColorMatrix type="matrix" values="0 0 0 0 0.312669 0 0 0 0 0.465668 0 0 0 0 0.676042 0 0 0 1 0"/>
<feBlend mode="normal" in2="BackgroundImageFix" result="effect1_dropShadow_629_27640"/>
<feBlend mode="normal" in="SourceGraphic" in2="effect1_dropShadow_629_27640" result="shape"/>
</filter>
<linearGradient id="paint0_linear_629_27640" x1="815.765" y1="282.307" x2="-362.756" y2="347.827" gradientUnits="userSpaceOnUse">
<stop stop-color="#9DCDED" stop-opacity="0.56"/>
<stop offset="1" stop-color="#9DCDED" stop-opacity="0.24"/>
</linearGradient>
<linearGradient id="paint1_linear_629_27640" x1="76.4387" y1="6.94897" x2="22.7772" y2="83.7737" gradientUnits="userSpaceOnUse">
<stop stop-color="#9DCCED"/>
<stop offset="1" stop-color="#D5E9F7"/>
</linearGradient>
<linearGradient id="paint2_linear_629_27640" x1="364.352" y1="235.79" x2="317.386" y2="222.918" gradientUnits="userSpaceOnUse">
<stop stop-color="#9DBFEE"/>
<stop offset="1" stop-color="#4173B8"/>
</linearGradient>
<linearGradient id="paint3_linear_629_27640" x1="151.714" y1="10.6733" x2="9.14856" y2="157.813" gradientUnits="userSpaceOnUse">
<stop stop-color="#007CC1" stop-opacity="0.35"/>
<stop offset="1" stop-color="#BFE8FF"/>
</linearGradient>
<linearGradient id="paint4_linear_629_27640" x1="26.9374" y1="2.03301" x2="2.79539" y2="27.6998" gradientUnits="userSpaceOnUse">
<stop stop-color="#9DCDED"/>
<stop offset="1" stop-color="white"/>
</linearGradient>
<linearGradient id="paint5_linear_629_27640" x1="27.6998" y1="-2.18066e-06" x2="2.28714" y2="27.9539" gradientUnits="userSpaceOnUse">
<stop stop-color="#C3D2E6"/>
<stop offset="1" stop-color="#6792CC"/>
</linearGradient>
<linearGradient id="paint6_linear_629_27640" x1="18.3303" y1="1.85623" x2="3.71246" y2="19.9545" gradientUnits="userSpaceOnUse">
<stop stop-color="#4976B5"/>
<stop offset="1" stop-color="#CFE3FF"/>
</linearGradient>
<linearGradient id="paint7_linear_629_27640" x1="1.85623" y1="20.4185" x2="20.6505" y2="1.39217" gradientUnits="userSpaceOnUse">
<stop stop-color="#5681BC"/>
<stop offset="1" stop-color="#EBF3FF"/>
</linearGradient>
<linearGradient id="paint8_linear_629_27640" x1="19.5064" y1="1.47218" x2="2.02425" y2="20.0585" gradientUnits="userSpaceOnUse">
<stop stop-color="#9DCDED"/>
<stop offset="1" stop-color="white"/>
</linearGradient>
<linearGradient id="paint9_linear_629_27640" x1="20.0585" y1="-1.5791e-06" x2="1.6562" y2="20.2425" gradientUnits="userSpaceOnUse">
<stop stop-color="#C3D2E6"/>
<stop offset="1" stop-color="#6792CC"/>
</linearGradient>
<linearGradient id="paint10_linear_629_27640" x1="11.7837" y1="1.19329" x2="2.38658" y2="12.8279" gradientUnits="userSpaceOnUse">
<stop stop-color="#4976B5"/>
<stop offset="1" stop-color="#CFE3FF"/>
</linearGradient>
<linearGradient id="paint11_linear_629_27640" x1="1.19329" y1="13.1262" x2="13.2753" y2="0.894967" gradientUnits="userSpaceOnUse">
<stop stop-color="#5681BC"/>
<stop offset="1" stop-color="#EBF3FF"/>
</linearGradient>
<linearGradient id="paint12_linear_629_27640" x1="11.7837" y1="1.19329" x2="2.38658" y2="12.8279" gradientUnits="userSpaceOnUse">
<stop stop-color="#4976B5"/>
<stop offset="1" stop-color="#CFE3FF"/>
</linearGradient>
<linearGradient id="paint13_linear_629_27640" x1="1.19329" y1="13.1262" x2="13.2753" y2="0.894967" gradientUnits="userSpaceOnUse">
<stop stop-color="#5681BC"/>
<stop offset="1" stop-color="#EBF3FF"/>
</linearGradient>
<linearGradient id="paint14_linear_629_27640" x1="21.3642" y1="1.61239" x2="2.21703" y2="21.9688" gradientUnits="userSpaceOnUse">
<stop stop-color="#9DCDED"/>
<stop offset="1" stop-color="white"/>
</linearGradient>
<linearGradient id="paint15_linear_629_27640" x1="21.9688" y1="-1.72949e-06" x2="1.81394" y2="22.1704" gradientUnits="userSpaceOnUse">
<stop stop-color="#C3D2E6"/>
<stop offset="1" stop-color="#6792CC"/>
</linearGradient>
<linearGradient id="paint16_linear_629_27640" x1="21.3642" y1="1.61239" x2="2.21703" y2="21.9688" gradientUnits="userSpaceOnUse">
<stop stop-color="#9DCDED"/>
<stop offset="1" stop-color="white"/>
</linearGradient>
<linearGradient id="paint17_linear_629_27640" x1="21.9688" y1="-1.72949e-06" x2="1.81394" y2="22.1704" gradientUnits="userSpaceOnUse">
<stop stop-color="#C3D2E6"/>
<stop offset="1" stop-color="#6792CC"/>
</linearGradient>
<linearGradient id="paint18_linear_629_27640" x1="20.076" y1="2.03301" x2="4.06602" y2="21.8549" gradientUnits="userSpaceOnUse">
<stop stop-color="#4976B5"/>
<stop offset="1" stop-color="#CFE3FF"/>
</linearGradient>
<linearGradient id="paint19_linear_629_27640" x1="2.03301" y1="22.3631" x2="22.6173" y2="1.52476" gradientUnits="userSpaceOnUse">
<stop stop-color="#5681BC"/>
<stop offset="1" stop-color="#EBF3FF"/>
</linearGradient>
<linearGradient id="paint20_linear_629_27640" x1="13.9331" y1="1.05156" x2="1.44589" y2="14.3275" gradientUnits="userSpaceOnUse">
<stop stop-color="#9DCDED"/>
<stop offset="1" stop-color="white"/>
</linearGradient>
<linearGradient id="paint21_linear_629_27640" x1="14.3275" y1="-1.12793e-06" x2="1.183" y2="14.4589" gradientUnits="userSpaceOnUse">
<stop stop-color="#C3D2E6"/>
<stop offset="1" stop-color="#6792CC"/>
</linearGradient>
<linearGradient id="paint22_linear_629_27640" x1="13.9331" y1="1.05156" x2="1.44589" y2="14.3275" gradientUnits="userSpaceOnUse">
<stop stop-color="#9DCDED"/>
<stop offset="1" stop-color="white"/>
</linearGradient>
<linearGradient id="paint23_linear_629_27640" x1="14.3275" y1="-1.12793e-06" x2="1.183" y2="14.4589" gradientUnits="userSpaceOnUse">
<stop stop-color="#C3D2E6"/>
<stop offset="1" stop-color="#6792CC"/>
</linearGradient>
<linearGradient id="paint24_linear_629_27640" x1="13.093" y1="1.32588" x2="2.65175" y2="14.2532" gradientUnits="userSpaceOnUse">
<stop stop-color="#4976B5"/>
<stop offset="1" stop-color="#CFE3FF"/>
</linearGradient>
<linearGradient id="paint25_linear_629_27640" x1="1.32588" y1="14.5847" x2="14.7504" y2="0.994408" gradientUnits="userSpaceOnUse">
<stop stop-color="#5681BC"/>
<stop offset="1" stop-color="#EBF3FF"/>
</linearGradient>
<linearGradient id="paint26_linear_629_27640" x1="20.076" y1="2.03301" x2="4.06602" y2="21.8549" gradientUnits="userSpaceOnUse">
<stop stop-color="#4976B5"/>
<stop offset="1" stop-color="#CFE3FF"/>
</linearGradient>
<linearGradient id="paint27_linear_629_27640" x1="2.03301" y1="22.3631" x2="22.6173" y2="1.52476" gradientUnits="userSpaceOnUse">
<stop stop-color="#5681BC"/>
<stop offset="1" stop-color="#EBF3FF"/>
</linearGradient>
<linearGradient id="paint28_linear_629_27640" x1="25.3132" y1="2.56336" x2="5.12673" y2="27.5562" gradientUnits="userSpaceOnUse">
<stop stop-color="#4976B5"/>
<stop offset="1" stop-color="#CFE3FF"/>
</linearGradient>
<linearGradient id="paint29_linear_629_27640" x1="2.56336" y1="28.197" x2="28.5174" y2="1.92252" gradientUnits="userSpaceOnUse">
<stop stop-color="#5681BC"/>
<stop offset="1" stop-color="#EBF3FF"/>
</linearGradient>
<linearGradient id="paint30_linear_629_27640" x1="26.9374" y1="2.03301" x2="2.79539" y2="27.6998" gradientUnits="userSpaceOnUse">
<stop stop-color="#9DCDED"/>
<stop offset="1" stop-color="white"/>
</linearGradient>
<linearGradient id="paint31_linear_629_27640" x1="27.6998" y1="-2.18066e-06" x2="2.28714" y2="27.9539" gradientUnits="userSpaceOnUse">
<stop stop-color="#C3D2E6"/>
<stop offset="1" stop-color="#6792CC"/>
</linearGradient>
<linearGradient id="paint32_linear_629_27640" x1="18.3303" y1="1.85623" x2="3.71246" y2="19.9545" gradientUnits="userSpaceOnUse">
<stop stop-color="#4976B5"/>
<stop offset="1" stop-color="#CFE3FF"/>
</linearGradient>
<linearGradient id="paint33_linear_629_27640" x1="1.85623" y1="20.4185" x2="20.6505" y2="1.39217" gradientUnits="userSpaceOnUse">
<stop stop-color="#5681BC"/>
<stop offset="1" stop-color="#EBF3FF"/>
</linearGradient>
<linearGradient id="paint34_linear_629_27640" x1="12.5398" y1="0.946402" x2="1.3013" y2="12.8947" gradientUnits="userSpaceOnUse">
<stop stop-color="#9DCDED"/>
<stop offset="1" stop-color="white"/>
</linearGradient>
<linearGradient id="paint35_linear_629_27640" x1="12.8947" y1="-1.01514e-06" x2="1.0647" y2="13.013" gradientUnits="userSpaceOnUse">
<stop stop-color="#C3D2E6"/>
<stop offset="1" stop-color="#6792CC"/>
</linearGradient>
<linearGradient id="paint36_linear_629_27640" x1="12.5398" y1="0.946402" x2="1.3013" y2="12.8947" gradientUnits="userSpaceOnUse">
<stop stop-color="#9DCDED"/>
<stop offset="1" stop-color="white"/>
</linearGradient>
<linearGradient id="paint37_linear_629_27640" x1="12.8947" y1="-1.01514e-06" x2="1.0647" y2="13.013" gradientUnits="userSpaceOnUse">
<stop stop-color="#C3D2E6"/>
<stop offset="1" stop-color="#6792CC"/>
</linearGradient>
<linearGradient id="paint38_linear_629_27640" x1="13.9331" y1="1.05156" x2="1.44589" y2="14.3275" gradientUnits="userSpaceOnUse">
<stop stop-color="#9DCDED"/>
<stop offset="1" stop-color="white"/>
</linearGradient>
<linearGradient id="paint39_linear_629_27640" x1="14.3275" y1="-1.12793e-06" x2="1.183" y2="14.4589" gradientUnits="userSpaceOnUse">
<stop stop-color="#C3D2E6"/>
<stop offset="1" stop-color="#6792CC"/>
</linearGradient>
<linearGradient id="paint40_linear_629_27640" x1="13.093" y1="1.32588" x2="2.65175" y2="14.2532" gradientUnits="userSpaceOnUse">
<stop stop-color="#4976B5"/>
<stop offset="1" stop-color="#CFE3FF"/>
</linearGradient>
<linearGradient id="paint41_linear_629_27640" x1="1.32588" y1="14.5847" x2="14.7504" y2="0.994408" gradientUnits="userSpaceOnUse">
<stop stop-color="#5681BC"/>
<stop offset="1" stop-color="#EBF3FF"/>
</linearGradient>
<linearGradient id="paint42_linear_629_27640" x1="13.093" y1="1.32588" x2="2.65175" y2="14.2532" gradientUnits="userSpaceOnUse">
<stop stop-color="#4976B5"/>
<stop offset="1" stop-color="#CFE3FF"/>
</linearGradient>
<linearGradient id="paint43_linear_629_27640" x1="1.32588" y1="14.5847" x2="14.7504" y2="0.994408" gradientUnits="userSpaceOnUse">
<stop stop-color="#5681BC"/>
<stop offset="1" stop-color="#EBF3FF"/>
</linearGradient>
<linearGradient id="paint44_linear_629_27640" x1="21.3642" y1="1.61239" x2="2.21703" y2="21.9688" gradientUnits="userSpaceOnUse">
<stop stop-color="#9DCDED"/>
<stop offset="1" stop-color="white"/>
</linearGradient>
<linearGradient id="paint45_linear_629_27640" x1="21.9688" y1="-1.72949e-06" x2="1.81394" y2="22.1704" gradientUnits="userSpaceOnUse">
<stop stop-color="#C3D2E6"/>
<stop offset="1" stop-color="#6792CC"/>
</linearGradient>
<linearGradient id="paint46_linear_629_27640" x1="20.076" y1="2.03301" x2="4.06602" y2="21.8549" gradientUnits="userSpaceOnUse">
<stop stop-color="#4976B5"/>
<stop offset="1" stop-color="#CFE3FF"/>
</linearGradient>
<linearGradient id="paint47_linear_629_27640" x1="2.03301" y1="22.3631" x2="22.6173" y2="1.52476" gradientUnits="userSpaceOnUse">
<stop stop-color="#5681BC"/>
<stop offset="1" stop-color="#EBF3FF"/>
</linearGradient>
<clipPath id="clip0_629_27640">
<rect width="739" height="498.596" fill="white"/>
</clipPath>
</defs>
</svg>
