<svg width="362" height="170" viewBox="0 0 362 170" fill="none" xmlns="http://www.w3.org/2000/svg">
<path d="M0 149.695L361 149.695" stroke="#ACACAC" stroke-width="0.54207"/>
<path d="M3.66797 145.293L3.66797 151.798" stroke="#ACACAC" stroke-width="0.54207"/>
<path d="M68.668 145.293L68.668 151.798" stroke="#ACACAC" stroke-width="0.54207"/>
<path d="M133.668 145.293L133.668 151.798" stroke="#ACACAC" stroke-width="0.54207"/>
<path d="M198.668 145.293L198.668 151.798" stroke="#ACACAC" stroke-width="0.54207"/>
<path d="M263.668 145.293L263.668 151.798" stroke="#ACACAC" stroke-width="0.54207"/>
<path d="M328.668 145.293L328.668 151.798" stroke="#ACACAC" stroke-width="0.54207"/>
<path d="M3.34 165.051H1.77L0.22 158.351H1.46L2.3 162.121L2.58 163.971H2.66L3.09 162.121L4.2 158.351H5.71L6.82 162.121L7.26 163.971H7.33L7.62 162.121L8.46 158.351H9.68L8.12 165.051H6.55L5.54 161.641L4.99 159.561H4.9L4.36 161.641L3.34 165.051ZM12.0662 165.151C11.5262 165.151 11.0762 165.044 10.7162 164.831C10.3562 164.611 10.0895 164.307 9.91617 163.921C9.74284 163.527 9.65617 163.074 9.65617 162.561C9.65617 162.047 9.75284 161.597 9.94617 161.211C10.1462 160.824 10.4262 160.524 10.7862 160.311C11.1462 160.091 11.5728 159.981 12.0662 159.981C12.5128 159.981 12.9062 160.067 13.2462 160.241C13.5928 160.407 13.8595 160.651 14.0462 160.971C14.2395 161.291 14.3362 161.677 14.3362 162.131C14.3362 162.264 14.3295 162.394 14.3162 162.521C14.3095 162.641 14.2995 162.741 14.2862 162.821H10.1662V162.101H13.4062L13.2962 162.201C13.3228 161.894 13.2895 161.644 13.1962 161.451C13.1095 161.257 12.9662 161.114 12.7662 161.021C12.5728 160.927 12.3295 160.881 12.0362 160.881C11.5095 160.881 11.1495 161.014 10.9562 161.281C10.7628 161.541 10.6662 161.901 10.6662 162.361V162.661C10.6662 162.994 10.7062 163.277 10.7862 163.511C10.8728 163.737 11.0195 163.907 11.2262 164.021C11.4328 164.134 11.7162 164.191 12.0762 164.191C12.4962 164.191 12.7928 164.124 12.9662 163.991C13.1395 163.857 13.2262 163.681 13.2262 163.461V163.381H14.2962V163.471C14.2962 163.811 14.2028 164.107 14.0162 164.361C13.8295 164.607 13.5695 164.801 13.2362 164.941C12.9095 165.081 12.5195 165.151 12.0662 165.151ZM17.4568 165.151C16.9168 165.151 16.4668 165.044 16.1068 164.831C15.7468 164.611 15.4801 164.307 15.3068 163.921C15.1335 163.527 15.0468 163.074 15.0468 162.561C15.0468 162.047 15.1435 161.597 15.3368 161.211C15.5368 160.824 15.8168 160.524 16.1768 160.311C16.5368 160.091 16.9635 159.981 17.4568 159.981C17.9035 159.981 18.2968 160.067 18.6368 160.241C18.9835 160.407 19.2501 160.651 19.4368 160.971C19.6301 161.291 19.7268 161.677 19.7268 162.131C19.7268 162.264 19.7201 162.394 19.7068 162.521C19.7001 162.641 19.6901 162.741 19.6768 162.821H15.5568V162.101H18.7968L18.6868 162.201C18.7135 161.894 18.6801 161.644 18.5868 161.451C18.5001 161.257 18.3568 161.114 18.1568 161.021C17.9635 160.927 17.7201 160.881 17.4268 160.881C16.9001 160.881 16.5401 161.014 16.3468 161.281C16.1535 161.541 16.0568 161.901 16.0568 162.361V162.661C16.0568 162.994 16.0968 163.277 16.1768 163.511C16.2635 163.737 16.4101 163.907 16.6168 164.021C16.8235 164.134 17.1068 164.191 17.4668 164.191C17.8868 164.191 18.1835 164.124 18.3568 163.991C18.5301 163.857 18.6168 163.681 18.6168 163.461V163.381H19.6868V163.471C19.6868 163.811 19.5935 164.107 19.4068 164.361C19.2201 164.607 18.9601 164.801 18.6268 164.941C18.3001 165.081 17.9101 165.151 17.4568 165.151ZM25.2384 165.051H23.9684L22.6684 163.011H21.0784V162.051H22.6584L23.9984 160.081H25.2584L23.5284 162.431L25.2384 165.051ZM21.6784 165.051H20.5984V158.351H21.6784V165.051ZM30.637 165.151C30.037 165.151 29.5204 165.011 29.087 164.731C28.6537 164.451 28.3204 164.054 28.087 163.541C27.8604 163.021 27.747 162.407 27.747 161.701C27.747 160.994 27.8604 160.384 28.087 159.871C28.3204 159.351 28.6537 158.951 29.087 158.671C29.5204 158.391 30.037 158.251 30.637 158.251C31.237 158.251 31.7537 158.391 32.187 158.671C32.6204 158.951 32.9537 159.351 33.187 159.871C33.4204 160.384 33.537 160.994 33.537 161.701C33.537 162.407 33.4204 163.021 33.187 163.541C32.9537 164.054 32.6204 164.451 32.187 164.731C31.7537 165.011 31.237 165.151 30.637 165.151ZM30.637 164.101C31.037 164.101 31.3637 164.024 31.617 163.871C31.877 163.717 32.0704 163.464 32.197 163.111C32.3237 162.757 32.387 162.287 32.387 161.701C32.387 161.107 32.3237 160.634 32.197 160.281C32.0704 159.927 31.877 159.674 31.617 159.521C31.3637 159.367 31.037 159.291 30.637 159.291C30.2437 159.291 29.917 159.367 29.657 159.521C29.397 159.674 29.2037 159.927 29.077 160.281C28.957 160.634 28.897 161.107 28.897 161.701C28.897 162.287 28.957 162.757 29.077 163.111C29.2037 163.464 29.397 163.717 29.657 163.871C29.917 164.024 30.2437 164.101 30.637 164.101Z" fill="#ACACAC"/>
<path d="M62.6009 165.051H61.4709L64.0809 158.351H65.6309L68.2409 165.051H67.0709L65.3109 160.571L64.8809 159.321H64.8009L64.3609 160.571L62.6009 165.051ZM66.9809 163.311H62.7609V162.341H66.9809V163.311ZM71.5059 165.151C71.0592 165.151 70.6959 165.064 70.4159 164.891C70.1425 164.711 69.9525 164.507 69.8459 164.281H69.5759L69.6259 163.011H69.8159C69.8159 163.284 69.8659 163.511 69.9659 163.691C70.0725 163.871 70.2292 164.007 70.4359 164.101C70.6425 164.187 70.8892 164.231 71.1759 164.231C71.4092 164.231 71.6125 164.201 71.7859 164.141C71.9592 164.081 72.0992 163.987 72.2059 163.861C72.3192 163.734 72.3992 163.564 72.4459 163.351C72.4992 163.131 72.5259 162.867 72.5259 162.561C72.5259 162.254 72.4992 161.997 72.4459 161.791C72.3992 161.577 72.3192 161.404 72.2059 161.271C72.0992 161.137 71.9592 161.044 71.7859 160.991C71.6192 160.931 71.4159 160.901 71.1759 160.901C70.8892 160.901 70.6425 160.947 70.4359 161.041C70.2292 161.127 70.0725 161.261 69.9659 161.441C69.8659 161.614 69.8159 161.841 69.8159 162.121H69.6259L69.5759 160.901H69.7759C69.8959 160.614 70.0925 160.391 70.3659 160.231C70.6459 160.064 71.0025 159.981 71.4359 159.981C72.1359 159.981 72.6725 160.214 73.0459 160.681C73.4192 161.147 73.6059 161.774 73.6059 162.561C73.6059 163.347 73.4259 163.977 73.0659 164.451C72.7059 164.917 72.1859 165.151 71.5059 165.151ZM69.8159 166.781H68.7459V160.081H69.7259V161.261L69.8159 161.391V166.781ZM75.5495 165.051H74.4695V160.051H75.4595V161.441L75.5495 161.491V165.051ZM75.5495 161.811H75.2995V160.841H75.5095C75.6095 160.607 75.7728 160.407 75.9995 160.241C76.2328 160.067 76.5328 159.981 76.8995 159.981C77.2528 159.981 77.5328 160.057 77.7395 160.211C77.9528 160.364 78.1061 160.567 78.1995 160.821C78.2928 161.074 78.3395 161.357 78.3395 161.671V162.001H77.2595V161.801C77.2595 161.467 77.2028 161.234 77.0895 161.101C76.9761 160.967 76.7628 160.901 76.4495 160.901C76.1228 160.901 75.8895 160.971 75.7495 161.111C75.6161 161.244 75.5495 161.477 75.5495 161.811ZM79.9814 159.451H78.9114L78.9014 158.351H79.9814V159.451ZM79.9914 165.051H78.9114V160.051H79.9914V165.051ZM82.0631 165.051H80.9831V158.351H82.0631V165.051ZM86.1166 165.051H85.0366V158.351H86.1166V165.051ZM89.8266 165.051H85.3666V164.071H89.8266V165.051ZM89.6766 162.171H85.3666V161.191H89.6766V162.171ZM89.8266 159.321H85.3666V158.351H89.8266V159.321ZM95.3885 165.051H94.3085V162.161C94.3085 161.721 94.2252 161.404 94.0585 161.211C93.8918 161.011 93.5785 160.911 93.1185 160.911C92.8252 160.911 92.5852 160.954 92.3985 161.041C92.2118 161.121 92.0718 161.254 91.9785 161.441C91.8852 161.621 91.8385 161.867 91.8385 162.181H91.6485L91.5585 161.011H91.7985C91.8718 160.831 91.9818 160.664 92.1285 160.511C92.2752 160.357 92.4618 160.231 92.6885 160.131C92.9218 160.031 93.1985 159.981 93.5185 159.981C93.9518 159.981 94.3052 160.064 94.5785 160.231C94.8518 160.397 95.0552 160.627 95.1885 160.921C95.3218 161.214 95.3885 161.551 95.3885 161.931V165.051ZM91.8385 165.051H90.7585V160.081H91.7485V161.571L91.8385 161.621V165.051ZM98.393 165.151C97.6864 165.151 97.143 164.917 96.763 164.451C96.3897 163.977 96.203 163.347 96.203 162.561C96.203 161.774 96.3864 161.147 96.753 160.681C97.1264 160.214 97.653 159.981 98.333 159.981C98.773 159.981 99.1264 160.071 99.393 160.251C99.6664 160.424 99.8564 160.624 99.963 160.851H100.233L100.183 162.121H99.993C99.993 161.841 99.9397 161.611 99.833 161.431C99.7264 161.251 99.573 161.117 99.373 161.031C99.173 160.944 98.9264 160.901 98.633 160.901C98.393 160.901 98.1864 160.931 98.013 160.991C97.8464 161.051 97.7064 161.144 97.593 161.271C97.4864 161.397 97.4064 161.567 97.353 161.781C97.3064 161.994 97.283 162.254 97.283 162.561C97.283 162.861 97.3064 163.121 97.353 163.341C97.4064 163.554 97.4864 163.727 97.593 163.861C97.7064 163.987 97.8497 164.081 98.023 164.141C98.1964 164.201 98.3997 164.231 98.633 164.231C98.9264 164.231 99.173 164.187 99.373 164.101C99.573 164.007 99.7264 163.871 99.833 163.691C99.9397 163.511 99.993 163.284 99.993 163.011H100.183L100.233 164.231H100.033C99.9197 164.517 99.723 164.744 99.443 164.911C99.1697 165.071 98.8197 165.151 98.393 165.151ZM101.073 165.051H100.073V163.871L99.993 163.741V158.351H101.073V165.051Z" fill="#ACACAC"/>
<path d="M124.402 165.051H123.322V158.351H124.852L126.392 162.031L126.972 163.631H127.052L127.632 162.031L129.132 158.351H130.662V165.051H129.592V161.091L129.632 159.971H129.562L129.142 161.091L127.642 164.651H126.342L124.832 161.091L124.432 159.971H124.342L124.402 161.091V165.051ZM135.959 165.051H134.959V164.071L134.929 163.801V161.891C134.929 161.517 134.839 161.264 134.659 161.131C134.485 160.997 134.202 160.931 133.809 160.931C133.415 160.931 133.132 161.001 132.959 161.141C132.792 161.281 132.709 161.514 132.709 161.841V161.991H131.669V161.891C131.669 161.517 131.759 161.187 131.939 160.901C132.125 160.614 132.382 160.391 132.709 160.231C133.042 160.064 133.429 159.981 133.869 159.981C134.335 159.981 134.722 160.067 135.029 160.241C135.335 160.414 135.565 160.654 135.719 160.961C135.879 161.261 135.959 161.617 135.959 162.031V165.051ZM133.109 165.151C132.662 165.151 132.285 165.037 131.979 164.811C131.679 164.577 131.529 164.247 131.529 163.821C131.529 163.541 131.592 163.307 131.719 163.121C131.852 162.934 132.042 162.781 132.289 162.661C132.535 162.541 132.835 162.457 133.189 162.411L135.029 162.151V162.911L133.349 163.161C133.062 163.201 132.862 163.261 132.749 163.341C132.635 163.421 132.579 163.554 132.579 163.741C132.579 163.934 132.645 164.074 132.779 164.161C132.919 164.247 133.145 164.291 133.459 164.291C133.699 164.291 133.929 164.254 134.149 164.181C134.375 164.101 134.562 163.971 134.709 163.791C134.855 163.604 134.929 163.344 134.929 163.011L135.069 164.281L134.909 164.271C134.815 164.424 134.685 164.567 134.519 164.701C134.359 164.834 134.162 164.944 133.929 165.031C133.695 165.111 133.422 165.151 133.109 165.151ZM137.569 166.751C137.436 166.751 137.299 166.741 137.159 166.721C137.019 166.707 136.906 166.687 136.819 166.661V165.781H137.509C137.716 165.781 137.869 165.751 137.969 165.691C138.069 165.637 138.163 165.521 138.249 165.341L138.559 164.641L138.469 164.991L136.319 160.081H137.509L138.509 162.491L138.959 163.571H139.049L139.449 162.491L140.359 160.081H141.559L139.199 165.631C139.079 165.931 138.943 166.161 138.789 166.321C138.636 166.481 138.459 166.591 138.259 166.651C138.066 166.717 137.836 166.751 137.569 166.751Z" fill="#ACACAC"/>
<path d="M186.791 165.151C186.184 165.151 185.697 165.044 185.331 164.831C184.964 164.617 184.694 164.321 184.521 163.941C184.354 163.554 184.271 163.111 184.271 162.611V162.331H185.411V162.691C185.411 163.024 185.441 163.297 185.501 163.511C185.567 163.717 185.697 163.867 185.891 163.961C186.091 164.054 186.381 164.101 186.761 164.101C187.141 164.101 187.427 164.054 187.621 163.961C187.814 163.867 187.941 163.717 188.001 163.511C188.067 163.297 188.101 163.024 188.101 162.691V158.351H189.251V162.601C189.251 163.107 189.164 163.554 188.991 163.941C188.824 164.321 188.561 164.617 188.201 164.831C187.841 165.044 187.371 165.151 186.791 165.151ZM192.165 165.151C191.738 165.151 191.385 165.064 191.105 164.891C190.825 164.711 190.618 164.471 190.485 164.171C190.352 163.864 190.285 163.524 190.285 163.151V160.081H191.365V162.951C191.365 163.397 191.458 163.721 191.645 163.921C191.832 164.121 192.138 164.221 192.565 164.221C192.845 164.221 193.082 164.177 193.275 164.091C193.468 163.997 193.615 163.854 193.715 163.661C193.815 163.461 193.865 163.201 193.865 162.881H194.145V164.061H193.905C193.832 164.247 193.718 164.424 193.565 164.591C193.418 164.757 193.228 164.894 192.995 165.001C192.768 165.101 192.492 165.151 192.165 165.151ZM194.945 165.051H193.945V163.561L193.865 163.511V160.081H194.945V165.051ZM200.639 165.051H199.559V162.161C199.559 161.721 199.475 161.404 199.309 161.211C199.142 161.011 198.829 160.911 198.369 160.911C198.075 160.911 197.835 160.954 197.649 161.041C197.462 161.121 197.322 161.254 197.229 161.441C197.135 161.621 197.089 161.867 197.089 162.181H196.899L196.809 161.011H197.049C197.122 160.831 197.232 160.664 197.379 160.511C197.525 160.357 197.712 160.231 197.939 160.131C198.172 160.031 198.449 159.981 198.769 159.981C199.202 159.981 199.555 160.064 199.829 160.231C200.102 160.397 200.305 160.627 200.439 160.921C200.572 161.214 200.639 161.551 200.639 161.931V165.051ZM197.089 165.051H196.009V160.081H196.999V161.571L197.089 161.621V165.051ZM203.863 165.151C203.323 165.151 202.873 165.044 202.513 164.831C202.153 164.611 201.886 164.307 201.713 163.921C201.54 163.527 201.453 163.074 201.453 162.561C201.453 162.047 201.55 161.597 201.743 161.211C201.943 160.824 202.223 160.524 202.583 160.311C202.943 160.091 203.37 159.981 203.863 159.981C204.31 159.981 204.703 160.067 205.043 160.241C205.39 160.407 205.656 160.651 205.843 160.971C206.036 161.291 206.133 161.677 206.133 162.131C206.133 162.264 206.126 162.394 206.113 162.521C206.106 162.641 206.096 162.741 206.083 162.821H201.963V162.101H205.203L205.093 162.201C205.12 161.894 205.086 161.644 204.993 161.451C204.906 161.257 204.763 161.114 204.563 161.021C204.37 160.927 204.126 160.881 203.833 160.881C203.306 160.881 202.946 161.014 202.753 161.281C202.56 161.541 202.463 161.901 202.463 162.361V162.661C202.463 162.994 202.503 163.277 202.583 163.511C202.67 163.737 202.816 163.907 203.023 164.021C203.23 164.134 203.513 164.191 203.873 164.191C204.293 164.191 204.59 164.124 204.763 163.991C204.936 163.857 205.023 163.681 205.023 163.461V163.381H206.093V163.471C206.093 163.811 206 164.107 205.813 164.361C205.626 164.607 205.366 164.801 205.033 164.941C204.706 165.081 204.316 165.151 203.863 165.151Z" fill="#ACACAC"/>
<path d="M246.741 165.051H245.611L248.221 158.351H249.771L252.381 165.051H251.211L249.451 160.571L249.021 159.321H248.941L248.501 160.571L246.741 165.051ZM251.121 163.311H246.901V162.341H251.121V163.311ZM254.776 165.151C254.35 165.151 253.996 165.064 253.716 164.891C253.436 164.711 253.23 164.471 253.096 164.171C252.963 163.864 252.896 163.524 252.896 163.151V160.081H253.976V162.951C253.976 163.397 254.07 163.721 254.256 163.921C254.443 164.121 254.75 164.221 255.176 164.221C255.456 164.221 255.693 164.177 255.886 164.091C256.08 163.997 256.226 163.854 256.326 163.661C256.426 163.461 256.476 163.201 256.476 162.881H256.756V164.061H256.516C256.443 164.247 256.33 164.424 256.176 164.591C256.03 164.757 255.84 164.894 255.606 165.001C255.38 165.101 255.103 165.151 254.776 165.151ZM257.556 165.051H256.556V163.561L256.476 163.511V160.081H257.556V165.051ZM260.95 166.851C260.484 166.851 260.077 166.777 259.73 166.631C259.39 166.484 259.127 166.271 258.94 165.991C258.754 165.717 258.66 165.381 258.66 164.981H259.74C259.74 165.207 259.774 165.387 259.84 165.521C259.907 165.654 260.03 165.747 260.21 165.801C260.39 165.861 260.647 165.891 260.98 165.891C261.307 165.891 261.557 165.854 261.73 165.781C261.904 165.707 262.024 165.584 262.09 165.411C262.157 165.237 262.19 164.997 262.19 164.691V161.391L262.27 161.261V160.081H263.27V164.691C263.27 165.177 263.177 165.577 262.99 165.891C262.804 166.211 262.537 166.451 262.19 166.611C261.85 166.771 261.437 166.851 260.95 166.851ZM260.53 164.581C259.844 164.581 259.317 164.374 258.95 163.961C258.584 163.541 258.4 162.981 258.4 162.281C258.4 161.581 258.587 161.024 258.96 160.611C259.334 160.191 259.87 159.981 260.57 159.981C260.977 159.981 261.327 160.064 261.62 160.231C261.914 160.391 262.117 160.614 262.23 160.901H262.43L262.38 162.121H262.19C262.19 161.841 262.134 161.611 262.02 161.431C261.907 161.251 261.747 161.117 261.54 161.031C261.334 160.944 261.094 160.901 260.82 160.901C260.507 160.901 260.25 160.944 260.05 161.031C259.857 161.117 259.714 161.264 259.62 161.471C259.527 161.671 259.48 161.941 259.48 162.281C259.48 162.534 259.507 162.751 259.56 162.931C259.614 163.104 259.697 163.244 259.81 163.351C259.924 163.457 260.067 163.537 260.24 163.591C260.414 163.637 260.614 163.661 260.84 163.661C261.114 163.661 261.35 163.617 261.55 163.531C261.75 163.437 261.907 163.301 262.02 163.121C262.134 162.941 262.19 162.711 262.19 162.431H262.41V163.701H262.15C262.037 163.941 261.84 164.147 261.56 164.321C261.28 164.494 260.937 164.581 260.53 164.581ZM266.183 165.151C265.756 165.151 265.403 165.064 265.123 164.891C264.843 164.711 264.636 164.471 264.503 164.171C264.369 163.864 264.303 163.524 264.303 163.151V160.081H265.383V162.951C265.383 163.397 265.476 163.721 265.663 163.921C265.849 164.121 266.156 164.221 266.583 164.221C266.863 164.221 267.099 164.177 267.293 164.091C267.486 163.997 267.633 163.854 267.733 163.661C267.833 163.461 267.883 163.201 267.883 162.881H268.163V164.061H267.923C267.849 164.247 267.736 164.424 267.583 164.591C267.436 164.757 267.246 164.894 267.013 165.001C266.786 165.101 266.509 165.151 266.183 165.151ZM268.963 165.051H267.963V163.561L267.883 163.511V160.081H268.963V165.051ZM272.087 165.151C271.36 165.151 270.81 165.007 270.437 164.721C270.063 164.427 269.877 163.977 269.877 163.371V163.351H270.917V163.531C270.917 163.704 270.95 163.847 271.017 163.961C271.09 164.067 271.21 164.147 271.377 164.201C271.55 164.247 271.793 164.271 272.107 164.271C272.373 164.271 272.573 164.251 272.707 164.211C272.847 164.164 272.94 164.101 272.987 164.021C273.033 163.941 273.057 163.841 273.057 163.721C273.057 163.521 272.987 163.381 272.847 163.301C272.707 163.214 272.457 163.137 272.097 163.071L271.317 162.941C271.023 162.881 270.767 162.797 270.547 162.691C270.333 162.577 270.167 162.424 270.047 162.231C269.933 162.031 269.877 161.781 269.877 161.481C269.877 161.034 270.053 160.674 270.407 160.401C270.76 160.121 271.26 159.981 271.907 159.981C272.3 159.981 272.65 160.044 272.957 160.171C273.263 160.297 273.507 160.487 273.687 160.741C273.867 160.994 273.957 161.311 273.957 161.691V161.781H272.927V161.661C272.927 161.501 272.9 161.364 272.847 161.251C272.793 161.131 272.693 161.037 272.547 160.971C272.4 160.904 272.177 160.871 271.877 160.871C271.483 160.871 271.223 160.921 271.097 161.021C270.97 161.121 270.907 161.267 270.907 161.461C270.907 161.654 270.963 161.791 271.077 161.871C271.197 161.944 271.43 162.017 271.777 162.091L272.627 162.251C272.947 162.311 273.213 162.401 273.427 162.521C273.64 162.641 273.8 162.797 273.907 162.991C274.02 163.184 274.077 163.414 274.077 163.681C274.077 164.147 273.9 164.511 273.547 164.771C273.2 165.024 272.713 165.151 272.087 165.151ZM276.969 165.051C276.423 165.051 276.003 164.934 275.709 164.701C275.423 164.467 275.279 164.074 275.279 163.521V160.191L275.529 158.851H276.359V163.471C276.359 163.731 276.423 163.897 276.549 163.971C276.683 164.037 276.919 164.071 277.259 164.071H277.859V164.961C277.759 164.987 277.629 165.011 277.469 165.031C277.309 165.044 277.143 165.051 276.969 165.051ZM277.859 160.981H274.449V160.081H277.859V160.981Z" fill="#ACACAC"/>
<path d="M310.172 165.151C309.532 165.151 309.009 165.061 308.602 164.881C308.196 164.694 307.892 164.437 307.692 164.111C307.499 163.777 307.402 163.397 307.402 162.971V162.801H308.462V162.911C308.462 163.184 308.509 163.414 308.602 163.601C308.702 163.787 308.879 163.927 309.132 164.021C309.386 164.114 309.749 164.161 310.222 164.161C310.716 164.161 311.062 164.091 311.262 163.951C311.462 163.804 311.562 163.577 311.562 163.271C311.562 163.064 311.532 162.897 311.472 162.771C311.412 162.644 311.292 162.541 311.112 162.461C310.939 162.374 310.679 162.297 310.332 162.231L309.192 162.001C308.806 161.927 308.482 161.814 308.222 161.661C307.962 161.501 307.762 161.297 307.622 161.051C307.489 160.804 307.422 160.507 307.422 160.161C307.422 159.827 307.509 159.517 307.682 159.231C307.862 158.937 308.136 158.701 308.502 158.521C308.876 158.341 309.349 158.251 309.922 158.251C310.536 158.251 311.032 158.354 311.412 158.561C311.799 158.767 312.079 159.041 312.252 159.381C312.432 159.714 312.522 160.081 312.522 160.481V160.601H311.452V160.491C311.452 160.211 311.406 159.981 311.312 159.801C311.226 159.614 311.066 159.474 310.832 159.381C310.606 159.281 310.296 159.231 309.902 159.231C309.409 159.231 309.052 159.304 308.832 159.451C308.612 159.597 308.502 159.817 308.502 160.111C308.502 160.311 308.536 160.471 308.602 160.591C308.676 160.711 308.799 160.807 308.972 160.881C309.152 160.947 309.392 161.017 309.692 161.091L310.832 161.331C311.259 161.411 311.602 161.537 311.862 161.711C312.129 161.884 312.326 162.097 312.452 162.351C312.579 162.597 312.642 162.891 312.642 163.231C312.642 163.577 312.556 163.897 312.382 164.191C312.209 164.484 311.939 164.717 311.572 164.891C311.212 165.064 310.746 165.151 310.172 165.151ZM315.629 165.151C315.089 165.151 314.639 165.044 314.279 164.831C313.919 164.611 313.652 164.307 313.479 163.921C313.305 163.527 313.219 163.074 313.219 162.561C313.219 162.047 313.315 161.597 313.509 161.211C313.709 160.824 313.989 160.524 314.349 160.311C314.709 160.091 315.135 159.981 315.629 159.981C316.075 159.981 316.469 160.067 316.809 160.241C317.155 160.407 317.422 160.651 317.609 160.971C317.802 161.291 317.899 161.677 317.899 162.131C317.899 162.264 317.892 162.394 317.879 162.521C317.872 162.641 317.862 162.741 317.849 162.821H313.729V162.101H316.969L316.859 162.201C316.885 161.894 316.852 161.644 316.759 161.451C316.672 161.257 316.529 161.114 316.329 161.021C316.135 160.927 315.892 160.881 315.599 160.881C315.072 160.881 314.712 161.014 314.519 161.281C314.325 161.541 314.229 161.901 314.229 162.361V162.661C314.229 162.994 314.269 163.277 314.349 163.511C314.435 163.737 314.582 163.907 314.789 164.021C314.995 164.134 315.279 164.191 315.639 164.191C316.059 164.191 316.355 164.124 316.529 163.991C316.702 163.857 316.789 163.681 316.789 163.461V163.381H317.859V163.471C317.859 163.811 317.765 164.107 317.579 164.361C317.392 164.607 317.132 164.801 316.799 164.941C316.472 165.081 316.082 165.151 315.629 165.151ZM321.48 165.151C321.034 165.151 320.67 165.064 320.39 164.891C320.117 164.711 319.927 164.507 319.82 164.281H319.55L319.6 163.011H319.79C319.79 163.284 319.84 163.511 319.94 163.691C320.047 163.871 320.204 164.007 320.41 164.101C320.617 164.187 320.864 164.231 321.15 164.231C321.384 164.231 321.587 164.201 321.76 164.141C321.934 164.081 322.074 163.987 322.18 163.861C322.294 163.734 322.374 163.564 322.42 163.351C322.474 163.131 322.5 162.867 322.5 162.561C322.5 162.254 322.474 161.997 322.42 161.791C322.374 161.577 322.294 161.404 322.18 161.271C322.074 161.137 321.934 161.044 321.76 160.991C321.594 160.931 321.39 160.901 321.15 160.901C320.864 160.901 320.617 160.947 320.41 161.041C320.204 161.127 320.047 161.261 319.94 161.441C319.84 161.614 319.79 161.841 319.79 162.121H319.6L319.55 160.901H319.75C319.87 160.614 320.067 160.391 320.34 160.231C320.62 160.064 320.977 159.981 321.41 159.981C322.11 159.981 322.647 160.214 323.02 160.681C323.394 161.147 323.58 161.774 323.58 162.561C323.58 163.347 323.4 163.977 323.04 164.451C322.68 164.917 322.16 165.151 321.48 165.151ZM319.79 166.781H318.72V160.081H319.7V161.261L319.79 161.391V166.781ZM326.475 165.051C325.929 165.051 325.509 164.934 325.215 164.701C324.929 164.467 324.785 164.074 324.785 163.521V160.191L325.035 158.851H325.865V163.471C325.865 163.731 325.929 163.897 326.055 163.971C326.189 164.037 326.425 164.071 326.765 164.071H327.365V164.961C327.265 164.987 327.135 165.011 326.975 165.031C326.815 165.044 326.649 165.051 326.475 165.051ZM327.365 160.981H323.955V160.081H327.365V160.981ZM330.131 165.151C329.591 165.151 329.141 165.044 328.781 164.831C328.421 164.611 328.154 164.307 327.981 163.921C327.807 163.527 327.721 163.074 327.721 162.561C327.721 162.047 327.817 161.597 328.011 161.211C328.211 160.824 328.491 160.524 328.851 160.311C329.211 160.091 329.637 159.981 330.131 159.981C330.577 159.981 330.971 160.067 331.311 160.241C331.657 160.407 331.924 160.651 332.111 160.971C332.304 161.291 332.401 161.677 332.401 162.131C332.401 162.264 332.394 162.394 332.381 162.521C332.374 162.641 332.364 162.741 332.351 162.821H328.231V162.101H331.471L331.361 162.201C331.387 161.894 331.354 161.644 331.261 161.451C331.174 161.257 331.031 161.114 330.831 161.021C330.637 160.927 330.394 160.881 330.101 160.881C329.574 160.881 329.214 161.014 329.021 161.281C328.827 161.541 328.731 161.901 328.731 162.361V162.661C328.731 162.994 328.771 163.277 328.851 163.511C328.937 163.737 329.084 163.907 329.291 164.021C329.497 164.134 329.781 164.191 330.141 164.191C330.561 164.191 330.857 164.124 331.031 163.991C331.204 163.857 331.291 163.681 331.291 163.461V163.381H332.361V163.471C332.361 163.811 332.267 164.107 332.081 164.361C331.894 164.607 331.634 164.801 331.301 164.941C330.974 165.081 330.584 165.151 330.131 165.151ZM341.242 165.051H340.162V162.161C340.162 161.721 340.079 161.404 339.912 161.211C339.752 161.011 339.446 160.911 338.992 160.911C338.586 160.911 338.282 161.007 338.082 161.201C337.889 161.387 337.792 161.707 337.792 162.161L337.602 162.181L337.512 161.011H337.672C337.752 160.837 337.862 160.674 338.002 160.521C338.149 160.361 338.336 160.231 338.562 160.131C338.789 160.031 339.066 159.981 339.392 159.981C339.826 159.981 340.176 160.064 340.442 160.231C340.716 160.397 340.916 160.627 341.042 160.921C341.176 161.214 341.242 161.551 341.242 161.931V165.051ZM334.342 165.051H333.262V160.081H334.252V161.571L334.342 161.621V165.051ZM337.792 165.051H336.712V162.161C336.712 161.721 336.629 161.404 336.462 161.211C336.302 161.011 335.996 160.911 335.542 160.911C335.136 160.911 334.832 161.004 334.632 161.191C334.439 161.377 334.342 161.697 334.342 162.151L334.152 162.181L334.062 161.011H334.302C334.376 160.831 334.482 160.664 334.622 160.511C334.769 160.357 334.956 160.231 335.182 160.131C335.409 160.031 335.679 159.981 335.992 159.981C336.412 159.981 336.752 160.064 337.012 160.231C337.279 160.397 337.476 160.627 337.602 160.921C337.729 161.214 337.792 161.551 337.792 161.931V165.051ZM344.986 165.151C344.553 165.151 344.196 165.071 343.916 164.911C343.636 164.744 343.433 164.517 343.306 164.231H343.106L343.166 163.011H343.356C343.356 163.284 343.406 163.511 343.506 163.691C343.613 163.871 343.766 164.007 343.966 164.101C344.173 164.187 344.419 164.231 344.706 164.231C344.946 164.231 345.149 164.201 345.316 164.141C345.489 164.081 345.633 163.987 345.746 163.861C345.859 163.727 345.939 163.554 345.986 163.341C346.039 163.121 346.066 162.861 346.066 162.561C346.066 162.254 346.039 161.994 345.986 161.781C345.939 161.567 345.859 161.397 345.746 161.271C345.639 161.144 345.499 161.051 345.326 160.991C345.153 160.931 344.946 160.901 344.706 160.901C344.419 160.901 344.173 160.944 343.966 161.031C343.766 161.117 343.613 161.251 343.506 161.431C343.406 161.611 343.356 161.841 343.356 162.121H343.166L343.106 160.871H343.386C343.493 160.644 343.686 160.441 343.966 160.261C344.253 160.074 344.613 159.981 345.046 159.981C345.733 159.981 346.253 160.214 346.606 160.681C346.966 161.147 347.146 161.774 347.146 162.561C347.146 163.347 346.959 163.977 346.586 164.451C346.219 164.917 345.686 165.151 344.986 165.151ZM343.266 165.051H342.276V158.351H343.356V163.741L343.266 163.871V165.051ZM350.219 165.151C349.679 165.151 349.229 165.044 348.869 164.831C348.509 164.611 348.242 164.307 348.069 163.921C347.895 163.527 347.809 163.074 347.809 162.561C347.809 162.047 347.905 161.597 348.099 161.211C348.299 160.824 348.579 160.524 348.939 160.311C349.299 160.091 349.725 159.981 350.219 159.981C350.665 159.981 351.059 160.067 351.399 160.241C351.745 160.407 352.012 160.651 352.199 160.971C352.392 161.291 352.489 161.677 352.489 162.131C352.489 162.264 352.482 162.394 352.469 162.521C352.462 162.641 352.452 162.741 352.439 162.821H348.319V162.101H351.559L351.449 162.201C351.475 161.894 351.442 161.644 351.349 161.451C351.262 161.257 351.119 161.114 350.919 161.021C350.725 160.927 350.482 160.881 350.189 160.881C349.662 160.881 349.302 161.014 349.109 161.281C348.915 161.541 348.819 161.901 348.819 162.361V162.661C348.819 162.994 348.859 163.277 348.939 163.511C349.025 163.737 349.172 163.907 349.379 164.021C349.585 164.134 349.869 164.191 350.229 164.191C350.649 164.191 350.945 164.124 351.119 163.991C351.292 163.857 351.379 163.681 351.379 163.461V163.381H352.449V163.471C352.449 163.811 352.355 164.107 352.169 164.361C351.982 164.607 351.722 164.801 351.389 164.941C351.062 165.081 350.672 165.151 350.219 165.151ZM354.43 165.051H353.35V160.051H354.34V161.441L354.43 161.491V165.051ZM354.43 161.811H354.18V160.841H354.39C354.49 160.607 354.654 160.407 354.88 160.241C355.114 160.067 355.414 159.981 355.78 159.981C356.134 159.981 356.414 160.057 356.62 160.211C356.834 160.364 356.987 160.567 357.08 160.821C357.174 161.074 357.22 161.357 357.22 161.671V162.001H356.14V161.801C356.14 161.467 356.084 161.234 355.97 161.101C355.857 160.967 355.644 160.901 355.33 160.901C355.004 160.901 354.77 160.971 354.63 161.111C354.497 161.244 354.43 161.477 354.43 161.811Z" fill="#ACACAC"/>
<circle cx="351.22" cy="149.474" r="4.08468" transform="rotate(-180 351.22 149.474)" stroke="#213147" stroke-width="0.875289"/>
<circle cx="351.218" cy="149.476" r="3.06351" transform="rotate(-180 351.218 149.476)" fill="#213147"/>
<path d="M351.221 144.953L351.221 120.56" stroke="#213147" stroke-width="0.361786"/>
<rect width="88" height="14" transform="matrix(0 -1 1 0 346.697 112.559)" fill="white"/>
<path d="M356.697 110.919V111.999H349.997V110.919H356.697ZM356.697 107.349V111.679H355.717V107.349H356.697ZM356.697 102.496V103.496H355.717L355.447 103.526H353.537C353.164 103.526 352.911 103.616 352.777 103.796C352.644 103.97 352.577 104.253 352.577 104.646C352.577 105.04 352.647 105.323 352.787 105.496C352.927 105.663 353.161 105.746 353.487 105.746H353.637V106.786H353.537C353.164 106.786 352.834 106.696 352.547 106.516C352.261 106.33 352.037 106.073 351.877 105.746C351.711 105.413 351.627 105.026 351.627 104.586C351.627 104.12 351.714 103.733 351.887 103.426C352.061 103.12 352.301 102.89 352.607 102.736C352.907 102.576 353.264 102.496 353.677 102.496H356.697ZM356.797 105.346C356.797 105.793 356.684 106.17 356.457 106.476C356.224 106.776 355.894 106.926 355.467 106.926C355.187 106.926 354.954 106.863 354.767 106.736C354.581 106.603 354.427 106.413 354.307 106.166C354.187 105.92 354.104 105.62 354.057 105.266L353.797 103.426H354.557L354.807 105.106C354.847 105.393 354.907 105.593 354.987 105.706C355.067 105.82 355.201 105.876 355.387 105.876C355.581 105.876 355.721 105.81 355.807 105.676C355.894 105.536 355.937 105.31 355.937 104.996C355.937 104.756 355.901 104.526 355.827 104.306C355.747 104.08 355.617 103.893 355.437 103.746C355.251 103.6 354.991 103.526 354.657 103.526L355.927 103.386L355.917 103.546C356.071 103.64 356.214 103.77 356.347 103.936C356.481 104.096 356.591 104.293 356.677 104.526C356.757 104.76 356.797 105.033 356.797 105.346ZM356.797 99.4015C356.797 100.128 356.654 100.678 356.367 101.051C356.074 101.425 355.624 101.611 355.017 101.611H354.997V100.571H355.177C355.351 100.571 355.494 100.538 355.607 100.471C355.714 100.398 355.794 100.278 355.847 100.111C355.894 99.9382 355.917 99.6948 355.917 99.3815C355.917 99.1148 355.897 98.9148 355.857 98.7815C355.811 98.6415 355.747 98.5482 355.667 98.5015C355.587 98.4548 355.487 98.4315 355.367 98.4315C355.167 98.4315 355.027 98.5015 354.947 98.6415C354.861 98.7815 354.784 99.0315 354.717 99.3915L354.587 100.171C354.527 100.465 354.444 100.721 354.337 100.941C354.224 101.155 354.071 101.321 353.877 101.441C353.677 101.555 353.427 101.611 353.127 101.611C352.681 101.611 352.321 101.435 352.047 101.081C351.767 100.728 351.627 100.228 351.627 99.5815C351.627 99.1882 351.691 98.8382 351.817 98.5315C351.944 98.2248 352.134 97.9815 352.387 97.8015C352.641 97.6215 352.957 97.5315 353.337 97.5315H353.427V98.5615H353.307C353.147 98.5615 353.011 98.5882 352.897 98.6415C352.777 98.6948 352.684 98.7948 352.617 98.9415C352.551 99.0882 352.517 99.3115 352.517 99.6115C352.517 100.005 352.567 100.265 352.667 100.391C352.767 100.518 352.914 100.581 353.107 100.581C353.301 100.581 353.437 100.525 353.517 100.411C353.591 100.291 353.664 100.058 353.737 99.7115L353.897 98.8615C353.957 98.5415 354.047 98.2748 354.167 98.0615C354.287 97.8482 354.444 97.6882 354.637 97.5815C354.831 97.4682 355.061 97.4115 355.327 97.4115C355.794 97.4115 356.157 97.5882 356.417 97.9415C356.671 98.2882 356.797 98.7748 356.797 99.4015ZM356.697 94.5189C356.697 95.0656 356.581 95.4856 356.347 95.7789C356.114 96.0656 355.721 96.2089 355.167 96.2089H351.837L350.497 95.9589V95.1289H355.117C355.377 95.1289 355.544 95.0656 355.617 94.9389C355.684 94.8056 355.717 94.5689 355.717 94.2289V93.6289H356.607C356.634 93.7289 356.657 93.8589 356.677 94.0189C356.691 94.1789 356.697 94.3456 356.697 94.5189ZM352.627 93.6289V97.0389H351.727V93.6289H352.627ZM356.697 89.8932V90.9732H349.997V89.8932H356.697ZM354.007 86.3732V90.6432H353.037V86.3732H354.007ZM350.967 86.2232V90.6432H349.997V86.2232H350.967ZM356.797 83.2659C356.797 83.8059 356.691 84.2559 356.477 84.6159C356.257 84.9759 355.954 85.2425 355.567 85.4159C355.174 85.5892 354.721 85.6759 354.207 85.6759C353.694 85.6759 353.244 85.5792 352.857 85.3859C352.471 85.1859 352.171 84.9059 351.957 84.5459C351.737 84.1859 351.627 83.7592 351.627 83.2659C351.627 82.8192 351.714 82.4259 351.887 82.0859C352.054 81.7392 352.297 81.4725 352.617 81.2859C352.937 81.0925 353.324 80.9959 353.777 80.9959C353.911 80.9959 354.041 81.0025 354.167 81.0159C354.287 81.0225 354.387 81.0325 354.467 81.0459V85.1659H353.747V81.9259L353.847 82.0359C353.541 82.0092 353.291 82.0425 353.097 82.1359C352.904 82.2225 352.761 82.3659 352.667 82.5659C352.574 82.7592 352.527 83.0025 352.527 83.2959C352.527 83.8225 352.661 84.1825 352.927 84.3759C353.187 84.5692 353.547 84.6659 354.007 84.6659H354.307C354.641 84.6659 354.924 84.6259 355.157 84.5459C355.384 84.4592 355.554 84.3125 355.667 84.1059C355.781 83.8992 355.837 83.6159 355.837 83.2559C355.837 82.8359 355.771 82.5392 355.637 82.3659C355.504 82.1925 355.327 82.1059 355.107 82.1059H355.027V81.0359H355.117C355.457 81.0359 355.754 81.1292 356.007 81.3159C356.254 81.5025 356.447 81.7625 356.587 82.0959C356.727 82.4225 356.797 82.8125 356.797 83.2659ZM356.697 78.1191V79.5291L351.727 80.7591V79.5891L354.487 79.0191L355.797 78.8091V78.7291L354.487 78.4091L351.727 77.5391V76.1391L354.497 75.2591L355.787 74.9391V74.8691L354.497 74.6591L351.727 74.0891V72.9591L356.697 74.1891V75.5991L353.927 76.4891L352.677 76.8191V76.8891L353.927 77.2191L356.697 78.1191ZM354.537 67.5568V69.9968H353.567V67.4268C353.567 66.9868 353.471 66.6735 353.277 66.4868C353.084 66.2935 352.747 66.1968 352.267 66.1968C351.787 66.1968 351.451 66.2935 351.257 66.4868C351.064 66.6735 350.967 66.9868 350.967 67.4268V69.9968H349.997V67.5568C349.997 67.0901 350.087 66.6735 350.267 66.3068C350.447 65.9401 350.707 65.6535 351.047 65.4468C351.381 65.2335 351.787 65.1268 352.267 65.1268C352.747 65.1268 353.157 65.2335 353.497 65.4468C353.837 65.6535 354.097 65.9401 354.277 66.3068C354.451 66.6735 354.537 67.0901 354.537 67.5568ZM356.697 69.3268V70.4068H349.997V69.3268H356.697ZM356.697 63.3314V64.4114H351.697V63.4214H353.087L353.137 63.3314H356.697ZM353.457 63.3314V63.5814H352.487V63.3714C352.254 63.2714 352.054 63.1081 351.887 62.8814C351.714 62.6481 351.627 62.3481 351.627 61.9814C351.627 61.6281 351.704 61.3481 351.857 61.1414C352.011 60.9281 352.214 60.7747 352.467 60.6814C352.721 60.5881 353.004 60.5414 353.317 60.5414H353.647V61.6214H353.447C353.114 61.6214 352.881 61.6781 352.747 61.7914C352.614 61.9047 352.547 62.1181 352.547 62.4314C352.547 62.7581 352.617 62.9914 352.757 63.1314C352.891 63.2647 353.124 63.3314 353.457 63.3314ZM356.797 57.5709C356.797 58.0775 356.691 58.5175 356.477 58.8909C356.257 59.2642 355.954 59.5509 355.567 59.7509C355.174 59.9509 354.721 60.0509 354.207 60.0509C353.694 60.0509 353.244 59.9509 352.857 59.7509C352.471 59.5509 352.171 59.2642 351.957 58.8909C351.737 58.5175 351.627 58.0775 351.627 57.5709C351.627 57.0642 351.737 56.6309 351.957 56.2709C352.171 55.9042 352.471 55.6242 352.857 55.4309C353.244 55.2309 353.694 55.1309 354.207 55.1309C354.721 55.1309 355.174 55.2309 355.567 55.4309C355.954 55.6242 356.257 55.9042 356.477 56.2709C356.691 56.6309 356.797 57.0642 356.797 57.5709ZM355.837 57.5709C355.837 57.0509 355.707 56.6875 355.447 56.4809C355.181 56.2742 354.767 56.1709 354.207 56.1709C353.647 56.1709 353.237 56.2742 352.977 56.4809C352.717 56.6875 352.587 57.0509 352.587 57.5709C352.587 58.0975 352.717 58.4642 352.977 58.6709C353.237 58.8775 353.647 58.9809 354.207 58.9809C354.767 58.9809 355.181 58.8775 355.447 58.6709C355.707 58.4642 355.837 58.0975 355.837 57.5709ZM358.497 51.9247C358.497 52.3914 358.424 52.798 358.277 53.1447C358.131 53.4847 357.917 53.748 357.637 53.9347C357.364 54.1214 357.027 54.2147 356.627 54.2147V53.1347C356.854 53.1347 357.034 53.1014 357.167 53.0347C357.301 52.968 357.394 52.8447 357.447 52.6647C357.507 52.4847 357.537 52.228 357.537 51.8947C357.537 51.568 357.501 51.318 357.427 51.1447C357.354 50.9714 357.231 50.8514 357.057 50.7847C356.884 50.718 356.644 50.6847 356.337 50.6847H353.037L352.907 50.6047H351.727V49.6047H356.337C356.824 49.6047 357.224 49.698 357.537 49.8847C357.857 50.0714 358.097 50.338 358.257 50.6847C358.417 51.0247 358.497 51.438 358.497 51.9247ZM356.227 52.3447C356.227 53.0314 356.021 53.558 355.607 53.9247C355.187 54.2914 354.627 54.4747 353.927 54.4747C353.227 54.4747 352.671 54.288 352.257 53.9147C351.837 53.5414 351.627 53.0047 351.627 52.3047C351.627 51.898 351.711 51.548 351.877 51.2547C352.037 50.9614 352.261 50.758 352.547 50.6447V50.4447L353.767 50.4947V50.6847C353.487 50.6847 353.257 50.7414 353.077 50.8547C352.897 50.968 352.764 51.128 352.677 51.3347C352.591 51.5414 352.547 51.7814 352.547 52.0547C352.547 52.368 352.591 52.6247 352.677 52.8247C352.764 53.018 352.911 53.1614 353.117 53.2547C353.317 53.348 353.587 53.3947 353.927 53.3947C354.181 53.3947 354.397 53.368 354.577 53.3147C354.751 53.2614 354.891 53.178 354.997 53.0647C355.104 52.9514 355.184 52.808 355.237 52.6347C355.284 52.4614 355.307 52.2614 355.307 52.0347C355.307 51.7614 355.264 51.5247 355.177 51.3247C355.084 51.1247 354.947 50.968 354.767 50.8547C354.587 50.7414 354.357 50.6847 354.077 50.6847V50.4647H355.347V50.7247C355.587 50.838 355.794 51.0347 355.967 51.3147C356.141 51.5947 356.227 51.938 356.227 52.3447ZM356.697 47.4623V48.5423H351.697V47.5523H353.087L353.137 47.4623H356.697ZM353.457 47.4623V47.7123H352.487V47.5023C352.254 47.4023 352.054 47.2389 351.887 47.0123C351.714 46.7789 351.627 46.4789 351.627 46.1123C351.627 45.7589 351.704 45.4789 351.857 45.2723C352.011 45.0589 352.214 44.9056 352.467 44.8123C352.721 44.7189 353.004 44.6723 353.317 44.6723H353.647V45.7523H353.447C353.114 45.7523 352.881 45.8089 352.747 45.9223C352.614 46.0356 352.547 46.2489 352.547 46.5623C352.547 46.8889 352.617 47.1223 352.757 47.2623C352.891 47.3956 353.124 47.4623 353.457 47.4623ZM356.697 39.8889V40.8889H355.717L355.447 40.9189H353.537C353.164 40.9189 352.911 41.0089 352.777 41.1889C352.644 41.3622 352.577 41.6456 352.577 42.0389C352.577 42.4322 352.647 42.7156 352.787 42.8889C352.927 43.0556 353.161 43.1389 353.487 43.1389H353.637V44.1789H353.537C353.164 44.1789 352.834 44.0889 352.547 43.9089C352.261 43.7222 352.037 43.4656 351.877 43.1389C351.711 42.8056 351.627 42.4189 351.627 41.9789C351.627 41.5122 351.714 41.1256 351.887 40.8189C352.061 40.5122 352.301 40.2822 352.607 40.1289C352.907 39.9689 353.264 39.8889 353.677 39.8889H356.697ZM356.797 42.7389C356.797 43.1856 356.684 43.5622 356.457 43.8689C356.224 44.1689 355.894 44.3189 355.467 44.3189C355.187 44.3189 354.954 44.2556 354.767 44.1289C354.581 43.9956 354.427 43.8056 354.307 43.5589C354.187 43.3122 354.104 43.0122 354.057 42.6589L353.797 40.8189H354.557L354.807 42.4989C354.847 42.7856 354.907 42.9856 354.987 43.0989C355.067 43.2122 355.201 43.2689 355.387 43.2689C355.581 43.2689 355.721 43.2022 355.807 43.0689C355.894 42.9289 355.937 42.7022 355.937 42.3889C355.937 42.1489 355.901 41.9189 355.827 41.6989C355.747 41.4722 355.617 41.2856 355.437 41.1389C355.251 40.9922 354.991 40.9189 354.657 40.9189L355.927 40.7789L355.917 40.9389C356.071 41.0322 356.214 41.1622 356.347 41.3289C356.481 41.4889 356.591 41.6856 356.677 41.9189C356.757 42.1522 356.797 42.4256 356.797 42.7389ZM356.697 30.8748V31.9548H353.807C353.367 31.9548 353.051 32.0381 352.857 32.2048C352.657 32.3648 352.557 32.6714 352.557 33.1248C352.557 33.5314 352.654 33.8348 352.847 34.0348C353.034 34.2281 353.354 34.3248 353.807 34.3248L353.827 34.5148L352.657 34.6048V34.4448C352.484 34.3648 352.321 34.2548 352.167 34.1148C352.007 33.9681 351.877 33.7814 351.777 33.5548C351.677 33.3281 351.627 33.0514 351.627 32.7248C351.627 32.2914 351.711 31.9414 351.877 31.6748C352.044 31.4014 352.274 31.2014 352.567 31.0748C352.861 30.9414 353.197 30.8748 353.577 30.8748H356.697ZM356.697 37.7748V38.8548H351.727V37.8648H353.217L353.267 37.7748H356.697ZM356.697 34.3248V35.4048H353.807C353.367 35.4048 353.051 35.4881 352.857 35.6548C352.657 35.8148 352.557 36.1214 352.557 36.5748C352.557 36.9814 352.651 37.2848 352.837 37.4848C353.024 37.6781 353.344 37.7748 353.797 37.7748L353.827 37.9648L352.657 38.0548V37.8148C352.477 37.7414 352.311 37.6348 352.157 37.4948C352.004 37.3481 351.877 37.1614 351.777 36.9348C351.677 36.7081 351.627 36.4381 351.627 36.1248C351.627 35.7048 351.711 35.3648 351.877 35.1048C352.044 34.8381 352.274 34.6414 352.567 34.5148C352.861 34.3881 353.197 34.3248 353.577 34.3248H356.697ZM356.797 27.7804C356.797 28.5071 356.654 29.0571 356.367 29.4304C356.074 29.8037 355.624 29.9904 355.017 29.9904H354.997V28.9504H355.177C355.351 28.9504 355.494 28.9171 355.607 28.8504C355.714 28.7771 355.794 28.6571 355.847 28.4904C355.894 28.3171 355.917 28.0737 355.917 27.7604C355.917 27.4937 355.897 27.2937 355.857 27.1604C355.811 27.0204 355.747 26.9271 355.667 26.8804C355.587 26.8337 355.487 26.8104 355.367 26.8104C355.167 26.8104 355.027 26.8804 354.947 27.0204C354.861 27.1604 354.784 27.4104 354.717 27.7704L354.587 28.5504C354.527 28.8437 354.444 29.1004 354.337 29.3204C354.224 29.5337 354.071 29.7004 353.877 29.8204C353.677 29.9337 353.427 29.9904 353.127 29.9904C352.681 29.9904 352.321 29.8137 352.047 29.4604C351.767 29.1071 351.627 28.6071 351.627 27.9604C351.627 27.5671 351.691 27.2171 351.817 26.9104C351.944 26.6037 352.134 26.3604 352.387 26.1804C352.641 26.0004 352.957 25.9104 353.337 25.9104H353.427V26.9404H353.307C353.147 26.9404 353.011 26.9671 352.897 27.0204C352.777 27.0737 352.684 27.1737 352.617 27.3204C352.551 27.4671 352.517 27.6904 352.517 27.9904C352.517 28.3837 352.567 28.6437 352.667 28.7704C352.767 28.8971 352.914 28.9604 353.107 28.9604C353.301 28.9604 353.437 28.9037 353.517 28.7904C353.591 28.6704 353.664 28.4371 353.737 28.0904L353.897 27.2404C353.957 26.9204 354.047 26.6537 354.167 26.4404C354.287 26.2271 354.444 26.0671 354.637 25.9604C354.831 25.8471 355.061 25.7904 355.327 25.7904C355.794 25.7904 356.157 25.9671 356.417 26.3204C356.671 26.6671 356.797 27.1537 356.797 27.7804Z" fill="#3F3F46"/>
<circle cx="215.493" cy="149.474" r="4.08468" transform="rotate(-180 215.493 149.474)" stroke="#213147" stroke-width="0.875289"/>
<circle cx="215.491" cy="149.476" r="3.06351" transform="rotate(-180 215.491 149.476)" fill="#213147"/>
<path d="M215.494 144.953L215.494 120.56" stroke="#213147" stroke-width="0.361786"/>
<rect width="82" height="14" transform="matrix(0 -1 1 0 210.971 112.559)" fill="white"/>
<path d="M218.811 109.149V111.589H217.841V109.019C217.841 108.579 217.744 108.265 217.551 108.079C217.357 107.885 217.021 107.789 216.541 107.789C216.061 107.789 215.724 107.885 215.531 108.079C215.337 108.265 215.241 108.579 215.241 109.019V111.589H214.271V109.149C214.271 108.682 214.361 108.265 214.541 107.899C214.721 107.532 214.981 107.245 215.321 107.039C215.654 106.825 216.061 106.719 216.541 106.719C217.021 106.719 217.431 106.825 217.771 107.039C218.111 107.245 218.371 107.532 218.551 107.899C218.724 108.265 218.811 108.682 218.811 109.149ZM220.971 110.919V111.999H214.271V110.919H220.971ZM220.971 104.923V106.003H215.971V105.013H217.361L217.411 104.923H220.971ZM217.731 104.923V105.173H216.761V104.963C216.527 104.863 216.327 104.7 216.161 104.473C215.987 104.24 215.901 103.94 215.901 103.573C215.901 103.22 215.977 102.94 216.131 102.733C216.284 102.52 216.487 102.367 216.741 102.273C216.994 102.18 217.277 102.133 217.591 102.133H217.921V103.213H217.721C217.387 103.213 217.154 103.27 217.021 103.383C216.887 103.497 216.821 103.71 216.821 104.023C216.821 104.35 216.891 104.583 217.031 104.723C217.164 104.857 217.397 104.923 217.731 104.923ZM221.071 99.1627C221.071 99.6693 220.964 100.109 220.751 100.483C220.531 100.856 220.227 101.143 219.841 101.343C219.447 101.543 218.994 101.643 218.481 101.643C217.967 101.643 217.517 101.543 217.131 101.343C216.744 101.143 216.444 100.856 216.231 100.483C216.011 100.109 215.901 99.6693 215.901 99.1627C215.901 98.656 216.011 98.2227 216.231 97.8627C216.444 97.496 216.744 97.216 217.131 97.0227C217.517 96.8227 217.967 96.7227 218.481 96.7227C218.994 96.7227 219.447 96.8227 219.841 97.0227C220.227 97.216 220.531 97.496 220.751 97.8627C220.964 98.2227 221.071 98.656 221.071 99.1627ZM220.111 99.1627C220.111 98.6427 219.981 98.2793 219.721 98.0727C219.454 97.866 219.041 97.7627 218.481 97.7627C217.921 97.7627 217.511 97.866 217.251 98.0727C216.991 98.2793 216.861 98.6427 216.861 99.1627C216.861 99.6893 216.991 100.056 217.251 100.263C217.511 100.469 217.921 100.573 218.481 100.573C219.041 100.573 219.454 100.469 219.721 100.263C219.981 100.056 220.111 99.6893 220.111 99.1627ZM222.771 93.5165C222.771 93.9832 222.697 94.3898 222.551 94.7365C222.404 95.0765 222.191 95.3398 221.911 95.5265C221.637 95.7132 221.301 95.8065 220.901 95.8065V94.7265C221.127 94.7265 221.307 94.6932 221.441 94.6265C221.574 94.5598 221.667 94.4365 221.721 94.2565C221.781 94.0765 221.811 93.8198 221.811 93.4865C221.811 93.1598 221.774 92.9098 221.701 92.7365C221.627 92.5632 221.504 92.4432 221.331 92.3765C221.157 92.3098 220.917 92.2765 220.611 92.2765H217.311L217.181 92.1965H216.001V91.1965H220.611C221.097 91.1965 221.497 91.2898 221.811 91.4765C222.131 91.6632 222.371 91.9298 222.531 92.2765C222.691 92.6165 222.771 93.0298 222.771 93.5165ZM220.501 93.9365C220.501 94.6232 220.294 95.1498 219.881 95.5165C219.461 95.8832 218.901 96.0665 218.201 96.0665C217.501 96.0665 216.944 95.8798 216.531 95.5065C216.111 95.1332 215.901 94.5965 215.901 93.8965C215.901 93.4898 215.984 93.1398 216.151 92.8465C216.311 92.5532 216.534 92.3498 216.821 92.2365V92.0365L218.041 92.0865V92.2765C217.761 92.2765 217.531 92.3332 217.351 92.4465C217.171 92.5598 217.037 92.7198 216.951 92.9265C216.864 93.1332 216.821 93.3732 216.821 93.6465C216.821 93.9598 216.864 94.2165 216.951 94.4165C217.037 94.6098 217.184 94.7532 217.391 94.8465C217.591 94.9398 217.861 94.9865 218.201 94.9865C218.454 94.9865 218.671 94.9598 218.851 94.9065C219.024 94.8532 219.164 94.7698 219.271 94.6565C219.377 94.5432 219.457 94.3998 219.511 94.2265C219.557 94.0532 219.581 93.8532 219.581 93.6265C219.581 93.3532 219.537 93.1165 219.451 92.9165C219.357 92.7165 219.221 92.5598 219.041 92.4465C218.861 92.3332 218.631 92.2765 218.351 92.2765V92.0565H219.621V92.3165C219.861 92.4298 220.067 92.6265 220.241 92.9065C220.414 93.1865 220.501 93.5298 220.501 93.9365ZM220.971 89.0541V90.1341H215.971V89.1441H217.361L217.411 89.0541H220.971ZM217.731 89.0541V89.3041H216.761V89.0941C216.527 88.9941 216.327 88.8307 216.161 88.6041C215.987 88.3707 215.901 88.0707 215.901 87.7041C215.901 87.3507 215.977 87.0707 216.131 86.8641C216.284 86.6507 216.487 86.4974 216.741 86.4041C216.994 86.3107 217.277 86.2641 217.591 86.2641H217.921V87.3441H217.721C217.387 87.3441 217.154 87.4007 217.021 87.5141C216.887 87.6274 216.821 87.8407 216.821 88.1541C216.821 88.4807 216.891 88.7141 217.031 88.8541C217.164 88.9874 217.397 89.0541 217.731 89.0541ZM220.971 81.4807V82.4807H219.991L219.721 82.5107H217.811C217.437 82.5107 217.184 82.6007 217.051 82.7807C216.917 82.954 216.851 83.2374 216.851 83.6307C216.851 84.024 216.921 84.3074 217.061 84.4807C217.201 84.6474 217.434 84.7307 217.761 84.7307H217.911V85.7707H217.811C217.437 85.7707 217.107 85.6807 216.821 85.5007C216.534 85.314 216.311 85.0574 216.151 84.7307C215.984 84.3974 215.901 84.0107 215.901 83.5707C215.901 83.104 215.987 82.7174 216.161 82.4107C216.334 82.104 216.574 81.874 216.881 81.7207C217.181 81.5607 217.537 81.4807 217.951 81.4807H220.971ZM221.071 84.3307C221.071 84.7774 220.957 85.154 220.731 85.4607C220.497 85.7607 220.167 85.9107 219.741 85.9107C219.461 85.9107 219.227 85.8474 219.041 85.7207C218.854 85.5874 218.701 85.3974 218.581 85.1507C218.461 84.904 218.377 84.604 218.331 84.2507L218.071 82.4107H218.831L219.081 84.0907C219.121 84.3774 219.181 84.5774 219.261 84.6907C219.341 84.804 219.474 84.8607 219.661 84.8607C219.854 84.8607 219.994 84.794 220.081 84.6607C220.167 84.5207 220.211 84.294 220.211 83.9807C220.211 83.7407 220.174 83.5107 220.101 83.2907C220.021 83.064 219.891 82.8774 219.711 82.7307C219.524 82.584 219.264 82.5107 218.931 82.5107L220.201 82.3707L220.191 82.5307C220.344 82.624 220.487 82.754 220.621 82.9207C220.754 83.0807 220.864 83.2774 220.951 83.5107C221.031 83.744 221.071 84.0174 221.071 84.3307ZM220.971 72.4666V73.5466H218.081C217.641 73.5466 217.324 73.6299 217.131 73.7966C216.931 73.9566 216.831 74.2632 216.831 74.7166C216.831 75.1232 216.927 75.4266 217.121 75.6266C217.307 75.8199 217.627 75.9166 218.081 75.9166L218.101 76.1066L216.931 76.1966V76.0366C216.757 75.9566 216.594 75.8466 216.441 75.7066C216.281 75.5599 216.151 75.3732 216.051 75.1466C215.951 74.9199 215.901 74.6432 215.901 74.3166C215.901 73.8832 215.984 73.5332 216.151 73.2666C216.317 72.9932 216.547 72.7932 216.841 72.6666C217.134 72.5332 217.471 72.4666 217.851 72.4666H220.971ZM220.971 79.3666V80.4466H216.001V79.4566H217.491L217.541 79.3666H220.971ZM220.971 75.9166V76.9966H218.081C217.641 76.9966 217.324 77.0799 217.131 77.2466C216.931 77.4066 216.831 77.7132 216.831 78.1666C216.831 78.5732 216.924 78.8766 217.111 79.0766C217.297 79.2699 217.617 79.3666 218.071 79.3666L218.101 79.5566L216.931 79.6466V79.4066C216.751 79.3332 216.584 79.2266 216.431 79.0866C216.277 78.9399 216.151 78.7532 216.051 78.5266C215.951 78.2999 215.901 78.0299 215.901 77.7166C215.901 77.2966 215.984 76.9566 216.151 76.6966C216.317 76.4299 216.547 76.2332 216.841 76.1066C217.134 75.9799 217.471 75.9166 217.851 75.9166H220.971ZM221.071 69.3722C221.071 70.0989 220.927 70.6489 220.641 71.0222C220.347 71.3955 219.897 71.5822 219.291 71.5822H219.271V70.5422H219.451C219.624 70.5422 219.767 70.5089 219.881 70.4422C219.987 70.3689 220.067 70.2489 220.121 70.0822C220.167 69.9089 220.191 69.6655 220.191 69.3522C220.191 69.0855 220.171 68.8855 220.131 68.7522C220.084 68.6122 220.021 68.5189 219.941 68.4722C219.861 68.4255 219.761 68.4022 219.641 68.4022C219.441 68.4022 219.301 68.4722 219.221 68.6122C219.134 68.7522 219.057 69.0022 218.991 69.3622L218.861 70.1422C218.801 70.4355 218.717 70.6922 218.611 70.9122C218.497 71.1255 218.344 71.2922 218.151 71.4122C217.951 71.5255 217.701 71.5822 217.401 71.5822C216.954 71.5822 216.594 71.4055 216.321 71.0522C216.041 70.6989 215.901 70.1989 215.901 69.5522C215.901 69.1589 215.964 68.8089 216.091 68.5022C216.217 68.1955 216.407 67.9522 216.661 67.7722C216.914 67.5922 217.231 67.5022 217.611 67.5022H217.701V68.5322H217.581C217.421 68.5322 217.284 68.5589 217.171 68.6122C217.051 68.6655 216.957 68.7655 216.891 68.9122C216.824 69.0589 216.791 69.2822 216.791 69.5822C216.791 69.9755 216.841 70.2355 216.941 70.3622C217.041 70.4889 217.187 70.5522 217.381 70.5522C217.574 70.5522 217.711 70.4955 217.791 70.3822C217.864 70.2622 217.937 70.0289 218.011 69.6822L218.171 68.8322C218.231 68.5122 218.321 68.2455 218.441 68.0322C218.561 67.8189 218.717 67.6589 218.911 67.5522C219.104 67.4389 219.334 67.3822 219.601 67.3822C220.067 67.3822 220.431 67.5589 220.691 67.9122C220.944 68.2589 221.071 68.7455 221.071 69.3722ZM220.971 63.5162V64.5962H214.271V61.7162C214.271 61.2229 214.351 60.7962 214.511 60.4362C214.664 60.0762 214.891 59.7996 215.191 59.6062C215.484 59.4062 215.844 59.3062 216.271 59.3062C216.637 59.3062 216.957 59.3796 217.231 59.5262C217.497 59.6662 217.707 59.8762 217.861 60.1562C218.007 60.4296 218.091 60.7662 218.111 61.1662H218.191C218.271 60.9196 218.387 60.7162 218.541 60.5562C218.694 60.3962 218.884 60.2562 219.111 60.1362L220.971 59.1262V60.3862L219.241 61.3362C219.047 61.4362 218.887 61.5429 218.761 61.6562C218.634 61.7696 218.541 61.9096 218.481 62.0762C218.421 62.2429 218.391 62.4562 218.391 62.7162V63.5162H220.971ZM215.241 63.5162H217.501V61.5862C217.501 61.1529 217.414 60.8429 217.241 60.6562C217.067 60.4696 216.777 60.3762 216.371 60.3762C215.971 60.3762 215.684 60.4696 215.511 60.6562C215.331 60.8429 215.241 61.1529 215.241 61.5862V63.5162ZM221.071 56.3795C221.071 56.8861 220.964 57.3261 220.751 57.6995C220.531 58.0728 220.227 58.3595 219.841 58.5595C219.447 58.7595 218.994 58.8595 218.481 58.8595C217.967 58.8595 217.517 58.7595 217.131 58.5595C216.744 58.3595 216.444 58.0728 216.231 57.6995C216.011 57.3261 215.901 56.8861 215.901 56.3795C215.901 55.8728 216.011 55.4395 216.231 55.0795C216.444 54.7128 216.744 54.4328 217.131 54.2395C217.517 54.0395 217.967 53.9395 218.481 53.9395C218.994 53.9395 219.447 54.0395 219.841 54.2395C220.227 54.4328 220.531 54.7128 220.751 55.0795C220.964 55.4395 221.071 55.8728 221.071 56.3795ZM220.111 56.3795C220.111 55.8595 219.981 55.4961 219.721 55.2895C219.454 55.0828 219.041 54.9795 218.481 54.9795C217.921 54.9795 217.511 55.0828 217.251 55.2895C216.991 55.4961 216.861 55.8595 216.861 56.3795C216.861 56.9061 216.991 57.2728 217.251 57.4795C217.511 57.6861 217.921 57.7895 218.481 57.7895C219.041 57.7895 219.454 57.6861 219.721 57.4795C219.981 57.2728 220.111 56.9061 220.111 56.3795ZM220.971 52.0423V53.1223H214.271V52.0423H220.971ZM220.971 49.8548V50.9348H214.271V49.8548H220.971ZM221.071 43.9514C221.071 44.5847 220.931 45.1381 220.651 45.6114C220.364 46.0781 219.964 46.4414 219.451 46.7014C218.931 46.9547 218.321 47.0814 217.621 47.0814C216.921 47.0814 216.314 46.9547 215.801 46.7014C215.281 46.4414 214.881 46.0781 214.601 45.6114C214.314 45.1381 214.171 44.5847 214.171 43.9514C214.171 43.3114 214.314 42.7581 214.601 42.2914C214.881 41.8247 215.281 41.4647 215.801 41.2114C216.314 40.9581 216.921 40.8314 217.621 40.8314C218.321 40.8314 218.931 40.9581 219.451 41.2114C219.964 41.4647 220.364 41.8247 220.651 42.2914C220.931 42.7581 221.071 43.3114 221.071 43.9514ZM220.021 43.9514C220.021 43.4847 219.944 43.1081 219.791 42.8214C219.631 42.5347 219.374 42.3247 219.021 42.1914C218.667 42.0514 218.201 41.9814 217.621 41.9814C217.034 41.9814 216.567 42.0514 216.221 42.1914C215.867 42.3247 215.611 42.5347 215.451 42.8214C215.291 43.1081 215.211 43.4847 215.211 43.9514C215.211 44.4114 215.291 44.7881 215.451 45.0814C215.611 45.3747 215.867 45.5914 216.221 45.7314C216.567 45.8647 217.034 45.9314 217.621 45.9314C218.201 45.9314 218.667 45.8647 219.021 45.7314C219.374 45.5914 219.631 45.3747 219.791 45.0814C219.944 44.7881 220.021 44.4114 220.021 43.9514ZM221.071 38.0887C221.071 38.5154 220.984 38.8687 220.811 39.1488C220.631 39.4287 220.391 39.6354 220.091 39.7687C219.784 39.9021 219.444 39.9687 219.071 39.9687H216.001V38.8887H218.871C219.317 38.8887 219.641 38.7954 219.841 38.6087C220.041 38.4221 220.141 38.1154 220.141 37.6887C220.141 37.4087 220.097 37.1721 220.011 36.9787C219.917 36.7854 219.774 36.6387 219.581 36.5387C219.381 36.4387 219.121 36.3887 218.801 36.3887V36.1087H219.981V36.3487C220.167 36.4221 220.344 36.5354 220.511 36.6887C220.677 36.8354 220.814 37.0254 220.921 37.2587C221.021 37.4854 221.071 37.7621 221.071 38.0887ZM220.971 35.3087V36.3087H219.481L219.431 36.3887H216.001V35.3087H220.971ZM220.971 32.224C220.971 32.7707 220.854 33.1907 220.621 33.484C220.387 33.7707 219.994 33.914 219.441 33.914H216.111L214.771 33.664V32.834H219.391C219.651 32.834 219.817 32.7707 219.891 32.644C219.957 32.5107 219.991 32.274 219.991 31.934V31.334H220.881C220.907 31.434 220.931 31.564 220.951 31.724C220.964 31.884 220.971 32.0507 220.971 32.224ZM216.901 31.334V34.744H216.001V31.334H216.901Z" fill="#3F3F46"/>
<circle cx="167.591" cy="149.474" r="4.08468" transform="rotate(-180 167.591 149.474)" stroke="#213147" stroke-width="0.875289"/>
<circle cx="167.589" cy="149.476" r="3.06351" transform="rotate(-180 167.589 149.476)" fill="#213147"/>
<path d="M167.592 144.953L167.592 120.56" stroke="#213147" stroke-width="0.361786"/>
<rect width="77" height="14" transform="matrix(0 -1 1 0 163.068 112.559)" fill="white"/>
<path d="M173.168 109.289C173.168 109.929 173.078 110.452 172.898 110.859C172.712 111.265 172.455 111.569 172.128 111.769C171.795 111.962 171.415 112.059 170.988 112.059H170.818V110.999H170.928C171.202 110.999 171.432 110.952 171.618 110.859C171.805 110.759 171.945 110.582 172.038 110.329C172.132 110.075 172.178 109.712 172.178 109.239C172.178 108.745 172.108 108.399 171.968 108.199C171.822 107.999 171.595 107.899 171.288 107.899C171.082 107.899 170.915 107.929 170.788 107.989C170.662 108.049 170.558 108.169 170.478 108.349C170.392 108.522 170.315 108.782 170.248 109.129L170.018 110.269C169.945 110.655 169.832 110.979 169.678 111.239C169.518 111.499 169.315 111.699 169.068 111.839C168.822 111.972 168.525 112.039 168.178 112.039C167.845 112.039 167.535 111.952 167.248 111.779C166.955 111.599 166.718 111.325 166.538 110.959C166.358 110.585 166.268 110.112 166.268 109.539C166.268 108.925 166.372 108.429 166.578 108.049C166.785 107.662 167.058 107.382 167.398 107.209C167.732 107.029 168.098 106.939 168.498 106.939H168.618V108.009H168.508C168.228 108.009 167.998 108.055 167.818 108.149C167.632 108.235 167.492 108.395 167.398 108.629C167.298 108.855 167.248 109.165 167.248 109.559C167.248 110.052 167.322 110.409 167.468 110.629C167.615 110.849 167.835 110.959 168.128 110.959C168.328 110.959 168.488 110.925 168.608 110.859C168.728 110.785 168.825 110.662 168.898 110.489C168.965 110.309 169.035 110.069 169.108 109.769L169.348 108.629C169.428 108.202 169.555 107.859 169.728 107.599C169.902 107.332 170.115 107.135 170.368 107.009C170.615 106.882 170.908 106.819 171.248 106.819C171.595 106.819 171.915 106.905 172.208 107.079C172.502 107.252 172.735 107.522 172.908 107.889C173.082 108.249 173.168 108.715 173.168 109.289ZM173.178 103.812C173.178 104.332 173.068 104.772 172.848 105.132C172.628 105.492 172.325 105.769 171.938 105.962C171.552 106.149 171.102 106.242 170.588 106.242C170.075 106.242 169.625 106.146 169.238 105.952C168.845 105.752 168.542 105.469 168.328 105.102C168.108 104.736 167.998 104.292 167.998 103.772C167.998 103.332 168.082 102.946 168.248 102.612C168.415 102.279 168.648 102.022 168.948 101.842C169.248 101.656 169.598 101.562 169.998 101.562H170.088V102.632H170.028C169.662 102.632 169.395 102.732 169.228 102.932C169.055 103.126 168.968 103.429 168.968 103.842C168.968 104.322 169.105 104.666 169.378 104.872C169.645 105.072 170.045 105.172 170.578 105.172C171.118 105.172 171.525 105.072 171.798 104.872C172.065 104.666 172.198 104.322 172.198 103.842C172.198 103.429 172.115 103.126 171.948 102.932C171.775 102.732 171.508 102.632 171.148 102.632H171.088V101.562H171.178C171.565 101.562 171.912 101.656 172.218 101.842C172.518 102.029 172.755 102.292 172.928 102.632C173.095 102.966 173.178 103.359 173.178 103.812ZM173.068 99.6693V100.749H168.068V99.7593H169.458L169.508 99.6693H173.068ZM169.828 99.6693V99.9193H168.858V99.7093C168.625 99.6093 168.425 99.446 168.258 99.2193C168.085 98.986 167.998 98.686 167.998 98.3193C167.998 97.966 168.075 97.686 168.228 97.4793C168.382 97.266 168.585 97.1126 168.838 97.0193C169.092 96.926 169.375 96.8793 169.688 96.8793H170.018V97.9593H169.818C169.485 97.9593 169.252 98.016 169.118 98.1293C168.985 98.2426 168.918 98.456 168.918 98.7693C168.918 99.096 168.988 99.3293 169.128 99.4693C169.262 99.6026 169.495 99.6693 169.828 99.6693ZM173.168 93.9787C173.168 94.5187 173.062 94.9687 172.848 95.3287C172.628 95.6887 172.325 95.9554 171.938 96.1287C171.545 96.3021 171.092 96.3888 170.578 96.3888C170.065 96.3888 169.615 96.2921 169.228 96.0987C168.842 95.8987 168.542 95.6187 168.328 95.2587C168.108 94.8987 167.998 94.4721 167.998 93.9787C167.998 93.5321 168.085 93.1387 168.258 92.7987C168.425 92.4521 168.668 92.1854 168.988 91.9987C169.308 91.8054 169.695 91.7087 170.148 91.7087C170.282 91.7087 170.412 91.7154 170.538 91.7287C170.658 91.7354 170.758 91.7454 170.838 91.7587V95.8787H170.118V92.6387L170.218 92.7487C169.912 92.7221 169.662 92.7554 169.468 92.8487C169.275 92.9354 169.132 93.0787 169.038 93.2787C168.945 93.4721 168.898 93.7154 168.898 94.0087C168.898 94.5354 169.032 94.8954 169.298 95.0887C169.558 95.2821 169.918 95.3787 170.378 95.3787H170.678C171.012 95.3787 171.295 95.3387 171.528 95.2587C171.755 95.1721 171.925 95.0254 172.038 94.8187C172.152 94.6121 172.208 94.3287 172.208 93.9687C172.208 93.5487 172.142 93.2521 172.008 93.0787C171.875 92.9054 171.698 92.8187 171.478 92.8187H171.398V91.7487H171.488C171.828 91.7487 172.125 91.8421 172.378 92.0287C172.625 92.2154 172.818 92.4754 172.958 92.8087C173.098 93.1354 173.168 93.5254 173.168 93.9787ZM173.168 88.5881C173.168 89.1281 173.062 89.5781 172.848 89.9381C172.628 90.2981 172.325 90.5648 171.938 90.7381C171.545 90.9115 171.092 90.9981 170.578 90.9981C170.065 90.9981 169.615 90.9015 169.228 90.7081C168.842 90.5081 168.542 90.2281 168.328 89.8681C168.108 89.5081 167.998 89.0815 167.998 88.5881C167.998 88.1415 168.085 87.7481 168.258 87.4081C168.425 87.0615 168.668 86.7948 168.988 86.6081C169.308 86.4148 169.695 86.3181 170.148 86.3181C170.282 86.3181 170.412 86.3248 170.538 86.3381C170.658 86.3448 170.758 86.3548 170.838 86.3681V90.4881H170.118V87.2481L170.218 87.3581C169.912 87.3315 169.662 87.3648 169.468 87.4581C169.275 87.5448 169.132 87.6881 169.038 87.8881C168.945 88.0815 168.898 88.3248 168.898 88.6181C168.898 89.1448 169.032 89.5048 169.298 89.6981C169.558 89.8915 169.918 89.9881 170.378 89.9881H170.678C171.012 89.9881 171.295 89.9481 171.528 89.8681C171.755 89.7815 171.925 89.6348 172.038 89.4281C172.152 89.2215 172.208 88.9381 172.208 88.5781C172.208 88.1581 172.142 87.8615 172.008 87.6881C171.875 87.5148 171.698 87.4281 171.478 87.4281H171.398V86.3581H171.488C171.828 86.3581 172.125 86.4515 172.378 86.6381C172.625 86.8248 172.818 87.0848 172.958 87.4181C173.098 87.7448 173.168 88.1348 173.168 88.5881ZM173.068 80.8263V81.9063H170.178C169.738 81.9063 169.422 81.9897 169.228 82.1563C169.028 82.323 168.928 82.6363 168.928 83.0963C168.928 83.3897 168.972 83.6297 169.058 83.8163C169.138 84.003 169.272 84.143 169.458 84.2363C169.638 84.3297 169.885 84.3763 170.198 84.3763V84.5663L169.028 84.6563V84.4163C168.848 84.343 168.682 84.233 168.528 84.0863C168.375 83.9397 168.248 83.753 168.148 83.5263C168.048 83.293 167.998 83.0163 167.998 82.6963C167.998 82.263 168.082 81.9097 168.248 81.6363C168.415 81.363 168.645 81.1597 168.938 81.0263C169.232 80.893 169.568 80.8263 169.948 80.8263H173.068ZM173.068 84.3763V85.4563H168.098V84.4663H169.588L169.638 84.3763H173.068ZM167.468 78.7823V79.8523L166.368 79.8623V78.7823H167.468ZM173.068 78.7723V79.8523H168.068V78.7723H173.068ZM173.068 73.1505V74.2305H170.178C169.738 74.2305 169.422 74.3139 169.228 74.4805C169.028 74.6472 168.928 74.9605 168.928 75.4205C168.928 75.7139 168.972 75.9539 169.058 76.1405C169.138 76.3272 169.272 76.4672 169.458 76.5605C169.638 76.6539 169.885 76.7005 170.198 76.7005V76.8905L169.028 76.9805V76.7405C168.848 76.6672 168.682 76.5572 168.528 76.4105C168.375 76.2639 168.248 76.0772 168.148 75.8505C168.048 75.6172 167.998 75.3405 167.998 75.0205C167.998 74.5872 168.082 74.2339 168.248 73.9605C168.415 73.6872 168.645 73.4839 168.938 73.3505C169.232 73.2172 169.568 73.1505 169.948 73.1505H173.068ZM173.068 76.7005V77.7805H168.098V76.7905H169.588L169.638 76.7005H173.068ZM174.868 69.786C174.868 70.2527 174.795 70.6593 174.648 71.006C174.502 71.346 174.288 71.6093 174.008 71.796C173.735 71.9827 173.398 72.076 172.998 72.076V70.996C173.225 70.996 173.405 70.9627 173.538 70.896C173.672 70.8293 173.765 70.706 173.818 70.526C173.878 70.346 173.908 70.0893 173.908 69.756C173.908 69.4293 173.872 69.1793 173.798 69.006C173.725 68.8327 173.602 68.7127 173.428 68.646C173.255 68.5793 173.015 68.546 172.708 68.546H169.408L169.278 68.466H168.098V67.466H172.708C173.195 67.466 173.595 67.5593 173.908 67.746C174.228 67.9327 174.468 68.1993 174.628 68.546C174.788 68.886 174.868 69.2993 174.868 69.786ZM172.598 70.206C172.598 70.8927 172.392 71.4193 171.978 71.786C171.558 72.1527 170.998 72.336 170.298 72.336C169.598 72.336 169.042 72.1493 168.628 71.776C168.208 71.4027 167.998 70.866 167.998 70.166C167.998 69.7593 168.082 69.4093 168.248 69.116C168.408 68.8227 168.632 68.6193 168.918 68.506V68.306L170.138 68.356V68.546C169.858 68.546 169.628 68.6027 169.448 68.716C169.268 68.8293 169.135 68.9893 169.048 69.196C168.962 69.4027 168.918 69.6427 168.918 69.916C168.918 70.2293 168.962 70.486 169.048 70.686C169.135 70.8793 169.282 71.0227 169.488 71.116C169.688 71.2093 169.958 71.256 170.298 71.256C170.552 71.256 170.768 71.2293 170.948 71.176C171.122 71.1227 171.262 71.0393 171.368 70.926C171.475 70.8127 171.555 70.6693 171.608 70.496C171.655 70.3227 171.678 70.1227 171.678 69.896C171.678 69.6227 171.635 69.386 171.548 69.186C171.455 68.986 171.318 68.8293 171.138 68.716C170.958 68.6027 170.728 68.546 170.448 68.546V68.326H171.718V68.586C171.958 68.6993 172.165 68.896 172.338 69.176C172.512 69.456 172.598 69.7993 172.598 70.206ZM170.908 61.6388V64.0788H169.938V61.5088C169.938 61.0688 169.842 60.7555 169.648 60.5688C169.455 60.3755 169.118 60.2788 168.638 60.2788C168.158 60.2788 167.822 60.3755 167.628 60.5688C167.435 60.7555 167.338 61.0688 167.338 61.5088V64.0788H166.368V61.6388C166.368 61.1722 166.458 60.7555 166.638 60.3888C166.818 60.0222 167.078 59.7355 167.418 59.5288C167.752 59.3155 168.158 59.2088 168.638 59.2088C169.118 59.2088 169.528 59.3155 169.868 59.5288C170.208 59.7355 170.468 60.0222 170.648 60.3888C170.822 60.7555 170.908 61.1722 170.908 61.6388ZM173.068 63.4088V64.4888H166.368V63.4088H173.068ZM173.168 56.4299C173.168 56.9699 173.062 57.4199 172.848 57.7799C172.628 58.1399 172.325 58.4066 171.938 58.5799C171.545 58.7533 171.092 58.8399 170.578 58.8399C170.065 58.8399 169.615 58.7433 169.228 58.5499C168.842 58.3499 168.542 58.0699 168.328 57.7099C168.108 57.3499 167.998 56.9233 167.998 56.4299C167.998 55.9833 168.085 55.5899 168.258 55.2499C168.425 54.9033 168.668 54.6366 168.988 54.4499C169.308 54.2566 169.695 54.1599 170.148 54.1599C170.282 54.1599 170.412 54.1666 170.538 54.1799C170.658 54.1866 170.758 54.1966 170.838 54.2099V58.3299H170.118V55.0899L170.218 55.1999C169.912 55.1733 169.662 55.2066 169.468 55.2999C169.275 55.3866 169.132 55.5299 169.038 55.7299C168.945 55.9233 168.898 56.1666 168.898 56.4599C168.898 56.9866 169.032 57.3466 169.298 57.5399C169.558 57.7333 169.918 57.8299 170.378 57.8299H170.678C171.012 57.8299 171.295 57.7899 171.528 57.7099C171.755 57.6233 171.925 57.4766 172.038 57.2699C172.152 57.0633 172.208 56.7799 172.208 56.4199C172.208 55.9999 172.142 55.7033 172.008 55.5299C171.875 55.3566 171.698 55.2699 171.478 55.2699H171.398V54.1999H171.488C171.828 54.1999 172.125 54.2933 172.378 54.4799C172.625 54.6666 172.818 54.9266 172.958 55.2599C173.098 55.5866 173.168 55.9766 173.168 56.4299ZM173.068 52.2181V53.2981H168.068V52.3081H169.458L169.508 52.2181H173.068ZM169.828 52.2181V52.4681H168.858V52.2581C168.625 52.1581 168.425 51.9948 168.258 51.7681C168.085 51.5348 167.998 51.2348 167.998 50.8681C167.998 50.5148 168.075 50.2348 168.228 50.0281C168.382 49.8148 168.585 49.6615 168.838 49.5681C169.092 49.4748 169.375 49.4281 169.688 49.4281H170.018V50.5081H169.818C169.485 50.5081 169.252 50.5648 169.118 50.6781C168.985 50.7915 168.918 51.0048 168.918 51.3181C168.918 51.6448 168.988 51.8781 169.128 52.0181C169.262 52.1515 169.495 52.2181 169.828 52.2181ZM167.468 47.7862V48.8562L166.368 48.8662V47.7862H167.468ZM173.068 47.7762V48.8562H168.068V47.7762H173.068ZM173.168 44.5533C173.168 45.0599 173.062 45.4999 172.848 45.8733C172.628 46.2466 172.325 46.5333 171.938 46.7333C171.545 46.9333 171.092 47.0333 170.578 47.0333C170.065 47.0333 169.615 46.9333 169.228 46.7333C168.842 46.5333 168.542 46.2466 168.328 45.8733C168.108 45.4999 167.998 45.0599 167.998 44.5533C167.998 44.0466 168.108 43.6133 168.328 43.2533C168.542 42.8866 168.842 42.6066 169.228 42.4133C169.615 42.2133 170.065 42.1133 170.578 42.1133C171.092 42.1133 171.545 42.2133 171.938 42.4133C172.325 42.6066 172.628 42.8866 172.848 43.2533C173.062 43.6133 173.168 44.0466 173.168 44.5533ZM172.208 44.5533C172.208 44.0333 172.078 43.6699 171.818 43.4633C171.552 43.2566 171.138 43.1533 170.578 43.1533C170.018 43.1533 169.608 43.2566 169.348 43.4633C169.088 43.6699 168.958 44.0333 168.958 44.5533C168.958 45.0799 169.088 45.4466 169.348 45.6533C169.608 45.8599 170.018 45.9633 170.578 45.9633C171.138 45.9633 171.552 45.8599 171.818 45.6533C172.078 45.4466 172.208 45.0799 172.208 44.5533ZM173.168 39.2671C173.168 39.9738 172.935 40.5171 172.468 40.8971C171.995 41.2704 171.365 41.4571 170.578 41.4571C169.792 41.4571 169.165 41.2738 168.698 40.9071C168.232 40.5338 167.998 40.0071 167.998 39.3271C167.998 38.8871 168.088 38.5338 168.268 38.2671C168.442 37.9938 168.642 37.8038 168.868 37.6971V37.4271L170.138 37.4771V37.6671C169.858 37.6671 169.628 37.7204 169.448 37.8271C169.268 37.9338 169.135 38.0871 169.048 38.2871C168.962 38.4871 168.918 38.7338 168.918 39.0271C168.918 39.2671 168.948 39.4738 169.008 39.6471C169.068 39.8138 169.162 39.9538 169.288 40.0671C169.415 40.1738 169.585 40.2538 169.798 40.3071C170.012 40.3538 170.272 40.3771 170.578 40.3771C170.878 40.3771 171.138 40.3538 171.358 40.3071C171.572 40.2538 171.745 40.1738 171.878 40.0671C172.005 39.9538 172.098 39.8104 172.158 39.6371C172.218 39.4638 172.248 39.2604 172.248 39.0271C172.248 38.7338 172.205 38.4871 172.118 38.2871C172.025 38.0871 171.888 37.9338 171.708 37.8271C171.528 37.7204 171.302 37.6671 171.028 37.6671V37.4771L172.248 37.4271V37.6271C172.535 37.7404 172.762 37.9371 172.928 38.2171C173.088 38.4904 173.168 38.8404 173.168 39.2671ZM173.068 36.5871V37.5871H171.888L171.758 37.6671H166.368V36.5871H173.068Z" fill="#3F3F46"/>
<circle cx="61.7824" cy="149.474" r="4.08468" transform="rotate(-180 61.7824 149.474)" stroke="#213147" stroke-width="0.875289"/>
<circle cx="61.7802" cy="149.476" r="3.06351" transform="rotate(-180 61.7802 149.476)" fill="#213147"/>
<path d="M61.7832 144.953L61.7832 120.56" stroke="#213147" stroke-width="0.361786"/>
<rect width="82" height="14" transform="matrix(0 -1 1 0 57.2598 112.559)" fill="white"/>
<path d="M67.2598 111.339V112.469L60.5598 109.859V108.309L67.2598 105.699V106.869L62.7798 108.629L61.5298 109.059V109.139L62.7798 109.579L67.2598 111.339ZM65.5198 106.959V111.179H64.5498V106.959H65.5198ZM67.3598 102.434C67.3598 102.88 67.2731 103.244 67.0998 103.524C66.9198 103.797 66.7164 103.987 66.4898 104.094V104.364L65.2198 104.314V104.124C65.4931 104.124 65.7198 104.074 65.8998 103.974C66.0798 103.867 66.2164 103.71 66.3098 103.504C66.3964 103.297 66.4398 103.05 66.4398 102.764C66.4398 102.53 66.4098 102.327 66.3498 102.154C66.2898 101.98 66.1964 101.84 66.0698 101.734C65.9431 101.62 65.7731 101.54 65.5598 101.494C65.3398 101.44 65.0764 101.414 64.7698 101.414C64.4631 101.414 64.2064 101.44 63.9998 101.494C63.7864 101.54 63.6131 101.62 63.4798 101.734C63.3464 101.84 63.2531 101.98 63.1998 102.154C63.1398 102.32 63.1098 102.524 63.1098 102.764C63.1098 103.05 63.1564 103.297 63.2498 103.504C63.3364 103.71 63.4698 103.867 63.6498 103.974C63.8231 104.074 64.0498 104.124 64.3298 104.124V104.314L63.1098 104.364V104.164C62.8231 104.044 62.5998 103.847 62.4398 103.574C62.2731 103.294 62.1898 102.937 62.1898 102.504C62.1898 101.804 62.4231 101.267 62.8898 100.894C63.3564 100.52 63.9831 100.334 64.7698 100.334C65.5564 100.334 66.1864 100.514 66.6598 100.874C67.1264 101.234 67.3598 101.754 67.3598 102.434ZM68.9898 104.124V105.194H62.2898V104.214H63.4698L63.5998 104.124H68.9898ZM67.3598 96.75C67.3598 97.1967 67.2731 97.56 67.0998 97.84C66.9198 98.1133 66.7164 98.3033 66.4898 98.41V98.68L65.2198 98.63V98.44C65.4931 98.44 65.7198 98.39 65.8998 98.29C66.0798 98.1833 66.2164 98.0267 66.3098 97.82C66.3964 97.6133 66.4398 97.3667 66.4398 97.08C66.4398 96.8467 66.4098 96.6433 66.3498 96.47C66.2898 96.2967 66.1964 96.1567 66.0698 96.05C65.9431 95.9367 65.7731 95.8567 65.5598 95.81C65.3398 95.7567 65.0764 95.73 64.7698 95.73C64.4631 95.73 64.2064 95.7567 63.9998 95.81C63.7864 95.8567 63.6131 95.9367 63.4798 96.05C63.3464 96.1567 63.2531 96.2967 63.1998 96.47C63.1398 96.6367 63.1098 96.84 63.1098 97.08C63.1098 97.3667 63.1564 97.6133 63.2498 97.82C63.3364 98.0267 63.4698 98.1833 63.6498 98.29C63.8231 98.39 64.0498 98.44 64.3298 98.44V98.63L63.1098 98.68V98.48C62.8231 98.36 62.5998 98.1633 62.4398 97.89C62.2731 97.61 62.1898 97.2533 62.1898 96.82C62.1898 96.12 62.4231 95.5833 62.8898 95.21C63.3564 94.8367 63.9831 94.65 64.7698 94.65C65.5564 94.65 66.1864 94.83 66.6598 95.19C67.1264 95.55 67.3598 96.07 67.3598 96.75ZM68.9898 98.44V99.51H62.2898V98.53H63.4698L63.5998 98.44H68.9898ZM67.2598 92.6966V93.7766H60.5598V92.6966H67.2598ZM61.6598 90.628V91.698L60.5598 91.708V90.628H61.6598ZM67.2598 90.618V91.698H62.2598V90.618H67.2598ZM67.3698 87.4451C67.3698 87.9651 67.2598 88.4051 67.0398 88.7651C66.8198 89.1251 66.5164 89.4017 66.1298 89.5951C65.7431 89.7817 65.2931 89.8751 64.7798 89.8751C64.2664 89.8751 63.8164 89.7784 63.4298 89.5851C63.0364 89.3851 62.7331 89.1017 62.5198 88.7351C62.2998 88.3684 62.1898 87.9251 62.1898 87.4051C62.1898 86.9651 62.2731 86.5784 62.4398 86.2451C62.6064 85.9117 62.8398 85.6551 63.1398 85.4751C63.4398 85.2884 63.7898 85.1951 64.1898 85.1951H64.2798V86.2651H64.2198C63.8531 86.2651 63.5864 86.3651 63.4198 86.5651C63.2464 86.7584 63.1598 87.0617 63.1598 87.4751C63.1598 87.9551 63.2964 88.2984 63.5698 88.5051C63.8364 88.7051 64.2364 88.8051 64.7698 88.8051C65.3098 88.8051 65.7164 88.7051 65.9898 88.5051C66.2564 88.2984 66.3898 87.9551 66.3898 87.4751C66.3898 87.0617 66.3064 86.7584 66.1398 86.5651C65.9664 86.3651 65.6998 86.2651 65.3398 86.2651H65.2798V85.1951H65.3698C65.7564 85.1951 66.1031 85.2884 66.4098 85.4751C66.7098 85.6617 66.9464 85.9251 67.1198 86.2651C67.2864 86.5984 67.3698 86.9917 67.3698 87.4451ZM67.2598 80.133V81.133H66.2798L66.0098 81.163H64.0998C63.7264 81.163 63.4731 81.253 63.3398 81.433C63.2064 81.6064 63.1398 81.8897 63.1398 82.283C63.1398 82.6764 63.2098 82.9597 63.3498 83.133C63.4898 83.2997 63.7231 83.383 64.0498 83.383H64.1998V84.423H64.0998C63.7264 84.423 63.3964 84.333 63.1098 84.153C62.8231 83.9664 62.5998 83.7097 62.4398 83.383C62.2731 83.0497 62.1898 82.663 62.1898 82.223C62.1898 81.7564 62.2764 81.3697 62.4498 81.063C62.6231 80.7564 62.8631 80.5264 63.1698 80.373C63.4698 80.213 63.8264 80.133 64.2398 80.133H67.2598ZM67.3598 82.983C67.3598 83.4297 67.2464 83.8064 67.0198 84.113C66.7864 84.413 66.4564 84.563 66.0298 84.563C65.7498 84.563 65.5164 84.4997 65.3298 84.373C65.1431 84.2397 64.9898 84.0497 64.8698 83.803C64.7498 83.5564 64.6664 83.2564 64.6198 82.903L64.3598 81.063H65.1198L65.3698 82.743C65.4098 83.0297 65.4698 83.2297 65.5498 83.343C65.6298 83.4564 65.7631 83.513 65.9498 83.513C66.1431 83.513 66.2831 83.4464 66.3698 83.313C66.4564 83.173 66.4998 82.9464 66.4998 82.633C66.4998 82.393 66.4631 82.163 66.3898 81.943C66.3098 81.7164 66.1798 81.5297 65.9998 81.383C65.8131 81.2364 65.5531 81.163 65.2198 81.163L66.4898 81.023L66.4798 81.183C66.6331 81.2764 66.7764 81.4064 66.9098 81.573C67.0431 81.733 67.1531 81.9297 67.2398 82.163C67.3198 82.3964 67.3598 82.6697 67.3598 82.983ZM67.2598 77.0775C67.2598 77.6242 67.1431 78.0442 66.9098 78.3375C66.6764 78.6242 66.2831 78.7675 65.7298 78.7675H62.3998L61.0598 78.5175V77.6875H65.6798C65.9398 77.6875 66.1064 77.6242 66.1798 77.4975C66.2464 77.3642 66.2798 77.1275 66.2798 76.7875V76.1875H67.1698C67.1964 76.2875 67.2198 76.4175 67.2398 76.5775C67.2531 76.7375 67.2598 76.9042 67.2598 77.0775ZM63.1898 76.1875V79.5975H62.2898V76.1875H63.1898ZM61.6598 74.4756V75.5456L60.5598 75.5556V74.4756H61.6598ZM67.2598 74.4656V75.5456H62.2598V74.4656H67.2598ZM67.3598 71.2427C67.3598 71.7494 67.2531 72.1894 67.0398 72.5627C66.8198 72.9361 66.5164 73.2227 66.1298 73.4227C65.7364 73.6227 65.2831 73.7227 64.7698 73.7227C64.2564 73.7227 63.8064 73.6227 63.4198 73.4227C63.0331 73.2227 62.7331 72.9361 62.5198 72.5627C62.2998 72.1894 62.1898 71.7494 62.1898 71.2427C62.1898 70.7361 62.2998 70.3027 62.5198 69.9427C62.7331 69.5761 63.0331 69.2961 63.4198 69.1027C63.8064 68.9027 64.2564 68.8027 64.7698 68.8027C65.2831 68.8027 65.7364 68.9027 66.1298 69.1027C66.5164 69.2961 66.8198 69.5761 67.0398 69.9427C67.2531 70.3027 67.3598 70.7361 67.3598 71.2427ZM66.3998 71.2427C66.3998 70.7227 66.2698 70.3594 66.0098 70.1527C65.7431 69.9461 65.3298 69.8427 64.7698 69.8427C64.2098 69.8427 63.7998 69.9461 63.5398 70.1527C63.2798 70.3594 63.1498 70.7227 63.1498 71.2427C63.1498 71.7694 63.2798 72.1361 63.5398 72.3427C63.7998 72.5494 64.2098 72.6527 64.7698 72.6527C65.3298 72.6527 65.7431 72.5494 66.0098 72.3427C66.2698 72.1361 66.3998 71.7694 66.3998 71.2427ZM67.2598 63.3654V64.4454H64.3698C63.9298 64.4454 63.6131 64.5287 63.4198 64.6954C63.2198 64.8621 63.1198 65.1754 63.1198 65.6354C63.1198 65.9287 63.1631 66.1687 63.2498 66.3554C63.3298 66.5421 63.4631 66.6821 63.6498 66.7754C63.8298 66.8687 64.0764 66.9154 64.3898 66.9154V67.1054L63.2198 67.1954V66.9554C63.0398 66.8821 62.8731 66.7721 62.7198 66.6254C62.5664 66.4787 62.4398 66.2921 62.3398 66.0654C62.2398 65.8321 62.1898 65.5554 62.1898 65.2354C62.1898 64.8021 62.2731 64.4487 62.4398 64.1754C62.6064 63.9021 62.8364 63.6987 63.1298 63.5654C63.4231 63.4321 63.7598 63.3654 64.1398 63.3654H67.2598ZM67.2598 66.9154V67.9954H62.2898V67.0054H63.7798L63.8298 66.9154H67.2598ZM67.3598 60.2706C67.3598 60.9973 67.2164 61.5473 66.9298 61.9206C66.6364 62.294 66.1864 62.4806 65.5798 62.4806H65.5598V61.4406H65.7398C65.9131 61.4406 66.0564 61.4073 66.1698 61.3406C66.2764 61.2673 66.3564 61.1473 66.4098 60.9806C66.4564 60.8073 66.4798 60.564 66.4798 60.2506C66.4798 59.984 66.4598 59.784 66.4198 59.6506C66.3731 59.5106 66.3098 59.4173 66.2298 59.3706C66.1498 59.324 66.0498 59.3006 65.9298 59.3006C65.7298 59.3006 65.5898 59.3706 65.5098 59.5106C65.4231 59.6506 65.3464 59.9006 65.2798 60.2606L65.1498 61.0406C65.0898 61.334 65.0064 61.5906 64.8998 61.8106C64.7864 62.024 64.6331 62.1906 64.4398 62.3106C64.2398 62.424 63.9898 62.4806 63.6898 62.4806C63.2431 62.4806 62.8831 62.304 62.6098 61.9506C62.3298 61.5973 62.1898 61.0973 62.1898 60.4506C62.1898 60.0573 62.2531 59.7073 62.3798 59.4006C62.5064 59.094 62.6964 58.8506 62.9498 58.6706C63.2031 58.4906 63.5198 58.4006 63.8998 58.4006H63.9898V59.4306H63.8698C63.7098 59.4306 63.5731 59.4573 63.4598 59.5106C63.3398 59.564 63.2464 59.664 63.1798 59.8106C63.1131 59.9573 63.0798 60.1806 63.0798 60.4806C63.0798 60.874 63.1298 61.134 63.2298 61.2606C63.3298 61.3873 63.4764 61.4506 63.6698 61.4506C63.8631 61.4506 63.9998 61.394 64.0798 61.2806C64.1531 61.1606 64.2264 60.9273 64.2998 60.5806L64.4598 59.7306C64.5198 59.4106 64.6098 59.144 64.7298 58.9306C64.8498 58.7173 65.0064 58.5573 65.1998 58.4506C65.3931 58.3373 65.6231 58.2806 65.8898 58.2806C66.3564 58.2806 66.7198 58.4573 66.9798 58.8106C67.2331 59.1573 67.3598 59.644 67.3598 60.2706ZM67.3598 52.5647C67.3598 53.2114 67.2198 53.7714 66.9398 54.2447C66.6531 54.7114 66.2531 55.0714 65.7398 55.3247C65.2198 55.5714 64.6098 55.6947 63.9098 55.6947C63.2098 55.6947 62.6031 55.5714 62.0898 55.3247C61.5698 55.0714 61.1698 54.7114 60.8898 54.2447C60.6031 53.7714 60.4598 53.2114 60.4598 52.5647C60.4598 51.958 60.5664 51.4414 60.7798 51.0147C60.9931 50.588 61.2931 50.258 61.6798 50.0247C62.0664 49.7914 62.5298 49.6747 63.0698 49.6747H63.1298V50.8147H63.0698C62.5231 50.8147 62.1264 50.9547 61.8798 51.2347C61.6264 51.508 61.4998 51.9614 61.4998 52.5947C61.4998 53.0547 61.5798 53.428 61.7398 53.7147C61.8998 54.0014 62.1564 54.2114 62.5098 54.3447C62.8631 54.478 63.3298 54.5447 63.9098 54.5447C64.4831 54.5447 64.9498 54.478 65.3098 54.3447C65.6631 54.2114 65.9198 54.0014 66.0798 53.7147C66.2331 53.428 66.3098 53.0547 66.3098 52.5947C66.3098 51.9614 66.1864 51.508 65.9398 51.2347C65.6931 50.9547 65.2964 50.8147 64.7498 50.8147H64.6898V49.6747H64.7498C65.2831 49.6747 65.7464 49.7914 66.1398 50.0247C66.5264 50.258 66.8264 50.588 67.0398 51.0147C67.2531 51.4414 67.3598 51.958 67.3598 52.5647ZM67.2598 47.6771V48.7571H60.5598V47.6771H67.2598ZM67.3598 44.3775C67.3598 44.8842 67.2531 45.3242 67.0398 45.6975C66.8198 46.0708 66.5164 46.3575 66.1298 46.5575C65.7364 46.7575 65.2831 46.8575 64.7698 46.8575C64.2564 46.8575 63.8064 46.7575 63.4198 46.5575C63.0331 46.3575 62.7331 46.0708 62.5198 45.6975C62.2998 45.3242 62.1898 44.8842 62.1898 44.3775C62.1898 43.8708 62.2998 43.4375 62.5198 43.0775C62.7331 42.7108 63.0331 42.4308 63.4198 42.2375C63.8064 42.0375 64.2564 41.9375 64.7698 41.9375C65.2831 41.9375 65.7364 42.0375 66.1298 42.2375C66.5164 42.4308 66.8198 42.7108 67.0398 43.0775C67.2531 43.4375 67.3598 43.8708 67.3598 44.3775ZM66.3998 44.3775C66.3998 43.8575 66.2698 43.4942 66.0098 43.2875C65.7431 43.0808 65.3298 42.9775 64.7698 42.9775C64.2098 42.9775 63.7998 43.0808 63.5398 43.2875C63.2798 43.4942 63.1498 43.8575 63.1498 44.3775C63.1498 44.9042 63.2798 45.2708 63.5398 45.4775C63.7998 45.6842 64.2098 45.7875 64.7698 45.7875C65.3298 45.7875 65.7431 45.6842 66.0098 45.4775C66.2698 45.2708 66.3998 44.9042 66.3998 44.3775ZM67.3598 38.9913C67.3598 39.718 67.2164 40.268 66.9298 40.6413C66.6364 41.0147 66.1864 41.2013 65.5798 41.2013H65.5598V40.1613H65.7398C65.9131 40.1613 66.0564 40.128 66.1698 40.0613C66.2764 39.988 66.3564 39.868 66.4098 39.7013C66.4564 39.528 66.4798 39.2847 66.4798 38.9713C66.4798 38.7047 66.4598 38.5047 66.4198 38.3713C66.3731 38.2313 66.3098 38.138 66.2298 38.0913C66.1498 38.0447 66.0498 38.0213 65.9298 38.0213C65.7298 38.0213 65.5898 38.0913 65.5098 38.2313C65.4231 38.3713 65.3464 38.6213 65.2798 38.9813L65.1498 39.7613C65.0898 40.0547 65.0064 40.3113 64.8998 40.5313C64.7864 40.7447 64.6331 40.9113 64.4398 41.0313C64.2398 41.1447 63.9898 41.2013 63.6898 41.2013C63.2431 41.2013 62.8831 41.0247 62.6098 40.6713C62.3298 40.318 62.1898 39.818 62.1898 39.1713C62.1898 38.778 62.2531 38.428 62.3798 38.1213C62.5064 37.8147 62.6964 37.5713 62.9498 37.3913C63.2031 37.2113 63.5198 37.1213 63.8998 37.1213H63.9898V38.1513H63.8698C63.7098 38.1513 63.5731 38.178 63.4598 38.2313C63.3398 38.2847 63.2464 38.3847 63.1798 38.5313C63.1131 38.678 63.0798 38.9013 63.0798 39.2013C63.0798 39.5947 63.1298 39.8547 63.2298 39.9813C63.3298 40.108 63.4764 40.1713 63.6698 40.1713C63.8631 40.1713 63.9998 40.1147 64.0798 40.0013C64.1531 39.8813 64.2264 39.648 64.2998 39.3013L64.4598 38.4513C64.5198 38.1313 64.6098 37.8647 64.7298 37.6513C64.8498 37.438 65.0064 37.278 65.1998 37.1713C65.3931 37.058 65.6231 37.0013 65.8898 37.0013C66.3564 37.0013 66.7198 37.178 66.9798 37.5313C67.2331 37.878 67.3598 38.3647 67.3598 38.9913ZM67.3598 33.9202C67.3598 34.4602 67.2531 34.9102 67.0398 35.2702C66.8198 35.6302 66.5164 35.8968 66.1298 36.0702C65.7364 36.2435 65.2831 36.3302 64.7698 36.3302C64.2564 36.3302 63.8064 36.2335 63.4198 36.0402C63.0331 35.8402 62.7331 35.5602 62.5198 35.2002C62.2998 34.8402 62.1898 34.4135 62.1898 33.9202C62.1898 33.4735 62.2764 33.0802 62.4498 32.7402C62.6164 32.3935 62.8598 32.1268 63.1798 31.9402C63.4998 31.7468 63.8864 31.6502 64.3398 31.6502C64.4731 31.6502 64.6031 31.6568 64.7298 31.6702C64.8498 31.6768 64.9498 31.6868 65.0298 31.7002V35.8202H64.3098V32.5802L64.4098 32.6902C64.1031 32.6635 63.8531 32.6968 63.6598 32.7902C63.4664 32.8768 63.3231 33.0202 63.2298 33.2202C63.1364 33.4135 63.0898 33.6568 63.0898 33.9502C63.0898 34.4768 63.2231 34.8368 63.4898 35.0302C63.7498 35.2235 64.1098 35.3202 64.5698 35.3202H64.8698C65.2031 35.3202 65.4864 35.2802 65.7198 35.2002C65.9464 35.1135 66.1164 34.9668 66.2298 34.7602C66.3431 34.5535 66.3998 34.2702 66.3998 33.9102C66.3998 33.4902 66.3331 33.1935 66.1998 33.0202C66.0664 32.8468 65.8898 32.7602 65.6698 32.7602H65.5898V31.6902H65.6798C66.0198 31.6902 66.3164 31.7835 66.5698 31.9702C66.8164 32.1568 67.0098 32.4168 67.1498 32.7502C67.2898 33.0768 67.3598 33.4668 67.3598 33.9202Z" fill="#3F3F46"/>
<circle cx="11.8995" cy="149.474" r="4.08468" transform="rotate(-180 11.8995 149.474)" stroke="#213147" stroke-width="0.875289"/>
<circle cx="11.8974" cy="149.476" r="3.06351" transform="rotate(-180 11.8974 149.476)" fill="#213147"/>
<path d="M11.9004 144.953L11.9004 120.56" stroke="#213147" stroke-width="0.361786"/>
<rect width="81" height="14" transform="matrix(0 -1 1 0 7.37695 112.559)" fill="white"/>
<path d="M17.377 111.339V112.469L10.677 109.859V108.309L17.377 105.699V106.869L12.897 108.629L11.647 109.059V109.139L12.897 109.579L17.377 111.339ZM15.637 106.959V111.179H14.667V106.959H15.637ZM17.477 102.434C17.477 102.88 17.3903 103.244 17.217 103.524C17.037 103.797 16.8336 103.987 16.607 104.094V104.364L15.337 104.314V104.124C15.6103 104.124 15.837 104.074 16.017 103.974C16.197 103.867 16.3336 103.71 16.427 103.504C16.5136 103.297 16.557 103.05 16.557 102.764C16.557 102.53 16.527 102.327 16.467 102.154C16.407 101.98 16.3136 101.84 16.187 101.734C16.0603 101.62 15.8903 101.54 15.677 101.494C15.457 101.44 15.1936 101.414 14.887 101.414C14.5803 101.414 14.3236 101.44 14.117 101.494C13.9036 101.54 13.7303 101.62 13.597 101.734C13.4636 101.84 13.3703 101.98 13.317 102.154C13.257 102.32 13.227 102.524 13.227 102.764C13.227 103.05 13.2736 103.297 13.367 103.504C13.4536 103.71 13.587 103.867 13.767 103.974C13.9403 104.074 14.167 104.124 14.447 104.124V104.314L13.227 104.364V104.164C12.9403 104.044 12.717 103.847 12.557 103.574C12.3903 103.294 12.307 102.937 12.307 102.504C12.307 101.804 12.5403 101.267 13.007 100.894C13.4736 100.52 14.1003 100.334 14.887 100.334C15.6736 100.334 16.3036 100.514 16.777 100.874C17.2436 101.234 17.477 101.754 17.477 102.434ZM19.107 104.124V105.194H12.407V104.214H13.587L13.717 104.124H19.107ZM17.477 96.75C17.477 97.1967 17.3903 97.56 17.217 97.84C17.037 98.1133 16.8336 98.3033 16.607 98.41V98.68L15.337 98.63V98.44C15.6103 98.44 15.837 98.39 16.017 98.29C16.197 98.1833 16.3336 98.0267 16.427 97.82C16.5136 97.6133 16.557 97.3667 16.557 97.08C16.557 96.8467 16.527 96.6433 16.467 96.47C16.407 96.2967 16.3136 96.1567 16.187 96.05C16.0603 95.9367 15.8903 95.8567 15.677 95.81C15.457 95.7567 15.1936 95.73 14.887 95.73C14.5803 95.73 14.3236 95.7567 14.117 95.81C13.9036 95.8567 13.7303 95.9367 13.597 96.05C13.4636 96.1567 13.3703 96.2967 13.317 96.47C13.257 96.6367 13.227 96.84 13.227 97.08C13.227 97.3667 13.2736 97.6133 13.367 97.82C13.4536 98.0267 13.587 98.1833 13.767 98.29C13.9403 98.39 14.167 98.44 14.447 98.44V98.63L13.227 98.68V98.48C12.9403 98.36 12.717 98.1633 12.557 97.89C12.3903 97.61 12.307 97.2533 12.307 96.82C12.307 96.12 12.5403 95.5833 13.007 95.21C13.4736 94.8367 14.1003 94.65 14.887 94.65C15.6736 94.65 16.3036 94.83 16.777 95.19C17.2436 95.55 17.477 96.07 17.477 96.75ZM19.107 98.44V99.51H12.407V98.53H13.587L13.717 98.44H19.107ZM17.377 92.6966V93.7766H10.677V92.6966H17.377ZM11.777 90.628V91.698L10.677 91.708V90.628H11.777ZM17.377 90.618V91.698H12.377V90.618H17.377ZM17.487 87.4451C17.487 87.9651 17.377 88.4051 17.157 88.7651C16.937 89.1251 16.6336 89.4017 16.247 89.5951C15.8603 89.7817 15.4103 89.8751 14.897 89.8751C14.3836 89.8751 13.9336 89.7784 13.547 89.5851C13.1536 89.3851 12.8503 89.1017 12.637 88.7351C12.417 88.3684 12.307 87.9251 12.307 87.4051C12.307 86.9651 12.3903 86.5784 12.557 86.2451C12.7236 85.9117 12.957 85.6551 13.257 85.4751C13.557 85.2884 13.907 85.1951 14.307 85.1951H14.397V86.2651H14.337C13.9703 86.2651 13.7036 86.3651 13.537 86.5651C13.3636 86.7584 13.277 87.0617 13.277 87.4751C13.277 87.9551 13.4136 88.2984 13.687 88.5051C13.9536 88.7051 14.3536 88.8051 14.887 88.8051C15.427 88.8051 15.8336 88.7051 16.107 88.5051C16.3736 88.2984 16.507 87.9551 16.507 87.4751C16.507 87.0617 16.4236 86.7584 16.257 86.5651C16.0836 86.3651 15.817 86.2651 15.457 86.2651H15.397V85.1951H15.487C15.8736 85.1951 16.2203 85.2884 16.527 85.4751C16.827 85.6617 17.0636 85.9251 17.237 86.2651C17.4036 86.5984 17.487 86.9917 17.487 87.4451ZM17.377 80.133V81.133H16.397L16.127 81.163H14.217C13.8436 81.163 13.5903 81.253 13.457 81.433C13.3236 81.6064 13.257 81.8897 13.257 82.283C13.257 82.6764 13.327 82.9597 13.467 83.133C13.607 83.2997 13.8403 83.383 14.167 83.383H14.317V84.423H14.217C13.8436 84.423 13.5136 84.333 13.227 84.153C12.9403 83.9664 12.717 83.7097 12.557 83.383C12.3903 83.0497 12.307 82.663 12.307 82.223C12.307 81.7564 12.3936 81.3697 12.567 81.063C12.7403 80.7564 12.9803 80.5264 13.287 80.373C13.587 80.213 13.9436 80.133 14.357 80.133H17.377ZM17.477 82.983C17.477 83.4297 17.3636 83.8064 17.137 84.113C16.9036 84.413 16.5736 84.563 16.147 84.563C15.867 84.563 15.6336 84.4997 15.447 84.373C15.2603 84.2397 15.107 84.0497 14.987 83.803C14.867 83.5564 14.7836 83.2564 14.737 82.903L14.477 81.063H15.237L15.487 82.743C15.527 83.0297 15.587 83.2297 15.667 83.343C15.747 83.4564 15.8803 83.513 16.067 83.513C16.2603 83.513 16.4003 83.4464 16.487 83.313C16.5736 83.173 16.617 82.9464 16.617 82.633C16.617 82.393 16.5803 82.163 16.507 81.943C16.427 81.7164 16.297 81.5297 16.117 81.383C15.9303 81.2364 15.6703 81.163 15.337 81.163L16.607 81.023L16.597 81.183C16.7503 81.2764 16.8936 81.4064 17.027 81.573C17.1603 81.733 17.2703 81.9297 17.357 82.163C17.437 82.3964 17.477 82.6697 17.477 82.983ZM17.377 77.0775C17.377 77.6242 17.2603 78.0442 17.027 78.3375C16.7936 78.6242 16.4003 78.7675 15.847 78.7675H12.517L11.177 78.5175V77.6875H15.797C16.057 77.6875 16.2236 77.6242 16.297 77.4975C16.3636 77.3642 16.397 77.1275 16.397 76.7875V76.1875H17.287C17.3136 76.2875 17.337 76.4175 17.357 76.5775C17.3703 76.7375 17.377 76.9042 17.377 77.0775ZM13.307 76.1875V79.5975H12.407V76.1875H13.307ZM11.777 74.4756V75.5456L10.677 75.5556V74.4756H11.777ZM17.377 74.4656V75.5456H12.377V74.4656H17.377ZM17.477 71.2427C17.477 71.7494 17.3703 72.1894 17.157 72.5627C16.937 72.9361 16.6336 73.2227 16.247 73.4227C15.8536 73.6227 15.4003 73.7227 14.887 73.7227C14.3736 73.7227 13.9236 73.6227 13.537 73.4227C13.1503 73.2227 12.8503 72.9361 12.637 72.5627C12.417 72.1894 12.307 71.7494 12.307 71.2427C12.307 70.7361 12.417 70.3027 12.637 69.9427C12.8503 69.5761 13.1503 69.2961 13.537 69.1027C13.9236 68.9027 14.3736 68.8027 14.887 68.8027C15.4003 68.8027 15.8536 68.9027 16.247 69.1027C16.6336 69.2961 16.937 69.5761 17.157 69.9427C17.3703 70.3027 17.477 70.7361 17.477 71.2427ZM16.517 71.2427C16.517 70.7227 16.387 70.3594 16.127 70.1527C15.8603 69.9461 15.447 69.8427 14.887 69.8427C14.327 69.8427 13.917 69.9461 13.657 70.1527C13.397 70.3594 13.267 70.7227 13.267 71.2427C13.267 71.7694 13.397 72.1361 13.657 72.3427C13.917 72.5494 14.327 72.6527 14.887 72.6527C15.447 72.6527 15.8603 72.5494 16.127 72.3427C16.387 72.1361 16.517 71.7694 16.517 71.2427ZM17.377 63.3654V64.4454H14.487C14.047 64.4454 13.7303 64.5287 13.537 64.6954C13.337 64.8621 13.237 65.1754 13.237 65.6354C13.237 65.9287 13.2803 66.1687 13.367 66.3554C13.447 66.5421 13.5803 66.6821 13.767 66.7754C13.947 66.8687 14.1936 66.9154 14.507 66.9154V67.1054L13.337 67.1954V66.9554C13.157 66.8821 12.9903 66.7721 12.837 66.6254C12.6836 66.4787 12.557 66.2921 12.457 66.0654C12.357 65.8321 12.307 65.5554 12.307 65.2354C12.307 64.8021 12.3903 64.4487 12.557 64.1754C12.7236 63.9021 12.9536 63.6987 13.247 63.5654C13.5403 63.4321 13.877 63.3654 14.257 63.3654H17.377ZM17.377 66.9154V67.9954H12.407V67.0054H13.897L13.947 66.9154H17.377ZM17.477 57.7266C17.477 58.1732 17.3903 58.5366 17.217 58.8166C17.037 59.0899 16.8336 59.2799 16.607 59.3866V59.6566L15.337 59.6066V59.4166C15.6103 59.4166 15.837 59.3666 16.017 59.2666C16.197 59.1599 16.3336 59.0032 16.427 58.7966C16.5136 58.5899 16.557 58.3432 16.557 58.0566C16.557 57.8232 16.527 57.6199 16.467 57.4466C16.407 57.2732 16.3136 57.1332 16.187 57.0266C16.0603 56.9132 15.8903 56.8332 15.677 56.7866C15.457 56.7332 15.1936 56.7066 14.887 56.7066C14.5803 56.7066 14.3236 56.7332 14.117 56.7866C13.9036 56.8332 13.7303 56.9132 13.597 57.0266C13.4636 57.1332 13.3703 57.2732 13.317 57.4466C13.257 57.6132 13.227 57.8166 13.227 58.0566C13.227 58.3432 13.2736 58.5899 13.367 58.7966C13.4536 59.0032 13.587 59.1599 13.767 59.2666C13.9403 59.3666 14.167 59.4166 14.447 59.4166V59.6066L13.227 59.6566V59.4566C12.9403 59.3366 12.717 59.1399 12.557 58.8666C12.3903 58.5866 12.307 58.2299 12.307 57.7966C12.307 57.0966 12.5403 56.5599 13.007 56.1866C13.4736 55.8132 14.1003 55.6266 14.887 55.6266C15.6736 55.6266 16.3036 55.8066 16.777 56.1666C17.2436 56.5266 17.477 57.0466 17.477 57.7266ZM19.107 59.4166V60.4866H12.407V59.5066H13.587L13.717 59.4166H19.107ZM17.477 52.5041C17.477 53.0441 17.3703 53.4941 17.157 53.8541C16.937 54.2141 16.6336 54.4808 16.247 54.6541C15.8536 54.8275 15.4003 54.9141 14.887 54.9141C14.3736 54.9141 13.9236 54.8175 13.537 54.6241C13.1503 54.4241 12.8503 54.1441 12.637 53.7841C12.417 53.4241 12.307 52.9975 12.307 52.5041C12.307 52.0575 12.3936 51.6641 12.567 51.3241C12.7336 50.9775 12.977 50.7108 13.297 50.5241C13.617 50.3308 14.0036 50.2341 14.457 50.2341C14.5903 50.2341 14.7203 50.2408 14.847 50.2541C14.967 50.2608 15.067 50.2708 15.147 50.2841V54.4041H14.427V51.1641L14.527 51.2741C14.2203 51.2475 13.9703 51.2808 13.777 51.3741C13.5836 51.4608 13.4403 51.6041 13.347 51.8041C13.2536 51.9975 13.207 52.2408 13.207 52.5341C13.207 53.0608 13.3403 53.4208 13.607 53.6141C13.867 53.8075 14.227 53.9041 14.687 53.9041H14.987C15.3203 53.9041 15.6036 53.8641 15.837 53.7841C16.0636 53.6975 16.2336 53.5508 16.347 53.3441C16.4603 53.1375 16.517 52.8541 16.517 52.4941C16.517 52.0741 16.4503 51.7775 16.317 51.6041C16.1836 51.4308 16.007 51.3441 15.787 51.3441H15.707V50.2741H15.797C16.137 50.2741 16.4336 50.3675 16.687 50.5541C16.9336 50.7408 17.127 51.0008 17.267 51.3341C17.407 51.6608 17.477 52.0508 17.477 52.5041ZM17.377 48.2923V49.3723H12.377V48.3823H13.767L13.817 48.2923H17.377ZM14.137 48.2923V48.5423H13.167V48.3323C12.9336 48.2323 12.7336 48.069 12.567 47.8423C12.3936 47.609 12.307 47.309 12.307 46.9423C12.307 46.589 12.3836 46.309 12.537 46.1023C12.6903 45.889 12.8936 45.7357 13.147 45.6423C13.4003 45.549 13.6836 45.5023 13.997 45.5023H14.327V46.5823H14.127C13.7936 46.5823 13.5603 46.639 13.427 46.7523C13.2936 46.8657 13.227 47.079 13.227 47.3923C13.227 47.719 13.297 47.9523 13.437 48.0923C13.5703 48.2257 13.8036 48.2923 14.137 48.2923ZM11.777 43.8604V44.9304L10.677 44.9404V43.8604H11.777ZM17.377 43.8504V44.9304H12.377V43.8504H17.377ZM17.477 40.6275C17.477 41.1342 17.3703 41.5742 17.157 41.9475C16.937 42.3208 16.6336 42.6075 16.247 42.8075C15.8536 43.0075 15.4003 43.1075 14.887 43.1075C14.3736 43.1075 13.9236 43.0075 13.537 42.8075C13.1503 42.6075 12.8503 42.3208 12.637 41.9475C12.417 41.5742 12.307 41.1342 12.307 40.6275C12.307 40.1208 12.417 39.6875 12.637 39.3275C12.8503 38.9608 13.1503 38.6808 13.537 38.4875C13.9236 38.2875 14.3736 38.1875 14.887 38.1875C15.4003 38.1875 15.8536 38.2875 16.247 38.4875C16.6336 38.6808 16.937 38.9608 17.157 39.3275C17.3703 39.6875 17.477 40.1208 17.477 40.6275ZM16.517 40.6275C16.517 40.1075 16.387 39.7442 16.127 39.5375C15.8603 39.3308 15.447 39.2275 14.887 39.2275C14.327 39.2275 13.917 39.3308 13.657 39.5375C13.397 39.7442 13.267 40.1075 13.267 40.6275C13.267 41.1542 13.397 41.5208 13.657 41.7275C13.917 41.9342 14.327 42.0375 14.887 42.0375C15.447 42.0375 15.8603 41.9342 16.127 41.7275C16.387 41.5208 16.517 41.1542 16.517 40.6275ZM17.477 35.3413C17.477 36.048 17.2436 36.5913 16.777 36.9713C16.3036 37.3447 15.6736 37.5313 14.887 37.5313C14.1003 37.5313 13.4736 37.348 13.007 36.9813C12.5403 36.608 12.307 36.0813 12.307 35.4013C12.307 34.9613 12.397 34.608 12.577 34.3413C12.7503 34.068 12.9503 33.878 13.177 33.7713V33.5013L14.447 33.5513V33.7413C14.167 33.7413 13.937 33.7947 13.757 33.9013C13.577 34.008 13.4436 34.1613 13.357 34.3613C13.2703 34.5613 13.227 34.808 13.227 35.1013C13.227 35.3413 13.257 35.548 13.317 35.7213C13.377 35.888 13.4703 36.028 13.597 36.1413C13.7236 36.248 13.8936 36.328 14.107 36.3813C14.3203 36.428 14.5803 36.4513 14.887 36.4513C15.187 36.4513 15.447 36.428 15.667 36.3813C15.8803 36.328 16.0536 36.248 16.187 36.1413C16.3136 36.028 16.407 35.8847 16.467 35.7113C16.527 35.538 16.557 35.3347 16.557 35.1013C16.557 34.808 16.5136 34.5613 16.427 34.3613C16.3336 34.1613 16.197 34.008 16.017 33.9013C15.837 33.7947 15.6103 33.7413 15.337 33.7413V33.5513L16.557 33.5013V33.7013C16.8436 33.8147 17.0703 34.0113 17.237 34.2913C17.397 34.5647 17.477 34.9147 17.477 35.3413ZM17.377 32.6613V33.6613H16.197L16.067 33.7413H10.677V32.6613H17.377Z" fill="#3F3F46"/>
</svg>
