<svg width="206" height="363" viewBox="0 0 206 363" fill="none" xmlns="http://www.w3.org/2000/svg">
<g clip-path="url(#clip0_3216_87638)">
<path d="M56.6974 1.78125L56.6973 362.782" stroke="#ACACAC" stroke-width="0.54207"/>
<path d="M61.0986 5.44922H54.5938" stroke="#ACACAC" stroke-width="0.54207"/>
<path d="M61.0986 70.4492H54.5938" stroke="#ACACAC" stroke-width="0.54207"/>
<path d="M61.0986 135.449H54.5938" stroke="#ACACAC" stroke-width="0.54207"/>
<path d="M61.0986 200.449H54.5938" stroke="#ACACAC" stroke-width="0.54207"/>
<path d="M61.0986 265.449H54.5938" stroke="#ACACAC" stroke-width="0.54207"/>
<path d="M61.0986 330.449H54.5938" stroke="#ACACAC" stroke-width="0.54207"/>
<path d="M19.6805 11.7804H18.1105L16.5605 5.08047H17.8005L18.6405 8.85047L18.9205 10.7005H19.0005L19.4305 8.85047L20.5405 5.08047H22.0505L23.1605 8.85047L23.6005 10.7005H23.6705L23.9605 8.85047L24.8005 5.08047H26.0205L24.4605 11.7804H22.8905L21.8805 8.37047L21.3305 6.29047H21.2405L20.7005 8.37047L19.6805 11.7804ZM28.4067 11.8804C27.8667 11.8804 27.4167 11.7738 27.0567 11.5604C26.6967 11.3404 26.43 11.0371 26.2567 10.6505C26.0834 10.2571 25.9967 9.80381 25.9967 9.29047C25.9967 8.77714 26.0934 8.32714 26.2867 7.94047C26.4867 7.55381 26.7667 7.25381 27.1267 7.04047C27.4867 6.82047 27.9134 6.71047 28.4067 6.71047C28.8534 6.71047 29.2467 6.79714 29.5867 6.97047C29.9334 7.13714 30.2 7.38047 30.3867 7.70047C30.58 8.02047 30.6767 8.40714 30.6767 8.86047C30.6767 8.99381 30.67 9.12381 30.6567 9.25047C30.65 9.37047 30.64 9.47047 30.6267 9.55047H26.5067V8.83047H29.7467L29.6367 8.93047C29.6634 8.62381 29.63 8.37381 29.5367 8.18047C29.45 7.98714 29.3067 7.84381 29.1067 7.75047C28.9134 7.65714 28.67 7.61047 28.3767 7.61047C27.85 7.61047 27.49 7.74381 27.2967 8.01047C27.1034 8.27047 27.0067 8.63047 27.0067 9.09047V9.39047C27.0067 9.72381 27.0467 10.0071 27.1267 10.2405C27.2134 10.4671 27.36 10.6371 27.5667 10.7505C27.7734 10.8638 28.0567 10.9204 28.4167 10.9204C28.8367 10.9204 29.1334 10.8538 29.3067 10.7205C29.48 10.5871 29.5667 10.4105 29.5667 10.1905V10.1105H30.6367V10.2005C30.6367 10.5405 30.5434 10.8371 30.3567 11.0904C30.17 11.3371 29.91 11.5304 29.5767 11.6704C29.25 11.8104 28.86 11.8804 28.4067 11.8804ZM33.7973 11.8804C33.2573 11.8804 32.8074 11.7738 32.4473 11.5604C32.0873 11.3404 31.8207 11.0371 31.6473 10.6505C31.474 10.2571 31.3873 9.80381 31.3873 9.29047C31.3873 8.77714 31.484 8.32714 31.6773 7.94047C31.8773 7.55381 32.1573 7.25381 32.5173 7.04047C32.8773 6.82047 33.304 6.71047 33.7973 6.71047C34.244 6.71047 34.6373 6.79714 34.9773 6.97047C35.324 7.13714 35.5907 7.38047 35.7773 7.70047C35.9707 8.02047 36.0673 8.40714 36.0673 8.86047C36.0673 8.99381 36.0607 9.12381 36.0473 9.25047C36.0407 9.37047 36.0307 9.47047 36.0173 9.55047H31.8973V8.83047H35.1373L35.0273 8.93047C35.054 8.62381 35.0207 8.37381 34.9273 8.18047C34.8407 7.98714 34.6973 7.84381 34.4973 7.75047C34.304 7.65714 34.0607 7.61047 33.7673 7.61047C33.2407 7.61047 32.8807 7.74381 32.6873 8.01047C32.494 8.27047 32.3973 8.63047 32.3973 9.09047V9.39047C32.3973 9.72381 32.4373 10.0071 32.5173 10.2405C32.604 10.4671 32.7507 10.6371 32.9573 10.7505C33.164 10.8638 33.4473 10.9204 33.8073 10.9204C34.2273 10.9204 34.524 10.8538 34.6973 10.7205C34.8708 10.5871 34.9573 10.4105 34.9573 10.1905V10.1105H36.0273V10.2005C36.0273 10.5405 35.934 10.8371 35.7473 11.0904C35.5607 11.3371 35.3007 11.5304 34.9673 11.6704C34.6407 11.8104 34.2507 11.8804 33.7973 11.8804ZM41.5789 11.7804H40.3089L39.0089 9.74047H37.4189V8.78047H38.9989L40.3389 6.81047H41.5989L39.8689 9.16047L41.5789 11.7804ZM38.0189 11.7804H36.9389V5.08047H38.0189V11.7804ZM46.9776 11.8804C46.3776 11.8804 45.8609 11.7404 45.4276 11.4604C44.9942 11.1804 44.6609 10.7838 44.4276 10.2705C44.2009 9.75047 44.0876 9.13714 44.0876 8.43047C44.0876 7.72381 44.2009 7.11381 44.4276 6.60047C44.6609 6.08047 44.9942 5.68047 45.4276 5.40047C45.8609 5.12047 46.3776 4.98047 46.9776 4.98047C47.5776 4.98047 48.0942 5.12047 48.5276 5.40047C48.9609 5.68047 49.2943 6.08047 49.5276 6.60047C49.7609 7.11381 49.8776 7.72381 49.8776 8.43047C49.8776 9.13714 49.7609 9.75047 49.5276 10.2705C49.2943 10.7838 48.9609 11.1804 48.5276 11.4604C48.0942 11.7404 47.5776 11.8804 46.9776 11.8804ZM46.9776 10.8305C47.3776 10.8305 47.7042 10.7538 47.9576 10.6005C48.2176 10.4471 48.4109 10.1938 48.5376 9.84047C48.6642 9.48714 48.7276 9.01714 48.7276 8.43047C48.7276 7.83714 48.6642 7.36381 48.5376 7.01047C48.4109 6.65714 48.2176 6.40381 47.9576 6.25047C47.7042 6.09714 47.3776 6.02047 46.9776 6.02047C46.5842 6.02047 46.2576 6.09714 45.9976 6.25047C45.7376 6.40381 45.5442 6.65714 45.4176 7.01047C45.2976 7.36381 45.2376 7.83714 45.2376 8.43047C45.2376 9.01714 45.2976 9.48714 45.4176 9.84047C45.5442 10.1938 45.7376 10.4471 45.9976 10.6005C46.2576 10.7538 46.5842 10.8305 46.9776 10.8305Z" fill="#ACACAC"/>
<path d="M11.5597 73.1609H10.4297L13.0397 66.4609H14.5897L17.1997 73.1609H16.0297L14.2697 68.6809L13.8397 67.4309H13.7597L13.3197 68.6809L11.5597 73.1609ZM15.9397 71.4209H11.7197V70.4509H15.9397V71.4209ZM20.4647 73.2609C20.0181 73.2609 19.6547 73.1743 19.3747 73.0009C19.1014 72.8209 18.9114 72.6176 18.8047 72.3909H18.5347L18.5847 71.1209H18.7747C18.7747 71.3943 18.8247 71.6209 18.9247 71.8009C19.0314 71.9809 19.1881 72.1176 19.3947 72.2109C19.6014 72.2976 19.8481 72.3409 20.1347 72.3409C20.3681 72.3409 20.5714 72.3109 20.7447 72.2509C20.9181 72.1909 21.0581 72.0976 21.1647 71.9709C21.2781 71.8443 21.3581 71.6743 21.4047 71.4609C21.4581 71.2409 21.4847 70.9776 21.4847 70.6709C21.4847 70.3643 21.4581 70.1076 21.4047 69.9009C21.3581 69.6876 21.2781 69.5143 21.1647 69.3809C21.0581 69.2476 20.9181 69.1543 20.7447 69.1009C20.5781 69.0409 20.3747 69.0109 20.1347 69.0109C19.8481 69.0109 19.6014 69.0576 19.3947 69.1509C19.1881 69.2376 19.0314 69.3709 18.9247 69.5509C18.8247 69.7243 18.7747 69.9509 18.7747 70.2309H18.5847L18.5347 69.0109H18.7347C18.8547 68.7243 19.0514 68.5009 19.3247 68.3409C19.6047 68.1743 19.9614 68.0909 20.3947 68.0909C21.0947 68.0909 21.6314 68.3243 22.0047 68.7909C22.3781 69.2576 22.5647 69.8843 22.5647 70.6709C22.5647 71.4576 22.3847 72.0876 22.0247 72.5609C21.6647 73.0276 21.1447 73.2609 20.4647 73.2609ZM18.7747 74.8909H17.7047V68.1909H18.6847V69.3709L18.7747 69.5009V74.8909ZM24.5083 73.1609H23.4283V68.1609H24.4183V69.5509L24.5083 69.6009V73.1609ZM24.5083 69.9209H24.2583V68.9509H24.4683C24.5683 68.7176 24.7317 68.5176 24.9583 68.3509C25.1917 68.1776 25.4917 68.0909 25.8583 68.0909C26.2117 68.0909 26.4917 68.1676 26.6983 68.3209C26.9117 68.4743 27.065 68.6776 27.1583 68.9309C27.2517 69.1843 27.2983 69.4676 27.2983 69.7809V70.1109H26.2183V69.9109C26.2183 69.5776 26.1617 69.3443 26.0483 69.2109C25.935 69.0776 25.7217 69.0109 25.4083 69.0109C25.0817 69.0109 24.8483 69.0809 24.7083 69.2209C24.575 69.3543 24.5083 69.5876 24.5083 69.9209ZM28.9403 67.5609H27.8703L27.8603 66.4609H28.9403V67.5609ZM28.9503 73.1609H27.8703V68.1609H28.9503V73.1609ZM31.022 73.1609H29.942V66.4609H31.022V73.1609ZM35.0754 73.1609H33.9954V66.4609H35.0754V73.1609ZM38.7854 73.1609H34.3254V72.1809H38.7854V73.1609ZM38.6354 70.2809H34.3254V69.3009H38.6354V70.2809ZM38.7854 67.4309H34.3254V66.4609H38.7854V67.4309ZM44.3474 73.1609H43.2674V70.2709C43.2674 69.8309 43.1841 69.5143 43.0174 69.3209C42.8507 69.1209 42.5374 69.0209 42.0774 69.0209C41.7841 69.0209 41.5441 69.0643 41.3574 69.1509C41.1707 69.2309 41.0307 69.3643 40.9374 69.5509C40.8441 69.7309 40.7974 69.9776 40.7974 70.2909H40.6074L40.5174 69.1209H40.7574C40.8307 68.9409 40.9407 68.7743 41.0874 68.6209C41.2341 68.4676 41.4207 68.3409 41.6474 68.2409C41.8807 68.1409 42.1574 68.0909 42.4774 68.0909C42.9107 68.0909 43.2641 68.1743 43.5374 68.3409C43.8107 68.5076 44.0141 68.7376 44.1474 69.0309C44.2807 69.3243 44.3474 69.6609 44.3474 70.0409V73.1609ZM40.7974 73.1609H39.7174V68.1909H40.7074V69.6809L40.7974 69.7309V73.1609ZM47.3519 73.2609C46.6453 73.2609 46.1019 73.0276 45.7219 72.5609C45.3486 72.0876 45.1619 71.4576 45.1619 70.6709C45.1619 69.8843 45.3453 69.2576 45.7119 68.7909C46.0853 68.3243 46.6119 68.0909 47.2919 68.0909C47.7319 68.0909 48.0853 68.1809 48.3519 68.3609C48.6253 68.5343 48.8153 68.7343 48.9219 68.9609H49.1919L49.1419 70.2309H48.9519C48.9519 69.9509 48.8986 69.7209 48.7919 69.5409C48.6853 69.3609 48.5319 69.2276 48.3319 69.1409C48.1319 69.0543 47.8853 69.0109 47.5919 69.0109C47.3519 69.0109 47.1453 69.0409 46.9719 69.1009C46.8053 69.1609 46.6653 69.2543 46.5519 69.3809C46.4453 69.5076 46.3653 69.6776 46.3119 69.8909C46.2653 70.1043 46.2419 70.3643 46.2419 70.6709C46.2419 70.9709 46.2653 71.2309 46.3119 71.4509C46.3653 71.6643 46.4453 71.8376 46.5519 71.9709C46.6653 72.0976 46.8086 72.1909 46.9819 72.2509C47.1553 72.3109 47.3586 72.3409 47.5919 72.3409C47.8853 72.3409 48.1319 72.2976 48.3319 72.2109C48.5319 72.1176 48.6853 71.9809 48.7919 71.8009C48.8986 71.6209 48.9519 71.3943 48.9519 71.1209H49.1419L49.1919 72.3409H48.9919C48.8786 72.6276 48.6819 72.8543 48.4019 73.0209C48.1286 73.1809 47.7786 73.2609 47.3519 73.2609ZM50.0319 73.1609H49.0319V71.9809L48.9519 71.8509V66.4609H50.0319V73.1609Z" fill="#ACACAC"/>
<path d="M33.9804 134.544H32.9004V127.844H34.4304L35.9704 131.524L36.5504 133.124H36.6304L37.2104 131.524L38.7104 127.844H40.2404V134.544H39.1704V130.584L39.2104 129.464H39.1404L38.7204 130.584L37.2204 134.144H35.9204L34.4104 130.584L34.0104 129.464H33.9204L33.9804 130.584V134.544ZM45.5375 134.544H44.5375V133.564L44.5075 133.294V131.384C44.5075 131.011 44.4175 130.758 44.2375 130.624C44.0641 130.491 43.7808 130.424 43.3875 130.424C42.9941 130.424 42.7108 130.494 42.5375 130.634C42.3708 130.774 42.2875 131.008 42.2875 131.334V131.484H41.2475V131.384C41.2475 131.011 41.3375 130.681 41.5175 130.394C41.7041 130.108 41.9608 129.884 42.2875 129.724C42.6208 129.558 43.0075 129.474 43.4475 129.474C43.9141 129.474 44.3008 129.561 44.6075 129.734C44.9141 129.908 45.1441 130.148 45.2975 130.454C45.4575 130.754 45.5375 131.111 45.5375 131.524V134.544ZM42.6875 134.644C42.2408 134.644 41.8641 134.531 41.5575 134.304C41.2575 134.071 41.1075 133.741 41.1075 133.314C41.1075 133.034 41.1708 132.801 41.2975 132.614C41.4308 132.428 41.6208 132.274 41.8675 132.154C42.1141 132.034 42.4141 131.951 42.7675 131.904L44.6075 131.644V132.404L42.9275 132.654C42.6408 132.694 42.4408 132.754 42.3275 132.834C42.2141 132.914 42.1575 133.048 42.1575 133.234C42.1575 133.428 42.2241 133.568 42.3575 133.654C42.4975 133.741 42.7241 133.784 43.0375 133.784C43.2775 133.784 43.5075 133.748 43.7275 133.674C43.9541 133.594 44.1408 133.464 44.2875 133.284C44.4341 133.098 44.5075 132.838 44.5075 132.504L44.6475 133.774L44.4875 133.764C44.3941 133.918 44.2641 134.061 44.0975 134.194C43.9375 134.328 43.7408 134.438 43.5075 134.524C43.2741 134.604 43.0008 134.644 42.6875 134.644ZM47.1482 136.244C47.0148 136.244 46.8782 136.234 46.7382 136.214C46.5982 136.201 46.4848 136.181 46.3982 136.154V135.274H47.0882C47.2948 135.274 47.4482 135.244 47.5482 135.184C47.6482 135.131 47.7415 135.014 47.8282 134.834L48.1382 134.134L48.0482 134.484L45.8982 129.574H47.0882L48.0882 131.984L48.5382 133.064H48.6282L49.0282 131.984L49.9382 129.574H51.1382L48.7782 135.124C48.6582 135.424 48.5215 135.654 48.3682 135.814C48.2148 135.974 48.0382 136.084 47.8382 136.144C47.6448 136.211 47.4148 136.244 47.1482 136.244Z" fill="#ACACAC"/>
<path d="M30.9907 196.023C30.3841 196.023 29.8974 195.917 29.5307 195.703C29.1641 195.49 28.8941 195.193 28.7207 194.813C28.5541 194.427 28.4707 193.983 28.4707 193.483V193.203H29.6107V193.563C29.6107 193.897 29.6407 194.17 29.7007 194.383C29.7674 194.59 29.8974 194.74 30.0907 194.833C30.2907 194.927 30.5807 194.973 30.9607 194.973C31.3407 194.973 31.6274 194.927 31.8207 194.833C32.0141 194.74 32.1407 194.59 32.2007 194.383C32.2674 194.17 32.3007 193.897 32.3007 193.563V189.223H33.4507V193.473C33.4507 193.98 33.3641 194.427 33.1907 194.813C33.0241 195.193 32.7607 195.49 32.4007 195.703C32.0407 195.917 31.5707 196.023 30.9907 196.023ZM36.3653 196.023C35.9386 196.023 35.5853 195.937 35.3053 195.763C35.0253 195.583 34.8186 195.343 34.6853 195.043C34.5519 194.737 34.4853 194.397 34.4853 194.023V190.953H35.5653V193.823C35.5653 194.27 35.6586 194.593 35.8453 194.793C36.0319 194.993 36.3386 195.093 36.7653 195.093C37.0453 195.093 37.2819 195.05 37.4753 194.963C37.6686 194.87 37.8153 194.727 37.9153 194.533C38.0153 194.333 38.0653 194.073 38.0653 193.753H38.3453V194.933H38.1053C38.0319 195.12 37.9186 195.297 37.7653 195.463C37.6186 195.63 37.4286 195.767 37.1953 195.873C36.9686 195.973 36.6919 196.023 36.3653 196.023ZM39.1453 195.923H38.1453V194.433L38.0653 194.383V190.953H39.1453V195.923ZM44.8386 195.923H43.7586V193.033C43.7586 192.593 43.6753 192.277 43.5086 192.083C43.342 191.883 43.0286 191.783 42.5686 191.783C42.2753 191.783 42.0353 191.827 41.8486 191.913C41.662 191.993 41.522 192.127 41.4286 192.313C41.3353 192.493 41.2886 192.74 41.2886 193.053H41.0986L41.0086 191.883H41.2486C41.322 191.703 41.432 191.537 41.5786 191.383C41.7253 191.23 41.912 191.103 42.1386 191.003C42.372 190.903 42.6486 190.853 42.9686 190.853C43.402 190.853 43.7553 190.937 44.0286 191.103C44.302 191.27 44.5053 191.5 44.6386 191.793C44.772 192.087 44.8386 192.423 44.8386 192.803V195.923ZM41.2886 195.923H40.2086V190.953H41.1986V192.443L41.2886 192.493V195.923ZM48.0632 196.023C47.5232 196.023 47.0732 195.917 46.7132 195.703C46.3532 195.483 46.0865 195.18 45.9132 194.793C45.7398 194.4 45.6532 193.947 45.6532 193.433C45.6532 192.92 45.7498 192.47 45.9432 192.083C46.1432 191.697 46.4232 191.397 46.7832 191.183C47.1432 190.963 47.5698 190.853 48.0632 190.853C48.5098 190.853 48.9032 190.94 49.2432 191.113C49.5898 191.28 49.8565 191.523 50.0432 191.843C50.2365 192.163 50.3332 192.55 50.3332 193.003C50.3332 193.137 50.3265 193.267 50.3132 193.393C50.3065 193.513 50.2965 193.613 50.2832 193.693H46.1632V192.973H49.4032L49.2932 193.073C49.3198 192.767 49.2865 192.517 49.1932 192.323C49.1065 192.13 48.9632 191.987 48.7632 191.893C48.5698 191.8 48.3265 191.753 48.0332 191.753C47.5065 191.753 47.1465 191.887 46.9532 192.153C46.7598 192.413 46.6632 192.773 46.6632 193.233V193.533C46.6632 193.867 46.7032 194.15 46.7832 194.383C46.8698 194.61 47.0165 194.78 47.2232 194.893C47.4298 195.007 47.7132 195.063 48.0732 195.063C48.4932 195.063 48.7898 194.997 48.9632 194.863C49.1365 194.73 49.2232 194.553 49.2232 194.333V194.253H50.2932V194.343C50.2932 194.683 50.1998 194.98 50.0132 195.233C49.8265 195.48 49.5665 195.673 49.2332 195.813C48.9065 195.953 48.5165 196.023 48.0632 196.023Z" fill="#ACACAC"/>
<path d="M19.5597 257.305H18.4297L21.0397 250.605H22.5897L25.1997 257.305H24.0297L22.2697 252.825L21.8397 251.575H21.7597L21.3197 252.825L19.5597 257.305ZM23.9397 255.565H19.7197V254.595H23.9397V255.565ZM27.5947 257.405C27.1681 257.405 26.8147 257.318 26.5347 257.145C26.2547 256.965 26.0481 256.725 25.9147 256.425C25.7814 256.118 25.7147 255.778 25.7147 255.405V252.335H26.7947V255.205C26.7947 255.652 26.8881 255.975 27.0747 256.175C27.2614 256.375 27.5681 256.475 27.9947 256.475C28.2747 256.475 28.5114 256.432 28.7047 256.345C28.8981 256.252 29.0447 256.108 29.1447 255.915C29.2447 255.715 29.2947 255.455 29.2947 255.135H29.5747V256.315H29.3347C29.2614 256.502 29.1481 256.678 28.9947 256.845C28.8481 257.012 28.6581 257.148 28.4247 257.255C28.1981 257.355 27.9214 257.405 27.5947 257.405ZM30.3747 257.305H29.3747V255.815L29.2947 255.765V252.335H30.3747V257.305ZM33.7686 259.105C33.3019 259.105 32.8952 259.032 32.5486 258.885C32.2086 258.738 31.9452 258.525 31.7586 258.245C31.5719 257.972 31.4786 257.635 31.4786 257.235H32.5586C32.5586 257.462 32.5919 257.642 32.6586 257.775C32.7252 257.908 32.8486 258.002 33.0286 258.055C33.2086 258.115 33.4652 258.145 33.7986 258.145C34.1252 258.145 34.3752 258.108 34.5486 258.035C34.7219 257.962 34.8419 257.838 34.9086 257.665C34.9752 257.492 35.0086 257.252 35.0086 256.945V253.645L35.0886 253.515V252.335H36.0886V256.945C36.0886 257.432 35.9952 257.832 35.8086 258.145C35.6219 258.465 35.3552 258.705 35.0086 258.865C34.6686 259.025 34.2552 259.105 33.7686 259.105ZM33.3486 256.835C32.6619 256.835 32.1352 256.628 31.7686 256.215C31.4019 255.795 31.2186 255.235 31.2186 254.535C31.2186 253.835 31.4052 253.278 31.7786 252.865C32.1519 252.445 32.6886 252.235 33.3886 252.235C33.7952 252.235 34.1452 252.318 34.4386 252.485C34.7319 252.645 34.9352 252.868 35.0486 253.155H35.2486L35.1986 254.375H35.0086C35.0086 254.095 34.9519 253.865 34.8386 253.685C34.7252 253.505 34.5652 253.372 34.3586 253.285C34.1519 253.198 33.9119 253.155 33.6386 253.155C33.3252 253.155 33.0686 253.198 32.8686 253.285C32.6752 253.372 32.5319 253.518 32.4386 253.725C32.3452 253.925 32.2986 254.195 32.2986 254.535C32.2986 254.788 32.3252 255.005 32.3786 255.185C32.4319 255.358 32.5152 255.498 32.6286 255.605C32.7419 255.712 32.8852 255.792 33.0586 255.845C33.2319 255.892 33.4319 255.915 33.6586 255.915C33.9319 255.915 34.1686 255.872 34.3686 255.785C34.5686 255.692 34.7252 255.555 34.8386 255.375C34.9519 255.195 35.0086 254.965 35.0086 254.685H35.2286V255.955H34.9686C34.8552 256.195 34.6586 256.402 34.3786 256.575C34.0986 256.748 33.7552 256.835 33.3486 256.835ZM39.001 257.405C38.5743 257.405 38.221 257.318 37.941 257.145C37.661 256.965 37.4543 256.725 37.321 256.425C37.1877 256.118 37.121 255.778 37.121 255.405V252.335H38.201V255.205C38.201 255.652 38.2943 255.975 38.481 256.175C38.6677 256.375 38.9743 256.475 39.401 256.475C39.681 256.475 39.9177 256.432 40.111 256.345C40.3043 256.252 40.451 256.108 40.551 255.915C40.651 255.715 40.701 255.455 40.701 255.135H40.981V256.315H40.741C40.6677 256.502 40.5543 256.678 40.401 256.845C40.2543 257.012 40.0643 257.148 39.831 257.255C39.6043 257.355 39.3277 257.405 39.001 257.405ZM41.781 257.305H40.781V255.815L40.701 255.765V252.335H41.781V257.305ZM44.9051 257.405C44.1784 257.405 43.6284 257.262 43.2551 256.975C42.8817 256.682 42.6951 256.232 42.6951 255.625V255.605H43.7351V255.785C43.7351 255.958 43.7684 256.102 43.8351 256.215C43.9084 256.322 44.0284 256.402 44.1951 256.455C44.3684 256.502 44.6117 256.525 44.9251 256.525C45.1917 256.525 45.3917 256.505 45.5251 256.465C45.6651 256.418 45.7584 256.355 45.8051 256.275C45.8517 256.195 45.8751 256.095 45.8751 255.975C45.8751 255.775 45.8051 255.635 45.6651 255.555C45.5251 255.468 45.2751 255.392 44.9151 255.325L44.1351 255.195C43.8417 255.135 43.5851 255.052 43.3651 254.945C43.1517 254.832 42.9851 254.678 42.8651 254.485C42.7517 254.285 42.6951 254.035 42.6951 253.735C42.6951 253.288 42.8717 252.928 43.2251 252.655C43.5784 252.375 44.0784 252.235 44.7251 252.235C45.1184 252.235 45.4684 252.298 45.7751 252.425C46.0817 252.552 46.3251 252.742 46.5051 252.995C46.6851 253.248 46.7751 253.565 46.7751 253.945V254.035H45.7451V253.915C45.7451 253.755 45.7184 253.618 45.6651 253.505C45.6117 253.385 45.5117 253.292 45.3651 253.225C45.2184 253.158 44.9951 253.125 44.6951 253.125C44.3017 253.125 44.0417 253.175 43.9151 253.275C43.7884 253.375 43.7251 253.522 43.7251 253.715C43.7251 253.908 43.7817 254.045 43.8951 254.125C44.0151 254.198 44.2484 254.272 44.5951 254.345L45.4451 254.505C45.7651 254.565 46.0317 254.655 46.2451 254.775C46.4584 254.895 46.6184 255.052 46.7251 255.245C46.8384 255.438 46.8951 255.668 46.8951 255.935C46.8951 256.402 46.7184 256.765 46.3651 257.025C46.0184 257.278 45.5317 257.405 44.9051 257.405ZM49.7876 257.305C49.241 257.305 48.821 257.188 48.5276 256.955C48.241 256.722 48.0976 256.328 48.0976 255.775V252.445L48.3476 251.105H49.1776V255.725C49.1776 255.985 49.241 256.152 49.3676 256.225C49.501 256.292 49.7376 256.325 50.0776 256.325H50.6776V257.215C50.5776 257.242 50.4476 257.265 50.2876 257.285C50.1276 257.298 49.961 257.305 49.7876 257.305ZM50.6776 253.235H47.2676V252.335H50.6776V253.235Z" fill="#ACACAC"/>
<path d="M3.60984 318.783C2.96984 318.783 2.44651 318.693 2.03984 318.513C1.63318 318.326 1.32984 318.07 1.12984 317.743C0.93651 317.41 0.839844 317.03 0.839844 316.603V316.433H1.89984V316.543C1.89984 316.816 1.94651 317.046 2.03984 317.233C2.13984 317.42 2.31651 317.56 2.56984 317.653C2.82318 317.746 3.18651 317.793 3.65984 317.793C4.15318 317.793 4.49984 317.723 4.69984 317.583C4.89984 317.436 4.99984 317.21 4.99984 316.903C4.99984 316.696 4.96984 316.53 4.90984 316.403C4.84984 316.276 4.72984 316.173 4.54984 316.093C4.37651 316.006 4.11651 315.93 3.76984 315.863L2.62984 315.633C2.24318 315.56 1.91984 315.446 1.65984 315.293C1.39984 315.133 1.19984 314.93 1.05984 314.683C0.92651 314.436 0.859844 314.14 0.859844 313.793C0.859844 313.46 0.94651 313.15 1.11984 312.863C1.29984 312.57 1.57318 312.333 1.93984 312.153C2.31318 311.973 2.78651 311.883 3.35984 311.883C3.97318 311.883 4.46984 311.986 4.84984 312.193C5.23651 312.4 5.51651 312.673 5.68984 313.013C5.86984 313.346 5.95984 313.713 5.95984 314.113V314.233H4.88984V314.123C4.88984 313.843 4.84318 313.613 4.74984 313.433C4.66318 313.246 4.50318 313.106 4.26984 313.013C4.04318 312.913 3.73318 312.863 3.33984 312.863C2.84651 312.863 2.48984 312.936 2.26984 313.083C2.04984 313.23 1.93984 313.45 1.93984 313.743C1.93984 313.943 1.97318 314.103 2.03984 314.223C2.11318 314.343 2.23651 314.44 2.40984 314.513C2.58984 314.58 2.82984 314.65 3.12984 314.723L4.26984 314.963C4.69651 315.043 5.03984 315.17 5.29984 315.343C5.56651 315.516 5.76318 315.73 5.88984 315.983C6.01651 316.23 6.07984 316.523 6.07984 316.863C6.07984 317.21 5.99318 317.53 5.81984 317.823C5.64651 318.116 5.37651 318.35 5.00984 318.523C4.64984 318.696 4.18318 318.783 3.60984 318.783ZM9.06617 318.783C8.52617 318.783 8.07617 318.676 7.71617 318.463C7.35617 318.243 7.08951 317.94 6.91617 317.553C6.74284 317.16 6.65617 316.706 6.65617 316.193C6.65617 315.68 6.75284 315.23 6.94617 314.843C7.14617 314.456 7.42617 314.156 7.78617 313.943C8.14617 313.723 8.57284 313.613 9.06617 313.613C9.51284 313.613 9.90617 313.7 10.2462 313.873C10.5928 314.04 10.8595 314.283 11.0462 314.603C11.2395 314.923 11.3362 315.31 11.3362 315.763C11.3362 315.896 11.3295 316.026 11.3162 316.153C11.3095 316.273 11.2995 316.373 11.2862 316.453H7.16617V315.733H10.4062L10.2962 315.833C10.3228 315.526 10.2895 315.276 10.1962 315.083C10.1095 314.89 9.96617 314.746 9.76617 314.653C9.57284 314.56 9.32951 314.513 9.03617 314.513C8.50951 314.513 8.14951 314.646 7.95617 314.913C7.76284 315.173 7.66617 315.533 7.66617 315.993V316.293C7.66617 316.626 7.70617 316.91 7.78617 317.143C7.87284 317.37 8.01951 317.54 8.22617 317.653C8.43284 317.766 8.71617 317.823 9.07617 317.823C9.49617 317.823 9.79284 317.756 9.96617 317.623C10.1395 317.49 10.2262 317.313 10.2262 317.093V317.013H11.2962V317.103C11.2962 317.443 11.2028 317.74 11.0162 317.993C10.8295 318.24 10.5695 318.433 10.2362 318.573C9.90951 318.713 9.51951 318.783 9.06617 318.783ZM14.918 318.783C14.4713 318.783 14.108 318.696 13.828 318.523C13.5546 318.343 13.3646 318.14 13.258 317.913H12.988L13.038 316.643H13.228C13.228 316.916 13.278 317.143 13.378 317.323C13.4846 317.503 13.6413 317.64 13.848 317.733C14.0546 317.82 14.3013 317.863 14.588 317.863C14.8213 317.863 15.0246 317.833 15.198 317.773C15.3713 317.713 15.5113 317.62 15.618 317.493C15.7313 317.366 15.8113 317.196 15.858 316.983C15.9113 316.763 15.938 316.5 15.938 316.193C15.938 315.886 15.9113 315.63 15.858 315.423C15.8113 315.21 15.7313 315.036 15.618 314.903C15.5113 314.77 15.3713 314.676 15.198 314.623C15.0313 314.563 14.828 314.533 14.588 314.533C14.3013 314.533 14.0546 314.58 13.848 314.673C13.6413 314.76 13.4846 314.893 13.378 315.073C13.278 315.246 13.228 315.473 13.228 315.753H13.038L12.988 314.533H13.188C13.308 314.246 13.5046 314.023 13.778 313.863C14.058 313.696 14.4146 313.613 14.848 313.613C15.548 313.613 16.0846 313.846 16.458 314.313C16.8313 314.78 17.018 315.406 17.018 316.193C17.018 316.98 16.838 317.61 16.478 318.083C16.118 318.55 15.598 318.783 14.918 318.783ZM13.228 320.413H12.158V313.713H13.138V314.893L13.228 315.023V320.413ZM19.9127 318.683C19.3661 318.683 18.9461 318.566 18.6527 318.333C18.3661 318.1 18.2227 317.706 18.2227 317.153V313.823L18.4727 312.483H19.3027V317.103C19.3027 317.363 19.3661 317.53 19.4927 317.603C19.6261 317.67 19.8627 317.703 20.2027 317.703H20.8027V318.593C20.7027 318.62 20.5727 318.643 20.4127 318.663C20.2527 318.676 20.0861 318.683 19.9127 318.683ZM20.8027 314.613H17.3927V313.713H20.8027V314.613ZM23.5681 318.783C23.0281 318.783 22.5781 318.676 22.2181 318.463C21.8581 318.243 21.5915 317.94 21.4181 317.553C21.2448 317.16 21.1581 316.706 21.1581 316.193C21.1581 315.68 21.2548 315.23 21.4481 314.843C21.6481 314.456 21.9281 314.156 22.2881 313.943C22.6481 313.723 23.0748 313.613 23.5681 313.613C24.0148 313.613 24.4081 313.7 24.7481 313.873C25.0948 314.04 25.3615 314.283 25.5481 314.603C25.7415 314.923 25.8381 315.31 25.8381 315.763C25.8381 315.896 25.8315 316.026 25.8181 316.153C25.8115 316.273 25.8015 316.373 25.7881 316.453H21.6681V315.733H24.9081L24.7981 315.833C24.8248 315.526 24.7915 315.276 24.6981 315.083C24.6115 314.89 24.4681 314.746 24.2681 314.653C24.0748 314.56 23.8315 314.513 23.5381 314.513C23.0115 314.513 22.6515 314.646 22.4581 314.913C22.2648 315.173 22.1681 315.533 22.1681 315.993V316.293C22.1681 316.626 22.2081 316.91 22.2881 317.143C22.3748 317.37 22.5215 317.54 22.7281 317.653C22.9348 317.766 23.2181 317.823 23.5781 317.823C23.9981 317.823 24.2948 317.756 24.4681 317.623C24.6415 317.49 24.7281 317.313 24.7281 317.093V317.013H25.7981V317.103C25.7981 317.443 25.7048 317.74 25.5181 317.993C25.3315 318.24 25.0715 318.433 24.7381 318.573C24.4115 318.713 24.0215 318.783 23.5681 318.783ZM34.6799 318.683H33.5999V315.793C33.5999 315.353 33.5166 315.036 33.3499 314.843C33.1899 314.643 32.8833 314.543 32.4299 314.543C32.0233 314.543 31.7199 314.64 31.5199 314.833C31.3266 315.02 31.2299 315.34 31.2299 315.793L31.0399 315.813L30.9499 314.643H31.1099C31.1899 314.47 31.2999 314.306 31.4399 314.153C31.5866 313.993 31.7733 313.863 31.9999 313.763C32.2266 313.663 32.5033 313.613 32.8299 313.613C33.2633 313.613 33.6133 313.696 33.8799 313.863C34.1533 314.03 34.3533 314.26 34.4799 314.553C34.6133 314.846 34.6799 315.183 34.6799 315.563V318.683ZM27.7799 318.683H26.6999V313.713H27.6899V315.203L27.7799 315.253V318.683ZM31.2299 318.683H30.1499V315.793C30.1499 315.353 30.0666 315.036 29.8999 314.843C29.7399 314.643 29.4333 314.543 28.9799 314.543C28.5733 314.543 28.2699 314.636 28.0699 314.823C27.8766 315.01 27.7799 315.33 27.7799 315.783L27.5899 315.813L27.4999 314.643H27.7399C27.8133 314.463 27.9199 314.296 28.0599 314.143C28.2066 313.99 28.3933 313.863 28.6199 313.763C28.8466 313.663 29.1166 313.613 29.4299 313.613C29.8499 313.613 30.1899 313.696 30.4499 313.863C30.7166 314.03 30.9133 314.26 31.0399 314.553C31.1666 314.846 31.2299 315.183 31.2299 315.563V318.683ZM38.4236 318.783C37.9903 318.783 37.6336 318.703 37.3536 318.543C37.0736 318.376 36.8703 318.15 36.7436 317.863H36.5436L36.6036 316.643H36.7936C36.7936 316.916 36.8436 317.143 36.9436 317.323C37.0503 317.503 37.2036 317.64 37.4036 317.733C37.6103 317.82 37.8569 317.863 38.1436 317.863C38.3836 317.863 38.5869 317.833 38.7536 317.773C38.9269 317.713 39.0703 317.62 39.1836 317.493C39.2969 317.36 39.3769 317.186 39.4236 316.973C39.4769 316.753 39.5036 316.493 39.5036 316.193C39.5036 315.886 39.4769 315.626 39.4236 315.413C39.3769 315.2 39.2969 315.03 39.1836 314.903C39.0769 314.776 38.9369 314.683 38.7636 314.623C38.5903 314.563 38.3836 314.533 38.1436 314.533C37.8569 314.533 37.6103 314.576 37.4036 314.663C37.2036 314.75 37.0503 314.883 36.9436 315.063C36.8436 315.243 36.7936 315.473 36.7936 315.753H36.6036L36.5436 314.503H36.8236C36.9303 314.276 37.1236 314.073 37.4036 313.893C37.6903 313.706 38.0503 313.613 38.4836 313.613C39.1703 313.613 39.6903 313.846 40.0436 314.313C40.4036 314.78 40.5836 315.406 40.5836 316.193C40.5836 316.98 40.3969 317.61 40.0236 318.083C39.6569 318.55 39.1236 318.783 38.4236 318.783ZM36.7036 318.683H35.7136V311.983H36.7936V317.373L36.7036 317.503V318.683ZM43.656 318.783C43.116 318.783 42.666 318.676 42.306 318.463C41.946 318.243 41.6793 317.94 41.506 317.553C41.3327 317.16 41.246 316.706 41.246 316.193C41.246 315.68 41.3427 315.23 41.536 314.843C41.736 314.456 42.016 314.156 42.376 313.943C42.736 313.723 43.1627 313.613 43.656 313.613C44.1027 313.613 44.496 313.7 44.836 313.873C45.1827 314.04 45.4493 314.283 45.636 314.603C45.8293 314.923 45.926 315.31 45.926 315.763C45.926 315.896 45.9193 316.026 45.906 316.153C45.8993 316.273 45.8893 316.373 45.876 316.453H41.756V315.733H44.996L44.886 315.833C44.9127 315.526 44.8793 315.276 44.786 315.083C44.6993 314.89 44.556 314.746 44.356 314.653C44.1627 314.56 43.9193 314.513 43.626 314.513C43.0993 314.513 42.7393 314.646 42.546 314.913C42.3527 315.173 42.256 315.533 42.256 315.993V316.293C42.256 316.626 42.296 316.91 42.376 317.143C42.4627 317.37 42.6093 317.54 42.816 317.653C43.0227 317.766 43.306 317.823 43.666 317.823C44.086 317.823 44.3827 317.756 44.556 317.623C44.7293 317.49 44.816 317.313 44.816 317.093V317.013H45.886V317.103C45.886 317.443 45.7927 317.74 45.606 317.993C45.4193 318.24 45.1593 318.433 44.826 318.573C44.4993 318.713 44.1093 318.783 43.656 318.783ZM47.8678 318.683H46.7878V313.683H47.7778V315.073L47.8678 315.123V318.683ZM47.8678 315.443H47.6178V314.473H47.8278C47.9278 314.24 48.0911 314.04 48.3178 313.873C48.5511 313.7 48.8511 313.613 49.2178 313.613C49.5711 313.613 49.8511 313.69 50.0578 313.843C50.2711 313.996 50.4245 314.2 50.5178 314.453C50.6111 314.706 50.6578 314.99 50.6578 315.303V315.633H49.5778V315.433C49.5778 315.1 49.5211 314.866 49.4078 314.733C49.2945 314.6 49.0811 314.533 48.7678 314.533C48.4411 314.533 48.2078 314.603 48.0678 314.743C47.9345 314.876 47.8678 315.11 47.8678 315.443Z" fill="#ACACAC"/>
<path d="M61.0014 353.001C61.0014 350.745 59.1726 348.917 56.9167 348.917C54.6608 348.917 52.832 350.745 52.832 353.001C52.832 355.257 54.6608 357.086 56.9167 357.086C59.1726 357.086 61.0014 355.257 61.0014 353.001Z" stroke="#213147" stroke-width="0.875289"/>
<path d="M59.9805 352.999C59.9805 351.307 58.609 349.935 56.917 349.935C55.2251 349.935 53.8535 351.307 53.8535 352.999C53.8535 354.691 55.2251 356.062 56.917 356.062C58.609 356.062 59.9805 354.691 59.9805 352.999Z" fill="#213147"/>
<path d="M61.4395 353H85.8326" stroke="#213147" stroke-width="0.361786"/>
<path d="M181.832 348.48H93.832V362.48H181.832V348.48Z" fill="white"/>
<path d="M95.4726 358.481H94.3926V351.781H95.4726V358.481ZM99.0426 358.481H94.7126V357.501H99.0426V358.481ZM103.895 358.481H102.895V357.501L102.865 357.231V355.321C102.865 354.948 102.775 354.694 102.595 354.561C102.422 354.428 102.139 354.361 101.745 354.361C101.352 354.361 101.069 354.431 100.895 354.571C100.729 354.711 100.645 354.944 100.645 355.271V355.421H99.6049V355.321C99.6049 354.948 99.6949 354.618 99.8749 354.331C100.062 354.044 100.319 353.821 100.645 353.661C100.979 353.494 101.365 353.411 101.805 353.411C102.272 353.411 102.659 353.498 102.965 353.671C103.272 353.844 103.502 354.084 103.655 354.391C103.815 354.691 103.895 355.048 103.895 355.461V358.481ZM101.045 358.581C100.599 358.581 100.222 358.468 99.9149 358.241C99.6149 358.008 99.4649 357.678 99.4649 357.251C99.4649 356.971 99.5282 356.738 99.6549 356.551C99.7882 356.364 99.9782 356.211 100.225 356.091C100.472 355.971 100.772 355.888 101.125 355.841L102.965 355.581V356.341L101.285 356.591C100.999 356.631 100.799 356.691 100.685 356.771C100.572 356.851 100.515 356.984 100.515 357.171C100.515 357.364 100.582 357.504 100.715 357.591C100.855 357.678 101.082 357.721 101.395 357.721C101.635 357.721 101.865 357.684 102.085 357.611C102.312 357.531 102.499 357.401 102.645 357.221C102.792 357.034 102.865 356.774 102.865 356.441L103.005 357.711L102.845 357.701C102.752 357.854 102.622 357.998 102.455 358.131C102.295 358.264 102.099 358.374 101.865 358.461C101.632 358.541 101.359 358.581 101.045 358.581ZM106.99 358.581C106.263 358.581 105.713 358.438 105.34 358.151C104.967 357.858 104.78 357.408 104.78 356.801V356.781H105.82V356.961C105.82 357.134 105.853 357.278 105.92 357.391C105.993 357.498 106.113 357.578 106.28 357.631C106.453 357.678 106.697 357.701 107.01 357.701C107.277 357.701 107.477 357.681 107.61 357.641C107.75 357.594 107.843 357.531 107.89 357.451C107.937 357.371 107.96 357.271 107.96 357.151C107.96 356.951 107.89 356.811 107.75 356.731C107.61 356.644 107.36 356.568 107 356.501L106.22 356.371C105.927 356.311 105.67 356.228 105.45 356.121C105.237 356.008 105.07 355.854 104.95 355.661C104.837 355.461 104.78 355.211 104.78 354.911C104.78 354.464 104.957 354.104 105.31 353.831C105.663 353.551 106.163 353.411 106.81 353.411C107.203 353.411 107.553 353.474 107.86 353.601C108.167 353.728 108.41 353.918 108.59 354.171C108.77 354.424 108.86 354.741 108.86 355.121V355.211H107.83V355.091C107.83 354.931 107.803 354.794 107.75 354.681C107.697 354.561 107.597 354.468 107.45 354.401C107.303 354.334 107.08 354.301 106.78 354.301C106.387 354.301 106.127 354.351 106 354.451C105.873 354.551 105.81 354.698 105.81 354.891C105.81 355.084 105.867 355.221 105.98 355.301C106.1 355.374 106.333 355.448 106.68 355.521L107.53 355.681C107.85 355.741 108.117 355.831 108.33 355.951C108.543 356.071 108.703 356.228 108.81 356.421C108.923 356.614 108.98 356.844 108.98 357.111C108.98 357.578 108.803 357.941 108.45 358.201C108.103 358.454 107.617 358.581 106.99 358.581ZM111.873 358.481C111.326 358.481 110.906 358.364 110.613 358.131C110.326 357.898 110.183 357.504 110.183 356.951V353.621L110.433 352.281H111.263V356.901C111.263 357.161 111.326 357.328 111.453 357.401C111.586 357.468 111.823 357.501 112.163 357.501H112.763V358.391C112.663 358.418 112.533 358.441 112.373 358.461C112.213 358.474 112.046 358.481 111.873 358.481ZM112.763 354.411H109.353V353.511H112.763V354.411ZM116.498 358.481H115.418V351.781H116.498V358.481ZM120.018 355.791H115.748V354.821H120.018V355.791ZM120.168 352.751H115.748V351.781H120.168V352.751ZM123.126 358.581C122.586 358.581 122.136 358.474 121.776 358.261C121.416 358.041 121.149 357.738 120.976 357.351C120.802 356.958 120.716 356.504 120.716 355.991C120.716 355.478 120.812 355.028 121.006 354.641C121.206 354.254 121.486 353.954 121.846 353.741C122.206 353.521 122.632 353.411 123.126 353.411C123.572 353.411 123.966 353.498 124.306 353.671C124.652 353.838 124.919 354.081 125.106 354.401C125.299 354.721 125.396 355.108 125.396 355.561C125.396 355.694 125.389 355.824 125.376 355.951C125.369 356.071 125.359 356.171 125.346 356.251H121.226V355.531H124.466L124.356 355.631C124.382 355.324 124.349 355.074 124.256 354.881C124.169 354.688 124.026 354.544 123.826 354.451C123.632 354.358 123.389 354.311 123.096 354.311C122.569 354.311 122.209 354.444 122.016 354.711C121.822 354.971 121.726 355.331 121.726 355.791V356.091C121.726 356.424 121.766 356.708 121.846 356.941C121.932 357.168 122.079 357.338 122.286 357.451C122.492 357.564 122.776 357.621 123.136 357.621C123.556 357.621 123.852 357.554 124.026 357.421C124.199 357.288 124.286 357.111 124.286 356.891V356.811H125.356V356.901C125.356 357.241 125.262 357.538 125.076 357.791C124.889 358.038 124.629 358.231 124.296 358.371C123.969 358.511 123.579 358.581 123.126 358.581ZM128.272 358.481H126.862L125.632 353.511H126.802L127.372 356.271L127.582 357.581H127.662L127.982 356.271L128.852 353.511H130.252L131.132 356.281L131.452 357.571H131.522L131.732 356.281L132.302 353.511H133.432L132.202 358.481H130.792L129.902 355.711L129.572 354.461H129.502L129.172 355.711L128.272 358.481ZM138.835 356.321H136.395V355.351H138.965C139.405 355.351 139.718 355.254 139.905 355.061C140.098 354.868 140.195 354.531 140.195 354.051C140.195 353.571 140.098 353.234 139.905 353.041C139.718 352.848 139.405 352.751 138.965 352.751H136.395V351.781H138.835C139.301 351.781 139.718 351.871 140.085 352.051C140.451 352.231 140.738 352.491 140.945 352.831C141.158 353.164 141.265 353.571 141.265 354.051C141.265 354.531 141.158 354.941 140.945 355.281C140.738 355.621 140.451 355.881 140.085 356.061C139.718 356.234 139.301 356.321 138.835 356.321ZM137.065 358.481H135.985V351.781H137.065V358.481ZM143.06 358.481H141.98V353.481H142.97V354.871L143.06 354.921V358.481ZM143.06 355.241H142.81V354.271H143.02C143.12 354.038 143.284 353.838 143.51 353.671C143.744 353.498 144.044 353.411 144.41 353.411C144.764 353.411 145.044 353.488 145.25 353.641C145.464 353.794 145.617 353.998 145.71 354.251C145.804 354.504 145.85 354.788 145.85 355.101V355.431H144.77V355.231C144.77 354.898 144.714 354.664 144.6 354.531C144.487 354.398 144.274 354.331 143.96 354.331C143.634 354.331 143.4 354.401 143.26 354.541C143.127 354.674 143.06 354.908 143.06 355.241ZM148.821 358.581C148.314 358.581 147.874 358.474 147.501 358.261C147.127 358.041 146.841 357.738 146.641 357.351C146.441 356.958 146.341 356.504 146.341 355.991C146.341 355.478 146.441 355.028 146.641 354.641C146.841 354.254 147.127 353.954 147.501 353.741C147.874 353.521 148.314 353.411 148.821 353.411C149.327 353.411 149.761 353.521 150.121 353.741C150.487 353.954 150.767 354.254 150.961 354.641C151.161 355.028 151.261 355.478 151.261 355.991C151.261 356.504 151.161 356.958 150.961 357.351C150.767 357.738 150.487 358.041 150.121 358.261C149.761 358.474 149.327 358.581 148.821 358.581ZM148.821 357.621C149.341 357.621 149.704 357.491 149.911 357.231C150.117 356.964 150.221 356.551 150.221 355.991C150.221 355.431 150.117 355.021 149.911 354.761C149.704 354.501 149.341 354.371 148.821 354.371C148.294 354.371 147.927 354.501 147.721 354.761C147.514 355.021 147.411 355.431 147.411 355.991C147.411 356.551 147.514 356.964 147.721 357.231C147.927 357.491 148.294 357.621 148.821 357.621ZM154.467 360.281C154 360.281 153.594 360.208 153.247 360.061C152.907 359.914 152.644 359.701 152.457 359.421C152.27 359.148 152.177 358.811 152.177 358.411H153.257C153.257 358.638 153.29 358.818 153.357 358.951C153.424 359.084 153.547 359.178 153.727 359.231C153.907 359.291 154.164 359.321 154.497 359.321C154.824 359.321 155.074 359.284 155.247 359.211C155.42 359.138 155.54 359.014 155.607 358.841C155.674 358.668 155.707 358.428 155.707 358.121V354.821L155.787 354.691V353.511H156.787V358.121C156.787 358.608 156.694 359.008 156.507 359.321C156.32 359.641 156.054 359.881 155.707 360.041C155.367 360.201 154.954 360.281 154.467 360.281ZM154.047 358.011C153.36 358.011 152.834 357.804 152.467 357.391C152.1 356.971 151.917 356.411 151.917 355.711C151.917 355.011 152.104 354.454 152.477 354.041C152.85 353.621 153.387 353.411 154.087 353.411C154.494 353.411 154.844 353.494 155.137 353.661C155.43 353.821 155.634 354.044 155.747 354.331H155.947L155.897 355.551H155.707C155.707 355.271 155.65 355.041 155.537 354.861C155.424 354.681 155.264 354.548 155.057 354.461C154.85 354.374 154.61 354.331 154.337 354.331C154.024 354.331 153.767 354.374 153.567 354.461C153.374 354.548 153.23 354.694 153.137 354.901C153.044 355.101 152.997 355.371 152.997 355.711C152.997 355.964 153.024 356.181 153.077 356.361C153.13 356.534 153.214 356.674 153.327 356.781C153.44 356.888 153.584 356.968 153.757 357.021C153.93 357.068 154.13 357.091 154.357 357.091C154.63 357.091 154.867 357.048 155.067 356.961C155.267 356.868 155.424 356.731 155.537 356.551C155.65 356.371 155.707 356.141 155.707 355.861H155.927V357.131H155.667C155.554 357.371 155.357 357.578 155.077 357.751C154.797 357.924 154.454 358.011 154.047 358.011ZM158.929 358.481H157.849V353.481H158.839V354.871L158.929 354.921V358.481ZM158.929 355.241H158.679V354.271H158.889C158.989 354.038 159.153 353.838 159.379 353.671C159.613 353.498 159.913 353.411 160.279 353.411C160.633 353.411 160.913 353.488 161.119 353.641C161.333 353.794 161.486 353.998 161.579 354.251C161.673 354.504 161.719 354.788 161.719 355.101V355.431H160.639V355.231C160.639 354.898 160.583 354.664 160.469 354.531C160.356 354.398 160.143 354.331 159.829 354.331C159.503 354.331 159.269 354.401 159.129 354.541C158.996 354.674 158.929 354.908 158.929 355.241ZM166.503 358.481H165.503V357.501L165.473 357.231V355.321C165.473 354.948 165.383 354.694 165.203 354.561C165.029 354.428 164.746 354.361 164.353 354.361C163.959 354.361 163.676 354.431 163.503 354.571C163.336 354.711 163.253 354.944 163.253 355.271V355.421H162.213V355.321C162.213 354.948 162.303 354.618 162.483 354.331C162.669 354.044 162.926 353.821 163.253 353.661C163.586 353.494 163.973 353.411 164.413 353.411C164.879 353.411 165.266 353.498 165.573 353.671C165.879 353.844 166.109 354.084 166.263 354.391C166.423 354.691 166.503 355.048 166.503 355.461V358.481ZM163.653 358.581C163.206 358.581 162.829 358.468 162.523 358.241C162.223 358.008 162.073 357.678 162.073 357.251C162.073 356.971 162.136 356.738 162.263 356.551C162.396 356.364 162.586 356.211 162.833 356.091C163.079 355.971 163.379 355.888 163.733 355.841L165.573 355.581V356.341L163.893 356.591C163.606 356.631 163.406 356.691 163.293 356.771C163.179 356.851 163.123 356.984 163.123 357.171C163.123 357.364 163.189 357.504 163.323 357.591C163.463 357.678 163.689 357.721 164.003 357.721C164.243 357.721 164.473 357.684 164.693 357.611C164.919 357.531 165.106 357.401 165.253 357.221C165.399 357.034 165.473 356.774 165.473 356.441L165.613 357.711L165.453 357.701C165.359 357.854 165.229 357.998 165.063 358.131C164.903 358.264 164.706 358.374 164.473 358.461C164.239 358.541 163.966 358.581 163.653 358.581ZM175.517 358.481H174.437V355.591C174.437 355.151 174.354 354.834 174.187 354.641C174.027 354.441 173.72 354.341 173.267 354.341C172.86 354.341 172.557 354.438 172.357 354.631C172.164 354.818 172.067 355.138 172.067 355.591L171.877 355.611L171.787 354.441H171.947C172.027 354.268 172.137 354.104 172.277 353.951C172.424 353.791 172.61 353.661 172.837 353.561C173.064 353.461 173.34 353.411 173.667 353.411C174.1 353.411 174.45 353.494 174.717 353.661C174.99 353.828 175.19 354.058 175.317 354.351C175.45 354.644 175.517 354.981 175.517 355.361V358.481ZM168.617 358.481H167.537V353.511H168.527V355.001L168.617 355.051V358.481ZM172.067 358.481H170.987V355.591C170.987 355.151 170.904 354.834 170.737 354.641C170.577 354.441 170.27 354.341 169.817 354.341C169.41 354.341 169.107 354.434 168.907 354.621C168.714 354.808 168.617 355.128 168.617 355.581L168.427 355.611L168.337 354.441H168.577C168.65 354.261 168.757 354.094 168.897 353.941C169.044 353.788 169.23 353.661 169.457 353.561C169.684 353.461 169.954 353.411 170.267 353.411C170.687 353.411 171.027 353.494 171.287 353.661C171.554 353.828 171.75 354.058 171.877 354.351C172.004 354.644 172.067 354.981 172.067 355.361V358.481ZM178.611 358.581C177.885 358.581 177.335 358.438 176.961 358.151C176.588 357.858 176.401 357.408 176.401 356.801V356.781H177.441V356.961C177.441 357.134 177.475 357.278 177.541 357.391C177.615 357.498 177.735 357.578 177.901 357.631C178.075 357.678 178.318 357.701 178.631 357.701C178.898 357.701 179.098 357.681 179.231 357.641C179.371 357.594 179.465 357.531 179.511 357.451C179.558 357.371 179.581 357.271 179.581 357.151C179.581 356.951 179.511 356.811 179.371 356.731C179.231 356.644 178.981 356.568 178.621 356.501L177.841 356.371C177.548 356.311 177.291 356.228 177.071 356.121C176.858 356.008 176.691 355.854 176.571 355.661C176.458 355.461 176.401 355.211 176.401 354.911C176.401 354.464 176.578 354.104 176.931 353.831C177.285 353.551 177.785 353.411 178.431 353.411C178.825 353.411 179.175 353.474 179.481 353.601C179.788 353.728 180.031 353.918 180.211 354.171C180.391 354.424 180.481 354.741 180.481 355.121V355.211H179.451V355.091C179.451 354.931 179.425 354.794 179.371 354.681C179.318 354.561 179.218 354.468 179.071 354.401C178.925 354.334 178.701 354.301 178.401 354.301C178.008 354.301 177.748 354.351 177.621 354.451C177.495 354.551 177.431 354.698 177.431 354.891C177.431 355.084 177.488 355.221 177.601 355.301C177.721 355.374 177.955 355.448 178.301 355.521L179.151 355.681C179.471 355.741 179.738 355.831 179.951 355.951C180.165 356.071 180.325 356.228 180.431 356.421C180.545 356.614 180.601 356.844 180.601 357.111C180.601 357.578 180.425 357.941 180.071 358.201C179.725 358.454 179.238 358.581 178.611 358.581Z" fill="#3F3F46"/>
<path d="M61.0014 217.275C61.0014 215.019 59.1726 213.19 56.9167 213.19C54.6608 213.19 52.832 215.019 52.832 217.275C52.832 219.531 54.6608 221.359 56.9167 221.359C59.1726 221.359 61.0014 219.531 61.0014 217.275Z" stroke="#213147" stroke-width="0.875289"/>
<path d="M59.9805 217.272C59.9805 215.58 58.609 214.209 56.917 214.209C55.2251 214.209 53.8535 215.58 53.8535 217.272C53.8535 218.964 55.2251 220.336 56.917 220.336C58.609 220.336 59.9805 218.964 59.9805 217.272Z" fill="#213147"/>
<path d="M61.4395 217.273H85.8326" stroke="#213147" stroke-width="0.361786"/>
<path d="M175.832 212.754H93.832V226.754H175.832V212.754Z" fill="white"/>
<path d="M97.2426 220.593H94.8026V219.623H97.3726C97.8126 219.623 98.126 219.527 98.3126 219.333C98.506 219.14 98.6026 218.803 98.6026 218.323C98.6026 217.843 98.506 217.507 98.3126 217.313C98.126 217.12 97.8126 217.023 97.3726 217.023H94.8026V216.053H97.2426C97.7093 216.053 98.126 216.143 98.4926 216.323C98.8593 216.503 99.146 216.763 99.3526 217.103C99.566 217.437 99.6726 217.843 99.6726 218.323C99.6726 218.803 99.566 219.213 99.3526 219.553C99.146 219.893 98.8593 220.153 98.4926 220.333C98.126 220.507 97.7093 220.593 97.2426 220.593ZM95.4726 222.753H94.3926V216.053H95.4726V222.753ZM101.468 222.753H100.388V217.753H101.378V219.143L101.468 219.193V222.753ZM101.468 219.513H101.218V218.543H101.428C101.528 218.31 101.692 218.11 101.918 217.943C102.152 217.77 102.452 217.683 102.818 217.683C103.172 217.683 103.452 217.76 103.658 217.913C103.872 218.067 104.025 218.27 104.118 218.523C104.212 218.777 104.258 219.06 104.258 219.373V219.703H103.178V219.503C103.178 219.17 103.122 218.937 103.008 218.803C102.895 218.67 102.682 218.603 102.368 218.603C102.042 218.603 101.808 218.673 101.668 218.813C101.535 218.947 101.468 219.18 101.468 219.513ZM107.229 222.853C106.722 222.853 106.282 222.747 105.909 222.533C105.536 222.313 105.249 222.01 105.049 221.623C104.849 221.23 104.749 220.777 104.749 220.263C104.749 219.75 104.849 219.3 105.049 218.913C105.249 218.527 105.536 218.227 105.909 218.013C106.282 217.793 106.722 217.683 107.229 217.683C107.736 217.683 108.169 217.793 108.529 218.013C108.896 218.227 109.176 218.527 109.369 218.913C109.569 219.3 109.669 219.75 109.669 220.263C109.669 220.777 109.569 221.23 109.369 221.623C109.176 222.01 108.896 222.313 108.529 222.533C108.169 222.747 107.736 222.853 107.229 222.853ZM107.229 221.893C107.749 221.893 108.112 221.763 108.319 221.503C108.526 221.237 108.629 220.823 108.629 220.263C108.629 219.703 108.526 219.293 108.319 219.033C108.112 218.773 107.749 218.643 107.229 218.643C106.702 218.643 106.336 218.773 106.129 219.033C105.922 219.293 105.819 219.703 105.819 220.263C105.819 220.823 105.922 221.237 106.129 221.503C106.336 221.763 106.702 221.893 107.229 221.893ZM112.875 224.553C112.408 224.553 112.002 224.48 111.655 224.333C111.315 224.187 111.052 223.973 110.865 223.693C110.678 223.42 110.585 223.083 110.585 222.683H111.665C111.665 222.91 111.698 223.09 111.765 223.223C111.832 223.357 111.955 223.45 112.135 223.503C112.315 223.563 112.572 223.593 112.905 223.593C113.232 223.593 113.482 223.557 113.655 223.483C113.828 223.41 113.948 223.287 114.015 223.113C114.082 222.94 114.115 222.7 114.115 222.393V219.093L114.195 218.963V217.783H115.195V222.393C115.195 222.88 115.102 223.28 114.915 223.593C114.728 223.913 114.462 224.153 114.115 224.313C113.775 224.473 113.362 224.553 112.875 224.553ZM112.455 222.283C111.768 222.283 111.242 222.077 110.875 221.663C110.508 221.243 110.325 220.683 110.325 219.983C110.325 219.283 110.512 218.727 110.885 218.313C111.258 217.893 111.795 217.683 112.495 217.683C112.902 217.683 113.252 217.767 113.545 217.933C113.838 218.093 114.042 218.317 114.155 218.603H114.355L114.305 219.823H114.115C114.115 219.543 114.058 219.313 113.945 219.133C113.832 218.953 113.672 218.82 113.465 218.733C113.258 218.647 113.018 218.603 112.745 218.603C112.432 218.603 112.175 218.647 111.975 218.733C111.782 218.82 111.638 218.967 111.545 219.173C111.452 219.373 111.405 219.643 111.405 219.983C111.405 220.237 111.432 220.453 111.485 220.633C111.538 220.807 111.622 220.947 111.735 221.053C111.848 221.16 111.992 221.24 112.165 221.293C112.338 221.34 112.538 221.363 112.765 221.363C113.038 221.363 113.275 221.32 113.475 221.233C113.675 221.14 113.832 221.003 113.945 220.823C114.058 220.643 114.115 220.413 114.115 220.133H114.335V221.403H114.075C113.962 221.643 113.765 221.85 113.485 222.023C113.205 222.197 112.862 222.283 112.455 222.283ZM117.338 222.753H116.258V217.753H117.248V219.143L117.338 219.193V222.753ZM117.338 219.513H117.088V218.543H117.298C117.398 218.31 117.561 218.11 117.788 217.943C118.021 217.77 118.321 217.683 118.688 217.683C119.041 217.683 119.321 217.76 119.528 217.913C119.741 218.067 119.894 218.27 119.988 218.523C120.081 218.777 120.128 219.06 120.128 219.373V219.703H119.048V219.503C119.048 219.17 118.991 218.937 118.878 218.803C118.764 218.67 118.551 218.603 118.238 218.603C117.911 218.603 117.678 218.673 117.538 218.813C117.404 218.947 117.338 219.18 117.338 219.513ZM124.911 222.753H123.911V221.773L123.881 221.503V219.593C123.881 219.22 123.791 218.967 123.611 218.833C123.438 218.7 123.154 218.633 122.761 218.633C122.368 218.633 122.084 218.703 121.911 218.843C121.744 218.983 121.661 219.217 121.661 219.543V219.693H120.621V219.593C120.621 219.22 120.711 218.89 120.891 218.603C121.078 218.317 121.334 218.093 121.661 217.933C121.994 217.767 122.381 217.683 122.821 217.683C123.288 217.683 123.674 217.77 123.981 217.943C124.288 218.117 124.518 218.357 124.671 218.663C124.831 218.963 124.911 219.32 124.911 219.733V222.753ZM122.061 222.853C121.614 222.853 121.238 222.74 120.931 222.513C120.631 222.28 120.481 221.95 120.481 221.523C120.481 221.243 120.544 221.01 120.671 220.823C120.804 220.637 120.994 220.483 121.241 220.363C121.488 220.243 121.788 220.16 122.141 220.113L123.981 219.853V220.613L122.301 220.863C122.014 220.903 121.814 220.963 121.701 221.043C121.588 221.123 121.531 221.257 121.531 221.443C121.531 221.637 121.598 221.777 121.731 221.863C121.871 221.95 122.098 221.993 122.411 221.993C122.651 221.993 122.881 221.957 123.101 221.883C123.328 221.803 123.514 221.673 123.661 221.493C123.808 221.307 123.881 221.047 123.881 220.713L124.021 221.983L123.861 221.973C123.768 222.127 123.638 222.27 123.471 222.403C123.311 222.537 123.114 222.647 122.881 222.733C122.648 222.813 122.374 222.853 122.061 222.853ZM133.925 222.753H132.845V219.863C132.845 219.423 132.762 219.107 132.595 218.913C132.435 218.713 132.128 218.613 131.675 218.613C131.268 218.613 130.965 218.71 130.765 218.903C130.572 219.09 130.475 219.41 130.475 219.863L130.285 219.883L130.195 218.713H130.355C130.435 218.54 130.545 218.377 130.685 218.223C130.832 218.063 131.018 217.933 131.245 217.833C131.472 217.733 131.748 217.683 132.075 217.683C132.508 217.683 132.858 217.767 133.125 217.933C133.398 218.1 133.598 218.33 133.725 218.623C133.858 218.917 133.925 219.253 133.925 219.633V222.753ZM127.025 222.753H125.945V217.783H126.935V219.273L127.025 219.323V222.753ZM130.475 222.753H129.395V219.863C129.395 219.423 129.312 219.107 129.145 218.913C128.985 218.713 128.678 218.613 128.225 218.613C127.818 218.613 127.515 218.707 127.315 218.893C127.122 219.08 127.025 219.4 127.025 219.853L126.835 219.883L126.745 218.713H126.985C127.058 218.533 127.165 218.367 127.305 218.213C127.452 218.06 127.638 217.933 127.865 217.833C128.092 217.733 128.362 217.683 128.675 217.683C129.095 217.683 129.435 217.767 129.695 217.933C129.962 218.1 130.158 218.33 130.285 218.623C130.412 218.917 130.475 219.253 130.475 219.633V222.753ZM137.019 222.853C136.293 222.853 135.743 222.71 135.369 222.423C134.996 222.13 134.809 221.68 134.809 221.073V221.053H135.849V221.233C135.849 221.407 135.883 221.55 135.949 221.663C136.023 221.77 136.143 221.85 136.309 221.903C136.483 221.95 136.726 221.973 137.039 221.973C137.306 221.973 137.506 221.953 137.639 221.913C137.779 221.867 137.873 221.803 137.919 221.723C137.966 221.643 137.989 221.543 137.989 221.423C137.989 221.223 137.919 221.083 137.779 221.003C137.639 220.917 137.389 220.84 137.029 220.773L136.249 220.643C135.956 220.583 135.699 220.5 135.479 220.393C135.266 220.28 135.099 220.127 134.979 219.933C134.866 219.733 134.809 219.483 134.809 219.183C134.809 218.737 134.986 218.377 135.339 218.103C135.693 217.823 136.193 217.683 136.839 217.683C137.233 217.683 137.583 217.747 137.889 217.873C138.196 218 138.439 218.19 138.619 218.443C138.799 218.697 138.889 219.013 138.889 219.393V219.483H137.859V219.363C137.859 219.203 137.833 219.067 137.779 218.953C137.726 218.833 137.626 218.74 137.479 218.673C137.333 218.607 137.109 218.573 136.809 218.573C136.416 218.573 136.156 218.623 136.029 218.723C135.903 218.823 135.839 218.97 135.839 219.163C135.839 219.357 135.896 219.493 136.009 219.573C136.129 219.647 136.363 219.72 136.709 219.793L137.559 219.953C137.879 220.013 138.146 220.103 138.359 220.223C138.573 220.343 138.733 220.5 138.839 220.693C138.953 220.887 139.009 221.117 139.009 221.383C139.009 221.85 138.833 222.213 138.479 222.473C138.133 222.727 137.646 222.853 137.019 222.853ZM142.875 222.753H141.795V216.053H144.675C145.169 216.053 145.595 216.133 145.955 216.293C146.315 216.447 146.592 216.673 146.785 216.973C146.985 217.267 147.085 217.627 147.085 218.053C147.085 218.42 147.012 218.74 146.865 219.013C146.725 219.28 146.515 219.49 146.235 219.643C145.962 219.79 145.625 219.873 145.225 219.893V219.973C145.472 220.053 145.675 220.17 145.835 220.323C145.995 220.477 146.135 220.667 146.255 220.893L147.265 222.753H146.005L145.055 221.023C144.955 220.83 144.849 220.67 144.735 220.543C144.622 220.417 144.482 220.323 144.315 220.263C144.149 220.203 143.935 220.173 143.675 220.173H142.875V222.753ZM142.875 217.023V219.283H144.805C145.239 219.283 145.549 219.197 145.735 219.023C145.922 218.85 146.015 218.56 146.015 218.153C146.015 217.753 145.922 217.467 145.735 217.293C145.549 217.113 145.239 217.023 144.805 217.023H142.875ZM150.012 222.853C149.506 222.853 149.066 222.747 148.692 222.533C148.319 222.313 148.032 222.01 147.832 221.623C147.632 221.23 147.532 220.777 147.532 220.263C147.532 219.75 147.632 219.3 147.832 218.913C148.032 218.527 148.319 218.227 148.692 218.013C149.066 217.793 149.506 217.683 150.012 217.683C150.519 217.683 150.952 217.793 151.312 218.013C151.679 218.227 151.959 218.527 152.152 218.913C152.352 219.3 152.452 219.75 152.452 220.263C152.452 220.777 152.352 221.23 152.152 221.623C151.959 222.01 151.679 222.313 151.312 222.533C150.952 222.747 150.519 222.853 150.012 222.853ZM150.012 221.893C150.532 221.893 150.896 221.763 151.102 221.503C151.309 221.237 151.412 220.823 151.412 220.263C151.412 219.703 151.309 219.293 151.102 219.033C150.896 218.773 150.532 218.643 150.012 218.643C149.486 218.643 149.119 218.773 148.912 219.033C148.706 219.293 148.602 219.703 148.602 220.263C148.602 220.823 148.706 221.237 148.912 221.503C149.119 221.763 149.486 221.893 150.012 221.893ZM154.349 222.753H153.269V216.053H154.349V222.753ZM156.537 222.753H155.457V216.053H156.537V222.753ZM162.44 222.853C161.807 222.853 161.254 222.713 160.78 222.433C160.314 222.147 159.95 221.747 159.69 221.233C159.437 220.713 159.31 220.103 159.31 219.403C159.31 218.703 159.437 218.097 159.69 217.583C159.95 217.063 160.314 216.663 160.78 216.383C161.254 216.097 161.807 215.953 162.44 215.953C163.08 215.953 163.634 216.097 164.1 216.383C164.567 216.663 164.927 217.063 165.18 217.583C165.434 218.097 165.56 218.703 165.56 219.403C165.56 220.103 165.434 220.713 165.18 221.233C164.927 221.747 164.567 222.147 164.1 222.433C163.634 222.713 163.08 222.853 162.44 222.853ZM162.44 221.803C162.907 221.803 163.284 221.727 163.57 221.573C163.857 221.413 164.067 221.157 164.2 220.803C164.34 220.45 164.41 219.983 164.41 219.403C164.41 218.817 164.34 218.35 164.2 218.003C164.067 217.65 163.857 217.393 163.57 217.233C163.284 217.073 162.907 216.993 162.44 216.993C161.98 216.993 161.604 217.073 161.31 217.233C161.017 217.393 160.8 217.65 160.66 218.003C160.527 218.35 160.46 218.817 160.46 219.403C160.46 219.983 160.527 220.45 160.66 220.803C160.8 221.157 161.017 221.413 161.31 221.573C161.604 221.727 161.98 221.803 162.44 221.803ZM168.303 222.853C167.876 222.853 167.523 222.767 167.243 222.593C166.963 222.413 166.756 222.173 166.623 221.873C166.49 221.567 166.423 221.227 166.423 220.853V217.783H167.503V220.653C167.503 221.1 167.596 221.423 167.783 221.623C167.97 221.823 168.276 221.923 168.703 221.923C168.983 221.923 169.22 221.88 169.413 221.793C169.606 221.7 169.753 221.557 169.853 221.363C169.953 221.163 170.003 220.903 170.003 220.583H170.283V221.763H170.043C169.97 221.95 169.856 222.127 169.703 222.293C169.556 222.46 169.366 222.597 169.133 222.703C168.906 222.803 168.63 222.853 168.303 222.853ZM171.083 222.753H170.083V221.263L170.003 221.213V217.783H171.083V222.753ZM174.168 222.753C173.621 222.753 173.201 222.637 172.908 222.403C172.621 222.17 172.478 221.777 172.478 221.223V217.893L172.728 216.553H173.558V221.173C173.558 221.433 173.621 221.6 173.748 221.673C173.881 221.74 174.118 221.773 174.458 221.773H175.058V222.663C174.958 222.69 174.828 222.713 174.668 222.733C174.508 222.747 174.341 222.753 174.168 222.753ZM175.058 218.683H171.648V217.783H175.058V218.683Z" fill="#3F3F46"/>
<path d="M61.0014 169.372C61.0014 167.116 59.1726 165.288 56.9167 165.288C54.6608 165.288 52.832 167.116 52.832 169.372C52.832 171.628 54.6608 173.457 56.9167 173.457C59.1726 173.457 61.0014 171.628 61.0014 169.372Z" stroke="#213147" stroke-width="0.875289"/>
<path d="M59.9805 169.37C59.9805 167.678 58.609 166.307 56.917 166.307C55.2251 166.307 53.8535 167.678 53.8535 169.37C53.8535 171.062 55.2251 172.434 56.917 172.434C58.609 172.434 59.9805 171.062 59.9805 169.37Z" fill="#213147"/>
<path d="M61.4395 169.371H85.8326" stroke="#213147" stroke-width="0.361786"/>
<path d="M170.832 164.852H93.832V178.852H170.832V164.852Z" fill="white"/>
<path d="M97.102 174.951C96.462 174.951 95.9387 174.861 95.532 174.681C95.1254 174.494 94.822 174.238 94.622 173.911C94.4287 173.578 94.332 173.198 94.332 172.771V172.601H95.392V172.711C95.392 172.984 95.4387 173.214 95.532 173.401C95.632 173.588 95.8087 173.728 96.062 173.821C96.3154 173.914 96.6787 173.961 97.152 173.961C97.6454 173.961 97.992 173.891 98.192 173.751C98.392 173.604 98.492 173.378 98.492 173.071C98.492 172.864 98.462 172.698 98.402 172.571C98.342 172.444 98.222 172.341 98.042 172.261C97.8687 172.174 97.6087 172.098 97.262 172.031L96.122 171.801C95.7354 171.728 95.412 171.614 95.152 171.461C94.892 171.301 94.692 171.098 94.552 170.851C94.4187 170.604 94.352 170.308 94.352 169.961C94.352 169.628 94.4387 169.318 94.612 169.031C94.792 168.738 95.0654 168.501 95.432 168.321C95.8054 168.141 96.2787 168.051 96.852 168.051C97.4654 168.051 97.962 168.154 98.342 168.361C98.7287 168.568 99.0087 168.841 99.182 169.181C99.362 169.514 99.452 169.881 99.452 170.281V170.401H98.382V170.291C98.382 170.011 98.3354 169.781 98.242 169.601C98.1554 169.414 97.9954 169.274 97.762 169.181C97.5354 169.081 97.2254 169.031 96.832 169.031C96.3387 169.031 95.982 169.104 95.762 169.251C95.542 169.398 95.432 169.618 95.432 169.911C95.432 170.111 95.4654 170.271 95.532 170.391C95.6054 170.511 95.7287 170.608 95.902 170.681C96.082 170.748 96.322 170.818 96.622 170.891L97.762 171.131C98.1887 171.211 98.532 171.338 98.792 171.511C99.0587 171.684 99.2554 171.898 99.382 172.151C99.5087 172.398 99.572 172.691 99.572 173.031C99.572 173.378 99.4854 173.698 99.312 173.991C99.1387 174.284 98.8687 174.518 98.502 174.691C98.142 174.864 97.6754 174.951 97.102 174.951ZM102.578 174.961C102.058 174.961 101.618 174.851 101.258 174.631C100.898 174.411 100.622 174.108 100.428 173.721C100.242 173.334 100.148 172.884 100.148 172.371C100.148 171.858 100.245 171.408 100.438 171.021C100.638 170.628 100.922 170.324 101.288 170.111C101.655 169.891 102.098 169.781 102.618 169.781C103.058 169.781 103.445 169.864 103.778 170.031C104.112 170.198 104.368 170.431 104.548 170.731C104.735 171.031 104.828 171.381 104.828 171.781V171.871H103.758V171.811C103.758 171.444 103.658 171.178 103.458 171.011C103.265 170.838 102.962 170.751 102.548 170.751C102.068 170.751 101.725 170.888 101.518 171.161C101.318 171.428 101.218 171.828 101.218 172.361C101.218 172.901 101.318 173.308 101.518 173.581C101.725 173.848 102.068 173.981 102.548 173.981C102.962 173.981 103.265 173.898 103.458 173.731C103.658 173.558 103.758 173.291 103.758 172.931V172.871H104.828V172.961C104.828 173.348 104.735 173.694 104.548 174.001C104.362 174.301 104.098 174.538 103.758 174.711C103.425 174.878 103.032 174.961 102.578 174.961ZM106.721 174.851H105.641V169.851H106.631V171.241L106.721 171.291V174.851ZM106.721 171.611H106.471V170.641H106.681C106.781 170.408 106.945 170.208 107.171 170.041C107.405 169.868 107.705 169.781 108.071 169.781C108.425 169.781 108.705 169.858 108.911 170.011C109.125 170.164 109.278 170.368 109.371 170.621C109.465 170.874 109.511 171.158 109.511 171.471V171.801H108.431V171.601C108.431 171.268 108.375 171.034 108.261 170.901C108.148 170.768 107.935 170.701 107.621 170.701C107.295 170.701 107.061 170.771 106.921 170.911C106.788 171.044 106.721 171.278 106.721 171.611ZM112.412 174.951C111.872 174.951 111.422 174.844 111.062 174.631C110.702 174.411 110.435 174.108 110.262 173.721C110.089 173.328 110.002 172.874 110.002 172.361C110.002 171.848 110.099 171.398 110.292 171.011C110.492 170.624 110.772 170.324 111.132 170.111C111.492 169.891 111.919 169.781 112.412 169.781C112.859 169.781 113.252 169.868 113.592 170.041C113.939 170.208 114.205 170.451 114.392 170.771C114.585 171.091 114.682 171.478 114.682 171.931C114.682 172.064 114.675 172.194 114.662 172.321C114.655 172.441 114.645 172.541 114.632 172.621H110.512V171.901H113.752L113.642 172.001C113.669 171.694 113.635 171.444 113.542 171.251C113.455 171.058 113.312 170.914 113.112 170.821C112.919 170.728 112.675 170.681 112.382 170.681C111.855 170.681 111.495 170.814 111.302 171.081C111.109 171.341 111.012 171.701 111.012 172.161V172.461C111.012 172.794 111.052 173.078 111.132 173.311C111.219 173.538 111.365 173.708 111.572 173.821C111.779 173.934 112.062 173.991 112.422 173.991C112.842 173.991 113.139 173.924 113.312 173.791C113.485 173.658 113.572 173.481 113.572 173.261V173.181H114.642V173.271C114.642 173.611 114.549 173.908 114.362 174.161C114.175 174.408 113.915 174.601 113.582 174.741C113.255 174.881 112.865 174.951 112.412 174.951ZM117.803 174.951C117.263 174.951 116.813 174.844 116.453 174.631C116.093 174.411 115.826 174.108 115.653 173.721C115.479 173.328 115.392 172.874 115.392 172.361C115.392 171.848 115.489 171.398 115.683 171.011C115.883 170.624 116.163 170.324 116.523 170.111C116.883 169.891 117.309 169.781 117.803 169.781C118.249 169.781 118.643 169.868 118.983 170.041C119.329 170.208 119.596 170.451 119.783 170.771C119.976 171.091 120.073 171.478 120.073 171.931C120.073 172.064 120.066 172.194 120.053 172.321C120.046 172.441 120.036 172.541 120.023 172.621H115.903V171.901H119.143L119.033 172.001C119.059 171.694 119.026 171.444 118.933 171.251C118.846 171.058 118.703 170.914 118.503 170.821C118.309 170.728 118.066 170.681 117.773 170.681C117.246 170.681 116.886 170.814 116.693 171.081C116.499 171.341 116.403 171.701 116.403 172.161V172.461C116.403 172.794 116.443 173.078 116.523 173.311C116.609 173.538 116.756 173.708 116.963 173.821C117.169 173.934 117.453 173.991 117.813 173.991C118.233 173.991 118.529 173.924 118.703 173.791C118.876 173.658 118.963 173.481 118.963 173.261V173.181H120.033V173.271C120.033 173.611 119.939 173.908 119.753 174.161C119.566 174.408 119.306 174.601 118.973 174.741C118.646 174.881 118.256 174.951 117.803 174.951ZM125.564 174.851H124.484V171.961C124.484 171.521 124.401 171.204 124.234 171.011C124.068 170.811 123.754 170.711 123.294 170.711C123.001 170.711 122.761 170.754 122.574 170.841C122.388 170.921 122.248 171.054 122.154 171.241C122.061 171.421 122.014 171.668 122.014 171.981H121.824L121.734 170.811H121.974C122.048 170.631 122.158 170.464 122.304 170.311C122.451 170.158 122.638 170.031 122.864 169.931C123.098 169.831 123.374 169.781 123.694 169.781C124.128 169.781 124.481 169.864 124.754 170.031C125.028 170.198 125.231 170.428 125.364 170.721C125.498 171.014 125.564 171.351 125.564 171.731V174.851ZM122.014 174.851H120.934V169.881H121.924V171.371L122.014 171.421V174.851ZM127.608 169.251H126.538L126.528 168.151H127.608V169.251ZM127.618 174.851H126.538V169.851H127.618V174.851ZM133.24 174.851H132.16V171.961C132.16 171.521 132.077 171.204 131.91 171.011C131.743 170.811 131.43 170.711 130.97 170.711C130.677 170.711 130.437 170.754 130.25 170.841C130.063 170.921 129.923 171.054 129.83 171.241C129.737 171.421 129.69 171.668 129.69 171.981H129.5L129.41 170.811H129.65C129.723 170.631 129.833 170.464 129.98 170.311C130.127 170.158 130.313 170.031 130.54 169.931C130.773 169.831 131.05 169.781 131.37 169.781C131.803 169.781 132.157 169.864 132.43 170.031C132.703 170.198 132.907 170.428 133.04 170.721C133.173 171.014 133.24 171.351 133.24 171.731V174.851ZM129.69 174.851H128.61V169.881H129.6V171.371L129.69 171.421V174.851ZM136.605 176.651C136.138 176.651 135.731 176.578 135.385 176.431C135.045 176.284 134.781 176.071 134.595 175.791C134.408 175.518 134.315 175.181 134.315 174.781H135.395C135.395 175.008 135.428 175.188 135.495 175.321C135.561 175.454 135.685 175.548 135.865 175.601C136.045 175.661 136.301 175.691 136.635 175.691C136.961 175.691 137.211 175.654 137.385 175.581C137.558 175.508 137.678 175.384 137.745 175.211C137.811 175.038 137.845 174.798 137.845 174.491V171.191L137.925 171.061V169.881H138.925V174.491C138.925 174.978 138.831 175.378 138.645 175.691C138.458 176.011 138.191 176.251 137.845 176.411C137.505 176.571 137.091 176.651 136.605 176.651ZM136.185 174.381C135.498 174.381 134.971 174.174 134.605 173.761C134.238 173.341 134.055 172.781 134.055 172.081C134.055 171.381 134.241 170.824 134.615 170.411C134.988 169.991 135.525 169.781 136.225 169.781C136.631 169.781 136.981 169.864 137.275 170.031C137.568 170.191 137.771 170.414 137.885 170.701H138.085L138.035 171.921H137.845C137.845 171.641 137.788 171.411 137.675 171.231C137.561 171.051 137.401 170.918 137.195 170.831C136.988 170.744 136.748 170.701 136.475 170.701C136.161 170.701 135.905 170.744 135.705 170.831C135.511 170.918 135.368 171.064 135.275 171.271C135.181 171.471 135.135 171.741 135.135 172.081C135.135 172.334 135.161 172.551 135.215 172.731C135.268 172.904 135.351 173.044 135.465 173.151C135.578 173.258 135.721 173.338 135.895 173.391C136.068 173.438 136.268 173.461 136.495 173.461C136.768 173.461 137.005 173.418 137.205 173.331C137.405 173.238 137.561 173.101 137.675 172.921C137.788 172.741 137.845 172.511 137.845 172.231H138.065V173.501H137.805C137.691 173.741 137.495 173.948 137.215 174.121C136.935 174.294 136.591 174.381 136.185 174.381ZM144.752 172.691H142.312V171.721H144.882C145.322 171.721 145.635 171.624 145.822 171.431C146.015 171.238 146.112 170.901 146.112 170.421C146.112 169.941 146.015 169.604 145.822 169.411C145.635 169.218 145.322 169.121 144.882 169.121H142.312V168.151H144.752C145.218 168.151 145.635 168.241 146.002 168.421C146.368 168.601 146.655 168.861 146.862 169.201C147.075 169.534 147.182 169.941 147.182 170.421C147.182 170.901 147.075 171.311 146.862 171.651C146.655 171.991 146.368 172.251 146.002 172.431C145.635 172.604 145.218 172.691 144.752 172.691ZM142.982 174.851H141.902V168.151H142.982V174.851ZM149.961 174.951C149.421 174.951 148.971 174.844 148.611 174.631C148.251 174.411 147.984 174.108 147.811 173.721C147.637 173.328 147.551 172.874 147.551 172.361C147.551 171.848 147.647 171.398 147.841 171.011C148.041 170.624 148.321 170.324 148.681 170.111C149.041 169.891 149.467 169.781 149.961 169.781C150.407 169.781 150.801 169.868 151.141 170.041C151.487 170.208 151.754 170.451 151.941 170.771C152.134 171.091 152.231 171.478 152.231 171.931C152.231 172.064 152.224 172.194 152.211 172.321C152.204 172.441 152.194 172.541 152.181 172.621H148.061V171.901H151.301L151.191 172.001C151.217 171.694 151.184 171.444 151.091 171.251C151.004 171.058 150.861 170.914 150.661 170.821C150.467 170.728 150.224 170.681 149.931 170.681C149.404 170.681 149.044 170.814 148.851 171.081C148.657 171.341 148.561 171.701 148.561 172.161V172.461C148.561 172.794 148.601 173.078 148.681 173.311C148.767 173.538 148.914 173.708 149.121 173.821C149.327 173.934 149.611 173.991 149.971 173.991C150.391 173.991 150.687 173.924 150.861 173.791C151.034 173.658 151.121 173.481 151.121 173.261V173.181H152.191V173.271C152.191 173.611 152.097 173.908 151.911 174.161C151.724 174.408 151.464 174.601 151.131 174.741C150.804 174.881 150.414 174.951 149.961 174.951ZM154.173 174.851H153.093V169.851H154.083V171.241L154.173 171.291V174.851ZM154.173 171.611H153.923V170.641H154.133C154.233 170.408 154.396 170.208 154.623 170.041C154.856 169.868 155.156 169.781 155.523 169.781C155.876 169.781 156.156 169.858 156.363 170.011C156.576 170.164 156.729 170.368 156.823 170.621C156.916 170.874 156.963 171.158 156.963 171.471V171.801H155.883V171.601C155.883 171.268 155.826 171.034 155.713 170.901C155.599 170.768 155.386 170.701 155.073 170.701C154.746 170.701 154.513 170.771 154.373 170.911C154.239 171.044 154.173 171.278 154.173 171.611ZM158.604 169.251H157.534L157.524 168.151H158.604V169.251ZM158.614 174.851H157.534V169.851H158.614V174.851ZM161.837 174.951C161.331 174.951 160.891 174.844 160.517 174.631C160.144 174.411 159.857 174.108 159.657 173.721C159.457 173.328 159.357 172.874 159.357 172.361C159.357 171.848 159.457 171.398 159.657 171.011C159.857 170.624 160.144 170.324 160.517 170.111C160.891 169.891 161.331 169.781 161.837 169.781C162.344 169.781 162.777 169.891 163.137 170.111C163.504 170.324 163.784 170.624 163.977 171.011C164.177 171.398 164.277 171.848 164.277 172.361C164.277 172.874 164.177 173.328 163.977 173.721C163.784 174.108 163.504 174.411 163.137 174.631C162.777 174.844 162.344 174.951 161.837 174.951ZM161.837 173.991C162.357 173.991 162.721 173.861 162.927 173.601C163.134 173.334 163.237 172.921 163.237 172.361C163.237 171.801 163.134 171.391 162.927 171.131C162.721 170.871 162.357 170.741 161.837 170.741C161.311 170.741 160.944 170.871 160.737 171.131C160.531 171.391 160.427 171.801 160.427 172.361C160.427 172.921 160.531 173.334 160.737 173.601C160.944 173.861 161.311 173.991 161.837 173.991ZM167.124 174.951C166.417 174.951 165.874 174.718 165.494 174.251C165.12 173.778 164.934 173.148 164.934 172.361C164.934 171.574 165.117 170.948 165.484 170.481C165.857 170.014 166.384 169.781 167.064 169.781C167.504 169.781 167.857 169.871 168.124 170.051C168.397 170.224 168.587 170.424 168.694 170.651H168.964L168.914 171.921H168.724C168.724 171.641 168.67 171.411 168.564 171.231C168.457 171.051 168.304 170.918 168.104 170.831C167.904 170.744 167.657 170.701 167.364 170.701C167.124 170.701 166.917 170.731 166.744 170.791C166.577 170.851 166.437 170.944 166.324 171.071C166.217 171.198 166.137 171.368 166.084 171.581C166.037 171.794 166.014 172.054 166.014 172.361C166.014 172.661 166.037 172.921 166.084 173.141C166.137 173.354 166.217 173.528 166.324 173.661C166.437 173.788 166.58 173.881 166.754 173.941C166.927 174.001 167.13 174.031 167.364 174.031C167.657 174.031 167.904 173.988 168.104 173.901C168.304 173.808 168.457 173.671 168.564 173.491C168.67 173.311 168.724 173.084 168.724 172.811H168.914L168.964 174.031H168.764C168.65 174.318 168.454 174.544 168.174 174.711C167.9 174.871 167.55 174.951 167.124 174.951ZM169.804 174.851H168.804V173.671L168.724 173.541V168.151H169.804V174.851Z" fill="#3F3F46"/>
<path d="M61.0014 63.5638C61.0014 61.3078 59.1726 59.4791 56.9167 59.4791C54.6608 59.4791 52.832 61.3078 52.832 63.5638C52.832 65.8197 54.6608 67.6484 56.9167 67.6484C59.1726 67.6484 61.0014 65.8197 61.0014 63.5638Z" stroke="#213147" stroke-width="0.875289"/>
<path d="M59.9805 63.5615C59.9805 61.8696 58.609 60.498 56.917 60.498C55.2251 60.498 53.8535 61.8696 53.8535 63.5615C53.8535 65.2534 55.2251 66.625 56.917 66.625C58.609 66.625 59.9805 65.2534 59.9805 63.5615Z" fill="#213147"/>
<path d="M61.4395 63.5625H85.8326" stroke="#213147" stroke-width="0.361786"/>
<path d="M175.832 59.043H93.832V73.043H175.832V59.043Z" fill="white"/>
<path d="M95.0519 69.0422H93.9219L96.5319 62.3422H98.0819L100.692 69.0422H99.5219L97.7619 64.5622L97.3319 63.3122H97.2519L96.8119 64.5622L95.0519 69.0422ZM99.4319 67.3022H95.2119V66.3322H99.4319V67.3022ZM103.957 69.1422C103.51 69.1422 103.147 69.0556 102.867 68.8822C102.594 68.7022 102.404 68.4989 102.297 68.2722H102.027L102.077 67.0022H102.267C102.267 67.2756 102.317 67.5022 102.417 67.6822C102.524 67.8622 102.68 67.9989 102.887 68.0922C103.094 68.1789 103.34 68.2222 103.627 68.2222C103.86 68.2222 104.064 68.1922 104.237 68.1322C104.41 68.0722 104.55 67.9789 104.657 67.8522C104.77 67.7256 104.85 67.5556 104.897 67.3422C104.95 67.1222 104.977 66.8589 104.977 66.5522C104.977 66.2456 104.95 65.9889 104.897 65.7822C104.85 65.5689 104.77 65.3956 104.657 65.2622C104.55 65.1289 104.41 65.0356 104.237 64.9822C104.07 64.9222 103.867 64.8922 103.627 64.8922C103.34 64.8922 103.094 64.9389 102.887 65.0322C102.68 65.1189 102.524 65.2522 102.417 65.4322C102.317 65.6056 102.267 65.8322 102.267 66.1122H102.077L102.027 64.8922H102.227C102.347 64.6056 102.544 64.3822 102.817 64.2222C103.097 64.0556 103.454 63.9722 103.887 63.9722C104.587 63.9722 105.124 64.2056 105.497 64.6722C105.87 65.1389 106.057 65.7656 106.057 66.5522C106.057 67.3389 105.877 67.9689 105.517 68.4422C105.157 68.9089 104.637 69.1422 103.957 69.1422ZM102.267 70.7722H101.197V64.0722H102.177V65.2522L102.267 65.3822V70.7722ZM109.641 69.1422C109.194 69.1422 108.831 69.0556 108.551 68.8822C108.277 68.7022 108.087 68.4989 107.981 68.2722H107.711L107.761 67.0022H107.951C107.951 67.2756 108.001 67.5022 108.101 67.6822C108.207 67.8622 108.364 67.9989 108.571 68.0922C108.777 68.1789 109.024 68.2222 109.311 68.2222C109.544 68.2222 109.747 68.1922 109.921 68.1322C110.094 68.0722 110.234 67.9789 110.341 67.8522C110.454 67.7256 110.534 67.5556 110.581 67.3422C110.634 67.1222 110.661 66.8589 110.661 66.5522C110.661 66.2456 110.634 65.9889 110.581 65.7822C110.534 65.5689 110.454 65.3956 110.341 65.2622C110.234 65.1289 110.094 65.0356 109.921 64.9822C109.754 64.9222 109.551 64.8922 109.311 64.8922C109.024 64.8922 108.777 64.9389 108.571 65.0322C108.364 65.1189 108.207 65.2522 108.101 65.4322C108.001 65.6056 107.951 65.8322 107.951 66.1122H107.761L107.711 64.8922H107.911C108.031 64.6056 108.227 64.3822 108.501 64.2222C108.781 64.0556 109.137 63.9722 109.571 63.9722C110.271 63.9722 110.807 64.2056 111.181 64.6722C111.554 65.1389 111.741 65.7656 111.741 66.5522C111.741 67.3389 111.561 67.9689 111.201 68.4422C110.841 68.9089 110.321 69.1422 109.641 69.1422ZM107.951 70.7722H106.881V64.0722H107.861V65.2522L107.951 65.3822V70.7722ZM113.694 69.0422H112.614V62.3422H113.694V69.0422ZM115.763 63.4422H114.693L114.683 62.3422H115.763V63.4422ZM115.773 69.0422H114.693V64.0422H115.773V69.0422ZM118.946 69.1522C118.426 69.1522 117.986 69.0422 117.626 68.8222C117.266 68.6022 116.989 68.2989 116.796 67.9122C116.609 67.5256 116.516 67.0756 116.516 66.5622C116.516 66.0489 116.612 65.5989 116.806 65.2122C117.006 64.8189 117.289 64.5156 117.656 64.3022C118.022 64.0822 118.466 63.9722 118.986 63.9722C119.426 63.9722 119.812 64.0556 120.146 64.2222C120.479 64.3889 120.736 64.6222 120.916 64.9222C121.102 65.2222 121.196 65.5722 121.196 65.9722V66.0622H120.126V66.0022C120.126 65.6356 120.026 65.3689 119.826 65.2022C119.632 65.0289 119.329 64.9422 118.916 64.9422C118.436 64.9422 118.092 65.0789 117.886 65.3522C117.686 65.6189 117.586 66.0189 117.586 66.5522C117.586 67.0922 117.686 67.4989 117.886 67.7722C118.092 68.0389 118.436 68.1722 118.916 68.1722C119.329 68.1722 119.632 68.0889 119.826 67.9222C120.026 67.7489 120.126 67.4822 120.126 67.1222V67.0622H121.196V67.1522C121.196 67.5389 121.102 67.8856 120.916 68.1922C120.729 68.4922 120.466 68.7289 120.126 68.9022C119.792 69.0689 119.399 69.1522 118.946 69.1522ZM126.258 69.0422H125.258V68.0622L125.228 67.7922V65.8822C125.228 65.5089 125.138 65.2556 124.958 65.1222C124.784 64.9889 124.501 64.9222 124.108 64.9222C123.714 64.9222 123.431 64.9922 123.258 65.1322C123.091 65.2722 123.008 65.5056 123.008 65.8322V65.9822H121.968V65.8822C121.968 65.5089 122.058 65.1789 122.238 64.8922C122.424 64.6056 122.681 64.3822 123.008 64.2222C123.341 64.0556 123.728 63.9722 124.168 63.9722C124.634 63.9722 125.021 64.0589 125.328 64.2322C125.634 64.4056 125.864 64.6456 126.018 64.9522C126.178 65.2522 126.258 65.6089 126.258 66.0222V69.0422ZM123.408 69.1422C122.961 69.1422 122.584 69.0289 122.278 68.8022C121.978 68.5689 121.828 68.2389 121.828 67.8122C121.828 67.5322 121.891 67.2989 122.018 67.1122C122.151 66.9256 122.341 66.7722 122.588 66.6522C122.834 66.5322 123.134 66.4489 123.488 66.4022L125.328 66.1422V66.9022L123.648 67.1522C123.361 67.1922 123.161 67.2522 123.048 67.3322C122.934 67.4122 122.878 67.5456 122.878 67.7322C122.878 67.9256 122.944 68.0656 123.078 68.1522C123.218 68.2389 123.444 68.2822 123.758 68.2822C123.998 68.2822 124.228 68.2456 124.448 68.1722C124.674 68.0922 124.861 67.9622 125.008 67.7822C125.154 67.5956 125.228 67.3356 125.228 67.0022L125.368 68.2722L125.208 68.2622C125.114 68.4156 124.984 68.5589 124.818 68.6922C124.658 68.8256 124.461 68.9356 124.228 69.0222C123.994 69.1022 123.721 69.1422 123.408 69.1422ZM129.313 69.0422C128.766 69.0422 128.346 68.9256 128.053 68.6922C127.766 68.4589 127.623 68.0656 127.623 67.5122V64.1822L127.873 62.8422H128.703V67.4622C128.703 67.7222 128.766 67.8889 128.893 67.9622C129.026 68.0289 129.263 68.0622 129.603 68.0622H130.203V68.9522C130.103 68.9789 129.973 69.0022 129.813 69.0222C129.653 69.0356 129.486 69.0422 129.313 69.0422ZM130.203 64.9722H126.793V64.0722H130.203V64.9722ZM131.915 63.4422H130.845L130.835 62.3422H131.915V63.4422ZM131.925 69.0422H130.845V64.0422H131.925V69.0422ZM135.148 69.1422C134.641 69.1422 134.201 69.0356 133.828 68.8222C133.455 68.6022 133.168 68.2989 132.968 67.9122C132.768 67.5189 132.668 67.0656 132.668 66.5522C132.668 66.0389 132.768 65.5889 132.968 65.2022C133.168 64.8156 133.455 64.5156 133.828 64.3022C134.201 64.0822 134.641 63.9722 135.148 63.9722C135.655 63.9722 136.088 64.0822 136.448 64.3022C136.815 64.5156 137.095 64.8156 137.288 65.2022C137.488 65.5889 137.588 66.0389 137.588 66.5522C137.588 67.0656 137.488 67.5189 137.288 67.9122C137.095 68.2989 136.815 68.6022 136.448 68.8222C136.088 69.0356 135.655 69.1422 135.148 69.1422ZM135.148 68.1822C135.668 68.1822 136.031 68.0522 136.238 67.7922C136.445 67.5256 136.548 67.1122 136.548 66.5522C136.548 65.9922 136.445 65.5822 136.238 65.3222C136.031 65.0622 135.668 64.9322 135.148 64.9322C134.621 64.9322 134.255 65.0622 134.048 65.3222C133.841 65.5822 133.738 65.9922 133.738 66.5522C133.738 67.1122 133.841 67.5256 134.048 67.7922C134.255 68.0522 134.621 68.1822 135.148 68.1822ZM143.025 69.0422H141.945V66.1522C141.945 65.7122 141.862 65.3956 141.695 65.2022C141.529 65.0022 141.215 64.9022 140.755 64.9022C140.462 64.9022 140.222 64.9456 140.035 65.0322C139.849 65.1122 139.709 65.2456 139.615 65.4322C139.522 65.6122 139.475 65.8589 139.475 66.1722H139.285L139.195 65.0022H139.435C139.509 64.8222 139.619 64.6556 139.765 64.5022C139.912 64.3489 140.099 64.2222 140.325 64.1222C140.559 64.0222 140.835 63.9722 141.155 63.9722C141.589 63.9722 141.942 64.0556 142.215 64.2222C142.489 64.3889 142.692 64.6189 142.825 64.9122C142.959 65.2056 143.025 65.5422 143.025 65.9222V69.0422ZM139.475 69.0422H138.395V64.0722H139.385V65.5622L139.475 65.6122V69.0422ZM146.12 69.1422C145.393 69.1422 144.843 68.9989 144.47 68.7122C144.097 68.4189 143.91 67.9689 143.91 67.3622V67.3422H144.95V67.5222C144.95 67.6956 144.983 67.8389 145.05 67.9522C145.123 68.0589 145.243 68.1389 145.41 68.1922C145.583 68.2389 145.827 68.2622 146.14 68.2622C146.407 68.2622 146.607 68.2422 146.74 68.2022C146.88 68.1556 146.973 68.0922 147.02 68.0122C147.067 67.9322 147.09 67.8322 147.09 67.7122C147.09 67.5122 147.02 67.3722 146.88 67.2922C146.74 67.2056 146.49 67.1289 146.13 67.0622L145.35 66.9322C145.057 66.8722 144.8 66.7889 144.58 66.6822C144.367 66.5689 144.2 66.4156 144.08 66.2222C143.967 66.0222 143.91 65.7722 143.91 65.4722C143.91 65.0256 144.087 64.6656 144.44 64.3922C144.793 64.1122 145.293 63.9722 145.94 63.9722C146.333 63.9722 146.683 64.0356 146.99 64.1622C147.297 64.2889 147.54 64.4789 147.72 64.7322C147.9 64.9856 147.99 65.3022 147.99 65.6822V65.7722H146.96V65.6522C146.96 65.4922 146.933 65.3556 146.88 65.2422C146.827 65.1222 146.727 65.0289 146.58 64.9622C146.433 64.8956 146.21 64.8622 145.91 64.8622C145.517 64.8622 145.257 64.9122 145.13 65.0122C145.003 65.1122 144.94 65.2589 144.94 65.4522C144.94 65.6456 144.997 65.7822 145.11 65.8622C145.23 65.9356 145.463 66.0089 145.81 66.0822L146.66 66.2422C146.98 66.3022 147.247 66.3922 147.46 66.5122C147.673 66.6322 147.833 66.7889 147.94 66.9822C148.053 67.1756 148.11 67.4056 148.11 67.6722C148.11 68.1389 147.933 68.5022 147.58 68.7622C147.233 69.0156 146.747 69.1422 146.12 69.1422ZM153.826 69.1422C153.179 69.1422 152.619 69.0022 152.146 68.7222C151.679 68.4356 151.319 68.0356 151.066 67.5222C150.819 67.0022 150.696 66.3922 150.696 65.6922C150.696 64.9922 150.819 64.3856 151.066 63.8722C151.319 63.3522 151.679 62.9522 152.146 62.6722C152.619 62.3856 153.179 62.2422 153.826 62.2422C154.433 62.2422 154.949 62.3489 155.376 62.5622C155.803 62.7756 156.133 63.0756 156.366 63.4622C156.599 63.8489 156.716 64.3122 156.716 64.8522V64.9122H155.576V64.8522C155.576 64.3056 155.436 63.9089 155.156 63.6622C154.883 63.4089 154.429 63.2822 153.796 63.2822C153.336 63.2822 152.963 63.3622 152.676 63.5222C152.389 63.6822 152.179 63.9389 152.046 64.2922C151.913 64.6456 151.846 65.1122 151.846 65.6922C151.846 66.2656 151.913 66.7322 152.046 67.0922C152.179 67.4456 152.389 67.7022 152.676 67.8622C152.963 68.0156 153.336 68.0922 153.796 68.0922C154.429 68.0922 154.883 67.9689 155.156 67.7222C155.436 67.4756 155.576 67.0789 155.576 66.5322V66.4722H156.716V66.5322C156.716 67.0656 156.599 67.5289 156.366 67.9222C156.133 68.3089 155.803 68.6089 155.376 68.8222C154.949 69.0356 154.433 69.1422 153.826 69.1422ZM158.714 69.0422H157.634V62.3422H158.714V69.0422ZM162.013 69.1422C161.506 69.1422 161.066 69.0356 160.693 68.8222C160.32 68.6022 160.033 68.2989 159.833 67.9122C159.633 67.5189 159.533 67.0656 159.533 66.5522C159.533 66.0389 159.633 65.5889 159.833 65.2022C160.033 64.8156 160.32 64.5156 160.693 64.3022C161.066 64.0822 161.506 63.9722 162.013 63.9722C162.52 63.9722 162.953 64.0822 163.313 64.3022C163.68 64.5156 163.96 64.8156 164.153 65.2022C164.353 65.5889 164.453 66.0389 164.453 66.5522C164.453 67.0656 164.353 67.5189 164.153 67.9122C163.96 68.2989 163.68 68.6022 163.313 68.8222C162.953 69.0356 162.52 69.1422 162.013 69.1422ZM162.013 68.1822C162.533 68.1822 162.896 68.0522 163.103 67.7922C163.31 67.5256 163.413 67.1122 163.413 66.5522C163.413 65.9922 163.31 65.5822 163.103 65.3222C162.896 65.0622 162.533 64.9322 162.013 64.9322C161.486 64.9322 161.12 65.0622 160.913 65.3222C160.706 65.5822 160.603 65.9922 160.603 66.5522C160.603 67.1122 160.706 67.5256 160.913 67.7922C161.12 68.0522 161.486 68.1822 162.013 68.1822ZM167.399 69.1422C166.673 69.1422 166.123 68.9989 165.749 68.7122C165.376 68.4189 165.189 67.9689 165.189 67.3622V67.3422H166.229V67.5222C166.229 67.6956 166.263 67.8389 166.329 67.9522C166.403 68.0589 166.523 68.1389 166.689 68.1922C166.863 68.2389 167.106 68.2622 167.419 68.2622C167.686 68.2622 167.886 68.2422 168.019 68.2022C168.159 68.1556 168.253 68.0922 168.299 68.0122C168.346 67.9322 168.369 67.8322 168.369 67.7122C168.369 67.5122 168.299 67.3722 168.159 67.2922C168.019 67.2056 167.769 67.1289 167.409 67.0622L166.629 66.9322C166.336 66.8722 166.079 66.7889 165.859 66.6822C165.646 66.5689 165.479 66.4156 165.359 66.2222C165.246 66.0222 165.189 65.7722 165.189 65.4722C165.189 65.0256 165.366 64.6656 165.719 64.3922C166.073 64.1122 166.573 63.9722 167.219 63.9722C167.613 63.9722 167.963 64.0356 168.269 64.1622C168.576 64.2889 168.819 64.4789 168.999 64.7322C169.179 64.9856 169.269 65.3022 169.269 65.6822V65.7722H168.239V65.6522C168.239 65.4922 168.213 65.3556 168.159 65.2422C168.106 65.1222 168.006 65.0289 167.859 64.9622C167.713 64.8956 167.489 64.8622 167.189 64.8622C166.796 64.8622 166.536 64.9122 166.409 65.0122C166.283 65.1122 166.219 65.2589 166.219 65.4522C166.219 65.6456 166.276 65.7822 166.389 65.8622C166.509 65.9356 166.743 66.0089 167.089 66.0822L167.939 66.2422C168.259 66.3022 168.526 66.3922 168.739 66.5122C168.953 66.6322 169.113 66.7889 169.219 66.9822C169.333 67.1756 169.389 67.4056 169.389 67.6722C169.389 68.1389 169.213 68.5022 168.859 68.7622C168.513 69.0156 168.026 69.1422 167.399 69.1422ZM172.47 69.1422C171.93 69.1422 171.48 69.0356 171.12 68.8222C170.76 68.6022 170.494 68.2989 170.32 67.9122C170.147 67.5189 170.06 67.0656 170.06 66.5522C170.06 66.0389 170.157 65.5889 170.35 65.2022C170.55 64.8156 170.83 64.5156 171.19 64.3022C171.55 64.0822 171.977 63.9722 172.47 63.9722C172.917 63.9722 173.31 64.0589 173.65 64.2322C173.997 64.3989 174.264 64.6422 174.45 64.9622C174.644 65.2822 174.74 65.6689 174.74 66.1222C174.74 66.2556 174.734 66.3856 174.72 66.5122C174.714 66.6322 174.704 66.7322 174.69 66.8122H170.57V66.0922H173.81L173.7 66.1922C173.727 65.8856 173.694 65.6356 173.6 65.4422C173.514 65.2489 173.37 65.1056 173.17 65.0122C172.977 64.9189 172.734 64.8722 172.44 64.8722C171.914 64.8722 171.554 65.0056 171.36 65.2722C171.167 65.5322 171.07 65.8922 171.07 66.3522V66.6522C171.07 66.9856 171.11 67.2689 171.19 67.5022C171.277 67.7289 171.424 67.8989 171.63 68.0122C171.837 68.1256 172.12 68.1822 172.48 68.1822C172.9 68.1822 173.197 68.1156 173.37 67.9822C173.544 67.8489 173.63 67.6722 173.63 67.4522V67.3722H174.7V67.4622C174.7 67.8022 174.607 68.0989 174.42 68.3522C174.234 68.5989 173.974 68.7922 173.64 68.9322C173.314 69.0722 172.924 69.1422 172.47 69.1422Z" fill="#3F3F46"/>
<path d="M61.0014 13.6809C61.0014 11.425 59.1726 9.59626 56.9167 9.59626C54.6608 9.59626 52.832 11.425 52.832 13.6809C52.832 15.9368 54.6608 17.7656 56.9167 17.7656C59.1726 17.7656 61.0014 15.9368 61.0014 13.6809Z" stroke="#213147" stroke-width="0.875289"/>
<path d="M59.9805 13.6787C59.9805 11.9867 58.609 10.6152 56.917 10.6152C55.2251 10.6152 53.8535 11.9867 53.8535 13.6787C53.8535 15.3706 55.2251 16.7422 56.917 16.7422C58.609 16.7422 59.9805 15.3706 59.9805 13.6787Z" fill="#213147"/>
<path d="M61.4395 13.6797H85.8326" stroke="#213147" stroke-width="0.361786"/>
<path d="M174.832 9.16016H93.832V23.1602H174.832V9.16016Z" fill="white"/>
<path d="M95.0519 19.1609H93.9219L96.5319 12.4609H98.0819L100.692 19.1609H99.5219L97.7619 14.6809L97.3319 13.4309H97.2519L96.8119 14.6809L95.0519 19.1609ZM99.4319 17.4209H95.2119V16.4509H99.4319V17.4209ZM103.957 19.2609C103.51 19.2609 103.147 19.1743 102.867 19.0009C102.594 18.8209 102.404 18.6176 102.297 18.3909H102.027L102.077 17.1209H102.267C102.267 17.3943 102.317 17.6209 102.417 17.8009C102.524 17.9809 102.68 18.1176 102.887 18.2109C103.094 18.2976 103.34 18.3409 103.627 18.3409C103.86 18.3409 104.064 18.3109 104.237 18.2509C104.41 18.1909 104.55 18.0976 104.657 17.9709C104.77 17.8443 104.85 17.6743 104.897 17.4609C104.95 17.2409 104.977 16.9776 104.977 16.6709C104.977 16.3643 104.95 16.1076 104.897 15.9009C104.85 15.6876 104.77 15.5143 104.657 15.3809C104.55 15.2476 104.41 15.1543 104.237 15.1009C104.07 15.0409 103.867 15.0109 103.627 15.0109C103.34 15.0109 103.094 15.0576 102.887 15.1509C102.68 15.2376 102.524 15.3709 102.417 15.5509C102.317 15.7243 102.267 15.9509 102.267 16.2309H102.077L102.027 15.0109H102.227C102.347 14.7243 102.544 14.5009 102.817 14.3409C103.097 14.1743 103.454 14.0909 103.887 14.0909C104.587 14.0909 105.124 14.3243 105.497 14.7909C105.87 15.2576 106.057 15.8843 106.057 16.6709C106.057 17.4576 105.877 18.0876 105.517 18.5609C105.157 19.0276 104.637 19.2609 103.957 19.2609ZM102.267 20.8909H101.197V14.1909H102.177V15.3709L102.267 15.5009V20.8909ZM109.641 19.2609C109.194 19.2609 108.831 19.1743 108.551 19.0009C108.277 18.8209 108.087 18.6176 107.981 18.3909H107.711L107.761 17.1209H107.951C107.951 17.3943 108.001 17.6209 108.101 17.8009C108.207 17.9809 108.364 18.1176 108.571 18.2109C108.777 18.2976 109.024 18.3409 109.311 18.3409C109.544 18.3409 109.747 18.3109 109.921 18.2509C110.094 18.1909 110.234 18.0976 110.341 17.9709C110.454 17.8443 110.534 17.6743 110.581 17.4609C110.634 17.2409 110.661 16.9776 110.661 16.6709C110.661 16.3643 110.634 16.1076 110.581 15.9009C110.534 15.6876 110.454 15.5143 110.341 15.3809C110.234 15.2476 110.094 15.1543 109.921 15.1009C109.754 15.0409 109.551 15.0109 109.311 15.0109C109.024 15.0109 108.777 15.0576 108.571 15.1509C108.364 15.2376 108.207 15.3709 108.101 15.5509C108.001 15.7243 107.951 15.9509 107.951 16.2309H107.761L107.711 15.0109H107.911C108.031 14.7243 108.227 14.5009 108.501 14.3409C108.781 14.1743 109.137 14.0909 109.571 14.0909C110.271 14.0909 110.807 14.3243 111.181 14.7909C111.554 15.2576 111.741 15.8843 111.741 16.6709C111.741 17.4576 111.561 18.0876 111.201 18.5609C110.841 19.0276 110.321 19.2609 109.641 19.2609ZM107.951 20.8909H106.881V14.1909H107.861V15.3709L107.951 15.5009V20.8909ZM113.694 19.1609H112.614V12.4609H113.694V19.1609ZM115.763 13.5609H114.693L114.683 12.4609H115.763V13.5609ZM115.773 19.1609H114.693V14.1609H115.773V19.1609ZM118.946 19.2709C118.426 19.2709 117.986 19.1609 117.626 18.9409C117.266 18.7209 116.989 18.4176 116.796 18.0309C116.609 17.6443 116.516 17.1943 116.516 16.6809C116.516 16.1676 116.612 15.7176 116.806 15.3309C117.006 14.9376 117.289 14.6343 117.656 14.4209C118.022 14.2009 118.466 14.0909 118.986 14.0909C119.426 14.0909 119.812 14.1743 120.146 14.3409C120.479 14.5076 120.736 14.7409 120.916 15.0409C121.102 15.3409 121.196 15.6909 121.196 16.0909V16.1809H120.126V16.1209C120.126 15.7543 120.026 15.4876 119.826 15.3209C119.632 15.1476 119.329 15.0609 118.916 15.0609C118.436 15.0609 118.092 15.1976 117.886 15.4709C117.686 15.7376 117.586 16.1376 117.586 16.6709C117.586 17.2109 117.686 17.6176 117.886 17.8909C118.092 18.1576 118.436 18.2909 118.916 18.2909C119.329 18.2909 119.632 18.2076 119.826 18.0409C120.026 17.8676 120.126 17.6009 120.126 17.2409V17.1809H121.196V17.2709C121.196 17.6576 121.102 18.0043 120.916 18.3109C120.729 18.6109 120.466 18.8476 120.126 19.0209C119.792 19.1876 119.399 19.2709 118.946 19.2709ZM126.258 19.1609H125.258V18.1809L125.228 17.9109V16.0009C125.228 15.6276 125.138 15.3743 124.958 15.2409C124.784 15.1076 124.501 15.0409 124.108 15.0409C123.714 15.0409 123.431 15.1109 123.258 15.2509C123.091 15.3909 123.008 15.6243 123.008 15.9509V16.1009H121.968V16.0009C121.968 15.6276 122.058 15.2976 122.238 15.0109C122.424 14.7243 122.681 14.5009 123.008 14.3409C123.341 14.1743 123.728 14.0909 124.168 14.0909C124.634 14.0909 125.021 14.1776 125.328 14.3509C125.634 14.5243 125.864 14.7643 126.018 15.0709C126.178 15.3709 126.258 15.7276 126.258 16.1409V19.1609ZM123.408 19.2609C122.961 19.2609 122.584 19.1476 122.278 18.9209C121.978 18.6876 121.828 18.3576 121.828 17.9309C121.828 17.6509 121.891 17.4176 122.018 17.2309C122.151 17.0443 122.341 16.8909 122.588 16.7709C122.834 16.6509 123.134 16.5676 123.488 16.5209L125.328 16.2609V17.0209L123.648 17.2709C123.361 17.3109 123.161 17.3709 123.048 17.4509C122.934 17.5309 122.878 17.6643 122.878 17.8509C122.878 18.0443 122.944 18.1843 123.078 18.2709C123.218 18.3576 123.444 18.4009 123.758 18.4009C123.998 18.4009 124.228 18.3643 124.448 18.2909C124.674 18.2109 124.861 18.0809 125.008 17.9009C125.154 17.7143 125.228 17.4543 125.228 17.1209L125.368 18.3909L125.208 18.3809C125.114 18.5343 124.984 18.6776 124.818 18.8109C124.658 18.9443 124.461 19.0543 124.228 19.1409C123.994 19.2209 123.721 19.2609 123.408 19.2609ZM129.313 19.1609C128.766 19.1609 128.346 19.0443 128.053 18.8109C127.766 18.5776 127.623 18.1843 127.623 17.6309V14.3009L127.873 12.9609H128.703V17.5809C128.703 17.8409 128.766 18.0076 128.893 18.0809C129.026 18.1476 129.263 18.1809 129.603 18.1809H130.203V19.0709C130.103 19.0976 129.973 19.1209 129.813 19.1409C129.653 19.1543 129.486 19.1609 129.313 19.1609ZM130.203 15.0909H126.793V14.1909H130.203V15.0909ZM131.915 13.5609H130.845L130.835 12.4609H131.915V13.5609ZM131.925 19.1609H130.845V14.1609H131.925V19.1609ZM135.148 19.2609C134.641 19.2609 134.201 19.1543 133.828 18.9409C133.455 18.7209 133.168 18.4176 132.968 18.0309C132.768 17.6376 132.668 17.1843 132.668 16.6709C132.668 16.1576 132.768 15.7076 132.968 15.3209C133.168 14.9343 133.455 14.6343 133.828 14.4209C134.201 14.2009 134.641 14.0909 135.148 14.0909C135.655 14.0909 136.088 14.2009 136.448 14.4209C136.815 14.6343 137.095 14.9343 137.288 15.3209C137.488 15.7076 137.588 16.1576 137.588 16.6709C137.588 17.1843 137.488 17.6376 137.288 18.0309C137.095 18.4176 136.815 18.7209 136.448 18.9409C136.088 19.1543 135.655 19.2609 135.148 19.2609ZM135.148 18.3009C135.668 18.3009 136.031 18.1709 136.238 17.9109C136.445 17.6443 136.548 17.2309 136.548 16.6709C136.548 16.1109 136.445 15.7009 136.238 15.4409C136.031 15.1809 135.668 15.0509 135.148 15.0509C134.621 15.0509 134.255 15.1809 134.048 15.4409C133.841 15.7009 133.738 16.1109 133.738 16.6709C133.738 17.2309 133.841 17.6443 134.048 17.9109C134.255 18.1709 134.621 18.3009 135.148 18.3009ZM143.025 19.1609H141.945V16.2709C141.945 15.8309 141.862 15.5143 141.695 15.3209C141.529 15.1209 141.215 15.0209 140.755 15.0209C140.462 15.0209 140.222 15.0643 140.035 15.1509C139.849 15.2309 139.709 15.3643 139.615 15.5509C139.522 15.7309 139.475 15.9776 139.475 16.2909H139.285L139.195 15.1209H139.435C139.509 14.9409 139.619 14.7743 139.765 14.6209C139.912 14.4676 140.099 14.3409 140.325 14.2409C140.559 14.1409 140.835 14.0909 141.155 14.0909C141.589 14.0909 141.942 14.1743 142.215 14.3409C142.489 14.5076 142.692 14.7376 142.825 15.0309C142.959 15.3243 143.025 15.6609 143.025 16.0409V19.1609ZM139.475 19.1609H138.395V14.1909H139.385V15.6809L139.475 15.7309V19.1609ZM148.664 19.2609C148.217 19.2609 147.854 19.1743 147.574 19.0009C147.301 18.8209 147.111 18.6176 147.004 18.3909H146.734L146.784 17.1209H146.974C146.974 17.3943 147.024 17.6209 147.124 17.8009C147.231 17.9809 147.387 18.1176 147.594 18.2109C147.801 18.2976 148.047 18.3409 148.334 18.3409C148.567 18.3409 148.771 18.3109 148.944 18.2509C149.117 18.1909 149.257 18.0976 149.364 17.9709C149.477 17.8443 149.557 17.6743 149.604 17.4609C149.657 17.2409 149.684 16.9776 149.684 16.6709C149.684 16.3643 149.657 16.1076 149.604 15.9009C149.557 15.6876 149.477 15.5143 149.364 15.3809C149.257 15.2476 149.117 15.1543 148.944 15.1009C148.777 15.0409 148.574 15.0109 148.334 15.0109C148.047 15.0109 147.801 15.0576 147.594 15.1509C147.387 15.2376 147.231 15.3709 147.124 15.5509C147.024 15.7243 146.974 15.9509 146.974 16.2309H146.784L146.734 15.0109H146.934C147.054 14.7243 147.251 14.5009 147.524 14.3409C147.804 14.1743 148.161 14.0909 148.594 14.0909C149.294 14.0909 149.831 14.3243 150.204 14.7909C150.577 15.2576 150.764 15.8843 150.764 16.6709C150.764 17.4576 150.584 18.0876 150.224 18.5609C149.864 19.0276 149.344 19.2609 148.664 19.2609ZM146.974 20.8909H145.904V14.1909H146.884V15.3709L146.974 15.5009V20.8909ZM153.886 19.2609C153.346 19.2609 152.896 19.1543 152.536 18.9409C152.176 18.7209 151.91 18.4176 151.736 18.0309C151.563 17.6376 151.476 17.1843 151.476 16.6709C151.476 16.1576 151.573 15.7076 151.766 15.3209C151.966 14.9343 152.246 14.6343 152.606 14.4209C152.966 14.2009 153.393 14.0909 153.886 14.0909C154.333 14.0909 154.726 14.1776 155.066 14.3509C155.413 14.5176 155.68 14.7609 155.866 15.0809C156.06 15.4009 156.156 15.7876 156.156 16.2409C156.156 16.3743 156.15 16.5043 156.136 16.6309C156.13 16.7509 156.12 16.8509 156.106 16.9309H151.986V16.2109H155.226L155.116 16.3109C155.143 16.0043 155.11 15.7543 155.016 15.5609C154.93 15.3676 154.786 15.2243 154.586 15.1309C154.393 15.0376 154.15 14.9909 153.856 14.9909C153.33 14.9909 152.97 15.1243 152.776 15.3909C152.583 15.6509 152.486 16.0109 152.486 16.4709V16.7709C152.486 17.1043 152.526 17.3876 152.606 17.6209C152.693 17.8476 152.84 18.0176 153.046 18.1309C153.253 18.2443 153.536 18.3009 153.896 18.3009C154.316 18.3009 154.613 18.2343 154.786 18.1009C154.96 17.9676 155.046 17.7909 155.046 17.5709V17.4909H156.116V17.5809C156.116 17.9209 156.023 18.2176 155.836 18.4709C155.65 18.7176 155.39 18.9109 155.056 19.0509C154.73 19.1909 154.34 19.2609 153.886 19.2609ZM158.098 19.1609H157.018V14.1609H158.008V15.5509L158.098 15.6009V19.1609ZM158.098 15.9209H157.848V14.9509H158.058C158.158 14.7176 158.322 14.5176 158.548 14.3509C158.782 14.1776 159.082 14.0909 159.448 14.0909C159.802 14.0909 160.082 14.1676 160.288 14.3209C160.502 14.4743 160.655 14.6776 160.748 14.9309C160.842 15.1843 160.888 15.4676 160.888 15.7809V16.1109H159.808V15.9109C159.808 15.5776 159.752 15.3443 159.638 15.2109C159.525 15.0776 159.312 15.0109 158.998 15.0109C158.672 15.0109 158.438 15.0809 158.298 15.2209C158.165 15.3543 158.098 15.5876 158.098 15.9209ZM162.53 13.5609H161.46L161.45 12.4609H162.53V13.5609ZM162.54 19.1609H161.46V14.1609H162.54V19.1609ZM165.763 19.2609C165.256 19.2609 164.816 19.1543 164.443 18.9409C164.07 18.7209 163.783 18.4176 163.583 18.0309C163.383 17.6376 163.283 17.1843 163.283 16.6709C163.283 16.1576 163.383 15.7076 163.583 15.3209C163.783 14.9343 164.07 14.6343 164.443 14.4209C164.816 14.2009 165.256 14.0909 165.763 14.0909C166.27 14.0909 166.703 14.2009 167.063 14.4209C167.43 14.6343 167.71 14.9343 167.903 15.3209C168.103 15.7076 168.203 16.1576 168.203 16.6709C168.203 17.1843 168.103 17.6376 167.903 18.0309C167.71 18.4176 167.43 18.7209 167.063 18.9409C166.703 19.1543 166.27 19.2609 165.763 19.2609ZM165.763 18.3009C166.283 18.3009 166.646 18.1709 166.853 17.9109C167.06 17.6443 167.163 17.2309 167.163 16.6709C167.163 16.1109 167.06 15.7009 166.853 15.4409C166.646 15.1809 166.283 15.0509 165.763 15.0509C165.236 15.0509 164.87 15.1809 164.663 15.4409C164.456 15.7009 164.353 16.1109 164.353 16.6709C164.353 17.2309 164.456 17.6443 164.663 17.9109C164.87 18.1709 165.236 18.3009 165.763 18.3009ZM171.049 19.2609C170.343 19.2609 169.799 19.0276 169.419 18.5609C169.046 18.0876 168.859 17.4576 168.859 16.6709C168.859 15.8843 169.043 15.2576 169.409 14.7909C169.783 14.3243 170.309 14.0909 170.989 14.0909C171.429 14.0909 171.783 14.1809 172.049 14.3609C172.323 14.5343 172.513 14.7343 172.619 14.9609H172.889L172.839 16.2309H172.649C172.649 15.9509 172.596 15.7209 172.489 15.5409C172.383 15.3609 172.229 15.2276 172.029 15.1409C171.829 15.0543 171.583 15.0109 171.289 15.0109C171.049 15.0109 170.843 15.0409 170.669 15.1009C170.503 15.1609 170.363 15.2543 170.249 15.3809C170.143 15.5076 170.063 15.6776 170.009 15.8909C169.963 16.1043 169.939 16.3643 169.939 16.6709C169.939 16.9709 169.963 17.2309 170.009 17.4509C170.063 17.6643 170.143 17.8376 170.249 17.9709C170.363 18.0976 170.506 18.1909 170.679 18.2509C170.853 18.3109 171.056 18.3409 171.289 18.3409C171.583 18.3409 171.829 18.2976 172.029 18.2109C172.229 18.1176 172.383 17.9809 172.489 17.8009C172.596 17.6209 172.649 17.3943 172.649 17.1209H172.839L172.889 18.3409H172.689C172.576 18.6276 172.379 18.8543 172.099 19.0209C171.826 19.1809 171.476 19.2609 171.049 19.2609ZM173.729 19.1609H172.729V17.9809L172.649 17.8509V12.4609H173.729V19.1609Z" fill="#3F3F46"/>
</g>
<defs>
<clipPath id="clip0_3216_87638">
<rect width="206" height="362" fill="white" transform="translate(0 0.890625)"/>
</clipPath>
</defs>
</svg>
