<svg width="1343" height="144" viewBox="0 0 1343 144" fill="none" xmlns="http://www.w3.org/2000/svg">
<path d="M12.676 14H10.478L8.308 4.62H10.044L11.22 9.898L11.612 12.488H11.724L12.326 9.898L13.88 4.62H15.994L17.548 9.898L18.164 12.488H18.262L18.668 9.898L19.844 4.62H21.552L19.368 14H17.17L15.756 9.226L14.986 6.314H14.86L14.104 9.226L12.676 14ZM24.8926 14.14C24.1366 14.14 23.5066 13.9907 23.0026 13.692C22.4986 13.384 22.1253 12.9593 21.8826 12.418C21.64 11.8673 21.5186 11.2327 21.5186 10.514C21.5186 9.79533 21.654 9.16533 21.9246 8.624C22.2046 8.08267 22.5966 7.66267 23.1006 7.364C23.6046 7.056 24.202 6.902 24.8926 6.902C25.518 6.902 26.0686 7.02333 26.5446 7.266C27.03 7.49933 27.4033 7.84 27.6646 8.288C27.9353 8.736 28.0706 9.27733 28.0706 9.912C28.0706 10.0987 28.0613 10.2807 28.0426 10.458C28.0333 10.626 28.0193 10.766 28.0006 10.878H22.2326V9.87H26.7686L26.6146 10.01C26.652 9.58067 26.6053 9.23067 26.4746 8.96C26.3533 8.68933 26.1526 8.48867 25.8726 8.358C25.602 8.22733 25.2613 8.162 24.8506 8.162C24.1133 8.162 23.6093 8.34867 23.3386 8.722C23.068 9.086 22.9326 9.59 22.9326 10.234V10.654C22.9326 11.1207 22.9886 11.5173 23.1006 11.844C23.222 12.1613 23.4273 12.3993 23.7166 12.558C24.006 12.7167 24.4026 12.796 24.9066 12.796C25.4946 12.796 25.91 12.7027 26.1526 12.516C26.3953 12.3293 26.5166 12.082 26.5166 11.774V11.662H28.0146V11.788C28.0146 12.264 27.884 12.6793 27.6226 13.034C27.3613 13.3793 26.9973 13.65 26.5306 13.846C26.0733 14.042 25.5273 14.14 24.8926 14.14ZM32.4395 14.14C31.6835 14.14 31.0535 13.9907 30.5495 13.692C30.0455 13.384 29.6722 12.9593 29.4295 12.418C29.1868 11.8673 29.0655 11.2327 29.0655 10.514C29.0655 9.79533 29.2008 9.16533 29.4715 8.624C29.7515 8.08267 30.1435 7.66267 30.6475 7.364C31.1515 7.056 31.7488 6.902 32.4395 6.902C33.0648 6.902 33.6155 7.02333 34.0915 7.266C34.5768 7.49933 34.9502 7.84 35.2115 8.288C35.4822 8.736 35.6175 9.27733 35.6175 9.912C35.6175 10.0987 35.6082 10.2807 35.5895 10.458C35.5802 10.626 35.5662 10.766 35.5475 10.878H29.7795V9.87H34.3155L34.1615 10.01C34.1988 9.58067 34.1522 9.23067 34.0215 8.96C33.9002 8.68933 33.6995 8.48867 33.4195 8.358C33.1488 8.22733 32.8082 8.162 32.3975 8.162C31.6602 8.162 31.1562 8.34867 30.8855 8.722C30.6148 9.086 30.4795 9.59 30.4795 10.234V10.654C30.4795 11.1207 30.5355 11.5173 30.6475 11.844C30.7688 12.1613 30.9742 12.3993 31.2635 12.558C31.5528 12.7167 31.9495 12.796 32.4535 12.796C33.0415 12.796 33.4568 12.7027 33.6995 12.516C33.9422 12.3293 34.0635 12.082 34.0635 11.774V11.662H35.5615V11.788C35.5615 12.264 35.4308 12.6793 35.1695 13.034C34.9082 13.3793 34.5442 13.65 34.0775 13.846C33.6202 14.042 33.0742 14.14 32.4395 14.14ZM43.3337 14H41.5557L39.7357 11.144H37.5097V9.8H39.7217L41.5977 7.042H43.3617L40.9397 10.332L43.3337 14ZM38.3497 14H36.8377V4.62H38.3497V14ZM50.8918 14.14C50.0518 14.14 49.3285 13.944 48.7218 13.552C48.1152 13.16 47.6485 12.6047 47.3218 11.886C47.0045 11.158 46.8458 10.2993 46.8458 9.31C46.8458 8.32067 47.0045 7.46667 47.3218 6.748C47.6485 6.02 48.1152 5.46 48.7218 5.068C49.3285 4.676 50.0518 4.48 50.8918 4.48C51.7318 4.48 52.4552 4.676 53.0618 5.068C53.6685 5.46 54.1352 6.02 54.4618 6.748C54.7885 7.46667 54.9518 8.32067 54.9518 9.31C54.9518 10.2993 54.7885 11.158 54.4618 11.886C54.1352 12.6047 53.6685 13.16 53.0618 13.552C52.4552 13.944 51.7318 14.14 50.8918 14.14ZM50.8918 12.67C51.4518 12.67 51.9092 12.5627 52.2638 12.348C52.6278 12.1333 52.8985 11.7787 53.0758 11.284C53.2532 10.7893 53.3418 10.1313 53.3418 9.31C53.3418 8.47933 53.2532 7.81667 53.0758 7.322C52.8985 6.82733 52.6278 6.47267 52.2638 6.258C51.9092 6.04333 51.4518 5.936 50.8918 5.936C50.3412 5.936 49.8838 6.04333 49.5198 6.258C49.1558 6.47267 48.8852 6.82733 48.7078 7.322C48.5398 7.81667 48.4558 8.47933 48.4558 9.31C48.4558 10.1313 48.5398 10.7893 48.7078 11.284C48.8852 11.7787 49.1558 12.1333 49.5198 12.348C49.8838 12.5627 50.3412 12.67 50.8918 12.67Z" fill="#ACACAC"/>
<path d="M256.708 14H255.126L258.78 4.62H260.95L264.604 14H262.966L260.502 7.728L259.9 5.978H259.788L259.172 7.728L256.708 14ZM262.84 11.564H256.932V10.206H262.84V11.564ZM269.175 14.14C268.55 14.14 268.041 14.0187 267.649 13.776C267.266 13.524 267 13.2393 266.851 12.922H266.473L266.543 11.144H266.809C266.809 11.5267 266.879 11.844 267.019 12.096C267.168 12.348 267.388 12.5393 267.677 12.67C267.966 12.7913 268.312 12.852 268.713 12.852C269.04 12.852 269.324 12.81 269.567 12.726C269.81 12.642 270.006 12.5113 270.155 12.334C270.314 12.1567 270.426 11.9187 270.491 11.62C270.566 11.312 270.603 10.9433 270.603 10.514C270.603 10.0847 270.566 9.72533 270.491 9.436C270.426 9.13733 270.314 8.89467 270.155 8.708C270.006 8.52133 269.81 8.39067 269.567 8.316C269.334 8.232 269.049 8.19 268.713 8.19C268.312 8.19 267.966 8.25533 267.677 8.386C267.388 8.50733 267.168 8.694 267.019 8.946C266.879 9.18867 266.809 9.506 266.809 9.898H266.543L266.473 8.19H266.753C266.921 7.78867 267.196 7.476 267.579 7.252C267.971 7.01867 268.47 6.902 269.077 6.902C270.057 6.902 270.808 7.22867 271.331 7.882C271.854 8.53533 272.115 9.41267 272.115 10.514C272.115 11.6153 271.863 12.4973 271.359 13.16C270.855 13.8133 270.127 14.14 269.175 14.14ZM266.809 16.422H265.311V7.042H266.683V8.694L266.809 8.876V16.422ZM274.836 14H273.324V7H274.71V8.946L274.836 9.016V14ZM274.836 9.464H274.486V8.106H274.78C274.92 7.77933 275.149 7.49933 275.466 7.266C275.793 7.02333 276.213 6.902 276.726 6.902C277.221 6.902 277.613 7.00933 277.902 7.224C278.201 7.43867 278.415 7.72333 278.546 8.078C278.677 8.43267 278.742 8.82933 278.742 9.268V9.73H277.23V9.45C277.23 8.98333 277.151 8.65667 276.992 8.47C276.833 8.28333 276.535 8.19 276.096 8.19C275.639 8.19 275.312 8.288 275.116 8.484C274.929 8.67067 274.836 8.99733 274.836 9.464ZM281.041 6.16H279.543L279.529 4.62H281.041V6.16ZM281.055 14H279.543V7H281.055V14ZM283.955 14H282.443V4.62H283.955V14ZM289.63 14H288.118V4.62H289.63V14ZM294.824 14H288.58V12.628H294.824V14ZM294.614 9.968H288.58V8.596H294.614V9.968ZM294.824 5.978H288.58V4.62H294.824V5.978ZM302.611 14H301.099V9.954C301.099 9.338 300.982 8.89467 300.749 8.624C300.515 8.344 300.077 8.204 299.433 8.204C299.022 8.204 298.686 8.26467 298.425 8.386C298.163 8.498 297.967 8.68467 297.837 8.946C297.706 9.198 297.641 9.54333 297.641 9.982H297.375L297.249 8.344H297.585C297.687 8.092 297.841 7.85867 298.047 7.644C298.252 7.42933 298.513 7.252 298.831 7.112C299.157 6.972 299.545 6.902 299.993 6.902C300.599 6.902 301.094 7.01867 301.477 7.252C301.859 7.48533 302.144 7.80733 302.331 8.218C302.517 8.62867 302.611 9.1 302.611 9.632V14ZM297.641 14H296.129V7.042H297.515V9.128L297.641 9.198V14ZM306.817 14.14C305.828 14.14 305.067 13.8133 304.535 13.16C304.012 12.4973 303.751 11.6153 303.751 10.514C303.751 9.41267 304.008 8.53533 304.521 7.882C305.044 7.22867 305.781 6.902 306.733 6.902C307.349 6.902 307.844 7.028 308.217 7.28C308.6 7.52267 308.866 7.80267 309.015 8.12H309.393L309.323 9.898H309.057C309.057 9.506 308.982 9.184 308.833 8.932C308.684 8.68 308.469 8.49333 308.189 8.372C307.909 8.25067 307.564 8.19 307.153 8.19C306.817 8.19 306.528 8.232 306.285 8.316C306.052 8.4 305.856 8.53067 305.697 8.708C305.548 8.88533 305.436 9.12333 305.361 9.422C305.296 9.72067 305.263 10.0847 305.263 10.514C305.263 10.934 305.296 11.298 305.361 11.606C305.436 11.9047 305.548 12.1473 305.697 12.334C305.856 12.5113 306.056 12.642 306.299 12.726C306.542 12.81 306.826 12.852 307.153 12.852C307.564 12.852 307.909 12.7913 308.189 12.67C308.469 12.5393 308.684 12.348 308.833 12.096C308.982 11.844 309.057 11.5267 309.057 11.144H309.323L309.393 12.852H309.113C308.954 13.2533 308.679 13.5707 308.287 13.804C307.904 14.028 307.414 14.14 306.817 14.14ZM310.569 14H309.169V12.348L309.057 12.166V4.62H310.569V14Z" fill="#ACACAC"/>
<path d="M504.296 14H502.784V4.62H504.926L507.082 9.772L507.894 12.012H508.006L508.818 9.772L510.918 4.62H513.06V14H511.562V8.456L511.618 6.888H511.52L510.932 8.456L508.832 13.44H507.012L504.898 8.456L504.338 6.888H504.212L504.296 8.456V14ZM520.476 14H519.076V12.628L519.034 12.25V9.576C519.034 9.05333 518.908 8.69867 518.656 8.512C518.413 8.32533 518.017 8.232 517.466 8.232C516.915 8.232 516.519 8.33 516.276 8.526C516.043 8.722 515.926 9.04867 515.926 9.506V9.716H514.47V9.576C514.47 9.05333 514.596 8.59133 514.848 8.19C515.109 7.78867 515.469 7.476 515.926 7.252C516.393 7.01867 516.934 6.902 517.55 6.902C518.203 6.902 518.745 7.02333 519.174 7.266C519.603 7.50867 519.925 7.84467 520.14 8.274C520.364 8.694 520.476 9.19333 520.476 9.772V14ZM516.486 14.14C515.861 14.14 515.333 13.9813 514.904 13.664C514.484 13.3373 514.274 12.8753 514.274 12.278C514.274 11.886 514.363 11.5593 514.54 11.298C514.727 11.0367 514.993 10.822 515.338 10.654C515.683 10.486 516.103 10.3693 516.598 10.304L519.174 9.94V11.004L516.822 11.354C516.421 11.41 516.141 11.494 515.982 11.606C515.823 11.718 515.744 11.9047 515.744 12.166C515.744 12.4367 515.837 12.6327 516.024 12.754C516.22 12.8753 516.537 12.936 516.976 12.936C517.312 12.936 517.634 12.8847 517.942 12.782C518.259 12.67 518.521 12.488 518.726 12.236C518.931 11.9747 519.034 11.6107 519.034 11.144L519.23 12.922L519.006 12.908C518.875 13.1227 518.693 13.3233 518.46 13.51C518.236 13.6967 517.961 13.8507 517.634 13.972C517.307 14.084 516.925 14.14 516.486 14.14ZM522.731 16.38C522.544 16.38 522.353 16.366 522.157 16.338C521.961 16.3193 521.802 16.2913 521.681 16.254V15.022H522.647C522.936 15.022 523.151 14.98 523.291 14.896C523.431 14.8213 523.561 14.658 523.683 14.406L524.117 13.426L523.991 13.916L520.981 7.042H522.647L524.047 10.416L524.677 11.928H524.803L525.363 10.416L526.637 7.042H528.317L525.013 14.812C524.845 15.232 524.653 15.554 524.439 15.778C524.224 16.002 523.977 16.156 523.697 16.24C523.426 16.3333 523.104 16.38 522.731 16.38Z" fill="#ACACAC"/>
<path d="M752.71 14.14C751.861 14.14 751.179 13.9907 750.666 13.692C750.153 13.3933 749.775 12.978 749.532 12.446C749.299 11.9047 749.182 11.284 749.182 10.584V10.192H750.778V10.696C750.778 11.1627 750.82 11.5453 750.904 11.844C750.997 12.1333 751.179 12.3433 751.45 12.474C751.73 12.6047 752.136 12.67 752.668 12.67C753.2 12.67 753.601 12.6047 753.872 12.474C754.143 12.3433 754.32 12.1333 754.404 11.844C754.497 11.5453 754.544 11.1627 754.544 10.696V4.62H756.154V10.57C756.154 11.2793 756.033 11.9047 755.79 12.446C755.557 12.978 755.188 13.3933 754.684 13.692C754.18 13.9907 753.522 14.14 752.71 14.14ZM760.234 14.14C759.637 14.14 759.142 14.0187 758.75 13.776C758.358 13.524 758.069 13.188 757.882 12.768C757.696 12.3387 757.602 11.8627 757.602 11.34V7.042H759.114V11.06C759.114 11.6853 759.245 12.138 759.506 12.418C759.768 12.698 760.197 12.838 760.794 12.838C761.186 12.838 761.518 12.7773 761.788 12.656C762.059 12.5253 762.264 12.3247 762.404 12.054C762.544 11.774 762.614 11.41 762.614 10.962H763.006V12.614H762.67C762.568 12.8753 762.409 13.1227 762.194 13.356C761.989 13.5893 761.723 13.7807 761.396 13.93C761.079 14.07 760.692 14.14 760.234 14.14ZM764.126 14H762.726V11.914L762.614 11.844V7.042H764.126V14ZM772.097 14H770.585V9.954C770.585 9.338 770.468 8.89467 770.235 8.624C770.002 8.344 769.563 8.204 768.919 8.204C768.508 8.204 768.172 8.26467 767.911 8.386C767.65 8.498 767.454 8.68467 767.323 8.946C767.192 9.198 767.127 9.54333 767.127 9.982H766.861L766.735 8.344H767.071C767.174 8.092 767.328 7.85867 767.533 7.644C767.738 7.42933 768 7.252 768.317 7.112C768.644 6.972 769.031 6.902 769.479 6.902C770.086 6.902 770.58 7.01867 770.963 7.252C771.346 7.48533 771.63 7.80733 771.817 8.218C772.004 8.62867 772.097 9.1 772.097 9.632V14ZM767.127 14H765.615V7.042H767.001V9.128L767.127 9.198V14ZM776.611 14.14C775.855 14.14 775.225 13.9907 774.721 13.692C774.217 13.384 773.844 12.9593 773.601 12.418C773.359 11.8673 773.237 11.2327 773.237 10.514C773.237 9.79533 773.373 9.16533 773.643 8.624C773.923 8.08267 774.315 7.66267 774.819 7.364C775.323 7.056 775.921 6.902 776.611 6.902C777.237 6.902 777.787 7.02333 778.263 7.266C778.749 7.49933 779.122 7.84 779.383 8.288C779.654 8.736 779.789 9.27733 779.789 9.912C779.789 10.0987 779.78 10.2807 779.761 10.458C779.752 10.626 779.738 10.766 779.719 10.878H773.951V9.87H778.487L778.333 10.01C778.371 9.58067 778.324 9.23067 778.193 8.96C778.072 8.68933 777.871 8.48867 777.591 8.358C777.321 8.22733 776.98 8.162 776.569 8.162C775.832 8.162 775.328 8.34867 775.057 8.722C774.787 9.086 774.651 9.59 774.651 10.234V10.654C774.651 11.1207 774.707 11.5173 774.819 11.844C774.941 12.1613 775.146 12.3993 775.435 12.558C775.725 12.7167 776.121 12.796 776.625 12.796C777.213 12.796 777.629 12.7027 777.871 12.516C778.114 12.3293 778.235 12.082 778.235 11.774V11.662H779.733V11.788C779.733 12.264 779.603 12.6793 779.341 13.034C779.08 13.3793 778.716 13.65 778.249 13.846C777.792 14.042 777.246 14.14 776.611 14.14Z" fill="#ACACAC"/>
<path d="M997.708 14H996.126L999.78 4.62H1001.95L1005.6 14H1003.97L1001.5 7.728L1000.9 5.978H1000.79L1000.17 7.728L997.708 14ZM1003.84 11.564H997.932V10.206H1003.84V11.564ZM1008.96 14.14C1008.36 14.14 1007.87 14.0187 1007.47 13.776C1007.08 13.524 1006.79 13.188 1006.61 12.768C1006.42 12.3387 1006.33 11.8627 1006.33 11.34V7.042H1007.84V11.06C1007.84 11.6853 1007.97 12.138 1008.23 12.418C1008.49 12.698 1008.92 12.838 1009.52 12.838C1009.91 12.838 1010.24 12.7773 1010.51 12.656C1010.78 12.5253 1010.99 12.3247 1011.13 12.054C1011.27 11.774 1011.34 11.41 1011.34 10.962H1011.73V12.614H1011.39C1011.29 12.8753 1011.13 13.1227 1010.92 13.356C1010.71 13.5893 1010.45 13.7807 1010.12 13.93C1009.8 14.07 1009.41 14.14 1008.96 14.14ZM1012.85 14H1011.45V11.914L1011.34 11.844V7.042H1012.85V14ZM1017.6 16.52C1016.95 16.52 1016.38 16.4173 1015.89 16.212C1015.42 16.0067 1015.05 15.708 1014.79 15.316C1014.53 14.9333 1014.39 14.462 1014.39 13.902H1015.91C1015.91 14.2193 1015.95 14.4713 1016.05 14.658C1016.14 14.8447 1016.31 14.9753 1016.56 15.05C1016.82 15.134 1017.18 15.176 1017.64 15.176C1018.1 15.176 1018.45 15.1247 1018.69 15.022C1018.94 14.9193 1019.1 14.7467 1019.2 14.504C1019.29 14.2613 1019.34 13.9253 1019.34 13.496V8.876L1019.45 8.694V7.042H1020.85V13.496C1020.85 14.1773 1020.72 14.7373 1020.46 15.176C1020.2 15.624 1019.82 15.96 1019.34 16.184C1018.86 16.408 1018.28 16.52 1017.6 16.52ZM1017.01 13.342C1016.05 13.342 1015.31 13.0527 1014.8 12.474C1014.29 11.886 1014.03 11.102 1014.03 10.122C1014.03 9.142 1014.29 8.36267 1014.81 7.784C1015.34 7.196 1016.09 6.902 1017.07 6.902C1017.64 6.902 1018.13 7.01867 1018.54 7.252C1018.95 7.476 1019.23 7.78867 1019.39 8.19H1019.67L1019.6 9.898H1019.34C1019.34 9.506 1019.26 9.184 1019.1 8.932C1018.94 8.68 1018.72 8.49333 1018.43 8.372C1018.14 8.25067 1017.8 8.19 1017.42 8.19C1016.98 8.19 1016.62 8.25067 1016.34 8.372C1016.07 8.49333 1015.87 8.69867 1015.74 8.988C1015.61 9.268 1015.54 9.646 1015.54 10.122C1015.54 10.4767 1015.58 10.78 1015.65 11.032C1015.73 11.2747 1015.85 11.4707 1016 11.62C1016.16 11.7693 1016.36 11.8813 1016.61 11.956C1016.85 12.0213 1017.13 12.054 1017.45 12.054C1017.83 12.054 1018.16 11.9933 1018.44 11.872C1018.72 11.7413 1018.94 11.55 1019.1 11.298C1019.26 11.046 1019.34 10.724 1019.34 10.332H1019.64V12.11H1019.28C1019.12 12.446 1018.85 12.7353 1018.45 12.978C1018.06 13.2207 1017.58 13.342 1017.01 13.342ZM1024.93 14.14C1024.33 14.14 1023.83 14.0187 1023.44 13.776C1023.05 13.524 1022.76 13.188 1022.57 12.768C1022.39 12.3387 1022.29 11.8627 1022.29 11.34V7.042H1023.81V11.06C1023.81 11.6853 1023.94 12.138 1024.2 12.418C1024.46 12.698 1024.89 12.838 1025.49 12.838C1025.88 12.838 1026.21 12.7773 1026.48 12.656C1026.75 12.5253 1026.96 12.3247 1027.1 12.054C1027.24 11.774 1027.31 11.41 1027.31 10.962H1027.7V12.614H1027.36C1027.26 12.8753 1027.1 13.1227 1026.89 13.356C1026.68 13.5893 1026.41 13.7807 1026.09 13.93C1025.77 14.07 1025.38 14.14 1024.93 14.14ZM1028.82 14H1027.42V11.914L1027.31 11.844V7.042H1028.82V14ZM1033.19 14.14C1032.17 14.14 1031.4 13.9393 1030.88 13.538C1030.36 13.1273 1030.1 12.4973 1030.1 11.648V11.62H1031.55V11.872C1031.55 12.1147 1031.6 12.3153 1031.69 12.474C1031.8 12.6233 1031.96 12.7353 1032.2 12.81C1032.44 12.8753 1032.78 12.908 1033.22 12.908C1033.59 12.908 1033.87 12.88 1034.06 12.824C1034.26 12.7587 1034.39 12.67 1034.45 12.558C1034.52 12.446 1034.55 12.306 1034.55 12.138C1034.55 11.858 1034.45 11.662 1034.26 11.55C1034.06 11.4287 1033.71 11.3213 1033.21 11.228L1032.11 11.046C1031.7 10.962 1031.34 10.8453 1031.04 10.696C1030.74 10.5373 1030.5 10.3227 1030.34 10.052C1030.18 9.772 1030.1 9.422 1030.1 9.002C1030.1 8.37667 1030.34 7.87267 1030.84 7.49C1031.33 7.098 1032.03 6.902 1032.94 6.902C1033.49 6.902 1033.98 6.99067 1034.41 7.168C1034.84 7.34533 1035.18 7.61133 1035.43 7.966C1035.68 8.32067 1035.81 8.764 1035.81 9.296V9.422H1034.37V9.254C1034.37 9.03 1034.33 8.83867 1034.26 8.68C1034.18 8.512 1034.04 8.38133 1033.84 8.288C1033.63 8.19467 1033.32 8.148 1032.9 8.148C1032.35 8.148 1031.98 8.218 1031.81 8.358C1031.63 8.498 1031.54 8.70333 1031.54 8.974C1031.54 9.24467 1031.62 9.436 1031.78 9.548C1031.95 9.65067 1032.27 9.75333 1032.76 9.856L1033.95 10.08C1034.4 10.164 1034.77 10.29 1035.07 10.458C1035.37 10.626 1035.59 10.8453 1035.74 11.116C1035.9 11.3867 1035.98 11.7087 1035.98 12.082C1035.98 12.7353 1035.73 13.244 1035.24 13.608C1034.75 13.9627 1034.07 14.14 1033.19 14.14ZM1040.03 14C1039.26 14 1038.67 13.8367 1038.26 13.51C1037.86 13.1833 1037.66 12.6327 1037.66 11.858V7.196L1038.01 5.32H1039.17V11.788C1039.17 12.152 1039.26 12.3853 1039.44 12.488C1039.63 12.5813 1039.96 12.628 1040.43 12.628H1041.27V13.874C1041.13 13.9113 1040.95 13.944 1040.73 13.972C1040.5 13.9907 1040.27 14 1040.03 14ZM1041.27 8.302H1036.5V7.042H1041.27V8.302Z" fill="#ACACAC"/>
<path d="M1247.58 14.14C1246.68 14.14 1245.95 14.014 1245.38 13.762C1244.81 13.5007 1244.39 13.1413 1244.11 12.684C1243.84 12.2173 1243.7 11.6853 1243.7 11.088V10.85H1245.18V11.004C1245.18 11.3867 1245.25 11.7087 1245.38 11.97C1245.52 12.2313 1245.77 12.4273 1246.12 12.558C1246.48 12.6887 1246.99 12.754 1247.65 12.754C1248.34 12.754 1248.82 12.656 1249.1 12.46C1249.38 12.2547 1249.52 11.9373 1249.52 11.508C1249.52 11.2187 1249.48 10.9853 1249.4 10.808C1249.31 10.6307 1249.15 10.486 1248.89 10.374C1248.65 10.2527 1248.29 10.1453 1247.8 10.052L1246.21 9.73C1245.66 9.62733 1245.21 9.46867 1244.85 9.254C1244.48 9.03 1244.2 8.74533 1244.01 8.4C1243.82 8.05467 1243.73 7.63933 1243.73 7.154C1243.73 6.68733 1243.85 6.25333 1244.09 5.852C1244.34 5.44133 1244.73 5.11 1245.24 4.858C1245.76 4.606 1246.43 4.48 1247.23 4.48C1248.09 4.48 1248.78 4.62467 1249.31 4.914C1249.86 5.20333 1250.25 5.586 1250.49 6.062C1250.74 6.52867 1250.87 7.042 1250.87 7.602V7.77H1249.37V7.616C1249.37 7.224 1249.3 6.902 1249.17 6.65C1249.05 6.38867 1248.83 6.19267 1248.5 6.062C1248.18 5.922 1247.75 5.852 1247.2 5.852C1246.51 5.852 1246.01 5.95467 1245.7 6.16C1245.39 6.36533 1245.24 6.67333 1245.24 7.084C1245.24 7.364 1245.29 7.588 1245.38 7.756C1245.48 7.924 1245.66 8.05933 1245.9 8.162C1246.15 8.25533 1246.49 8.35333 1246.91 8.456L1248.5 8.792C1249.1 8.904 1249.58 9.08133 1249.94 9.324C1250.32 9.56667 1250.59 9.86533 1250.77 10.22C1250.95 10.5653 1251.04 10.976 1251.04 11.452C1251.04 11.9373 1250.91 12.3853 1250.67 12.796C1250.43 13.2067 1250.05 13.5333 1249.54 13.776C1249.03 14.0187 1248.38 14.14 1247.58 14.14ZM1255.22 14.14C1254.46 14.14 1253.83 13.9907 1253.33 13.692C1252.82 13.384 1252.45 12.9593 1252.21 12.418C1251.96 11.8673 1251.84 11.2327 1251.84 10.514C1251.84 9.79533 1251.98 9.16533 1252.25 8.624C1252.53 8.08267 1252.92 7.66267 1253.42 7.364C1253.93 7.056 1254.53 6.902 1255.22 6.902C1255.84 6.902 1256.39 7.02333 1256.87 7.266C1257.35 7.49933 1257.73 7.84 1257.99 8.288C1258.26 8.736 1258.39 9.27733 1258.39 9.912C1258.39 10.0987 1258.39 10.2807 1258.37 10.458C1258.36 10.626 1258.34 10.766 1258.32 10.878H1252.56V9.87H1257.09L1256.94 10.01C1256.98 9.58067 1256.93 9.23067 1256.8 8.96C1256.68 8.68933 1256.48 8.48867 1256.2 8.358C1255.93 8.22733 1255.59 8.162 1255.17 8.162C1254.44 8.162 1253.93 8.34867 1253.66 8.722C1253.39 9.086 1253.26 9.59 1253.26 10.234V10.654C1253.26 11.1207 1253.31 11.5173 1253.42 11.844C1253.55 12.1613 1253.75 12.3993 1254.04 12.558C1254.33 12.7167 1254.73 12.796 1255.23 12.796C1255.82 12.796 1256.23 12.7027 1256.48 12.516C1256.72 12.3293 1256.84 12.082 1256.84 11.774V11.662H1258.34V11.788C1258.34 12.264 1258.21 12.6793 1257.95 13.034C1257.69 13.3793 1257.32 13.65 1256.85 13.846C1256.4 14.042 1255.85 14.14 1255.22 14.14ZM1263.41 14.14C1262.78 14.14 1262.28 14.0187 1261.88 13.776C1261.5 13.524 1261.23 13.2393 1261.09 12.922H1260.71L1260.78 11.144H1261.04C1261.04 11.5267 1261.11 11.844 1261.25 12.096C1261.4 12.348 1261.62 12.5393 1261.91 12.67C1262.2 12.7913 1262.55 12.852 1262.95 12.852C1263.27 12.852 1263.56 12.81 1263.8 12.726C1264.04 12.642 1264.24 12.5113 1264.39 12.334C1264.55 12.1567 1264.66 11.9187 1264.73 11.62C1264.8 11.312 1264.84 10.9433 1264.84 10.514C1264.84 10.0847 1264.8 9.72533 1264.73 9.436C1264.66 9.13733 1264.55 8.89467 1264.39 8.708C1264.24 8.52133 1264.04 8.39067 1263.8 8.316C1263.57 8.232 1263.28 8.19 1262.95 8.19C1262.55 8.19 1262.2 8.25533 1261.91 8.386C1261.62 8.50733 1261.4 8.694 1261.25 8.946C1261.11 9.18867 1261.04 9.506 1261.04 9.898H1260.78L1260.71 8.19H1260.99C1261.16 7.78867 1261.43 7.476 1261.81 7.252C1262.21 7.01867 1262.7 6.902 1263.31 6.902C1264.29 6.902 1265.04 7.22867 1265.57 7.882C1266.09 8.53533 1266.35 9.41267 1266.35 10.514C1266.35 11.6153 1266.1 12.4973 1265.59 13.16C1265.09 13.8133 1264.36 14.14 1263.41 14.14ZM1261.04 16.422H1259.55V7.042H1260.92V8.694L1261.04 8.876V16.422ZM1270.4 14C1269.64 14 1269.05 13.8367 1268.64 13.51C1268.24 13.1833 1268.04 12.6327 1268.04 11.858V7.196L1268.39 5.32H1269.55V11.788C1269.55 12.152 1269.64 12.3853 1269.81 12.488C1270 12.5813 1270.33 12.628 1270.81 12.628H1271.65V13.874C1271.51 13.9113 1271.33 13.944 1271.1 13.972C1270.88 13.9907 1270.64 14 1270.4 14ZM1271.65 8.302H1266.87V7.042H1271.65V8.302ZM1275.52 14.14C1274.76 14.14 1274.13 13.9907 1273.63 13.692C1273.13 13.384 1272.75 12.9593 1272.51 12.418C1272.27 11.8673 1272.15 11.2327 1272.15 10.514C1272.15 9.79533 1272.28 9.16533 1272.55 8.624C1272.83 8.08267 1273.22 7.66267 1273.73 7.364C1274.23 7.056 1274.83 6.902 1275.52 6.902C1276.14 6.902 1276.7 7.02333 1277.17 7.266C1277.66 7.49933 1278.03 7.84 1278.29 8.288C1278.56 8.736 1278.7 9.27733 1278.7 9.912C1278.7 10.0987 1278.69 10.2807 1278.67 10.458C1278.66 10.626 1278.65 10.766 1278.63 10.878H1272.86V9.87H1277.4L1277.24 10.01C1277.28 9.58067 1277.23 9.23067 1277.1 8.96C1276.98 8.68933 1276.78 8.48867 1276.5 8.358C1276.23 8.22733 1275.89 8.162 1275.48 8.162C1274.74 8.162 1274.24 8.34867 1273.97 8.722C1273.69 9.086 1273.56 9.59 1273.56 10.234V10.654C1273.56 11.1207 1273.62 11.5173 1273.73 11.844C1273.85 12.1613 1274.05 12.3993 1274.34 12.558C1274.63 12.7167 1275.03 12.796 1275.53 12.796C1276.12 12.796 1276.54 12.7027 1276.78 12.516C1277.02 12.3293 1277.14 12.082 1277.14 11.774V11.662H1278.64V11.788C1278.64 12.264 1278.51 12.6793 1278.25 13.034C1277.99 13.3793 1277.62 13.65 1277.16 13.846C1276.7 14.042 1276.15 14.14 1275.52 14.14ZM1291.08 14H1289.56V9.954C1289.56 9.338 1289.45 8.89467 1289.21 8.624C1288.99 8.344 1288.56 8.204 1287.93 8.204C1287.36 8.204 1286.93 8.33933 1286.65 8.61C1286.38 8.87133 1286.25 9.31933 1286.25 9.954L1285.98 9.982L1285.85 8.344H1286.08C1286.19 8.10133 1286.34 7.87267 1286.54 7.658C1286.75 7.434 1287.01 7.252 1287.32 7.112C1287.64 6.972 1288.03 6.902 1288.49 6.902C1289.09 6.902 1289.58 7.01867 1289.96 7.252C1290.34 7.48533 1290.62 7.80733 1290.8 8.218C1290.98 8.62867 1291.08 9.1 1291.08 9.632V14ZM1281.42 14H1279.9V7.042H1281.29V9.128L1281.42 9.198V14ZM1286.25 14H1284.73V9.954C1284.73 9.338 1284.62 8.89467 1284.38 8.624C1284.16 8.344 1283.73 8.204 1283.1 8.204C1282.53 8.204 1282.1 8.33467 1281.82 8.596C1281.55 8.85733 1281.42 9.30533 1281.42 9.94L1281.15 9.982L1281.02 8.344H1281.36C1281.46 8.092 1281.61 7.85867 1281.81 7.644C1282.01 7.42933 1282.27 7.252 1282.59 7.112C1282.91 6.972 1283.29 6.902 1283.73 6.902C1284.31 6.902 1284.79 7.01867 1285.15 7.252C1285.53 7.48533 1285.8 7.80733 1285.98 8.218C1286.16 8.62867 1286.25 9.1 1286.25 9.632V14ZM1296.32 14.14C1295.71 14.14 1295.21 14.028 1294.82 13.804C1294.43 13.5707 1294.14 13.2533 1293.97 12.852H1293.69L1293.77 11.144H1294.04C1294.04 11.5267 1294.11 11.844 1294.25 12.096C1294.39 12.348 1294.61 12.5393 1294.89 12.67C1295.18 12.7913 1295.52 12.852 1295.93 12.852C1296.26 12.852 1296.55 12.81 1296.78 12.726C1297.02 12.642 1297.22 12.5113 1297.38 12.334C1297.54 12.1473 1297.65 11.9047 1297.72 11.606C1297.79 11.298 1297.83 10.934 1297.83 10.514C1297.83 10.0847 1297.79 9.72067 1297.72 9.422C1297.65 9.12333 1297.54 8.88533 1297.38 8.708C1297.23 8.53067 1297.04 8.4 1296.79 8.316C1296.55 8.232 1296.26 8.19 1295.93 8.19C1295.52 8.19 1295.18 8.25067 1294.89 8.372C1294.61 8.49333 1294.39 8.68 1294.25 8.932C1294.11 9.184 1294.04 9.506 1294.04 9.898H1293.77L1293.69 8.148H1294.08C1294.23 7.83067 1294.5 7.546 1294.89 7.294C1295.29 7.03267 1295.79 6.902 1296.4 6.902C1297.36 6.902 1298.09 7.22867 1298.59 7.882C1299.09 8.53533 1299.34 9.41267 1299.34 10.514C1299.34 11.6153 1299.08 12.4973 1298.56 13.16C1298.04 13.8133 1297.3 14.14 1296.32 14.14ZM1293.91 14H1292.52V4.62H1294.04V12.166L1293.91 12.348V14ZM1303.64 14.14C1302.89 14.14 1302.26 13.9907 1301.75 13.692C1301.25 13.384 1300.88 12.9593 1300.63 12.418C1300.39 11.8673 1300.27 11.2327 1300.27 10.514C1300.27 9.79533 1300.4 9.16533 1300.67 8.624C1300.95 8.08267 1301.35 7.66267 1301.85 7.364C1302.35 7.056 1302.95 6.902 1303.64 6.902C1304.27 6.902 1304.82 7.02333 1305.29 7.266C1305.78 7.49933 1306.15 7.84 1306.41 8.288C1306.69 8.736 1306.82 9.27733 1306.82 9.912C1306.82 10.0987 1306.81 10.2807 1306.79 10.458C1306.78 10.626 1306.77 10.766 1306.75 10.878H1300.98V9.87H1305.52L1305.36 10.01C1305.4 9.58067 1305.36 9.23067 1305.22 8.96C1305.1 8.68933 1304.9 8.48867 1304.62 8.358C1304.35 8.22733 1304.01 8.162 1303.6 8.162C1302.86 8.162 1302.36 8.34867 1302.09 8.722C1301.82 9.086 1301.68 9.59 1301.68 10.234V10.654C1301.68 11.1207 1301.74 11.5173 1301.85 11.844C1301.97 12.1613 1302.18 12.3993 1302.47 12.558C1302.76 12.7167 1303.15 12.796 1303.66 12.796C1304.24 12.796 1304.66 12.7027 1304.9 12.516C1305.15 12.3293 1305.27 12.082 1305.27 11.774V11.662H1306.76V11.788C1306.76 12.264 1306.63 12.6793 1306.37 13.034C1306.11 13.3793 1305.75 13.65 1305.28 13.846C1304.82 14.042 1304.28 14.14 1303.64 14.14ZM1309.54 14H1308.03V7H1309.41V8.946L1309.54 9.016V14ZM1309.54 9.464H1309.19V8.106H1309.48C1309.62 7.77933 1309.85 7.49933 1310.17 7.266C1310.5 7.02333 1310.92 6.902 1311.43 6.902C1311.92 6.902 1312.32 7.00933 1312.61 7.224C1312.9 7.43867 1313.12 7.72333 1313.25 8.078C1313.38 8.43267 1313.45 8.82933 1313.45 9.268V9.73H1311.93V9.45C1311.93 8.98333 1311.85 8.65667 1311.7 8.47C1311.54 8.28333 1311.24 8.19 1310.8 8.19C1310.34 8.19 1310.02 8.288 1309.82 8.484C1309.63 8.67067 1309.54 8.99733 1309.54 9.464Z" fill="#ACACAC"/>
<path d="M8 32H1343" stroke="#ACACAC"/>
<path d="M20.5 26L20.5 38" stroke="#ACACAC"/>
<path d="M284 26L284 38" stroke="#ACACAC"/>
<path d="M516 26L516 38" stroke="#ACACAC"/>
<path d="M765 26L765 38" stroke="#ACACAC"/>
<path d="M1019 26L1019 38" stroke="#ACACAC"/>
<path d="M1279.5 26L1279.5 38" stroke="#ACACAC"/>
<circle cx="8.3427" cy="33.6825" r="7.53534" stroke="#213147" stroke-width="1.61472"/>
<circle cx="8.34486" cy="33.6828" r="5.6515" fill="#213147"/>
<path d="M8.3418 42.0234L8.34179 87.0234" stroke="#213147" stroke-width="0.667416"/>
<path d="M18.314 82.0234H16.8057L20.2896 73.0801H22.3586L25.8425 82.0234H24.2807L21.9314 76.0434L21.3575 74.3749H21.2507L20.6633 76.0434L18.314 82.0234ZM24.1606 79.7008H18.5276V78.406H24.1606V79.7008ZM30.2007 82.1569C29.6045 82.1569 29.1195 82.0412 28.7457 81.8099C28.3809 81.5696 28.1273 81.2982 27.9849 80.9956H27.6245L27.6912 79.3004H27.9448C27.9448 79.6652 28.0116 79.9678 28.1451 80.2081C28.2875 80.4483 28.4966 80.6308 28.7724 80.7553C29.0483 80.871 29.3776 80.9289 29.7602 80.9289C30.0717 80.9289 30.3431 80.8888 30.5745 80.8087C30.8058 80.7287 30.9927 80.6041 31.1351 80.435C31.2864 80.2659 31.3932 80.039 31.4555 79.7542C31.5266 79.4606 31.5622 79.1091 31.5622 78.6997C31.5622 78.2904 31.5266 77.9478 31.4555 77.6719C31.3932 77.3871 31.2864 77.1558 31.1351 76.9778C30.9927 76.7998 30.8058 76.6752 30.5745 76.604C30.352 76.5239 30.0806 76.4839 29.7602 76.4839C29.3776 76.4839 29.0483 76.5462 28.7724 76.6708C28.4966 76.7864 28.2875 76.9644 28.1451 77.2047C28.0116 77.4361 27.9448 77.7386 27.9448 78.1124H27.6912L27.6245 76.4839H27.8915C28.0516 76.1012 28.3142 75.8031 28.679 75.5896C29.0528 75.3671 29.5288 75.2558 30.1073 75.2558C31.0417 75.2558 31.758 75.5673 32.2564 76.1902C32.7547 76.8131 33.0039 77.6496 33.0039 78.6997C33.0039 79.7498 32.7636 80.5907 32.2831 81.2225C31.8025 81.8455 31.1084 82.1569 30.2007 82.1569ZM27.9448 84.3327H26.5166V75.3893H27.8247V76.9644L27.9448 77.138V84.3327ZM37.7874 82.1569C37.1911 82.1569 36.7061 82.0412 36.3324 81.8099C35.9675 81.5696 35.7139 81.2982 35.5715 80.9956H35.2111L35.2779 79.3004H35.5315C35.5315 79.6652 35.5982 79.9678 35.7317 80.2081C35.8741 80.4483 36.0832 80.6308 36.3591 80.7553C36.6349 80.871 36.9642 80.9289 37.3469 80.9289C37.6583 80.9289 37.9297 80.8888 38.1611 80.8087C38.3925 80.7287 38.5794 80.6041 38.7217 80.435C38.873 80.2659 38.9798 80.039 39.0421 79.7542C39.1133 79.4606 39.1489 79.1091 39.1489 78.6997C39.1489 78.2904 39.1133 77.9478 39.0421 77.6719C38.9798 77.3871 38.873 77.1558 38.7217 76.9778C38.5794 76.7998 38.3925 76.6752 38.1611 76.604C37.9386 76.5239 37.6672 76.4839 37.3469 76.4839C36.9642 76.4839 36.6349 76.5462 36.3591 76.6708C36.0832 76.7864 35.8741 76.9644 35.7317 77.2047C35.5982 77.4361 35.5315 77.7386 35.5315 78.1124H35.2779L35.2111 76.4839H35.4781C35.6383 76.1012 35.9008 75.8031 36.2656 75.5896C36.6394 75.3671 37.1155 75.2558 37.6939 75.2558C38.6283 75.2558 39.3447 75.5673 39.843 76.1902C40.3413 76.8131 40.5905 77.6496 40.5905 78.6997C40.5905 79.7498 40.3502 80.5907 39.8697 81.2225C39.3892 81.8455 38.695 82.1569 37.7874 82.1569ZM35.5315 84.3327H34.1032V75.3893H35.4114V76.9644L35.5315 77.138V84.3327ZM43.1979 82.0234H41.7563V73.0801H43.1979V82.0234ZM45.9592 74.5484H44.531L44.5176 73.0801H45.9592V74.5484ZM45.9726 82.0234H44.531V75.3493H45.9726V82.0234ZM50.2079 82.1703C49.5137 82.1703 48.9264 82.0234 48.4459 81.7298C47.9653 81.4361 47.596 81.0312 47.338 80.5151C47.0888 79.9989 46.9642 79.3983 46.9642 78.7131C46.9642 78.0278 47.0932 77.4272 47.3513 76.911C47.6183 76.386 47.9965 75.9811 48.4859 75.6963C48.9754 75.4027 49.5671 75.2558 50.2612 75.2558C50.8486 75.2558 51.3647 75.3671 51.8097 75.5896C52.2546 75.812 52.5972 76.1235 52.8375 76.5239C53.0866 76.9244 53.2112 77.3916 53.2112 77.9255V78.0456H51.783V77.9655C51.783 77.4761 51.6495 77.1202 51.3825 76.8977C51.1244 76.6663 50.7195 76.5506 50.1678 76.5506C49.5271 76.5506 49.0688 76.7331 48.7929 77.0979C48.526 77.4539 48.3925 77.9878 48.3925 78.6997C48.3925 79.4205 48.526 79.9633 48.7929 80.3282C49.0688 80.6842 49.5271 80.8621 50.1678 80.8621C50.7195 80.8621 51.1244 80.7509 51.3825 80.5284C51.6495 80.2971 51.783 79.9411 51.783 79.4606V79.3805H53.2112V79.5006C53.2112 80.0167 53.0866 80.4795 52.8375 80.8888C52.5883 81.2893 52.2368 81.6052 51.783 81.8366C51.338 82.059 50.813 82.1703 50.2079 82.1703ZM59.9682 82.0234H58.6334V80.7153L58.5933 80.3549V77.8054C58.5933 77.307 58.4732 76.9689 58.2329 76.7909C58.0015 76.6129 57.6233 76.5239 57.0983 76.5239C56.5733 76.5239 56.1951 76.6174 55.9637 76.8042C55.7412 76.9911 55.63 77.3026 55.63 77.7386V77.9389H54.2418V77.8054C54.2418 77.307 54.3619 76.8665 54.6022 76.4839C54.8513 76.1012 55.1939 75.8031 55.63 75.5896C56.0749 75.3671 56.5911 75.2558 57.1784 75.2558C57.8013 75.2558 58.3174 75.3715 58.7268 75.6029C59.1361 75.8343 59.4431 76.1546 59.6478 76.564C59.8614 76.9644 59.9682 77.4405 59.9682 77.9922V82.0234ZM56.1639 82.1569C55.5677 82.1569 55.0649 82.0056 54.6556 81.7031C54.2551 81.3916 54.0549 80.9511 54.0549 80.3816C54.0549 80.0078 54.1394 79.6964 54.3085 79.4472C54.4865 79.198 54.7401 78.9934 55.0694 78.8332C55.3986 78.673 55.7991 78.5618 56.2707 78.4995L58.7268 78.1524V79.1669L56.4843 79.5006C56.1016 79.554 55.8347 79.6341 55.6834 79.7409C55.5321 79.8477 55.4565 80.0256 55.4565 80.2748C55.4565 80.5329 55.5454 80.7198 55.7234 80.8354C55.9103 80.9511 56.2129 81.009 56.6311 81.009C56.9515 81.009 57.2585 80.96 57.5521 80.8621C57.8547 80.7553 58.1039 80.5818 58.2996 80.3415C58.4954 80.0924 58.5933 79.7453 58.5933 79.3004L58.7802 80.9956L58.5666 80.9823C58.442 81.1869 58.2685 81.3783 58.046 81.5562C57.8325 81.7342 57.5699 81.8811 57.2585 81.9967C56.947 82.1035 56.5822 82.1569 56.1639 82.1569ZM64.0468 82.0234C63.3171 82.0234 62.7565 81.8677 62.3649 81.5562C61.9823 81.2448 61.791 80.7198 61.791 79.9811V75.5362L62.1247 73.7475H63.2326V79.9144C63.2326 80.2615 63.3171 80.4839 63.4862 80.5818C63.6642 80.6708 63.9801 80.7153 64.4339 80.7153H65.2348V81.9033C65.1013 81.9389 64.9278 81.97 64.7142 81.9967C64.5007 82.0145 64.2782 82.0234 64.0468 82.0234ZM65.2348 76.5907H60.683V75.3893H65.2348V76.5907ZM67.5199 74.5484H66.0916L66.0783 73.0801H67.5199V74.5484ZM67.5332 82.0234H66.0916V75.3493H67.5332V82.0234ZM71.8352 82.1569C71.1589 82.1569 70.5716 82.0145 70.0733 81.7298C69.5749 81.4361 69.1923 81.0312 68.9253 80.5151C68.6584 79.99 68.5249 79.3849 68.5249 78.6997C68.5249 78.0145 68.6584 77.4138 68.9253 76.8977C69.1923 76.3816 69.5749 75.9811 70.0733 75.6963C70.5716 75.4027 71.1589 75.2558 71.8352 75.2558C72.5116 75.2558 73.09 75.4027 73.5705 75.6963C74.06 75.9811 74.4337 76.3816 74.6918 76.8977C74.9588 77.4138 75.0922 78.0145 75.0922 78.6997C75.0922 79.3849 74.9588 79.99 74.6918 80.5151C74.4337 81.0312 74.06 81.4361 73.5705 81.7298C73.09 82.0145 72.5116 82.1569 71.8352 82.1569ZM71.8352 80.8755C72.5294 80.8755 73.0144 80.702 73.2902 80.3549C73.5661 79.9989 73.704 79.4472 73.704 78.6997C73.704 77.9522 73.5661 77.4049 73.2902 77.0579C73.0144 76.7108 72.5294 76.5373 71.8352 76.5373C71.1322 76.5373 70.6428 76.7108 70.3669 77.0579C70.0911 77.4049 69.9531 77.9522 69.9531 78.6997C69.9531 79.4472 70.0911 79.9989 70.3669 80.3549C70.6428 80.702 71.1322 80.8755 71.8352 80.8755ZM82.3502 82.0234H80.9086V78.1658C80.9086 77.5784 80.7973 77.1558 80.5749 76.8977C80.3524 76.6307 79.9341 76.4972 79.3201 76.4972C78.9286 76.4972 78.6082 76.5551 78.359 76.6708C78.1099 76.7776 77.923 76.9555 77.7984 77.2047C77.6738 77.445 77.6115 77.7742 77.6115 78.1925H77.3579L77.2378 76.6307H77.5581C77.656 76.3904 77.8029 76.168 77.9986 75.9633C78.1944 75.7586 78.4436 75.5896 78.7461 75.4561C79.0576 75.3226 79.4269 75.2558 79.854 75.2558C80.4325 75.2558 80.9041 75.3671 81.269 75.5896C81.6338 75.812 81.9052 76.119 82.0832 76.5106C82.2612 76.9021 82.3502 77.3515 82.3502 77.8588V82.0234ZM77.6115 82.0234H76.1699V75.3893H77.4914V77.3782L77.6115 77.445V82.0234ZM89.8771 82.1569C89.2808 82.1569 88.7958 82.0412 88.4221 81.8099C88.0572 81.5696 87.8036 81.2982 87.6612 80.9956H87.3008L87.3676 79.3004H87.6212C87.6212 79.6652 87.6879 79.9678 87.8214 80.2081C87.9638 80.4483 88.1729 80.6308 88.4488 80.7553C88.7247 80.871 89.0539 80.9289 89.4366 80.9289C89.748 80.9289 90.0194 80.8888 90.2508 80.8087C90.4822 80.7287 90.6691 80.6041 90.8114 80.435C90.9627 80.2659 91.0695 80.039 91.1318 79.7542C91.203 79.4606 91.2386 79.1091 91.2386 78.6997C91.2386 78.2904 91.203 77.9478 91.1318 77.6719C91.0695 77.3871 90.9627 77.1558 90.8114 76.9778C90.6691 76.7998 90.4822 76.6752 90.2508 76.604C90.0283 76.5239 89.7569 76.4839 89.4366 76.4839C89.0539 76.4839 88.7247 76.5462 88.4488 76.6708C88.1729 76.7864 87.9638 76.9644 87.8214 77.2047C87.6879 77.4361 87.6212 77.7386 87.6212 78.1124H87.3676L87.3008 76.4839H87.5678C87.728 76.1012 87.9905 75.8031 88.3554 75.5896C88.7291 75.3671 89.2052 75.2558 89.7836 75.2558C90.718 75.2558 91.4344 75.5673 91.9327 76.1902C92.431 76.8131 92.6802 77.6496 92.6802 78.6997C92.6802 79.7498 92.4399 80.5907 91.9594 81.2225C91.4789 81.8455 90.7847 82.1569 89.8771 82.1569ZM87.6212 84.3327H86.1929V75.3893H87.5011V76.9644L87.6212 77.138V84.3327ZM96.8481 82.1569C96.1273 82.1569 95.5266 82.0145 95.0461 81.7298C94.5656 81.4361 94.2096 81.0312 93.9782 80.5151C93.7469 79.99 93.6312 79.3849 93.6312 78.6997C93.6312 78.0145 93.7602 77.4138 94.0183 76.8977C94.2852 76.3816 94.659 75.9811 95.1395 75.6963C95.6201 75.4027 96.1896 75.2558 96.8481 75.2558C97.4443 75.2558 97.9694 75.3715 98.4232 75.6029C98.886 75.8254 99.2419 76.1502 99.4911 76.5773C99.7491 77.0045 99.8782 77.5206 99.8782 78.1257C99.8782 78.3037 99.8693 78.4772 99.8515 78.6463C99.8426 78.8065 99.8292 78.94 99.8114 79.0468H94.3119V78.0857H98.6368L98.49 78.2192C98.5255 77.8098 98.4811 77.4761 98.3565 77.218C98.2408 76.96 98.0495 76.7687 97.7825 76.6441C97.5244 76.5195 97.1996 76.4572 96.8081 76.4572C96.1051 76.4572 95.6245 76.6352 95.3664 76.9911C95.1084 77.3382 94.9793 77.8187 94.9793 78.4327V78.8332C94.9793 79.2781 95.0327 79.6563 95.1395 79.9678C95.2552 80.2704 95.451 80.4973 95.7269 80.6486C96.0027 80.7998 96.3809 80.8755 96.8615 80.8755C97.4221 80.8755 97.8181 80.7865 98.0495 80.6085C98.2808 80.4305 98.3965 80.1947 98.3965 79.9011V79.7943H99.8248V79.9144C99.8248 80.3682 99.7002 80.7642 99.451 81.1024C99.2019 81.4317 98.8548 81.6897 98.4099 81.8766C97.9738 82.0635 97.4532 82.1569 96.8481 82.1569ZM102.47 82.0234H101.029V75.3493H102.35V77.2047L102.47 77.2714V82.0234ZM102.47 77.6986H102.136V76.4038H102.417C102.55 76.0923 102.768 75.8254 103.071 75.6029C103.382 75.3715 103.783 75.2558 104.272 75.2558C104.744 75.2558 105.118 75.3582 105.393 75.5629C105.678 75.7675 105.883 76.0389 106.007 76.3771C106.132 76.7153 106.194 77.0935 106.194 77.5117V77.9522H104.753V77.6852C104.753 77.2403 104.677 76.9288 104.526 76.7509C104.375 76.5729 104.09 76.4839 103.672 76.4839C103.235 76.4839 102.924 76.5773 102.737 76.7642C102.559 76.9422 102.47 77.2536 102.47 77.6986ZM108.386 74.5484H106.958L106.944 73.0801H108.386V74.5484ZM108.399 82.0234H106.958V75.3493H108.399V82.0234ZM112.701 82.1569C112.025 82.1569 111.438 82.0145 110.939 81.7298C110.441 81.4361 110.058 81.0312 109.791 80.5151C109.525 79.99 109.391 79.3849 109.391 78.6997C109.391 78.0145 109.525 77.4138 109.791 76.8977C110.058 76.3816 110.441 75.9811 110.939 75.6963C111.438 75.4027 112.025 75.2558 112.701 75.2558C113.378 75.2558 113.956 75.4027 114.437 75.6963C114.926 75.9811 115.3 76.3816 115.558 76.8977C115.825 77.4138 115.958 78.0145 115.958 78.6997C115.958 79.3849 115.825 79.99 115.558 80.5151C115.3 81.0312 114.926 81.4361 114.437 81.7298C113.956 82.0145 113.378 82.1569 112.701 82.1569ZM112.701 80.8755C113.396 80.8755 113.881 80.702 114.156 80.3549C114.432 79.9989 114.57 79.4472 114.57 78.6997C114.57 77.9522 114.432 77.4049 114.156 77.0579C113.881 76.7108 113.396 76.5373 112.701 76.5373C111.998 76.5373 111.509 76.7108 111.233 77.0579C110.957 77.4049 110.819 77.9522 110.819 78.6997C110.819 79.4472 110.957 79.9989 111.233 80.3549C111.509 80.702 111.998 80.8755 112.701 80.8755ZM119.758 82.1569C118.814 82.1569 118.089 81.8455 117.582 81.2225C117.083 80.5907 116.834 79.7498 116.834 78.6997C116.834 77.6496 117.079 76.8131 117.568 76.1902C118.067 75.5673 118.77 75.2558 119.677 75.2558C120.265 75.2558 120.736 75.376 121.092 75.6162C121.457 75.8476 121.711 76.1146 121.853 76.4171H122.214L122.147 78.1124H121.893C121.893 77.7386 121.822 77.4316 121.68 77.1913C121.537 76.9511 121.333 76.7731 121.066 76.6574C120.799 76.5417 120.469 76.4839 120.078 76.4839C119.758 76.4839 119.482 76.5239 119.25 76.604C119.028 76.6841 118.841 76.8087 118.69 76.9778C118.547 77.1469 118.441 77.3738 118.369 77.6585C118.307 77.9433 118.276 78.2904 118.276 78.6997C118.276 79.1002 118.307 79.4472 118.369 79.7409C118.441 80.0256 118.547 80.257 118.69 80.435C118.841 80.6041 119.032 80.7287 119.264 80.8087C119.495 80.8888 119.766 80.9289 120.078 80.9289C120.469 80.9289 120.799 80.871 121.066 80.7553C121.333 80.6308 121.537 80.4483 121.68 80.2081C121.822 79.9678 121.893 79.6652 121.893 79.3004H122.147L122.214 80.9289H121.947C121.795 81.3115 121.533 81.6141 121.159 81.8366C120.794 82.0501 120.327 82.1569 119.758 82.1569ZM123.335 82.0234H122V80.4483L121.893 80.2748V73.0801H123.335V82.0234Z" fill="#3F3F46"/>
<circle cx="263.343" cy="31.6825" r="7.53534" stroke="#213147" stroke-width="1.61472"/>
<circle cx="263.345" cy="31.6828" r="5.6515" fill="#213147"/>
<path d="M263.342 40.0234L263.342 137.023" stroke="#213147" stroke-width="0.667416"/>
<path d="M273.314 132.023H271.806L275.29 123.08H277.359L280.842 132.023H279.281L276.931 126.043L276.357 124.375H276.251L275.663 126.043L273.314 132.023ZM279.161 129.701H273.528V128.406H279.161V129.701ZM285.201 132.157C284.604 132.157 284.12 132.041 283.746 131.81C283.381 131.57 283.127 131.298 282.985 130.996H282.624L282.691 129.3H282.945C282.945 129.665 283.012 129.968 283.145 130.208C283.287 130.448 283.497 130.631 283.772 130.755C284.048 130.871 284.378 130.929 284.76 130.929C285.072 130.929 285.343 130.889 285.574 130.809C285.806 130.729 285.993 130.604 286.135 130.435C286.286 130.266 286.393 130.039 286.455 129.754C286.527 129.461 286.562 129.109 286.562 128.7C286.562 128.29 286.527 127.948 286.455 127.672C286.393 127.387 286.286 127.156 286.135 126.978C285.993 126.8 285.806 126.675 285.574 126.604C285.352 126.524 285.081 126.484 284.76 126.484C284.378 126.484 284.048 126.546 283.772 126.671C283.497 126.786 283.287 126.964 283.145 127.205C283.012 127.436 282.945 127.739 282.945 128.112H282.691L282.624 126.484H282.891C283.052 126.101 283.314 125.803 283.679 125.59C284.053 125.367 284.529 125.256 285.107 125.256C286.042 125.256 286.758 125.567 287.256 126.19C287.755 126.813 288.004 127.65 288.004 128.7C288.004 129.75 287.764 130.591 287.283 131.223C286.803 131.845 286.108 132.157 285.201 132.157ZM282.945 134.333H281.517V125.389H282.825V126.964L282.945 127.138V134.333ZM292.787 132.157C292.191 132.157 291.706 132.041 291.332 131.81C290.968 131.57 290.714 131.298 290.572 130.996H290.211L290.278 129.3H290.531C290.531 129.665 290.598 129.968 290.732 130.208C290.874 130.448 291.083 130.631 291.359 130.755C291.635 130.871 291.964 130.929 292.347 130.929C292.658 130.929 292.93 130.889 293.161 130.809C293.392 130.729 293.579 130.604 293.722 130.435C293.873 130.266 293.98 130.039 294.042 129.754C294.113 129.461 294.149 129.109 294.149 128.7C294.149 128.29 294.113 127.948 294.042 127.672C293.98 127.387 293.873 127.156 293.722 126.978C293.579 126.8 293.392 126.675 293.161 126.604C292.939 126.524 292.667 126.484 292.347 126.484C291.964 126.484 291.635 126.546 291.359 126.671C291.083 126.786 290.874 126.964 290.732 127.205C290.598 127.436 290.531 127.739 290.531 128.112H290.278L290.211 126.484H290.478C290.638 126.101 290.901 125.803 291.266 125.59C291.639 125.367 292.115 125.256 292.694 125.256C293.628 125.256 294.345 125.567 294.843 126.19C295.341 126.813 295.59 127.65 295.59 128.7C295.59 129.75 295.35 130.591 294.87 131.223C294.389 131.845 293.695 132.157 292.787 132.157ZM290.531 134.333H289.103V125.389H290.411V126.964L290.531 127.138V134.333ZM298.198 132.023H296.756V123.08H298.198V132.023ZM300.959 124.548H299.531L299.518 123.08H300.959V124.548ZM300.973 132.023H299.531V125.349H300.973V132.023ZM305.208 132.17C304.514 132.17 303.926 132.023 303.446 131.73C302.965 131.436 302.596 131.031 302.338 130.515C302.089 129.999 301.964 129.398 301.964 128.713C301.964 128.028 302.093 127.427 302.351 126.911C302.618 126.386 302.996 125.981 303.486 125.696C303.975 125.403 304.567 125.256 305.261 125.256C305.849 125.256 306.365 125.367 306.81 125.59C307.255 125.812 307.597 126.123 307.837 126.524C308.087 126.924 308.211 127.392 308.211 127.926V128.046H306.783V127.966C306.783 127.476 306.649 127.12 306.383 126.898C306.124 126.666 305.72 126.551 305.168 126.551C304.527 126.551 304.069 126.733 303.793 127.098C303.526 127.454 303.392 127.988 303.392 128.7C303.392 129.421 303.526 129.963 303.793 130.328C304.069 130.684 304.527 130.862 305.168 130.862C305.72 130.862 306.124 130.751 306.383 130.528C306.649 130.297 306.783 129.941 306.783 129.461V129.38H308.211V129.501C308.211 130.017 308.087 130.479 307.837 130.889C307.588 131.289 307.237 131.605 306.783 131.837C306.338 132.059 305.813 132.17 305.208 132.17ZM314.968 132.023H313.633V130.715L313.593 130.355V127.805C313.593 127.307 313.473 126.969 313.233 126.791C313.002 126.613 312.623 126.524 312.098 126.524C311.573 126.524 311.195 126.617 310.964 126.804C310.741 126.991 310.63 127.303 310.63 127.739V127.939H309.242V127.805C309.242 127.307 309.362 126.867 309.602 126.484C309.851 126.101 310.194 125.803 310.63 125.59C311.075 125.367 311.591 125.256 312.178 125.256C312.801 125.256 313.317 125.372 313.727 125.603C314.136 125.834 314.443 126.155 314.648 126.564C314.861 126.964 314.968 127.441 314.968 127.992V132.023ZM311.164 132.157C310.568 132.157 310.065 132.006 309.656 131.703C309.255 131.392 309.055 130.951 309.055 130.382C309.055 130.008 309.139 129.696 309.308 129.447C309.486 129.198 309.74 128.993 310.069 128.833C310.399 128.673 310.799 128.562 311.271 128.499L313.727 128.152V129.167L311.484 129.501C311.102 129.554 310.835 129.634 310.683 129.741C310.532 129.848 310.456 130.026 310.456 130.275C310.456 130.533 310.545 130.72 310.723 130.835C310.91 130.951 311.213 131.009 311.631 131.009C311.951 131.009 312.258 130.96 312.552 130.862C312.855 130.755 313.104 130.582 313.3 130.342C313.495 130.092 313.593 129.745 313.593 129.3L313.78 130.996L313.567 130.982C313.442 131.187 313.268 131.378 313.046 131.556C312.832 131.734 312.57 131.881 312.258 131.997C311.947 132.104 311.582 132.157 311.164 132.157ZM319.047 132.023C318.317 132.023 317.756 131.868 317.365 131.556C316.982 131.245 316.791 130.72 316.791 129.981V125.536L317.125 123.747H318.233V129.914C318.233 130.261 318.317 130.484 318.486 130.582C318.664 130.671 318.98 130.715 319.434 130.715H320.235V131.903C320.101 131.939 319.928 131.97 319.714 131.997C319.501 132.015 319.278 132.023 319.047 132.023ZM320.235 126.591H315.683V125.389H320.235V126.591ZM322.52 124.548H321.092L321.078 123.08H322.52V124.548ZM322.533 132.023H321.092V125.349H322.533V132.023ZM326.835 132.157C326.159 132.157 325.572 132.015 325.073 131.73C324.575 131.436 324.192 131.031 323.925 130.515C323.658 129.99 323.525 129.385 323.525 128.7C323.525 128.014 323.658 127.414 323.925 126.898C324.192 126.382 324.575 125.981 325.073 125.696C325.572 125.403 326.159 125.256 326.835 125.256C327.512 125.256 328.09 125.403 328.571 125.696C329.06 125.981 329.434 126.382 329.692 126.898C329.959 127.414 330.092 128.014 330.092 128.7C330.092 129.385 329.959 129.99 329.692 130.515C329.434 131.031 329.06 131.436 328.571 131.73C328.09 132.015 327.512 132.157 326.835 132.157ZM326.835 130.875C327.529 130.875 328.014 130.702 328.29 130.355C328.566 129.999 328.704 129.447 328.704 128.7C328.704 127.952 328.566 127.405 328.29 127.058C328.014 126.711 327.529 126.537 326.835 126.537C326.132 126.537 325.643 126.711 325.367 127.058C325.091 127.405 324.953 127.952 324.953 128.7C324.953 129.447 325.091 129.999 325.367 130.355C325.643 130.702 326.132 130.875 326.835 130.875ZM337.35 132.023H335.909V128.166C335.909 127.578 335.797 127.156 335.575 126.898C335.352 126.631 334.934 126.497 334.32 126.497C333.929 126.497 333.608 126.555 333.359 126.671C333.11 126.778 332.923 126.956 332.798 127.205C332.674 127.445 332.612 127.774 332.612 128.192H332.358L332.238 126.631H332.558C332.656 126.39 332.803 126.168 332.999 125.963C333.194 125.759 333.444 125.59 333.746 125.456C334.058 125.323 334.427 125.256 334.854 125.256C335.432 125.256 335.904 125.367 336.269 125.59C336.634 125.812 336.905 126.119 337.083 126.511C337.261 126.902 337.35 127.352 337.35 127.859V132.023ZM332.612 132.023H331.17V125.389H332.491V127.378L332.612 127.445V132.023ZM341.481 132.157C340.511 132.157 339.777 131.966 339.279 131.583C338.78 131.191 338.531 130.591 338.531 129.781V129.754H339.919V129.994C339.919 130.226 339.964 130.417 340.053 130.568C340.151 130.711 340.311 130.818 340.533 130.889C340.765 130.951 341.09 130.982 341.508 130.982C341.864 130.982 342.131 130.956 342.309 130.902C342.496 130.84 342.62 130.755 342.683 130.649C342.745 130.542 342.776 130.408 342.776 130.248C342.776 129.981 342.683 129.794 342.496 129.687C342.309 129.572 341.975 129.469 341.495 129.38L340.453 129.207C340.062 129.127 339.719 129.016 339.426 128.873C339.141 128.722 338.918 128.517 338.758 128.259C338.607 127.992 338.531 127.659 338.531 127.258C338.531 126.662 338.767 126.181 339.239 125.816C339.71 125.443 340.378 125.256 341.241 125.256C341.766 125.256 342.233 125.34 342.642 125.509C343.052 125.679 343.377 125.932 343.617 126.27C343.857 126.608 343.977 127.031 343.977 127.538V127.659H342.602V127.498C342.602 127.285 342.567 127.102 342.496 126.951C342.424 126.791 342.291 126.666 342.095 126.577C341.899 126.488 341.601 126.444 341.201 126.444C340.676 126.444 340.329 126.511 340.16 126.644C339.991 126.778 339.906 126.973 339.906 127.231C339.906 127.489 339.982 127.672 340.133 127.779C340.293 127.877 340.605 127.974 341.067 128.072L342.202 128.286C342.629 128.366 342.985 128.486 343.27 128.646C343.555 128.806 343.768 129.016 343.911 129.274C344.062 129.532 344.137 129.839 344.137 130.195C344.137 130.818 343.902 131.303 343.43 131.65C342.967 131.988 342.318 132.157 341.481 132.157ZM351.767 132.157C350.904 132.157 350.157 131.97 349.525 131.596C348.902 131.214 348.421 130.68 348.083 129.994C347.754 129.3 347.589 128.486 347.589 127.552C347.589 126.617 347.754 125.808 348.083 125.122C348.421 124.428 348.902 123.894 349.525 123.521C350.157 123.138 350.904 122.947 351.767 122.947C352.577 122.947 353.267 123.089 353.836 123.374C354.406 123.658 354.846 124.059 355.158 124.575C355.469 125.091 355.625 125.71 355.625 126.43V126.511H354.103V126.43C354.103 125.701 353.916 125.171 353.543 124.842C353.178 124.504 352.573 124.335 351.727 124.335C351.113 124.335 350.615 124.442 350.232 124.655C349.85 124.869 349.569 125.211 349.391 125.683C349.213 126.155 349.124 126.778 349.124 127.552C349.124 128.317 349.213 128.94 349.391 129.421C349.569 129.892 349.85 130.235 350.232 130.448C350.615 130.653 351.113 130.755 351.727 130.755C352.573 130.755 353.178 130.591 353.543 130.261C353.916 129.932 354.103 129.403 354.103 128.673V128.593H355.625V128.673C355.625 129.385 355.469 130.003 355.158 130.528C354.846 131.045 354.406 131.445 353.836 131.73C353.267 132.015 352.577 132.157 351.767 132.157ZM358.291 132.023H356.85V123.08H358.291V132.023ZM362.696 132.157C362.019 132.157 361.432 132.015 360.934 131.73C360.435 131.436 360.053 131.031 359.786 130.515C359.519 129.99 359.385 129.385 359.385 128.7C359.385 128.014 359.519 127.414 359.786 126.898C360.053 126.382 360.435 125.981 360.934 125.696C361.432 125.403 362.019 125.256 362.696 125.256C363.372 125.256 363.951 125.403 364.431 125.696C364.921 125.981 365.294 126.382 365.552 126.898C365.819 127.414 365.953 128.014 365.953 128.7C365.953 129.385 365.819 129.99 365.552 130.515C365.294 131.031 364.921 131.436 364.431 131.73C363.951 132.015 363.372 132.157 362.696 132.157ZM362.696 130.875C363.39 130.875 363.875 130.702 364.151 130.355C364.427 129.999 364.565 129.447 364.565 128.7C364.565 127.952 364.427 127.405 364.151 127.058C363.875 126.711 363.39 126.537 362.696 126.537C361.993 126.537 361.503 126.711 361.227 127.058C360.952 127.405 360.814 127.952 360.814 128.7C360.814 129.447 360.952 129.999 361.227 130.355C361.503 130.702 361.993 130.875 362.696 130.875ZM369.885 132.157C368.915 132.157 368.181 131.966 367.683 131.583C367.185 131.191 366.935 130.591 366.935 129.781V129.754H368.324V129.994C368.324 130.226 368.368 130.417 368.457 130.568C368.555 130.711 368.715 130.818 368.938 130.889C369.169 130.951 369.494 130.982 369.912 130.982C370.268 130.982 370.535 130.956 370.713 130.902C370.9 130.84 371.024 130.755 371.087 130.649C371.149 130.542 371.18 130.408 371.18 130.248C371.18 129.981 371.087 129.794 370.9 129.687C370.713 129.572 370.379 129.469 369.899 129.38L368.858 129.207C368.466 129.127 368.123 129.016 367.83 128.873C367.545 128.722 367.323 128.517 367.162 128.259C367.011 127.992 366.935 127.659 366.935 127.258C366.935 126.662 367.171 126.181 367.643 125.816C368.115 125.443 368.782 125.256 369.645 125.256C370.17 125.256 370.637 125.34 371.047 125.509C371.456 125.679 371.781 125.932 372.021 126.27C372.261 126.608 372.382 127.031 372.382 127.538V127.659H371.007V127.498C371.007 127.285 370.971 127.102 370.9 126.951C370.829 126.791 370.695 126.666 370.499 126.577C370.304 126.488 370.006 126.444 369.605 126.444C369.08 126.444 368.733 126.511 368.564 126.644C368.395 126.778 368.31 126.973 368.31 127.231C368.31 127.489 368.386 127.672 368.537 127.779C368.697 127.877 369.009 127.974 369.472 128.072L370.606 128.286C371.033 128.366 371.389 128.486 371.674 128.646C371.959 128.806 372.172 129.016 372.315 129.274C372.466 129.532 372.542 129.839 372.542 130.195C372.542 130.818 372.306 131.303 371.834 131.65C371.372 131.988 370.722 132.157 369.885 132.157ZM376.655 132.157C375.934 132.157 375.333 132.015 374.853 131.73C374.372 131.436 374.016 131.031 373.785 130.515C373.553 129.99 373.438 129.385 373.438 128.7C373.438 128.014 373.567 127.414 373.825 126.898C374.092 126.382 374.465 125.981 374.946 125.696C375.427 125.403 375.996 125.256 376.655 125.256C377.251 125.256 377.776 125.372 378.23 125.603C378.692 125.825 379.048 126.15 379.298 126.577C379.556 127.004 379.685 127.521 379.685 128.126C379.685 128.304 379.676 128.477 379.658 128.646C379.649 128.806 379.636 128.94 379.618 129.047H374.118V128.086H378.443L378.296 128.219C378.332 127.81 378.288 127.476 378.163 127.218C378.047 126.96 377.856 126.769 377.589 126.644C377.331 126.519 377.006 126.457 376.615 126.457C375.912 126.457 375.431 126.635 375.173 126.991C374.915 127.338 374.786 127.819 374.786 128.433V128.833C374.786 129.278 374.839 129.656 374.946 129.968C375.062 130.27 375.257 130.497 375.533 130.649C375.809 130.8 376.187 130.875 376.668 130.875C377.229 130.875 377.625 130.786 377.856 130.609C378.087 130.431 378.203 130.195 378.203 129.901V129.794H379.631V129.914C379.631 130.368 379.507 130.764 379.258 131.102C379.008 131.432 378.661 131.69 378.216 131.877C377.78 132.063 377.26 132.157 376.655 132.157Z" fill="#3F3F46"/>
<rect width="128" height="20" transform="translate(1166 67.0234)" fill="white"/>
<path d="M1167.32 82.0234V72.0293H1168.95V80.6221H1173.18V82.0234H1167.32ZM1179.47 82.0234L1179.15 80.9707H1179.09C1178.73 81.431 1178.36 81.7454 1177.99 81.9141C1177.62 82.0781 1177.15 82.1602 1176.57 82.1602C1175.83 82.1602 1175.24 81.9596 1174.83 81.5586C1174.41 81.1576 1174.2 80.5902 1174.2 79.8564C1174.2 79.0771 1174.49 78.4893 1175.07 78.0928C1175.65 77.6963 1176.53 77.4798 1177.72 77.4434L1179.02 77.4023V76.999C1179.02 76.516 1178.91 76.1559 1178.68 75.9189C1178.46 75.6774 1178.11 75.5566 1177.63 75.5566C1177.25 75.5566 1176.88 75.6136 1176.52 75.7275C1176.17 75.8415 1175.82 75.9759 1175.5 76.1309L1174.98 74.9824C1175.39 74.7682 1175.83 74.6064 1176.32 74.4971C1176.81 74.3831 1177.27 74.3262 1177.7 74.3262C1178.66 74.3262 1179.39 74.5358 1179.88 74.9551C1180.37 75.3743 1180.62 76.0329 1180.62 76.9307V82.0234H1179.47ZM1177.07 80.9297C1177.66 80.9297 1178.12 80.7679 1178.48 80.4443C1178.83 80.1162 1179.01 79.6582 1179.01 79.0703V78.4141L1178.04 78.4551C1177.28 78.4824 1176.73 78.61 1176.38 78.8379C1176.04 79.0612 1175.87 79.4053 1175.87 79.8701C1175.87 80.2074 1175.97 80.4694 1176.17 80.6562C1176.37 80.8385 1176.67 80.9297 1177.07 80.9297ZM1187.94 79.8701C1187.94 80.6084 1187.67 81.1758 1187.13 81.5723C1186.59 81.9642 1185.82 82.1602 1184.82 82.1602C1183.81 82.1602 1183 82.0075 1182.39 81.7021V80.3145C1183.28 80.7246 1184.11 80.9297 1184.87 80.9297C1185.86 80.9297 1186.36 80.6312 1186.36 80.0342C1186.36 79.8428 1186.3 79.6833 1186.19 79.5557C1186.08 79.4281 1185.9 79.2959 1185.65 79.1592C1185.4 79.0225 1185.05 78.8675 1184.61 78.6943C1183.74 78.3571 1183.15 78.0199 1182.84 77.6826C1182.53 77.3454 1182.38 76.9079 1182.38 76.3701C1182.38 75.723 1182.64 75.2217 1183.16 74.8662C1183.68 74.5062 1184.39 74.3262 1185.29 74.3262C1186.18 74.3262 1187.02 74.5062 1187.81 74.8662L1187.29 76.0762C1186.48 75.7389 1185.79 75.5703 1185.24 75.5703C1184.39 75.5703 1183.96 75.8118 1183.96 76.2949C1183.96 76.5319 1184.07 76.7324 1184.29 76.8965C1184.52 77.0605 1185 77.2861 1185.74 77.5732C1186.37 77.8148 1186.82 78.0358 1187.1 78.2363C1187.39 78.4368 1187.59 78.6693 1187.73 78.9336C1187.87 79.1934 1187.94 79.5055 1187.94 79.8701ZM1192.5 80.8613C1192.89 80.8613 1193.28 80.7998 1193.67 80.6768V81.8867C1193.49 81.9642 1193.26 82.028 1192.98 82.0781C1192.7 82.1328 1192.41 82.1602 1192.11 82.1602C1190.59 82.1602 1189.83 81.3581 1189.83 79.7539V75.6797H1188.8V74.9688L1189.91 74.3809L1190.45 72.7812H1191.44V74.4629H1193.6V75.6797H1191.44V79.7266C1191.44 80.1139 1191.54 80.401 1191.73 80.5879C1191.93 80.7702 1192.18 80.8613 1192.5 80.8613ZM1200.62 82.0234H1199V72.0293H1204.64V73.4102H1200.62V76.5342H1204.38V77.9219H1200.62V82.0234ZM1209.58 82.1602C1208.4 82.1602 1207.48 81.8184 1206.82 81.1348C1206.16 80.4466 1205.83 79.501 1205.83 78.2979C1205.83 77.0628 1206.13 76.0921 1206.75 75.3857C1207.36 74.6794 1208.21 74.3262 1209.29 74.3262C1210.28 74.3262 1211.07 74.6292 1211.65 75.2354C1212.23 75.8415 1212.52 76.6755 1212.52 77.7373V78.6055H1207.48C1207.5 79.3392 1207.7 79.9043 1208.08 80.3008C1208.45 80.6927 1208.98 80.8887 1209.65 80.8887C1210.1 80.8887 1210.52 80.8477 1210.9 80.7656C1211.29 80.679 1211.7 80.5378 1212.14 80.3418V81.6475C1211.75 81.8343 1211.35 81.9665 1210.95 82.0439C1210.55 82.1214 1210.09 82.1602 1209.58 82.1602ZM1209.29 75.543C1208.77 75.543 1208.36 75.7048 1208.05 76.0283C1207.75 76.3519 1207.57 76.8236 1207.51 77.4434H1210.94C1210.93 76.819 1210.78 76.3473 1210.49 76.0283C1210.2 75.7048 1209.8 75.543 1209.29 75.543ZM1220.54 82.0234L1219.57 78.4961C1219.45 78.1224 1219.23 77.2542 1218.92 75.8916H1218.86C1218.6 77.1221 1218.39 77.9948 1218.23 78.5098L1217.23 82.0234H1215.45L1213.33 74.4629H1214.97L1215.94 78.1885C1216.16 79.109 1216.31 79.8975 1216.4 80.5537H1216.44C1216.49 80.221 1216.56 79.8405 1216.65 79.4121C1216.74 78.9792 1216.83 78.6556 1216.89 78.4414L1218.04 74.4629H1219.81L1220.92 78.4414C1220.99 78.6647 1221.07 79.0065 1221.17 79.4668C1221.28 79.9271 1221.34 80.2848 1221.36 80.54H1221.41C1221.48 79.9795 1221.64 79.1956 1221.89 78.1885L1222.87 74.4629H1224.48L1222.35 82.0234H1220.54ZM1236.21 75.0508C1236.21 76.0944 1235.87 76.8942 1235.19 77.4502C1234.5 78.0062 1233.53 78.2842 1232.27 78.2842H1231.23V82.0234H1229.59V72.0293H1232.47C1233.72 72.0293 1234.66 72.2845 1235.28 72.7949C1235.9 73.3053 1236.21 74.0573 1236.21 75.0508ZM1231.23 76.9102H1232.1C1232.94 76.9102 1233.55 76.7643 1233.94 76.4727C1234.33 76.181 1234.53 75.7253 1234.53 75.1055C1234.53 74.5312 1234.35 74.1029 1234 73.8203C1233.65 73.5378 1233.11 73.3965 1232.36 73.3965H1231.23V76.9102ZM1241.87 74.3262C1242.2 74.3262 1242.46 74.349 1242.67 74.3945L1242.51 75.8916C1242.29 75.8369 1242.05 75.8096 1241.8 75.8096C1241.16 75.8096 1240.64 76.0192 1240.24 76.4385C1239.84 76.8577 1239.64 77.4023 1239.64 78.0723V82.0234H1238.04V74.4629H1239.29L1239.51 75.7959H1239.59C1239.84 75.3447 1240.17 74.987 1240.57 74.7227C1240.97 74.4583 1241.41 74.3262 1241.87 74.3262ZM1250.79 78.2295C1250.79 79.4645 1250.47 80.4284 1249.84 81.1211C1249.2 81.8138 1248.32 82.1602 1247.19 82.1602C1246.48 82.1602 1245.86 82.0007 1245.32 81.6816C1244.78 81.3626 1244.36 80.9046 1244.07 80.3076C1243.77 79.7106 1243.63 79.0179 1243.63 78.2295C1243.63 77.0036 1243.94 76.0465 1244.57 75.3584C1245.2 74.6702 1246.09 74.3262 1247.23 74.3262C1248.33 74.3262 1249.19 74.6794 1249.83 75.3857C1250.47 76.0876 1250.79 77.0355 1250.79 78.2295ZM1245.28 78.2295C1245.28 79.9749 1245.93 80.8477 1247.22 80.8477C1248.49 80.8477 1249.13 79.9749 1249.13 78.2295C1249.13 76.5023 1248.49 75.6387 1247.2 75.6387C1246.53 75.6387 1246.04 75.862 1245.73 76.3086C1245.43 76.7552 1245.28 77.3955 1245.28 78.2295ZM1259.02 74.4629V75.3447L1257.73 75.584C1257.85 75.7435 1257.95 75.9395 1258.03 76.1719C1258.1 76.4043 1258.14 76.6504 1258.14 76.9102C1258.14 77.6895 1257.87 78.3024 1257.33 78.749C1256.8 79.1956 1256.06 79.4189 1255.11 79.4189C1254.87 79.4189 1254.65 79.4007 1254.46 79.3643C1254.11 79.5785 1253.94 79.8291 1253.94 80.1162C1253.94 80.2894 1254.02 80.4193 1254.18 80.5059C1254.34 80.5924 1254.64 80.6357 1255.07 80.6357H1256.39C1257.23 80.6357 1257.86 80.8135 1258.29 81.1689C1258.72 81.5244 1258.94 82.0371 1258.94 82.707C1258.94 83.5638 1258.59 84.2246 1257.88 84.6895C1257.18 85.1543 1256.15 85.3867 1254.82 85.3867C1253.79 85.3867 1253 85.2044 1252.46 84.8398C1251.92 84.4753 1251.65 83.9557 1251.65 83.2812C1251.65 82.8164 1251.79 82.4245 1252.08 82.1055C1252.38 81.791 1252.79 81.5723 1253.32 81.4492C1253.11 81.3581 1252.93 81.2122 1252.79 81.0117C1252.65 80.8066 1252.58 80.5924 1252.58 80.3691C1252.58 80.0866 1252.66 79.8473 1252.82 79.6514C1252.98 79.4554 1253.22 79.2617 1253.53 79.0703C1253.14 78.9017 1252.82 78.6283 1252.58 78.25C1252.34 77.8672 1252.21 77.4206 1252.21 76.9102C1252.21 76.0898 1252.47 75.4541 1252.99 75.0029C1253.51 74.5518 1254.25 74.3262 1255.2 74.3262C1255.42 74.3262 1255.64 74.3421 1255.87 74.374C1256.11 74.4014 1256.29 74.431 1256.41 74.4629H1259.02ZM1253.08 83.1992C1253.08 83.5456 1253.24 83.8122 1253.55 83.999C1253.86 84.1859 1254.3 84.2793 1254.87 84.2793C1255.74 84.2793 1256.39 84.154 1256.82 83.9033C1257.25 83.6527 1257.46 83.32 1257.46 82.9053C1257.46 82.5771 1257.35 82.3424 1257.11 82.2012C1256.88 82.0645 1256.44 81.9961 1255.8 81.9961H1254.59C1254.13 81.9961 1253.76 82.1032 1253.49 82.3174C1253.22 82.5361 1253.08 82.8301 1253.08 83.1992ZM1253.77 76.9102C1253.77 77.3841 1253.89 77.7487 1254.14 78.0039C1254.38 78.2591 1254.73 78.3867 1255.19 78.3867C1256.12 78.3867 1256.58 77.89 1256.58 76.8965C1256.58 76.4043 1256.47 76.026 1256.23 75.7617C1256.01 75.4928 1255.66 75.3584 1255.19 75.3584C1254.72 75.3584 1254.37 75.4906 1254.13 75.7549C1253.89 76.0192 1253.77 76.4043 1253.77 76.9102ZM1264.27 74.3262C1264.59 74.3262 1264.86 74.349 1265.07 74.3945L1264.91 75.8916C1264.68 75.8369 1264.44 75.8096 1264.2 75.8096C1263.56 75.8096 1263.03 76.0192 1262.63 76.4385C1262.24 76.8577 1262.04 77.4023 1262.04 78.0723V82.0234H1260.43V74.4629H1261.69L1261.9 75.7959H1261.98C1262.23 75.3447 1262.56 74.987 1262.96 74.7227C1263.37 74.4583 1263.8 74.3262 1264.27 74.3262ZM1271.21 82.0234L1270.88 80.9707H1270.83C1270.46 81.431 1270.1 81.7454 1269.73 81.9141C1269.36 82.0781 1268.89 82.1602 1268.31 82.1602C1267.56 82.1602 1266.98 81.9596 1266.56 81.5586C1266.15 81.1576 1265.94 80.5902 1265.94 79.8564C1265.94 79.0771 1266.23 78.4893 1266.81 78.0928C1267.39 77.6963 1268.27 77.4798 1269.46 77.4434L1270.76 77.4023V76.999C1270.76 76.516 1270.65 76.1559 1270.42 75.9189C1270.2 75.6774 1269.85 75.5566 1269.37 75.5566C1268.99 75.5566 1268.61 75.6136 1268.26 75.7275C1267.9 75.8415 1267.56 75.9759 1267.23 76.1309L1266.71 74.9824C1267.12 74.7682 1267.57 74.6064 1268.06 74.4971C1268.55 74.3831 1269.01 74.3262 1269.44 74.3262C1270.4 74.3262 1271.13 74.5358 1271.62 74.9551C1272.11 75.3743 1272.35 76.0329 1272.35 76.9307V82.0234H1271.21ZM1268.81 80.9297C1269.4 80.9297 1269.86 80.7679 1270.21 80.4443C1270.57 80.1162 1270.75 79.6582 1270.75 79.0703V78.4141L1269.78 78.4551C1269.02 78.4824 1268.47 78.61 1268.12 78.8379C1267.78 79.0612 1267.61 79.4053 1267.61 79.8701C1267.61 80.2074 1267.71 80.4694 1267.91 80.6562C1268.11 80.8385 1268.41 80.9297 1268.81 80.9297ZM1280.97 82.0234H1279.35V77.3613C1279.35 76.7826 1279.24 76.3519 1279.03 76.0693C1278.81 75.7822 1278.46 75.6387 1278 75.6387C1277.38 75.6387 1276.92 75.8415 1276.63 76.2471C1276.35 76.6481 1276.2 77.318 1276.2 78.2568V82.0234H1274.6V74.4629H1275.85L1276.08 75.4541H1276.16C1276.37 75.0941 1276.67 74.8161 1277.07 74.6201C1277.47 74.4242 1277.91 74.3262 1278.39 74.3262C1279.55 74.3262 1280.32 74.7227 1280.7 75.5156H1280.81C1281.03 75.1419 1281.35 74.8503 1281.75 74.6406C1282.16 74.431 1282.62 74.3262 1283.15 74.3262C1284.05 74.3262 1284.71 74.554 1285.12 75.0098C1285.53 75.4655 1285.74 76.1605 1285.74 77.0947V82.0234H1284.13V77.3613C1284.13 76.7826 1284.02 76.3519 1283.8 76.0693C1283.58 75.7822 1283.24 75.6387 1282.77 75.6387C1282.15 75.6387 1281.69 75.8346 1281.4 76.2266C1281.11 76.6139 1280.97 77.2109 1280.97 78.0176V82.0234ZM1293.06 79.8701C1293.06 80.6084 1292.79 81.1758 1292.25 81.5723C1291.72 81.9642 1290.94 82.1602 1289.94 82.1602C1288.94 82.1602 1288.13 82.0075 1287.52 81.7021V80.3145C1288.4 80.7246 1289.23 80.9297 1290 80.9297C1290.99 80.9297 1291.48 80.6312 1291.48 80.0342C1291.48 79.8428 1291.43 79.6833 1291.32 79.5557C1291.21 79.4281 1291.03 79.2959 1290.78 79.1592C1290.53 79.0225 1290.18 78.8675 1289.73 78.6943C1288.86 78.3571 1288.27 78.0199 1287.96 77.6826C1287.65 77.3454 1287.5 76.9079 1287.5 76.3701C1287.5 75.723 1287.76 75.2217 1288.28 74.8662C1288.81 74.5062 1289.52 74.3262 1290.41 74.3262C1291.3 74.3262 1292.14 74.5062 1292.94 74.8662L1292.42 76.0762C1291.6 75.7389 1290.92 75.5703 1290.36 75.5703C1289.51 75.5703 1289.09 75.8118 1289.09 76.2949C1289.09 76.5319 1289.2 76.7324 1289.42 76.8965C1289.64 77.0605 1290.12 77.2861 1290.87 77.5732C1291.49 77.8148 1291.94 78.0358 1292.23 78.2363C1292.51 78.4368 1292.72 78.6693 1292.85 78.9336C1292.99 79.1934 1293.06 79.5055 1293.06 79.8701Z" fill="#3F3F46"/>
<circle cx="1302.34" cy="33.6825" r="7.53534" stroke="#213147" stroke-width="1.61472"/>
<circle cx="1302.34" cy="33.6828" r="5.6515" fill="#213147"/>
<path d="M1302.34 42.0234L1302.34 87.0234" stroke="#213147" stroke-width="0.667416"/>
<circle cx="785.343" cy="33.6825" r="7.53534" stroke="#213147" stroke-width="1.61472"/>
<circle cx="785.345" cy="33.6828" r="5.6515" fill="#213147"/>
<path d="M785.342 42.0234L785.342 139.023" stroke="#213147" stroke-width="0.667416"/>
<path d="M798.237 131.14H794.98V129.845H798.411C798.998 129.845 799.416 129.716 799.666 129.458C799.924 129.2 800.053 128.751 800.053 128.11C800.053 127.469 799.924 127.02 799.666 126.762C799.416 126.504 798.998 126.375 798.411 126.375H794.98V125.08H798.237C798.86 125.08 799.416 125.2 799.906 125.44C800.395 125.681 800.778 126.028 801.054 126.482C801.339 126.927 801.481 127.469 801.481 128.11C801.481 128.751 801.339 129.298 801.054 129.752C800.778 130.206 800.395 130.553 799.906 130.793C799.416 131.025 798.86 131.14 798.237 131.14ZM795.875 134.023H794.433V125.08H795.875V134.023ZM803.878 134.023H802.436V127.349H803.757V129.205L803.878 129.271V134.023ZM803.878 129.699H803.544V128.404H803.824C803.958 128.092 804.176 127.825 804.478 127.603C804.79 127.372 805.19 127.256 805.68 127.256C806.151 127.256 806.525 127.358 806.801 127.563C807.086 127.768 807.29 128.039 807.415 128.377C807.539 128.715 807.602 129.093 807.602 129.512V129.952H806.16V129.685C806.16 129.24 806.084 128.929 805.933 128.751C805.782 128.573 805.497 128.484 805.079 128.484C804.643 128.484 804.331 128.577 804.144 128.764C803.966 128.942 803.878 129.254 803.878 129.699ZM811.567 134.157C810.891 134.157 810.303 134.015 809.805 133.73C809.307 133.436 808.924 133.031 808.657 132.515C808.39 131.99 808.256 131.385 808.256 130.7C808.256 130.014 808.39 129.414 808.657 128.898C808.924 128.382 809.307 127.981 809.805 127.696C810.303 127.403 810.891 127.256 811.567 127.256C812.243 127.256 812.822 127.403 813.302 127.696C813.792 127.981 814.165 128.382 814.423 128.898C814.69 129.414 814.824 130.014 814.824 130.7C814.824 131.385 814.69 131.99 814.423 132.515C814.165 133.031 813.792 133.436 813.302 133.73C812.822 134.015 812.243 134.157 811.567 134.157ZM811.567 132.875C812.261 132.875 812.746 132.702 813.022 132.355C813.298 131.999 813.436 131.447 813.436 130.7C813.436 129.952 813.298 129.405 813.022 129.058C812.746 128.711 812.261 128.537 811.567 128.537C810.864 128.537 810.374 128.711 810.099 129.058C809.823 129.405 809.685 129.952 809.685 130.7C809.685 131.447 809.823 131.999 810.099 132.355C810.374 132.702 810.864 132.875 811.567 132.875ZM819.104 136.426C818.481 136.426 817.938 136.328 817.475 136.132C817.021 135.937 816.67 135.652 816.421 135.278C816.171 134.913 816.047 134.464 816.047 133.93H817.488C817.488 134.233 817.533 134.473 817.622 134.651C817.711 134.829 817.876 134.953 818.116 135.025C818.356 135.105 818.699 135.145 819.144 135.145C819.58 135.145 819.913 135.096 820.145 134.998C820.376 134.9 820.536 134.735 820.625 134.504C820.714 134.273 820.759 133.952 820.759 133.543V129.138L820.866 128.964V127.389H822.2V133.543C822.2 134.193 822.076 134.726 821.827 135.145C821.577 135.572 821.221 135.892 820.759 136.106C820.305 136.319 819.753 136.426 819.104 136.426ZM818.543 133.396C817.626 133.396 816.923 133.12 816.434 132.568C815.944 132.008 815.7 131.26 815.7 130.326C815.7 129.392 815.949 128.649 816.447 128.097C816.946 127.536 817.662 127.256 818.596 127.256C819.139 127.256 819.606 127.367 819.998 127.59C820.389 127.803 820.661 128.101 820.812 128.484H821.079L821.012 130.112H820.759C820.759 129.739 820.683 129.432 820.532 129.191C820.381 128.951 820.167 128.773 819.891 128.657C819.615 128.542 819.295 128.484 818.93 128.484C818.512 128.484 818.169 128.542 817.902 128.657C817.644 128.773 817.453 128.969 817.328 129.245C817.204 129.512 817.141 129.872 817.141 130.326C817.141 130.664 817.177 130.953 817.248 131.194C817.319 131.425 817.431 131.612 817.582 131.754C817.733 131.897 817.924 132.003 818.156 132.075C818.387 132.137 818.654 132.168 818.957 132.168C819.322 132.168 819.637 132.11 819.904 131.994C820.171 131.87 820.381 131.687 820.532 131.447C820.683 131.207 820.759 130.9 820.759 130.526H821.052V132.221H820.705C820.554 132.542 820.292 132.818 819.918 133.049C819.544 133.28 819.086 133.396 818.543 133.396ZM825.06 134.023H823.619V127.349H824.94V129.205L825.06 129.271V134.023ZM825.06 129.699H824.726V128.404H825.007C825.14 128.092 825.358 127.825 825.661 127.603C825.972 127.372 826.373 127.256 826.862 127.256C827.334 127.256 827.708 127.358 827.983 127.563C828.268 127.768 828.473 128.039 828.597 128.377C828.722 128.715 828.784 129.093 828.784 129.512V129.952H827.343V129.685C827.343 129.24 827.267 128.929 827.116 128.751C826.964 128.573 826.68 128.484 826.261 128.484C825.825 128.484 825.514 128.577 825.327 128.764C825.149 128.942 825.06 129.254 825.06 129.699ZM835.169 134.023H833.834V132.715L833.794 132.355V129.805C833.794 129.307 833.674 128.969 833.434 128.791C833.203 128.613 832.824 128.524 832.299 128.524C831.774 128.524 831.396 128.617 831.165 128.804C830.942 128.991 830.831 129.303 830.831 129.739V129.939H829.443V129.805C829.443 129.307 829.563 128.867 829.803 128.484C830.052 128.101 830.395 127.803 830.831 127.59C831.276 127.367 831.792 127.256 832.379 127.256C833.002 127.256 833.519 127.372 833.928 127.603C834.337 127.834 834.644 128.155 834.849 128.564C835.063 128.964 835.169 129.441 835.169 129.992V134.023ZM831.365 134.157C830.769 134.157 830.266 134.006 829.857 133.703C829.456 133.392 829.256 132.951 829.256 132.382C829.256 132.008 829.341 131.696 829.51 131.447C829.688 131.198 829.941 130.993 830.27 130.833C830.6 130.673 831 130.562 831.472 130.499L833.928 130.152V131.167L831.685 131.501C831.303 131.554 831.036 131.634 830.884 131.741C830.733 131.848 830.658 132.026 830.658 132.275C830.658 132.533 830.747 132.72 830.925 132.835C831.111 132.951 831.414 133.009 831.832 133.009C832.153 133.009 832.46 132.96 832.753 132.862C833.056 132.755 833.305 132.582 833.501 132.342C833.697 132.092 833.794 131.745 833.794 131.3L833.981 132.996L833.768 132.982C833.643 133.187 833.47 133.378 833.247 133.556C833.034 133.734 832.771 133.881 832.46 133.997C832.148 134.104 831.783 134.157 831.365 134.157ZM847.202 134.023H845.76V130.166C845.76 129.578 845.649 129.156 845.426 128.898C845.213 128.631 844.803 128.497 844.198 128.497C843.655 128.497 843.251 128.626 842.984 128.884C842.726 129.134 842.596 129.561 842.596 130.166L842.343 130.192L842.223 128.631H842.436C842.543 128.399 842.69 128.181 842.877 127.977C843.073 127.763 843.322 127.59 843.624 127.456C843.927 127.323 844.296 127.256 844.732 127.256C845.311 127.256 845.778 127.367 846.134 127.59C846.499 127.812 846.766 128.119 846.935 128.511C847.113 128.902 847.202 129.352 847.202 129.859V134.023ZM837.991 134.023H836.55V127.389H837.871V129.378L837.991 129.445V134.023ZM842.596 134.023H841.155V130.166C841.155 129.578 841.044 129.156 840.821 128.898C840.608 128.631 840.198 128.497 839.593 128.497C839.05 128.497 838.645 128.622 838.378 128.871C838.12 129.12 837.991 129.547 837.991 130.152L837.738 130.192L837.618 128.631H837.938C838.036 128.39 838.178 128.168 838.365 127.963C838.561 127.759 838.81 127.59 839.113 127.456C839.415 127.323 839.776 127.256 840.194 127.256C840.754 127.256 841.208 127.367 841.555 127.59C841.911 127.812 842.174 128.119 842.343 128.511C842.512 128.902 842.596 129.352 842.596 129.859V134.023ZM851.332 134.157C850.362 134.157 849.628 133.966 849.13 133.583C848.631 133.191 848.382 132.591 848.382 131.781V131.754H849.77V131.994C849.77 132.226 849.815 132.417 849.904 132.568C850.002 132.711 850.162 132.818 850.384 132.889C850.616 132.951 850.941 132.982 851.359 132.982C851.715 132.982 851.982 132.956 852.16 132.902C852.347 132.84 852.471 132.755 852.533 132.649C852.596 132.542 852.627 132.408 852.627 132.248C852.627 131.981 852.533 131.794 852.347 131.687C852.16 131.572 851.826 131.469 851.345 131.38L850.304 131.207C849.913 131.127 849.57 131.016 849.276 130.873C848.992 130.722 848.769 130.517 848.609 130.259C848.458 129.992 848.382 129.659 848.382 129.258C848.382 128.662 848.618 128.181 849.09 127.816C849.561 127.443 850.229 127.256 851.092 127.256C851.617 127.256 852.084 127.34 852.493 127.509C852.903 127.679 853.228 127.932 853.468 128.27C853.708 128.608 853.828 129.031 853.828 129.538V129.659H852.453V129.498C852.453 129.285 852.418 129.102 852.347 128.951C852.275 128.791 852.142 128.666 851.946 128.577C851.75 128.488 851.452 128.444 851.052 128.444C850.527 128.444 850.18 128.511 850.011 128.644C849.842 128.778 849.757 128.973 849.757 129.231C849.757 129.489 849.833 129.672 849.984 129.779C850.144 129.877 850.456 129.974 850.918 130.072L852.053 130.286C852.48 130.366 852.836 130.486 853.121 130.646C853.406 130.806 853.619 131.016 853.762 131.274C853.913 131.532 853.988 131.839 853.988 132.195C853.988 132.818 853.753 133.303 853.281 133.65C852.818 133.988 852.169 134.157 851.332 134.157ZM859.149 134.023H857.707V125.08H861.551C862.21 125.08 862.78 125.187 863.26 125.4C863.741 125.605 864.11 125.908 864.368 126.308C864.635 126.7 864.768 127.18 864.768 127.75C864.768 128.239 864.671 128.666 864.475 129.031C864.288 129.387 864.008 129.667 863.634 129.872C863.269 130.068 862.82 130.179 862.286 130.206V130.313C862.615 130.419 862.886 130.575 863.1 130.78C863.313 130.984 863.5 131.238 863.661 131.541L865.009 134.023H863.327L862.059 131.714C861.925 131.456 861.783 131.243 861.632 131.073C861.48 130.904 861.293 130.78 861.071 130.7C860.848 130.62 860.564 130.58 860.217 130.58H859.149V134.023ZM859.149 126.375V129.392H861.725C862.303 129.392 862.717 129.276 862.966 129.045C863.216 128.813 863.34 128.426 863.34 127.883C863.34 127.349 863.216 126.967 862.966 126.735C862.717 126.495 862.303 126.375 861.725 126.375H859.149ZM868.675 134.157C867.999 134.157 867.412 134.015 866.913 133.73C866.415 133.436 866.032 133.031 865.765 132.515C865.498 131.99 865.365 131.385 865.365 130.7C865.365 130.014 865.498 129.414 865.765 128.898C866.032 128.382 866.415 127.981 866.913 127.696C867.412 127.403 867.999 127.256 868.675 127.256C869.352 127.256 869.93 127.403 870.411 127.696C870.9 127.981 871.274 128.382 871.532 128.898C871.799 129.414 871.932 130.014 871.932 130.7C871.932 131.385 871.799 131.99 871.532 132.515C871.274 133.031 870.9 133.436 870.411 133.73C869.93 134.015 869.352 134.157 868.675 134.157ZM868.675 132.875C869.369 132.875 869.854 132.702 870.13 132.355C870.406 131.999 870.544 131.447 870.544 130.7C870.544 129.952 870.406 129.405 870.13 129.058C869.854 128.711 869.369 128.537 868.675 128.537C867.972 128.537 867.483 128.711 867.207 129.058C866.931 129.405 866.793 129.952 866.793 130.7C866.793 131.447 866.931 131.999 867.207 132.355C867.483 132.702 867.972 132.875 868.675 132.875ZM874.465 134.023H873.023V125.08H874.465V134.023ZM877.384 134.023H875.943V125.08H877.384V134.023ZM885.265 134.157C884.419 134.157 883.681 133.97 883.049 133.596C882.426 133.214 881.941 132.68 881.594 131.994C881.256 131.3 881.087 130.486 881.087 129.552C881.087 128.617 881.256 127.808 881.594 127.122C881.941 126.428 882.426 125.894 883.049 125.521C883.681 125.138 884.419 124.947 885.265 124.947C886.119 124.947 886.857 125.138 887.48 125.521C888.103 125.894 888.584 126.428 888.922 127.122C889.26 127.808 889.429 128.617 889.429 129.552C889.429 130.486 889.26 131.3 888.922 131.994C888.584 132.68 888.103 133.214 887.48 133.596C886.857 133.97 886.119 134.157 885.265 134.157ZM885.265 132.755C885.887 132.755 886.39 132.653 886.773 132.448C887.156 132.235 887.436 131.892 887.614 131.421C887.801 130.949 887.894 130.326 887.894 129.552C887.894 128.769 887.801 128.146 887.614 127.683C887.436 127.211 887.156 126.869 886.773 126.655C886.39 126.442 885.887 126.335 885.265 126.335C884.651 126.335 884.148 126.442 883.756 126.655C883.365 126.869 883.075 127.211 882.889 127.683C882.711 128.146 882.622 128.769 882.622 129.552C882.622 130.326 882.711 130.949 882.889 131.421C883.075 131.892 883.365 132.235 883.756 132.448C884.148 132.653 884.651 132.755 885.265 132.755ZM893.09 134.157C892.521 134.157 892.049 134.041 891.675 133.81C891.302 133.57 891.026 133.249 890.848 132.849C890.67 132.439 890.581 131.986 890.581 131.487V127.389H892.022V131.22C892.022 131.817 892.147 132.248 892.396 132.515C892.645 132.782 893.055 132.916 893.624 132.916C893.998 132.916 894.314 132.858 894.572 132.742C894.83 132.617 895.026 132.426 895.159 132.168C895.293 131.901 895.359 131.554 895.359 131.127H895.733V132.702H895.413C895.315 132.951 895.164 133.187 894.959 133.409C894.763 133.632 894.51 133.814 894.198 133.957C893.896 134.09 893.526 134.157 893.09 134.157ZM896.801 134.023H895.466V132.035L895.359 131.968V127.389H896.801V134.023ZM900.919 134.023C900.189 134.023 899.628 133.868 899.237 133.556C898.854 133.245 898.663 132.72 898.663 131.981V127.536L898.997 125.747H900.104V131.914C900.104 132.261 900.189 132.484 900.358 132.582C900.536 132.671 900.852 132.715 901.306 132.715H902.107V133.903C901.973 133.939 901.8 133.97 901.586 133.997C901.373 134.015 901.15 134.023 900.919 134.023ZM902.107 128.591H897.555V127.389H902.107V128.591Z" fill="#3F3F46"/>
<circle cx="646.343" cy="33.6825" r="7.53534" stroke="#213147" stroke-width="1.61472"/>
<circle cx="646.345" cy="33.6828" r="5.6515" fill="#213147"/>
<path d="M646.342 42.0234L646.342 87.0234" stroke="#213147" stroke-width="0.667416"/>
<rect width="103" height="19" transform="translate(654.686 68.0234)" fill="white"/>
<path d="M659.05 82.1569C658.196 82.1569 657.498 82.0368 656.955 81.7965C656.412 81.5473 656.007 81.2047 655.74 80.7687C655.482 80.3238 655.353 79.8165 655.353 79.247V79.0201H656.768V79.1669C656.768 79.5318 656.83 79.8388 656.955 80.0879C657.088 80.3371 657.324 80.524 657.662 80.6486C658 80.7731 658.485 80.8354 659.117 80.8354C659.776 80.8354 660.238 80.742 660.505 80.5551C660.772 80.3593 660.906 80.0568 660.906 79.6474C660.906 79.3716 660.866 79.1491 660.786 78.98C660.706 78.8109 660.545 78.673 660.305 78.5662C660.074 78.4505 659.727 78.3482 659.264 78.2592L657.742 77.9522C657.226 77.8543 656.795 77.703 656.448 77.4984C656.1 77.2848 655.834 77.0134 655.647 76.6841C655.469 76.3549 655.38 75.9589 655.38 75.4961C655.38 75.0512 655.495 74.6374 655.727 74.2547C655.967 73.8632 656.332 73.5473 656.821 73.307C657.32 73.0667 657.951 72.9466 658.717 72.9466C659.535 72.9466 660.198 73.0845 660.706 73.3604C661.222 73.6362 661.596 74.0011 661.827 74.4549C662.067 74.8999 662.187 75.3893 662.187 75.9233V76.0834H660.759V75.9366C660.759 75.5629 660.697 75.2558 660.572 75.0156C660.456 74.7664 660.243 74.5795 659.931 74.4549C659.629 74.3215 659.215 74.2547 658.69 74.2547C658.032 74.2547 657.555 74.3526 657.262 74.5484C656.968 74.7442 656.821 75.0378 656.821 75.4294C656.821 75.6963 656.866 75.9099 656.955 76.0701C657.053 76.2303 657.217 76.3593 657.449 76.4572C657.689 76.5462 658.009 76.6396 658.41 76.7375L659.931 77.0579C660.501 77.1647 660.959 77.3337 661.306 77.5651C661.662 77.7965 661.925 78.0812 662.094 78.4194C662.263 78.7487 662.347 79.1402 662.347 79.594C662.347 80.0568 662.232 80.4839 662 80.8755C661.769 81.267 661.409 81.5785 660.919 81.8099C660.439 82.0412 659.816 82.1569 659.05 82.1569ZM666.36 82.1703C665.666 82.1703 665.079 82.0234 664.598 81.7298C664.118 81.4361 663.749 81.0312 663.491 80.5151C663.241 79.9989 663.117 79.3983 663.117 78.7131C663.117 78.0278 663.246 77.4272 663.504 76.911C663.771 76.386 664.149 75.9811 664.638 75.6963C665.128 75.4027 665.72 75.2558 666.414 75.2558C667.001 75.2558 667.517 75.3671 667.962 75.5896C668.407 75.812 668.75 76.1235 668.99 76.5239C669.239 76.9244 669.364 77.3916 669.364 77.9255V78.0456H667.936V77.9655C667.936 77.4761 667.802 77.1202 667.535 76.8977C667.277 76.6663 666.872 76.5506 666.32 76.5506C665.68 76.5506 665.221 76.7331 664.945 77.0979C664.679 77.4539 664.545 77.9878 664.545 78.6997C664.545 79.4205 664.679 79.9633 664.945 80.3282C665.221 80.6842 665.68 80.8621 666.32 80.8621C666.872 80.8621 667.277 80.7509 667.535 80.5284C667.802 80.2971 667.936 79.9411 667.936 79.4606V79.3805H669.364V79.5006C669.364 80.0167 669.239 80.4795 668.99 80.8888C668.741 81.2893 668.389 81.6052 667.936 81.8366C667.491 82.059 666.966 82.1703 666.36 82.1703ZM671.891 82.0234H670.449V75.3493H671.77V77.2047L671.891 77.2714V82.0234ZM671.891 77.6986H671.557V76.4038H671.837C671.971 76.0923 672.189 75.8254 672.491 75.6029C672.803 75.3715 673.203 75.2558 673.693 75.2558C674.164 75.2558 674.538 75.3582 674.814 75.5629C675.099 75.7675 675.303 76.0389 675.428 76.3771C675.552 76.7153 675.615 77.0935 675.615 77.5117V77.9522H674.173V77.6852C674.173 77.2403 674.098 76.9288 673.946 76.7509C673.795 76.5729 673.51 76.4839 673.092 76.4839C672.656 76.4839 672.344 76.5773 672.158 76.7642C671.98 76.9422 671.891 77.2536 671.891 77.6986ZM679.487 82.1569C678.766 82.1569 678.165 82.0145 677.684 81.7298C677.204 81.4361 676.848 81.0312 676.617 80.5151C676.385 79.99 676.27 79.3849 676.27 78.6997C676.27 78.0145 676.399 77.4138 676.657 76.8977C676.924 76.3816 677.297 75.9811 677.778 75.6963C678.258 75.4027 678.828 75.2558 679.487 75.2558C680.083 75.2558 680.608 75.3715 681.062 75.6029C681.524 75.8254 681.88 76.1502 682.129 76.5773C682.388 77.0045 682.517 77.5206 682.517 78.1257C682.517 78.3037 682.508 78.4772 682.49 78.6463C682.481 78.8065 682.468 78.94 682.45 79.0468H676.95V78.0857H681.275L681.128 78.2192C681.164 77.8098 681.119 77.4761 680.995 77.218C680.879 76.96 680.688 76.7687 680.421 76.6441C680.163 76.5195 679.838 76.4572 679.446 76.4572C678.743 76.4572 678.263 76.6352 678.005 76.9911C677.747 77.3382 677.618 77.8187 677.618 78.4327V78.8332C677.618 79.2781 677.671 79.6563 677.778 79.9678C677.894 80.2704 678.089 80.4973 678.365 80.6486C678.641 80.7998 679.019 80.8755 679.5 80.8755C680.06 80.8755 680.456 80.7865 680.688 80.6085C680.919 80.4305 681.035 80.1947 681.035 79.9011V79.7943H682.463V79.9144C682.463 80.3682 682.339 80.7642 682.089 81.1024C681.84 81.4317 681.493 81.6897 681.048 81.8766C680.612 82.0635 680.092 82.1569 679.487 82.1569ZM686.682 82.1569C685.961 82.1569 685.361 82.0145 684.88 81.7298C684.4 81.4361 684.044 81.0312 683.812 80.5151C683.581 79.99 683.465 79.3849 683.465 78.6997C683.465 78.0145 683.594 77.4138 683.852 76.8977C684.119 76.3816 684.493 75.9811 684.973 75.6963C685.454 75.4027 686.024 75.2558 686.682 75.2558C687.278 75.2558 687.803 75.3715 688.257 75.6029C688.72 75.8254 689.076 76.1502 689.325 76.5773C689.583 77.0045 689.712 77.5206 689.712 78.1257C689.712 78.3037 689.703 78.4772 689.685 78.6463C689.677 78.8065 689.663 78.94 689.645 79.0468H684.146V78.0857H688.471L688.324 78.2192C688.36 77.8098 688.315 77.4761 688.19 77.218C688.075 76.96 687.883 76.7687 687.616 76.6441C687.358 76.5195 687.034 76.4572 686.642 76.4572C685.939 76.4572 685.458 76.6352 685.2 76.9911C684.942 77.3382 684.813 77.8187 684.813 78.4327V78.8332C684.813 79.2781 684.867 79.6563 684.973 79.9678C685.089 80.2704 685.285 80.4973 685.561 80.6486C685.837 80.7998 686.215 80.8755 686.695 80.8755C687.256 80.8755 687.652 80.7865 687.883 80.6085C688.115 80.4305 688.23 80.1947 688.23 79.9011V79.7943H689.659V79.9144C689.659 80.3682 689.534 80.7642 689.285 81.1024C689.036 81.4317 688.689 81.6897 688.244 81.8766C687.808 82.0635 687.287 82.1569 686.682 82.1569ZM697.043 82.0234H695.601V78.1658C695.601 77.5784 695.49 77.1558 695.267 76.8977C695.045 76.6307 694.627 76.4972 694.013 76.4972C693.621 76.4972 693.301 76.5551 693.052 76.6708C692.802 76.7776 692.616 76.9555 692.491 77.2047C692.366 77.445 692.304 77.7742 692.304 78.1925H692.051L691.93 76.6307H692.251C692.349 76.3904 692.495 76.168 692.691 75.9633C692.887 75.7586 693.136 75.5896 693.439 75.4561C693.75 75.3226 694.119 75.2558 694.547 75.2558C695.125 75.2558 695.597 75.3671 695.962 75.5896C696.326 75.812 696.598 76.119 696.776 76.5106C696.954 76.9021 697.043 77.3515 697.043 77.8588V82.0234ZM692.304 82.0234H690.863V75.3893H692.184V77.3782L692.304 77.445V82.0234ZM699.771 74.5484H698.343L698.33 73.0801H699.771V74.5484ZM699.785 82.0234H698.343V75.3493H699.785V82.0234ZM707.289 82.0234H705.847V78.1658C705.847 77.5784 705.736 77.1558 705.513 76.8977C705.291 76.6307 704.873 76.4972 704.259 76.4972C703.867 76.4972 703.547 76.5551 703.297 76.6708C703.048 76.7776 702.861 76.9555 702.737 77.2047C702.612 77.445 702.55 77.7742 702.55 78.1925H702.296L702.176 76.6307H702.497C702.594 76.3904 702.741 76.168 702.937 75.9633C703.133 75.7586 703.382 75.5896 703.685 75.4561C703.996 75.3226 704.365 75.2558 704.793 75.2558C705.371 75.2558 705.843 75.3671 706.207 75.5896C706.572 75.812 706.844 76.119 707.022 76.5106C707.2 76.9021 707.289 77.3515 707.289 77.8588V82.0234ZM702.55 82.0234H701.108V75.3893H702.43V77.3782L702.55 77.445V82.0234ZM711.78 84.4261C711.157 84.4261 710.614 84.3282 710.151 84.1325C709.697 83.9367 709.346 83.6519 709.097 83.2782C708.848 82.9133 708.723 82.4639 708.723 81.93H710.165C710.165 82.2326 710.209 82.4728 710.298 82.6508C710.387 82.8288 710.552 82.9534 710.792 83.0246C711.032 83.1047 711.375 83.1447 711.82 83.1447C712.256 83.1447 712.59 83.0958 712.821 82.9979C713.052 82.9 713.212 82.7353 713.301 82.504C713.39 82.2726 713.435 81.9522 713.435 81.5429V77.138L713.542 76.9644V75.3893H714.877V81.5429C714.877 82.1925 714.752 82.7264 714.503 83.1447C714.254 83.5718 713.898 83.8922 713.435 84.1058C712.981 84.3193 712.429 84.4261 711.78 84.4261ZM711.219 81.3961C710.303 81.3961 709.599 81.1202 709.11 80.5685C708.621 80.0078 708.376 79.2603 708.376 78.326C708.376 77.3916 708.625 76.6485 709.123 76.0968C709.622 75.5362 710.338 75.2558 711.272 75.2558C711.815 75.2558 712.283 75.3671 712.674 75.5896C713.066 75.8031 713.337 76.1012 713.488 76.4839H713.755L713.689 78.1124H713.435C713.435 77.7386 713.359 77.4316 713.208 77.1913C713.057 76.9511 712.843 76.7731 712.567 76.6574C712.291 76.5417 711.971 76.4839 711.606 76.4839C711.188 76.4839 710.845 76.5417 710.578 76.6574C710.32 76.7731 710.129 76.9689 710.004 77.2447C709.88 77.5117 709.818 77.8721 709.818 78.326C709.818 78.6641 709.853 78.9533 709.924 79.1936C709.995 79.425 710.107 79.6118 710.258 79.7542C710.409 79.8966 710.601 80.0034 710.832 80.0746C711.063 80.1369 711.33 80.168 711.633 80.168C711.998 80.168 712.314 80.1102 712.581 79.9945C712.848 79.8699 713.057 79.6875 713.208 79.4472C713.359 79.2069 713.435 78.8999 713.435 78.5262H713.729V80.2214H713.382C713.23 80.5418 712.968 80.8176 712.594 81.049C712.22 81.2804 711.762 81.3961 711.219 81.3961ZM722.655 79.1402H719.398V77.8454H722.828C723.416 77.8454 723.834 77.7164 724.083 77.4583C724.341 77.2002 724.47 76.7509 724.47 76.1101C724.47 75.4694 724.341 75.02 724.083 74.762C723.834 74.5039 723.416 74.3749 722.828 74.3749H719.398V73.0801H722.655C723.278 73.0801 723.834 73.2002 724.323 73.4405C724.813 73.6807 725.195 74.0278 725.471 74.4816C725.756 74.9266 725.898 75.4694 725.898 76.1101C725.898 76.7509 725.756 77.2981 725.471 77.752C725.195 78.2058 724.813 78.5529 724.323 78.7931C723.834 79.0245 723.278 79.1402 722.655 79.1402ZM720.292 82.0234H718.851V73.0801H720.292V82.0234ZM729.608 82.1569C728.887 82.1569 728.286 82.0145 727.806 81.7298C727.325 81.4361 726.969 81.0312 726.738 80.5151C726.507 79.99 726.391 79.3849 726.391 78.6997C726.391 78.0145 726.52 77.4138 726.778 76.8977C727.045 76.3816 727.419 75.9811 727.899 75.6963C728.38 75.4027 728.949 75.2558 729.608 75.2558C730.204 75.2558 730.729 75.3715 731.183 75.6029C731.646 75.8254 732.002 76.1502 732.251 76.5773C732.509 77.0045 732.638 77.5206 732.638 78.1257C732.638 78.3037 732.629 78.4772 732.611 78.6463C732.602 78.8065 732.589 78.94 732.571 79.0468H727.072V78.0857H731.397L731.25 78.2192C731.285 77.8098 731.241 77.4761 731.116 77.218C731.001 76.96 730.809 76.7687 730.542 76.6441C730.284 76.5195 729.959 76.4572 729.568 76.4572C728.865 76.4572 728.384 76.6352 728.126 76.9911C727.868 77.3382 727.739 77.8187 727.739 78.4327V78.8332C727.739 79.2781 727.792 79.6563 727.899 79.9678C728.015 80.2704 728.211 80.4973 728.487 80.6486C728.762 80.7998 729.141 80.8755 729.621 80.8755C730.182 80.8755 730.578 80.7865 730.809 80.6085C731.041 80.4305 731.156 80.1947 731.156 79.9011V79.7943H732.585V79.9144C732.585 80.3682 732.46 80.7642 732.211 81.1024C731.962 81.4317 731.615 81.6897 731.17 81.8766C730.734 82.0635 730.213 82.1569 729.608 82.1569ZM735.23 82.0234H733.788V75.3493H735.11V77.2047L735.23 77.2714V82.0234ZM735.23 77.6986H734.896V76.4038H735.177C735.31 76.0923 735.528 75.8254 735.831 75.6029C736.142 75.3715 736.542 75.2558 737.032 75.2558C737.504 75.2558 737.877 75.3582 738.153 75.5629C738.438 75.7675 738.643 76.0389 738.767 76.3771C738.892 76.7153 738.954 77.0935 738.954 77.5117V77.9522H737.512V77.6852C737.512 77.2403 737.437 76.9288 737.286 76.7509C737.134 76.5729 736.849 76.4839 736.431 76.4839C735.995 76.4839 735.684 76.5773 735.497 76.7642C735.319 76.9422 735.23 77.2536 735.23 77.6986ZM741.146 74.5484H739.718L739.704 73.0801H741.146V74.5484ZM741.159 82.0234H739.718V75.3493H741.159V82.0234ZM745.461 82.1569C744.785 82.1569 744.198 82.0145 743.699 81.7298C743.201 81.4361 742.818 81.0312 742.551 80.5151C742.284 79.99 742.151 79.3849 742.151 78.6997C742.151 78.0145 742.284 77.4138 742.551 76.8977C742.818 76.3816 743.201 75.9811 743.699 75.6963C744.198 75.4027 744.785 75.2558 745.461 75.2558C746.137 75.2558 746.716 75.4027 747.196 75.6963C747.686 75.9811 748.06 76.3816 748.318 76.8977C748.585 77.4138 748.718 78.0145 748.718 78.6997C748.718 79.3849 748.585 79.99 748.318 80.5151C748.06 81.0312 747.686 81.4361 747.196 81.7298C746.716 82.0145 746.137 82.1569 745.461 82.1569ZM745.461 80.8755C746.155 80.8755 746.64 80.702 746.916 80.3549C747.192 79.9989 747.33 79.4472 747.33 78.6997C747.33 77.9522 747.192 77.4049 746.916 77.0579C746.64 76.7108 746.155 76.5373 745.461 76.5373C744.758 76.5373 744.269 76.7108 743.993 77.0579C743.717 77.4049 743.579 77.9522 743.579 78.6997C743.579 79.4472 743.717 79.9989 743.993 80.3549C744.269 80.702 744.758 80.8755 745.461 80.8755ZM752.517 82.1569C751.574 82.1569 750.849 81.8455 750.342 81.2225C749.843 80.5907 749.594 79.7498 749.594 78.6997C749.594 77.6496 749.839 76.8131 750.328 76.1902C750.827 75.5673 751.53 75.2558 752.437 75.2558C753.025 75.2558 753.496 75.376 753.852 75.6162C754.217 75.8476 754.471 76.1146 754.613 76.4171H754.973L754.907 78.1124H754.653C754.653 77.7386 754.582 77.4316 754.439 77.1913C754.297 76.9511 754.092 76.7731 753.825 76.6574C753.558 76.5417 753.229 76.4839 752.838 76.4839C752.517 76.4839 752.241 76.5239 752.01 76.604C751.788 76.6841 751.601 76.8087 751.449 76.9778C751.307 77.1469 751.2 77.3738 751.129 77.6585C751.067 77.9433 751.036 78.2904 751.036 78.6997C751.036 79.1002 751.067 79.4472 751.129 79.7409C751.2 80.0256 751.307 80.257 751.449 80.435C751.601 80.6041 751.792 80.7287 752.023 80.8087C752.255 80.8888 752.526 80.9289 752.838 80.9289C753.229 80.9289 753.558 80.871 753.825 80.7553C754.092 80.6308 754.297 80.4483 754.439 80.2081C754.582 79.9678 754.653 79.6652 754.653 79.3004H754.907L754.973 80.9289H754.706C754.555 81.3115 754.293 81.6141 753.919 81.8366C753.554 82.0501 753.087 82.1569 752.517 82.1569ZM756.095 82.0234H754.76V80.4483L754.653 80.2748V73.0801H756.095V82.0234Z" fill="#3F3F46"/>
</svg>
