<svg width="165" height="32" viewBox="0 0 165 32" fill="none" xmlns="http://www.w3.org/2000/svg">
<g clip-path="url(#clip0_3025_111912)">
<mask id="mask0_3025_111912" style="mask-type:luminance" maskUnits="userSpaceOnUse" x="0" y="0" width="29" height="32">
<path d="M28.2219 0H0V31.8907H28.2219V0Z" fill="white"/>
</mask>
<g mask="url(#mask0_3025_111912)">
<path d="M0.705566 9.65678V22.4319C0.705566 23.2481 1.14348 24.0005 1.85147 24.4085L12.9651 30.7939C13.6735 31.2019 14.5489 31.2019 15.2569 30.7939L26.3704 24.4085C27.0789 24.0005 27.5164 23.2481 27.5164 22.4319V9.65678C27.5164 8.8406 27.0785 8.0882 26.3704 7.68011L15.2533 1.29435C14.5448 0.886257 13.6695 0.886257 12.9615 1.29435L1.85196 7.67961C1.13992 8.0877 0.706074 8.84413 0.706074 9.65628L0.705566 9.65678Z" fill="#213147"/>
<path d="M14.107 1.97748C14.1842 1.97748 14.2578 1.9968 14.3276 2.03546L26.0235 8.80148C26.1589 8.87881 26.2441 9.02649 26.2441 9.18163V15.9457V22.7097C26.2441 22.8649 26.1589 23.0121 26.0235 23.0898L14.3276 29.856C14.2618 29.8946 14.1847 29.914 14.107 29.914C14.0293 29.914 13.9561 29.8946 13.8864 29.856L2.19443 23.0939C2.05888 23.0166 1.9738 22.8688 1.9738 22.7138V9.18163C1.9738 9.02649 2.05888 8.87931 2.19443 8.80148L13.8903 2.03546C13.9561 1.9968 14.0333 1.97748 14.107 1.97748ZM14.107 0C13.6889 0 13.2749 0.108539 12.8994 0.32165L1.20753 7.08772C0.460552 7.51789 0 8.31677 0 9.18163V22.7097C0 23.5746 0.460552 24.3691 1.20753 24.8038L12.9034 31.5698C13.2749 31.7869 13.6929 31.8913 14.1109 31.8913C14.529 31.8913 14.943 31.7828 15.3185 31.5698L27.0143 24.8038C27.7614 24.3736 28.2219 23.5746 28.2219 22.7097V9.18163C28.2219 8.31677 27.7614 7.52233 27.0143 7.08772L15.3146 0.32165C14.943 0.108539 14.525 0 14.107 0Z" fill="#12AAFF"/>
<path d="M6.46907 19.5859C6.51489 19.3958 6.68502 19.2617 6.88061 19.2617H7.98526C8.25918 19.2617 8.46099 19.518 8.39683 19.7843L6.93815 25.8377L5.2041 24.8356L6.46907 19.5859Z" fill="white"/>
<path d="M10.8073 19.2617C11.0812 19.2617 11.283 19.518 11.2189 19.7843L10.1717 24.1301L9.4151 27.2697L7.68115 26.2675L8.19613 24.1301L9.29113 19.5859C9.33696 19.3958 9.50708 19.2617 9.70268 19.2617H10.8073Z" fill="white"/>
<path d="M18.821 4.63281L20.5548 5.63577L20.0428 7.76065L18.9139 12.4459C18.8681 12.636 18.6979 12.77 18.5023 12.77H17.3977C17.1238 12.77 16.9219 12.5138 16.9861 12.2475L18.0673 7.76065L18.821 4.63311V4.63281Z" fill="white"/>
<path fill-rule="evenodd" clip-rule="evenodd" d="M11.4668 1.40682C11.5346 1.36371 11.6134 1.34082 11.6937 1.34082H12.3032C12.5771 1.34082 12.7789 1.59703 12.7147 1.86332L9.32831 15.917C9.26415 16.1833 9.46594 16.4396 9.73986 16.4396H15.9757H17.2856H17.4137C17.6877 16.4396 17.8895 16.6957 17.8254 16.962L14.6121 30.2969C14.5662 30.487 14.3961 30.621 14.2005 30.621H13.0959C12.822 30.621 12.6202 30.3648 12.6843 30.0986L15.3737 18.9375C15.4379 18.6713 15.2361 18.4151 14.9622 18.4151H8.72638H7.83126H7.28827C7.01435 18.4151 6.81256 18.1588 6.87672 17.8925L10.6975 2.03638C10.7232 1.92964 10.7894 1.83707 10.8821 1.7782L11.4668 1.40682Z" fill="#12AAFF"/>
<path fill-rule="evenodd" clip-rule="evenodd" d="M13.6094 1.66498C13.6552 1.47482 13.8254 1.34082 14.021 1.34082H15.1255C15.3995 1.34082 15.6013 1.59703 15.5372 1.86332L12.8307 13.0948C12.7666 13.3611 12.9684 13.6173 13.2423 13.6173H19.4781H20.3196H20.9162C21.1901 13.6173 21.3919 13.8735 21.3276 14.1398L17.5341 29.8833C17.5074 29.9941 17.4372 30.0895 17.3393 30.1478L16.6451 30.5614C16.5796 30.6005 16.5047 30.621 16.4285 30.621H15.9183C15.6443 30.621 15.4425 30.3648 15.5067 30.0986L18.8762 16.1153C18.9403 15.8491 18.7385 15.5929 18.4646 15.5929H12.2288H11.3592H10.7907C10.5168 15.5929 10.315 15.3366 10.3792 15.0704L10.7293 13.6173L13.6094 1.66498Z" fill="#12AAFF"/>
<path d="M21.3 6.06738L23.0334 7.07215L22.8674 7.76077L21.7385 12.446C21.6926 12.6362 21.5225 12.7702 21.3269 12.7702H20.2223C19.9485 12.7702 19.7466 12.5139 19.8108 12.2477L20.8919 7.76077L21.3 6.06738Z" fill="white"/>
</g>
<path d="M39.6809 11.8242H40.3755C40.976 11.8242 41.341 12.0126 41.7295 12.719L45.6266 19.795C45.709 19.948 45.6737 20.0658 45.4853 20.0658H43.99C43.837 20.0658 43.7781 20.0305 43.7192 19.9127L42.8833 18.3939H37.3497L36.5374 19.9127C36.4785 20.0305 36.4078 20.0658 36.2666 20.0658H34.736C34.5358 20.0658 34.5005 19.948 34.5829 19.795L38.4447 12.719C38.8332 12.0126 39.1864 11.8242 39.6809 11.8242ZM39.9399 13.5785L38.0915 17.0282H42.1416L40.2696 13.5785C40.2343 13.5196 40.1989 13.4961 40.1401 13.4961H40.0694C40.0106 13.4961 39.9752 13.5196 39.9399 13.5785ZM48.1534 11.8242H54.4758C56.2771 11.8242 57.0071 12.6601 57.0071 14.2496V14.9207C57.0071 16.2629 56.4891 17.0517 55.2528 17.2754L57.2661 19.7714C57.3368 19.8539 57.325 20.0658 57.1131 20.0658H55.5943C55.3941 20.0658 55.3352 20.0187 55.2646 19.9127L53.4044 17.4638H49.6015V19.8068C49.6015 19.9834 49.5191 20.0658 49.3425 20.0658H48.0709C47.8943 20.0658 47.8001 19.9834 47.8001 19.8068V12.1774C47.8001 11.942 47.9179 11.8242 48.1534 11.8242ZM49.6015 13.5785V16.0274H54.1108C54.9114 16.0274 55.2057 15.686 55.2057 14.9795V14.485C55.2057 13.7786 54.9114 13.4372 54.1108 13.4372H49.7546C49.6486 13.4372 49.6015 13.4843 49.6015 13.5785ZM59.989 11.8242H66.7706C68.3953 11.8242 69.0075 12.46 69.0075 13.7669V14.332C69.0075 15.0031 68.7485 15.4976 68.254 15.8273C68.8074 16.1452 69.0664 16.6514 69.0664 17.3461V18.0289C69.0664 19.2769 68.5484 20.0658 66.9825 20.0658H59.989C59.7535 20.0658 59.6358 19.948 59.6358 19.7126V12.1774C59.6358 11.942 59.7535 11.8242 59.989 11.8242ZM66.2643 16.5337H61.4371V18.288C61.4371 18.3939 61.4842 18.441 61.5902 18.441H66.4174C67.0414 18.441 67.2886 18.2173 67.2886 17.7228V17.2754C67.2886 16.7927 67.0414 16.5337 66.2643 16.5337ZM61.4371 13.602V15.2503H66.2643C67.0414 15.2503 67.2768 15.0149 67.2768 14.5557V14.1554C67.2768 13.6727 67.0178 13.449 66.4056 13.449H61.5902C61.4842 13.449 61.4371 13.4961 61.4371 13.602ZM71.9032 11.8242H73.1748C73.3514 11.8242 73.4338 11.9066 73.4338 12.0832V19.8068C73.4338 19.9834 73.3514 20.0658 73.1748 20.0658H71.9032C71.7266 20.0658 71.6325 19.9834 71.6325 19.8068V12.0832C71.6325 11.9066 71.7266 11.8242 71.9032 11.8242ZM75.9431 11.8242H85.1383C85.3149 11.8242 85.409 11.9066 85.409 12.0832V13.237C85.409 13.4137 85.3149 13.5078 85.1383 13.5078H81.4414V19.8068C81.4414 19.9834 81.3589 20.0658 81.1823 20.0658H79.899C79.7224 20.0658 79.64 19.9834 79.64 19.8068V13.5078H75.9431C75.7665 13.5078 75.6723 13.4137 75.6723 13.237V12.0832C75.6723 11.9066 75.7665 11.8242 75.9431 11.8242ZM87.9881 11.8242H94.3105C96.1118 11.8242 96.8418 12.6601 96.8418 14.2496V14.9207C96.8418 16.2629 96.3238 17.0517 95.0875 17.2754L97.1008 19.7714C97.1715 19.8539 97.1597 20.0658 96.9478 20.0658H95.429C95.2288 20.0658 95.17 20.0187 95.0993 19.9127L93.2391 17.4638H89.4362V19.8068C89.4362 19.9834 89.3538 20.0658 89.1772 20.0658H87.9057C87.7291 20.0658 87.6349 19.9834 87.6349 19.8068V12.1774C87.6349 11.942 87.7526 11.8242 87.9881 11.8242ZM89.4362 13.5785V16.0274H93.9455C94.7461 16.0274 95.0405 15.686 95.0405 14.9795V14.485C95.0405 13.7786 94.7461 13.4372 93.9455 13.4372H89.5893C89.4833 13.4372 89.4362 13.4843 89.4362 13.5785ZM99.6258 11.8242H100.897C101.074 11.8242 101.156 11.9066 101.156 12.0832V16.7809C101.156 18.0289 101.51 18.3939 102.722 18.3939H105.984C107.196 18.3939 107.538 18.0289 107.538 16.7809V12.0832C107.538 11.9066 107.62 11.8242 107.797 11.8242H109.08C109.257 11.8242 109.339 11.9066 109.339 12.0832V16.9575C109.339 19.2181 108.432 20.0658 106.042 20.0658H102.652C100.273 20.0658 99.355 19.2181 99.355 16.9575V12.0832C99.355 11.9066 99.4492 11.8242 99.6258 11.8242ZM113.101 11.8242H114.385C115.091 11.8242 115.327 11.9773 115.645 12.719L118.093 18.3704C118.129 18.4528 118.176 18.4763 118.258 18.4763H118.4C118.482 18.4763 118.529 18.4528 118.564 18.3704L121.013 12.719C121.331 11.9773 121.567 11.8242 122.261 11.8242H123.521C124.345 11.8242 124.557 12.1539 124.557 13.0487V19.8068C124.557 19.9834 124.463 20.0658 124.286 20.0658H123.085C122.909 20.0658 122.826 19.9834 122.826 19.8068V13.6609C122.826 13.5785 122.803 13.5432 122.732 13.5432H122.626C122.544 13.5432 122.497 13.5667 122.473 13.6374L120.095 18.912C119.706 19.7597 119.377 20.0658 118.588 20.0658H118.023C117.234 20.0658 116.904 19.7597 116.516 18.912L114.138 13.6374C114.114 13.5667 114.067 13.5432 113.984 13.5432H113.878C113.808 13.5432 113.784 13.5785 113.784 13.6609V19.8068C113.784 19.9834 113.702 20.0658 113.525 20.0658H112.324C112.148 20.0658 112.054 19.9834 112.054 19.8068V13.0487C112.054 12.1539 112.266 11.8242 113.101 11.8242Z" fill="#213147"/>
<path d="M131.147 11.8242H132.419C132.595 11.8242 132.678 11.9066 132.678 12.0832V15.1444H138.188V12.0832C138.188 11.9066 138.27 11.8242 138.447 11.8242H139.718C139.895 11.8242 139.989 11.9066 139.989 12.0832V19.8068C139.989 19.9834 139.895 20.0658 139.718 20.0658H138.447C138.27 20.0658 138.188 19.9834 138.188 19.8068V16.675H132.678V19.8068C132.678 19.9834 132.595 20.0658 132.419 20.0658H131.147C130.971 20.0658 130.876 19.9834 130.876 19.8068V12.0832C130.876 11.9066 130.971 11.8242 131.147 11.8242ZM142.971 11.8242H144.243C144.419 11.8242 144.502 11.9066 144.502 12.0832V16.7809C144.502 18.0289 144.855 18.3939 146.067 18.3939H149.329C150.541 18.3939 150.883 18.0289 150.883 16.7809V12.0832C150.883 11.9066 150.965 11.8242 151.142 11.8242H152.425C152.602 11.8242 152.684 11.9066 152.684 12.0832V16.9575C152.684 19.2181 151.778 20.0658 149.388 20.0658H145.997C143.619 20.0658 142.7 19.2181 142.7 16.9575V12.0832C142.7 11.9066 142.794 11.8242 142.971 11.8242ZM155.752 11.8242H162.534C164.158 11.8242 164.771 12.46 164.771 13.7669V14.332C164.771 15.0031 164.511 15.4976 164.016 15.8273C164.57 16.1452 164.83 16.6514 164.83 17.3461V18.0289C164.83 19.2769 164.311 20.0658 162.745 20.0658H155.752C155.517 20.0658 155.399 19.948 155.399 19.7126V12.1774C155.399 11.942 155.517 11.8242 155.752 11.8242ZM162.027 16.5337H157.2V18.288C157.2 18.3939 157.247 18.441 157.354 18.441H162.181C162.804 18.441 163.052 18.2173 163.052 17.7228V17.2754C163.052 16.7927 162.804 16.5337 162.027 16.5337ZM157.2 13.602V15.2503H162.027C162.804 15.2503 163.04 15.0149 163.04 14.5557V14.1554C163.04 13.6727 162.78 13.449 162.169 13.449H157.354C157.247 13.449 157.2 13.4961 157.2 13.602Z" fill="#12AAFF"/>
</g>
<defs>
<clipPath id="clip0_3025_111912">
<rect width="164.83" height="31.8907" fill="white"/>
</clipPath>
</defs>
</svg>
