<svg width="82" height="83" viewBox="0 0 82 83" fill="none" xmlns="http://www.w3.org/2000/svg">
<rect x="0.5" y="1.11328" width="81" height="81" rx="40.5" stroke="#ACACAC"/>
<path fill-rule="evenodd" clip-rule="evenodd" d="M34.6279 33.1133H44.7259C45.9928 33.1152 47.2071 33.6197 48.1022 34.5162C48.9973 35.4126 49.5001 36.6277 49.5001 37.8945V51.1758C50.6273 51.1758 51.7083 50.728 52.5053 49.931C53.3023 49.134 53.7501 48.0529 53.7501 46.9258V33.2663C53.7501 31.1342 52.1563 29.284 49.9761 29.1013C49.6585 29.0755 49.3406 29.0519 49.0227 29.0304C48.6641 28.3395 48.1226 27.7604 47.4573 27.3561C46.7921 26.9519 46.0285 26.7382 45.2501 26.7383H43.1251C42.3467 26.7382 41.5831 26.9519 40.9179 27.3561C40.2526 27.7604 39.7111 28.3395 39.3525 29.0304C39.0338 29.0517 38.715 29.0758 38.3991 29.1013C36.2713 29.2812 34.7016 31.0478 34.6279 33.1133ZM43.1251 28.8633C42.5615 28.8633 42.021 29.0872 41.6225 29.4857C41.224 29.8842 41.0001 30.4247 41.0001 30.9883H47.3751C47.3751 30.4247 47.1512 29.8842 46.7527 29.4857C46.3542 29.0872 45.8137 28.8633 45.2501 28.8633H43.1251Z" fill="#12AAFF"/>
<path fill-rule="evenodd" clip-rule="evenodd" d="M28.25 37.8945C28.25 36.4269 29.44 35.2383 30.9062 35.2383H44.7188C46.1864 35.2383 47.375 36.4283 47.375 37.8945V53.832C47.375 55.2983 46.185 56.4883 44.7188 56.4883H30.9062C30.2018 56.4883 29.5261 56.2084 29.028 55.7103C28.5299 55.2121 28.25 54.5365 28.25 53.832V37.8945ZM41.8302 44.4027C42.0064 44.1825 42.0879 43.9014 42.0568 43.6211C42.0257 43.3408 41.8846 43.0843 41.6644 42.9081C41.4442 42.7319 41.1631 42.6504 40.8828 42.6815C40.6025 42.7125 40.346 42.8537 40.1698 43.0739L36.6622 47.4599L35.3758 46.1749C35.1744 45.9873 34.908 45.8851 34.6328 45.8899C34.3575 45.8948 34.0949 46.0063 33.9002 46.201C33.7055 46.3957 33.594 46.6583 33.5892 46.9335C33.5843 47.2088 33.6865 47.4752 33.8742 47.6766L35.9992 49.8016C36.1048 49.9073 36.2316 49.9894 36.3712 50.0428C36.5108 50.0961 36.6601 50.1194 36.8093 50.1111C36.9585 50.1028 37.1043 50.0631 37.2371 49.9947C37.3699 49.9262 37.4868 49.8305 37.5802 49.7138L41.8302 44.4027Z" fill="#12AAFF"/>
</svg>
