<svg width="82" height="83" viewBox="0 0 82 83" fill="none" xmlns="http://www.w3.org/2000/svg">
<rect x="0.5" y="1.11328" width="81" height="81" rx="40.5" stroke="#ACACAC"/>
<path fill-rule="evenodd" clip-rule="evenodd" d="M41 26.7383C41.2818 26.7383 41.552 26.8502 41.7513 27.0495C41.9506 27.2487 42.0625 27.519 42.0625 27.8008V30.9883C42.0625 31.2701 41.9506 31.5403 41.7513 31.7396C41.552 31.9388 41.2818 32.0508 41 32.0508C40.7182 32.0508 40.448 31.9388 40.2487 31.7396C40.0494 31.5403 39.9375 31.2701 39.9375 30.9883V27.8008C39.9375 27.519 40.0494 27.2487 40.2487 27.0495C40.448 26.8502 40.7182 26.7383 41 26.7383ZM31.9843 30.4726C32.1836 30.2736 32.4536 30.1619 32.7352 30.1619C33.0167 30.1619 33.2868 30.2736 33.486 30.4726L35.7413 32.7265C35.9348 32.927 36.0418 33.1955 36.0392 33.474C36.0367 33.7526 35.9248 34.0191 35.7277 34.216C35.5306 34.4129 35.2641 34.5245 34.9855 34.5268C34.7069 34.5291 34.4385 34.4218 34.2383 34.2282L31.9843 31.9757C31.8856 31.877 31.8073 31.7599 31.7538 31.6309C31.7004 31.502 31.6729 31.3637 31.6729 31.2242C31.6729 31.0846 31.7004 30.9464 31.7538 30.8174C31.8073 30.6884 31.8856 30.5713 31.9843 30.4726ZM50.0157 30.4726C50.2146 30.6718 50.3264 30.9419 50.3264 31.2234C50.3264 31.505 50.2146 31.7751 50.0157 31.9743L47.7618 34.2296C47.5613 34.4231 47.2928 34.53 47.0142 34.5275C46.7357 34.5249 46.4692 34.4131 46.2723 34.216C46.0754 34.0189 45.9638 33.7523 45.9615 33.4738C45.9592 33.1952 46.0664 32.9268 46.2601 32.7265L48.5126 30.4726C48.6113 30.3739 48.7284 30.2956 48.8574 30.2421C48.9863 30.1887 49.1245 30.1612 49.2641 30.1612C49.4037 30.1612 49.5419 30.1887 49.6709 30.2421C49.7998 30.2956 49.917 30.3739 50.0157 30.4726ZM40.3597 36.8419C40.575 36.7842 40.8031 36.7957 41.0116 36.8748C41.2201 36.9538 41.3984 37.0965 41.5213 37.2825L48.9277 48.4983C49.0436 48.6737 49.1048 48.8796 49.1036 49.0899C49.1025 49.3002 49.0389 49.5053 48.9211 49.6795C48.8032 49.8536 48.6363 49.9889 48.4415 50.0681C48.2468 50.1473 48.0329 50.167 47.8269 50.1246L44.8562 49.5154L46.3366 55.0405C46.4095 55.3128 46.3712 55.603 46.2301 55.8472C46.089 56.0914 45.8567 56.2695 45.5843 56.3424C45.3119 56.4153 45.0217 56.377 44.7776 56.2359C44.5334 56.0948 44.3553 55.8625 44.2824 55.5901L42.8034 50.0665L40.5353 52.0782C40.3781 52.218 40.183 52.308 39.9747 52.3367C39.7663 52.3655 39.5541 52.3318 39.3649 52.2398C39.1757 52.1479 39.0181 52.0019 38.9119 51.8203C38.8058 51.6387 38.756 51.4297 38.7688 51.2197L39.5748 37.8039C39.588 37.5812 39.6709 37.3684 39.8117 37.1955C39.9526 37.0226 40.1443 36.8984 40.3597 36.8405V36.8419ZM28.25 39.4883C28.25 39.2065 28.3619 38.9362 28.5612 38.737C28.7605 38.5377 29.0307 38.4258 29.3125 38.4258H32.5C32.7818 38.4258 33.052 38.5377 33.2513 38.737C33.4506 38.9362 33.5625 39.2065 33.5625 39.4883C33.5625 39.7701 33.4506 40.0403 33.2513 40.2396C33.052 40.4388 32.7818 40.5508 32.5 40.5508H29.3125C29.0307 40.5508 28.7605 40.4388 28.5612 40.2396C28.3619 40.0403 28.25 39.7701 28.25 39.4883ZM48.4375 39.4883C48.4375 39.2065 48.5494 38.9362 48.7487 38.737C48.948 38.5377 49.2182 38.4258 49.5 38.4258H52.6875C52.9693 38.4258 53.2395 38.5377 53.4388 38.737C53.6381 38.9362 53.75 39.2065 53.75 39.4883C53.75 39.7701 53.6381 40.0403 53.4388 40.2396C53.2395 40.4388 52.9693 40.5508 52.6875 40.5508H49.5C49.2182 40.5508 48.948 40.4388 48.7487 40.2396C48.5494 40.0403 48.4375 39.7701 48.4375 39.4883ZM35.7413 44.7469C35.8401 44.8456 35.9184 44.9628 35.9718 45.0917C36.0253 45.2207 36.0528 45.3589 36.0528 45.4985C36.0528 45.6381 36.0253 45.7763 35.9718 45.9053C35.9184 46.0342 35.8401 46.1514 35.7413 46.25L33.4874 48.504C33.3895 48.6055 33.2722 48.6865 33.1426 48.7422C33.013 48.798 32.8736 48.8273 32.7326 48.8286C32.5915 48.8299 32.4516 48.8031 32.321 48.7497C32.1904 48.6964 32.0717 48.6175 31.9719 48.5178C31.8721 48.4181 31.7931 48.2995 31.7396 48.169C31.6862 48.0384 31.6592 47.8985 31.6604 47.7574C31.6615 47.6164 31.6908 47.4769 31.7464 47.3473C31.802 47.2176 31.8829 47.1003 31.9843 47.0023L34.2383 44.7469C34.4375 44.548 34.7075 44.4362 34.9891 44.4362C35.2706 44.4362 35.5407 44.548 35.7399 44.7469H35.7413Z" fill="#12AAFF"/>
</svg>
