<svg width="52" height="53" viewBox="0 0 52 53" fill="none" xmlns="http://www.w3.org/2000/svg">
<path d="M24 1.76798C25.2376 1.05345 26.7624 1.05345 28 1.76798L46.5167 12.4586C47.7543 13.1731 48.5167 14.4936 48.5167 15.9227V37.3039C48.5167 38.7329 47.7543 40.0535 46.5167 40.768L28 51.4586C26.7624 52.1731 25.2376 52.1731 24 51.4586L5.48334 40.768C4.24573 40.0535 3.48334 38.7329 3.48334 37.3039V15.9227C3.48334 14.4936 4.24574 13.1731 5.48334 12.4586L24 1.76798Z" fill="#0C4A6E"/>
<path fill-rule="evenodd" clip-rule="evenodd" d="M28.4473 18.0264C28.5424 18.0522 28.6315 18.0966 28.7095 18.1568C28.7874 18.2171 28.8527 18.2922 28.9017 18.3777C28.9506 18.4632 28.9822 18.5576 28.9947 18.6553C29.0072 18.7531 29.0002 18.8523 28.9743 18.9474L24.4743 35.4474C24.4221 35.6394 24.2957 35.8028 24.123 35.9016C23.9502 36.0005 23.7453 36.0266 23.5533 35.9744C23.3613 35.9221 23.1979 35.7958 23.0991 35.623C23.0002 35.4503 22.9741 35.2454 23.0263 35.0534L27.5263 18.5534C27.5521 18.4583 27.5965 18.3692 27.6567 18.2913C27.717 18.2133 27.7921 18.148 27.8776 18.099C27.9631 18.0501 28.0575 18.0185 28.1552 18.006C28.253 17.9936 28.3522 18.0005 28.4473 18.0264ZM30.7203 21.2204C30.8609 21.0799 31.0516 21.0011 31.2503 21.0011C31.4491 21.0011 31.6397 21.0799 31.7803 21.2204L37.0303 26.4704C37.1708 26.611 37.2497 26.8016 37.2497 27.0004C37.2497 27.1991 37.1708 27.3898 37.0303 27.5304L31.7803 32.7804C31.7117 32.8541 31.6289 32.9132 31.5369 32.9542C31.4449 32.9952 31.3455 33.0172 31.2448 33.019C31.1441 33.0208 31.0441 33.0022 30.9507 32.9645C30.8573 32.9268 30.7725 32.8707 30.7013 32.7994C30.6301 32.7282 30.5739 32.6434 30.5362 32.55C30.4985 32.4566 30.4799 32.3566 30.4817 32.2559C30.4835 32.1552 30.5055 32.0559 30.5465 31.9639C30.5875 31.8719 30.6466 31.7891 30.7203 31.7204L35.4403 27.0004L30.7203 22.2804C30.5799 22.1398 30.501 21.9491 30.501 21.7504C30.501 21.5516 30.5799 21.361 30.7203 21.2204ZM21.2803 21.2204C21.4208 21.361 21.4997 21.5516 21.4997 21.7504C21.4997 21.9491 21.4208 22.1398 21.2803 22.2804L16.5603 27.0004L21.2803 31.7204C21.4128 31.8626 21.4849 32.0506 21.4815 32.2449C21.4781 32.4392 21.3994 32.6246 21.2619 32.762C21.1245 32.8994 20.9391 32.9781 20.7448 32.9816C20.5505 32.985 20.3625 32.9129 20.2203 32.7804L14.9703 27.5304C14.8299 27.3898 14.751 27.1991 14.751 27.0004C14.751 26.8016 14.8299 26.611 14.9703 26.4704L20.2203 21.2204C20.3609 21.0799 20.5516 21.0011 20.7503 21.0011C20.9491 21.0011 21.1397 21.0799 21.2803 21.2204Z" fill="white"/>
</svg>
