<svg width="52" height="52" viewBox="0 0 52 52" fill="none" xmlns="http://www.w3.org/2000/svg">
<path d="M24 1.1547C25.2376 0.440169 26.7624 0.440169 28 1.1547L46.5167 11.8453C47.7543 12.5598 48.5167 13.8803 48.5167 15.3094V36.6906C48.5167 38.1197 47.7543 39.4402 46.5167 40.1547L28 50.8453C26.7624 51.5598 25.2376 51.5598 24 50.8453L5.48334 40.1547C4.24573 39.4402 3.48334 38.1197 3.48334 36.6906V15.3094C3.48334 13.8803 4.24574 12.5598 5.48334 11.8453L24 1.1547Z" fill="#0C4A6E"/>
<path d="M29 36.75H23C17.57 36.75 15.25 34.43 15.25 29V23C15.25 17.57 17.57 15.25 23 15.25H29C34.43 15.25 36.75 17.57 36.75 23V29C36.75 34.43 34.43 36.75 29 36.75ZM23 16.75C18.39 16.75 16.75 18.39 16.75 23V29C16.75 33.61 18.39 35.25 23 35.25H29C33.61 35.25 35.25 33.61 35.25 29V23C35.25 18.39 33.61 16.75 29 16.75H23Z" fill="white"/>
<path d="M23.5992 29.7799C23.4092 29.7799 23.2192 29.7099 23.0692 29.5599L20.5792 27.0699C19.9892 26.4799 19.9892 25.5299 20.5792 24.9399L23.0692 22.4499C23.3592 22.1599 23.8392 22.1599 24.1292 22.4499C24.4192 22.7399 24.4192 23.2199 24.1292 23.5099L21.6392 25.9999L24.1292 28.4999C24.4192 28.7899 24.4192 29.2699 24.1292 29.5599C23.9792 29.6999 23.7892 29.7799 23.5992 29.7799Z" fill="white"/>
<path d="M28.3998 29.7802C28.2098 29.7802 28.0198 29.7102 27.8698 29.5602C27.5798 29.2702 27.5798 28.7902 27.8698 28.5002L30.3598 26.0002L27.8698 23.5002C27.5798 23.2102 27.5798 22.7302 27.8698 22.4402C28.1598 22.1502 28.6398 22.1502 28.9298 22.4402L31.4198 24.9302C32.0098 25.5202 32.0098 26.4702 31.4198 27.0602L28.9298 29.5502C28.7898 29.7002 28.5898 29.7802 28.3998 29.7802Z" fill="white"/>
</svg>
