<svg width="52" height="52" viewBox="0 0 52 52" fill="none" xmlns="http://www.w3.org/2000/svg">
<path d="M24 1.1547C25.2376 0.440169 26.7624 0.440169 28 1.1547L46.5167 11.8453C47.7543 12.5598 48.5167 13.8803 48.5167 15.3094V36.6906C48.5167 38.1197 47.7543 39.4402 46.5167 40.1547L28 50.8453C26.7624 51.5598 25.2376 51.5598 24 50.8453L5.48334 40.1547C4.24573 39.4402 3.48334 38.1197 3.48334 36.6906V15.3094C3.48334 13.8803 4.24574 12.5598 5.48334 11.8453L24 1.1547Z" fill="#0C4A6E"/>
<path d="M30 36.75H22C18.35 36.75 16.25 34.65 16.25 31V21C16.25 17.35 18.35 15.25 22 15.25H30C33.65 15.25 35.75 17.35 35.75 21V31C35.75 34.65 33.65 36.75 30 36.75ZM22 16.75C19.14 16.75 17.75 18.14 17.75 21V31C17.75 33.86 19.14 35.25 22 35.25H30C32.86 35.25 34.25 33.86 34.25 31V21C34.25 18.14 32.86 16.75 30 16.75H22Z" fill="white"/>
<path d="M32.5 23.25H30.5C28.98 23.25 27.75 22.02 27.75 20.5V18.5C27.75 18.09 28.09 17.75 28.5 17.75C28.91 17.75 29.25 18.09 29.25 18.5V20.5C29.25 21.19 29.81 21.75 30.5 21.75H32.5C32.91 21.75 33.25 22.09 33.25 22.5C33.25 22.91 32.91 23.25 32.5 23.25Z" fill="white"/>
<path d="M24.0014 31.7495C23.8114 31.7495 23.6214 31.6795 23.4714 31.5295L21.4714 29.5295C21.1814 29.2395 21.1814 28.7595 21.4714 28.4695L23.4714 26.4695C23.7614 26.1795 24.2414 26.1795 24.5314 26.4695C24.8214 26.7595 24.8214 27.2395 24.5314 27.5295L23.0614 28.9995L24.5314 30.4695C24.8214 30.7595 24.8214 31.2395 24.5314 31.5295C24.3814 31.6795 24.1914 31.7495 24.0014 31.7495Z" fill="white"/>
<path d="M28.0014 31.7495C27.8114 31.7495 27.6214 31.6795 27.4714 31.5295C27.1814 31.2395 27.1814 30.7595 27.4714 30.4695L28.9414 28.9995L27.4714 27.5295C27.1814 27.2395 27.1814 26.7595 27.4714 26.4695C27.7614 26.1795 28.2414 26.1795 28.5314 26.4695L30.5314 28.4695C30.8214 28.7595 30.8214 29.2395 30.5314 29.5295L28.5314 31.5295C28.3814 31.6795 28.1914 31.7495 28.0014 31.7495Z" fill="white"/>
</svg>
