<svg width="54" height="52" viewBox="0 0 54 52" fill="none" xmlns="http://www.w3.org/2000/svg">
<rect y="0.324219" width="53.7504" height="51.625" rx="25.8125" fill="#DCF1FF"/>
<path d="M16.25 18.168C16.25 16.6181 16.8657 15.1317 17.9616 14.0358C19.0575 12.9399 20.5439 12.3242 22.0938 12.3242C23.6436 12.3242 25.13 12.9399 26.2259 14.0358C27.3218 15.1317 27.9375 16.6181 27.9375 18.168C27.9375 19.7178 27.3218 21.2042 26.2259 22.3001C25.13 23.396 23.6436 24.0117 22.0938 24.0117C20.5439 24.0117 19.0575 23.396 17.9616 22.3001C16.8657 21.2042 16.25 19.7178 16.25 18.168ZM30.0625 21.3555C30.0625 20.7276 30.1862 20.1059 30.4265 19.5258C30.6667 18.9457 31.0189 18.4186 31.4629 17.9746C31.9069 17.5306 32.434 17.1784 33.014 16.9382C33.5941 16.6979 34.2159 16.5742 34.8438 16.5742C35.4716 16.5742 36.0934 16.6979 36.6735 16.9382C37.2535 17.1784 37.7806 17.5306 38.2246 17.9746C38.6686 18.4186 39.0208 18.9457 39.261 19.5258C39.5013 20.1059 39.625 20.7276 39.625 21.3555C39.625 22.6235 39.1213 23.8397 38.2246 24.7363C37.3279 25.633 36.1118 26.1367 34.8438 26.1367C33.5757 26.1367 32.3596 25.633 31.4629 24.7363C30.5662 23.8397 30.0625 22.6235 30.0625 21.3555ZM12 36.2305C12 33.5534 13.0634 30.9861 14.9564 29.0931C16.8493 27.2002 19.4167 26.1367 22.0938 26.1367C24.7708 26.1367 27.3382 27.2002 29.2311 29.0931C31.1241 30.9861 32.1875 33.5534 32.1875 36.2305V36.2347L32.1861 36.4033C32.1831 36.5835 32.1343 36.7599 32.0443 36.916C31.9544 37.0722 31.8262 37.2028 31.6718 37.2958C28.7807 39.0368 25.4686 39.9544 22.0938 39.9492C18.5918 39.9492 15.3136 38.9802 12.5171 37.2958C12.3625 37.203 12.234 37.0724 12.1438 36.9163C12.0536 36.7601 12.0046 36.5836 12.0014 36.4033L12 36.2305ZM34.3125 36.2347L34.3111 36.4387C34.3032 36.9109 34.1904 37.3754 33.981 37.7987C36.4541 37.9512 38.9243 37.4582 41.1493 36.3679C41.3214 36.2838 41.4675 36.1547 41.5723 35.9944C41.677 35.834 41.7365 35.6483 41.7443 35.457C41.7943 34.2687 41.5366 33.0877 40.9962 32.0283C40.4558 30.9689 39.6509 30.067 38.6596 29.4099C37.6683 28.7529 36.5241 28.363 35.3378 28.278C34.1516 28.193 32.9635 28.4157 31.8886 28.9247C33.4656 31.0335 34.3157 33.5972 34.3111 36.2305L34.3125 36.2347Z" fill="#0C4A6E"/>
</svg>
