<svg width="52" height="52" viewBox="0 0 52 52" fill="none" xmlns="http://www.w3.org/2000/svg">
<path d="M24 1.1547C25.2376 0.440169 26.7624 0.440169 28 1.1547L46.5167 11.8453C47.7543 12.5598 48.5167 13.8803 48.5167 15.3094V36.6906C48.5167 38.1197 47.7543 39.4402 46.5167 40.1547L28 50.8453C26.7624 51.5598 25.2376 51.5598 24 50.8453L5.48334 40.1547C4.24573 39.4402 3.48334 38.1197 3.48334 36.6906V15.3094C3.48334 13.8803 4.24574 12.5598 5.48334 11.8453L24 1.1547Z" fill="#0C4A6E"/>
<path d="M33 30.75C32.59 30.75 32.25 30.41 32.25 30V20.5C32.25 19.81 31.69 19.25 31 19.25H25.5C25.09 19.25 24.75 18.91 24.75 18.5C24.75 18.09 25.09 17.75 25.5 17.75H31C32.52 17.75 33.75 18.98 33.75 20.5V30C33.75 30.41 33.41 30.75 33 30.75Z" fill="white"/>
<path d="M28 21.7499C27.83 21.7499 27.66 21.6899 27.52 21.5799L24.52 19.0799C24.35 18.9399 24.25 18.7299 24.25 18.4999C24.25 18.2699 24.35 18.0699 24.52 17.9199L27.52 15.4199C27.84 15.1499 28.31 15.2 28.58 15.52C28.85 15.84 28.8 16.3099 28.48 16.5799L26.17 18.4999L28.48 20.4199C28.8 20.6899 28.84 21.1599 28.58 21.4799C28.43 21.6599 28.21 21.7499 28 21.7499Z" fill="white"/>
<path d="M33 36.75C30.93 36.75 29.25 35.07 29.25 33C29.25 30.93 30.93 29.25 33 29.25C35.07 29.25 36.75 30.93 36.75 33C36.75 35.07 35.07 36.75 33 36.75ZM33 30.75C31.76 30.75 30.75 31.76 30.75 33C30.75 34.24 31.76 35.25 33 35.25C34.24 35.25 35.25 34.24 35.25 33C35.25 31.76 34.24 30.75 33 30.75Z" fill="white"/>
<path d="M26.5 34.25H21C19.48 34.25 18.25 33.02 18.25 31.5V22C18.25 21.59 18.59 21.25 19 21.25C19.41 21.25 19.75 21.59 19.75 22V31.5C19.75 32.19 20.31 32.75 21 32.75H26.5C26.91 32.75 27.25 33.09 27.25 33.5C27.25 33.91 26.91 34.25 26.5 34.25Z" fill="white"/>
<path d="M24.0009 36.7497C23.7909 36.7497 23.5709 36.6597 23.4209 36.4797C23.1509 36.1597 23.2009 35.6897 23.5209 35.4197L25.8309 33.4997L23.5209 31.5797C23.2009 31.3097 23.1609 30.8397 23.4209 30.5197C23.6909 30.1997 24.1609 30.1597 24.4809 30.4197L27.4809 32.9197C27.6509 33.0597 27.7509 33.2697 27.7509 33.4997C27.7509 33.7297 27.6509 33.9297 27.4809 34.0797L24.4809 36.5797C24.3409 36.6897 24.1709 36.7497 24.0009 36.7497Z" fill="white"/>
<path d="M19 22.75C16.93 22.75 15.25 21.07 15.25 19C15.25 16.93 16.93 15.25 19 15.25C21.07 15.25 22.75 16.93 22.75 19C22.75 21.07 21.07 22.75 19 22.75ZM19 16.75C17.76 16.75 16.75 17.76 16.75 19C16.75 20.24 17.76 21.25 19 21.25C20.24 21.25 21.25 20.24 21.25 19C21.25 17.76 20.24 16.75 19 16.75Z" fill="white"/>
</svg>
