<svg width="48" height="48" viewBox="0 0 48 48" fill="none" xmlns="http://www.w3.org/2000/svg">
<rect x="0.5" y="0.5" width="47" height="47" rx="23.5" stroke="#E4E4E7"/>
<path d="M30.5 24.6484V28.3484C30.5 31.4684 27.59 33.9984 24 33.9984C20.41 33.9984 17.5 31.4684 17.5 28.3484V24.6484C17.5 27.7684 20.41 29.9984 24 29.9984C27.59 29.9984 30.5 27.7684 30.5 24.6484Z" stroke="#292D32" stroke-width="1.5" stroke-linecap="round" stroke-linejoin="round"/>
<path d="M30.5 19.65C30.5 20.56 30.25 21.4 29.81 22.12C28.74 23.88 26.54 25 24 25C21.46 25 19.26 23.88 18.19 22.12C17.75 21.4 17.5 20.56 17.5 19.65C17.5 18.09 18.23 16.68 19.4 15.66C20.58 14.63 22.2 14 24 14C25.8 14 27.42 14.63 28.6 15.65C29.77 16.68 30.5 18.09 30.5 19.65Z" stroke="#292D32" stroke-width="1.5" stroke-linecap="round" stroke-linejoin="round"/>
<path d="M30.5 19.65V24.65C30.5 27.77 27.59 30 24 30C20.41 30 17.5 27.77 17.5 24.65V19.65C17.5 16.53 20.41 14 24 14C25.8 14 27.42 14.63 28.6 15.65C29.77 16.68 30.5 18.09 30.5 19.65Z" stroke="#292D32" stroke-width="1.5" stroke-linecap="round" stroke-linejoin="round"/>
</svg>
