<svg width="52" height="52" viewBox="0 0 52 52" fill="none" xmlns="http://www.w3.org/2000/svg">
<path d="M24 1.1547C25.2376 0.440169 26.7624 0.440169 28 1.1547L46.5167 11.8453C47.7543 12.5598 48.5167 13.8803 48.5167 15.3094V36.6906C48.5167 38.1197 47.7543 39.4402 46.5167 40.1547L28 50.8453C26.7624 51.5598 25.2376 51.5598 24 50.8453L5.48334 40.1547C4.24573 39.4402 3.48334 38.1197 3.48334 36.6906V15.3094C3.48334 13.8803 4.24574 12.5598 5.48334 11.8453L24 1.1547Z" fill="#0C4A6E"/>
<path d="M26 36.7504C22 36.7504 18.75 33.8804 18.75 30.3504V26.6504C18.75 26.2404 19.09 25.9004 19.5 25.9004C19.91 25.9004 20.25 26.2404 20.25 26.6504C20.25 29.2704 22.72 31.2504 26 31.2504C29.28 31.2504 31.75 29.2704 31.75 26.6504C31.75 26.2404 32.09 25.9004 32.5 25.9004C32.91 25.9004 33.25 26.2404 33.25 26.6504V30.3504C33.25 33.8804 30 36.7504 26 36.7504ZM20.25 30.4604C20.32 33.1104 22.87 35.2504 26 35.2504C29.13 35.2504 31.68 33.1104 31.75 30.4604C30.45 31.8704 28.39 32.7504 26 32.7504C23.61 32.7504 21.56 31.8704 20.25 30.4604Z" fill="white"/>
<path d="M26 27.75C23.24 27.75 20.76 26.51 19.55 24.51C19.03 23.66 18.75 22.67 18.75 21.65C18.75 19.93 19.52 18.31 20.91 17.09C22.27 15.9 24.08 15.25 26 15.25C27.92 15.25 29.72 15.9 31.09 17.08C32.48 18.31 33.25 19.93 33.25 21.65C33.25 22.67 32.97 23.65 32.45 24.51C31.24 26.51 28.76 27.75 26 27.75ZM26 16.75C24.44 16.75 22.98 17.27 21.89 18.23C20.83 19.15 20.25 20.37 20.25 21.65C20.25 22.4 20.45 23.1 20.83 23.73C21.78 25.29 23.76 26.25 26 26.25C28.24 26.25 30.22 25.28 31.17 23.73C31.56 23.1 31.75 22.4 31.75 21.65C31.75 20.37 31.17 19.15 30.1 18.21C29.01 17.27 27.56 16.75 26 16.75Z" fill="white"/>
<path d="M26 32.75C21.87 32.75 18.75 30.13 18.75 26.65V21.65C18.75 18.12 22 15.25 26 15.25C27.92 15.25 29.72 15.9 31.09 17.08C32.48 18.31 33.25 19.93 33.25 21.65V26.65C33.25 30.13 30.13 32.75 26 32.75ZM26 16.75C22.83 16.75 20.25 18.95 20.25 21.65V26.65C20.25 29.27 22.72 31.25 26 31.25C29.28 31.25 31.75 29.27 31.75 26.65V21.65C31.75 20.37 31.17 19.15 30.1 18.21C29.01 17.27 27.56 16.75 26 16.75Z" fill="white"/>
</svg>
