<svg width="54" height="51" viewBox="0 0 54 51" fill="none" xmlns="http://www.w3.org/2000/svg">
<rect y="0.0390625" width="53.75" height="50.2851" rx="25.1426" fill="#DCF1FF"/>
<path fill-rule="evenodd" clip-rule="evenodd" d="M12 14.6953C12 13.2276 13.19 12.0391 14.6562 12.0391H39.0938C40.56 12.0391 41.75 13.2291 41.75 14.6953V28.5078C41.75 29.9755 40.56 31.1641 39.0938 31.1641H14.6562C14.3074 31.1641 13.962 31.0954 13.6397 30.9619C13.3175 30.8284 13.0247 30.6327 12.778 30.3861C12.5313 30.1394 12.3357 29.8466 12.2022 29.5243C12.0687 29.202 12 28.8566 12 28.5078V14.6953ZM21.5625 21.6016C21.5625 20.1926 22.1222 18.8413 23.1185 17.8451C24.1148 16.8488 25.466 16.2891 26.875 16.2891C28.284 16.2891 29.6352 16.8488 30.6315 17.8451C31.6278 18.8413 32.1875 20.1926 32.1875 21.6016C32.1875 23.0105 31.6278 24.3618 30.6315 25.3581C29.6352 26.3544 28.284 26.9141 26.875 26.9141C25.466 26.9141 24.1148 26.3544 23.1185 25.3581C22.1222 24.3618 21.5625 23.0105 21.5625 21.6016ZM36.4375 20.5391C36.1557 20.5391 35.8855 20.651 35.6862 20.8503C35.4869 21.0495 35.375 21.3198 35.375 21.6016V21.6129C35.375 22.1994 35.851 22.6754 36.4375 22.6754H36.4488C36.7306 22.6754 37.0009 22.5635 37.2001 22.3642C37.3994 22.1649 37.5113 21.8947 37.5113 21.6129V21.6016C37.5113 21.3198 37.3994 21.0495 37.2001 20.8503C37.0009 20.651 36.7306 20.5391 36.4488 20.5391H36.4375ZM16.25 21.6016C16.25 21.3198 16.3619 21.0495 16.5612 20.8503C16.7605 20.651 17.0307 20.5391 17.3125 20.5391H17.3238C17.6056 20.5391 17.8759 20.651 18.0751 20.8503C18.2744 21.0495 18.3863 21.3198 18.3863 21.6016V21.6129C18.3863 21.8947 18.2744 22.1649 18.0751 22.3642C17.8759 22.5635 17.6056 22.6754 17.3238 22.6754H17.3125C17.0307 22.6754 16.7605 22.5635 16.5612 22.3642C16.3619 22.1649 16.25 21.8947 16.25 21.6129V21.6016Z" fill="#0C4A6E"/>
<path d="M14.6562 33.1641C14.3745 33.1641 14.1042 33.276 13.9049 33.4753C13.7057 33.6745 13.5938 33.9448 13.5938 34.2266C13.5938 34.5084 13.7057 34.7786 13.9049 34.9779C14.1042 35.1771 14.3745 35.2891 14.6562 35.2891C22.3062 35.2891 29.7154 36.3119 36.7563 38.2286C38.4421 38.6876 40.1562 37.4381 40.1562 35.6503V34.2266C40.1562 33.9448 40.0443 33.6745 39.8451 33.4753C39.6458 33.276 39.3755 33.1641 39.0938 33.1641H14.6562Z" fill="#0C4A6E"/>
<path d="M26.875 15.7539C25.5386 15.7539 24.2569 16.2506 23.3118 17.1347C22.3668 18.0188 21.8359 19.2178 21.8359 20.4681C21.8359 21.7184 22.3668 22.9175 23.3118 23.8016C24.2569 24.6857 25.5386 25.1824 26.875 25.1824C28.2114 25.1824 29.4931 24.6857 30.4382 23.8016C31.3832 22.9175 31.9141 21.7184 31.9141 20.4681C31.9141 19.2178 31.3832 18.0188 30.4382 17.1347C29.4931 16.2506 28.2114 15.7539 26.875 15.7539Z" fill="#0C4A6E"/>
</svg>
