<svg width="52" height="52" viewBox="0 0 52 52" fill="none" xmlns="http://www.w3.org/2000/svg">
<path d="M24 1.1547C25.2376 0.440169 26.7624 0.440169 28 1.1547L46.5167 11.8453C47.7543 12.5598 48.5167 13.8803 48.5167 15.3094V36.6906C48.5167 38.1197 47.7543 39.4402 46.5167 40.1547L28 50.8453C26.7624 51.5598 25.2376 51.5598 24 50.8453L5.48334 40.1547C4.24573 39.4402 3.48334 38.1197 3.48334 36.6906V15.3094C3.48334 13.8803 4.24574 12.5598 5.48334 11.8453L24 1.1547Z" fill="#0C4A6E"/>
<path d="M32.0003 21.9098C31.9703 21.9098 31.9503 21.9098 31.9203 21.9098H31.8703C29.9803 21.8498 28.5703 20.3898 28.5703 18.5898C28.5703 16.7498 30.0703 15.2598 31.9003 15.2598C33.7303 15.2598 35.2303 16.7598 35.2303 18.5898C35.2203 20.3998 33.8103 21.8598 32.0103 21.9198C32.0103 21.9098 32.0103 21.9098 32.0003 21.9098ZM31.9003 16.7498C30.8903 16.7498 30.0703 17.5698 30.0703 18.5798C30.0703 19.5698 30.8403 20.3698 31.8303 20.4098C31.8403 20.3998 31.9203 20.3998 32.0103 20.4098C32.9803 20.3598 33.7303 19.5598 33.7403 18.5798C33.7403 17.5698 32.9203 16.7498 31.9003 16.7498Z" fill="white"/>
<path d="M32.0085 29.2797C31.6185 29.2797 31.2285 29.2497 30.8385 29.1797C30.4285 29.1097 30.1585 28.7197 30.2285 28.3097C30.2985 27.8997 30.6885 27.6297 31.0985 27.6997C32.3285 27.9097 33.6285 27.6797 34.4985 27.0997C34.9685 26.7897 35.2185 26.3997 35.2185 26.0097C35.2185 25.6197 34.9585 25.2397 34.4985 24.9297C33.6285 24.3497 32.3085 24.1197 31.0685 24.3397C30.6585 24.4197 30.2685 24.1397 30.1985 23.7297C30.1285 23.3197 30.3985 22.9297 30.8085 22.8597C32.4385 22.5697 34.1285 22.8797 35.3285 23.6797C36.2085 24.2697 36.7185 25.1097 36.7185 26.0097C36.7185 26.8997 36.2185 27.7497 35.3285 28.3497C34.4185 28.9497 33.2385 29.2797 32.0085 29.2797Z" fill="white"/>
<path d="M19.9705 21.91C19.9605 21.91 19.9505 21.91 19.9505 21.91C18.1505 21.85 16.7405 20.39 16.7305 18.59C16.7305 16.75 18.2305 15.25 20.0605 15.25C21.8905 15.25 23.3905 16.75 23.3905 18.58C23.3905 20.39 21.9805 21.85 20.1805 21.91L19.9705 21.16L20.0405 21.91C20.0205 21.91 19.9905 21.91 19.9705 21.91ZM20.0705 20.41C20.1305 20.41 20.1805 20.41 20.2405 20.42C21.1305 20.38 21.9105 19.58 21.9105 18.59C21.9105 17.58 21.0905 16.76 20.0805 16.76C19.0705 16.76 18.2505 17.58 18.2505 18.59C18.2505 19.57 19.0105 20.36 19.9805 20.42C19.9905 20.41 20.0305 20.41 20.0705 20.41Z" fill="white"/>
<path d="M19.96 29.2797C18.73 29.2797 17.55 28.9497 16.64 28.3497C15.76 27.7597 15.25 26.9097 15.25 26.0097C15.25 25.1197 15.76 24.2697 16.64 23.6797C17.84 22.8797 19.53 22.5697 21.16 22.8597C21.57 22.9297 21.84 23.3197 21.77 23.7297C21.7 24.1397 21.31 24.4197 20.9 24.3397C19.66 24.1197 18.35 24.3497 17.47 24.9297C17 25.2397 16.75 25.6197 16.75 26.0097C16.75 26.3997 17.01 26.7897 17.47 27.0997C18.34 27.6797 19.64 27.9097 20.87 27.6997C21.28 27.6297 21.67 27.9097 21.74 28.3097C21.81 28.7197 21.54 29.1097 21.13 29.1797C20.74 29.2497 20.35 29.2797 19.96 29.2797Z" fill="white"/>
<path d="M26.0003 29.3805C25.9703 29.3805 25.9503 29.3805 25.9203 29.3805H25.8703C23.9803 29.3205 22.5703 27.8605 22.5703 26.0605C22.5703 24.2205 24.0703 22.7305 25.9003 22.7305C27.7303 22.7305 29.2303 24.2305 29.2303 26.0605C29.2203 27.8705 27.8103 29.3305 26.0103 29.3905C26.0103 29.3805 26.0103 29.3805 26.0003 29.3805ZM25.9003 24.2205C24.8903 24.2205 24.0703 25.0405 24.0703 26.0505C24.0703 27.0405 24.8403 27.8405 25.8303 27.8805C25.8403 27.8705 25.9203 27.8705 26.0103 27.8805C26.9803 27.8305 27.7303 27.0305 27.7403 26.0505C27.7403 25.0505 26.9203 24.2205 25.9003 24.2205Z" fill="white"/>
<path d="M26.0013 36.7597C24.8013 36.7597 23.6012 36.4497 22.6712 35.8197C21.7912 35.2297 21.2812 34.3897 21.2812 33.4897C21.2812 32.5997 21.7812 31.7397 22.6712 31.1497C24.5412 29.9097 27.4713 29.9097 29.3313 31.1497C30.2113 31.7397 30.7213 32.5797 30.7213 33.4797C30.7213 34.3697 30.2213 35.2297 29.3313 35.8197C28.4013 36.4397 27.2013 36.7597 26.0013 36.7597ZM23.5013 32.4097C23.0313 32.7197 22.7812 33.1097 22.7812 33.4997C22.7812 33.8897 23.0413 34.2697 23.5013 34.5797C24.8513 35.4897 27.1413 35.4897 28.4913 34.5797C28.9613 34.2697 29.2113 33.8797 29.2113 33.4897C29.2113 33.0997 28.9513 32.7197 28.4913 32.4097C27.1513 31.4997 24.8613 31.5097 23.5013 32.4097Z" fill="white"/>
</svg>
