<svg width="52" height="53" viewBox="0 0 52 53" fill="none" xmlns="http://www.w3.org/2000/svg">
<path d="M24 1.76798C25.2376 1.05345 26.7624 1.05345 28 1.76798L46.5167 12.4586C47.7543 13.1731 48.5167 14.4936 48.5167 15.9227V37.3039C48.5167 38.7329 47.7543 40.0535 46.5167 40.768L28 51.4586C26.7624 52.1731 25.2376 52.1731 24 51.4586L5.48334 40.768C4.24573 40.0535 3.48334 38.7329 3.48334 37.3039V15.9227C3.48334 14.4936 4.24574 13.1731 5.48334 12.4586L24 1.76798Z" fill="#0C4A6E"/>
<path fill-rule="evenodd" clip-rule="evenodd" d="M22.25 21.75C22.25 20.7554 22.6451 19.8016 23.3483 19.0983C24.0516 18.3951 25.0054 18 26 18C26.9946 18 27.9484 18.3951 28.6517 19.0983C29.3549 19.8016 29.75 20.7554 29.75 21.75C29.75 22.7446 29.3549 23.6984 28.6517 24.4017C27.9484 25.1049 26.9946 25.5 26 25.5C25.0054 25.5 24.0516 25.1049 23.3483 24.4017C22.6451 23.6984 22.25 22.7446 22.25 21.75ZM29.75 24.75C29.75 23.9544 30.0661 23.1913 30.6287 22.6287C31.1913 22.0661 31.9544 21.75 32.75 21.75C33.5456 21.75 34.3087 22.0661 34.8713 22.6287C35.4339 23.1913 35.75 23.9544 35.75 24.75C35.75 25.5456 35.4339 26.3087 34.8713 26.8713C34.3087 27.4339 33.5456 27.75 32.75 27.75C31.9544 27.75 31.1913 27.4339 30.6287 26.8713C30.0661 26.3087 29.75 25.5456 29.75 24.75ZM16.25 24.75C16.25 23.9544 16.5661 23.1913 17.1287 22.6287C17.6913 22.0661 18.4544 21.75 19.25 21.75C20.0456 21.75 20.8087 22.0661 21.3713 22.6287C21.9339 23.1913 22.25 23.9544 22.25 24.75C22.25 25.5456 21.9339 26.3087 21.3713 26.8713C20.8087 27.4339 20.0456 27.75 19.25 27.75C18.4544 27.75 17.6913 27.4339 17.1287 26.8713C16.5661 26.3087 16.25 25.5456 16.25 24.75ZM20.31 30.117C20.92 29.161 21.7611 28.3743 22.7556 27.8294C23.7502 27.2846 24.866 26.9994 26 27C26.9498 26.9991 27.8891 27.1989 28.7564 27.5862C29.6237 27.9734 30.3994 28.5395 31.0327 29.2474C31.6661 29.9552 32.1428 30.7888 32.4317 31.6936C32.7205 32.5985 32.815 33.5541 32.709 34.498C32.696 34.6153 32.6556 34.7278 32.591 34.8265C32.5263 34.9252 32.4393 35.0073 32.337 35.066C30.4086 36.1725 28.2233 36.7532 26 36.75C23.695 36.75 21.53 36.138 19.663 35.066C19.5607 35.0073 19.4737 34.9252 19.409 34.8265C19.3444 34.7278 19.304 34.6153 19.291 34.498C19.1231 32.9646 19.4825 31.4198 20.31 30.118V30.117Z" fill="white"/>
<path d="M19.0821 29.2539C18.0958 30.7763 17.6363 32.5802 17.7741 34.3889C17.1736 34.2979 16.583 34.1505 16.0101 33.9489L15.8951 33.9089C15.7925 33.8725 15.7026 33.8071 15.6364 33.7207C15.5702 33.6342 15.5305 33.5305 15.5221 33.4219L15.5121 33.3009C15.4717 32.7989 15.5328 32.2938 15.6919 31.816C15.8509 31.3381 16.1046 30.8971 16.4378 30.5194C16.771 30.1417 17.1768 29.835 17.6312 29.6176C18.0855 29.4001 18.5789 29.2765 19.0821 29.2539ZM34.2261 34.3889C34.3638 32.5802 33.9043 30.7763 32.9181 29.2539C33.4212 29.2765 33.9147 29.4001 34.369 29.6176C34.8233 29.835 35.2292 30.1417 35.5624 30.5194C35.8955 30.8971 36.1492 31.3381 36.3083 31.816C36.4673 32.2938 36.5285 32.7989 36.4881 33.3009L36.4781 33.4219C36.4695 33.5303 36.4297 33.6338 36.3635 33.7201C36.2973 33.8063 36.2075 33.8716 36.1051 33.9079L35.9901 33.9479C35.4231 34.1479 34.8341 34.2969 34.2261 34.3889Z" fill="white"/>
</svg>
