<svg width="52" height="53" viewBox="0 0 52 53" fill="none" xmlns="http://www.w3.org/2000/svg">
<path d="M24 1.76798C25.2376 1.05345 26.7624 1.05345 28 1.76798L46.5167 12.4586C47.7543 13.1731 48.5167 14.4936 48.5167 15.9227V37.3039C48.5167 38.7329 47.7543 40.0535 46.5167 40.768L28 51.4586C26.7624 52.1731 25.2376 52.1731 24 51.4586L5.48334 40.768C4.24573 40.0535 3.48334 38.7329 3.48334 37.3039V15.9227C3.48334 14.4936 4.24574 13.1731 5.48334 12.4586L24 1.76798Z" fill="#0C4A6E"/>
<path fill-rule="evenodd" clip-rule="evenodd" d="M29.2196 21.2677C29.2909 21.0823 29.433 20.9328 29.6144 20.852C29.7959 20.7712 30.002 20.7656 30.1876 20.8367L36.1296 23.1167C36.2216 23.152 36.3058 23.2051 36.3773 23.273C36.4487 23.3409 36.5061 23.4222 36.5462 23.5123C36.5862 23.6024 36.6081 23.6995 36.6106 23.798C36.613 23.8966 36.596 23.9947 36.5606 24.0867L34.2806 30.0267C34.2472 30.1211 34.1953 30.208 34.1278 30.282C34.0603 30.3561 33.9787 30.4159 33.8878 30.4579C33.7968 30.4999 33.6983 30.5233 33.5982 30.5266C33.4981 30.5299 33.3983 30.5131 33.3047 30.4773C33.2112 30.4414 33.1258 30.3871 33.0536 30.3177C32.9813 30.2482 32.9238 30.165 32.8842 30.073C32.8447 29.9809 32.824 29.8819 32.8234 29.7817C32.8227 29.6815 32.8422 29.5822 32.8806 29.4897L34.5106 25.2387L33.4246 25.7227C31.0664 26.768 29.1413 28.5952 27.9746 30.8957C27.9209 31.0012 27.8429 31.0925 27.7472 31.1622C27.6514 31.2318 27.5405 31.2778 27.4235 31.2963C27.3065 31.3148 27.1869 31.3054 27.0742 31.2688C26.9616 31.2322 26.8593 31.1694 26.7756 31.0857L22.9996 27.3117L16.7796 33.5317C16.6381 33.6682 16.4486 33.7437 16.2519 33.7419C16.0553 33.7401 15.8672 33.6611 15.7282 33.522C15.5892 33.3829 15.5104 33.1948 15.5088 32.9981C15.5072 32.8015 15.5829 32.612 15.7196 32.4707L22.4696 25.7207C22.6102 25.5802 22.8008 25.5013 22.9996 25.5013C23.1983 25.5013 23.3889 25.5802 23.5296 25.7207L27.1356 29.3267C28.4807 27.131 30.4616 25.3963 32.8156 24.3527L33.9016 23.8697L29.6506 22.2377C29.5584 22.2024 29.4742 22.1494 29.4026 22.0815C29.331 22.0137 29.2735 21.9324 29.2334 21.8423C29.1932 21.7522 29.1713 21.655 29.1687 21.5564C29.1662 21.4578 29.1831 21.3597 29.2186 21.2677H29.2196Z" fill="white"/>
</svg>
