<svg width="52" height="52" viewBox="0 0 52 52" fill="none" xmlns="http://www.w3.org/2000/svg">
<path d="M24 1.1547C25.2376 0.440169 26.7624 0.440169 28 1.1547L46.5167 11.8453C47.7543 12.5598 48.5167 13.8803 48.5167 15.3094V36.6906C48.5167 38.1197 47.7543 39.4402 46.5167 40.1547L28 50.8453C26.7624 51.5598 25.2376 51.5598 24 50.8453L5.48334 40.1547C4.24573 39.4402 3.48334 38.1197 3.48334 36.6906V15.3094C3.48334 13.8803 4.24574 12.5598 5.48334 11.8453L24 1.1547Z" fill="#0C4A6E"/>
<path d="M29 36.75H23C17.57 36.75 15.25 34.43 15.25 29V23C15.25 17.57 17.57 15.25 23 15.25H29C34.43 15.25 36.75 17.57 36.75 23V29C36.75 34.43 34.43 36.75 29 36.75ZM23 16.75C18.39 16.75 16.75 18.39 16.75 23V29C16.75 33.61 18.39 35.25 23 35.25H29C33.61 35.25 35.25 33.61 35.25 29V23C35.25 18.39 33.61 16.75 29 16.75H23Z" fill="white"/>
<path d="M29.5 24.5C28.26 24.5 27.25 23.49 27.25 22.25C27.25 21.01 28.26 20 29.5 20C30.74 20 31.75 21.01 31.75 22.25C31.75 23.49 30.74 24.5 29.5 24.5ZM29.5 21.5C29.09 21.5 28.75 21.84 28.75 22.25C28.75 22.66 29.09 23 29.5 23C29.91 23 30.25 22.66 30.25 22.25C30.25 21.84 29.91 21.5 29.5 21.5Z" fill="white"/>
<path d="M22.5 24.5C21.26 24.5 20.25 23.49 20.25 22.25C20.25 21.01 21.26 20 22.5 20C23.74 20 24.75 21.01 24.75 22.25C24.75 23.49 23.74 24.5 22.5 24.5ZM22.5 21.5C22.09 21.5 21.75 21.84 21.75 22.25C21.75 22.66 22.09 23 22.5 23C22.91 23 23.25 22.66 23.25 22.25C23.25 21.84 22.91 21.5 22.5 21.5Z" fill="white"/>
<path d="M26 33.4498C23.1 33.4498 20.75 31.0898 20.75 28.1998C20.75 27.2898 21.49 26.5498 22.4 26.5498H29.6C30.51 26.5498 31.25 27.2898 31.25 28.1998C31.25 31.0898 28.9 33.4498 26 33.4498ZM22.4 28.0498C22.32 28.0498 22.25 28.1198 22.25 28.1998C22.25 30.2698 23.93 31.9498 26 31.9498C28.07 31.9498 29.75 30.2698 29.75 28.1998C29.75 28.1198 29.68 28.0498 29.6 28.0498H22.4Z" fill="white"/>
</svg>
