<svg width="82" height="83" viewBox="0 0 82 83" fill="none" xmlns="http://www.w3.org/2000/svg">
<rect x="0.5" y="1.11328" width="81" height="81" rx="40.5" stroke="#ACACAC"/>
<path d="M30.9601 28.3788C33.8997 27.9963 36.8959 27.8008 39.9375 27.8008C42.9791 27.8008 45.9753 27.9977 48.9149 28.3788C51.6377 28.7329 53.5772 31.0152 53.7387 33.6587C53.2651 33.5009 52.7742 33.4006 52.2767 33.3598C48.3074 33.0303 44.3176 33.0303 40.3483 33.3598C37.0078 33.6374 34.625 36.4623 34.625 39.6413V45.7131C34.6237 46.8801 34.9448 48.0248 35.5531 49.0208C36.1613 50.0168 37.033 50.8253 38.0717 51.3571L34.3133 55.1141C34.1647 55.2625 33.9755 55.3636 33.7695 55.4045C33.5635 55.4454 33.3501 55.4244 33.156 55.344C32.962 55.2637 32.7961 55.1276 32.6794 54.9531C32.5626 54.7785 32.5002 54.5733 32.5 54.3633V48.6541C31.986 48.5995 31.4727 48.539 30.9601 48.4728C28.1154 48.1016 26.125 45.6267 26.125 42.8344V34.0171C26.125 31.2263 28.1154 28.7485 30.9601 28.3788Z" fill="#12AAFF"/>
<path d="M46.3125 35.2383C44.3632 35.2383 42.4322 35.319 40.524 35.4777C38.3423 35.659 36.75 37.5092 36.75 39.6427V45.7131C36.75 47.848 38.348 49.6996 40.5325 49.8781C42.2934 50.0226 44.0742 50.1005 45.8705 50.1119L49.8117 54.0516C49.9603 54.2 50.1495 54.3011 50.3555 54.342C50.5615 54.3829 50.7749 54.3619 50.969 54.2815C51.163 54.2012 51.3289 54.0651 51.4456 53.8906C51.5624 53.716 51.6248 53.5108 51.625 53.3008V49.915L52.0925 49.8781C54.277 49.701 55.875 47.848 55.875 45.7131V39.6413C55.875 37.5092 54.2812 35.659 52.101 35.4763C50.1756 35.3171 48.2445 35.2377 46.3125 35.2383Z" fill="#12AAFF"/>
</svg>
