<svg width="52" height="53" viewBox="0 0 52 53" fill="none" xmlns="http://www.w3.org/2000/svg">
<rect y="0.949219" width="51.625" height="51.625" rx="25.8125" fill="#DCF1FF"/>
<path fill-rule="evenodd" clip-rule="evenodd" d="M25.8125 12.9492C18.1837 12.9492 12 19.133 12 26.7617C12 34.3905 18.1837 40.5742 25.8125 40.5742C33.4412 40.5742 39.625 34.3905 39.625 26.7617C39.625 19.133 33.4412 12.9492 25.8125 12.9492ZM17.6837 18.3637C15.9596 20.033 14.7911 22.1925 14.337 24.549C13.883 26.9054 14.1653 29.3445 15.1456 31.5349C16.1259 33.7253 17.7568 35.5609 19.8166 36.7922C21.8764 38.0235 24.2653 38.5909 26.6588 38.4173C29.0523 38.2437 31.3344 37.3376 33.1949 35.8219C35.0555 34.3063 36.4045 32.2546 37.0585 29.9457C37.7125 27.6367 37.6399 25.1824 36.8506 22.9162C36.0612 20.6499 34.5934 18.6816 32.6465 17.2786C32.1674 18.0444 31.5309 18.6997 30.7793 19.201L29 20.3867L29.2337 20.8542C29.3413 21.0694 29.3784 21.3131 29.3398 21.5505C29.3012 21.788 29.1888 22.0073 29.0186 22.1774C28.8484 22.3474 28.629 22.4596 28.3915 22.498C28.1539 22.5364 27.9104 22.4991 27.6953 22.3913L26.8396 21.9635C26.5406 21.8139 26.2022 21.7622 25.8722 21.8156C25.5422 21.869 25.2373 22.0248 25.0007 22.261L24.8137 22.4466C24.1918 23.0699 24.1918 24.0786 24.8137 24.7005L25.2331 25.1198C25.5957 25.4839 26.1143 25.6496 26.6214 25.5646L28.2789 25.2884C28.7365 25.2119 29.2054 25.3394 29.561 25.6355L31.4452 27.2051C31.8985 27.5834 32.0968 28.1883 31.9523 28.7635C31.4103 30.9296 30.29 32.9079 28.711 34.4868L27.6867 35.5125C27.4502 35.7486 27.1453 35.9044 26.8153 35.9578C26.4853 36.0112 26.1469 35.9595 25.8479 35.81L25.6312 35.7023C25.3665 35.57 25.1438 35.3666 24.9882 35.1149C24.8325 34.8631 24.7501 34.5731 24.75 34.2771V32.7344C24.75 32.3122 24.5814 31.9056 24.2825 31.6067L22.3742 29.6985C22.1381 29.4619 21.9823 29.157 21.9289 28.827C21.8755 28.497 21.9272 28.1586 22.0767 27.8596L22.625 26.7617L20.3017 24.4384C19.0486 23.1854 18.2185 21.5722 17.9273 19.8243L17.6837 18.3637Z" fill="#0C4A6E"/>
</svg>
