<svg width="82" height="83" viewBox="0 0 82 83" fill="none" xmlns="http://www.w3.org/2000/svg">
<rect x="0.5" y="1.11328" width="81" height="81" rx="40.5" stroke="#ACACAC"/>
<path d="M54.7859 27.8273C54.0886 27.13 53.1428 26.7383 52.1566 26.7383C51.1704 26.7383 50.2247 27.13 49.5273 27.8273L47.8882 29.4663L53.1469 34.725L54.7859 33.0859C55.4832 32.3885 55.8749 31.4428 55.8749 30.4566C55.8749 29.4704 55.4832 28.5246 54.7859 27.8273ZM51.6438 36.2281L46.3851 30.9694L34.4851 42.8694C33.6108 43.7433 32.9681 44.8213 32.6151 46.0059L31.4818 49.8097C31.4271 49.9932 31.423 50.1882 31.47 50.3738C31.517 50.5595 31.6133 50.7291 31.7487 50.8645C31.8841 50.9999 32.0537 51.0962 32.2394 51.1432C32.425 51.1902 32.62 51.1861 32.8035 51.1314L36.6073 49.9981C37.7919 49.6451 38.8699 49.0024 39.7438 48.1281L51.6438 36.2281Z" fill="#12AAFF"/>
<path d="M31.4375 32.0508C30.3103 32.0508 29.2293 32.4985 28.4323 33.2956C27.6353 34.0926 27.1875 35.1736 27.1875 36.3008V51.1758C27.1875 52.3029 27.6353 53.384 28.4323 54.181C29.2293 54.978 30.3103 55.4258 31.4375 55.4258H46.3125C47.4397 55.4258 48.5207 54.978 49.3177 54.181C50.1147 53.384 50.5625 52.3029 50.5625 51.1758V43.7383C50.5625 43.4565 50.4506 43.1862 50.2513 42.987C50.052 42.7877 49.7818 42.6758 49.5 42.6758C49.2182 42.6758 48.948 42.7877 48.7487 42.987C48.5494 43.1862 48.4375 43.4565 48.4375 43.7383V51.1758C48.4375 51.7394 48.2136 52.2799 47.8151 52.6784C47.4166 53.0769 46.8761 53.3008 46.3125 53.3008H31.4375C30.8739 53.3008 30.3334 53.0769 29.9349 52.6784C29.5364 52.2799 29.3125 51.7394 29.3125 51.1758V36.3008C29.3125 35.7372 29.5364 35.1967 29.9349 34.7982C30.3334 34.3997 30.8739 34.1758 31.4375 34.1758H38.875C39.1568 34.1758 39.427 34.0638 39.6263 33.8646C39.8256 33.6653 39.9375 33.3951 39.9375 33.1133C39.9375 32.8315 39.8256 32.5612 39.6263 32.362C39.427 32.1627 39.1568 32.0508 38.875 32.0508H31.4375Z" fill="#12AAFF"/>
</svg>
