<svg width="45" height="45" viewBox="0 0 45 45" fill="none" xmlns="http://www.w3.org/2000/svg">
<path fill-rule="evenodd" clip-rule="evenodd" d="M5.625 11.25C5.625 9.75816 6.21763 8.32742 7.27252 7.27252C8.32742 6.21763 9.75816 5.625 11.25 5.625H33.75C35.2418 5.625 36.6726 6.21763 37.7275 7.27252C38.7824 8.32742 39.375 9.75816 39.375 11.25V33.75C39.375 35.2418 38.7824 36.6726 37.7275 37.7275C36.6726 38.7824 35.2418 39.375 33.75 39.375H11.25C9.75816 39.375 8.32742 38.7824 7.27252 37.7275C6.21763 36.6726 5.625 35.2418 5.625 33.75V11.25ZM32.3438 22.5C32.3434 22.8728 32.195 23.2303 31.9313 23.4937L27.7125 27.7125C27.5838 27.8507 27.4285 27.9615 27.256 28.0383C27.0835 28.1152 26.8973 28.1565 26.7085 28.1599C26.5197 28.1632 26.3321 28.1285 26.157 28.0577C25.9819 27.987 25.8228 27.8817 25.6893 27.7482C25.5558 27.6147 25.4505 27.4556 25.3798 27.2805C25.309 27.1054 25.2743 26.9178 25.2776 26.729C25.281 26.5402 25.3223 26.354 25.3992 26.1815C25.476 26.009 25.5868 25.8537 25.725 25.725L28.95 22.5L25.725 19.275C25.5868 19.1463 25.476 18.991 25.3992 18.8185C25.3223 18.646 25.281 18.4598 25.2776 18.271C25.2743 18.0822 25.309 17.8946 25.3798 17.7195C25.4505 17.5444 25.5558 17.3853 25.6893 17.2518C25.8228 17.1183 25.9819 17.013 26.157 16.9423C26.3321 16.8715 26.5197 16.8368 26.7085 16.8401C26.8973 16.8435 27.0835 16.8848 27.256 16.9617C27.4285 17.0385 27.5838 17.1493 27.7125 17.2875L31.9313 21.5063C32.1956 21.7688 32.3438 22.1269 32.3438 22.5ZM13.0687 21.5063C12.8054 21.7699 12.6575 22.1273 12.6575 22.5C12.6575 22.8727 12.8054 23.2301 13.0687 23.4937L17.2875 27.7125C17.4162 27.8507 17.5715 27.9615 17.744 28.0383C17.9165 28.1152 18.1027 28.1565 18.2915 28.1599C18.4803 28.1632 18.6679 28.1285 18.843 28.0577C19.0181 27.987 19.1772 27.8817 19.3107 27.7482C19.4442 27.6147 19.5495 27.4556 19.6202 27.2805C19.691 27.1054 19.7257 26.9178 19.7224 26.729C19.719 26.5402 19.6777 26.354 19.6008 26.1815C19.524 26.009 19.4132 25.8537 19.275 25.725L16.05 22.5L19.275 19.275C19.4132 19.1463 19.524 18.991 19.6008 18.8185C19.6777 18.646 19.719 18.4598 19.7224 18.271C19.7257 18.0822 19.691 17.8946 19.6202 17.7195C19.5495 17.5444 19.4442 17.3853 19.3107 17.2518C19.1772 17.1183 19.0181 17.013 18.843 16.9423C18.6679 16.8715 18.4803 16.8368 18.2915 16.8401C18.1027 16.8435 17.9165 16.8848 17.744 16.9617C17.5715 17.0385 17.4162 17.1493 17.2875 17.2875L13.0687 21.5063Z" fill="#0284C7"/>
</svg>
