<svg width="45" height="45" viewBox="0 0 45 45" fill="none" xmlns="http://www.w3.org/2000/svg">
<path fill-rule="evenodd" clip-rule="evenodd" d="M23.4675 4.06834C23.2063 3.82067 22.86 3.68262 22.5 3.68262C22.14 3.68262 21.7938 3.82067 21.5325 4.06834C17.5524 7.84811 12.2515 9.92083 6.76314 9.84334C6.46414 9.83945 6.17169 9.93097 5.92825 10.1046C5.68481 10.2783 5.50306 10.525 5.40939 10.809C4.61809 13.2205 4.21617 15.7428 4.21876 18.2808C4.21876 29.4221 11.8388 38.7802 22.1494 41.4333C22.3794 41.4926 22.6206 41.4926 22.8506 41.4333C33.1613 38.7802 40.7813 29.4221 40.7813 18.2808C40.7813 15.6746 40.3631 13.1621 39.5906 10.809C39.4973 10.5246 39.3157 10.2775 39.0722 10.1035C38.8287 9.9295 38.5361 9.8377 38.2369 9.84146L37.9688 9.84334C32.3513 9.84334 27.2494 7.64959 23.4675 4.06834ZM29.2688 19.0983C29.3813 18.9484 29.4627 18.7776 29.5082 18.5957C29.5537 18.4139 29.5624 18.2249 29.5338 18.0396C29.5052 17.8544 29.4399 17.6768 29.3416 17.5171C29.2434 17.3575 29.1142 17.2192 28.9617 17.1102C28.8093 17.0012 28.6365 16.9238 28.4537 16.8825C28.2709 16.8412 28.0817 16.8369 27.8972 16.8698C27.7126 16.9027 27.5366 16.9722 27.3793 17.0741C27.222 17.176 27.0867 17.3084 26.9813 17.4633L20.9138 25.9571L17.8688 22.9121C17.6022 22.6637 17.2496 22.5285 16.8853 22.5349C16.521 22.5413 16.1734 22.6889 15.9157 22.9465C15.6581 23.2042 15.5105 23.5518 15.5041 23.9161C15.4976 24.2804 15.6329 24.633 15.8813 24.8996L20.1 29.1183C20.2444 29.2626 20.4184 29.3737 20.61 29.4439C20.8016 29.5142 21.0062 29.5419 21.2096 29.5251C21.4129 29.5083 21.6102 29.4475 21.7878 29.3468C21.9653 29.2461 22.1187 29.108 22.2375 28.9421L29.2688 19.0983Z" fill="#0284C7"/>
</svg>
