<svg width="45" height="45" viewBox="0 0 45 45" fill="none" xmlns="http://www.w3.org/2000/svg">
<path d="M35.1562 23.9062H37.9688C38.3417 23.9062 38.6994 23.7581 38.9631 23.4944C39.2268 23.2306 39.375 22.873 39.375 22.5C39.375 22.127 39.2268 21.7694 38.9631 21.5056C38.6994 21.2419 38.3417 21.0938 37.9688 21.0938H35.1562C34.7833 21.0938 34.4256 21.2419 34.1619 21.5056C33.8982 21.7694 33.75 22.127 33.75 22.5C33.75 22.873 33.8982 23.2306 34.1619 23.4944C34.4256 23.7581 34.7833 23.9062 35.1562 23.9062ZM22.5 11.25C22.5 10.877 22.6482 10.5194 22.9119 10.2556C23.1756 9.99191 23.5333 9.84375 23.9062 9.84375H37.9688C38.3417 9.84375 38.6994 9.99191 38.9631 10.2556C39.2268 10.5194 39.375 10.877 39.375 11.25C39.375 11.623 39.2268 11.9806 38.9631 12.2444C38.6994 12.5081 38.3417 12.6562 37.9688 12.6562H23.9062C23.5333 12.6562 23.1756 12.5081 22.9119 12.2444C22.6482 11.9806 22.5 11.623 22.5 11.25ZM22.5 33.75C22.5 33.377 22.6482 33.0194 22.9119 32.7556C23.1756 32.4919 23.5333 32.3438 23.9062 32.3438H37.9688C38.3417 32.3438 38.6994 32.4919 38.9631 32.7556C39.2268 33.0194 39.375 33.377 39.375 33.75C39.375 34.123 39.2268 34.4806 38.9631 34.7444C38.6994 35.0081 38.3417 35.1562 37.9688 35.1562H23.9062C23.5333 35.1562 23.1756 35.0081 22.9119 34.7444C22.6482 34.4806 22.5 34.123 22.5 33.75ZM7.03125 12.6562H9.84375C10.2167 12.6562 10.5744 12.5081 10.8381 12.2444C11.1018 11.9806 11.25 11.623 11.25 11.25C11.25 10.877 11.1018 10.5194 10.8381 10.2556C10.5744 9.99191 10.2167 9.84375 9.84375 9.84375H7.03125C6.65829 9.84375 6.3006 9.99191 6.03688 10.2556C5.77316 10.5194 5.625 10.877 5.625 11.25C5.625 11.623 5.77316 11.9806 6.03688 12.2444C6.3006 12.5081 6.65829 12.6562 7.03125 12.6562ZM9.84375 35.1562H7.03125C6.65829 35.1562 6.3006 35.0081 6.03688 34.7444C5.77316 34.4806 5.625 34.123 5.625 33.75C5.625 33.377 5.77316 33.0194 6.03688 32.7556C6.3006 32.4919 6.65829 32.3438 7.03125 32.3438H9.84375C10.2167 32.3438 10.5744 32.4919 10.8381 32.7556C11.1018 33.0194 11.25 33.377 11.25 33.75C11.25 34.123 11.1018 34.4806 10.8381 34.7444C10.5744 35.0081 10.2167 35.1562 9.84375 35.1562ZM5.625 22.5C5.625 22.127 5.77316 21.7694 6.03688 21.5056C6.3006 21.2419 6.65829 21.0938 7.03125 21.0938H21.0938C21.4667 21.0938 21.8244 21.2419 22.0881 21.5056C22.3518 21.7694 22.5 22.127 22.5 22.5C22.5 22.873 22.3518 23.2306 22.0881 23.4944C21.8244 23.7581 21.4667 23.9062 21.0938 23.9062H7.03125C6.65829 23.9062 6.3006 23.7581 6.03688 23.4944C5.77316 23.2306 5.625 22.873 5.625 22.5ZM16.875 7.03125C15.7561 7.03125 14.6831 7.47572 13.8919 8.26689C13.1007 9.05806 12.6562 10.1311 12.6562 11.25C12.6562 12.3689 13.1007 13.4419 13.8919 14.2331C14.6831 15.0243 15.7561 15.4688 16.875 15.4688C17.9939 15.4688 19.0669 15.0243 19.8581 14.2331C20.6493 13.4419 21.0938 12.3689 21.0938 11.25C21.0938 10.1311 20.6493 9.05806 19.8581 8.26689C19.0669 7.47572 17.9939 7.03125 16.875 7.03125ZM23.9062 22.5C23.9062 21.3811 24.3507 20.3081 25.1419 19.5169C25.9331 18.7257 27.0061 18.2812 28.125 18.2812C29.2439 18.2812 30.3169 18.7257 31.1081 19.5169C31.8993 20.3081 32.3438 21.3811 32.3438 22.5C32.3438 23.6189 31.8993 24.6919 31.1081 25.4831C30.3169 26.2743 29.2439 26.7188 28.125 26.7188C27.0061 26.7188 25.9331 26.2743 25.1419 25.4831C24.3507 24.6919 23.9062 23.6189 23.9062 22.5ZM16.875 29.5312C15.7561 29.5312 14.6831 29.9757 13.8919 30.7669C13.1007 31.5581 12.6562 32.6311 12.6562 33.75C12.6562 34.8689 13.1007 35.9419 13.8919 36.7331C14.6831 37.5243 15.7561 37.9688 16.875 37.9688C17.9939 37.9688 19.0669 37.5243 19.8581 36.7331C20.6493 35.9419 21.0938 34.8689 21.0938 33.75C21.0938 32.6311 20.6493 31.5581 19.8581 30.7669C19.0669 29.9757 17.9939 29.5312 16.875 29.5312Z" fill="#0284C7"/>
</svg>
