<svg width="45" height="45" viewBox="0 0 45 45" fill="none" xmlns="http://www.w3.org/2000/svg">
<path fill-rule="evenodd" clip-rule="evenodd" d="M2.8125 13.3594C2.8125 11.4169 4.3875 9.84375 6.32812 9.84375H17.5781C19.5206 9.84375 21.0938 11.4188 21.0938 13.3594V20.3906C21.0938 22.3331 19.5187 23.9062 17.5781 23.9062H6.32812C5.39572 23.9062 4.50151 23.5359 3.8422 22.8765C3.1829 22.2172 2.8125 21.323 2.8125 20.3906V13.3594ZM25.3125 16.1719C25.3125 14.2294 26.8875 12.6562 28.8281 12.6562H38.6719C40.6125 12.6562 42.1875 14.2313 42.1875 16.1719V31.6406C42.1875 33.5812 40.6125 35.1562 38.6719 35.1562H28.8281C27.8957 35.1562 27.0015 34.7859 26.3422 34.1265C25.6829 33.4672 25.3125 32.573 25.3125 31.6406V16.1719ZM5.625 30.2344C5.625 28.2919 7.2 26.7188 9.14062 26.7188H18.9844C20.9269 26.7188 22.5 28.2938 22.5 30.2344V34.4531C22.5 36.3937 20.925 37.9688 18.9844 37.9688H9.14062C8.20822 37.9688 7.31401 37.5984 6.6547 36.939C5.9954 36.2797 5.625 35.3855 5.625 34.4531V30.2344Z" fill="#0284C7"/>
</svg>
